<svg xmlns="http://www.w3.org/2000/svg" xml:space="preserve" style="fill-rule:evenodd;clip-rule:evenodd;stroke-linecap:round;stroke-linejoin:round;stroke-miterlimit:1.5" viewBox="0 0 285 107"><g transform="matrix(.99487 0 0 1.01619 -1666.93 -1834.917)"><path d="M1675.53 1805.68H1962v105.295h-286.47z" style="fill:none"/><clipPath id="a"><path d="M1675.53 1805.68H1962v105.295h-286.47z"/></clipPath><g clip-path="url(#a)"><g transform="matrix(1.00829 0 0 1.16526 1558.68 1727.46)"><path d="M400 75.792c0-4.779-4.58-8.659-10.222-8.659H126.107c-5.641 0-10.221 3.88-10.221 8.659v73.044c0 4.779 4.58 8.659 10.221 8.659h263.671c5.642 0 10.222-3.88 10.222-8.659z" style="fill:#fff"/><clipPath id="b"><path d="M400 75.792c0-4.779-4.58-8.659-10.222-8.659H126.107c-5.641 0-10.221 3.88-10.221 8.659v73.044c0 4.779 4.58 8.659 10.221 8.659h263.671c5.642 0 10.222-3.88 10.222-8.659z"/></clipPath><g clip-path="url(#b)"><path d="m1085.23 2025 29.58-79m0 0s-15.27-13.48 0-15 22.68 10.66 0 15" style="fill:none;stroke:#000;stroke-width:6.72px" transform="matrix(.29691 0 0 .25152 -201.65 -344.021)"/><path d="M1114.81 1930.87s-18.61-22.5 3.79-20.87c22.39 1.63 30.79 30.17 10.57 20.87" style="fill:none;stroke:#000;stroke-width:7.24px" transform="matrix(.25204 0 0 .25152 -151.947 -344.021)"/><path d="M1124.1 1909.92s38.23-2.44 36.05-24.92c-2.17-22.48 12.71-27.53 21.85-29s28.1 2.75 43 1c2.83-.33 40.05 35.46 46 45s2 19.32 2 19.32h-16l-1-11.4s-19.71-18.93-28-19.92c5.65 15.98 5.39 44.89 11 48.43 5.61 3.55-31.7 20.95-43 0 1.74-15.56.16-25.95-10-39.43s-6-23-6-23c-.66 23.32-10.31 47.41-39.36 45.32" style="fill:none;stroke:#000;stroke-width:6.72px" transform="matrix(.29691 0 0 .25152 -201.65 -344.021)"/><path d="M1267 1921.32s-30.98 9.97-7 27.26c23.98 17.3 25.41-26.3 7-27.26" style="fill:none;stroke:#000;stroke-width:8.43px" transform="matrix(.24233 0 0 .1953 -133.372 -236.498)"/><path d="M1196.5 1815c13.46 1.28 24.5 11.43 24.5 25.5s-10.98 25.5-24.5 25.5-17.73-13.16-24.5-25.5c-9.05-16.48 3.5-27.49 24.5-25.5" style="fill:#fff;stroke:#000;stroke-width:6.72px" transform="matrix(.29691 0 0 .25152 -201.65 -344.021)"/><circle cx="1188" cy="1836" r="2" transform="matrix(.6689 0 0 .56665 -643.417 -922.207)"/><circle cx="1188" cy="1836" r="2" transform="matrix(.6689 0 0 .56665 -638.417 -922.445)"/><path d="M1194 1938.43s-26.58 70.01-6 99.57c21.11 2.35 28 0 28 0s-17.69-80.7 11-74 26.58 51.82 30 70c26.62-2.53 27-3 27-3s-14.93-86.39-45-92.57" style="fill:none;stroke:#000;stroke-width:6.72px" transform="matrix(.29691 0 0 .25152 -201.65 -344.021)"/><path d="M1188.51 1852s6.25-9.08 12.33-5 5.82 3.3 9.01 1" style="fill:none;stroke:#020200;stroke-width:6.72px" transform="matrix(.29691 0 0 .25152 -201.65 -344.021)"/><path d="M666 1704s-77.292 26.55-142 29.16" style="fill:none;stroke:#000;stroke-width:1.5px" transform="matrix(.9969 0 0 .8445 -295.699 -1307.61)"/><path d="m360.011 2131.95-64.878-20.71s-1.85-78.83-2.133-88.24-4.032-48.23-7-63.27c-11.582-4.47-61.245-19.03-16-47.73 25.52-5.72 70.853-11.03 80.602-18.18s.04-6.58 0-15.82c16.789-9.78 31.605-24.49 92.398-25.63s190.19 13.05 230 30.74c39.81 17.7 56.632 19.76 61.414 26.56-13.412 1.68-14.414 0-14.414 0l2 38.33s52.655 16.45 52.53 47c-3.543 9.62-9.54 19.13-16.53 22 .93 10.97 1.69 126.2 0 134s.81 39.96-50 61c-11.968 6.86-35.199 14.84-55 19-16.242-.03-64.5-4.42-110.78-35-8.113 4.37-30.116 7.38-23.266-8-8.06 8.95-30.65 9.18-29.954-8 .536-13.23-3.687-12.82 0-21-11.187-.9-16.756 15.12-34.215-7.02-28.642-2.03-27.16-13.46-34.785-24.98 9.826 23.05-6.027 33.08-16.257 31.5-10.886-1.68-26.002-.5-32.077-4.58-15.238-10.22-10.628-28.25-11.655-21.97" style="fill:#fff;stroke:#fff;stroke-width:8.34px" transform="matrix(-.16743 0 0 .14183 478.108 -167.69)"/><path d="M288 1962s5.525 140.64 9 148 51.677 20.22 64 24 2.823-39.6 30-32 149.105 58.16 152 61-2.634 26.87 7 35 79.79 30.68 91 33 104.721-65.92 113-75 3.275-121.96 1-133" style="fill:none;stroke:#000;stroke-width:8.34px" transform="matrix(-.16743 0 0 .14183 478.108 -167.69)"/><path d="M350 1890s-203.204 50.65-25 75c87.685 19.61 167.486 41.61 198.294 45s144.082 32.31 214.706 17 30.16-70.19-3-77c-41.464 4.67-76.963 13.68-92 15s-265.149-51.91-284-59c-.168-8.41-9-16-9-16" style="fill:none;stroke:#000;stroke-width:8.34px" transform="matrix(-.16743 0 0 .14183 478.108 -167.69)"/><path d="M334 1883s219.815 19.42 290 51c22.718-11.44 27.334-21.23 110-19-21.212-18.74-98.664-62.3-308-62-29.368 0-71.958 12.16-92 30m292 51v28m95-47v34.5M549 1915v32.5M423 2052l36 8s5.936-42.58-10-42-26 15.9-26 34m64 14 36 6s8.087-40.56-15-40.56-21 19.79-21 34.56m75 123 61 17 2-163-64-11.56zm31-150v158" style="fill:none;stroke:#000;stroke-width:8.34px" transform="matrix(-.16743 0 0 .14183 478.108 -167.69)"/><path d="M571 2060h10v43h-10z" style="fill:none;stroke:#000;stroke-width:5.66px" transform="matrix(-.16743 0 0 .14183 478.108 -167.69)"/><path d="m663 2118 93-37m-57.24-29s36.233-49.75 35.24 37" style="fill:none;stroke:#000;stroke-width:8.34px" transform="matrix(-.16743 0 0 .14183 478.108 -167.69)"/><path d="M730 2044s14.052-19.97 26-3m-91 145s-19.438 7.99-4.273 20c11.717 9.28 18.058-26.35 4.273-20" style="fill:none;stroke:#000;stroke-width:8.34px" transform="matrix(-.16743 0 0 .14183 478.108 -167.69)"/><path d="M740 2135s-12.856 11.21 0 13 5.2-19.78 0-13" style="fill:none;stroke:#000;stroke-width:8.34px" transform="matrix(-.16743 0 0 .14183 477.773 -167.406)"/><path d="M643 2231c5.994.96 117.593-19.48 111-73.71m-332.705-15.87s19.791 21.68 22.705 1.14 1.04 38.97 27-9.56c-.821 15.01-2.186 38.49 37.311 15" style="fill:none;stroke:#000;stroke-width:8.34px" transform="matrix(-.16743 0 0 .14183 478.108 -167.69)"/><ellipse cx="422.5" cy="2150.62" rx="33.5" ry="34.618" style="fill:#fff;stroke:#000;stroke-width:18.73px" transform="matrix(-.06684 .0207 .02668 .06182 364.704 -1.14)"/><ellipse cx="422.5" cy="2150.62" rx="33.5" ry="34.618" style="fill:#fff;stroke:#000;stroke-width:18.73px" transform="matrix(-.06684 .0207 .02668 .06182 360.213 .377)"/><path d="m691 2180 34-24v-40l-36 14.53zm-40-150-9 201.06M662 2118s-9.028-74 21-74c25.028-1 15 47.4 15 59" style="fill:none;stroke:#000;stroke-width:8.34px" transform="matrix(-.16743 0 0 .14183 478.108 -167.69)"/><path d="M602 2060h13l-2 47-11-1z" style="fill:none;stroke:#000;stroke-width:5.66px" transform="matrix(-.16743 0 0 .14183 478.108 -167.69)"/><path d="M490.566 1700.29c.194 0 .535-.02 1.022-.07.487-.04 1.038-.2 1.655-.47.811-.32 1.339-.78 1.582-1.39.243-.6.365-1.67.365-3.2 0-1.27.065-2.48.195-3.62.519-5.14.779-10.74.779-16.83 0-1.66-.09-3.58-.268-5.78q-.268-3.285-1.679-6.69c-2.142-4.99-6.556-7.48-13.241-7.48-1.72 0-3.416.21-5.087.62s-3.286 1.22-4.843 2.4c-2.304 1.78-4.219 4.26-5.744 7.41q-.974 2.145-1.85 6.03c-.584 2.6-.957 4.83-1.12 6.7l-.048.64c-.033.57-.073.99-.122 1.25-.049.27-.162.45-.341.55-.178.09-.543.18-1.095.26q-4.43.99-4.43 3.06 0 1.815 2.337 2.7c.324.15.633.25.925.29q.438.06 1.265.06l.682-.03.341.07c.259.06.421.36.486.89l1.023 6.68c.194 1.61.438 2.55.73 2.83l.048.06q1.51 1.5 3.943 1.5h.195c2.531-.11 3.797-1.22 3.797-3.34q0-1.755-.535-6.3l-.244-2.04-.195-1.72c0-.17.065-.31.195-.43.13-.11.357-.24.682-.36.649-.19 2.953-.57 6.912-1.15 1.103-.15 2.353-.26 3.748-.35 1.785-.1 3.116-.16 3.992-.16.227 0 .365.03.413.08.049.06.074.16.074.31l-.049.19c0 .93-.13 2.79-.39 5.56-.324 3.08-.486 5.42-.486 7.04 0 1.44.129 2.3.389 2.57.26.28.6.55 1.022.83q.634.42 1.363.6c.487.15 1.023.23 1.607.23m-18.693-21.92c-.422 0-.633-.11-.633-.32 0-.11.025-.22.073-.35.049-.13.073-.35.073-.67l.049-.32q.535-3.66 1.801-7.47c.844-2.55 1.785-4.5 2.824-5.86 1.72-1.97 3.261-2.96 4.624-2.96q.39 0 1.728.42c.893.27 1.817 1.43 2.775 3.46a23.9 23.9 0 0 1 1.971 6.56c.26 1.46.39 2.75.39 3.85q0 1.905-.341 2.13-.146.09-.584.09l-2.775.19c-2.369.18-4.292.34-5.768.5-1.477.16-3.351.4-5.623.71zm34.367 20.9c1.071 0 2.077-.3 3.018-.89l.925-.61c1.071.22 1.866.34 2.385.38a14 14 0 0 0 1.899.13q3.163 0 6.498-1.17c2.223-.79 4.032-1.85 5.428-3.19 2.661-2.82 3.991-6.1 3.991-9.86 0-2.48-.649-4.79-1.947-6.94-1.46-1.84-3.342-3.23-5.646-4.16q-2.629-1.05-5.306-1.05-.876 0-1.753.09c-1.655.24-3.099.64-4.332 1.21-.292.13-.503.19-.633.19a.46.46 0 0 1-.243-.08c-.098-.05-.146-.26-.146-.62.032-.48.276-2.13.73-4.93q.438-2.985 1.411-6.3.487-1.56.487-2.22c0-.41-.146-.8-.438-1.18-.908-.94-2.142-1.4-3.699-1.4-.098 0-.593.01-1.485.05-.892.03-1.777.59-2.653 1.67-.195.31-.487 1.12-.876 2.4-.39 1.28-.763 2.68-1.12 4.18-.422 1.72-.925 5.1-1.509 10.15q-.389 3.15-.511 4.95t-.122 4.41q0 2.67.122 4.26c.081 1.06.235 2.44.462 4.13.39 2.76.682 4.28.877 4.55q.681 1.08 2.142 1.53a7.3 7.3 0 0 0 2.044.32m8.519-6.71a5.2 5.2 0 0 1-1.388-.21q-.754-.21-.998-.51c-.162-.2-.308-.71-.438-1.51-.227-1.15-.34-2.42-.34-3.82q0-.57.048-1.02c.682-3.54 1.931-5.87 3.749-7 .811-.51 1.59-.76 2.336-.76q1.314 0 2.385 1.11c.876 1.59 1.315 3.21 1.315 4.84q0 .96-.463 3.12-.462 2.16-2.653 4.23-1.606 1.53-3.553 1.53m33.393 6.42c1.363 0 2.71-.09 4.04-.28 7.205-1.09 10.855-3.65 10.953-7.7q-.049-3.435-3.602-5.76c-.812-.55-1.793-1.03-2.945-1.43-1.153-.41-2.686-.81-4.601-1.21-2.076-.45-3.521-.83-4.332-1.15q-1.947-.735-1.947-2.13 0-.6.511-1.53c.341-.61.982-1.12 1.923-1.52q1.022-.39 1.509-.39c.292 0 .503.07.633.2.13.12.324.24.584.35q1.314.6 2.775.6c1.038 0 1.995-.28 2.872-.83.811-.59 1.216-1.26 1.216-2q0-.315-.292-1.26c-.194-.62-1.038-1.27-2.531-1.92-1.525-.6-3.164-.89-4.916-.89-1.688 0-3.456.27-5.306.82-4.349 1.4-6.945 3.8-7.789 7.19-.065.41-.097.81-.097 1.21 0 2.06 1.071 3.89 3.213 5.51.941.68 2.036 1.24 3.285 1.7 1.25.45 3.075.95 5.477 1.48 1.785.4 3.042.74 3.772 1 .73.27 1.177.57 1.339.91s.243.64.243.92q0 1.05-1.46 1.62c-1.136.47-2.434.7-3.894.7-.325 0-1.039-.04-2.142-.11-1.104-.07-2.093-.59-2.97-1.54-.324-.41-.624-.7-.9-.88q-.414-.27-1.241-.54t-1.461-.27c-1.428 0-2.547.29-3.358.86q-1.413.99-1.412 2.19c0 .54.195 1.09.584 1.66 2.304 2.95 6.393 4.42 12.267 4.42m29.986-.63c.259 0 .705-.01 1.338-.04q.95-.03 2.142-.3t2.556-.87c.908-.41 1.687-.85 2.336-1.34q.876-.6 1.12-.6l.049.03c.064.1.259.3.584.57.746.68 1.314 1.15 1.703 1.4.909.47 1.931.7 3.067.7.584 0 1.136-.06 1.655-.19q2.63-.885 2.629-2.58c0-.38-.114-.75-.341-1.09-.227-.36-.617-.79-1.168-1.32-1.169-1.4-1.785-3.42-1.85-6.05v-.86c0-2.23.114-4.04.341-5.44 0-.19.178-1.57.535-4.13.098-.75.146-1.34.146-1.79 0-.61-.048-1.04-.146-1.27q-.584-1.02-2.044-1.56a6.5 6.5 0 0 0-2.142-.38c-1.98 0-3.408.67-4.284 2-.649 1.49-1.006 3.64-1.071 6.46a48 48 0 0 1-.438 4.84c-.227 1.59-.649 2.97-1.265 4.13-1.526 2.46-3.1 3.7-4.722 3.7-1.493 0-2.369-1.33-2.629-3.98v-.38c0-.96.098-2.21.292-3.76.325-2.18.844-4.18 1.558-5.98.195-.53.519-1.01.973-1.43q1.023-.93 1.023-2.1c0-.15-.057-.51-.171-1.1-.113-.58-.689-1.14-1.728-1.67q-1.12-.54-2.482-.54c-.163 0-.576.03-1.242.1q-.998.09-2.117.9c-.746.54-1.485 1.63-2.215 3.26q-1.096 2.46-2.458 8.34a16.7 16.7 0 0 0-.438 3.69c0 2.2.641 4.36 1.922 6.47 1.282 2.11 3.659 3.46 7.132 4.03.584.08 1.201.13 1.85.13m29.937 1.52c1.038 0 2.004-.27 2.896-.82.892-.56 1.339-1.28 1.339-2.17 0-.61-.146-1.47-.438-2.57-.098-.66-.146-1.29-.146-1.88v-.41c0-.43-.017-.84-.049-1.25a8.4 8.4 0 0 1-.195-1.81q0-1.755.876-4.26.876-2.52 3.408-4.62 2.093-1.71 5.111-1.71c.584 0 1.193.05 1.825.16q.95.15 2.021.15c.584 0 1.152-.14 1.703-.44 1.039-.6 1.558-1.35 1.558-2.26q0-2.295-2.288-3.15c-1.33-.57-2.888-.86-4.673-.86-.324 0-1.128.04-2.41.11-1.281.08-2.782.62-4.502 1.64l-1.071.61q-.049 0-.098-.15a6 6 0 0 0-.146-.36q-.73-2.52-4.429-2.52c-1.428 0-2.564.43-3.408 1.28-.357.29-.641.7-.852 1.21-.211.5-.413 1.3-.608 2.38-.746 3.16-1.12 6.4-1.12 9.7q0 3.09.438 6.24l.098.54q.535 4.365.925 5.25.681 1.11 2.141 1.62c.714.24 1.412.35 2.094.35m36.07-.54q.73 0 2.191-.09c2.596-.17 5.16-1.09 7.691-2.74q.876-.57 1.071-.57l.048.03c.13.19.357.4.682.64.616.46 1.282.76 1.996.89q.438.09 1.265.09 2.143 0 3.31-1.05c.39-.27.658-.57.804-.89q.219-.48.219-1.62c0-.76-.049-1.93-.146-3.5-.033-.38-.049-.78-.049-1.21-.26-4.45-.389-8.25-.389-11.39q0-5.22.778-11.67c.228-2.15.422-3.54.585-4.19s.243-1.22.243-1.73c0-1.27-.536-2.16-1.606-2.64-.714-.38-1.542-.58-2.483-.58-1.46 0-2.645.37-3.554 1.09-.843.68-1.281 1.51-1.314 2.51q-.048.315-.122 1.08-.072.765-.219 1.59c-.551 3.33-.941 6.76-1.168 10.28l-.584-.23a18.6 18.6 0 0 0-6.572-1.2c-2.726 0-5.111.64-7.155 1.94-1.72 1.1-3.294 2.63-4.722 4.58-1.785 2.54-2.677 5.1-2.677 7.66v2.04c0 1.34.584 2.98 1.752 4.93 2.045 3.31 4.884 5.26 8.519 5.86q.681.09 1.606.09m1.363-6.17c-.162 0-.803-.05-1.923-.14-1.119-.1-1.825-1.52-2.117-4.28v-.77q0-3.495 1.29-6.18c.86-1.8 2.036-2.96 3.529-3.49.292-.08.584-.13.876-.13q1.899 0 3.505 1.98c1.006 1.38 1.509 3.2 1.509 5.47 0 1.85-.406 3.33-1.217 4.45q-2.531 3.09-5.452 3.09m64.45 4.49c1.752 0 3.05-.63 3.894-1.88.162-.28.244-.57.244-.89q0-.57-.512-2.04c-.34-.97-.6-1.82-.778-2.54q-.268-1.08-.341-2.52c-.049-.95-.073-2.79-.073-5.5 0-3.56.227-8.07.681-13.52.357-3.88.666-5.87.925-5.95q.147-.06.487-.06h.633c.097-.03.211-.04.341-.04l2.58-.03c2.531 0 3.918 0 4.162-.01.243-.02.494-.02.754-.02 1.59-.13 2.726-.6 3.407-1.43.357-.43.536-.87.536-1.34 0-.42-.162-.87-.487-1.33q-.828-1.08-2.58-1.44c-1.298-.17-2.937-.25-4.916-.25-1.428 0-3.651.07-6.669.22s-5.939.4-8.762.73c-3.018.36-5.347.69-6.986.97-1.638.29-2.823.59-3.553.91s-1.249.72-1.558 1.19q-.462.72-.462 1.32c0 .68.405 1.3 1.217 1.85.811.55 1.817.83 3.018.83a9 9 0 0 0 1.752-.19c1.98-.39 3.505-.64 4.576-.77 1.59-.19 2.499-.28 2.726-.28.324 0 .487.11.487.35v.11c0 .03-.017.06-.049.08-.032.55-.114 1.33-.243 2.35-.714 5.85-1.071 11.17-1.071 15.94 0 3.69.194 6.45.584 8.27.097.51.259 1.11.487 1.78q.779 2.58 1.071 3.06 1.411 2.07 4.478 2.07m18.546 2.22c1.039 0 2.004-.27 2.897-.82.892-.56 1.338-1.28 1.338-2.17 0-.61-.146-1.47-.438-2.57-.097-.66-.146-1.29-.146-1.88v-.41c0-.43-.016-.84-.049-1.25a8.4 8.4 0 0 1-.194-1.81q0-1.755.876-4.26.876-2.52 3.407-4.62 2.094-1.71 5.112-1.71c.584 0 1.192.05 1.825.16q.95.15 2.02.15c.584 0 1.152-.14 1.704-.44 1.038-.6 1.558-1.35 1.558-2.26q0-2.295-2.288-3.15c-1.331-.57-2.888-.86-4.673-.86-.325 0-1.128.04-2.41.11-1.282.08-2.783.62-4.503 1.64l-1.071.61q-.048 0-.097-.15a6 6 0 0 0-.146-.36q-.73-2.52-4.43-2.52c-1.428 0-2.563.43-3.407 1.28-.357.29-.641.7-.852 1.21-.211.5-.414 1.3-.608 2.38-.747 3.16-1.12 6.4-1.12 9.7q0 3.09.438 6.24l.097.54q.536 4.365.925 5.25.682 1.11 2.142 1.62a6.5 6.5 0 0 0 2.093.35m37.929-.79c3.473 0 6.45-.68 8.933-2.02 2.482-1.35 4.454-3.06 5.914-5.14 1.947-2.84 2.921-5.73 2.921-8.65 0-1.28-.211-2.43-.633-3.47-.876-2.04-2.223-3.75-4.04-5.12-2.986-2.19-6.604-3.28-10.856-3.28-3.375 0-6.587.76-9.638 2.29q-1.12.54-1.801 1.02c-2.921 2.06-4.787 4.64-5.598 7.76a13.8 13.8 0 0 0-.438 3.4q0 2.07.901 4.98c.6 1.94 2.093 3.77 4.478 5.48 2.385 1.7 5.622 2.62 9.711 2.75zm.682-5.06-.828-.03c-2.563-.38-4.316-1.5-5.257-3.34a8.9 8.9 0 0 1-.974-4.11q0-1.02.414-3.24.414-2.235 2.799-4.65c1.493-1.5 3.391-2.26 5.696-2.26h.438c2.206.28 3.748 1.35 4.624 3.22.682 1.38 1.022 2.88 1.022 4.51q0 .87-.316 3.06c-.211 1.46-1.047 3.01-2.507 4.64-1.298 1.47-3.002 2.2-5.111 2.2m28.038 4.29c1.298 0 2.386-.34 3.262-1.01.552-.43.876-.88.973-1.37.065-.21.098-.45.098-.7 0-.38-.065-.82-.195-1.31-.909-4.01-1.363-8.35-1.363-13.04 0-4.9.406-10.59 1.217-17.08.065-.58.097-1.01.097-1.31-.065-.97-.519-1.77-1.363-2.38-.584-.43-1.314-.72-2.19-.86l-.487-.04c-.422 0-.86.06-1.314.16-.649.13-1.193.34-1.631.62q-.657.435-.998.93c-.227.33-.438.9-.633 1.73-1.071 4.96-1.606 10.62-1.606 16.96v.57q.145 9.87 1.752 15.33c.26.77.649 1.34 1.169 1.72a6 6 0 0 0 1.849.89c.455.13.909.19 1.363.19m14.993 0c1.298 0 2.385-.34 3.262-1.01.551-.43.876-.88.973-1.37.065-.21.098-.45.098-.7 0-.38-.065-.82-.195-1.31-.909-4.01-1.363-8.35-1.363-13.04 0-4.9.406-10.59 1.217-17.08.065-.58.097-1.01.097-1.31-.065-.97-.519-1.77-1.363-2.38-.584-.43-1.314-.72-2.19-.86l-.487-.04c-.422 0-.86.06-1.314.16-.649.13-1.193.34-1.631.62q-.657.435-.998.93c-.227.33-.438.9-.633 1.73-1.071 4.96-1.606 10.62-1.606 16.96v.57q.146 9.87 1.752 15.33c.26.77.649 1.34 1.168 1.72.52.38 1.136.68 1.85.89.455.13.909.19 1.363.19m26.578.55q4.431 0 9.249-2.04c3.83-1.72 5.744-3.4 5.744-5.03l-.048-.44c-.552-1.34-1.72-2.12-3.505-2.36a8 8 0 0 0-.925-.06c-1.395 0-2.596.45-3.602 1.37-.39.4-.941.8-1.655 1.21-.714.4-1.477.73-2.288.98-.584.19-1.055.32-1.412.37s-.876.08-1.558.08c-.746 0-1.281-.03-1.606-.08-.324-.05-.771-.17-1.339-.35-.567-.18-1.046-.37-1.436-.56-.843-.42-1.687-1.06-2.531-1.91-.714-.7-1.071-1.14-1.071-1.33 0-.17.179-.29.536-.34s1.59-.09 3.699-.11c4.901-.04 9.087-.69 12.559-1.94q6.231-2.22 6.231-6.78c0-1.67-.779-3.13-2.337-4.37q-2.336-1.86-5.841-2.79c-1.947-.5-3.943-.76-5.987-.76q-.682 0-1.315.03c-4.381.3-8.015 1.39-10.904 3.26-2.888 1.88-4.835 4.18-5.841 6.89a10.4 10.4 0 0 0-.633 3.53c0 1.57.374 3.17 1.12 4.81 1.395 2.65 3.764 4.84 7.107 6.58 1.038.49 2.28.93 3.724 1.31s2.88.63 4.308.76c.519.04 1.038.07 1.557.07m-6.084-16.13c-.844 0-1.282-.07-1.315-.2.065-.76.796-1.71 2.191-2.86 1.395-1.14 3.229-1.94 5.501-2.38.486-.09.989-.13 1.509-.13q2.823 0 4.137 1.05c.292.23.438.51.438.82 0 .34-.162.73-.486 1.15-1.006 1.19-3.749 1.97-8.227 2.35-1.493.13-2.742.2-3.748.2m35.437 27.45c.422 0 1.071-.05 1.948-.16 2.271-.27 4.332-.75 6.182-1.43.973-.36 2.052-.92 3.237-1.67 1.184-.75 2.052-1.43 2.604-2.02 1.59-1.82 2.645-4.06 3.164-6.71.13-.75.243-2.22.341-4.43a242 242 0 0 0 .146-14.47l-.146-4.04q-.098-.735-.39-1.08c-.908-1.08-2.206-1.64-3.894-1.66q-2.385.03-3.626 1.02c-.828.66-1.29 1.44-1.388 2.35l-.048.42a88 88 0 0 1-.852 6.09q-.56 3.225-1.68 5.58c-.486.9-1.168 1.7-2.044 2.42q-1.168.96-2.239.96c-.13 0-.422-.03-.876-.1-.455-.06-.844-.89-1.169-2.48-.162-1.38-.243-2.92-.243-4.61 0-1.87.081-3.4.243-4.58q.244-1.785.876-4.08c.195-.65.293-1.21.293-1.65 0-.23-.049-.53-.147-.88s-.503-.72-1.216-1.13c-.909-.5-1.866-.76-2.872-.76-.228 0-.739.05-1.534.14-.795.1-1.549.57-2.263 1.42q-.682.93-1.363 3.69-1.12 4.575-1.12 7.83c0 1.82.227 3.63.682 5.44 1.298 4.54 3.942 7.24 7.934 8.11.649.11 1.379.16 2.191.16 1.103 0 2.077-.12 2.92-.35q1.996-.57 3.797-2.04l.195-.16q.584-.51.779-.51c.097 0 .146.1.146.29 0 .28-.049.73-.146 1.37l-.098.41c-.422 4.12-2.596 6.51-6.523 7.19-.649.11-1.087.16-1.314.16q-.243 0-.487-.06a10 10 0 0 0-1.849-.19q-2.483 0-3.749 1.56c-.324.4-.486.8-.486 1.21 0 .44.194.9.584 1.36.779 1.02 2.077 1.66 3.894 1.91.617.11 1.152.16 1.606.16" style="fill-rule:nonzero" transform="matrix(.34834 0 0 .3709 24.546 -521.459)"/><path d="M548.128 1758.04q2.336 0 3.602-1.56.34-.45.34-1.11 0-.795-.486-1.95c-.455-1.56-.682-3.28-.682-5.15q0-1.05.098-2.13c.032-.34.162-.55.389-.64q.34-.12.974-.12a.3.3 0 0 1 .146-.04c1.979-.12 4.356-.64 7.131-1.55 2.775-.92 5.249-1.99 7.423-3.22 4.965-3.05 7.448-6.88 7.448-11.48l-.049-1.02c-.421-3.2-2.304-5.89-5.646-8.05q-4.284-3.21-11.732-4.17c-1.103-.15-2.385-.22-3.845-.22s-2.694.07-3.7.22c-3.342.53-5.419 1.08-6.231 1.66q-2.045.915-3.65 2.07c-1.753 1.27-2.629 2.4-2.629 3.4 0 .25.081.62.243 1.1.163.47.649.94 1.461 1.38.519.62 1.298.92 2.336.92.812 0 1.647-.16 2.507-.47q1.29-.48 1.923-1.44c1.038-1.8 3.683-2.79 7.934-2.95h.633c3.732 0 6.702.86 8.908 2.57q1.51 1.185 2.191 2.58.39.99.389 2.07c0 2.06-.827 3.95-2.482 5.69-.974.91-2.386 1.81-4.235 2.69s-3.765 1.56-5.744 2.05c-.552.13-.941.19-1.169.19-.259 0-.389-.08-.389-.25 0-.19.178-1.32.535-3.37q.633-3.54.877-4.41.243-.87.243-1.92c-.26-1.24-1.136-2.1-2.629-2.61a6.2 6.2 0 0 0-1.898-.32q-1.314 0-2.58.57c-.227.13-.47.33-.73.59s-.471.52-.633.76c-.162.25-.243.45-.243.62v.07l-.487 2.16q-1.51 6.24-1.85 11.01l-.146 1.91a34 34 0 0 0-.243 4.1c0 .7.032 1.77.097 3.22q.098 2.16 1.947 4.8c1.006 1.16 2.45 1.75 4.333 1.75m34.707 2.48c1.039 0 2.004-.28 2.896-.83q1.34-.825 1.339-2.16c0-.62-.146-1.47-.438-2.58a13 13 0 0 1-.146-1.87v-.42c0-.42-.016-.84-.049-1.24-.13-.59-.194-1.2-.194-1.81 0-1.17.292-2.59.876-4.27.584-1.67 1.72-3.21 3.407-4.61 1.396-1.14 3.099-1.72 5.111-1.72.585 0 1.193.06 1.826.16.633.11 1.306.16 2.02.16.584 0 1.152-.15 1.704-.44 1.038-.6 1.557-1.35 1.557-2.26q0-2.295-2.287-3.15c-1.331-.58-2.889-.86-4.674-.86-.324 0-1.127.04-2.409.11s-2.783.62-4.503 1.64l-1.071.6c-.032 0-.065-.05-.097-.14-.033-.1-.081-.22-.146-.37-.487-1.67-1.964-2.51-4.43-2.51-1.428 0-2.564.43-3.407 1.27-.357.3-.641.7-.852 1.21s-.414 1.31-.609 2.39a42 42 0 0 0-1.119 9.7q0 3.09.438 6.24l.097.54q.535 4.35.925 5.25.681 1.11 2.142 1.62c.714.23 1.412.35 2.093.35m37.929-.79c3.472 0 6.45-.68 8.932-2.03 2.483-1.34 4.454-3.06 5.915-5.13 1.947-2.85 2.921-5.73 2.921-8.66 0-1.27-.211-2.43-.633-3.47-.876-2.03-2.223-3.74-4.041-5.12q-4.478-3.27-10.855-3.27c-3.375 0-6.588.76-9.638 2.29q-1.12.54-1.801 1.02c-2.921 2.05-4.787 4.64-5.598 7.76a13.7 13.7 0 0 0-.438 3.4q0 2.07.9 4.98c.601 1.94 2.093 3.77 4.479 5.47q3.577 2.565 9.711 2.76zm.682-5.06-.828-.04c-2.564-.38-4.316-1.49-5.257-3.34a8.9 8.9 0 0 1-.974-4.1c0-.68.138-1.76.414-3.25.276-1.48 1.209-3.03 2.799-4.64 1.493-1.51 3.391-2.26 5.695-2.26h.438q3.31.42 4.625 3.21c.681 1.38 1.022 2.89 1.022 4.52q0 .855-.316 3.06c-.211 1.46-1.047 3.01-2.507 4.64-1.298 1.46-3.002 2.2-5.111 2.2m27.211 5.24a5.6 5.6 0 0 0 3.018-.88l.925-.61c1.07.21 1.866.34 2.385.38.649.09 1.282.13 1.898.13 2.11 0 4.276-.39 6.499-1.18q3.334-1.17 5.427-3.18c2.661-2.82 3.992-6.11 3.992-9.86 0-2.48-.649-4.8-1.947-6.94-1.461-1.84-3.343-3.23-5.647-4.16a14 14 0 0 0-5.306-1.05q-.876 0-1.752.09c-1.655.23-3.099.64-4.333 1.21-.292.13-.503.19-.632.19a.6.6 0 0 1-.244-.08c-.097-.05-.146-.26-.146-.62.033-.49.276-2.13.73-4.93q.438-2.985 1.412-6.3c.325-1.04.487-1.78.487-2.23q0-.6-.438-1.17c-.909-.94-2.142-1.4-3.7-1.4-.097 0-.592.01-1.484.04-.893.04-1.777.59-2.653 1.67-.195.32-.487 1.12-.877 2.41a69 69 0 0 0-1.119 4.18c-.422 1.72-.925 5.1-1.509 10.15q-.39 3.15-.511 4.95c-.082 1.19-.122 2.66-.122 4.4q0 2.67.122 4.26t.462 4.14c.389 2.76.682 4.28.876 4.55q.682 1.08 2.142 1.53c.714.21 1.396.31 2.045.31m8.518-6.71c-.422 0-.884-.07-1.387-.2q-.755-.21-.998-.51c-.162-.2-.308-.71-.438-1.51-.227-1.15-.341-2.42-.341-3.82q0-.57.049-1.02c.681-3.54 1.931-5.87 3.748-7 .811-.51 1.59-.76 2.337-.76q1.314 0 2.385 1.11c.876 1.59 1.314 3.2 1.314 4.84 0 .63-.154 1.67-.462 3.11-.309 1.45-1.193 2.86-2.653 4.24-1.071 1.01-2.256 1.52-3.554 1.52m26.627 5.76q1.947 0 3.262-1.02c.551-.42.876-.88.973-1.36.065-.22.098-.45.098-.7 0-.39-.065-.82-.195-1.31-.909-4.01-1.363-8.36-1.363-13.04 0-4.9.405-10.6 1.217-17.09.065-.57.097-1.01.097-1.3-.065-.98-.519-1.77-1.363-2.39-.584-.42-1.314-.71-2.19-.86l-.487-.03c-.422 0-.86.05-1.314.16-.649.13-1.193.33-1.631.62s-.771.6-.998.92q-.34.495-.633 1.74-1.606 7.44-1.606 16.95v.58q.146 9.855 1.752 15.33c.26.76.649 1.34 1.168 1.72.52.38 1.136.68 1.85.89.455.13.909.19 1.363.19m26.578.54c2.954 0 6.037-.68 9.249-2.03 3.83-1.72 5.744-3.4 5.744-5.03l-.048-.45c-.552-1.33-1.72-2.12-3.505-2.35a8 8 0 0 0-.925-.06c-1.396 0-2.596.45-3.602 1.36-.39.41-.941.81-1.655 1.21-.714.41-1.477.73-2.288.99-.584.19-1.055.31-1.412.37-.357.05-.876.07-1.558.07-.746 0-1.281-.02-1.606-.07-.324-.06-.771-.17-1.339-.36a9.5 9.5 0 0 1-1.436-.55c-.843-.43-1.687-1.06-2.531-1.91-.714-.7-1.071-1.15-1.071-1.34q0-.255.536-.33c.357-.05 1.59-.09 3.699-.11 4.9-.04 9.087-.69 12.559-1.94q6.231-2.235 6.231-6.78c0-1.67-.779-3.13-2.337-4.37q-2.336-1.86-5.841-2.79a23.5 23.5 0 0 0-5.987-.76q-.682 0-1.315.03c-4.381.3-8.015 1.38-10.904 3.26s-4.835 4.18-5.841 6.89a10.3 10.3 0 0 0-.633 3.53c0 1.57.373 3.17 1.12 4.81 1.395 2.65 3.764 4.84 7.107 6.58 1.038.49 2.28.92 3.724 1.3 1.444.39 2.88.64 4.308.77q.779.06 1.557.06m-6.084-16.13c-.844 0-1.282-.06-1.315-.19.065-.76.795-1.72 2.191-2.86 1.395-1.15 3.229-1.94 5.501-2.39.486-.08.989-.13 1.509-.13q2.823 0 4.137 1.05c.292.24.438.51.438.83 0 .34-.162.72-.487 1.15-1.006 1.19-3.748 1.97-8.226 2.35-1.493.13-2.742.19-3.748.19m61.918 15.69q2.045 0 3.408-.99c.486-.32.803-.64.949-.97s.219-.81.219-1.45l.049-2.8c.227-3.35.389-5.35.486-6.01.13-1.1.195-2.73.195-4.87 0-.55-.016-1.05-.049-1.49q-.048-2.64-1.752-4.89-1.704-2.235-5.793-2.94c-.584-.08-1.2-.13-1.849-.13q-1.509 0-3.603.42c-1.395.27-2.726.78-3.991 1.52q-.682.39-.828.39h-.048c-.065 0-.114-.04-.146-.1q-.78-.825-2.24-1.56a10.66 10.66 0 0 0-4.819-1.14c-2.206 0-4.413.65-6.62 1.97l-1.12.6a1 1 0 0 1-.17-.2 6 6 0 0 0-.316-.42c-.13-.16-.301-.32-.511-.47-.211-.16-.398-.3-.56-.4a6.7 6.7 0 0 0-1.607-.42 7.4 7.4 0 0 0-1.119-.09l-.487.03c-1.655.3-2.823.97-3.505 2-.324.81-.487 2.61-.487 5.41q0 5.61.39 10.53c.259 3.29.568 5.42.925 6.4.454.89 1.298 1.49 2.531 1.81.487.13.99.19 1.509.19.746 0 1.509-.13 2.288-.41q1.362-.51 1.923-1.32c.373-.54.608-1.38.705-2.53l.146-2.16c.293-5.12.633-8.66 1.023-10.63.162-.76.511-1.5 1.046-2.19.536-.7 1.112-1.16 1.728-1.37.13-.04.26-.07.39-.07q1.947 0 1.947 5.22c0 2.55-.033 4.77-.097 6.68a51 51 0 0 0-.098 2.87q0 1.71.195 2.25.097.195.316.48.22.285.511.51 1.315 1.05 3.165 1.05.389 0 1.825-.18c.957-.11 1.809-.7 2.556-1.76.227-.32.389-1.1.486-2.35.098-1.26.309-3.08.633-5.48q.487-3.585 1.12-5.82c.357-1.04.973-1.8 1.85-2.29q.876-.48 1.703-.48.39 0 1.217.27c.552.18.909.89 1.071 2.12 0 1.4-.081 2.51-.243 3.34-.13.62-.227 1.3-.292 2.07-.26 2.73-.39 5.06-.39 6.97q0 2.955.633 3.78c.422.55 1.087.97 1.996 1.24.519.17 1.055.26 1.606.26m22.441.57c1.363 0 2.71-.1 4.04-.29 7.205-1.08 10.855-3.65 10.953-7.7q-.049-3.435-3.602-5.76c-.812-.55-1.793-1.02-2.945-1.43q-1.729-.6-4.601-1.2c-2.077-.45-3.521-.83-4.332-1.15q-1.947-.735-1.947-2.13 0-.6.511-1.53.512-.915 1.923-1.53c.681-.25 1.184-.38 1.509-.38.292 0 .503.07.633.19.13.13.324.25.584.35.876.41 1.801.61 2.774.61a5.3 5.3 0 0 0 2.872-.83c.812-.59 1.217-1.26 1.217-2 0-.22-.097-.63-.292-1.26s-1.038-1.27-2.531-1.93c-1.525-.59-3.164-.89-4.916-.89-1.688 0-3.457.28-5.306.83-4.349 1.4-6.945 3.8-7.789 7.19-.065.4-.097.81-.097 1.21 0 2.06 1.071 3.89 3.213 5.5q1.412 1.02 3.285 1.71 1.875.675 5.477 1.47c1.785.41 3.042.74 3.772 1.01.73.26 1.177.57 1.339.9q.243.51.243.93 0 1.05-1.46 1.62c-1.136.47-2.434.7-3.894.7-.325 0-1.039-.04-2.142-.11-1.104-.08-2.093-.59-2.97-1.55q-.486-.6-.9-.87t-1.241-.54-1.461-.27c-1.428 0-2.547.29-3.359.86q-1.411.99-1.411 2.19c0 .53.195 1.08.584 1.66 2.304 2.94 6.393 4.42 12.267 4.42" style="fill-rule:nonzero" transform="matrix(.34834 0 0 .3709 24.546 -520.614)"/><path d="M704 1714s-30.542 22.66-109 25" style="fill:none;stroke:#000;stroke-width:1.5px" transform="matrix(.9969 0 0 .8445 -295.699 -1307.61)"/></g><path d="M400 75.792v73.044c0 4.779-4.58 8.659-10.222 8.659H126.107c-5.641 0-10.221-3.88-10.221-8.659V75.792c0-4.779 4.58-8.659 10.221-8.659h263.671c5.642 0 10.222 3.88 10.222 8.659m-1.994 0c0-3.847-3.687-6.97-8.228-6.97H126.107c-4.541 0-8.227 3.123-8.227 6.97v73.044c0 3.847 3.686 6.97 8.227 6.97h263.671c4.541 0 8.228-3.123 8.228-6.97z"/></g></g></g></svg>