<svg version="1.1" xmlns="http://www.w3.org/2000/svg" viewBox="0 0 1420 960" width="1420" height="960">
  <!-- svg-source:excalidraw -->
  
  <defs>
    <style>
      @font-face {
        font-family: "Virgil";
        src: url("https://excalidraw.com/Virgil.woff2");
      }
      @font-face {
        font-family: "Cascadia";
        src: url("https://excalidraw.com/Cascadia.woff2");
      }
    </style>
  </defs>
  <rect x="0" y="0" width="1420" height="960" fill="#ffffff"></rect><g transform="translate(30 10) rotate(0 150 12.5)"><text x="0" y="NaN" font-family="Cascadia, Segoe UI Emoji" font-size="20px" fill="#343a40" text-anchor="start" style="white-space: pre;" direction="ltr">Dashboard Layout (1440px)</text></g><g stroke-linecap="round" transform="translate(10 50) rotate(0 700 450)"><path d="M0 0 C285.16 0, 570.32 0, 1400 0 M0 0 C293.94 0, 587.87 0, 1400 0 M1400 0 C1400 333.54, 1400 667.08, 1400 900 M1400 0 C1400 320.5, 1400 641, 1400 900 M1400 900 C976.48 900, 552.96 900, 0 900 M1400 900 C943.83 900, 487.65 900, 0 900 M0 900 C0 635.52, 0 371.03, 0 0 M0 900 C0 636.78, 0 373.57, 0 0" stroke="#343a40" stroke-width="1" fill="none"></path></g><g stroke-linecap="round" transform="translate(10 50) rotate(0 700 30)"><path d="M0 0 L1400 0 L1400 60 L0 60" stroke="none" stroke-width="0" fill="#adb5bd"></path><path d="M0 0 C493.35 0, 986.69 0, 1400 0 M0 0 C286.1 0, 572.19 0, 1400 0 M1400 0 C1400 20.01, 1400 40.01, 1400 60 M1400 0 C1400 22.15, 1400 44.29, 1400 60 M1400 60 C893.41 60, 386.81 60, 0 60 M1400 60 C982.41 60, 564.82 60, 0 60 M0 60 C0 45.75, 0 31.49, 0 0 M0 60 C0 40.22, 0 20.44, 0 0" stroke="#343a40" stroke-width="2" fill="none"></path></g><g transform="translate(30 70) rotate(0 33.6 8.75)"><text x="0" y="NaN" font-family="Cascadia, Segoe UI Emoji" font-size="14px" fill="#868e96" text-anchor="start" style="white-space: pre;" direction="ltr">[ Logo ]</text></g><g transform="translate(1190 70) rotate(0 63 8.75)"><text x="0" y="NaN" font-family="Cascadia, Segoe UI Emoji" font-size="14px" fill="#868e96" text-anchor="start" style="white-space: pre;" direction="ltr">[ User Avatar ]</text></g><g stroke-linecap="round" transform="translate(10 110) rotate(0 110 420)"><path d="M0 0 L220 0 L220 840 L0 840" stroke="none" stroke-width="0" fill="#dee2e6"></path><path d="M0 0 C83.02 0, 166.03 0, 220 0 M0 0 C61.96 0, 123.93 0, 220 0 M220 0 C220 172.68, 220 345.36, 220 840 M220 0 C220 236.19, 220 472.38, 220 840 M220 840 C132.08 840, 44.16 840, 0 840 M220 840 C155.9 840, 91.8 840, 0 840 M0 840 C0 649.51, 0 459.03, 0 0 M0 840 C0 588.13, 0 336.25, 0 0" stroke="#868e96" stroke-width="2" fill="none"></path></g><g transform="translate(30 130) rotate(0 39 8.125)"><text x="0" y="NaN" font-family="Cascadia, Segoe UI Emoji" font-size="13px" fill="#343a40" text-anchor="start" style="white-space: pre;" direction="ltr">Navigation</text></g><g transform="translate(40 161.875) rotate(0 90 8.125)"><text x="90" y="NaN" font-family="Cascadia, Segoe UI Emoji" font-size="13px" fill="#868e96" text-anchor="middle" style="white-space: pre;" direction="ltr">Dashboard</text></g><g stroke-linecap="round" transform="translate(30 150) rotate(0 100 20)"><path d="M0 0 C70.17 0, 140.33 0, 200 0 M0 0 C46.73 0, 93.46 0, 200 0 M200 0 C200 15.66, 200 31.32, 200 40 M200 0 C200 13.77, 200 27.55, 200 40 M200 40 C148.11 40, 96.22 40, 0 40 M200 40 C154.86 40, 109.71 40, 0 40 M0 40 C0 30.48, 0 20.96, 0 0 M0 40 C0 27.91, 0 15.82, 0 0" stroke="#868e96" stroke-width="2" fill="none"></path></g><g transform="translate(40 221.875) rotate(0 90 8.125)"><text x="90" y="NaN" font-family="Cascadia, Segoe UI Emoji" font-size="13px" fill="#868e96" text-anchor="middle" style="white-space: pre;" direction="ltr">Analytics</text></g><g stroke-linecap="round" transform="translate(30 210) rotate(0 100 20)"><path d="M0 0 C44.92 0, 89.83 0, 200 0 M0 0 C68.8 0, 137.6 0, 200 0 M200 0 C200 12.96, 200 25.91, 200 40 M200 0 C200 14.89, 200 29.78, 200 40 M200 40 C121.94 40, 43.87 40, 0 40 M200 40 C122.5 40, 45.01 40, 0 40 M0 40 C0 31.88, 0 23.77, 0 0 M0 40 C0 27.3, 0 14.59, 0 0" stroke="#868e96" stroke-width="2" fill="none"></path></g><g transform="translate(40 261.875) rotate(0 90 8.125)"><text x="90" y="NaN" font-family="Cascadia, Segoe UI Emoji" font-size="13px" fill="#868e96" text-anchor="middle" style="white-space: pre;" direction="ltr">Users</text></g><g stroke-linecap="round" transform="translate(30 250) rotate(0 100 20)"><path d="M0 0 C57.55 0, 115.1 0, 200 0 M0 0 C62.42 0, 124.84 0, 200 0 M200 0 C200 8.38, 200 16.76, 200 40 M200 0 C200 15.95, 200 31.89, 200 40 M200 40 C148.66 40, 97.32 40, 0 40 M200 40 C134.2 40, 68.41 40, 0 40 M0 40 C0 25.47, 0 10.94, 0 0 M0 40 C0 31.47, 0 22.94, 0 0" stroke="#868e96" stroke-width="2" fill="none"></path></g><g transform="translate(40 321.875) rotate(0 90 8.125)"><text x="90" y="NaN" font-family="Cascadia, Segoe UI Emoji" font-size="13px" fill="#868e96" text-anchor="middle" style="white-space: pre;" direction="ltr">Settings</text></g><g stroke-linecap="round" transform="translate(30 310) rotate(0 100 20)"><path d="M0 0 C79.62 0, 159.24 0, 200 0 M0 0 C73.97 0, 147.93 0, 200 0 M200 0 C200 11.41, 200 22.83, 200 40 M200 0 C200 10.65, 200 21.29, 200 40 M200 40 C121.82 40, 43.64 40, 0 40 M200 40 C153.19 40, 106.38 40, 0 40 M0 40 C0 30.84, 0 21.69, 0 0 M0 40 C0 26.74, 0 13.49, 0 0" stroke="#868e96" stroke-width="2" fill="none"></path></g><g transform="translate(40 361.875) rotate(0 90 8.125)"><text x="90" y="NaN" font-family="Cascadia, Segoe UI Emoji" font-size="13px" fill="#868e96" text-anchor="middle" style="white-space: pre;" direction="ltr">Help</text></g><g stroke-linecap="round" transform="translate(30 350) rotate(0 100 20)"><path d="M0 0 C71.34 0, 142.67 0, 200 0 M0 0 C45.43 0, 90.85 0, 200 0 M200 0 C200 10.34, 200 20.69, 200 40 M200 0 C200 12.55, 200 25.11, 200 40 M200 40 C158.76 40, 117.52 40, 0 40 M200 40 C126.8 40, 53.59 40, 0 40 M0 40 C0 30.78, 0 21.56, 0 0 M0 40 C0 28.17, 0 16.35, 0 0" stroke="#868e96" stroke-width="2" fill="none"></path></g><g stroke-linecap="round" transform="translate(250 110) rotate(0 130 50)"><path d="M0 0 L260 0 L260 100 L0 100" stroke="none" stroke-width="0" fill="#ffffff"></path><path d="M0 0 C87.76 0, 175.53 0, 260 0 M0 0 C60.74 0, 121.49 0, 260 0 M260 0 C260 39.75, 260 79.51, 260 100 M260 0 C260 36.1, 260 72.19, 260 100 M260 100 C160.7 100, 61.41 100, 0 100 M260 100 C162.77 100, 65.54 100, 0 100 M0 100 C0 73.16, 0 46.31, 0 0 M0 100 C0 65.4, 0 30.8, 0 0" stroke="#1971c2" stroke-width="2" fill="none"></path></g><g transform="translate(270 130) rotate(0 39.599999999999994 7.5)"><text x="0" y="NaN" font-family="Cascadia, Segoe UI Emoji" font-size="12px" fill="#868e96" text-anchor="start" style="white-space: pre;" direction="ltr">Total Users</text></g><g transform="translate(270 170) rotate(0 39.599999999999994 13.75)"><text x="0" y="NaN" font-family="Cascadia, Segoe UI Emoji" font-size="22px" fill="#343a40" text-anchor="start" style="white-space: pre;" direction="ltr">12,847</text></g><g stroke-linecap="round" transform="translate(530 110) rotate(0 130 50)"><path d="M0 0 L260 0 L260 100 L0 100" stroke="none" stroke-width="0" fill="#ffffff"></path><path d="M0 0 C72.25 0, 144.5 0, 260 0 M0 0 C97.56 0, 195.13 0, 260 0 M260 0 C260 37.8, 260 75.6, 260 100 M260 0 C260 36.84, 260 73.68, 260 100 M260 100 C201.79 100, 143.58 100, 0 100 M260 100 C164.8 100, 69.6 100, 0 100 M0 100 C0 73.29, 0 46.59, 0 0 M0 100 C0 65.53, 0 31.05, 0 0" stroke="#1971c2" stroke-width="2" fill="none"></path></g><g transform="translate(550 130) rotate(0 25.19999999999999 7.5)"><text x="0" y="NaN" font-family="Cascadia, Segoe UI Emoji" font-size="12px" fill="#868e96" text-anchor="start" style="white-space: pre;" direction="ltr">Revenue</text></g><g transform="translate(550 170) rotate(0 46.19999999999999 13.75)"><text x="0" y="NaN" font-family="Cascadia, Segoe UI Emoji" font-size="22px" fill="#343a40" text-anchor="start" style="white-space: pre;" direction="ltr">$48,290</text></g><g stroke-linecap="round" transform="translate(810 110) rotate(0 130 50)"><path d="M0 0 L260 0 L260 100 L0 100" stroke="none" stroke-width="0" fill="#ffffff"></path><path d="M0 0 C63.57 0, 127.14 0, 260 0 M0 0 C66.36 0, 132.73 0, 260 0 M260 0 C260 21.29, 260 42.57, 260 100 M260 0 C260 22.56, 260 45.11, 260 100 M260 100 C166.36 100, 72.72 100, 0 100 M260 100 C200.7 100, 141.41 100, 0 100 M0 100 C0 67.89, 0 35.78, 0 0 M0 100 C0 78.83, 0 57.66, 0 0" stroke="#1971c2" stroke-width="2" fill="none"></path></g><g transform="translate(830 130) rotate(0 54 7.5)"><text x="0" y="NaN" font-family="Cascadia, Segoe UI Emoji" font-size="12px" fill="#868e96" text-anchor="start" style="white-space: pre;" direction="ltr">Active Sessions</text></g><g transform="translate(830 170) rotate(0 33 13.75)"><text x="0" y="NaN" font-family="Cascadia, Segoe UI Emoji" font-size="22px" fill="#343a40" text-anchor="start" style="white-space: pre;" direction="ltr">1,204</text></g><g stroke-linecap="round" transform="translate(1090 110) rotate(0 130 50)"><path d="M0 0 L260 0 L260 100 L0 100" stroke="none" stroke-width="0" fill="#ffffff"></path><path d="M0 0 C85.57 0, 171.15 0, 260 0 M0 0 C68.92 0, 137.84 0, 260 0 M260 0 C260 24.68, 260 49.37, 260 100 M260 0 C260 24.47, 260 48.93, 260 100 M260 100 C198.65 100, 137.31 100, 0 100 M260 100 C157.58 100, 55.16 100, 0 100 M0 100 C0 67.58, 0 35.16, 0 0 M0 100 C0 70.61, 0 41.21, 0 0" stroke="#1971c2" stroke-width="2" fill="none"></path></g><g transform="translate(1110 130) rotate(0 36 7.5)"><text x="0" y="NaN" font-family="Cascadia, Segoe UI Emoji" font-size="12px" fill="#868e96" text-anchor="start" style="white-space: pre;" direction="ltr">Conversion</text></g><g transform="translate(1110 170) rotate(0 26.399999999999977 13.75)"><text x="0" y="NaN" font-family="Cascadia, Segoe UI Emoji" font-size="22px" fill="#343a40" text-anchor="start" style="white-space: pre;" direction="ltr">3.2%</text></g><g stroke-linecap="round" transform="translate(250 230) rotate(0 340 140)"><path d="M0 0 L680 0 L680 280 L0 280" stroke="none" stroke-width="0" fill="#ffffff"></path><path d="M0 0 C154.65 0, 309.31 0, 680 0 M0 0 C136.58 0, 273.16 0, 680 0 M680 0 C680 60.49, 680 120.97, 680 280 M680 0 C680 61.93, 680 123.87, 680 280 M680 280 C487.9 280, 295.81 280, 0 280 M680 280 C481.39 280, 282.78 280, 0 280 M0 280 C0 177.37, 0 74.74, 0 0 M0 280 C0 209.48, 0 138.97, 0 0" stroke="#868e96" stroke-width="2" fill="none"></path></g><g transform="translate(270 250) rotate(0 71.39999999999998 8.75)"><text x="0" y="NaN" font-family="Cascadia, Segoe UI Emoji" font-size="14px" fill="#343a40" text-anchor="start" style="white-space: pre;" direction="ltr">Revenue (30 days)</text></g><g transform="translate(450 390) rotate(0 124.80000000000001 10)"><text x="0" y="NaN" font-family="Cascadia, Segoe UI Emoji" font-size="16px" fill="#868e96" text-anchor="start" style="white-space: pre;" direction="ltr">[ Line Chart Placeholder ]</text></g><g stroke-linecap="round" transform="translate(250 550) rotate(0 340 100)"><path d="M0 0 L680 0 L680 200 L0 200" stroke="none" stroke-width="0" fill="#ffffff"></path><path d="M0 0 C242.29 0, 484.57 0, 680 0 M0 0 C151.4 0, 302.8 0, 680 0 M680 0 C680 70.06, 680 140.12, 680 200 M680 0 C680 79.23, 680 158.45, 680 200 M680 200 C506.75 200, 333.49 200, 0 200 M680 200 C509.77 200, 339.54 200, 0 200 M0 200 C0 139.9, 0 79.79, 0 0 M0 200 C0 142.82, 0 85.63, 0 0" stroke="#868e96" stroke-width="2" fill="none"></path></g><g transform="translate(270 550) rotate(0 54.599999999999994 8.75)"><text x="0" y="NaN" font-family="Cascadia, Segoe UI Emoji" font-size="14px" fill="#343a40" text-anchor="start" style="white-space: pre;" direction="ltr">Recent Orders</text></g><g transform="translate(250 590) rotate(0 28.80000000000001 7.5)"><text x="0" y="NaN" font-family="Cascadia, Segoe UI Emoji" font-size="12px" fill="#868e96" text-anchor="start" style="white-space: pre;" direction="ltr">Order ID</text></g><g transform="translate(390 590) rotate(0 28.80000000000001 7.5)"><text x="0" y="NaN" font-family="Cascadia, Segoe UI Emoji" font-size="12px" fill="#868e96" text-anchor="start" style="white-space: pre;" direction="ltr">Customer</text></g><g transform="translate(530 590) rotate(0 21.600000000000023 7.5)"><text x="0" y="NaN" font-family="Cascadia, Segoe UI Emoji" font-size="12px" fill="#868e96" text-anchor="start" style="white-space: pre;" direction="ltr">Amount</text></g><g transform="translate(670 590) rotate(0 21.600000000000023 7.5)"><text x="0" y="NaN" font-family="Cascadia, Segoe UI Emoji" font-size="12px" fill="#868e96" text-anchor="start" style="white-space: pre;" direction="ltr">Status</text></g><g transform="translate(810 590) rotate(0 14.399999999999977 7.5)"><text x="0" y="NaN" font-family="Cascadia, Segoe UI Emoji" font-size="12px" fill="#868e96" text-anchor="start" style="white-space: pre;" direction="ltr">Date</text></g><g stroke-linecap="round" transform="translate(950 230) rotate(0 160 315)"><path d="M0 0 L320 0 L320 630 L0 630" stroke="none" stroke-width="0" fill="#ffffff"></path><path d="M0 0 C115.12 0, 230.25 0, 320 0 M0 0 C77.63 0, 155.26 0, 320 0 M320 0 C320 228.22, 320 456.44, 320 630 M320 0 C320 246.63, 320 493.25, 320 630 M320 630 C254.81 630, 189.62 630, 0 630 M320 630 C237.78 630, 155.55 630, 0 630 M0 630 C0 422.02, 0 214.03, 0 0 M0 630 C0 443.51, 0 257.03, 0 0" stroke="#868e96" stroke-width="2" fill="none"></path></g><g transform="translate(970 250) rotate(0 29.399999999999977 8.75)"><text x="0" y="NaN" font-family="Cascadia, Segoe UI Emoji" font-size="14px" fill="#343a40" text-anchor="start" style="white-space: pre;" direction="ltr">Filters</text></g></svg>