<svg version="1.1" xmlns="http://www.w3.org/2000/svg" viewBox="0 0 620 550" width="620" height="550">
  <!-- svg-source:excalidraw -->
  
  <defs>
    <style>
      @font-face {
        font-family: "Virgil";
        src: url("https://excalidraw.com/Virgil.woff2");
      }
      @font-face {
        font-family: "Cascadia";
        src: url("https://excalidraw.com/Cascadia.woff2");
      }
    </style>
  </defs>
  <rect x="0" y="0" width="620" height="550" fill="#ffffff"></rect><g transform="translate(10 10) rotate(0 201.6 17.5)"><text x="0" y="NaN" font-family="Cascadia, Segoe UI Emoji" font-size="28px" fill="#343a40" text-anchor="start" style="white-space: pre;" direction="ltr">Failure Modes &amp; Recovery</text></g><g transform="translate(50 70) rotate(0 37.8 11.25)"><text x="0" y="NaN" font-family="Cascadia, Segoe UI Emoji" font-size="18px" fill="#e03131" text-anchor="start" style="white-space: pre;" direction="ltr">Failure</text></g><g transform="translate(410 70) rotate(0 43.19999999999999 11.25)"><text x="0" y="NaN" font-family="Cascadia, Segoe UI Emoji" font-size="18px" fill="#2f9e44" text-anchor="start" style="white-space: pre;" direction="ltr">Recovery</text></g><g transform="translate(20 107.5) rotate(0 110 7.5)"><text x="110" y="NaN" font-family="Cascadia, Segoe UI Emoji" font-size="12px" fill="#e03131" text-anchor="middle" style="white-space: pre;" direction="ltr">Gmail token expiry</text></g><g stroke-linecap="round" transform="translate(10 90) rotate(0 120 25)"><path d="M0 0 L240 0 L240 50 L0 50" stroke="none" stroke-width="0" fill="#ffc9c9"></path><path d="M0 0 C62.43 0, 124.87 0, 240 0 M0 0 C88.45 0, 176.89 0, 240 0 M240 0 C240 18.84, 240 37.68, 240 50 M240 0 C240 14.91, 240 29.81, 240 50 M240 50 C144.81 50, 49.61 50, 0 50 M240 50 C165.29 50, 90.57 50, 0 50 M0 50 C0 30.52, 0 11.05, 0 0 M0 50 C0 35.38, 0 20.75, 0 0" stroke="#e03131" stroke-width="2" fill="none"></path></g><g transform="translate(380 107.5) rotate(0 110 7.5)"><text x="110" y="NaN" font-family="Cascadia, Segoe UI Emoji" font-size="12px" fill="#2f9e44" text-anchor="middle" style="white-space: pre;" direction="ltr">Auto-refresh + alert</text></g><g stroke-linecap="round" transform="translate(370 90) rotate(0 120 25)"><path d="M0 0 L240 0 L240 50 L0 50" stroke="none" stroke-width="0" fill="#b2f2bb"></path><path d="M0 0 C85.41 0, 170.82 0, 240 0 M0 0 C54.69 0, 109.37 0, 240 0 M240 0 C240 13.26, 240 26.52, 240 50 M240 0 C240 12.67, 240 25.33, 240 50 M240 50 C168.58 50, 97.16 50, 0 50 M240 50 C180.98 50, 121.96 50, 0 50 M0 50 C0 33.5, 0 17, 0 0 M0 50 C0 37.49, 0 24.97, 0 0" stroke="#2f9e44" stroke-width="2" fill="none"></path></g><g stroke-linecap="round"><g transform="translate(250 115) rotate(0 60 0)"><path d="M0 0 C20 0, 100 0, 120 0 M0 0 C20 0, 100 0, 120 0" stroke="#868e96" stroke-width="2" fill="none"></path></g><g transform="translate(250 115) rotate(0 60 0)"><path d="M91.81 10.26 C99.98 7.29, 108.15 4.31, 120 0 M91.81 10.26 C102.6 6.33, 113.39 2.41, 120 0" stroke="#868e96" stroke-width="2" fill="none"></path></g><g transform="translate(250 115) rotate(0 60 0)"><path d="M91.81 -10.26 C99.98 -7.29, 108.15 -4.31, 120 0 M91.81 -10.26 C102.6 -6.33, 113.39 -2.41, 120 0" stroke="#868e96" stroke-width="2" fill="none"></path></g></g><g transform="translate(20 167.5) rotate(0 110 7.5)"><text x="110" y="NaN" font-family="Cascadia, Segoe UI Emoji" font-size="12px" fill="#e03131" text-anchor="middle" style="white-space: pre;" direction="ltr">n8n crash</text></g><g stroke-linecap="round" transform="translate(10 150) rotate(0 120 25)"><path d="M0 0 L240 0 L240 50 L0 50" stroke="none" stroke-width="0" fill="#ffc9c9"></path><path d="M0 0 C59.26 0, 118.52 0, 240 0 M0 0 C89.76 0, 179.53 0, 240 0 M240 0 C240 15.3, 240 30.6, 240 50 M240 0 C240 11.77, 240 23.55, 240 50 M240 50 C175.36 50, 110.72 50, 0 50 M240 50 C149.36 50, 58.72 50, 0 50 M0 50 C0 33.82, 0 17.63, 0 0 M0 50 C0 39.06, 0 28.13, 0 0" stroke="#e03131" stroke-width="2" fill="none"></path></g><g transform="translate(380 167.5) rotate(0 110 7.5)"><text x="110" y="NaN" font-family="Cascadia, Segoe UI Emoji" font-size="12px" fill="#2f9e44" text-anchor="middle" style="white-space: pre;" direction="ltr">Docker restart + healthcheck</text></g><g stroke-linecap="round" transform="translate(370 150) rotate(0 120 25)"><path d="M0 0 L240 0 L240 50 L0 50" stroke="none" stroke-width="0" fill="#b2f2bb"></path><path d="M0 0 C90.21 0, 180.42 0, 240 0 M0 0 C82.2 0, 164.41 0, 240 0 M240 0 C240 18.97, 240 37.94, 240 50 M240 0 C240 15.15, 240 30.3, 240 50 M240 50 C189.24 50, 138.48 50, 0 50 M240 50 C161 50, 82.01 50, 0 50 M0 50 C0 38.22, 0 26.45, 0 0 M0 50 C0 31.63, 0 13.26, 0 0" stroke="#2f9e44" stroke-width="2" fill="none"></path></g><g stroke-linecap="round"><g transform="translate(250 175) rotate(0 60 0)"><path d="M0 0 C20 0, 100 0, 120 0 M0 0 C20 0, 100 0, 120 0" stroke="#868e96" stroke-width="2" fill="none"></path></g><g transform="translate(250 175) rotate(0 60 0)"><path d="M91.81 10.26 C99.28 7.54, 106.74 4.83, 120 0 M91.81 10.26 C98.94 7.66, 106.08 5.07, 120 0" stroke="#868e96" stroke-width="2" fill="none"></path></g><g transform="translate(250 175) rotate(0 60 0)"><path d="M91.81 -10.26 C99.28 -7.54, 106.74 -4.83, 120 0 M91.81 -10.26 C98.94 -7.66, 106.08 -5.07, 120 0" stroke="#868e96" stroke-width="2" fill="none"></path></g></g><g transform="translate(20 247.5) rotate(0 110 7.5)"><text x="110" y="NaN" font-family="Cascadia, Segoe UI Emoji" font-size="12px" fill="#e03131" text-anchor="middle" style="white-space: pre;" direction="ltr">ChromaDB corruption</text></g><g stroke-linecap="round" transform="translate(10 230) rotate(0 120 25)"><path d="M0 0 L240 0 L240 50 L0 50" stroke="none" stroke-width="0" fill="#ffc9c9"></path><path d="M0 0 C93.97 0, 187.95 0, 240 0 M0 0 C74.3 0, 148.6 0, 240 0 M240 0 C240 11.28, 240 22.57, 240 50 M240 0 C240 13.18, 240 26.36, 240 50 M240 50 C177.18 50, 114.35 50, 0 50 M240 50 C161.41 50, 82.82 50, 0 50 M0 50 C0 36.94, 0 23.88, 0 0 M0 50 C0 37.09, 0 24.19, 0 0" stroke="#e03131" stroke-width="2" fill="none"></path></g><g transform="translate(380 247.5) rotate(0 110 7.5)"><text x="110" y="NaN" font-family="Cascadia, Segoe UI Emoji" font-size="12px" fill="#2f9e44" text-anchor="middle" style="white-space: pre;" direction="ltr">Backup restore</text></g><g stroke-linecap="round" transform="translate(370 230) rotate(0 120 25)"><path d="M0 0 L240 0 L240 50 L0 50" stroke="none" stroke-width="0" fill="#b2f2bb"></path><path d="M0 0 C61.47 0, 122.94 0, 240 0 M0 0 C90.64 0, 181.29 0, 240 0 M240 0 C240 16.35, 240 32.7, 240 50 M240 0 C240 16.79, 240 33.58, 240 50 M240 50 C147.54 50, 55.07 50, 0 50 M240 50 C146.51 50, 53.03 50, 0 50 M0 50 C0 34.94, 0 19.88, 0 0 M0 50 C0 32.05, 0 14.09, 0 0" stroke="#2f9e44" stroke-width="2" fill="none"></path></g><g stroke-linecap="round"><g transform="translate(250 255) rotate(0 60 0)"><path d="M0 0 C20 0, 100 0, 120 0 M0 0 C20 0, 100 0, 120 0" stroke="#868e96" stroke-width="2" fill="none"></path></g><g transform="translate(250 255) rotate(0 60 0)"><path d="M91.81 10.26 C99.1 7.61, 106.38 4.96, 120 0 M91.81 10.26 C99.41 7.49, 107.01 4.73, 120 0" stroke="#868e96" stroke-width="2" fill="none"></path></g><g transform="translate(250 255) rotate(0 60 0)"><path d="M91.81 -10.26 C99.1 -7.61, 106.38 -4.96, 120 0 M91.81 -10.26 C99.41 -7.49, 107.01 -4.73, 120 0" stroke="#868e96" stroke-width="2" fill="none"></path></g></g><g transform="translate(20 307.5) rotate(0 110 7.5)"><text x="110" y="NaN" font-family="Cascadia, Segoe UI Emoji" font-size="12px" fill="#e03131" text-anchor="middle" style="white-space: pre;" direction="ltr">VPS unreachable</text></g><g stroke-linecap="round" transform="translate(10 290) rotate(0 120 25)"><path d="M0 0 L240 0 L240 50 L0 50" stroke="none" stroke-width="0" fill="#ffc9c9"></path><path d="M0 0 C85.35 0, 170.7 0, 240 0 M0 0 C88.84 0, 177.68 0, 240 0 M240 0 C240 12.79, 240 25.58, 240 50 M240 0 C240 12.86, 240 25.71, 240 50 M240 50 C145.15 50, 50.3 50, 0 50 M240 50 C173.78 50, 107.57 50, 0 50 M0 50 C0 34.93, 0 19.85, 0 0 M0 50 C0 35.19, 0 20.38, 0 0" stroke="#e03131" stroke-width="2" fill="none"></path></g><g transform="translate(380 307.5) rotate(0 110 7.5)"><text x="110" y="NaN" font-family="Cascadia, Segoe UI Emoji" font-size="12px" fill="#2f9e44" text-anchor="middle" style="white-space: pre;" direction="ltr">Tailscale failover</text></g><g stroke-linecap="round" transform="translate(370 290) rotate(0 120 25)"><path d="M0 0 L240 0 L240 50 L0 50" stroke="none" stroke-width="0" fill="#b2f2bb"></path><path d="M0 0 C61.38 0, 122.76 0, 240 0 M0 0 C95.86 0, 191.72 0, 240 0 M240 0 C240 14.42, 240 28.84, 240 50 M240 0 C240 15.88, 240 31.77, 240 50 M240 50 C185.1 50, 130.21 50, 0 50 M240 50 C146.26 50, 52.51 50, 0 50 M0 50 C0 31.05, 0 12.09, 0 0 M0 50 C0 38.21, 0 26.42, 0 0" stroke="#2f9e44" stroke-width="2" fill="none"></path></g><g stroke-linecap="round"><g transform="translate(250 315) rotate(0 60 0)"><path d="M0 0 C20 0, 100 0, 120 0 M0 0 C20 0, 100 0, 120 0" stroke="#868e96" stroke-width="2" fill="none"></path></g><g transform="translate(250 315) rotate(0 60 0)"><path d="M91.81 10.26 C100.86 6.97, 109.91 3.67, 120 0 M91.81 10.26 C101.56 6.71, 111.31 3.16, 120 0" stroke="#868e96" stroke-width="2" fill="none"></path></g><g transform="translate(250 315) rotate(0 60 0)"><path d="M91.81 -10.26 C100.86 -6.97, 109.91 -3.67, 120 0 M91.81 -10.26 C101.56 -6.71, 111.31 -3.16, 120 0" stroke="#868e96" stroke-width="2" fill="none"></path></g></g><g transform="translate(20 367.5) rotate(0 110 7.5)"><text x="110" y="NaN" font-family="Cascadia, Segoe UI Emoji" font-size="12px" fill="#e03131" text-anchor="middle" style="white-space: pre;" direction="ltr">API rate limit</text></g><g stroke-linecap="round" transform="translate(10 350) rotate(0 120 25)"><path d="M0 0 L240 0 L240 50 L0 50" stroke="none" stroke-width="0" fill="#ffc9c9"></path><path d="M0 0 C76.62 0, 153.25 0, 240 0 M0 0 C88.03 0, 176.06 0, 240 0 M240 0 C240 15.47, 240 30.94, 240 50 M240 0 C240 12.86, 240 25.71, 240 50 M240 50 C147.23 50, 54.46 50, 0 50 M240 50 C158.8 50, 77.61 50, 0 50 M0 50 C0 32.9, 0 15.81, 0 0 M0 50 C0 34.27, 0 18.55, 0 0" stroke="#e03131" stroke-width="2" fill="none"></path></g><g transform="translate(380 367.5) rotate(0 110 7.5)"><text x="110" y="NaN" font-family="Cascadia, Segoe UI Emoji" font-size="12px" fill="#2f9e44" text-anchor="middle" style="white-space: pre;" direction="ltr">Progressive fallback</text></g><g stroke-linecap="round" transform="translate(370 350) rotate(0 120 25)"><path d="M0 0 L240 0 L240 50 L0 50" stroke="none" stroke-width="0" fill="#b2f2bb"></path><path d="M0 0 C73.37 0, 146.74 0, 240 0 M0 0 C94.25 0, 188.5 0, 240 0 M240 0 C240 18.29, 240 36.58, 240 50 M240 0 C240 15.29, 240 30.59, 240 50 M240 50 C181.26 50, 122.53 50, 0 50 M240 50 C156.43 50, 72.85 50, 0 50 M0 50 C0 30.66, 0 11.32, 0 0 M0 50 C0 37.7, 0 25.4, 0 0" stroke="#2f9e44" stroke-width="2" fill="none"></path></g><g stroke-linecap="round"><g transform="translate(250 375) rotate(0 60 0)"><path d="M0 0 C20 0, 100 0, 120 0 M0 0 C20 0, 100 0, 120 0" stroke="#868e96" stroke-width="2" fill="none"></path></g><g transform="translate(250 375) rotate(0 60 0)"><path d="M91.81 10.26 C101.06 6.89, 110.32 3.52, 120 0 M91.81 10.26 C100.11 7.24, 108.4 4.22, 120 0" stroke="#868e96" stroke-width="2" fill="none"></path></g><g transform="translate(250 375) rotate(0 60 0)"><path d="M91.81 -10.26 C101.06 -6.89, 110.32 -3.52, 120 0 M91.81 -10.26 C100.11 -7.24, 108.4 -4.22, 120 0" stroke="#868e96" stroke-width="2" fill="none"></path></g></g><g transform="translate(20 447.5) rotate(0 110 7.5)"><text x="110" y="NaN" font-family="Cascadia, Segoe UI Emoji" font-size="12px" fill="#e03131" text-anchor="middle" style="white-space: pre;" direction="ltr">Hook failure</text></g><g stroke-linecap="round" transform="translate(10 430) rotate(0 120 25)"><path d="M0 0 L240 0 L240 50 L0 50" stroke="none" stroke-width="0" fill="#ffc9c9"></path><path d="M0 0 C64.01 0, 128.02 0, 240 0 M0 0 C74.35 0, 148.7 0, 240 0 M240 0 C240 15.48, 240 30.96, 240 50 M240 0 C240 14.89, 240 29.78, 240 50 M240 50 C150.27 50, 60.54 50, 0 50 M240 50 C151.34 50, 62.68 50, 0 50 M0 50 C0 34.07, 0 18.14, 0 0 M0 50 C0 36.67, 0 23.35, 0 0" stroke="#e03131" stroke-width="2" fill="none"></path></g><g transform="translate(380 447.5) rotate(0 110 7.5)"><text x="110" y="NaN" font-family="Cascadia, Segoe UI Emoji" font-size="12px" fill="#2f9e44" text-anchor="middle" style="white-space: pre;" direction="ltr">Bypass + log</text></g><g stroke-linecap="round" transform="translate(370 430) rotate(0 120 25)"><path d="M0 0 L240 0 L240 50 L0 50" stroke="none" stroke-width="0" fill="#b2f2bb"></path><path d="M0 0 C87.08 0, 174.15 0, 240 0 M0 0 C70.2 0, 140.4 0, 240 0 M240 0 C240 19.49, 240 38.97, 240 50 M240 0 C240 14.59, 240 29.18, 240 50 M240 50 C180.35 50, 120.71 50, 0 50 M240 50 C168.41 50, 96.83 50, 0 50 M0 50 C0 34.94, 0 19.88, 0 0 M0 50 C0 38.94, 0 27.89, 0 0" stroke="#2f9e44" stroke-width="2" fill="none"></path></g><g stroke-linecap="round"><g transform="translate(250 455) rotate(0 60 0)"><path d="M0 0 C20 0, 100 0, 120 0 M0 0 C20 0, 100 0, 120 0" stroke="#868e96" stroke-width="2" fill="none"></path></g><g transform="translate(250 455) rotate(0 60 0)"><path d="M91.81 10.26 C98.36 7.88, 104.9 5.49, 120 0 M91.81 10.26 C98.9 7.68, 106 5.1, 120 0" stroke="#868e96" stroke-width="2" fill="none"></path></g><g transform="translate(250 455) rotate(0 60 0)"><path d="M91.81 -10.26 C98.36 -7.88, 104.9 -5.49, 120 0 M91.81 -10.26 C98.9 -7.68, 106 -5.1, 120 0" stroke="#868e96" stroke-width="2" fill="none"></path></g></g><g transform="translate(20 507.5) rotate(0 110 7.5)"><text x="110" y="NaN" font-family="Cascadia, Segoe UI Emoji" font-size="12px" fill="#e03131" text-anchor="middle" style="white-space: pre;" direction="ltr">Disk full</text></g><g stroke-linecap="round" transform="translate(10 490) rotate(0 120 25)"><path d="M0 0 L240 0 L240 50 L0 50" stroke="none" stroke-width="0" fill="#ffc9c9"></path><path d="M0 0 C82.28 0, 164.57 0, 240 0 M0 0 C65.83 0, 131.67 0, 240 0 M240 0 C240 15.92, 240 31.83, 240 50 M240 0 C240 13.48, 240 26.96, 240 50 M240 50 C164.15 50, 88.29 50, 0 50 M240 50 C173.33 50, 106.66 50, 0 50 M0 50 C0 34.52, 0 19.03, 0 0 M0 50 C0 36.16, 0 22.32, 0 0" stroke="#e03131" stroke-width="2" fill="none"></path></g><g transform="translate(380 507.5) rotate(0 110 7.5)"><text x="110" y="NaN" font-family="Cascadia, Segoe UI Emoji" font-size="12px" fill="#2f9e44" text-anchor="middle" style="white-space: pre;" direction="ltr">Retention cleanup</text></g><g stroke-linecap="round" transform="translate(370 490) rotate(0 120 25)"><path d="M0 0 L240 0 L240 50 L0 50" stroke="none" stroke-width="0" fill="#b2f2bb"></path><path d="M0 0 C61.61 0, 123.23 0, 240 0 M0 0 C93.71 0, 187.42 0, 240 0 M240 0 C240 15.56, 240 31.13, 240 50 M240 0 C240 13.35, 240 26.69, 240 50 M240 50 C159.22 50, 78.44 50, 0 50 M240 50 C150.85 50, 61.7 50, 0 50 M0 50 C0 31.5, 0 12.99, 0 0 M0 50 C0 30.78, 0 11.55, 0 0" stroke="#2f9e44" stroke-width="2" fill="none"></path></g><g stroke-linecap="round"><g transform="translate(250 515) rotate(0 60 0)"><path d="M0 0 C20 0, 100 0, 120 0 M0 0 C20 0, 100 0, 120 0" stroke="#868e96" stroke-width="2" fill="none"></path></g><g transform="translate(250 515) rotate(0 60 0)"><path d="M91.81 10.26 C100.93 6.94, 110.04 3.62, 120 0 M91.81 10.26 C101.54 6.72, 111.27 3.18, 120 0" stroke="#868e96" stroke-width="2" fill="none"></path></g><g transform="translate(250 515) rotate(0 60 0)"><path d="M91.81 -10.26 C100.93 -6.94, 110.04 -3.62, 120 0 M91.81 -10.26 C101.54 -6.72, 111.27 -3.18, 120 0" stroke="#868e96" stroke-width="2" fill="none"></path></g></g></svg>