<svg version="1.1" xmlns="http://www.w3.org/2000/svg" viewBox="0 0 900 100" width="900" height="100">
  <!-- svg-source:excalidraw -->
  
  <defs>
    <style>
      @font-face {
        font-family: "Virgil";
        src: url("https://excalidraw.com/Virgil.woff2");
      }
      @font-face {
        font-family: "Cascadia";
        src: url("https://excalidraw.com/Cascadia.woff2");
      }
    </style>
  </defs>
  <rect x="0" y="0" width="900" height="100" fill="#ffffff"></rect><g transform="translate(20 41.25) rotate(0 70 8.75)"><text x="70" y="NaN" font-family="Cascadia, Segoe UI Emoji" font-size="14px" fill="#2f9e44" text-anchor="middle" style="white-space: pre;" direction="ltr">Request</text></g><g stroke-linecap="round" transform="translate(10 10) rotate(0 80 40)"><path d="M0 0 L160 0 L160 80 L0 80" stroke="none" stroke-width="0" fill="#b2f2bb"></path><path d="M0 0 C46.94 0, 93.89 0, 160 0 M0 0 C55.46 0, 110.91 0, 160 0 M160 0 C160 27.23, 160 54.47, 160 80 M160 0 C160 17.77, 160 35.55, 160 80 M160 80 C101.44 80, 42.88 80, 0 80 M160 80 C106.17 80, 52.34 80, 0 80 M0 80 C0 48.86, 0 17.72, 0 0 M0 80 C0 53.5, 0 27, 0 0" stroke="#2f9e44" stroke-width="2" fill="none"></path></g><g transform="translate(260 41.25) rotate(0 70 8.75)"><text x="70" y="NaN" font-family="Cascadia, Segoe UI Emoji" font-size="14px" fill="#1971c2" text-anchor="middle" style="white-space: pre;" direction="ltr">Validate</text></g><g stroke-linecap="round" transform="translate(250 10) rotate(0 80 40)"><path d="M0 0 L160 0 L160 80 L0 80" stroke="none" stroke-width="0" fill="#a5d8ff"></path><path d="M0 0 C32.79 0, 65.57 0, 160 0 M0 0 C55.25 0, 110.51 0, 160 0 M160 0 C160 31.19, 160 62.39, 160 80 M160 0 C160 31.08, 160 62.16, 160 80 M160 80 C127.7 80, 95.4 80, 0 80 M160 80 C107.47 80, 54.94 80, 0 80 M0 80 C0 59.65, 0 39.31, 0 0 M0 80 C0 49.96, 0 19.92, 0 0" stroke="#1971c2" stroke-width="2" fill="none"></path></g><g transform="translate(180 40) rotate(0 30 10)"><text x="30" y="NaN" font-family="Cascadia, Segoe UI Emoji" font-size="12px" fill="#868e96" text-anchor="middle" style="white-space: pre;" direction="ltr">validate</text></g><g stroke-linecap="round"><g transform="translate(170 50) rotate(0 40 0)"><path d="M0 0 C13.33 0, 66.67 0, 80 0 M0 0 C13.33 0, 66.67 0, 80 0" stroke="#868e96" stroke-width="2" fill="none"></path></g><g transform="translate(170 50) rotate(0 40 0)"><path d="M51.81 10.26 C60.46 7.11, 69.1 3.97, 80 0 M51.81 10.26 C58.91 7.68, 66.01 5.09, 80 0" stroke="#868e96" stroke-width="2" fill="none"></path></g><g transform="translate(170 50) rotate(0 40 0)"><path d="M51.81 -10.26 C60.46 -7.11, 69.1 -3.97, 80 0 M51.81 -10.26 C58.91 -7.68, 66.01 -5.09, 80 0" stroke="#868e96" stroke-width="2" fill="none"></path></g></g><g transform="translate(500 41.25) rotate(0 70 8.75)"><text x="70" y="NaN" font-family="Cascadia, Segoe UI Emoji" font-size="14px" fill="#1971c2" text-anchor="middle" style="white-space: pre;" direction="ltr">Process</text></g><g stroke-linecap="round" transform="translate(490 10) rotate(0 80 40)"><path d="M0 0 L160 0 L160 80 L0 80" stroke="none" stroke-width="0" fill="#a5d8ff"></path><path d="M0 0 C62.05 0, 124.1 0, 160 0 M0 0 C56.32 0, 112.64 0, 160 0 M160 0 C160 27.33, 160 54.65, 160 80 M160 0 C160 31.09, 160 62.18, 160 80 M160 80 C116.85 80, 73.7 80, 0 80 M160 80 C110.32 80, 60.63 80, 0 80 M0 80 C0 52.05, 0 24.1, 0 0 M0 80 C0 54.51, 0 29.02, 0 0" stroke="#1971c2" stroke-width="2" fill="none"></path></g><g transform="translate(420 40) rotate(0 30 10)"><text x="30" y="NaN" font-family="Cascadia, Segoe UI Emoji" font-size="12px" fill="#868e96" text-anchor="middle" style="white-space: pre;" direction="ltr">process</text></g><g stroke-linecap="round"><g transform="translate(410 50) rotate(0 40 0)"><path d="M0 0 C13.33 0, 66.67 0, 80 0 M0 0 C13.33 0, 66.67 0, 80 0" stroke="#868e96" stroke-width="2" fill="none"></path></g><g transform="translate(410 50) rotate(0 40 0)"><path d="M51.81 10.26 C59.94 7.3, 68.07 4.34, 80 0 M51.81 10.26 C60.2 7.21, 68.58 4.16, 80 0" stroke="#868e96" stroke-width="2" fill="none"></path></g><g transform="translate(410 50) rotate(0 40 0)"><path d="M51.81 -10.26 C59.94 -7.3, 68.07 -4.34, 80 0 M51.81 -10.26 C60.2 -7.21, 68.58 -4.16, 80 0" stroke="#868e96" stroke-width="2" fill="none"></path></g></g><g transform="translate(740 41.25) rotate(0 70 8.75)"><text x="70" y="NaN" font-family="Cascadia, Segoe UI Emoji" font-size="14px" fill="#7048e8" text-anchor="middle" style="white-space: pre;" direction="ltr">Respond</text></g><g stroke-linecap="round" transform="translate(730 10) rotate(0 80 40)"><path d="M0 0 L160 0 L160 80 L0 80" stroke="none" stroke-width="0" fill="#d0bfff"></path><path d="M0 0 C63.66 0, 127.32 0, 160 0 M0 0 C59.22 0, 118.43 0, 160 0 M160 0 C160 25.42, 160 50.83, 160 80 M160 0 C160 17.21, 160 34.43, 160 80 M160 80 C114.31 80, 68.62 80, 0 80 M160 80 C107.76 80, 55.53 80, 0 80 M0 80 C0 53.63, 0 27.25, 0 0 M0 80 C0 55.96, 0 31.91, 0 0" stroke="#7048e8" stroke-width="2" fill="none"></path></g><g transform="translate(660 40) rotate(0 30 10)"><text x="30" y="NaN" font-family="Cascadia, Segoe UI Emoji" font-size="12px" fill="#868e96" text-anchor="middle" style="white-space: pre;" direction="ltr">200 OK</text></g><g stroke-linecap="round"><g transform="translate(650 50) rotate(0 40 0)"><path d="M0 0 C13.33 0, 66.67 0, 80 0 M0 0 C13.33 0, 66.67 0, 80 0" stroke="#868e96" stroke-width="2" fill="none"></path></g><g transform="translate(650 50) rotate(0 40 0)"><path d="M51.81 10.26 C58.38 7.87, 64.95 5.48, 80 0 M51.81 10.26 C60.54 7.08, 69.26 3.91, 80 0" stroke="#868e96" stroke-width="2" fill="none"></path></g><g transform="translate(650 50) rotate(0 40 0)"><path d="M51.81 -10.26 C58.38 -7.87, 64.95 -5.48, 80 0 M51.81 -10.26 C60.54 -7.08, 69.26 -3.91, 80 0" stroke="#868e96" stroke-width="2" fill="none"></path></g></g></svg>