<svg version="1.1" xmlns="http://www.w3.org/2000/svg" viewBox="0 0 660 697.5" width="660" height="697.5">
  <!-- svg-source:excalidraw -->
  
  <defs>
    <style>
      @font-face {
        font-family: "Virgil";
        src: url("https://excalidraw.com/Virgil.woff2");
      }
      @font-face {
        font-family: "Cascadia";
        src: url("https://excalidraw.com/Cascadia.woff2");
      }
    </style>
  </defs>
  <rect x="0" y="0" width="660" height="697.5" fill="#ffffff"></rect><g transform="translate(130 10) rotate(0 235.2 17.5)"><text x="0" y="NaN" font-family="Cascadia, Segoe UI Emoji" font-size="28px" fill="#343a40" text-anchor="start" style="white-space: pre;" direction="ltr">Google Workspace Integration</text></g><g transform="translate(240 347.5) rotate(0 90 22.5)"><text x="90" y="NaN" font-family="Cascadia, Segoe UI Emoji" font-size="18px" fill="#1971c2" text-anchor="middle" style="white-space: pre;" direction="ltr">gws CLI</text><text x="90" y="NaN" font-family="Cascadia, Segoe UI Emoji" font-size="18px" fill="#1971c2" text-anchor="middle" style="white-space: pre;" direction="ltr">v0.8.0</text></g><g stroke-linecap="round" transform="translate(230 330) rotate(0 100 40)"><path d="M0 0 L200 0 L200 80 L0 80" stroke="none" stroke-width="0" fill="#a5d8ff"></path><path d="M0 0 C41.53 0, 83.06 0, 200 0 M0 0 C79.87 0, 159.75 0, 200 0 M200 0 C200 22.23, 200 44.46, 200 80 M200 0 C200 19.7, 200 39.4, 200 80 M200 80 C157.78 80, 115.56 80, 0 80 M200 80 C141.23 80, 82.46 80, 0 80 M0 80 C0 61.8, 0 43.6, 0 0 M0 80 C0 62.82, 0 45.65, 0 0" stroke="#1971c2" stroke-width="2" fill="none"></path></g><g transform="translate(280 91.25) rotate(0 60 8.75)"><text x="60" y="NaN" font-family="Cascadia, Segoe UI Emoji" font-size="14px" fill="#0c8599" text-anchor="middle" style="white-space: pre;" direction="ltr">Gmail</text></g><g stroke-linecap="round" transform="translate(270 70) rotate(0 70 30)"><path d="M0 0 L140 0 L140 60 L0 60" stroke="none" stroke-width="0" fill="#99e9f2"></path><path d="M0 0 C29.99 0, 59.99 0, 140 0 M0 0 C42.89 0, 85.78 0, 140 0 M140 0 C140 16.71, 140 33.42, 140 60 M140 0 C140 20.94, 140 41.87, 140 60 M140 60 C107.07 60, 74.15 60, 0 60 M140 60 C105 60, 70.01 60, 0 60 M0 60 C0 42.32, 0 24.63, 0 0 M0 60 C0 39.87, 0 19.74, 0 0" stroke="#0c8599" stroke-width="2" fill="none"></path></g><g stroke-linecap="round"><g transform="translate(330 330) rotate(0 5 -100)"><path d="M0 0 C1.67 -33.33, 8.33 -166.67, 10 -200 M0 0 C1.67 -33.33, 8.33 -166.67, 10 -200" stroke="#868e96" stroke-width="1" fill="none"></path></g><g transform="translate(330 330) rotate(0 5 -100)"><path d="M18.84 -171.33 C16.17 -179.98, 13.51 -188.62, 10 -200 M18.84 -171.33 C16.44 -179.13, 14.03 -186.93, 10 -200" stroke="#868e96" stroke-width="1" fill="none"></path></g><g transform="translate(330 330) rotate(0 5 -100)"><path d="M-1.66 -172.36 C1.86 -180.69, 5.37 -189.03, 10 -200 M-1.66 -172.36 C1.51 -179.88, 4.69 -187.4, 10 -200" stroke="#868e96" stroke-width="1" fill="none"></path></g></g><g transform="translate(480 191.25) rotate(0 60 8.75)"><text x="60" y="NaN" font-family="Cascadia, Segoe UI Emoji" font-size="14px" fill="#0c8599" text-anchor="middle" style="white-space: pre;" direction="ltr">Drive</text></g><g stroke-linecap="round" transform="translate(470 170) rotate(0 70 30)"><path d="M0 0 L140 0 L140 60 L0 60" stroke="none" stroke-width="0" fill="#99e9f2"></path><path d="M0 0 C52.15 0, 104.3 0, 140 0 M0 0 C38.69 0, 77.39 0, 140 0 M140 0 C140 20.28, 140 40.55, 140 60 M140 0 C140 18.88, 140 37.75, 140 60 M140 60 C86.68 60, 33.36 60, 0 60 M140 60 C106.78 60, 73.57 60, 0 60 M0 60 C0 40.62, 0 21.24, 0 0 M0 60 C0 42.85, 0 25.69, 0 0" stroke="#0c8599" stroke-width="2" fill="none"></path></g><g stroke-linecap="round"><g transform="translate(430 370) rotate(0 20 -85)"><path d="M0 0 C6.67 -28.33, 33.33 -141.67, 40 -170 M0 0 C6.67 -28.33, 33.33 -141.67, 40 -170" stroke="#868e96" stroke-width="1" fill="none"></path></g><g transform="translate(430 370) rotate(0 20 -85)"><path d="M43.53 -140.21 C42.73 -147, 41.92 -153.79, 40 -170 M43.53 -140.21 C42.17 -151.72, 40.8 -163.23, 40 -170" stroke="#868e96" stroke-width="1" fill="none"></path></g><g transform="translate(430 370) rotate(0 20 -85)"><path d="M23.56 -144.91 C27.3 -150.63, 31.05 -156.35, 40 -170 M23.56 -144.91 C29.91 -154.6, 36.26 -164.3, 40 -170" stroke="#868e96" stroke-width="1" fill="none"></path></g></g><g transform="translate(520 411.25) rotate(0 60 8.75)"><text x="60" y="NaN" font-family="Cascadia, Segoe UI Emoji" font-size="14px" fill="#0c8599" text-anchor="middle" style="white-space: pre;" direction="ltr">Calendar</text></g><g stroke-linecap="round" transform="translate(510 390) rotate(0 70 30)"><path d="M0 0 L140 0 L140 60 L0 60" stroke="none" stroke-width="0" fill="#99e9f2"></path><path d="M0 0 C52.69 0, 105.38 0, 140 0 M0 0 C48.73 0, 97.46 0, 140 0 M140 0 C140 18.75, 140 37.49, 140 60 M140 0 C140 15.94, 140 31.88, 140 60 M140 60 C107.23 60, 74.45 60, 0 60 M140 60 C109.42 60, 78.85 60, 0 60 M0 60 C0 38.69, 0 17.37, 0 0 M0 60 C0 42.87, 0 25.74, 0 0" stroke="#0c8599" stroke-width="2" fill="none"></path></g><g stroke-linecap="round"><g transform="translate(430 370) rotate(0 40 25)"><path d="M0 0 C13.33 8.33, 66.67 41.67, 80 50 M0 0 C13.33 8.33, 66.67 41.67, 80 50" stroke="#868e96" stroke-width="1" fill="none"></path></g><g transform="translate(430 370) rotate(0 40 25)"><path d="M50.66 43.76 C61.37 46.04, 72.07 48.31, 80 50 M50.66 43.76 C58.25 45.38, 65.85 46.99, 80 50" stroke="#868e96" stroke-width="1" fill="none"></path></g><g transform="translate(430 370) rotate(0 40 25)"><path d="M61.53 26.36 C68.27 34.99, 75.01 43.61, 80 50 M61.53 26.36 C66.31 32.48, 71.09 38.6, 80 50" stroke="#868e96" stroke-width="1" fill="none"></path></g></g><g transform="translate(380 591.25) rotate(0 60 8.75)"><text x="60" y="NaN" font-family="Cascadia, Segoe UI Emoji" font-size="14px" fill="#0c8599" text-anchor="middle" style="white-space: pre;" direction="ltr">Sheets</text></g><g stroke-linecap="round" transform="translate(370 570) rotate(0 70 30)"><path d="M0 0 L140 0 L140 60 L0 60" stroke="none" stroke-width="0" fill="#99e9f2"></path><path d="M0 0 C34.04 0, 68.09 0, 140 0 M0 0 C41.84 0, 83.68 0, 140 0 M140 0 C140 23.62, 140 47.24, 140 60 M140 0 C140 17.08, 140 34.17, 140 60 M140 60 C104.17 60, 68.35 60, 0 60 M140 60 C107.95 60, 75.91 60, 0 60 M0 60 C0 44.59, 0 29.18, 0 0 M0 60 C0 42.26, 0 24.52, 0 0" stroke="#0c8599" stroke-width="2" fill="none"></path></g><g stroke-linecap="round"><g transform="translate(330 410) rotate(0 55 80)"><path d="M0 0 C18.33 26.67, 91.67 133.33, 110 160 M0 0 C18.33 26.67, 91.67 133.33, 110 160" stroke="#868e96" stroke-width="1" fill="none"></path></g><g transform="translate(330 410) rotate(0 55 80)"><path d="M85.57 142.58 C95.16 149.42, 104.74 156.25, 110 160 M85.57 142.58 C91.93 147.12, 98.29 151.65, 110 160" stroke="#868e96" stroke-width="1" fill="none"></path></g><g transform="translate(330 410) rotate(0 55 80)"><path d="M102.48 130.96 C105.43 142.35, 108.38 153.74, 110 160 M102.48 130.96 C104.44 138.52, 106.4 146.07, 110 160" stroke="#868e96" stroke-width="1" fill="none"></path></g></g><g transform="translate(160 591.25) rotate(0 60 8.75)"><text x="60" y="NaN" font-family="Cascadia, Segoe UI Emoji" font-size="14px" fill="#0c8599" text-anchor="middle" style="white-space: pre;" direction="ltr">Docs</text></g><g stroke-linecap="round" transform="translate(150 570) rotate(0 70 30)"><path d="M0 0 L140 0 L140 60 L0 60" stroke="none" stroke-width="0" fill="#99e9f2"></path><path d="M0 0 C37.44 0, 74.87 0, 140 0 M0 0 C50.7 0, 101.4 0, 140 0 M140 0 C140 16.29, 140 32.58, 140 60 M140 0 C140 15.04, 140 30.09, 140 60 M140 60 C106.97 60, 73.93 60, 0 60 M140 60 C86.46 60, 32.92 60, 0 60 M0 60 C0 43.21, 0 26.43, 0 0 M0 60 C0 46.61, 0 33.23, 0 0" stroke="#0c8599" stroke-width="2" fill="none"></path></g><g stroke-linecap="round"><g transform="translate(330 410) rotate(0 -55 80)"><path d="M0 0 C-18.33 26.67, -91.67 133.33, -110 160 M0 0 C-18.33 26.67, -91.67 133.33, -110 160" stroke="#868e96" stroke-width="1" fill="none"></path></g><g transform="translate(330 410) rotate(0 -55 80)"><path d="M-102.48 130.96 C-105.34 141.98, -108.19 153.01, -110 160 M-102.48 130.96 C-104.24 137.73, -105.99 144.5, -110 160" stroke="#868e96" stroke-width="1" fill="none"></path></g><g transform="translate(330 410) rotate(0 -55 80)"><path d="M-85.57 142.58 C-94.85 149.19, -104.12 155.81, -110 160 M-85.57 142.58 C-91.27 146.64, -96.96 150.7, -110 160" stroke="#868e96" stroke-width="1" fill="none"></path></g></g><g transform="translate(20 411.25) rotate(0 60 8.75)"><text x="60" y="NaN" font-family="Cascadia, Segoe UI Emoji" font-size="14px" fill="#0c8599" text-anchor="middle" style="white-space: pre;" direction="ltr">Slides</text></g><g stroke-linecap="round" transform="translate(10 390) rotate(0 70 30)"><path d="M0 0 L140 0 L140 60 L0 60" stroke="none" stroke-width="0" fill="#99e9f2"></path><path d="M0 0 C42.5 0, 84.99 0, 140 0 M0 0 C32.12 0, 64.23 0, 140 0 M140 0 C140 19.13, 140 38.25, 140 60 M140 0 C140 12.81, 140 25.62, 140 60 M140 60 C95.76 60, 51.51 60, 0 60 M140 60 C97.34 60, 54.69 60, 0 60 M0 60 C0 45.93, 0 31.87, 0 0 M0 60 C0 43.58, 0 27.16, 0 0" stroke="#0c8599" stroke-width="2" fill="none"></path></g><g stroke-linecap="round"><g transform="translate(230 370) rotate(0 -40 25)"><path d="M0 0 C-13.33 8.33, -66.67 41.67, -80 50 M0 0 C-13.33 8.33, -66.67 41.67, -80 50" stroke="#868e96" stroke-width="1" fill="none"></path></g><g transform="translate(230 370) rotate(0 -40 25)"><path d="M-61.53 26.36 C-68.03 34.68, -74.53 43, -80 50 M-61.53 26.36 C-68.01 34.65, -74.49 42.95, -80 50" stroke="#868e96" stroke-width="1" fill="none"></path></g><g transform="translate(230 370) rotate(0 -40 25)"><path d="M-50.66 43.76 C-60.98 45.96, -71.31 48.15, -80 50 M-50.66 43.76 C-60.95 45.95, -71.25 48.14, -80 50" stroke="#868e96" stroke-width="1" fill="none"></path></g></g><g transform="translate(60 191.25) rotate(0 60 8.75)"><text x="60" y="NaN" font-family="Cascadia, Segoe UI Emoji" font-size="14px" fill="#0c8599" text-anchor="middle" style="white-space: pre;" direction="ltr">Tasks</text></g><g stroke-linecap="round" transform="translate(50 170) rotate(0 70 30)"><path d="M0 0 L140 0 L140 60 L0 60" stroke="none" stroke-width="0" fill="#99e9f2"></path><path d="M0 0 C34.98 0, 69.96 0, 140 0 M0 0 C30.67 0, 61.34 0, 140 0 M140 0 C140 21.24, 140 42.48, 140 60 M140 0 C140 23.66, 140 47.33, 140 60 M140 60 C107.46 60, 74.91 60, 0 60 M140 60 C99.94 60, 59.89 60, 0 60 M0 60 C0 41.63, 0 23.26, 0 0 M0 60 C0 39.52, 0 19.04, 0 0" stroke="#0c8599" stroke-width="2" fill="none"></path></g><g stroke-linecap="round"><g transform="translate(230 370) rotate(0 -20 -85)"><path d="M0 0 C-6.67 -28.33, -33.33 -141.67, -40 -170 M0 0 C-6.67 -28.33, -33.33 -141.67, -40 -170" stroke="#868e96" stroke-width="1" fill="none"></path></g><g transform="translate(230 370) rotate(0 -20 -85)"><path d="M-23.56 -144.91 C-29.6 -154.13, -35.64 -163.34, -40 -170 M-23.56 -144.91 C-29.25 -153.59, -34.94 -162.28, -40 -170" stroke="#868e96" stroke-width="1" fill="none"></path></g><g transform="translate(230 370) rotate(0 -20 -85)"><path d="M-43.53 -140.21 C-42.23 -151.15, -40.94 -162.1, -40 -170 M-43.53 -140.21 C-42.31 -150.52, -41.09 -160.83, -40 -170" stroke="#868e96" stroke-width="1" fill="none"></path></g></g><g transform="translate(210 670) rotate(0 75.60000000000002 8.75)"><text x="0" y="NaN" font-family="Cascadia, Segoe UI Emoji" font-size="14px" fill="#868e96" text-anchor="start" style="white-space: pre;" direction="ltr">OAuth2 | 10 scopes</text></g></svg>