<svg version="1.1" xmlns="http://www.w3.org/2000/svg" viewBox="0 0 1240 540" width="1240" height="540">
  <!-- svg-source:excalidraw -->
  
  <defs>
    <style>
      @font-face {
        font-family: "Virgil";
        src: url("https://excalidraw.com/Virgil.woff2");
      }
      @font-face {
        font-family: "Cascadia";
        src: url("https://excalidraw.com/Cascadia.woff2");
      }
    </style>
  </defs>
  <rect x="0" y="0" width="1240" height="540" fill="#ffffff"></rect><g transform="translate(150 10) rotate(0 352.8 17.5)"><text x="0" y="NaN" font-family="Cascadia, Segoe UI Emoji" font-size="28px" fill="#343a40" text-anchor="start" style="white-space: pre;" direction="ltr">Hummingbot Sentiment Integration (84 dirs)</text></g><g transform="translate(20 152.5) rotate(0 80 17.5)"><text x="80" y="NaN" font-family="Cascadia, Segoe UI Emoji" font-size="14px" fill="#e8590c" text-anchor="middle" style="white-space: pre;" direction="ltr">Market</text><text x="80" y="NaN" font-family="Cascadia, Segoe UI Emoji" font-size="14px" fill="#e8590c" text-anchor="middle" style="white-space: pre;" direction="ltr">Data</text></g><g stroke-linecap="round" transform="translate(10 130) rotate(0 90 40)"><path d="M0 0 L180 0 L180 80 L0 80" stroke="none" stroke-width="0" fill="#ffd8a8"></path><path d="M0 0 C54.94 0, 109.89 0, 180 0 M0 0 C44.67 0, 89.33 0, 180 0 M180 0 C180 20.1, 180 40.2, 180 80 M180 0 C180 30.32, 180 60.63, 180 80 M180 80 C140.72 80, 101.44 80, 0 80 M180 80 C119 80, 57.99 80, 0 80 M0 80 C0 52.83, 0 25.66, 0 0 M0 80 C0 51.23, 0 22.46, 0 0" stroke="#e8590c" stroke-width="2" fill="none"></path></g><g transform="translate(280 152.5) rotate(0 80 17.5)"><text x="80" y="NaN" font-family="Cascadia, Segoe UI Emoji" font-size="14px" fill="#1971c2" text-anchor="middle" style="white-space: pre;" direction="ltr">Sentiment</text><text x="80" y="NaN" font-family="Cascadia, Segoe UI Emoji" font-size="14px" fill="#1971c2" text-anchor="middle" style="white-space: pre;" direction="ltr">Analysis</text></g><g stroke-linecap="round" transform="translate(270 130) rotate(0 90 40)"><path d="M0 0 L180 0 L180 80 L0 80" stroke="none" stroke-width="0" fill="#a5d8ff"></path><path d="M0 0 C54.13 0, 108.25 0, 180 0 M0 0 C44.67 0, 89.33 0, 180 0 M180 0 C180 25.61, 180 51.22, 180 80 M180 0 C180 31.2, 180 62.41, 180 80 M180 80 C131.03 80, 82.05 80, 0 80 M180 80 C143.22 80, 106.43 80, 0 80 M0 80 C0 61.05, 0 42.11, 0 0 M0 80 C0 60.65, 0 41.31, 0 0" stroke="#1971c2" stroke-width="2" fill="none"></path></g><g transform="translate(200 160) rotate(0 30 10)"><text x="30" y="NaN" font-family="Cascadia, Segoe UI Emoji" font-size="12px" fill="#868e96" text-anchor="middle" style="white-space: pre;" direction="ltr">feeds</text></g><g stroke-linecap="round"><g transform="translate(190 170) rotate(0 40 0)"><path d="M0 0 C13.33 0, 66.67 0, 80 0 M0 0 C13.33 0, 66.67 0, 80 0" stroke="#868e96" stroke-width="2" fill="none"></path></g><g transform="translate(190 170) rotate(0 40 0)"><path d="M51.81 10.26 C58.97 7.65, 66.14 5.05, 80 0 M51.81 10.26 C58.75 7.73, 65.69 5.21, 80 0" stroke="#868e96" stroke-width="2" fill="none"></path></g><g transform="translate(190 170) rotate(0 40 0)"><path d="M51.81 -10.26 C58.97 -7.65, 66.14 -5.05, 80 0 M51.81 -10.26 C58.75 -7.73, 65.69 -5.21, 80 0" stroke="#868e96" stroke-width="2" fill="none"></path></g></g><g transform="translate(540 152.5) rotate(0 80 17.5)"><text x="80" y="NaN" font-family="Cascadia, Segoe UI Emoji" font-size="14px" fill="#1971c2" text-anchor="middle" style="white-space: pre;" direction="ltr">Trading</text><text x="80" y="NaN" font-family="Cascadia, Segoe UI Emoji" font-size="14px" fill="#1971c2" text-anchor="middle" style="white-space: pre;" direction="ltr">Signals</text></g><g stroke-linecap="round" transform="translate(530 130) rotate(0 90 40)"><path d="M0 0 L180 0 L180 80 L0 80" stroke="none" stroke-width="0" fill="#a5d8ff"></path><path d="M0 0 C45.75 0, 91.49 0, 180 0 M0 0 C37.63 0, 75.26 0, 180 0 M180 0 C180 31.13, 180 62.26, 180 80 M180 0 C180 25.47, 180 50.93, 180 80 M180 80 C143.18 80, 106.37 80, 0 80 M180 80 C118.9 80, 57.81 80, 0 80 M0 80 C0 61.66, 0 43.32, 0 0 M0 80 C0 59.69, 0 39.39, 0 0" stroke="#1971c2" stroke-width="2" fill="none"></path></g><g transform="translate(460 160) rotate(0 30 10)"><text x="30" y="NaN" font-family="Cascadia, Segoe UI Emoji" font-size="12px" fill="#868e96" text-anchor="middle" style="white-space: pre;" direction="ltr">scored</text></g><g stroke-linecap="round"><g transform="translate(450 170) rotate(0 40 0)"><path d="M0 0 C13.33 0, 66.67 0, 80 0 M0 0 C13.33 0, 66.67 0, 80 0" stroke="#868e96" stroke-width="2" fill="none"></path></g><g transform="translate(450 170) rotate(0 40 0)"><path d="M51.81 10.26 C58 8.01, 64.2 5.75, 80 0 M51.81 10.26 C57.58 8.16, 63.35 6.06, 80 0" stroke="#868e96" stroke-width="2" fill="none"></path></g><g transform="translate(450 170) rotate(0 40 0)"><path d="M51.81 -10.26 C58 -8.01, 64.2 -5.75, 80 0 M51.81 -10.26 C57.58 -8.16, 63.35 -6.06, 80 0" stroke="#868e96" stroke-width="2" fill="none"></path></g></g><g transform="translate(800 152.5) rotate(0 80 17.5)"><text x="80" y="NaN" font-family="Cascadia, Segoe UI Emoji" font-size="14px" fill="#2f9e44" text-anchor="middle" style="white-space: pre;" direction="ltr">Hummingbot</text><text x="80" y="NaN" font-family="Cascadia, Segoe UI Emoji" font-size="14px" fill="#2f9e44" text-anchor="middle" style="white-space: pre;" direction="ltr">Executor</text></g><g stroke-linecap="round" transform="translate(790 130) rotate(0 90 40)"><path d="M0 0 L180 0 L180 80 L0 80" stroke="none" stroke-width="0" fill="#b2f2bb"></path><path d="M0 0 C37.27 0, 74.53 0, 180 0 M0 0 C46.66 0, 93.31 0, 180 0 M180 0 C180 21.76, 180 43.51, 180 80 M180 0 C180 23.13, 180 46.26, 180 80 M180 80 C119.99 80, 59.98 80, 0 80 M180 80 C137.76 80, 95.52 80, 0 80 M0 80 C0 61.02, 0 42.04, 0 0 M0 80 C0 58.75, 0 37.5, 0 0" stroke="#2f9e44" stroke-width="2" fill="none"></path></g><g transform="translate(720 160) rotate(0 30 10)"><text x="30" y="NaN" font-family="Cascadia, Segoe UI Emoji" font-size="12px" fill="#868e96" text-anchor="middle" style="white-space: pre;" direction="ltr">actions</text></g><g stroke-linecap="round"><g transform="translate(710 170) rotate(0 40 0)"><path d="M0 0 C13.33 0, 66.67 0, 80 0 M0 0 C13.33 0, 66.67 0, 80 0" stroke="#868e96" stroke-width="2" fill="none"></path></g><g transform="translate(710 170) rotate(0 40 0)"><path d="M51.81 10.26 C60.8 6.99, 69.79 3.72, 80 0 M51.81 10.26 C63.07 6.16, 74.33 2.07, 80 0" stroke="#868e96" stroke-width="2" fill="none"></path></g><g transform="translate(710 170) rotate(0 40 0)"><path d="M51.81 -10.26 C60.8 -6.99, 69.79 -3.72, 80 0 M51.81 -10.26 C63.07 -6.16, 74.33 -2.07, 80 0" stroke="#868e96" stroke-width="2" fill="none"></path></g></g><g transform="translate(1060 152.5) rotate(0 80 17.5)"><text x="80" y="NaN" font-family="Cascadia, Segoe UI Emoji" font-size="14px" fill="#2f9e44" text-anchor="middle" style="white-space: pre;" direction="ltr">Exchange</text><text x="80" y="NaN" font-family="Cascadia, Segoe UI Emoji" font-size="14px" fill="#2f9e44" text-anchor="middle" style="white-space: pre;" direction="ltr">API</text></g><g stroke-linecap="round" transform="translate(1050 130) rotate(0 90 40)"><path d="M0 0 L180 0 L180 80 L0 80" stroke="none" stroke-width="0" fill="#b2f2bb"></path><path d="M0 0 C53.65 0, 107.31 0, 180 0 M0 0 C59.73 0, 119.47 0, 180 0 M180 0 C180 16.22, 180 32.44, 180 80 M180 0 C180 26.44, 180 52.89, 180 80 M180 80 C129.66 80, 79.32 80, 0 80 M180 80 C134.78 80, 89.56 80, 0 80 M0 80 C0 58.5, 0 37.01, 0 0 M0 80 C0 63.45, 0 46.91, 0 0" stroke="#2f9e44" stroke-width="2" fill="none"></path></g><g transform="translate(980 160) rotate(0 30 10)"><text x="30" y="NaN" font-family="Cascadia, Segoe UI Emoji" font-size="12px" fill="#868e96" text-anchor="middle" style="white-space: pre;" direction="ltr">orders</text></g><g stroke-linecap="round"><g transform="translate(970 170) rotate(0 40 0)"><path d="M0 0 C13.33 0, 66.67 0, 80 0 M0 0 C13.33 0, 66.67 0, 80 0" stroke="#868e96" stroke-width="2" fill="none"></path></g><g transform="translate(970 170) rotate(0 40 0)"><path d="M51.81 10.26 C59.64 7.41, 67.48 4.56, 80 0 M51.81 10.26 C60.79 6.99, 69.77 3.72, 80 0" stroke="#868e96" stroke-width="2" fill="none"></path></g><g transform="translate(970 170) rotate(0 40 0)"><path d="M51.81 -10.26 C59.64 -7.41, 67.48 -4.56, 80 0 M51.81 -10.26 C60.79 -6.99, 69.77 -3.72, 80 0" stroke="#868e96" stroke-width="2" fill="none"></path></g></g><g transform="translate(10 270) rotate(0 66 13.75)"><text x="0" y="NaN" font-family="Cascadia, Segoe UI Emoji" font-size="22px" fill="#343a40" text-anchor="start" style="white-space: pre;" direction="ltr">Components</text></g><g transform="translate(20 320) rotate(0 90 20)"><text x="90" y="NaN" font-family="Cascadia, Segoe UI Emoji" font-size="16px" fill="#e8590c" text-anchor="middle" style="white-space: pre;" direction="ltr">Sentiment</text><text x="90" y="NaN" font-family="Cascadia, Segoe UI Emoji" font-size="16px" fill="#e8590c" text-anchor="middle" style="white-space: pre;" direction="ltr">Scrapers</text></g><g stroke-linecap="round" transform="translate(10 310) rotate(0 100 30)"><path d="M0 0 L200 0 L200 60 L0 60" stroke="none" stroke-width="0" fill="#ffd8a8"></path><path d="M0 0 C79.81 0, 159.62 0, 200 0 M0 0 C77.78 0, 155.56 0, 200 0 M200 0 C200 12.19, 200 24.38, 200 60 M200 0 C200 21.29, 200 42.59, 200 60 M200 60 C151.49 60, 102.97 60, 0 60 M200 60 C149.29 60, 98.59 60, 0 60 M0 60 C0 46.04, 0 32.07, 0 0 M0 60 C0 40.64, 0 21.28, 0 0" stroke="#e8590c" stroke-width="2" fill="none"></path></g><g transform="translate(300 320) rotate(0 90 20)"><text x="90" y="NaN" font-family="Cascadia, Segoe UI Emoji" font-size="16px" fill="#1971c2" text-anchor="middle" style="white-space: pre;" direction="ltr">NLP</text><text x="90" y="NaN" font-family="Cascadia, Segoe UI Emoji" font-size="16px" fill="#1971c2" text-anchor="middle" style="white-space: pre;" direction="ltr">Pipeline</text></g><g stroke-linecap="round" transform="translate(290 310) rotate(0 100 30)"><path d="M0 0 L200 0 L200 60 L0 60" stroke="none" stroke-width="0" fill="#a5d8ff"></path><path d="M0 0 C58.34 0, 116.69 0, 200 0 M0 0 C61.16 0, 122.31 0, 200 0 M200 0 C200 18.32, 200 36.64, 200 60 M200 0 C200 20.58, 200 41.16, 200 60 M200 60 C152.86 60, 105.72 60, 0 60 M200 60 C141.73 60, 83.46 60, 0 60 M0 60 C0 43.75, 0 27.49, 0 0 M0 60 C0 39.88, 0 19.76, 0 0" stroke="#1971c2" stroke-width="2" fill="none"></path></g><g transform="translate(580 320) rotate(0 90 20)"><text x="90" y="NaN" font-family="Cascadia, Segoe UI Emoji" font-size="16px" fill="#1971c2" text-anchor="middle" style="white-space: pre;" direction="ltr">Signal</text><text x="90" y="NaN" font-family="Cascadia, Segoe UI Emoji" font-size="16px" fill="#1971c2" text-anchor="middle" style="white-space: pre;" direction="ltr">Generator</text></g><g stroke-linecap="round" transform="translate(570 310) rotate(0 100 30)"><path d="M0 0 L200 0 L200 60 L0 60" stroke="none" stroke-width="0" fill="#a5d8ff"></path><path d="M0 0 C43.19 0, 86.38 0, 200 0 M0 0 C58.12 0, 116.23 0, 200 0 M200 0 C200 20.34, 200 40.67, 200 60 M200 0 C200 14.86, 200 29.73, 200 60 M200 60 C134.88 60, 69.76 60, 0 60 M200 60 C148.94 60, 97.89 60, 0 60 M0 60 C0 45.29, 0 30.57, 0 0 M0 60 C0 39.75, 0 19.51, 0 0" stroke="#1971c2" stroke-width="2" fill="none"></path></g><g transform="translate(860 320) rotate(0 90 20)"><text x="90" y="NaN" font-family="Cascadia, Segoe UI Emoji" font-size="16px" fill="#2f9e44" text-anchor="middle" style="white-space: pre;" direction="ltr">Bot</text><text x="90" y="NaN" font-family="Cascadia, Segoe UI Emoji" font-size="16px" fill="#2f9e44" text-anchor="middle" style="white-space: pre;" direction="ltr">Executor</text></g><g stroke-linecap="round" transform="translate(850 310) rotate(0 100 30)"><path d="M0 0 L200 0 L200 60 L0 60" stroke="none" stroke-width="0" fill="#b2f2bb"></path><path d="M0 0 C73.37 0, 146.74 0, 200 0 M0 0 C71.1 0, 142.21 0, 200 0 M200 0 C200 15.74, 200 31.48, 200 60 M200 0 C200 19.44, 200 38.88, 200 60 M200 60 C146.32 60, 92.64 60, 0 60 M200 60 C154.54 60, 109.08 60, 0 60 M0 60 C0 40.33, 0 20.67, 0 0 M0 60 C0 47.5, 0 34.99, 0 0" stroke="#2f9e44" stroke-width="2" fill="none"></path></g><g transform="translate(360 480) rotate(0 110 20)"><text x="110" y="NaN" font-family="Cascadia, Segoe UI Emoji" font-size="16px" fill="#e8590c" text-anchor="middle" style="white-space: pre;" direction="ltr">Performance</text><text x="110" y="NaN" font-family="Cascadia, Segoe UI Emoji" font-size="16px" fill="#e8590c" text-anchor="middle" style="white-space: pre;" direction="ltr">Feedback Loop</text></g><g stroke-linecap="round" transform="translate(350 470) rotate(0 120 30)"><path d="M0 0 L240 0 L240 60 L0 60" stroke="none" stroke-width="0" fill="#ffd8a8"></path><path d="M0 0 C63.98 0, 127.96 0, 240 0 M0 0 C88.95 0, 177.91 0, 240 0 M240 0 C240 20.23, 240 40.45, 240 60 M240 0 C240 16.27, 240 32.54, 240 60 M240 60 C183.27 60, 126.54 60, 0 60 M240 60 C146.77 60, 53.54 60, 0 60 M0 60 C0 47.99, 0 35.97, 0 0 M0 60 C0 36.79, 0 13.59, 0 0" stroke="#e8590c" stroke-width="2" fill="none"></path></g><g stroke-linecap="round"><g transform="translate(1050 170) rotate(0 -230 165)"><path d="M0 0 C-76.67 55, -383.33 275, -460 330" stroke="#e8590c" stroke-width="2.5" fill="none" stroke-dasharray="8 10"></path></g><g transform="translate(1050 170) rotate(0 -230 165)"><path d="M-443.07 305.23 C-448.82 313.64, -454.56 322.04, -460 330" stroke="#e8590c" stroke-width="2.5" fill="none"></path></g><g transform="translate(1050 170) rotate(0 -230 165)"><path d="M-431.11 321.9 C-440.92 324.65, -450.72 327.4, -460 330" stroke="#e8590c" stroke-width="2.5" fill="none"></path></g></g><g transform="translate(366 330) rotate(0 49 10)"><text x="49" y="NaN" font-family="Cascadia, Segoe UI Emoji" font-size="12px" fill="#e8590c" text-anchor="middle" style="white-space: pre;" direction="ltr">adjust weights</text></g><g stroke-linecap="round"><g transform="translate(470 470) rotate(0 -55 -130)"><path d="M0 0 C-18.33 -43.33, -91.67 -216.67, -110 -260" stroke="#e8590c" stroke-width="2.5" fill="none" stroke-dasharray="8 10"></path></g><g transform="translate(470 470) rotate(0 -55 -130)"><path d="M-89.57 -238.04 C-96.75 -245.76, -103.94 -253.49, -110 -260" stroke="#e8590c" stroke-width="2.5" fill="none"></path></g><g transform="translate(470 470) rotate(0 -55 -130)"><path d="M-108.47 -230.04 C-109.01 -240.58, -109.55 -251.12, -110 -260" stroke="#e8590c" stroke-width="2.5" fill="none"></path></g></g></svg>