<svg version="1.1" xmlns="http://www.w3.org/2000/svg" viewBox="0 0 1340 580" width="1340" height="580">
  <!-- svg-source:excalidraw -->
  
  <defs>
    <style>
      @font-face {
        font-family: "Virgil";
        src: url("https://excalidraw.com/Virgil.woff2");
      }
      @font-face {
        font-family: "Cascadia";
        src: url("https://excalidraw.com/Cascadia.woff2");
      }
    </style>
  </defs>
  <rect x="0" y="0" width="1340" height="580" fill="#ffffff"></rect><g transform="translate(10 10) rotate(0 176.4 17.5)"><text x="0" y="NaN" font-family="Cascadia, Segoe UI Emoji" font-size="28px" fill="#343a40" text-anchor="start" style="white-space: pre;" direction="ltr">Inbox Processing Flow</text></g><g transform="translate(10 50) rotate(0 129.6 10)"><text x="0" y="NaN" font-family="Cascadia, Segoe UI Emoji" font-size="16px" fill="#868e96" text-anchor="start" style="white-space: pre;" direction="ltr">2,248 files triage pipeline</text></g><g transform="translate(20 172.5) rotate(0 80 17.5)"><text x="80" y="NaN" font-family="Cascadia, Segoe UI Emoji" font-size="14px" fill="#e8590c" text-anchor="middle" style="white-space: pre;" direction="ltr">Inbox</text><text x="80" y="NaN" font-family="Cascadia, Segoe UI Emoji" font-size="14px" fill="#e8590c" text-anchor="middle" style="white-space: pre;" direction="ltr">(2,248 files)</text></g><g stroke-linecap="round" transform="translate(10 150) rotate(0 90 40)"><path d="M0 0 L180 0 L180 80 L0 80" stroke="none" stroke-width="0" fill="#ffd8a8"></path><path d="M0 0 C40.39 0, 80.78 0, 180 0 M0 0 C58.22 0, 116.44 0, 180 0 M180 0 C180 28.86, 180 57.71, 180 80 M180 0 C180 16.72, 180 33.44, 180 80 M180 80 C127.2 80, 74.41 80, 0 80 M180 80 C119.29 80, 58.57 80, 0 80 M0 80 C0 50.84, 0 21.69, 0 0 M0 80 C0 62.33, 0 44.65, 0 0" stroke="#e8590c" stroke-width="2" fill="none"></path></g><g transform="translate(334 180) rotate(0 56 10)"><text x="56" y="NaN" font-family="Cascadia, Segoe UI Emoji" font-size="16px" fill="#e8590c" text-anchor="middle" style="white-space: pre;" direction="ltr">Triage</text></g><g stroke-linecap="round" transform="translate(310 130) rotate(0 80 60)"><path d="M81 0 L160 61 L81 120 L0 61" stroke="none" stroke-width="0" fill="#ffd8a8" fill-rule="evenodd"></path><path d="M81 0 C104.81 18.38, 128.61 36.76, 160 61 M81 0 C112.54 24.36, 144.08 48.71, 160 61 M160 61 C137.95 77.47, 115.9 93.94, 81 120 M160 61 C136.8 78.33, 113.6 95.66, 81 120 M81 120 C64.01 107.63, 47.03 95.25, 0 61 M81 120 C49.33 96.93, 17.67 73.87, 0 61 M0 61 C27.66 40.17, 55.33 19.33, 81 0 M0 61 C30.17 38.28, 60.34 15.56, 81 0" stroke="#e8590c" stroke-width="2" fill="none"></path></g><g stroke-linecap="round"><g transform="translate(190 190) rotate(0 60 0)"><path d="M0 0 C20 0, 100 0, 120 0 M0 0 C20 0, 100 0, 120 0" stroke="#868e96" stroke-width="2" fill="none"></path></g><g transform="translate(190 190) rotate(0 60 0)"><path d="M91.81 10.26 C102.31 6.44, 112.81 2.62, 120 0 M91.81 10.26 C97.8 8.08, 103.78 5.9, 120 0" stroke="#868e96" stroke-width="2" fill="none"></path></g><g transform="translate(190 190) rotate(0 60 0)"><path d="M91.81 -10.26 C102.31 -6.44, 112.81 -2.62, 120 0 M91.81 -10.26 C97.8 -8.08, 103.78 -5.9, 120 0" stroke="#868e96" stroke-width="2" fill="none"></path></g></g><g transform="translate(600 172.5) rotate(0 60 17.5)"><text x="60" y="NaN" font-family="Cascadia, Segoe UI Emoji" font-size="14px" fill="#1971c2" text-anchor="middle" style="white-space: pre;" direction="ltr">RSS</text><text x="60" y="NaN" font-family="Cascadia, Segoe UI Emoji" font-size="14px" fill="#1971c2" text-anchor="middle" style="white-space: pre;" direction="ltr">(95%)</text></g><g stroke-linecap="round" transform="translate(590 150) rotate(0 70 40)"><path d="M0 0 L140 0 L140 80 L0 80" stroke="none" stroke-width="0" fill="#a5d8ff"></path><path d="M0 0 C42.47 0, 84.95 0, 140 0 M0 0 C28.28 0, 56.55 0, 140 0 M140 0 C140 30.77, 140 61.54, 140 80 M140 0 C140 26.03, 140 52.06, 140 80 M140 80 C93.64 80, 47.27 80, 0 80 M140 80 C100.01 80, 60.02 80, 0 80 M0 80 C0 51.88, 0 23.76, 0 0 M0 80 C0 50.61, 0 21.22, 0 0" stroke="#1971c2" stroke-width="2" fill="none"></path></g><g transform="translate(500 180) rotate(0 30 10)"><text x="30" y="NaN" font-family="Cascadia, Segoe UI Emoji" font-size="12px" fill="#868e96" text-anchor="middle" style="white-space: pre;" direction="ltr">95%</text></g><g stroke-linecap="round"><g transform="translate(470 190) rotate(0 60 0)"><path d="M0 0 C20 0, 100 0, 120 0 M0 0 C20 0, 100 0, 120 0" stroke="#868e96" stroke-width="2" fill="none"></path></g><g transform="translate(470 190) rotate(0 60 0)"><path d="M91.81 10.26 C101.96 6.57, 112.11 2.87, 120 0 M91.81 10.26 C99.11 7.6, 106.41 4.95, 120 0" stroke="#868e96" stroke-width="2" fill="none"></path></g><g transform="translate(470 190) rotate(0 60 0)"><path d="M91.81 -10.26 C101.96 -6.57, 112.11 -2.87, 120 0 M91.81 -10.26 C99.11 -7.6, 106.41 -4.95, 120 0" stroke="#868e96" stroke-width="2" fill="none"></path></g></g><g transform="translate(840 181.25) rotate(0 70 8.75)"><text x="70" y="NaN" font-family="Cascadia, Segoe UI Emoji" font-size="14px" fill="#1971c2" text-anchor="middle" style="white-space: pre;" direction="ltr">AI Analysis</text></g><g stroke-linecap="round" transform="translate(830 150) rotate(0 80 40)"><path d="M0 0 L160 0 L160 80 L0 80" stroke="none" stroke-width="0" fill="#a5d8ff"></path><path d="M0 0 C46.01 0, 92.01 0, 160 0 M0 0 C49.75 0, 99.51 0, 160 0 M160 0 C160 21.63, 160 43.26, 160 80 M160 0 C160 22.72, 160 45.43, 160 80 M160 80 C127.69 80, 95.37 80, 0 80 M160 80 C102.83 80, 45.65 80, 0 80 M0 80 C0 56.77, 0 33.53, 0 0 M0 80 C0 48.85, 0 17.7, 0 0" stroke="#1971c2" stroke-width="2" fill="none"></path></g><g stroke-linecap="round"><g transform="translate(730 190) rotate(0 50 0)"><path d="M0 0 C16.67 0, 83.33 0, 100 0 M0 0 C16.67 0, 83.33 0, 100 0" stroke="#868e96" stroke-width="2" fill="none"></path></g><g transform="translate(730 190) rotate(0 50 0)"><path d="M71.81 10.26 C81.49 6.74, 91.17 3.21, 100 0 M71.81 10.26 C78.96 7.66, 86.12 5.05, 100 0" stroke="#868e96" stroke-width="2" fill="none"></path></g><g transform="translate(730 190) rotate(0 50 0)"><path d="M71.81 -10.26 C81.49 -6.74, 91.17 -3.21, 100 0 M71.81 -10.26 C78.96 -7.66, 86.12 -5.05, 100 0" stroke="#868e96" stroke-width="2" fill="none"></path></g></g><g transform="translate(1100 181.25) rotate(0 60 8.75)"><text x="60" y="NaN" font-family="Cascadia, Segoe UI Emoji" font-size="14px" fill="#1971c2" text-anchor="middle" style="white-space: pre;" direction="ltr">Digest</text></g><g stroke-linecap="round" transform="translate(1090 150) rotate(0 70 40)"><path d="M0 0 L140 0 L140 80 L0 80" stroke="none" stroke-width="0" fill="#a5d8ff"></path><path d="M0 0 C49.46 0, 98.92 0, 140 0 M0 0 C53.57 0, 107.15 0, 140 0 M140 0 C140 24.77, 140 49.55, 140 80 M140 0 C140 28.92, 140 57.84, 140 80 M140 80 C104.3 80, 68.6 80, 0 80 M140 80 C94.52 80, 49.05 80, 0 80 M0 80 C0 62.94, 0 45.87, 0 0 M0 80 C0 56.07, 0 32.14, 0 0" stroke="#1971c2" stroke-width="2" fill="none"></path></g><g stroke-linecap="round"><g transform="translate(990 190) rotate(0 50 0)"><path d="M0 0 C16.67 0, 83.33 0, 100 0 M0 0 C16.67 0, 83.33 0, 100 0" stroke="#868e96" stroke-width="2" fill="none"></path></g><g transform="translate(990 190) rotate(0 50 0)"><path d="M71.81 10.26 C79.13 7.6, 86.46 4.93, 100 0 M71.81 10.26 C78.43 7.85, 85.05 5.44, 100 0" stroke="#868e96" stroke-width="2" fill="none"></path></g><g transform="translate(990 190) rotate(0 50 0)"><path d="M71.81 -10.26 C79.13 -7.6, 86.46 -4.93, 100 0 M71.81 -10.26 C78.43 -7.85, 85.05 -5.44, 100 0" stroke="#868e96" stroke-width="2" fill="none"></path></g></g><g transform="translate(1040 371.25) rotate(0 60 8.75)"><text x="60" y="NaN" font-family="Cascadia, Segoe UI Emoji" font-size="14px" fill="#2f9e44" text-anchor="middle" style="white-space: pre;" direction="ltr">Email</text></g><g stroke-linecap="round" transform="translate(1030 350) rotate(0 70 30)"><path d="M0 0 L140 0 L140 60 L0 60" stroke="none" stroke-width="0" fill="#b2f2bb"></path><path d="M0 0 C54.37 0, 108.74 0, 140 0 M0 0 C48.03 0, 96.07 0, 140 0 M140 0 C140 19.43, 140 38.87, 140 60 M140 0 C140 18.87, 140 37.75, 140 60 M140 60 C110.22 60, 80.45 60, 0 60 M140 60 C99.68 60, 59.36 60, 0 60 M0 60 C0 36.14, 0 12.29, 0 0 M0 60 C0 40.61, 0 21.21, 0 0" stroke="#2f9e44" stroke-width="2" fill="none"></path></g><g transform="translate(1200 371.25) rotate(0 60 8.75)"><text x="60" y="NaN" font-family="Cascadia, Segoe UI Emoji" font-size="14px" fill="#2f9e44" text-anchor="middle" style="white-space: pre;" direction="ltr">Vault</text></g><g stroke-linecap="round" transform="translate(1190 350) rotate(0 70 30)"><path d="M0 0 L140 0 L140 60 L0 60" stroke="none" stroke-width="0" fill="#b2f2bb"></path><path d="M0 0 C54.57 0, 109.13 0, 140 0 M0 0 C41.6 0, 83.21 0, 140 0 M140 0 C140 23.89, 140 47.79, 140 60 M140 0 C140 19.31, 140 38.63, 140 60 M140 60 C104.84 60, 69.68 60, 0 60 M140 60 C85.17 60, 30.34 60, 0 60 M0 60 C0 37.08, 0 14.17, 0 0 M0 60 C0 36.7, 0 13.4, 0 0" stroke="#2f9e44" stroke-width="2" fill="none"></path></g><g stroke-linecap="round"><g transform="translate(1160 230) rotate(0 -30 60)"><path d="M0 0 C-10 20, -50 100, -60 120 M0 0 C-10 20, -50 100, -60 120" stroke="#868e96" stroke-width="2" fill="none"></path></g><g transform="translate(1160 230) rotate(0 -30 60)"><path d="M-56.57 90.2 C-57.49 98.22, -58.42 106.24, -60 120 M-56.57 90.2 C-57.37 97.18, -58.18 104.15, -60 120" stroke="#868e96" stroke-width="2" fill="none"></path></g><g transform="translate(1160 230) rotate(0 -30 60)"><path d="M-38.22 99.37 C-44.08 104.93, -49.94 110.48, -60 120 M-38.22 99.37 C-43.32 104.2, -48.42 109.03, -60 120" stroke="#868e96" stroke-width="2" fill="none"></path></g></g><g stroke-linecap="round"><g transform="translate(1160 230) rotate(0 50 60)"><path d="M0 0 C16.67 20, 83.33 100, 100 120 M0 0 C16.67 20, 83.33 100, 100 120" stroke="#868e96" stroke-width="2" fill="none"></path></g><g transform="translate(1160 230) rotate(0 50 60)"><path d="M74.07 104.91 C83.42 110.35, 92.77 115.79, 100 120 M74.07 104.91 C82.47 109.8, 90.86 114.68, 100 120" stroke="#868e96" stroke-width="2" fill="none"></path></g><g transform="translate(1160 230) rotate(0 50 60)"><path d="M89.84 91.77 C93.5 101.95, 97.16 112.12, 100 120 M89.84 91.77 C93.13 100.91, 96.42 110.05, 100 120" stroke="#868e96" stroke-width="2" fill="none"></path></g></g><g transform="translate(260 391.25) rotate(0 60 8.75)"><text x="60" y="NaN" font-family="Cascadia, Segoe UI Emoji" font-size="14px" fill="#1971c2" text-anchor="middle" style="white-space: pre;" direction="ltr">Email</text></g><g stroke-linecap="round" transform="translate(250 370) rotate(0 70 30)"><path d="M0 0 L140 0 L140 60 L0 60" stroke="none" stroke-width="0" fill="#a5d8ff"></path><path d="M0 0 C41.7 0, 83.41 0, 140 0 M0 0 C48.83 0, 97.66 0, 140 0 M140 0 C140 20.99, 140 41.99, 140 60 M140 0 C140 12.29, 140 24.59, 140 60 M140 60 C98.16 60, 56.32 60, 0 60 M140 60 C85.93 60, 31.87 60, 0 60 M0 60 C0 38.5, 0 16.99, 0 0 M0 60 C0 45.73, 0 31.47, 0 0" stroke="#1971c2" stroke-width="2" fill="none"></path></g><g transform="translate(325 300) rotate(0 30 10)"><text x="30" y="NaN" font-family="Cascadia, Segoe UI Emoji" font-size="12px" fill="#868e96" text-anchor="middle" style="white-space: pre;" direction="ltr">3%</text></g><g stroke-linecap="round"><g transform="translate(390 250) rotate(0 -35 60)"><path d="M0 0 C-11.67 20, -58.33 100, -70 120 M0 0 C-11.67 20, -58.33 100, -70 120" stroke="#868e96" stroke-width="2" fill="none"></path></g><g transform="translate(390 250) rotate(0 -35 60)"><path d="M-64.66 90.48 C-66.24 99.25, -67.83 108.01, -70 120 M-64.66 90.48 C-66.56 100.99, -68.46 111.51, -70 120" stroke="#868e96" stroke-width="2" fill="none"></path></g><g transform="translate(390 250) rotate(0 -35 60)"><path d="M-46.93 100.82 C-53.78 106.52, -60.63 112.21, -70 120 M-46.93 100.82 C-55.15 107.65, -63.36 114.48, -70 120" stroke="#868e96" stroke-width="2" fill="none"></path></g></g><g transform="translate(260 531.25) rotate(0 60 8.75)"><text x="60" y="NaN" font-family="Cascadia, Segoe UI Emoji" font-size="14px" fill="#2f9e44" text-anchor="middle" style="white-space: pre;" direction="ltr">Vault</text></g><g stroke-linecap="round" transform="translate(250 510) rotate(0 70 30)"><path d="M0 0 L140 0 L140 60 L0 60" stroke="none" stroke-width="0" fill="#b2f2bb"></path><path d="M0 0 C45.26 0, 90.52 0, 140 0 M0 0 C30.63 0, 61.26 0, 140 0 M140 0 C140 15.02, 140 30.03, 140 60 M140 0 C140 20.05, 140 40.1, 140 60 M140 60 C110.5 60, 80.99 60, 0 60 M140 60 C90.03 60, 40.06 60, 0 60 M0 60 C0 46.13, 0 32.26, 0 0 M0 60 C0 43.3, 0 26.61, 0 0" stroke="#2f9e44" stroke-width="2" fill="none"></path></g><g stroke-linecap="round"><g transform="translate(320 430) rotate(0 0 40)"><path d="M0 0 C0 13.33, 0 66.67, 0 80 M0 0 C0 13.33, 0 66.67, 0 80" stroke="#868e96" stroke-width="2" fill="none"></path></g><g transform="translate(320 430) rotate(0 0 40)"><path d="M-10.26 51.81 C-8.16 57.59, -6.05 63.37, 0 80 M-10.26 51.81 C-6.56 61.97, -2.86 72.14, 0 80" stroke="#868e96" stroke-width="2" fill="none"></path></g><g transform="translate(320 430) rotate(0 0 40)"><path d="M10.26 51.81 C8.16 57.59, 6.05 63.37, 0 80 M10.26 51.81 C6.56 61.97, 2.86 72.14, 0 80" stroke="#868e96" stroke-width="2" fill="none"></path></g></g><g transform="translate(440 391.25) rotate(0 60 8.75)"><text x="60" y="NaN" font-family="Cascadia, Segoe UI Emoji" font-size="14px" fill="#1971c2" text-anchor="middle" style="white-space: pre;" direction="ltr">Voice</text></g><g stroke-linecap="round" transform="translate(430 370) rotate(0 70 30)"><path d="M0 0 L140 0 L140 60 L0 60" stroke="none" stroke-width="0" fill="#a5d8ff"></path><path d="M0 0 C30.48 0, 60.96 0, 140 0 M0 0 C30.88 0, 61.76 0, 140 0 M140 0 C140 21.16, 140 42.33, 140 60 M140 0 C140 18.93, 140 37.85, 140 60 M140 60 C101.96 60, 63.92 60, 0 60 M140 60 C91.77 60, 43.54 60, 0 60 M0 60 C0 42.04, 0 24.09, 0 0 M0 60 C0 40.41, 0 20.82, 0 0" stroke="#1971c2" stroke-width="2" fill="none"></path></g><g transform="translate(415 300) rotate(0 30 10)"><text x="30" y="NaN" font-family="Cascadia, Segoe UI Emoji" font-size="12px" fill="#868e96" text-anchor="middle" style="white-space: pre;" direction="ltr">1%</text></g><g stroke-linecap="round"><g transform="translate(390 250) rotate(0 55 60)"><path d="M0 0 C18.33 20, 91.67 100, 110 120 M0 0 C18.33 20, 91.67 100, 110 120" stroke="#868e96" stroke-width="2" fill="none"></path></g><g transform="translate(390 250) rotate(0 55 60)"><path d="M83.39 106.15 C90.48 109.84, 97.57 113.53, 110 120 M83.39 106.15 C90.55 109.88, 97.71 113.6, 110 120" stroke="#868e96" stroke-width="2" fill="none"></path></g><g transform="translate(390 250) rotate(0 55 60)"><path d="M98.51 92.29 C101.57 99.67, 104.63 107.05, 110 120 M98.51 92.29 C101.6 99.74, 104.69 107.2, 110 120" stroke="#868e96" stroke-width="2" fill="none"></path></g></g><g transform="translate(440 531.25) rotate(0 60 8.75)"><text x="60" y="NaN" font-family="Cascadia, Segoe UI Emoji" font-size="14px" fill="#2f9e44" text-anchor="middle" style="white-space: pre;" direction="ltr">Vault</text></g><g stroke-linecap="round" transform="translate(430 510) rotate(0 70 30)"><path d="M0 0 L140 0 L140 60 L0 60" stroke="none" stroke-width="0" fill="#b2f2bb"></path><path d="M0 0 C44.16 0, 88.32 0, 140 0 M0 0 C28.06 0, 56.12 0, 140 0 M140 0 C140 17.45, 140 34.89, 140 60 M140 0 C140 20.32, 140 40.65, 140 60 M140 60 C103.35 60, 66.69 60, 0 60 M140 60 C99.06 60, 58.12 60, 0 60 M0 60 C0 44.43, 0 28.85, 0 0 M0 60 C0 37.58, 0 15.16, 0 0" stroke="#2f9e44" stroke-width="2" fill="none"></path></g><g stroke-linecap="round"><g transform="translate(500 430) rotate(0 0 40)"><path d="M0 0 C0 13.33, 0 66.67, 0 80 M0 0 C0 13.33, 0 66.67, 0 80" stroke="#868e96" stroke-width="2" fill="none"></path></g><g transform="translate(500 430) rotate(0 0 40)"><path d="M-10.26 51.81 C-8.04 57.92, -5.81 64.04, 0 80 M-10.26 51.81 C-6.37 62.5, -2.48 73.19, 0 80" stroke="#868e96" stroke-width="2" fill="none"></path></g><g transform="translate(500 430) rotate(0 0 40)"><path d="M10.26 51.81 C8.04 57.92, 5.81 64.04, 0 80 M10.26 51.81 C6.37 62.5, 2.48 73.19, 0 80" stroke="#868e96" stroke-width="2" fill="none"></path></g></g><g transform="translate(620 391.25) rotate(0 60 8.75)"><text x="60" y="NaN" font-family="Cascadia, Segoe UI Emoji" font-size="14px" fill="#1971c2" text-anchor="middle" style="white-space: pre;" direction="ltr">Manual</text></g><g stroke-linecap="round" transform="translate(610 370) rotate(0 70 30)"><path d="M0 0 L140 0 L140 60 L0 60" stroke="none" stroke-width="0" fill="#a5d8ff"></path><path d="M0 0 C50.24 0, 100.48 0, 140 0 M0 0 C54.14 0, 108.28 0, 140 0 M140 0 C140 13.88, 140 27.77, 140 60 M140 0 C140 14.79, 140 29.58, 140 60 M140 60 C94.39 60, 48.79 60, 0 60 M140 60 C99.27 60, 58.54 60, 0 60 M0 60 C0 41.05, 0 22.1, 0 0 M0 60 C0 43.5, 0 27, 0 0" stroke="#1971c2" stroke-width="2" fill="none"></path></g><g transform="translate(510 285) rotate(0 30 10)"><text x="30" y="NaN" font-family="Cascadia, Segoe UI Emoji" font-size="12px" fill="#868e96" text-anchor="middle" style="white-space: pre;" direction="ltr">1%</text></g><g stroke-linecap="round"><g transform="translate(470 190) rotate(0 70 105)"><path d="M0 0 C23.33 35, 116.67 175, 140 210 M0 0 C23.33 35, 116.67 175, 140 210" stroke="#868e96" stroke-width="2" fill="none"></path></g><g transform="translate(470 190) rotate(0 70 105)"><path d="M115.83 192.24 C123.17 197.63, 130.51 203.03, 140 210 M115.83 192.24 C121.66 196.53, 127.5 200.82, 140 210" stroke="#868e96" stroke-width="2" fill="none"></path></g><g transform="translate(470 190) rotate(0 70 105)"><path d="M132.9 180.85 C135.06 189.71, 137.21 198.56, 140 210 M132.9 180.85 C134.61 187.89, 136.33 194.93, 140 210" stroke="#868e96" stroke-width="2" fill="none"></path></g></g><g transform="translate(620 531.25) rotate(0 60 8.75)"><text x="60" y="NaN" font-family="Cascadia, Segoe UI Emoji" font-size="14px" fill="#2f9e44" text-anchor="middle" style="white-space: pre;" direction="ltr">Vault</text></g><g stroke-linecap="round" transform="translate(610 510) rotate(0 70 30)"><path d="M0 0 L140 0 L140 60 L0 60" stroke="none" stroke-width="0" fill="#b2f2bb"></path><path d="M0 0 C44.53 0, 89.05 0, 140 0 M0 0 C50.51 0, 101.01 0, 140 0 M140 0 C140 21.12, 140 42.24, 140 60 M140 0 C140 12.18, 140 24.35, 140 60 M140 60 C110.99 60, 81.98 60, 0 60 M140 60 C103.73 60, 67.47 60, 0 60 M0 60 C0 36.88, 0 13.75, 0 0 M0 60 C0 37.67, 0 15.34, 0 0" stroke="#2f9e44" stroke-width="2" fill="none"></path></g><g stroke-linecap="round"><g transform="translate(680 430) rotate(0 0 40)"><path d="M0 0 C0 13.33, 0 66.67, 0 80 M0 0 C0 13.33, 0 66.67, 0 80" stroke="#868e96" stroke-width="2" fill="none"></path></g><g transform="translate(680 430) rotate(0 0 40)"><path d="M-10.26 51.81 C-7.69 58.86, -5.13 65.91, 0 80 M-10.26 51.81 C-7.84 58.45, -5.43 65.09, 0 80" stroke="#868e96" stroke-width="2" fill="none"></path></g><g transform="translate(680 430) rotate(0 0 40)"><path d="M10.26 51.81 C7.69 58.86, 5.13 65.91, 0 80 M10.26 51.81 C7.84 58.45, 5.43 65.09, 0 80" stroke="#868e96" stroke-width="2" fill="none"></path></g></g></svg>