<svg version="1.1" xmlns="http://www.w3.org/2000/svg" viewBox="0 0 800 700" width="800" height="700">
  <!-- svg-source:excalidraw -->
  
  <defs>
    <style>
      @font-face {
        font-family: "Virgil";
        src: url("https://excalidraw.com/Virgil.woff2");
      }
      @font-face {
        font-family: "Cascadia";
        src: url("https://excalidraw.com/Cascadia.woff2");
      }
    </style>
  </defs>
  <rect x="0" y="0" width="800" height="700" fill="#ffffff"></rect><g transform="translate(10 10) rotate(0 126 17.5)"><text x="0" y="NaN" font-family="Cascadia, Segoe UI Emoji" font-size="28px" fill="#343a40" text-anchor="start" style="white-space: pre;" direction="ltr">Knowledge Graph</text></g><g transform="translate(10 50) rotate(0 130.2 8.75)"><text x="0" y="NaN" font-family="Cascadia, Segoe UI Emoji" font-size="14px" fill="#868e96" text-anchor="start" style="white-space: pre;" direction="ltr">Content types and relationships</text></g><g transform="translate(340 347.5) rotate(0 80 22.5)"><text x="80" y="NaN" font-family="Cascadia, Segoe UI Emoji" font-size="18px" fill="#1971c2" text-anchor="middle" style="white-space: pre;" direction="ltr">Knowledge</text><text x="80" y="NaN" font-family="Cascadia, Segoe UI Emoji" font-size="18px" fill="#1971c2" text-anchor="middle" style="white-space: pre;" direction="ltr">Base</text></g><g stroke-linecap="round" transform="translate(330 330) rotate(0 90 40)"><path d="M0 0 L180 0 L180 80 L0 80" stroke="none" stroke-width="0" fill="#a5d8ff"></path><path d="M0 0 C65.92 0, 131.84 0, 180 0 M0 0 C44.83 0, 89.66 0, 180 0 M180 0 C180 25.24, 180 50.48, 180 80 M180 0 C180 23.76, 180 47.52, 180 80 M180 80 C142.79 80, 105.57 80, 0 80 M180 80 C124.5 80, 69 80, 0 80 M0 80 C0 55.79, 0 31.58, 0 0 M0 80 C0 60.85, 0 41.71, 0 0" stroke="#1971c2" stroke-width="2" fill="none"></path></g><g transform="translate(380 91.25) rotate(0 60 8.75)"><text x="60" y="NaN" font-family="Cascadia, Segoe UI Emoji" font-size="14px" fill="#2f9e44" text-anchor="middle" style="white-space: pre;" direction="ltr">Books</text></g><g stroke-linecap="round" transform="translate(370 70) rotate(0 70 30)"><path d="M0 0 L140 0 L140 60 L0 60" stroke="none" stroke-width="0" fill="#b2f2bb"></path><path d="M0 0 C36.03 0, 72.06 0, 140 0 M0 0 C42.7 0, 85.4 0, 140 0 M140 0 C140 19.14, 140 38.27, 140 60 M140 0 C140 13.82, 140 27.64, 140 60 M140 60 C96.35 60, 52.71 60, 0 60 M140 60 C109.35 60, 78.7 60, 0 60 M0 60 C0 40.67, 0 21.33, 0 0 M0 60 C0 46.02, 0 32.03, 0 0" stroke="#2f9e44" stroke-width="2" fill="none"></path></g><g stroke-linecap="round"><g transform="translate(420 330) rotate(0 10 -100)"><path d="M0 0 C3.33 -33.33, 16.67 -166.67, 20 -200 M0 0 C3.33 -33.33, 16.67 -166.67, 20 -200" stroke="#868e96" stroke-width="1" fill="none"></path></g><g transform="translate(420 330) rotate(0 10 -100)"><path d="M27.4 -170.93 C24.81 -181.11, 22.22 -191.28, 20 -200 M27.4 -170.93 C25.51 -178.38, 23.61 -185.84, 20 -200" stroke="#868e96" stroke-width="1" fill="none"></path></g><g transform="translate(420 330) rotate(0 10 -100)"><path d="M6.99 -172.97 C11.54 -182.43, 16.1 -191.89, 20 -200 M6.99 -172.97 C10.32 -179.9, 13.66 -186.83, 20 -200" stroke="#868e96" stroke-width="1" fill="none"></path></g></g><g transform="translate(560 171.25) rotate(0 60 8.75)"><text x="60" y="NaN" font-family="Cascadia, Segoe UI Emoji" font-size="14px" fill="#2f9e44" text-anchor="middle" style="white-space: pre;" direction="ltr">Research</text></g><g stroke-linecap="round" transform="translate(550 150) rotate(0 70 30)"><path d="M0 0 L140 0 L140 60 L0 60" stroke="none" stroke-width="0" fill="#b2f2bb"></path><path d="M0 0 C29.94 0, 59.88 0, 140 0 M0 0 C50.57 0, 101.13 0, 140 0 M140 0 C140 21.97, 140 43.95, 140 60 M140 0 C140 12.21, 140 24.43, 140 60 M140 60 C98.26 60, 56.53 60, 0 60 M140 60 C110.21 60, 80.43 60, 0 60 M0 60 C0 40.89, 0 21.77, 0 0 M0 60 C0 41.37, 0 22.73, 0 0" stroke="#2f9e44" stroke-width="2" fill="none"></path></g><g stroke-linecap="round"><g transform="translate(510 370) rotate(0 20 -95)"><path d="M0 0 C6.67 -31.67, 33.33 -158.33, 40 -190 M0 0 C6.67 -31.67, 33.33 -158.33, 40 -190" stroke="#868e96" stroke-width="1" fill="none"></path></g><g transform="translate(510 370) rotate(0 20 -95)"><path d="M44.23 -160.3 C42.62 -171.63, 41 -182.95, 40 -190 M44.23 -160.3 C42.67 -171.26, 41.11 -182.21, 40 -190" stroke="#868e96" stroke-width="1" fill="none"></path></g><g transform="translate(510 370) rotate(0 20 -95)"><path d="M24.15 -164.53 C30.2 -174.24, 36.24 -183.95, 40 -190 M24.15 -164.53 C30 -173.92, 35.85 -183.32, 40 -190" stroke="#868e96" stroke-width="1" fill="none"></path></g></g><g transform="translate(660 371.25) rotate(0 60 8.75)"><text x="60" y="NaN" font-family="Cascadia, Segoe UI Emoji" font-size="14px" fill="#2f9e44" text-anchor="middle" style="white-space: pre;" direction="ltr">Solutions</text></g><g stroke-linecap="round" transform="translate(650 350) rotate(0 70 30)"><path d="M0 0 L140 0 L140 60 L0 60" stroke="none" stroke-width="0" fill="#b2f2bb"></path><path d="M0 0 C29.25 0, 58.5 0, 140 0 M0 0 C43.43 0, 86.87 0, 140 0 M140 0 C140 17.74, 140 35.49, 140 60 M140 0 C140 20.17, 140 40.33, 140 60 M140 60 C107.16 60, 74.32 60, 0 60 M140 60 C92.77 60, 45.53 60, 0 60 M0 60 C0 41.81, 0 23.63, 0 0 M0 60 C0 46.34, 0 32.67, 0 0" stroke="#2f9e44" stroke-width="2" fill="none"></path></g><g stroke-linecap="round"><g transform="translate(510 370) rotate(0 70 5)"><path d="M0 0 C23.33 1.67, 116.67 8.33, 140 10 M0 0 C23.33 1.67, 116.67 8.33, 140 10" stroke="#868e96" stroke-width="1" fill="none"></path></g><g transform="translate(510 370) rotate(0 70 5)"><path d="M111.15 18.23 C118.85 16.03, 126.55 13.83, 140 10 M111.15 18.23 C121.54 15.26, 131.93 12.3, 140 10" stroke="#868e96" stroke-width="1" fill="none"></path></g><g transform="translate(510 370) rotate(0 70 5)"><path d="M112.61 -2.24 C119.92 1.03, 127.23 4.29, 140 10 M112.61 -2.24 C122.48 2.17, 132.34 6.58, 140 10" stroke="#868e96" stroke-width="1" fill="none"></path></g></g><g transform="translate(560 551.25) rotate(0 60 8.75)"><text x="60" y="NaN" font-family="Cascadia, Segoe UI Emoji" font-size="14px" fill="#2f9e44" text-anchor="middle" style="white-space: pre;" direction="ltr">Patterns</text></g><g stroke-linecap="round" transform="translate(550 530) rotate(0 70 30)"><path d="M0 0 L140 0 L140 60 L0 60" stroke="none" stroke-width="0" fill="#b2f2bb"></path><path d="M0 0 C51.74 0, 103.47 0, 140 0 M0 0 C51.92 0, 103.85 0, 140 0 M140 0 C140 15.96, 140 31.93, 140 60 M140 0 C140 20.72, 140 41.44, 140 60 M140 60 C105.87 60, 71.74 60, 0 60 M140 60 C107.99 60, 75.99 60, 0 60 M0 60 C0 40.58, 0 21.16, 0 0 M0 60 C0 39.9, 0 19.81, 0 0" stroke="#2f9e44" stroke-width="2" fill="none"></path></g><g stroke-linecap="round"><g transform="translate(510 370) rotate(0 20 95)"><path d="M0 0 C6.67 31.67, 33.33 158.33, 40 190 M0 0 C6.67 31.67, 33.33 158.33, 40 190" stroke="#868e96" stroke-width="1" fill="none"></path></g><g transform="translate(510 370) rotate(0 20 95)"><path d="M24.15 164.53 C29.76 173.55, 35.37 182.56, 40 190 M24.15 164.53 C29.73 173.49, 35.3 182.45, 40 190" stroke="#868e96" stroke-width="1" fill="none"></path></g><g transform="translate(510 370) rotate(0 20 95)"><path d="M44.23 160.3 C42.73 170.82, 41.24 181.33, 40 190 M44.23 160.3 C42.74 170.75, 41.25 181.2, 40 190" stroke="#868e96" stroke-width="1" fill="none"></path></g></g><g transform="translate(380 651.25) rotate(0 60 8.75)"><text x="60" y="NaN" font-family="Cascadia, Segoe UI Emoji" font-size="14px" fill="#2f9e44" text-anchor="middle" style="white-space: pre;" direction="ltr">Sessions</text></g><g stroke-linecap="round" transform="translate(370 630) rotate(0 70 30)"><path d="M0 0 L140 0 L140 60 L0 60" stroke="none" stroke-width="0" fill="#b2f2bb"></path><path d="M0 0 C45.58 0, 91.16 0, 140 0 M0 0 C36.78 0, 73.55 0, 140 0 M140 0 C140 20.49, 140 40.99, 140 60 M140 0 C140 12.45, 140 24.89, 140 60 M140 60 C103.15 60, 66.3 60, 0 60 M140 60 C89.03 60, 38.06 60, 0 60 M0 60 C0 41.87, 0 23.74, 0 0 M0 60 C0 43.3, 0 26.6, 0 0" stroke="#2f9e44" stroke-width="2" fill="none"></path></g><g stroke-linecap="round"><g transform="translate(420 410) rotate(0 10 110)"><path d="M0 0 C3.33 36.67, 16.67 183.33, 20 220 M0 0 C3.33 36.67, 16.67 183.33, 20 220" stroke="#868e96" stroke-width="1" fill="none"></path></g><g transform="translate(420 410) rotate(0 10 110)"><path d="M7.23 192.85 C10.25 199.28, 13.28 205.72, 20 220 M7.23 192.85 C11.99 202.97, 16.75 213.08, 20 220" stroke="#868e96" stroke-width="1" fill="none"></path></g><g transform="translate(420 410) rotate(0 10 110)"><path d="M27.67 191 C25.85 197.87, 24.03 204.74, 20 220 M27.67 191 C24.81 201.8, 21.95 212.61, 20 220" stroke="#868e96" stroke-width="1" fill="none"></path></g></g><g transform="translate(180 551.25) rotate(0 60 8.75)"><text x="60" y="NaN" font-family="Cascadia, Segoe UI Emoji" font-size="14px" fill="#2f9e44" text-anchor="middle" style="white-space: pre;" direction="ltr">Projects</text></g><g stroke-linecap="round" transform="translate(170 530) rotate(0 70 30)"><path d="M0 0 L140 0 L140 60 L0 60" stroke="none" stroke-width="0" fill="#b2f2bb"></path><path d="M0 0 C53.11 0, 106.22 0, 140 0 M0 0 C47.07 0, 94.14 0, 140 0 M140 0 C140 21.49, 140 42.98, 140 60 M140 0 C140 13.88, 140 27.76, 140 60 M140 60 C101.42 60, 62.84 60, 0 60 M140 60 C108.45 60, 76.91 60, 0 60 M0 60 C0 42.44, 0 24.88, 0 0 M0 60 C0 39.03, 0 18.06, 0 0" stroke="#2f9e44" stroke-width="2" fill="none"></path></g><g stroke-linecap="round"><g transform="translate(420 410) rotate(0 -90 60)"><path d="M0 0 C-30 20, -150 100, -180 120 M0 0 C-30 20, -150 100, -180 120" stroke="#868e96" stroke-width="1" fill="none"></path></g><g transform="translate(420 410) rotate(0 -90 60)"><path d="M-162.24 95.83 C-169.17 105.26, -176.1 114.69, -180 120 M-162.24 95.83 C-166.52 101.65, -170.8 107.48, -180 120" stroke="#868e96" stroke-width="1" fill="none"></path></g><g transform="translate(420 410) rotate(0 -90 60)"><path d="M-150.85 112.9 C-162.23 115.67, -173.6 118.44, -180 120 M-150.85 112.9 C-157.88 114.61, -164.9 116.32, -180 120" stroke="#868e96" stroke-width="1" fill="none"></path></g></g><g transform="translate(100 371.25) rotate(0 60 8.75)"><text x="60" y="NaN" font-family="Cascadia, Segoe UI Emoji" font-size="14px" fill="#2f9e44" text-anchor="middle" style="white-space: pre;" direction="ltr">References</text></g><g stroke-linecap="round" transform="translate(90 350) rotate(0 70 30)"><path d="M0 0 L140 0 L140 60 L0 60" stroke="none" stroke-width="0" fill="#b2f2bb"></path><path d="M0 0 C55.37 0, 110.74 0, 140 0 M0 0 C47.53 0, 95.06 0, 140 0 M140 0 C140 20.07, 140 40.13, 140 60 M140 0 C140 14.03, 140 28.07, 140 60 M140 60 C91.16 60, 42.32 60, 0 60 M140 60 C108.92 60, 77.84 60, 0 60 M0 60 C0 37.64, 0 15.29, 0 0 M0 60 C0 47.16, 0 34.31, 0 0" stroke="#2f9e44" stroke-width="2" fill="none"></path></g><g stroke-linecap="round"><g transform="translate(330 370) rotate(0 -50 5)"><path d="M0 0 C-16.67 1.67, -83.33 8.33, -100 10 M0 0 C-16.67 1.67, -83.33 8.33, -100 10" stroke="#868e96" stroke-width="1" fill="none"></path></g><g transform="translate(330 370) rotate(0 -50 5)"><path d="M-72.97 -3.01 C-83.37 1.99, -93.77 7, -100 10 M-72.97 -3.01 C-82.51 1.58, -92.06 6.18, -100 10" stroke="#868e96" stroke-width="1" fill="none"></path></g><g transform="translate(330 370) rotate(0 -50 5)"><path d="M-70.93 17.4 C-82.11 14.56, -93.3 11.71, -100 10 M-70.93 17.4 C-81.19 14.79, -91.46 12.18, -100 10" stroke="#868e96" stroke-width="1" fill="none"></path></g></g><g transform="translate(180 171.25) rotate(0 60 8.75)"><text x="60" y="NaN" font-family="Cascadia, Segoe UI Emoji" font-size="14px" fill="#2f9e44" text-anchor="middle" style="white-space: pre;" direction="ltr">Agents</text></g><g stroke-linecap="round" transform="translate(170 150) rotate(0 70 30)"><path d="M0 0 L140 0 L140 60 L0 60" stroke="none" stroke-width="0" fill="#b2f2bb"></path><path d="M0 0 C29.16 0, 58.32 0, 140 0 M0 0 C29.81 0, 59.62 0, 140 0 M140 0 C140 23.14, 140 46.28, 140 60 M140 0 C140 19.31, 140 38.63, 140 60 M140 60 C88.19 60, 36.37 60, 0 60 M140 60 C96.54 60, 53.07 60, 0 60 M0 60 C0 37.91, 0 15.82, 0 0 M0 60 C0 45.81, 0 31.61, 0 0" stroke="#2f9e44" stroke-width="2" fill="none"></path></g><g stroke-linecap="round"><g transform="translate(420 330) rotate(0 -90 -60)"><path d="M0 0 C-30 -20, -150 -100, -180 -120 M0 0 C-30 -20, -150 -100, -180 -120" stroke="#868e96" stroke-width="1" fill="none"></path></g><g transform="translate(420 330) rotate(0 -90 -60)"><path d="M-150.85 -112.9 C-157.82 -114.6, -164.78 -116.29, -180 -120 M-150.85 -112.9 C-158.11 -114.67, -165.38 -116.44, -180 -120" stroke="#868e96" stroke-width="1" fill="none"></path></g><g transform="translate(420 330) rotate(0 -90 -60)"><path d="M-162.24 -95.83 C-166.48 -101.6, -170.73 -107.38, -180 -120 M-162.24 -95.83 C-166.66 -101.85, -171.09 -107.87, -180 -120" stroke="#868e96" stroke-width="1" fill="none"></path></g></g></svg>