<svg version="1.1" xmlns="http://www.w3.org/2000/svg" viewBox="0 0 1100 540" width="1100" height="540">
  <!-- svg-source:excalidraw -->
  
  <defs>
    <style>
      @font-face {
        font-family: "Virgil";
        src: url("https://excalidraw.com/Virgil.woff2");
      }
      @font-face {
        font-family: "Cascadia";
        src: url("https://excalidraw.com/Cascadia.woff2");
      }
    </style>
  </defs>
  <rect x="0" y="0" width="1100" height="540" fill="#ffffff"></rect><g transform="translate(130 10) rotate(0 294 17.5)"><text x="0" y="NaN" font-family="Cascadia, Segoe UI Emoji" font-size="28px" fill="#343a40" text-anchor="start" style="white-space: pre;" direction="ltr">Langfuse LLM Observability Platform</text></g><g transform="translate(20 141.25) rotate(0 80 8.75)"><text x="80" y="NaN" font-family="Cascadia, Segoe UI Emoji" font-size="14px" fill="#7048e8" text-anchor="middle" style="white-space: pre;" direction="ltr">LLM Calls</text></g><g stroke-linecap="round" transform="translate(10 110) rotate(0 90 40)"><path d="M0 0 L180 0 L180 80 L0 80" stroke="none" stroke-width="0" fill="#d0bfff"></path><path d="M0 0 C36.02 0, 72.04 0, 180 0 M0 0 C52.91 0, 105.83 0, 180 0 M180 0 C180 31.68, 180 63.37, 180 80 M180 0 C180 23.13, 180 46.26, 180 80 M180 80 C142.08 80, 104.15 80, 0 80 M180 80 C137.14 80, 94.28 80, 0 80 M0 80 C0 54.17, 0 28.34, 0 0 M0 80 C0 48.21, 0 16.42, 0 0" stroke="#7048e8" stroke-width="2" fill="none"></path></g><g transform="translate(320 132.5) rotate(0 80 17.5)"><text x="80" y="NaN" font-family="Cascadia, Segoe UI Emoji" font-size="14px" fill="#1971c2" text-anchor="middle" style="white-space: pre;" direction="ltr">Langfuse</text><text x="80" y="NaN" font-family="Cascadia, Segoe UI Emoji" font-size="14px" fill="#1971c2" text-anchor="middle" style="white-space: pre;" direction="ltr">SDK</text></g><g stroke-linecap="round" transform="translate(310 110) rotate(0 90 40)"><path d="M0 0 L180 0 L180 80 L0 80" stroke="none" stroke-width="0" fill="#a5d8ff"></path><path d="M0 0 C70.6 0, 141.2 0, 180 0 M0 0 C61.6 0, 123.2 0, 180 0 M180 0 C180 28.27, 180 56.53, 180 80 M180 0 C180 28.92, 180 57.84, 180 80 M180 80 C120.27 80, 60.54 80, 0 80 M180 80 C137.42 80, 94.84 80, 0 80 M0 80 C0 51.35, 0 22.71, 0 0 M0 80 C0 57.79, 0 35.58, 0 0" stroke="#1971c2" stroke-width="2" fill="none"></path></g><g transform="translate(215 140) rotate(0 35 10)"><text x="35" y="NaN" font-family="Cascadia, Segoe UI Emoji" font-size="12px" fill="#868e96" text-anchor="middle" style="white-space: pre;" direction="ltr">instrument</text></g><g stroke-linecap="round"><g transform="translate(190 150) rotate(0 60 0)"><path d="M0 0 C20 0, 100 0, 120 0 M0 0 C20 0, 100 0, 120 0" stroke="#868e96" stroke-width="2" fill="none"></path></g><g transform="translate(190 150) rotate(0 60 0)"><path d="M91.81 10.26 C101.57 6.71, 111.33 3.16, 120 0 M91.81 10.26 C102.17 6.49, 112.54 2.72, 120 0" stroke="#868e96" stroke-width="2" fill="none"></path></g><g transform="translate(190 150) rotate(0 60 0)"><path d="M91.81 -10.26 C101.57 -6.71, 111.33 -3.16, 120 0 M91.81 -10.26 C102.17 -6.49, 112.54 -2.72, 120 0" stroke="#868e96" stroke-width="2" fill="none"></path></g></g><g transform="translate(620 132.5) rotate(0 80 17.5)"><text x="80" y="NaN" font-family="Cascadia, Segoe UI Emoji" font-size="14px" fill="#1971c2" text-anchor="middle" style="white-space: pre;" direction="ltr">Trace</text><text x="80" y="NaN" font-family="Cascadia, Segoe UI Emoji" font-size="14px" fill="#1971c2" text-anchor="middle" style="white-space: pre;" direction="ltr">Collection</text></g><g stroke-linecap="round" transform="translate(610 110) rotate(0 90 40)"><path d="M0 0 L180 0 L180 80 L0 80" stroke="none" stroke-width="0" fill="#a5d8ff"></path><path d="M0 0 C57.44 0, 114.89 0, 180 0 M0 0 C37.68 0, 75.37 0, 180 0 M180 0 C180 30.33, 180 60.66, 180 80 M180 0 C180 16.1, 180 32.19, 180 80 M180 80 C136.55 80, 93.1 80, 0 80 M180 80 C139.3 80, 98.6 80, 0 80 M0 80 C0 56.83, 0 33.67, 0 0 M0 80 C0 52.97, 0 25.94, 0 0" stroke="#1971c2" stroke-width="2" fill="none"></path></g><g transform="translate(520 140) rotate(0 30 10)"><text x="30" y="NaN" font-family="Cascadia, Segoe UI Emoji" font-size="12px" fill="#868e96" text-anchor="middle" style="white-space: pre;" direction="ltr">ingest</text></g><g stroke-linecap="round"><g transform="translate(490 150) rotate(0 60 0)"><path d="M0 0 C20 0, 100 0, 120 0 M0 0 C20 0, 100 0, 120 0" stroke="#868e96" stroke-width="2" fill="none"></path></g><g transform="translate(490 150) rotate(0 60 0)"><path d="M91.81 10.26 C100.97 6.93, 110.14 3.59, 120 0 M91.81 10.26 C102.27 6.45, 112.73 2.65, 120 0" stroke="#868e96" stroke-width="2" fill="none"></path></g><g transform="translate(490 150) rotate(0 60 0)"><path d="M91.81 -10.26 C100.97 -6.93, 110.14 -3.59, 120 0 M91.81 -10.26 C102.27 -6.45, 112.73 -2.65, 120 0" stroke="#868e96" stroke-width="2" fill="none"></path></g></g><g transform="translate(920 141.25) rotate(0 80 8.75)"><text x="80" y="NaN" font-family="Cascadia, Segoe UI Emoji" font-size="14px" fill="#0c8599" text-anchor="middle" style="white-space: pre;" direction="ltr">Dashboard</text></g><g stroke-linecap="round" transform="translate(910 110) rotate(0 90 40)"><path d="M0 0 L180 0 L180 80 L0 80" stroke="none" stroke-width="0" fill="#99e9f2"></path><path d="M0 0 C69 0, 138 0, 180 0 M0 0 C57.89 0, 115.78 0, 180 0 M180 0 C180 28.97, 180 57.94, 180 80 M180 0 C180 30.05, 180 60.1, 180 80 M180 80 C113.64 80, 47.29 80, 0 80 M180 80 C140.62 80, 101.24 80, 0 80 M0 80 C0 51.1, 0 22.21, 0 0 M0 80 C0 54.92, 0 29.83, 0 0" stroke="#0c8599" stroke-width="2" fill="none"></path></g><g transform="translate(818.5 140) rotate(0 31.5 10)"><text x="31.5" y="NaN" font-family="Cascadia, Segoe UI Emoji" font-size="12px" fill="#868e96" text-anchor="middle" style="white-space: pre;" direction="ltr">visualize</text></g><g stroke-linecap="round"><g transform="translate(790 150) rotate(0 60 0)"><path d="M0 0 C20 0, 100 0, 120 0 M0 0 C20 0, 100 0, 120 0" stroke="#868e96" stroke-width="2" fill="none"></path></g><g transform="translate(790 150) rotate(0 60 0)"><path d="M91.81 10.26 C97.7 8.12, 103.58 5.98, 120 0 M91.81 10.26 C102.69 6.3, 113.57 2.34, 120 0" stroke="#868e96" stroke-width="2" fill="none"></path></g><g transform="translate(790 150) rotate(0 60 0)"><path d="M91.81 -10.26 C97.7 -8.12, 103.58 -5.98, 120 0 M91.81 -10.26 C102.69 -6.3, 113.57 -2.34, 120 0" stroke="#868e96" stroke-width="2" fill="none"></path></g></g><g transform="translate(10 270) rotate(0 92.39999999999998 13.75)"><text x="0" y="NaN" font-family="Cascadia, Segoe UI Emoji" font-size="22px" fill="#343a40" text-anchor="start" style="white-space: pre;" direction="ltr">Infrastructure</text></g><g transform="translate(20 330) rotate(0 80 10)"><text x="80" y="NaN" font-family="Cascadia, Segoe UI Emoji" font-size="16px" fill="#0c8599" text-anchor="middle" style="white-space: pre;" direction="ltr">Docker</text></g><g stroke-linecap="round" transform="translate(10 310) rotate(0 90 30)"><path d="M0 0 L180 0 L180 60 L0 60" stroke="none" stroke-width="0" fill="#99e9f2"></path><path d="M0 0 C36.21 0, 72.43 0, 180 0 M0 0 C42.73 0, 85.47 0, 180 0 M180 0 C180 16.19, 180 32.38, 180 60 M180 0 C180 20.6, 180 41.19, 180 60 M180 60 C114.59 60, 49.18 60, 0 60 M180 60 C121 60, 61.99 60, 0 60 M0 60 C0 38.57, 0 17.13, 0 0 M0 60 C0 46.39, 0 32.78, 0 0" stroke="#0c8599" stroke-width="2" fill="none"></path></g><g transform="translate(260 330) rotate(0 80 10)"><text x="80" y="NaN" font-family="Cascadia, Segoe UI Emoji" font-size="16px" fill="#0c8599" text-anchor="middle" style="white-space: pre;" direction="ltr">Redis</text></g><g stroke-linecap="round" transform="translate(250 310) rotate(0 90 30)"><path d="M0 0 L180 0 L180 60 L0 60" stroke="none" stroke-width="0" fill="#99e9f2"></path><path d="M0 0 C56.72 0, 113.44 0, 180 0 M0 0 C60.02 0, 120.04 0, 180 0 M180 0 C180 15.33, 180 30.66, 180 60 M180 0 C180 22.49, 180 44.99, 180 60 M180 60 C108.93 60, 37.86 60, 0 60 M180 60 C114.18 60, 48.36 60, 0 60 M0 60 C0 45.93, 0 31.86, 0 0 M0 60 C0 37.51, 0 15.02, 0 0" stroke="#0c8599" stroke-width="2" fill="none"></path></g><g transform="translate(500 330) rotate(0 80 10)"><text x="80" y="NaN" font-family="Cascadia, Segoe UI Emoji" font-size="16px" fill="#0c8599" text-anchor="middle" style="white-space: pre;" direction="ltr">PostgreSQL</text></g><g stroke-linecap="round" transform="translate(490 310) rotate(0 90 30)"><path d="M0 0 L180 0 L180 60 L0 60" stroke="none" stroke-width="0" fill="#99e9f2"></path><path d="M0 0 C67.24 0, 134.48 0, 180 0 M0 0 C46.83 0, 93.67 0, 180 0 M180 0 C180 13.24, 180 26.49, 180 60 M180 0 C180 22.33, 180 44.67, 180 60 M180 60 C134.08 60, 88.16 60, 0 60 M180 60 C130.44 60, 80.88 60, 0 60 M0 60 C0 37.52, 0 15.03, 0 0 M0 60 C0 41.54, 0 23.09, 0 0" stroke="#0c8599" stroke-width="2" fill="none"></path></g><g transform="translate(10 430) rotate(0 52.8 13.75)"><text x="0" y="NaN" font-family="Cascadia, Segoe UI Emoji" font-size="22px" fill="#343a40" text-anchor="start" style="white-space: pre;" direction="ltr">Features</text></g><g transform="translate(20 490) rotate(0 70 10)"><text x="70" y="NaN" font-family="Cascadia, Segoe UI Emoji" font-size="16px" fill="#1971c2" text-anchor="middle" style="white-space: pre;" direction="ltr">Traces</text></g><g stroke-linecap="round" transform="translate(10 470) rotate(0 80 30)"><path d="M0 0 L160 0 L160 60 L0 60" stroke="none" stroke-width="0" fill="#a5d8ff"></path><path d="M0 0 C34.18 0, 68.36 0, 160 0 M0 0 C34.64 0, 69.28 0, 160 0 M160 0 C160 12.55, 160 25.09, 160 60 M160 0 C160 18.28, 160 36.57, 160 60 M160 60 C111.02 60, 62.05 60, 0 60 M160 60 C121.57 60, 83.13 60, 0 60 M0 60 C0 45.18, 0 30.36, 0 0 M0 60 C0 44.84, 0 29.69, 0 0" stroke="#1971c2" stroke-width="2" fill="none"></path></g><g transform="translate(240 490) rotate(0 70 10)"><text x="70" y="NaN" font-family="Cascadia, Segoe UI Emoji" font-size="16px" fill="#1971c2" text-anchor="middle" style="white-space: pre;" direction="ltr">Scores</text></g><g stroke-linecap="round" transform="translate(230 470) rotate(0 80 30)"><path d="M0 0 L160 0 L160 60 L0 60" stroke="none" stroke-width="0" fill="#a5d8ff"></path><path d="M0 0 C53.47 0, 106.95 0, 160 0 M0 0 C63.77 0, 127.54 0, 160 0 M160 0 C160 19.29, 160 38.58, 160 60 M160 0 C160 18.85, 160 37.7, 160 60 M160 60 C119.03 60, 78.07 60, 0 60 M160 60 C100.03 60, 40.05 60, 0 60 M0 60 C0 36.48, 0 12.96, 0 0 M0 60 C0 46.5, 0 33, 0 0" stroke="#1971c2" stroke-width="2" fill="none"></path></g><g transform="translate(460 490) rotate(0 70 10)"><text x="70" y="NaN" font-family="Cascadia, Segoe UI Emoji" font-size="16px" fill="#1971c2" text-anchor="middle" style="white-space: pre;" direction="ltr">Datasets</text></g><g stroke-linecap="round" transform="translate(450 470) rotate(0 80 30)"><path d="M0 0 L160 0 L160 60 L0 60" stroke="none" stroke-width="0" fill="#a5d8ff"></path><path d="M0 0 C47.04 0, 94.09 0, 160 0 M0 0 C53.46 0, 106.91 0, 160 0 M160 0 C160 19.68, 160 39.36, 160 60 M160 0 C160 17.18, 160 34.36, 160 60 M160 60 C125.09 60, 90.19 60, 0 60 M160 60 C121 60, 82 60, 0 60 M0 60 C0 39.29, 0 18.57, 0 0 M0 60 C0 42.76, 0 25.52, 0 0" stroke="#1971c2" stroke-width="2" fill="none"></path></g><g transform="translate(680 480) rotate(0 70 20)"><text x="70" y="NaN" font-family="Cascadia, Segoe UI Emoji" font-size="16px" fill="#1971c2" text-anchor="middle" style="white-space: pre;" direction="ltr">Prompt</text><text x="70" y="NaN" font-family="Cascadia, Segoe UI Emoji" font-size="16px" fill="#1971c2" text-anchor="middle" style="white-space: pre;" direction="ltr">Management</text></g><g stroke-linecap="round" transform="translate(670 470) rotate(0 80 30)"><path d="M0 0 L160 0 L160 60 L0 60" stroke="none" stroke-width="0" fill="#a5d8ff"></path><path d="M0 0 C59.2 0, 118.4 0, 160 0 M0 0 C49.91 0, 99.82 0, 160 0 M160 0 C160 14.05, 160 28.1, 160 60 M160 0 C160 16.5, 160 32.99, 160 60 M160 60 C121.06 60, 82.12 60, 0 60 M160 60 C110.75 60, 61.5 60, 0 60 M0 60 C0 36.83, 0 13.67, 0 0 M0 60 C0 39.19, 0 18.38, 0 0" stroke="#1971c2" stroke-width="2" fill="none"></path></g><g stroke-linecap="round"><g transform="translate(910 150) rotate(0 -370 175)"><path d="M0 0 C-123.33 58.33, -616.67 291.67, -740 350 M0 0 C-123.33 58.33, -616.67 291.67, -740 350" stroke="#868e96" stroke-width="1" fill="none"></path></g><g transform="translate(910 150) rotate(0 -370 175)"><path d="M-718.9 328.67 C-726.36 336.21, -733.82 343.75, -740 350 M-718.9 328.67 C-726.69 336.54, -734.47 344.41, -740 350" stroke="#868e96" stroke-width="1" fill="none"></path></g><g transform="translate(910 150) rotate(0 -370 175)"><path d="M-710.13 347.22 C-720.69 348.2, -731.25 349.19, -740 350 M-710.13 347.22 C-721.15 348.25, -732.17 349.27, -740 350" stroke="#868e96" stroke-width="1" fill="none"></path></g></g><g stroke-linecap="round"><g transform="translate(910 150) rotate(0 -260 175)"><path d="M0 0 C-86.67 58.33, -433.33 291.67, -520 350 M0 0 C-86.67 58.33, -433.33 291.67, -520 350" stroke="#868e96" stroke-width="1" fill="none"></path></g><g transform="translate(910 150) rotate(0 -260 175)"><path d="M-502.34 325.75 C-507.18 332.4, -512.03 339.05, -520 350 M-502.34 325.75 C-507.74 333.15, -513.13 340.56, -520 350" stroke="#868e96" stroke-width="1" fill="none"></path></g><g transform="translate(910 150) rotate(0 -260 175)"><path d="M-490.88 342.77 C-498.87 344.75, -506.85 346.74, -520 350 M-490.88 342.77 C-499.78 344.98, -508.67 347.19, -520 350" stroke="#868e96" stroke-width="1" fill="none"></path></g></g><g stroke-linecap="round"><g transform="translate(910 150) rotate(0 -150 175)"><path d="M0 0 C-50 58.33, -250 291.67, -300 350 M0 0 C-50 58.33, -250 291.67, -300 350" stroke="#868e96" stroke-width="1" fill="none"></path></g><g transform="translate(910 150) rotate(0 -150 175)"><path d="M-289.44 321.92 C-291.69 327.9, -293.94 333.87, -300 350 M-289.44 321.92 C-291.7 327.92, -293.96 333.92, -300 350" stroke="#868e96" stroke-width="1" fill="none"></path></g><g transform="translate(910 150) rotate(0 -150 175)"><path d="M-273.86 335.27 C-279.43 338.41, -284.99 341.54, -300 350 M-273.86 335.27 C-279.45 338.42, -285.04 341.57, -300 350" stroke="#868e96" stroke-width="1" fill="none"></path></g></g><g stroke-linecap="round"><g transform="translate(1000 190) rotate(0 -125 140)"><path d="M0 0 C-41.67 46.67, -208.33 233.33, -250 280 M0 0 C-41.67 46.67, -208.33 233.33, -250 280" stroke="#868e96" stroke-width="1" fill="none"></path></g><g transform="translate(1000 190) rotate(0 -125 140)"><path d="M-238.88 252.14 C-242.48 261.16, -246.08 270.18, -250 280 M-238.88 252.14 C-241.53 258.78, -244.18 265.42, -250 280" stroke="#868e96" stroke-width="1" fill="none"></path></g><g transform="translate(1000 190) rotate(0 -125 140)"><path d="M-223.57 265.81 C-232.13 270.4, -240.68 275, -250 280 M-223.57 265.81 C-229.87 269.19, -236.17 272.57, -250 280" stroke="#868e96" stroke-width="1" fill="none"></path></g></g></svg>