<svg version="1.1" xmlns="http://www.w3.org/2000/svg" viewBox="0 0 820 600" width="820" height="600">
  <!-- svg-source:excalidraw -->
  
  <defs>
    <style>
      @font-face {
        font-family: "Virgil";
        src: url("https://excalidraw.com/Virgil.woff2");
      }
      @font-face {
        font-family: "Cascadia";
        src: url("https://excalidraw.com/Cascadia.woff2");
      }
    </style>
  </defs>
  <rect x="0" y="0" width="820" height="600" fill="#ffffff"></rect><g transform="translate(30 10) rotate(0 151.2 15)"><text x="0" y="NaN" font-family="Cascadia, Segoe UI Emoji" font-size="24px" fill="#343a40" text-anchor="start" style="white-space: pre;" direction="ltr">Microservice Topology</text></g><g transform="translate(400 338.75) rotate(0 80 11.25)"><text x="80" y="NaN" font-family="Cascadia, Segoe UI Emoji" font-size="18px" fill="#1971c2" text-anchor="middle" style="white-space: pre;" direction="ltr">API Gateway</text></g><g stroke-linecap="round" transform="translate(390 310) rotate(0 90 40)"><path d="M0 0 L180 0 L180 80 L0 80" stroke="none" stroke-width="0" fill="#a5d8ff"></path><path d="M0 0 C58.01 0, 116.01 0, 180 0 M0 0 C70.19 0, 140.37 0, 180 0 M180 0 C180 25.5, 180 51, 180 80 M180 0 C180 27.4, 180 54.8, 180 80 M180 80 C130.89 80, 81.78 80, 0 80 M180 80 C113.89 80, 47.79 80, 0 80 M0 80 C0 60.74, 0 41.48, 0 0 M0 80 C0 52.37, 0 24.74, 0 0" stroke="#1971c2" stroke-width="2" fill="none"></path></g><g transform="translate(440 71.25) rotate(0 60 8.75)"><text x="60" y="NaN" font-family="Cascadia, Segoe UI Emoji" font-size="14px" fill="#2f9e44" text-anchor="middle" style="white-space: pre;" direction="ltr">User Service</text></g><g stroke-linecap="round" transform="translate(430 50) rotate(0 70 30)"><path d="M0 0 L140 0 L140 60 L0 60" stroke="none" stroke-width="0" fill="#b2f2bb"></path><path d="M0 0 C53.06 0, 106.11 0, 140 0 M0 0 C51.4 0, 102.8 0, 140 0 M140 0 C140 20.54, 140 41.09, 140 60 M140 0 C140 13.74, 140 27.49, 140 60 M140 60 C84.85 60, 29.69 60, 0 60 M140 60 C103.87 60, 67.74 60, 0 60 M0 60 C0 39.46, 0 18.91, 0 0 M0 60 C0 38.1, 0 16.19, 0 0" stroke="#2f9e44" stroke-width="2" fill="none"></path></g><g stroke-linecap="round"><g transform="translate(480 310) rotate(0 10 -100)"><path d="M0 0 C3.33 -33.33, 16.67 -166.67, 20 -200 M0 0 C3.33 -33.33, 16.67 -166.67, 20 -200" stroke="#868e96" stroke-width="1" fill="none"></path></g><g transform="translate(480 310) rotate(0 10 -100)"><path d="M27.4 -170.93 C25.46 -178.55, 23.52 -186.16, 20 -200 M27.4 -170.93 C24.65 -181.76, 21.89 -192.6, 20 -200" stroke="#868e96" stroke-width="1" fill="none"></path></g><g transform="translate(480 310) rotate(0 10 -100)"><path d="M6.99 -172.97 C10.4 -180.05, 13.81 -187.14, 20 -200 M6.99 -172.97 C11.84 -183.04, 16.69 -193.12, 20 -200" stroke="#868e96" stroke-width="1" fill="none"></path></g></g><g transform="translate(680 251.25) rotate(0 60 8.75)"><text x="60" y="NaN" font-family="Cascadia, Segoe UI Emoji" font-size="14px" fill="#2f9e44" text-anchor="middle" style="white-space: pre;" direction="ltr">Order Service</text></g><g stroke-linecap="round" transform="translate(670 230) rotate(0 70 30)"><path d="M0 0 L140 0 L140 60 L0 60" stroke="none" stroke-width="0" fill="#b2f2bb"></path><path d="M0 0 C28.49 0, 56.98 0, 140 0 M0 0 C44.61 0, 89.22 0, 140 0 M140 0 C140 22.72, 140 45.44, 140 60 M140 0 C140 13.35, 140 26.7, 140 60 M140 60 C93.22 60, 46.44 60, 0 60 M140 60 C101.02 60, 62.04 60, 0 60 M0 60 C0 47.53, 0 35.05, 0 0 M0 60 C0 38.74, 0 17.48, 0 0" stroke="#2f9e44" stroke-width="2" fill="none"></path></g><g stroke-linecap="round"><g transform="translate(570 350) rotate(0 50 -45)"><path d="M0 0 C16.67 -15, 83.33 -75, 100 -90 M0 0 C16.67 -15, 83.33 -75, 100 -90" stroke="#868e96" stroke-width="1" fill="none"></path></g><g transform="translate(570 350) rotate(0 50 -45)"><path d="M85.91 -63.51 C91.37 -73.77, 96.83 -84.04, 100 -90 M85.91 -63.51 C89.29 -69.86, 92.66 -76.21, 100 -90" stroke="#868e96" stroke-width="1" fill="none"></path></g><g transform="translate(570 350) rotate(0 50 -45)"><path d="M72.18 -78.77 C82.96 -83.12, 93.74 -87.47, 100 -90 M72.18 -78.77 C78.85 -81.46, 85.52 -84.15, 100 -90" stroke="#868e96" stroke-width="1" fill="none"></path></g></g><g transform="translate(580 551.25) rotate(0 60 8.75)"><text x="60" y="NaN" font-family="Cascadia, Segoe UI Emoji" font-size="14px" fill="#2f9e44" text-anchor="middle" style="white-space: pre;" direction="ltr">Payment</text></g><g stroke-linecap="round" transform="translate(570 530) rotate(0 70 30)"><path d="M0 0 L140 0 L140 60 L0 60" stroke="none" stroke-width="0" fill="#b2f2bb"></path><path d="M0 0 C50.97 0, 101.94 0, 140 0 M0 0 C32.78 0, 65.57 0, 140 0 M140 0 C140 15.51, 140 31.01, 140 60 M140 0 C140 17.34, 140 34.68, 140 60 M140 60 C107.29 60, 74.59 60, 0 60 M140 60 C97.65 60, 55.29 60, 0 60 M0 60 C0 40.72, 0 21.45, 0 0 M0 60 C0 46.37, 0 32.74, 0 0" stroke="#2f9e44" stroke-width="2" fill="none"></path></g><g stroke-linecap="round"><g transform="translate(480 390) rotate(0 80 70)"><path d="M0 0 C26.67 23.33, 133.33 116.67, 160 140 M0 0 C26.67 23.33, 133.33 116.67, 160 140" stroke="#868e96" stroke-width="1" fill="none"></path></g><g transform="translate(480 390) rotate(0 80 70)"><path d="M132.03 129.16 C139.6 132.09, 147.16 135.03, 160 140 M132.03 129.16 C138.67 131.73, 145.32 134.31, 160 140" stroke="#868e96" stroke-width="1" fill="none"></path></g><g transform="translate(480 390) rotate(0 80 70)"><path d="M145.54 113.71 C149.45 120.83, 153.37 127.94, 160 140 M145.54 113.71 C148.98 119.96, 152.41 126.2, 160 140" stroke="#868e96" stroke-width="1" fill="none"></path></g></g><g transform="translate(280 551.25) rotate(0 60 8.75)"><text x="60" y="NaN" font-family="Cascadia, Segoe UI Emoji" font-size="14px" fill="#2f9e44" text-anchor="middle" style="white-space: pre;" direction="ltr">Notifications</text></g><g stroke-linecap="round" transform="translate(270 530) rotate(0 70 30)"><path d="M0 0 L140 0 L140 60 L0 60" stroke="none" stroke-width="0" fill="#b2f2bb"></path><path d="M0 0 C39.79 0, 79.59 0, 140 0 M0 0 C35.49 0, 70.99 0, 140 0 M140 0 C140 15.15, 140 30.3, 140 60 M140 0 C140 14.26, 140 28.52, 140 60 M140 60 C93.6 60, 47.21 60, 0 60 M140 60 C91.11 60, 42.23 60, 0 60 M0 60 C0 43.39, 0 26.77, 0 0 M0 60 C0 40.47, 0 20.94, 0 0" stroke="#2f9e44" stroke-width="2" fill="none"></path></g><g stroke-linecap="round"><g transform="translate(480 390) rotate(0 -70 70)"><path d="M0 0 C-23.33 23.33, -116.67 116.67, -140 140 M0 0 C-23.33 23.33, -116.67 116.67, -140 140" stroke="#868e96" stroke-width="1" fill="none"></path></g><g transform="translate(480 390) rotate(0 -70 70)"><path d="M-127.32 112.81 C-131.28 121.3, -135.24 129.78, -140 140 M-127.32 112.81 C-130.41 119.43, -133.49 126.04, -140 140" stroke="#868e96" stroke-width="1" fill="none"></path></g><g transform="translate(480 390) rotate(0 -70 70)"><path d="M-112.81 127.32 C-121.3 131.28, -129.78 135.24, -140 140 M-112.81 127.32 C-119.43 130.41, -126.04 133.49, -140 140" stroke="#868e96" stroke-width="1" fill="none"></path></g></g><g transform="translate(180 251.25) rotate(0 60 8.75)"><text x="60" y="NaN" font-family="Cascadia, Segoe UI Emoji" font-size="14px" fill="#2f9e44" text-anchor="middle" style="white-space: pre;" direction="ltr">Inventory</text></g><g stroke-linecap="round" transform="translate(170 230) rotate(0 70 30)"><path d="M0 0 L140 0 L140 60 L0 60" stroke="none" stroke-width="0" fill="#b2f2bb"></path><path d="M0 0 C46.62 0, 93.23 0, 140 0 M0 0 C31.63 0, 63.27 0, 140 0 M140 0 C140 13.7, 140 27.39, 140 60 M140 0 C140 13.49, 140 26.98, 140 60 M140 60 C85.57 60, 31.14 60, 0 60 M140 60 C84.04 60, 28.07 60, 0 60 M0 60 C0 38.39, 0 16.77, 0 0 M0 60 C0 42.08, 0 24.17, 0 0" stroke="#2f9e44" stroke-width="2" fill="none"></path></g><g stroke-linecap="round"><g transform="translate(390 350) rotate(0 -40 -45)"><path d="M0 0 C-13.33 -15, -66.67 -75, -80 -90 M0 0 C-13.33 -15, -66.67 -75, -80 -90" stroke="#868e96" stroke-width="1" fill="none"></path></g><g transform="translate(390 350) rotate(0 -40 -45)"><path d="M-53.6 -75.75 C-59.38 -78.87, -65.16 -81.99, -80 -90 M-53.6 -75.75 C-59.59 -78.98, -65.58 -82.21, -80 -90" stroke="#868e96" stroke-width="1" fill="none"></path></g><g transform="translate(390 350) rotate(0 -40 -45)"><path d="M-68.94 -62.11 C-71.36 -68.22, -73.78 -74.33, -80 -90 M-68.94 -62.11 C-71.45 -68.44, -73.96 -74.77, -80 -90" stroke="#868e96" stroke-width="1" fill="none"></path></g></g><g transform="translate(20 330) rotate(0 50 10)"><text x="50" y="NaN" font-family="Cascadia, Segoe UI Emoji" font-size="16px" fill="#7048e8" text-anchor="middle" style="white-space: pre;" direction="ltr">Client Apps</text></g><g stroke-linecap="round" transform="translate(10 310) rotate(0 60 30)"><path d="M0 0 L120 0 L120 60 L0 60" stroke="none" stroke-width="0" fill="#d0bfff"></path><path d="M0 0 C39.28 0, 78.56 0, 120 0 M0 0 C31.2 0, 62.4 0, 120 0 M120 0 C120 18.71, 120 37.42, 120 60 M120 0 C120 13.74, 120 27.48, 120 60 M120 60 C72.46 60, 24.92 60, 0 60 M120 60 C72.39 60, 24.78 60, 0 60 M0 60 C0 45.06, 0 30.12, 0 0 M0 60 C0 37.62, 0 15.24, 0 0" stroke="#7048e8" stroke-width="2" fill="none"></path></g><g transform="translate(230 335) rotate(0 30 10)"><text x="30" y="NaN" font-family="Cascadia, Segoe UI Emoji" font-size="12px" fill="#868e96" text-anchor="middle" style="white-space: pre;" direction="ltr">HTTPS</text></g><g stroke-linecap="round"><g transform="translate(130 340) rotate(0 130 5)"><path d="M0 0 C43.33 1.67, 216.67 8.33, 260 10 M0 0 C43.33 1.67, 216.67 8.33, 260 10" stroke="#868e96" stroke-width="2" fill="none"></path></g><g transform="translate(130 340) rotate(0 130 5)"><path d="M231.44 19.17 C241.01 16.09, 250.59 13.02, 260 10 M231.44 19.17 C239.67 16.52, 247.91 13.88, 260 10" stroke="#868e96" stroke-width="2" fill="none"></path></g><g transform="translate(130 340) rotate(0 130 5)"><path d="M232.22 -1.34 C241.54 2.47, 250.85 6.27, 260 10 M232.22 -1.34 C240.24 1.93, 248.25 5.2, 260 10" stroke="#868e96" stroke-width="2" fill="none"></path></g></g></svg>