<svg version="1.1" xmlns="http://www.w3.org/2000/svg" viewBox="0 0 700 430" width="700" height="430">
  <!-- svg-source:excalidraw -->
  
  <defs>
    <style>
      @font-face {
        font-family: "Virgil";
        src: url("https://excalidraw.com/Virgil.woff2");
      }
      @font-face {
        font-family: "Cascadia";
        src: url("https://excalidraw.com/Cascadia.woff2");
      }
    </style>
  </defs>
  <rect x="0" y="0" width="700" height="430" fill="#ffffff"></rect><g transform="translate(10 10) rotate(0 176.4 17.5)"><text x="0" y="NaN" font-family="Cascadia, Segoe UI Emoji" font-size="28px" fill="#343a40" text-anchor="start" style="white-space: pre;" direction="ltr">Obsidian CLI Commands</text></g><g transform="translate(20 108.75) rotate(0 90 16.25)"><text x="90" y="NaN" font-family="Cascadia, Segoe UI Emoji" font-size="13px" fill="#1971c2" text-anchor="middle" style="white-space: pre;" direction="ltr">/daily</text><text x="90" y="NaN" font-family="Cascadia, Segoe UI Emoji" font-size="13px" fill="#1971c2" text-anchor="middle" style="white-space: pre;" direction="ltr">Daily note</text></g><g stroke-linecap="round" transform="translate(10 90) rotate(0 100 35)"><path d="M0 0 L200 0 L200 70 L0 70" stroke="none" stroke-width="0" fill="#a5d8ff"></path><path d="M0 0 C49.43 0, 98.87 0, 200 0 M0 0 C67.38 0, 134.75 0, 200 0 M200 0 C200 20.98, 200 41.97, 200 70 M200 0 C200 25.38, 200 50.76, 200 70 M200 70 C122.76 70, 45.53 70, 0 70 M200 70 C121.2 70, 42.4 70, 0 70 M0 70 C0 46.78, 0 23.55, 0 0 M0 70 C0 47.45, 0 24.9, 0 0" stroke="#1971c2" stroke-width="2" fill="none"></path></g><g transform="translate(260 108.75) rotate(0 90 16.25)"><text x="90" y="NaN" font-family="Cascadia, Segoe UI Emoji" font-size="13px" fill="#1971c2" text-anchor="middle" style="white-space: pre;" direction="ltr">/review</text><text x="90" y="NaN" font-family="Cascadia, Segoe UI Emoji" font-size="13px" fill="#1971c2" text-anchor="middle" style="white-space: pre;" direction="ltr">Review session</text></g><g stroke-linecap="round" transform="translate(250 90) rotate(0 100 35)"><path d="M0 0 L200 0 L200 70 L0 70" stroke="none" stroke-width="0" fill="#a5d8ff"></path><path d="M0 0 C57.54 0, 115.08 0, 200 0 M0 0 C52.03 0, 104.06 0, 200 0 M200 0 C200 18.71, 200 37.43, 200 70 M200 0 C200 22.71, 200 45.42, 200 70 M200 70 C156.63 70, 113.25 70, 0 70 M200 70 C135.17 70, 70.34 70, 0 70 M0 70 C0 49.89, 0 29.78, 0 0 M0 70 C0 49.86, 0 29.72, 0 0" stroke="#1971c2" stroke-width="2" fill="none"></path></g><g transform="translate(500 108.75) rotate(0 90 16.25)"><text x="90" y="NaN" font-family="Cascadia, Segoe UI Emoji" font-size="13px" fill="#1971c2" text-anchor="middle" style="white-space: pre;" direction="ltr">/organize</text><text x="90" y="NaN" font-family="Cascadia, Segoe UI Emoji" font-size="13px" fill="#1971c2" text-anchor="middle" style="white-space: pre;" direction="ltr">Organize vault</text></g><g stroke-linecap="round" transform="translate(490 90) rotate(0 100 35)"><path d="M0 0 L200 0 L200 70 L0 70" stroke="none" stroke-width="0" fill="#a5d8ff"></path><path d="M0 0 C52.47 0, 104.95 0, 200 0 M0 0 C60.2 0, 120.39 0, 200 0 M200 0 C200 23.1, 200 46.21, 200 70 M200 0 C200 23.5, 200 47.01, 200 70 M200 70 C144.86 70, 89.71 70, 0 70 M200 70 C154.76 70, 109.52 70, 0 70 M0 70 C0 53.57, 0 37.14, 0 0 M0 70 C0 48.75, 0 27.49, 0 0" stroke="#1971c2" stroke-width="2" fill="none"></path></g><g transform="translate(20 208.75) rotate(0 90 16.25)"><text x="90" y="NaN" font-family="Cascadia, Segoe UI Emoji" font-size="13px" fill="#1971c2" text-anchor="middle" style="white-space: pre;" direction="ltr">/link</text><text x="90" y="NaN" font-family="Cascadia, Segoe UI Emoji" font-size="13px" fill="#1971c2" text-anchor="middle" style="white-space: pre;" direction="ltr">Link notes</text></g><g stroke-linecap="round" transform="translate(10 190) rotate(0 100 35)"><path d="M0 0 L200 0 L200 70 L0 70" stroke="none" stroke-width="0" fill="#a5d8ff"></path><path d="M0 0 C63.2 0, 126.4 0, 200 0 M0 0 C40.22 0, 80.45 0, 200 0 M200 0 C200 14.97, 200 29.94, 200 70 M200 0 C200 24.8, 200 49.61, 200 70 M200 70 C153.46 70, 106.92 70, 0 70 M200 70 C155.75 70, 111.5 70, 0 70 M0 70 C0 55.84, 0 41.69, 0 0 M0 70 C0 43.59, 0 17.19, 0 0" stroke="#1971c2" stroke-width="2" fill="none"></path></g><g transform="translate(260 208.75) rotate(0 90 16.25)"><text x="90" y="NaN" font-family="Cascadia, Segoe UI Emoji" font-size="13px" fill="#1971c2" text-anchor="middle" style="white-space: pre;" direction="ltr">/research</text><text x="90" y="NaN" font-family="Cascadia, Segoe UI Emoji" font-size="13px" fill="#1971c2" text-anchor="middle" style="white-space: pre;" direction="ltr">Research topic</text></g><g stroke-linecap="round" transform="translate(250 190) rotate(0 100 35)"><path d="M0 0 L200 0 L200 70 L0 70" stroke="none" stroke-width="0" fill="#a5d8ff"></path><path d="M0 0 C46.48 0, 92.96 0, 200 0 M0 0 C75.08 0, 150.17 0, 200 0 M200 0 C200 14.82, 200 29.64, 200 70 M200 0 C200 23.5, 200 46.99, 200 70 M200 70 C120.64 70, 41.27 70, 0 70 M200 70 C138.42 70, 76.83 70, 0 70 M0 70 C0 48.56, 0 27.12, 0 0 M0 70 C0 50.96, 0 31.93, 0 0" stroke="#1971c2" stroke-width="2" fill="none"></path></g><g transform="translate(500 208.75) rotate(0 90 16.25)"><text x="90" y="NaN" font-family="Cascadia, Segoe UI Emoji" font-size="13px" fill="#1971c2" text-anchor="middle" style="white-space: pre;" direction="ltr">/inbox</text><text x="90" y="NaN" font-family="Cascadia, Segoe UI Emoji" font-size="13px" fill="#1971c2" text-anchor="middle" style="white-space: pre;" direction="ltr">Process inbox</text></g><g stroke-linecap="round" transform="translate(490 190) rotate(0 100 35)"><path d="M0 0 L200 0 L200 70 L0 70" stroke="none" stroke-width="0" fill="#a5d8ff"></path><path d="M0 0 C72.48 0, 144.95 0, 200 0 M0 0 C52.3 0, 104.59 0, 200 0 M200 0 C200 17.49, 200 34.98, 200 70 M200 0 C200 26.13, 200 52.27, 200 70 M200 70 C140.54 70, 81.07 70, 0 70 M200 70 C123.35 70, 46.71 70, 0 70 M0 70 C0 45.73, 0 21.45, 0 0 M0 70 C0 49.88, 0 29.76, 0 0" stroke="#1971c2" stroke-width="2" fill="none"></path></g><g transform="translate(20 288.75) rotate(0 90 16.25)"><text x="90" y="NaN" font-family="Cascadia, Segoe UI Emoji" font-size="13px" fill="#1971c2" text-anchor="middle" style="white-space: pre;" direction="ltr">/commit</text><text x="90" y="NaN" font-family="Cascadia, Segoe UI Emoji" font-size="13px" fill="#1971c2" text-anchor="middle" style="white-space: pre;" direction="ltr">Git commit</text></g><g stroke-linecap="round" transform="translate(10 270) rotate(0 100 35)"><path d="M0 0 L200 0 L200 70 L0 70" stroke="none" stroke-width="0" fill="#a5d8ff"></path><path d="M0 0 C47.23 0, 94.46 0, 200 0 M0 0 C44.58 0, 89.17 0, 200 0 M200 0 C200 15.49, 200 30.97, 200 70 M200 0 C200 19.86, 200 39.73, 200 70 M200 70 C151.69 70, 103.39 70, 0 70 M200 70 C132.02 70, 64.05 70, 0 70 M0 70 C0 46.49, 0 22.97, 0 0 M0 70 C0 53.67, 0 37.35, 0 0" stroke="#1971c2" stroke-width="2" fill="none"></path></g><g transform="translate(260 288.75) rotate(0 90 16.25)"><text x="90" y="NaN" font-family="Cascadia, Segoe UI Emoji" font-size="13px" fill="#1971c2" text-anchor="middle" style="white-space: pre;" direction="ltr">/status</text><text x="90" y="NaN" font-family="Cascadia, Segoe UI Emoji" font-size="13px" fill="#1971c2" text-anchor="middle" style="white-space: pre;" direction="ltr">System status</text></g><g stroke-linecap="round" transform="translate(250 270) rotate(0 100 35)"><path d="M0 0 L200 0 L200 70 L0 70" stroke="none" stroke-width="0" fill="#a5d8ff"></path><path d="M0 0 C72.41 0, 144.83 0, 200 0 M0 0 C59.09 0, 118.19 0, 200 0 M200 0 C200 26.64, 200 53.28, 200 70 M200 0 C200 24.06, 200 48.12, 200 70 M200 70 C127.02 70, 54.03 70, 0 70 M200 70 C146.32 70, 92.63 70, 0 70 M0 70 C0 44.97, 0 19.94, 0 0 M0 70 C0 49.96, 0 29.93, 0 0" stroke="#1971c2" stroke-width="2" fill="none"></path></g><g transform="translate(500 288.75) rotate(0 90 16.25)"><text x="90" y="NaN" font-family="Cascadia, Segoe UI Emoji" font-size="13px" fill="#1971c2" text-anchor="middle" style="white-space: pre;" direction="ltr">/test</text><text x="90" y="NaN" font-family="Cascadia, Segoe UI Emoji" font-size="13px" fill="#1971c2" text-anchor="middle" style="white-space: pre;" direction="ltr">Run tests</text></g><g stroke-linecap="round" transform="translate(490 270) rotate(0 100 35)"><path d="M0 0 L200 0 L200 70 L0 70" stroke="none" stroke-width="0" fill="#a5d8ff"></path><path d="M0 0 C79.6 0, 159.2 0, 200 0 M0 0 C56.98 0, 113.97 0, 200 0 M200 0 C200 16.36, 200 32.73, 200 70 M200 0 C200 26.62, 200 53.25, 200 70 M200 70 C131.75 70, 63.51 70, 0 70 M200 70 C137.84 70, 75.67 70, 0 70 M0 70 C0 54.76, 0 39.52, 0 0 M0 70 C0 53.03, 0 36.07, 0 0" stroke="#1971c2" stroke-width="2" fill="none"></path></g><g transform="translate(20 368.75) rotate(0 90 16.25)"><text x="90" y="NaN" font-family="Cascadia, Segoe UI Emoji" font-size="13px" fill="#1971c2" text-anchor="middle" style="white-space: pre;" direction="ltr">/cleanup</text><text x="90" y="NaN" font-family="Cascadia, Segoe UI Emoji" font-size="13px" fill="#1971c2" text-anchor="middle" style="white-space: pre;" direction="ltr">Clean files</text></g><g stroke-linecap="round" transform="translate(10 350) rotate(0 100 35)"><path d="M0 0 L200 0 L200 70 L0 70" stroke="none" stroke-width="0" fill="#a5d8ff"></path><path d="M0 0 C61.75 0, 123.49 0, 200 0 M0 0 C41.65 0, 83.29 0, 200 0 M200 0 C200 26.97, 200 53.94, 200 70 M200 0 C200 18.72, 200 37.44, 200 70 M200 70 C130.16 70, 60.32 70, 0 70 M200 70 C129.1 70, 58.2 70, 0 70 M0 70 C0 46.27, 0 22.53, 0 0 M0 70 C0 49.56, 0 29.13, 0 0" stroke="#1971c2" stroke-width="2" fill="none"></path></g><g transform="translate(260 368.75) rotate(0 90 16.25)"><text x="90" y="NaN" font-family="Cascadia, Segoe UI Emoji" font-size="13px" fill="#1971c2" text-anchor="middle" style="white-space: pre;" direction="ltr">/memory</text><text x="90" y="NaN" font-family="Cascadia, Segoe UI Emoji" font-size="13px" fill="#1971c2" text-anchor="middle" style="white-space: pre;" direction="ltr">Memory ops</text></g><g stroke-linecap="round" transform="translate(250 350) rotate(0 100 35)"><path d="M0 0 L200 0 L200 70 L0 70" stroke="none" stroke-width="0" fill="#a5d8ff"></path><path d="M0 0 C40.51 0, 81.02 0, 200 0 M0 0 C62.26 0, 124.52 0, 200 0 M200 0 C200 26.9, 200 53.79, 200 70 M200 0 C200 25, 200 50, 200 70 M200 70 C125.94 70, 51.89 70, 0 70 M200 70 C126.08 70, 52.16 70, 0 70 M0 70 C0 45.39, 0 20.78, 0 0 M0 70 C0 51.29, 0 32.59, 0 0" stroke="#1971c2" stroke-width="2" fill="none"></path></g><g transform="translate(500 368.75) rotate(0 90 16.25)"><text x="90" y="NaN" font-family="Cascadia, Segoe UI Emoji" font-size="13px" fill="#1971c2" text-anchor="middle" style="white-space: pre;" direction="ltr">/capture</text><text x="90" y="NaN" font-family="Cascadia, Segoe UI Emoji" font-size="13px" fill="#1971c2" text-anchor="middle" style="white-space: pre;" direction="ltr">Quick capture</text></g><g stroke-linecap="round" transform="translate(490 350) rotate(0 100 35)"><path d="M0 0 L200 0 L200 70 L0 70" stroke="none" stroke-width="0" fill="#a5d8ff"></path><path d="M0 0 C57.38 0, 114.77 0, 200 0 M0 0 C56.52 0, 113.04 0, 200 0 M200 0 C200 14.63, 200 29.25, 200 70 M200 0 C200 19.02, 200 38.04, 200 70 M200 70 C152.93 70, 105.86 70, 0 70 M200 70 C140.47 70, 80.94 70, 0 70 M0 70 C0 53.74, 0 37.48, 0 0 M0 70 C0 47.44, 0 24.88, 0 0" stroke="#1971c2" stroke-width="2" fill="none"></path></g></svg>