<svg version="1.1" xmlns="http://www.w3.org/2000/svg" viewBox="0 0 1460 300" width="1460" height="300">
  <!-- svg-source:excalidraw -->
  
  <defs>
    <style>
      @font-face {
        font-family: "Virgil";
        src: url("https://excalidraw.com/Virgil.woff2");
      }
      @font-face {
        font-family: "Cascadia";
        src: url("https://excalidraw.com/Cascadia.woff2");
      }
    </style>
  </defs>
  <rect x="0" y="0" width="1460" height="300" fill="#ffffff"></rect><g transform="translate(50 30) rotate(0 165.6 15)"><text x="0" y="NaN" font-family="Cascadia, Segoe UI Emoji" font-size="24px" fill="#343a40" text-anchor="start" style="white-space: pre;" direction="ltr">User Onboarding Journey</text></g><g transform="translate(100 241.25) rotate(0 70 8.75)"><text x="70" y="NaN" font-family="Cascadia, Segoe UI Emoji" font-size="14px" fill="#2f9e44" text-anchor="middle" style="white-space: pre;" direction="ltr">Signup</text></g><g stroke-linecap="round" transform="translate(90 210) rotate(0 80 40)"><path d="M0 0 L160 0 L160 80 L0 80" stroke="none" stroke-width="0" fill="#b2f2bb"></path><path d="M0 0 C63.63 0, 127.25 0, 160 0 M0 0 C57.3 0, 114.6 0, 160 0 M160 0 C160 21.43, 160 42.86, 160 80 M160 0 C160 31.76, 160 63.51, 160 80 M160 80 C125.21 80, 90.41 80, 0 80 M160 80 C127.18 80, 94.37 80, 0 80 M0 80 C0 55.05, 0 30.1, 0 0 M0 80 C0 59.96, 0 39.91, 0 0" stroke="#2f9e44" stroke-width="2" fill="none"></path></g><g transform="translate(340 232.5) rotate(0 70 17.5)"><text x="70" y="NaN" font-family="Cascadia, Segoe UI Emoji" font-size="14px" fill="#1971c2" text-anchor="middle" style="white-space: pre;" direction="ltr">Email</text><text x="70" y="NaN" font-family="Cascadia, Segoe UI Emoji" font-size="14px" fill="#1971c2" text-anchor="middle" style="white-space: pre;" direction="ltr">Verify</text></g><g stroke-linecap="round" transform="translate(330 210) rotate(0 80 40)"><path d="M0 0 L160 0 L160 80 L0 80" stroke="none" stroke-width="0" fill="#a5d8ff"></path><path d="M0 0 C58.78 0, 117.56 0, 160 0 M0 0 C61.48 0, 122.97 0, 160 0 M160 0 C160 24.37, 160 48.74, 160 80 M160 0 C160 30.06, 160 60.12, 160 80 M160 80 C125.5 80, 91 80, 0 80 M160 80 C96.42 80, 32.84 80, 0 80 M0 80 C0 53.81, 0 27.62, 0 0 M0 80 C0 51.1, 0 22.2, 0 0" stroke="#1971c2" stroke-width="2" fill="none"></path></g><g transform="translate(260 240) rotate(0 30 10)"><text x="30" y="NaN" font-family="Cascadia, Segoe UI Emoji" font-size="12px" fill="#868e96" text-anchor="middle" style="white-space: pre;" direction="ltr">verify</text></g><g stroke-linecap="round"><g transform="translate(250 250) rotate(0 40 0)"><path d="M0 0 C13.33 0, 66.67 0, 80 0 M0 0 C13.33 0, 66.67 0, 80 0" stroke="#868e96" stroke-width="2" fill="none"></path></g><g transform="translate(250 250) rotate(0 40 0)"><path d="M51.81 10.26 C59.07 7.62, 66.33 4.98, 80 0 M51.81 10.26 C61.45 6.75, 71.1 3.24, 80 0" stroke="#868e96" stroke-width="2" fill="none"></path></g><g transform="translate(250 250) rotate(0 40 0)"><path d="M51.81 -10.26 C59.07 -7.62, 66.33 -4.98, 80 0 M51.81 -10.26 C61.45 -6.75, 71.1 -3.24, 80 0" stroke="#868e96" stroke-width="2" fill="none"></path></g></g><g transform="translate(580 232.5) rotate(0 70 17.5)"><text x="70" y="NaN" font-family="Cascadia, Segoe UI Emoji" font-size="14px" fill="#1971c2" text-anchor="middle" style="white-space: pre;" direction="ltr">Profile</text><text x="70" y="NaN" font-family="Cascadia, Segoe UI Emoji" font-size="14px" fill="#1971c2" text-anchor="middle" style="white-space: pre;" direction="ltr">Setup</text></g><g stroke-linecap="round" transform="translate(570 210) rotate(0 80 40)"><path d="M0 0 L160 0 L160 80 L0 80" stroke="none" stroke-width="0" fill="#a5d8ff"></path><path d="M0 0 C38.25 0, 76.5 0, 160 0 M0 0 C49.17 0, 98.35 0, 160 0 M160 0 C160 18.18, 160 36.36, 160 80 M160 0 C160 18.16, 160 36.33, 160 80 M160 80 C118.97 80, 77.94 80, 0 80 M160 80 C122.24 80, 84.48 80, 0 80 M0 80 C0 48.97, 0 17.94, 0 0 M0 80 C0 62.43, 0 44.86, 0 0" stroke="#1971c2" stroke-width="2" fill="none"></path></g><g transform="translate(498.5 240) rotate(0 31.5 10)"><text x="31.5" y="NaN" font-family="Cascadia, Segoe UI Emoji" font-size="12px" fill="#868e96" text-anchor="middle" style="white-space: pre;" direction="ltr">confirmed</text></g><g stroke-linecap="round"><g transform="translate(490 250) rotate(0 40 0)"><path d="M0 0 C13.33 0, 66.67 0, 80 0 M0 0 C13.33 0, 66.67 0, 80 0" stroke="#868e96" stroke-width="2" fill="none"></path></g><g transform="translate(490 250) rotate(0 40 0)"><path d="M51.81 10.26 C57.81 8.08, 63.81 5.89, 80 0 M51.81 10.26 C61.97 6.56, 72.13 2.86, 80 0" stroke="#868e96" stroke-width="2" fill="none"></path></g><g transform="translate(490 250) rotate(0 40 0)"><path d="M51.81 -10.26 C57.81 -8.08, 63.81 -5.89, 80 0 M51.81 -10.26 C61.97 -6.56, 72.13 -2.86, 80 0" stroke="#868e96" stroke-width="2" fill="none"></path></g></g><g transform="translate(820 241.25) rotate(0 70 8.75)"><text x="70" y="NaN" font-family="Cascadia, Segoe UI Emoji" font-size="14px" fill="#0c8599" text-anchor="middle" style="white-space: pre;" direction="ltr">Tutorial</text></g><g stroke-linecap="round" transform="translate(810 210) rotate(0 80 40)"><path d="M0 0 L160 0 L160 80 L0 80" stroke="none" stroke-width="0" fill="#99e9f2"></path><path d="M0 0 C50.19 0, 100.38 0, 160 0 M0 0 C43.41 0, 86.82 0, 160 0 M160 0 C160 18.32, 160 36.63, 160 80 M160 0 C160 31.24, 160 62.47, 160 80 M160 80 C120.2 80, 80.39 80, 0 80 M160 80 C124.73 80, 89.46 80, 0 80 M0 80 C0 55.26, 0 30.51, 0 0 M0 80 C0 53.05, 0 26.1, 0 0" stroke="#0c8599" stroke-width="2" fill="none"></path></g><g transform="translate(740 240) rotate(0 30 10)"><text x="30" y="NaN" font-family="Cascadia, Segoe UI Emoji" font-size="12px" fill="#868e96" text-anchor="middle" style="white-space: pre;" direction="ltr">complete</text></g><g stroke-linecap="round"><g transform="translate(730 250) rotate(0 40 0)"><path d="M0 0 C13.33 0, 66.67 0, 80 0 M0 0 C13.33 0, 66.67 0, 80 0" stroke="#868e96" stroke-width="2" fill="none"></path></g><g transform="translate(730 250) rotate(0 40 0)"><path d="M51.81 10.26 C59.84 7.34, 67.88 4.41, 80 0 M51.81 10.26 C57.61 8.15, 63.42 6.03, 80 0" stroke="#868e96" stroke-width="2" fill="none"></path></g><g transform="translate(730 250) rotate(0 40 0)"><path d="M51.81 -10.26 C59.84 -7.34, 67.88 -4.41, 80 0 M51.81 -10.26 C57.61 -8.15, 63.42 -6.03, 80 0" stroke="#868e96" stroke-width="2" fill="none"></path></g></g><g transform="translate(1060 232.5) rotate(0 70 17.5)"><text x="70" y="NaN" font-family="Cascadia, Segoe UI Emoji" font-size="14px" fill="#1971c2" text-anchor="middle" style="white-space: pre;" direction="ltr">First</text><text x="70" y="NaN" font-family="Cascadia, Segoe UI Emoji" font-size="14px" fill="#1971c2" text-anchor="middle" style="white-space: pre;" direction="ltr">Action</text></g><g stroke-linecap="round" transform="translate(1050 210) rotate(0 80 40)"><path d="M0 0 L160 0 L160 80 L0 80" stroke="none" stroke-width="0" fill="#a5d8ff"></path><path d="M0 0 C54.74 0, 109.48 0, 160 0 M0 0 C52.72 0, 105.44 0, 160 0 M160 0 C160 18.16, 160 36.32, 160 80 M160 0 C160 19.76, 160 39.53, 160 80 M160 80 C115.51 80, 71.01 80, 0 80 M160 80 C118.99 80, 77.98 80, 0 80 M0 80 C0 62.46, 0 44.91, 0 0 M0 80 C0 49.07, 0 18.14, 0 0" stroke="#1971c2" stroke-width="2" fill="none"></path></g><g transform="translate(980 240) rotate(0 30 10)"><text x="30" y="NaN" font-family="Cascadia, Segoe UI Emoji" font-size="12px" fill="#868e96" text-anchor="middle" style="white-space: pre;" direction="ltr">finish</text></g><g stroke-linecap="round"><g transform="translate(970 250) rotate(0 40 0)"><path d="M0 0 C13.33 0, 66.67 0, 80 0 M0 0 C13.33 0, 66.67 0, 80 0" stroke="#868e96" stroke-width="2" fill="none"></path></g><g transform="translate(970 250) rotate(0 40 0)"><path d="M51.81 10.26 C60.25 7.19, 68.69 4.11, 80 0 M51.81 10.26 C62.9 6.22, 73.99 2.19, 80 0" stroke="#868e96" stroke-width="2" fill="none"></path></g><g transform="translate(970 250) rotate(0 40 0)"><path d="M51.81 -10.26 C60.25 -7.19, 68.69 -4.11, 80 0 M51.81 -10.26 C62.9 -6.22, 73.99 -2.19, 80 0" stroke="#868e96" stroke-width="2" fill="none"></path></g></g><g transform="translate(1300 232.5) rotate(0 70 17.5)"><text x="70" y="NaN" font-family="Cascadia, Segoe UI Emoji" font-size="14px" fill="#2f9e44" text-anchor="middle" style="white-space: pre;" direction="ltr">Active</text><text x="70" y="NaN" font-family="Cascadia, Segoe UI Emoji" font-size="14px" fill="#2f9e44" text-anchor="middle" style="white-space: pre;" direction="ltr">User</text></g><g stroke-linecap="round" transform="translate(1290 210) rotate(0 80 40)"><path d="M0 0 L160 0 L160 80 L0 80" stroke="none" stroke-width="0" fill="#b2f2bb"></path><path d="M0 0 C39.09 0, 78.18 0, 160 0 M0 0 C58.15 0, 116.29 0, 160 0 M160 0 C160 27.93, 160 55.86, 160 80 M160 0 C160 29.55, 160 59.1, 160 80 M160 80 C99.49 80, 38.98 80, 0 80 M160 80 C104.35 80, 48.69 80, 0 80 M0 80 C0 57.72, 0 35.45, 0 0 M0 80 C0 59.07, 0 38.15, 0 0" stroke="#2f9e44" stroke-width="2" fill="none"></path></g><g transform="translate(1220 240) rotate(0 30 10)"><text x="30" y="NaN" font-family="Cascadia, Segoe UI Emoji" font-size="12px" fill="#868e96" text-anchor="middle" style="white-space: pre;" direction="ltr">!</text></g><g stroke-linecap="round"><g transform="translate(1210 250) rotate(0 40 0)"><path d="M0 0 C13.33 0, 66.67 0, 80 0 M0 0 C13.33 0, 66.67 0, 80 0" stroke="#868e96" stroke-width="2" fill="none"></path></g><g transform="translate(1210 250) rotate(0 40 0)"><path d="M51.81 10.26 C61.32 6.8, 70.83 3.34, 80 0 M51.81 10.26 C59.72 7.38, 67.64 4.5, 80 0" stroke="#868e96" stroke-width="2" fill="none"></path></g><g transform="translate(1210 250) rotate(0 40 0)"><path d="M51.81 -10.26 C61.32 -6.8, 70.83 -3.34, 80 0 M51.81 -10.26 C59.72 -7.38, 67.64 -4.5, 80 0" stroke="#868e96" stroke-width="2" fill="none"></path></g></g><g transform="translate(20 25) rotate(0 60 10)"><text x="60" y="NaN" font-family="Cascadia, Segoe UI Emoji" font-size="16px" fill="#e03131" text-anchor="middle" style="white-space: pre;" direction="ltr">Bounce 30%</text></g><g stroke-linecap="round" transform="translate(10 10) rotate(0 70 25)"><path d="M0 0 L140 0 L140 50 L0 50" stroke="none" stroke-width="0" fill="#ffc9c9"></path><path d="M0 0 C32.42 0, 64.84 0, 140 0 M0 0 C29.14 0, 58.29 0, 140 0 M140 0 C140 11.14, 140 22.29, 140 50 M140 0 C140 15.81, 140 31.63, 140 50 M140 50 C97.09 50, 54.19 50, 0 50 M140 50 C88.85 50, 37.7 50, 0 50 M0 50 C0 30.73, 0 11.45, 0 0 M0 50 C0 30.51, 0 11.01, 0 0" stroke="#e03131" stroke-width="2" fill="none"></path></g><g transform="translate(20 25) rotate(0 60 10)"><text x="60" y="NaN" font-family="Cascadia, Segoe UI Emoji" font-size="16px" fill="#e03131" text-anchor="middle" style="white-space: pre;" direction="ltr">Abandon 20%</text></g><g stroke-linecap="round" transform="translate(10 10) rotate(0 70 25)"><path d="M0 0 L140 0 L140 50 L0 50" stroke="none" stroke-width="0" fill="#ffc9c9"></path><path d="M0 0 C48.35 0, 96.7 0, 140 0 M0 0 C43.23 0, 86.47 0, 140 0 M140 0 C140 15.07, 140 30.14, 140 50 M140 0 C140 12.44, 140 24.89, 140 50 M140 50 C106.56 50, 73.12 50, 0 50 M140 50 C105.68 50, 71.35 50, 0 50 M0 50 C0 36.48, 0 22.96, 0 0 M0 50 C0 38.63, 0 27.25, 0 0" stroke="#e03131" stroke-width="2" fill="none"></path></g><g transform="translate(20 25) rotate(0 60 10)"><text x="60" y="NaN" font-family="Cascadia, Segoe UI Emoji" font-size="16px" fill="#e03131" text-anchor="middle" style="white-space: pre;" direction="ltr">Skip 15%</text></g><g stroke-linecap="round" transform="translate(10 10) rotate(0 70 25)"><path d="M0 0 L140 0 L140 50 L0 50" stroke="none" stroke-width="0" fill="#ffc9c9"></path><path d="M0 0 C29.31 0, 58.62 0, 140 0 M0 0 C39.46 0, 78.92 0, 140 0 M140 0 C140 17.96, 140 35.91, 140 50 M140 0 C140 17.28, 140 34.56, 140 50 M140 50 C88.18 50, 36.37 50, 0 50 M140 50 C93.35 50, 46.69 50, 0 50 M0 50 C0 31.4, 0 12.81, 0 0 M0 50 C0 36.22, 0 22.45, 0 0" stroke="#e03131" stroke-width="2" fill="none"></path></g></svg>