<svg version="1.1" xmlns="http://www.w3.org/2000/svg" viewBox="0 0 680 520" width="680" height="520">
  <!-- svg-source:excalidraw -->
  
  <defs>
    <style>
      @font-face {
        font-family: "Virgil";
        src: url("https://excalidraw.com/Virgil.woff2");
      }
      @font-face {
        font-family: "Cascadia";
        src: url("https://excalidraw.com/Cascadia.woff2");
      }
    </style>
  </defs>
  <rect x="0" y="0" width="680" height="520" fill="#ffffff"></rect><g transform="translate(10 10) rotate(0 108 15)"><text x="0" y="NaN" font-family="Cascadia, Segoe UI Emoji" font-size="24px" fill="#343a40" text-anchor="start" style="white-space: pre;" direction="ltr">Order Lifecycle</text></g><g transform="translate(54 211.25) rotate(0 56 8.75)"><text x="56" y="NaN" font-family="Cascadia, Segoe UI Emoji" font-size="14px" fill="#868e96" text-anchor="middle" style="white-space: pre;" direction="ltr">PENDING</text></g><g stroke-linecap="round" transform="translate(30 190) rotate(0 80 30)"><path d="M160 30 C160 31.21, 159.8 32.42, 159.42 33.62 C159.03 34.81, 158.44 36.01, 157.68 37.18 C156.91 38.35, 155.94 39.51, 154.8 40.64 C153.66 41.77, 152.33 42.87, 150.84 43.94 C149.34 45.01, 147.66 46.05, 145.84 47.04 C144.01 48.03, 142.01 48.99, 139.88 49.89 C137.75 50.8, 135.46 51.66, 133.05 52.46 C130.64 53.25, 128.09 54, 125.45 54.69 C122.8 55.37, 120.02 56, 117.18 56.56 C114.33 57.12, 111.37 57.62, 108.37 58.05 C105.36 58.48, 102.27 58.84, 99.15 59.13 C96.02 59.42, 92.83 59.64, 89.64 59.78 C86.45 59.93, 83.21 60, 80 60 C76.79 60, 73.55 59.93, 70.36 59.78 C67.17 59.64, 63.98 59.42, 60.85 59.13 C57.73 58.84, 54.64 58.48, 51.63 58.05 C48.63 57.62, 45.67 57.12, 42.82 56.56 C39.98 56, 37.2 55.37, 34.55 54.69 C31.91 54, 29.36 53.25, 26.95 52.46 C24.54 51.66, 22.25 50.8, 20.12 49.89 C17.99 48.99, 15.99 48.03, 14.16 47.04 C12.34 46.05, 10.66 45.01, 9.16 43.94 C7.67 42.87, 6.34 41.77, 5.2 40.64 C4.06 39.51, 3.09 38.35, 2.32 37.18 C1.56 36.01, 0.97 34.81, 0.58 33.62 C0.2 32.42, 0 31.21, 0 30 C0 28.79, 0.2 27.58, 0.58 26.38 C0.97 25.19, 1.56 23.99, 2.32 22.82 C3.09 21.65, 4.06 20.49, 5.2 19.36 C6.34 18.23, 7.67 17.13, 9.16 16.06 C10.66 14.99, 12.34 13.95, 14.16 12.96 C15.99 11.97, 17.99 11.01, 20.12 10.11 C22.25 9.2, 24.54 8.34, 26.95 7.54 C29.36 6.75, 31.91 6, 34.55 5.31 C37.2 4.63, 39.98 4, 42.82 3.44 C45.67 2.88, 48.63 2.38, 51.63 1.95 C54.64 1.52, 57.73 1.16, 60.85 0.87 C63.98 0.58, 67.17 0.36, 70.36 0.22 C73.55 0.07, 76.79 0, 80 0 C83.21 0, 86.45 0.07, 89.64 0.22 C92.83 0.36, 96.02 0.58, 99.15 0.87 C102.27 1.16, 105.36 1.52, 108.37 1.95 C111.37 2.38, 114.33 2.88, 117.18 3.44 C120.02 4, 122.8 4.63, 125.45 5.31 C128.09 6, 130.64 6.75, 133.05 7.54 C135.46 8.34, 137.75 9.2, 139.88 10.11 C142.01 11.01, 144.01 11.97, 145.84 12.96 C147.66 13.95, 149.34 14.99, 150.84 16.06 C152.33 17.13, 153.66 18.23, 154.8 19.36 C155.94 20.49, 156.91 21.65, 157.68 22.82 C158.44 23.99, 159.03 25.19, 159.42 26.38 C159.8 27.58, 160 28.79, 160 30" stroke="none" stroke-width="0" fill="#dee2e6"></path><path d="M160 30 C160 31.21, 159.8 32.42, 159.42 33.62 C159.03 34.81, 158.44 36.01, 157.68 37.18 C156.91 38.35, 155.94 39.51, 154.8 40.64 C153.66 41.77, 152.33 42.87, 150.84 43.94 C149.34 45.01, 147.66 46.05, 145.84 47.04 C144.01 48.03, 142.01 48.99, 139.88 49.89 C137.75 50.8, 135.46 51.66, 133.05 52.46 C130.64 53.25, 128.09 54, 125.45 54.69 C122.8 55.37, 120.02 56, 117.18 56.56 C114.33 57.12, 111.37 57.62, 108.37 58.05 C105.36 58.48, 102.27 58.84, 99.15 59.13 C96.02 59.42, 92.83 59.64, 89.64 59.78 C86.45 59.93, 83.21 60, 80 60 C76.79 60, 73.55 59.93, 70.36 59.78 C67.17 59.64, 63.98 59.42, 60.85 59.13 C57.73 58.84, 54.64 58.48, 51.63 58.05 C48.63 57.62, 45.67 57.12, 42.82 56.56 C39.98 56, 37.2 55.37, 34.55 54.69 C31.91 54, 29.36 53.25, 26.95 52.46 C24.54 51.66, 22.25 50.8, 20.12 49.89 C17.99 48.99, 15.99 48.03, 14.16 47.04 C12.34 46.05, 10.66 45.01, 9.16 43.94 C7.67 42.87, 6.34 41.77, 5.2 40.64 C4.06 39.51, 3.09 38.35, 2.32 37.18 C1.56 36.01, 0.97 34.81, 0.58 33.62 C0.2 32.42, 0 31.21, 0 30 C0 28.79, 0.2 27.58, 0.58 26.38 C0.97 25.19, 1.56 23.99, 2.32 22.82 C3.09 21.65, 4.06 20.49, 5.2 19.36 C6.34 18.23, 7.67 17.13, 9.16 16.06 C10.66 14.99, 12.34 13.95, 14.16 12.96 C15.99 11.97, 17.99 11.01, 20.12 10.11 C22.25 9.2, 24.54 8.34, 26.95 7.54 C29.36 6.75, 31.91 6, 34.55 5.31 C37.2 4.63, 39.98 4, 42.82 3.44 C45.67 2.88, 48.63 2.38, 51.63 1.95 C54.64 1.52, 57.73 1.16, 60.85 0.87 C63.98 0.58, 67.17 0.36, 70.36 0.22 C73.55 0.07, 76.79 0, 80 0 C83.21 0, 86.45 0.07, 89.64 0.22 C92.83 0.36, 96.02 0.58, 99.15 0.87 C102.27 1.16, 105.36 1.52, 108.37 1.95 C111.37 2.38, 114.33 2.88, 117.18 3.44 C120.02 4, 122.8 4.63, 125.45 5.31 C128.09 6, 130.64 6.75, 133.05 7.54 C135.46 8.34, 137.75 9.2, 139.88 10.11 C142.01 11.01, 144.01 11.97, 145.84 12.96 C147.66 13.95, 149.34 14.99, 150.84 16.06 C152.33 17.13, 153.66 18.23, 154.8 19.36 C155.94 20.49, 156.91 21.65, 157.68 22.82 C158.44 23.99, 159.03 25.19, 159.42 26.38 C159.8 27.58, 160 28.79, 160 30" stroke="#868e96" stroke-width="2" fill="none"></path></g><g transform="translate(294 111.25) rotate(0 56 8.75)"><text x="56" y="NaN" font-family="Cascadia, Segoe UI Emoji" font-size="14px" fill="#1971c2" text-anchor="middle" style="white-space: pre;" direction="ltr">CONFIRMED</text></g><g stroke-linecap="round" transform="translate(270 90) rotate(0 80 30)"><path d="M160 30 C160 31.21, 159.8 32.42, 159.42 33.62 C159.03 34.81, 158.44 36.01, 157.68 37.18 C156.91 38.35, 155.94 39.51, 154.8 40.64 C153.66 41.77, 152.33 42.87, 150.84 43.94 C149.34 45.01, 147.66 46.05, 145.84 47.04 C144.01 48.03, 142.01 48.99, 139.88 49.89 C137.75 50.8, 135.46 51.66, 133.05 52.46 C130.64 53.25, 128.09 54, 125.45 54.69 C122.8 55.37, 120.02 56, 117.18 56.56 C114.33 57.12, 111.37 57.62, 108.37 58.05 C105.36 58.48, 102.27 58.84, 99.15 59.13 C96.02 59.42, 92.83 59.64, 89.64 59.78 C86.45 59.93, 83.21 60, 80 60 C76.79 60, 73.55 59.93, 70.36 59.78 C67.17 59.64, 63.98 59.42, 60.85 59.13 C57.73 58.84, 54.64 58.48, 51.63 58.05 C48.63 57.62, 45.67 57.12, 42.82 56.56 C39.98 56, 37.2 55.37, 34.55 54.69 C31.91 54, 29.36 53.25, 26.95 52.46 C24.54 51.66, 22.25 50.8, 20.12 49.89 C17.99 48.99, 15.99 48.03, 14.16 47.04 C12.34 46.05, 10.66 45.01, 9.16 43.94 C7.67 42.87, 6.34 41.77, 5.2 40.64 C4.06 39.51, 3.09 38.35, 2.32 37.18 C1.56 36.01, 0.97 34.81, 0.58 33.62 C0.2 32.42, 0 31.21, 0 30 C0 28.79, 0.2 27.58, 0.58 26.38 C0.97 25.19, 1.56 23.99, 2.32 22.82 C3.09 21.65, 4.06 20.49, 5.2 19.36 C6.34 18.23, 7.67 17.13, 9.16 16.06 C10.66 14.99, 12.34 13.95, 14.16 12.96 C15.99 11.97, 17.99 11.01, 20.12 10.11 C22.25 9.2, 24.54 8.34, 26.95 7.54 C29.36 6.75, 31.91 6, 34.55 5.31 C37.2 4.63, 39.98 4, 42.82 3.44 C45.67 2.88, 48.63 2.38, 51.63 1.95 C54.64 1.52, 57.73 1.16, 60.85 0.87 C63.98 0.58, 67.17 0.36, 70.36 0.22 C73.55 0.07, 76.79 0, 80 0 C83.21 0, 86.45 0.07, 89.64 0.22 C92.83 0.36, 96.02 0.58, 99.15 0.87 C102.27 1.16, 105.36 1.52, 108.37 1.95 C111.37 2.38, 114.33 2.88, 117.18 3.44 C120.02 4, 122.8 4.63, 125.45 5.31 C128.09 6, 130.64 6.75, 133.05 7.54 C135.46 8.34, 137.75 9.2, 139.88 10.11 C142.01 11.01, 144.01 11.97, 145.84 12.96 C147.66 13.95, 149.34 14.99, 150.84 16.06 C152.33 17.13, 153.66 18.23, 154.8 19.36 C155.94 20.49, 156.91 21.65, 157.68 22.82 C158.44 23.99, 159.03 25.19, 159.42 26.38 C159.8 27.58, 160 28.79, 160 30" stroke="none" stroke-width="0" fill="#a5d8ff"></path><path d="M160 30 C160 31.21, 159.8 32.42, 159.42 33.62 C159.03 34.81, 158.44 36.01, 157.68 37.18 C156.91 38.35, 155.94 39.51, 154.8 40.64 C153.66 41.77, 152.33 42.87, 150.84 43.94 C149.34 45.01, 147.66 46.05, 145.84 47.04 C144.01 48.03, 142.01 48.99, 139.88 49.89 C137.75 50.8, 135.46 51.66, 133.05 52.46 C130.64 53.25, 128.09 54, 125.45 54.69 C122.8 55.37, 120.02 56, 117.18 56.56 C114.33 57.12, 111.37 57.62, 108.37 58.05 C105.36 58.48, 102.27 58.84, 99.15 59.13 C96.02 59.42, 92.83 59.64, 89.64 59.78 C86.45 59.93, 83.21 60, 80 60 C76.79 60, 73.55 59.93, 70.36 59.78 C67.17 59.64, 63.98 59.42, 60.85 59.13 C57.73 58.84, 54.64 58.48, 51.63 58.05 C48.63 57.62, 45.67 57.12, 42.82 56.56 C39.98 56, 37.2 55.37, 34.55 54.69 C31.91 54, 29.36 53.25, 26.95 52.46 C24.54 51.66, 22.25 50.8, 20.12 49.89 C17.99 48.99, 15.99 48.03, 14.16 47.04 C12.34 46.05, 10.66 45.01, 9.16 43.94 C7.67 42.87, 6.34 41.77, 5.2 40.64 C4.06 39.51, 3.09 38.35, 2.32 37.18 C1.56 36.01, 0.97 34.81, 0.58 33.62 C0.2 32.42, 0 31.21, 0 30 C0 28.79, 0.2 27.58, 0.58 26.38 C0.97 25.19, 1.56 23.99, 2.32 22.82 C3.09 21.65, 4.06 20.49, 5.2 19.36 C6.34 18.23, 7.67 17.13, 9.16 16.06 C10.66 14.99, 12.34 13.95, 14.16 12.96 C15.99 11.97, 17.99 11.01, 20.12 10.11 C22.25 9.2, 24.54 8.34, 26.95 7.54 C29.36 6.75, 31.91 6, 34.55 5.31 C37.2 4.63, 39.98 4, 42.82 3.44 C45.67 2.88, 48.63 2.38, 51.63 1.95 C54.64 1.52, 57.73 1.16, 60.85 0.87 C63.98 0.58, 67.17 0.36, 70.36 0.22 C73.55 0.07, 76.79 0, 80 0 C83.21 0, 86.45 0.07, 89.64 0.22 C92.83 0.36, 96.02 0.58, 99.15 0.87 C102.27 1.16, 105.36 1.52, 108.37 1.95 C111.37 2.38, 114.33 2.88, 117.18 3.44 C120.02 4, 122.8 4.63, 125.45 5.31 C128.09 6, 130.64 6.75, 133.05 7.54 C135.46 8.34, 137.75 9.2, 139.88 10.11 C142.01 11.01, 144.01 11.97, 145.84 12.96 C147.66 13.95, 149.34 14.99, 150.84 16.06 C152.33 17.13, 153.66 18.23, 154.8 19.36 C155.94 20.49, 156.91 21.65, 157.68 22.82 C158.44 23.99, 159.03 25.19, 159.42 26.38 C159.8 27.58, 160 28.79, 160 30" stroke="#1971c2" stroke-width="2" fill="none"></path></g><g transform="translate(294 311.25) rotate(0 56 8.75)"><text x="56" y="NaN" font-family="Cascadia, Segoe UI Emoji" font-size="14px" fill="#2f9e44" text-anchor="middle" style="white-space: pre;" direction="ltr">PAID</text></g><g stroke-linecap="round" transform="translate(270 290) rotate(0 80 30)"><path d="M160 30 C160 31.21, 159.8 32.42, 159.42 33.62 C159.03 34.81, 158.44 36.01, 157.68 37.18 C156.91 38.35, 155.94 39.51, 154.8 40.64 C153.66 41.77, 152.33 42.87, 150.84 43.94 C149.34 45.01, 147.66 46.05, 145.84 47.04 C144.01 48.03, 142.01 48.99, 139.88 49.89 C137.75 50.8, 135.46 51.66, 133.05 52.46 C130.64 53.25, 128.09 54, 125.45 54.69 C122.8 55.37, 120.02 56, 117.18 56.56 C114.33 57.12, 111.37 57.62, 108.37 58.05 C105.36 58.48, 102.27 58.84, 99.15 59.13 C96.02 59.42, 92.83 59.64, 89.64 59.78 C86.45 59.93, 83.21 60, 80 60 C76.79 60, 73.55 59.93, 70.36 59.78 C67.17 59.64, 63.98 59.42, 60.85 59.13 C57.73 58.84, 54.64 58.48, 51.63 58.05 C48.63 57.62, 45.67 57.12, 42.82 56.56 C39.98 56, 37.2 55.37, 34.55 54.69 C31.91 54, 29.36 53.25, 26.95 52.46 C24.54 51.66, 22.25 50.8, 20.12 49.89 C17.99 48.99, 15.99 48.03, 14.16 47.04 C12.34 46.05, 10.66 45.01, 9.16 43.94 C7.67 42.87, 6.34 41.77, 5.2 40.64 C4.06 39.51, 3.09 38.35, 2.32 37.18 C1.56 36.01, 0.97 34.81, 0.58 33.62 C0.2 32.42, 0 31.21, 0 30 C0 28.79, 0.2 27.58, 0.58 26.38 C0.97 25.19, 1.56 23.99, 2.32 22.82 C3.09 21.65, 4.06 20.49, 5.2 19.36 C6.34 18.23, 7.67 17.13, 9.16 16.06 C10.66 14.99, 12.34 13.95, 14.16 12.96 C15.99 11.97, 17.99 11.01, 20.12 10.11 C22.25 9.2, 24.54 8.34, 26.95 7.54 C29.36 6.75, 31.91 6, 34.55 5.31 C37.2 4.63, 39.98 4, 42.82 3.44 C45.67 2.88, 48.63 2.38, 51.63 1.95 C54.64 1.52, 57.73 1.16, 60.85 0.87 C63.98 0.58, 67.17 0.36, 70.36 0.22 C73.55 0.07, 76.79 0, 80 0 C83.21 0, 86.45 0.07, 89.64 0.22 C92.83 0.36, 96.02 0.58, 99.15 0.87 C102.27 1.16, 105.36 1.52, 108.37 1.95 C111.37 2.38, 114.33 2.88, 117.18 3.44 C120.02 4, 122.8 4.63, 125.45 5.31 C128.09 6, 130.64 6.75, 133.05 7.54 C135.46 8.34, 137.75 9.2, 139.88 10.11 C142.01 11.01, 144.01 11.97, 145.84 12.96 C147.66 13.95, 149.34 14.99, 150.84 16.06 C152.33 17.13, 153.66 18.23, 154.8 19.36 C155.94 20.49, 156.91 21.65, 157.68 22.82 C158.44 23.99, 159.03 25.19, 159.42 26.38 C159.8 27.58, 160 28.79, 160 30" stroke="none" stroke-width="0" fill="#b2f2bb"></path><path d="M160 30 C160 31.21, 159.8 32.42, 159.42 33.62 C159.03 34.81, 158.44 36.01, 157.68 37.18 C156.91 38.35, 155.94 39.51, 154.8 40.64 C153.66 41.77, 152.33 42.87, 150.84 43.94 C149.34 45.01, 147.66 46.05, 145.84 47.04 C144.01 48.03, 142.01 48.99, 139.88 49.89 C137.75 50.8, 135.46 51.66, 133.05 52.46 C130.64 53.25, 128.09 54, 125.45 54.69 C122.8 55.37, 120.02 56, 117.18 56.56 C114.33 57.12, 111.37 57.62, 108.37 58.05 C105.36 58.48, 102.27 58.84, 99.15 59.13 C96.02 59.42, 92.83 59.64, 89.64 59.78 C86.45 59.93, 83.21 60, 80 60 C76.79 60, 73.55 59.93, 70.36 59.78 C67.17 59.64, 63.98 59.42, 60.85 59.13 C57.73 58.84, 54.64 58.48, 51.63 58.05 C48.63 57.62, 45.67 57.12, 42.82 56.56 C39.98 56, 37.2 55.37, 34.55 54.69 C31.91 54, 29.36 53.25, 26.95 52.46 C24.54 51.66, 22.25 50.8, 20.12 49.89 C17.99 48.99, 15.99 48.03, 14.16 47.04 C12.34 46.05, 10.66 45.01, 9.16 43.94 C7.67 42.87, 6.34 41.77, 5.2 40.64 C4.06 39.51, 3.09 38.35, 2.32 37.18 C1.56 36.01, 0.97 34.81, 0.58 33.62 C0.2 32.42, 0 31.21, 0 30 C0 28.79, 0.2 27.58, 0.58 26.38 C0.97 25.19, 1.56 23.99, 2.32 22.82 C3.09 21.65, 4.06 20.49, 5.2 19.36 C6.34 18.23, 7.67 17.13, 9.16 16.06 C10.66 14.99, 12.34 13.95, 14.16 12.96 C15.99 11.97, 17.99 11.01, 20.12 10.11 C22.25 9.2, 24.54 8.34, 26.95 7.54 C29.36 6.75, 31.91 6, 34.55 5.31 C37.2 4.63, 39.98 4, 42.82 3.44 C45.67 2.88, 48.63 2.38, 51.63 1.95 C54.64 1.52, 57.73 1.16, 60.85 0.87 C63.98 0.58, 67.17 0.36, 70.36 0.22 C73.55 0.07, 76.79 0, 80 0 C83.21 0, 86.45 0.07, 89.64 0.22 C92.83 0.36, 96.02 0.58, 99.15 0.87 C102.27 1.16, 105.36 1.52, 108.37 1.95 C111.37 2.38, 114.33 2.88, 117.18 3.44 C120.02 4, 122.8 4.63, 125.45 5.31 C128.09 6, 130.64 6.75, 133.05 7.54 C135.46 8.34, 137.75 9.2, 139.88 10.11 C142.01 11.01, 144.01 11.97, 145.84 12.96 C147.66 13.95, 149.34 14.99, 150.84 16.06 C152.33 17.13, 153.66 18.23, 154.8 19.36 C155.94 20.49, 156.91 21.65, 157.68 22.82 C158.44 23.99, 159.03 25.19, 159.42 26.38 C159.8 27.58, 160 28.79, 160 30" stroke="#2f9e44" stroke-width="2" fill="none"></path></g><g transform="translate(534 211.25) rotate(0 56 8.75)"><text x="56" y="NaN" font-family="Cascadia, Segoe UI Emoji" font-size="14px" fill="#0c8599" text-anchor="middle" style="white-space: pre;" direction="ltr">SHIPPED</text></g><g stroke-linecap="round" transform="translate(510 190) rotate(0 80 30)"><path d="M160 30 C160 31.21, 159.8 32.42, 159.42 33.62 C159.03 34.81, 158.44 36.01, 157.68 37.18 C156.91 38.35, 155.94 39.51, 154.8 40.64 C153.66 41.77, 152.33 42.87, 150.84 43.94 C149.34 45.01, 147.66 46.05, 145.84 47.04 C144.01 48.03, 142.01 48.99, 139.88 49.89 C137.75 50.8, 135.46 51.66, 133.05 52.46 C130.64 53.25, 128.09 54, 125.45 54.69 C122.8 55.37, 120.02 56, 117.18 56.56 C114.33 57.12, 111.37 57.62, 108.37 58.05 C105.36 58.48, 102.27 58.84, 99.15 59.13 C96.02 59.42, 92.83 59.64, 89.64 59.78 C86.45 59.93, 83.21 60, 80 60 C76.79 60, 73.55 59.93, 70.36 59.78 C67.17 59.64, 63.98 59.42, 60.85 59.13 C57.73 58.84, 54.64 58.48, 51.63 58.05 C48.63 57.62, 45.67 57.12, 42.82 56.56 C39.98 56, 37.2 55.37, 34.55 54.69 C31.91 54, 29.36 53.25, 26.95 52.46 C24.54 51.66, 22.25 50.8, 20.12 49.89 C17.99 48.99, 15.99 48.03, 14.16 47.04 C12.34 46.05, 10.66 45.01, 9.16 43.94 C7.67 42.87, 6.34 41.77, 5.2 40.64 C4.06 39.51, 3.09 38.35, 2.32 37.18 C1.56 36.01, 0.97 34.81, 0.58 33.62 C0.2 32.42, 0 31.21, 0 30 C0 28.79, 0.2 27.58, 0.58 26.38 C0.97 25.19, 1.56 23.99, 2.32 22.82 C3.09 21.65, 4.06 20.49, 5.2 19.36 C6.34 18.23, 7.67 17.13, 9.16 16.06 C10.66 14.99, 12.34 13.95, 14.16 12.96 C15.99 11.97, 17.99 11.01, 20.12 10.11 C22.25 9.2, 24.54 8.34, 26.95 7.54 C29.36 6.75, 31.91 6, 34.55 5.31 C37.2 4.63, 39.98 4, 42.82 3.44 C45.67 2.88, 48.63 2.38, 51.63 1.95 C54.64 1.52, 57.73 1.16, 60.85 0.87 C63.98 0.58, 67.17 0.36, 70.36 0.22 C73.55 0.07, 76.79 0, 80 0 C83.21 0, 86.45 0.07, 89.64 0.22 C92.83 0.36, 96.02 0.58, 99.15 0.87 C102.27 1.16, 105.36 1.52, 108.37 1.95 C111.37 2.38, 114.33 2.88, 117.18 3.44 C120.02 4, 122.8 4.63, 125.45 5.31 C128.09 6, 130.64 6.75, 133.05 7.54 C135.46 8.34, 137.75 9.2, 139.88 10.11 C142.01 11.01, 144.01 11.97, 145.84 12.96 C147.66 13.95, 149.34 14.99, 150.84 16.06 C152.33 17.13, 153.66 18.23, 154.8 19.36 C155.94 20.49, 156.91 21.65, 157.68 22.82 C158.44 23.99, 159.03 25.19, 159.42 26.38 C159.8 27.58, 160 28.79, 160 30" stroke="none" stroke-width="0" fill="#99e9f2"></path><path d="M160 30 C160 31.21, 159.8 32.42, 159.42 33.62 C159.03 34.81, 158.44 36.01, 157.68 37.18 C156.91 38.35, 155.94 39.51, 154.8 40.64 C153.66 41.77, 152.33 42.87, 150.84 43.94 C149.34 45.01, 147.66 46.05, 145.84 47.04 C144.01 48.03, 142.01 48.99, 139.88 49.89 C137.75 50.8, 135.46 51.66, 133.05 52.46 C130.64 53.25, 128.09 54, 125.45 54.69 C122.8 55.37, 120.02 56, 117.18 56.56 C114.33 57.12, 111.37 57.62, 108.37 58.05 C105.36 58.48, 102.27 58.84, 99.15 59.13 C96.02 59.42, 92.83 59.64, 89.64 59.78 C86.45 59.93, 83.21 60, 80 60 C76.79 60, 73.55 59.93, 70.36 59.78 C67.17 59.64, 63.98 59.42, 60.85 59.13 C57.73 58.84, 54.64 58.48, 51.63 58.05 C48.63 57.62, 45.67 57.12, 42.82 56.56 C39.98 56, 37.2 55.37, 34.55 54.69 C31.91 54, 29.36 53.25, 26.95 52.46 C24.54 51.66, 22.25 50.8, 20.12 49.89 C17.99 48.99, 15.99 48.03, 14.16 47.04 C12.34 46.05, 10.66 45.01, 9.16 43.94 C7.67 42.87, 6.34 41.77, 5.2 40.64 C4.06 39.51, 3.09 38.35, 2.32 37.18 C1.56 36.01, 0.97 34.81, 0.58 33.62 C0.2 32.42, 0 31.21, 0 30 C0 28.79, 0.2 27.58, 0.58 26.38 C0.97 25.19, 1.56 23.99, 2.32 22.82 C3.09 21.65, 4.06 20.49, 5.2 19.36 C6.34 18.23, 7.67 17.13, 9.16 16.06 C10.66 14.99, 12.34 13.95, 14.16 12.96 C15.99 11.97, 17.99 11.01, 20.12 10.11 C22.25 9.2, 24.54 8.34, 26.95 7.54 C29.36 6.75, 31.91 6, 34.55 5.31 C37.2 4.63, 39.98 4, 42.82 3.44 C45.67 2.88, 48.63 2.38, 51.63 1.95 C54.64 1.52, 57.73 1.16, 60.85 0.87 C63.98 0.58, 67.17 0.36, 70.36 0.22 C73.55 0.07, 76.79 0, 80 0 C83.21 0, 86.45 0.07, 89.64 0.22 C92.83 0.36, 96.02 0.58, 99.15 0.87 C102.27 1.16, 105.36 1.52, 108.37 1.95 C111.37 2.38, 114.33 2.88, 117.18 3.44 C120.02 4, 122.8 4.63, 125.45 5.31 C128.09 6, 130.64 6.75, 133.05 7.54 C135.46 8.34, 137.75 9.2, 139.88 10.11 C142.01 11.01, 144.01 11.97, 145.84 12.96 C147.66 13.95, 149.34 14.99, 150.84 16.06 C152.33 17.13, 153.66 18.23, 154.8 19.36 C155.94 20.49, 156.91 21.65, 157.68 22.82 C158.44 23.99, 159.03 25.19, 159.42 26.38 C159.8 27.58, 160 28.79, 160 30" stroke="#0c8599" stroke-width="2" fill="none"></path></g><g transform="translate(534 391.25) rotate(0 56 8.75)"><text x="56" y="NaN" font-family="Cascadia, Segoe UI Emoji" font-size="14px" fill="#2f9e44" text-anchor="middle" style="white-space: pre;" direction="ltr">DELIVERED</text></g><g stroke-linecap="round" transform="translate(510 370) rotate(0 80 30)"><path d="M160 30 C160 31.21, 159.8 32.42, 159.42 33.62 C159.03 34.81, 158.44 36.01, 157.68 37.18 C156.91 38.35, 155.94 39.51, 154.8 40.64 C153.66 41.77, 152.33 42.87, 150.84 43.94 C149.34 45.01, 147.66 46.05, 145.84 47.04 C144.01 48.03, 142.01 48.99, 139.88 49.89 C137.75 50.8, 135.46 51.66, 133.05 52.46 C130.64 53.25, 128.09 54, 125.45 54.69 C122.8 55.37, 120.02 56, 117.18 56.56 C114.33 57.12, 111.37 57.62, 108.37 58.05 C105.36 58.48, 102.27 58.84, 99.15 59.13 C96.02 59.42, 92.83 59.64, 89.64 59.78 C86.45 59.93, 83.21 60, 80 60 C76.79 60, 73.55 59.93, 70.36 59.78 C67.17 59.64, 63.98 59.42, 60.85 59.13 C57.73 58.84, 54.64 58.48, 51.63 58.05 C48.63 57.62, 45.67 57.12, 42.82 56.56 C39.98 56, 37.2 55.37, 34.55 54.69 C31.91 54, 29.36 53.25, 26.95 52.46 C24.54 51.66, 22.25 50.8, 20.12 49.89 C17.99 48.99, 15.99 48.03, 14.16 47.04 C12.34 46.05, 10.66 45.01, 9.16 43.94 C7.67 42.87, 6.34 41.77, 5.2 40.64 C4.06 39.51, 3.09 38.35, 2.32 37.18 C1.56 36.01, 0.97 34.81, 0.58 33.62 C0.2 32.42, 0 31.21, 0 30 C0 28.79, 0.2 27.58, 0.58 26.38 C0.97 25.19, 1.56 23.99, 2.32 22.82 C3.09 21.65, 4.06 20.49, 5.2 19.36 C6.34 18.23, 7.67 17.13, 9.16 16.06 C10.66 14.99, 12.34 13.95, 14.16 12.96 C15.99 11.97, 17.99 11.01, 20.12 10.11 C22.25 9.2, 24.54 8.34, 26.95 7.54 C29.36 6.75, 31.91 6, 34.55 5.31 C37.2 4.63, 39.98 4, 42.82 3.44 C45.67 2.88, 48.63 2.38, 51.63 1.95 C54.64 1.52, 57.73 1.16, 60.85 0.87 C63.98 0.58, 67.17 0.36, 70.36 0.22 C73.55 0.07, 76.79 0, 80 0 C83.21 0, 86.45 0.07, 89.64 0.22 C92.83 0.36, 96.02 0.58, 99.15 0.87 C102.27 1.16, 105.36 1.52, 108.37 1.95 C111.37 2.38, 114.33 2.88, 117.18 3.44 C120.02 4, 122.8 4.63, 125.45 5.31 C128.09 6, 130.64 6.75, 133.05 7.54 C135.46 8.34, 137.75 9.2, 139.88 10.11 C142.01 11.01, 144.01 11.97, 145.84 12.96 C147.66 13.95, 149.34 14.99, 150.84 16.06 C152.33 17.13, 153.66 18.23, 154.8 19.36 C155.94 20.49, 156.91 21.65, 157.68 22.82 C158.44 23.99, 159.03 25.19, 159.42 26.38 C159.8 27.58, 160 28.79, 160 30" stroke="none" stroke-width="0" fill="#b2f2bb"></path><path d="M160 30 C160 31.21, 159.8 32.42, 159.42 33.62 C159.03 34.81, 158.44 36.01, 157.68 37.18 C156.91 38.35, 155.94 39.51, 154.8 40.64 C153.66 41.77, 152.33 42.87, 150.84 43.94 C149.34 45.01, 147.66 46.05, 145.84 47.04 C144.01 48.03, 142.01 48.99, 139.88 49.89 C137.75 50.8, 135.46 51.66, 133.05 52.46 C130.64 53.25, 128.09 54, 125.45 54.69 C122.8 55.37, 120.02 56, 117.18 56.56 C114.33 57.12, 111.37 57.62, 108.37 58.05 C105.36 58.48, 102.27 58.84, 99.15 59.13 C96.02 59.42, 92.83 59.64, 89.64 59.78 C86.45 59.93, 83.21 60, 80 60 C76.79 60, 73.55 59.93, 70.36 59.78 C67.17 59.64, 63.98 59.42, 60.85 59.13 C57.73 58.84, 54.64 58.48, 51.63 58.05 C48.63 57.62, 45.67 57.12, 42.82 56.56 C39.98 56, 37.2 55.37, 34.55 54.69 C31.91 54, 29.36 53.25, 26.95 52.46 C24.54 51.66, 22.25 50.8, 20.12 49.89 C17.99 48.99, 15.99 48.03, 14.16 47.04 C12.34 46.05, 10.66 45.01, 9.16 43.94 C7.67 42.87, 6.34 41.77, 5.2 40.64 C4.06 39.51, 3.09 38.35, 2.32 37.18 C1.56 36.01, 0.97 34.81, 0.58 33.62 C0.2 32.42, 0 31.21, 0 30 C0 28.79, 0.2 27.58, 0.58 26.38 C0.97 25.19, 1.56 23.99, 2.32 22.82 C3.09 21.65, 4.06 20.49, 5.2 19.36 C6.34 18.23, 7.67 17.13, 9.16 16.06 C10.66 14.99, 12.34 13.95, 14.16 12.96 C15.99 11.97, 17.99 11.01, 20.12 10.11 C22.25 9.2, 24.54 8.34, 26.95 7.54 C29.36 6.75, 31.91 6, 34.55 5.31 C37.2 4.63, 39.98 4, 42.82 3.44 C45.67 2.88, 48.63 2.38, 51.63 1.95 C54.64 1.52, 57.73 1.16, 60.85 0.87 C63.98 0.58, 67.17 0.36, 70.36 0.22 C73.55 0.07, 76.79 0, 80 0 C83.21 0, 86.45 0.07, 89.64 0.22 C92.83 0.36, 96.02 0.58, 99.15 0.87 C102.27 1.16, 105.36 1.52, 108.37 1.95 C111.37 2.38, 114.33 2.88, 117.18 3.44 C120.02 4, 122.8 4.63, 125.45 5.31 C128.09 6, 130.64 6.75, 133.05 7.54 C135.46 8.34, 137.75 9.2, 139.88 10.11 C142.01 11.01, 144.01 11.97, 145.84 12.96 C147.66 13.95, 149.34 14.99, 150.84 16.06 C152.33 17.13, 153.66 18.23, 154.8 19.36 C155.94 20.49, 156.91 21.65, 157.68 22.82 C158.44 23.99, 159.03 25.19, 159.42 26.38 C159.8 27.58, 160 28.79, 160 30" stroke="#2f9e44" stroke-width="2" fill="none"></path></g><g transform="translate(54 391.25) rotate(0 56 8.75)"><text x="56" y="NaN" font-family="Cascadia, Segoe UI Emoji" font-size="14px" fill="#e03131" text-anchor="middle" style="white-space: pre;" direction="ltr">CANCELLED</text></g><g stroke-linecap="round" transform="translate(30 370) rotate(0 80 30)"><path d="M160 30 C160 31.21, 159.8 32.42, 159.42 33.62 C159.03 34.81, 158.44 36.01, 157.68 37.18 C156.91 38.35, 155.94 39.51, 154.8 40.64 C153.66 41.77, 152.33 42.87, 150.84 43.94 C149.34 45.01, 147.66 46.05, 145.84 47.04 C144.01 48.03, 142.01 48.99, 139.88 49.89 C137.75 50.8, 135.46 51.66, 133.05 52.46 C130.64 53.25, 128.09 54, 125.45 54.69 C122.8 55.37, 120.02 56, 117.18 56.56 C114.33 57.12, 111.37 57.62, 108.37 58.05 C105.36 58.48, 102.27 58.84, 99.15 59.13 C96.02 59.42, 92.83 59.64, 89.64 59.78 C86.45 59.93, 83.21 60, 80 60 C76.79 60, 73.55 59.93, 70.36 59.78 C67.17 59.64, 63.98 59.42, 60.85 59.13 C57.73 58.84, 54.64 58.48, 51.63 58.05 C48.63 57.62, 45.67 57.12, 42.82 56.56 C39.98 56, 37.2 55.37, 34.55 54.69 C31.91 54, 29.36 53.25, 26.95 52.46 C24.54 51.66, 22.25 50.8, 20.12 49.89 C17.99 48.99, 15.99 48.03, 14.16 47.04 C12.34 46.05, 10.66 45.01, 9.16 43.94 C7.67 42.87, 6.34 41.77, 5.2 40.64 C4.06 39.51, 3.09 38.35, 2.32 37.18 C1.56 36.01, 0.97 34.81, 0.58 33.62 C0.2 32.42, 0 31.21, 0 30 C0 28.79, 0.2 27.58, 0.58 26.38 C0.97 25.19, 1.56 23.99, 2.32 22.82 C3.09 21.65, 4.06 20.49, 5.2 19.36 C6.34 18.23, 7.67 17.13, 9.16 16.06 C10.66 14.99, 12.34 13.95, 14.16 12.96 C15.99 11.97, 17.99 11.01, 20.12 10.11 C22.25 9.2, 24.54 8.34, 26.95 7.54 C29.36 6.75, 31.91 6, 34.55 5.31 C37.2 4.63, 39.98 4, 42.82 3.44 C45.67 2.88, 48.63 2.38, 51.63 1.95 C54.64 1.52, 57.73 1.16, 60.85 0.87 C63.98 0.58, 67.17 0.36, 70.36 0.22 C73.55 0.07, 76.79 0, 80 0 C83.21 0, 86.45 0.07, 89.64 0.22 C92.83 0.36, 96.02 0.58, 99.15 0.87 C102.27 1.16, 105.36 1.52, 108.37 1.95 C111.37 2.38, 114.33 2.88, 117.18 3.44 C120.02 4, 122.8 4.63, 125.45 5.31 C128.09 6, 130.64 6.75, 133.05 7.54 C135.46 8.34, 137.75 9.2, 139.88 10.11 C142.01 11.01, 144.01 11.97, 145.84 12.96 C147.66 13.95, 149.34 14.99, 150.84 16.06 C152.33 17.13, 153.66 18.23, 154.8 19.36 C155.94 20.49, 156.91 21.65, 157.68 22.82 C158.44 23.99, 159.03 25.19, 159.42 26.38 C159.8 27.58, 160 28.79, 160 30" stroke="none" stroke-width="0" fill="#ffc9c9"></path><path d="M160 30 C160 31.21, 159.8 32.42, 159.42 33.62 C159.03 34.81, 158.44 36.01, 157.68 37.18 C156.91 38.35, 155.94 39.51, 154.8 40.64 C153.66 41.77, 152.33 42.87, 150.84 43.94 C149.34 45.01, 147.66 46.05, 145.84 47.04 C144.01 48.03, 142.01 48.99, 139.88 49.89 C137.75 50.8, 135.46 51.66, 133.05 52.46 C130.64 53.25, 128.09 54, 125.45 54.69 C122.8 55.37, 120.02 56, 117.18 56.56 C114.33 57.12, 111.37 57.62, 108.37 58.05 C105.36 58.48, 102.27 58.84, 99.15 59.13 C96.02 59.42, 92.83 59.64, 89.64 59.78 C86.45 59.93, 83.21 60, 80 60 C76.79 60, 73.55 59.93, 70.36 59.78 C67.17 59.64, 63.98 59.42, 60.85 59.13 C57.73 58.84, 54.64 58.48, 51.63 58.05 C48.63 57.62, 45.67 57.12, 42.82 56.56 C39.98 56, 37.2 55.37, 34.55 54.69 C31.91 54, 29.36 53.25, 26.95 52.46 C24.54 51.66, 22.25 50.8, 20.12 49.89 C17.99 48.99, 15.99 48.03, 14.16 47.04 C12.34 46.05, 10.66 45.01, 9.16 43.94 C7.67 42.87, 6.34 41.77, 5.2 40.64 C4.06 39.51, 3.09 38.35, 2.32 37.18 C1.56 36.01, 0.97 34.81, 0.58 33.62 C0.2 32.42, 0 31.21, 0 30 C0 28.79, 0.2 27.58, 0.58 26.38 C0.97 25.19, 1.56 23.99, 2.32 22.82 C3.09 21.65, 4.06 20.49, 5.2 19.36 C6.34 18.23, 7.67 17.13, 9.16 16.06 C10.66 14.99, 12.34 13.95, 14.16 12.96 C15.99 11.97, 17.99 11.01, 20.12 10.11 C22.25 9.2, 24.54 8.34, 26.95 7.54 C29.36 6.75, 31.91 6, 34.55 5.31 C37.2 4.63, 39.98 4, 42.82 3.44 C45.67 2.88, 48.63 2.38, 51.63 1.95 C54.64 1.52, 57.73 1.16, 60.85 0.87 C63.98 0.58, 67.17 0.36, 70.36 0.22 C73.55 0.07, 76.79 0, 80 0 C83.21 0, 86.45 0.07, 89.64 0.22 C92.83 0.36, 96.02 0.58, 99.15 0.87 C102.27 1.16, 105.36 1.52, 108.37 1.95 C111.37 2.38, 114.33 2.88, 117.18 3.44 C120.02 4, 122.8 4.63, 125.45 5.31 C128.09 6, 130.64 6.75, 133.05 7.54 C135.46 8.34, 137.75 9.2, 139.88 10.11 C142.01 11.01, 144.01 11.97, 145.84 12.96 C147.66 13.95, 149.34 14.99, 150.84 16.06 C152.33 17.13, 153.66 18.23, 154.8 19.36 C155.94 20.49, 156.91 21.65, 157.68 22.82 C158.44 23.99, 159.03 25.19, 159.42 26.38 C159.8 27.58, 160 28.79, 160 30" stroke="#e03131" stroke-width="2" fill="none"></path></g><g transform="translate(294 471.25) rotate(0 56 8.75)"><text x="56" y="NaN" font-family="Cascadia, Segoe UI Emoji" font-size="14px" fill="#e8590c" text-anchor="middle" style="white-space: pre;" direction="ltr">REFUNDED</text></g><g stroke-linecap="round" transform="translate(270 450) rotate(0 80 30)"><path d="M160 30 C160 31.21, 159.8 32.42, 159.42 33.62 C159.03 34.81, 158.44 36.01, 157.68 37.18 C156.91 38.35, 155.94 39.51, 154.8 40.64 C153.66 41.77, 152.33 42.87, 150.84 43.94 C149.34 45.01, 147.66 46.05, 145.84 47.04 C144.01 48.03, 142.01 48.99, 139.88 49.89 C137.75 50.8, 135.46 51.66, 133.05 52.46 C130.64 53.25, 128.09 54, 125.45 54.69 C122.8 55.37, 120.02 56, 117.18 56.56 C114.33 57.12, 111.37 57.62, 108.37 58.05 C105.36 58.48, 102.27 58.84, 99.15 59.13 C96.02 59.42, 92.83 59.64, 89.64 59.78 C86.45 59.93, 83.21 60, 80 60 C76.79 60, 73.55 59.93, 70.36 59.78 C67.17 59.64, 63.98 59.42, 60.85 59.13 C57.73 58.84, 54.64 58.48, 51.63 58.05 C48.63 57.62, 45.67 57.12, 42.82 56.56 C39.98 56, 37.2 55.37, 34.55 54.69 C31.91 54, 29.36 53.25, 26.95 52.46 C24.54 51.66, 22.25 50.8, 20.12 49.89 C17.99 48.99, 15.99 48.03, 14.16 47.04 C12.34 46.05, 10.66 45.01, 9.16 43.94 C7.67 42.87, 6.34 41.77, 5.2 40.64 C4.06 39.51, 3.09 38.35, 2.32 37.18 C1.56 36.01, 0.97 34.81, 0.58 33.62 C0.2 32.42, 0 31.21, 0 30 C0 28.79, 0.2 27.58, 0.58 26.38 C0.97 25.19, 1.56 23.99, 2.32 22.82 C3.09 21.65, 4.06 20.49, 5.2 19.36 C6.34 18.23, 7.67 17.13, 9.16 16.06 C10.66 14.99, 12.34 13.95, 14.16 12.96 C15.99 11.97, 17.99 11.01, 20.12 10.11 C22.25 9.2, 24.54 8.34, 26.95 7.54 C29.36 6.75, 31.91 6, 34.55 5.31 C37.2 4.63, 39.98 4, 42.82 3.44 C45.67 2.88, 48.63 2.38, 51.63 1.95 C54.64 1.52, 57.73 1.16, 60.85 0.87 C63.98 0.58, 67.17 0.36, 70.36 0.22 C73.55 0.07, 76.79 0, 80 0 C83.21 0, 86.45 0.07, 89.64 0.22 C92.83 0.36, 96.02 0.58, 99.15 0.87 C102.27 1.16, 105.36 1.52, 108.37 1.95 C111.37 2.38, 114.33 2.88, 117.18 3.44 C120.02 4, 122.8 4.63, 125.45 5.31 C128.09 6, 130.64 6.75, 133.05 7.54 C135.46 8.34, 137.75 9.2, 139.88 10.11 C142.01 11.01, 144.01 11.97, 145.84 12.96 C147.66 13.95, 149.34 14.99, 150.84 16.06 C152.33 17.13, 153.66 18.23, 154.8 19.36 C155.94 20.49, 156.91 21.65, 157.68 22.82 C158.44 23.99, 159.03 25.19, 159.42 26.38 C159.8 27.58, 160 28.79, 160 30" stroke="none" stroke-width="0" fill="#ffd8a8"></path><path d="M160 30 C160 31.21, 159.8 32.42, 159.42 33.62 C159.03 34.81, 158.44 36.01, 157.68 37.18 C156.91 38.35, 155.94 39.51, 154.8 40.64 C153.66 41.77, 152.33 42.87, 150.84 43.94 C149.34 45.01, 147.66 46.05, 145.84 47.04 C144.01 48.03, 142.01 48.99, 139.88 49.89 C137.75 50.8, 135.46 51.66, 133.05 52.46 C130.64 53.25, 128.09 54, 125.45 54.69 C122.8 55.37, 120.02 56, 117.18 56.56 C114.33 57.12, 111.37 57.62, 108.37 58.05 C105.36 58.48, 102.27 58.84, 99.15 59.13 C96.02 59.42, 92.83 59.64, 89.64 59.78 C86.45 59.93, 83.21 60, 80 60 C76.79 60, 73.55 59.93, 70.36 59.78 C67.17 59.64, 63.98 59.42, 60.85 59.13 C57.73 58.84, 54.64 58.48, 51.63 58.05 C48.63 57.62, 45.67 57.12, 42.82 56.56 C39.98 56, 37.2 55.37, 34.55 54.69 C31.91 54, 29.36 53.25, 26.95 52.46 C24.54 51.66, 22.25 50.8, 20.12 49.89 C17.99 48.99, 15.99 48.03, 14.16 47.04 C12.34 46.05, 10.66 45.01, 9.16 43.94 C7.67 42.87, 6.34 41.77, 5.2 40.64 C4.06 39.51, 3.09 38.35, 2.32 37.18 C1.56 36.01, 0.97 34.81, 0.58 33.62 C0.2 32.42, 0 31.21, 0 30 C0 28.79, 0.2 27.58, 0.58 26.38 C0.97 25.19, 1.56 23.99, 2.32 22.82 C3.09 21.65, 4.06 20.49, 5.2 19.36 C6.34 18.23, 7.67 17.13, 9.16 16.06 C10.66 14.99, 12.34 13.95, 14.16 12.96 C15.99 11.97, 17.99 11.01, 20.12 10.11 C22.25 9.2, 24.54 8.34, 26.95 7.54 C29.36 6.75, 31.91 6, 34.55 5.31 C37.2 4.63, 39.98 4, 42.82 3.44 C45.67 2.88, 48.63 2.38, 51.63 1.95 C54.64 1.52, 57.73 1.16, 60.85 0.87 C63.98 0.58, 67.17 0.36, 70.36 0.22 C73.55 0.07, 76.79 0, 80 0 C83.21 0, 86.45 0.07, 89.64 0.22 C92.83 0.36, 96.02 0.58, 99.15 0.87 C102.27 1.16, 105.36 1.52, 108.37 1.95 C111.37 2.38, 114.33 2.88, 117.18 3.44 C120.02 4, 122.8 4.63, 125.45 5.31 C128.09 6, 130.64 6.75, 133.05 7.54 C135.46 8.34, 137.75 9.2, 139.88 10.11 C142.01 11.01, 144.01 11.97, 145.84 12.96 C147.66 13.95, 149.34 14.99, 150.84 16.06 C152.33 17.13, 153.66 18.23, 154.8 19.36 C155.94 20.49, 156.91 21.65, 157.68 22.82 C158.44 23.99, 159.03 25.19, 159.42 26.38 C159.8 27.58, 160 28.79, 160 30" stroke="#e8590c" stroke-width="2" fill="none"></path></g><g transform="translate(200 160) rotate(0 30 10)"><text x="30" y="NaN" font-family="Cascadia, Segoe UI Emoji" font-size="12px" fill="#868e96" text-anchor="middle" style="white-space: pre;" direction="ltr">confirm</text></g><g stroke-linecap="round"><g transform="translate(190 220) rotate(0 40 -50)"><path d="M0 0 C13.33 -16.67, 66.67 -83.33, 80 -100 M0 0 C13.33 -16.67, 66.67 -83.33, 80 -100" stroke="#868e96" stroke-width="2" fill="none"></path></g><g transform="translate(190 220) rotate(0 40 -50)"><path d="M70.4 -71.58 C72.51 -77.83, 74.63 -84.09, 80 -100 M70.4 -71.58 C73.93 -82.02, 77.45 -92.46, 80 -100" stroke="#868e96" stroke-width="2" fill="none"></path></g><g transform="translate(190 220) rotate(0 40 -50)"><path d="M54.38 -84.4 C60.02 -87.83, 65.65 -91.26, 80 -100 M54.38 -84.4 C63.79 -90.13, 73.2 -95.86, 80 -100" stroke="#868e96" stroke-width="2" fill="none"></path></g></g><g transform="translate(80 300) rotate(0 30 10)"><text x="30" y="NaN" font-family="Cascadia, Segoe UI Emoji" font-size="12px" fill="#868e96" text-anchor="middle" style="white-space: pre;" direction="ltr">cancel</text></g><g stroke-linecap="round"><g transform="translate(110 250) rotate(0 0 60)"><path d="M0 0 C0 20, 0 100, 0 120 M0 0 C0 20, 0 100, 0 120" stroke="#868e96" stroke-width="2" fill="none"></path></g><g transform="translate(110 250) rotate(0 0 60)"><path d="M-10.26 91.81 C-7.84 98.46, -5.42 105.11, 0 120 M-10.26 91.81 C-7.25 100.08, -4.24 108.34, 0 120" stroke="#868e96" stroke-width="2" fill="none"></path></g><g transform="translate(110 250) rotate(0 0 60)"><path d="M10.26 91.81 C7.84 98.46, 5.42 105.11, 0 120 M10.26 91.81 C7.25 100.08, 4.24 108.34, 0 120" stroke="#868e96" stroke-width="2" fill="none"></path></g></g><g transform="translate(294 210) rotate(0 56 10)"><text x="56" y="NaN" font-family="Cascadia, Segoe UI Emoji" font-size="12px" fill="#868e96" text-anchor="middle" style="white-space: pre;" direction="ltr">payment</text><text x="56" y="NaN" font-family="Cascadia, Segoe UI Emoji" font-size="12px" fill="#868e96" text-anchor="middle" style="white-space: pre;" direction="ltr">received</text></g><g stroke-linecap="round"><g transform="translate(350 150) rotate(0 0 70)"><path d="M0 0 C0 23.33, 0 116.67, 0 140 M0 0 C0 23.33, 0 116.67, 0 140" stroke="#868e96" stroke-width="2" fill="none"></path></g><g transform="translate(350 150) rotate(0 0 70)"><path d="M-10.26 111.81 C-7.01 120.73, -3.77 129.65, 0 140 M-10.26 111.81 C-7.03 120.67, -3.81 129.54, 0 140" stroke="#868e96" stroke-width="2" fill="none"></path></g><g transform="translate(350 150) rotate(0 0 70)"><path d="M10.26 111.81 C7.01 120.73, 3.77 129.65, 0 140 M10.26 111.81 C7.03 120.67, 3.81 129.54, 0 140" stroke="#868e96" stroke-width="2" fill="none"></path></g></g><g transform="translate(200 250) rotate(0 30 10)"><text x="30" y="NaN" font-family="Cascadia, Segoe UI Emoji" font-size="12px" fill="#868e96" text-anchor="middle" style="white-space: pre;" direction="ltr">cancel</text></g><g stroke-linecap="round"><g transform="translate(350 150) rotate(0 -120 110)"><path d="M0 0 C-40 36.67, -200 183.33, -240 220 M0 0 C-40 36.67, -200 183.33, -240 220" stroke="#868e96" stroke-width="2" fill="none"></path></g><g transform="translate(350 150) rotate(0 -120 110)"><path d="M-226.15 193.39 C-230.66 202.05, -235.16 210.7, -240 220 M-226.15 193.39 C-231.32 203.32, -236.49 213.26, -240 220" stroke="#868e96" stroke-width="2" fill="none"></path></g><g transform="translate(350 150) rotate(0 -120 110)"><path d="M-212.29 208.51 C-221.3 212.25, -230.32 215.99, -240 220 M-212.29 208.51 C-222.63 212.8, -232.98 217.09, -240 220" stroke="#868e96" stroke-width="2" fill="none"></path></g></g><g transform="translate(440 260) rotate(0 30 10)"><text x="30" y="NaN" font-family="Cascadia, Segoe UI Emoji" font-size="12px" fill="#868e96" text-anchor="middle" style="white-space: pre;" direction="ltr">ship</text></g><g stroke-linecap="round"><g transform="translate(430 320) rotate(0 40 -50)"><path d="M0 0 C13.33 -16.67, 66.67 -83.33, 80 -100 M0 0 C13.33 -16.67, 66.67 -83.33, 80 -100" stroke="#868e96" stroke-width="2" fill="none"></path></g><g transform="translate(430 320) rotate(0 40 -50)"><path d="M70.4 -71.58 C73.16 -79.75, 75.92 -87.92, 80 -100 M70.4 -71.58 C73.42 -80.52, 76.44 -89.47, 80 -100" stroke="#868e96" stroke-width="2" fill="none"></path></g><g transform="translate(430 320) rotate(0 40 -50)"><path d="M54.38 -84.4 C61.74 -88.88, 69.11 -93.37, 80 -100 M54.38 -84.4 C62.44 -89.31, 70.5 -94.22, 80 -100" stroke="#868e96" stroke-width="2" fill="none"></path></g></g><g transform="translate(558.5 300) rotate(0 31.5 10)"><text x="31.5" y="NaN" font-family="Cascadia, Segoe UI Emoji" font-size="12px" fill="#868e96" text-anchor="middle" style="white-space: pre;" direction="ltr">delivered</text></g><g stroke-linecap="round"><g transform="translate(590 250) rotate(0 0 60)"><path d="M0 0 C0 20, 0 100, 0 120 M0 0 C0 20, 0 100, 0 120" stroke="#868e96" stroke-width="2" fill="none"></path></g><g transform="translate(590 250) rotate(0 0 60)"><path d="M-10.26 91.81 C-7.06 100.62, -3.85 109.42, 0 120 M-10.26 91.81 C-8 98.01, -5.75 104.2, 0 120" stroke="#868e96" stroke-width="2" fill="none"></path></g><g transform="translate(590 250) rotate(0 0 60)"><path d="M10.26 91.81 C7.06 100.62, 3.85 109.42, 0 120 M10.26 91.81 C8 98.01, 5.75 104.2, 0 120" stroke="#868e96" stroke-width="2" fill="none"></path></g></g><g transform="translate(414 340) rotate(0 56 10)"><text x="56" y="NaN" font-family="Cascadia, Segoe UI Emoji" font-size="12px" fill="#868e96" text-anchor="middle" style="white-space: pre;" direction="ltr">return</text><text x="56" y="NaN" font-family="Cascadia, Segoe UI Emoji" font-size="12px" fill="#868e96" text-anchor="middle" style="white-space: pre;" direction="ltr">requested</text></g><g stroke-linecap="round"><g transform="translate(590 250) rotate(0 -120 100)"><path d="M0 0 C-40 33.33, -200 166.67, -240 200" stroke="#868e96" stroke-width="2.5" fill="none" stroke-dasharray="8 10"></path></g><g transform="translate(590 250) rotate(0 -120 100)"><path d="M-224.91 174.07 C-230.58 183.81, -236.24 193.55, -240 200" stroke="#868e96" stroke-width="2.5" fill="none"></path></g><g transform="translate(590 250) rotate(0 -120 100)"><path d="M-211.77 189.84 C-222.37 193.65, -232.97 197.47, -240 200" stroke="#868e96" stroke-width="2.5" fill="none"></path></g></g><g transform="translate(424.5 430) rotate(0 45.5 10)"><text x="45.5" y="NaN" font-family="Cascadia, Segoe UI Emoji" font-size="12px" fill="#868e96" text-anchor="middle" style="white-space: pre;" direction="ltr">30-day</text><text x="45.5" y="NaN" font-family="Cascadia, Segoe UI Emoji" font-size="12px" fill="#868e96" text-anchor="middle" style="white-space: pre;" direction="ltr">return</text></g><g stroke-linecap="round"><g transform="translate(510 400) rotate(0 -40 40)"><path d="M0 0 C-13.33 13.33, -66.67 66.67, -80 80" stroke="#868e96" stroke-width="2.5" fill="none" stroke-dasharray="8 10"></path></g><g transform="translate(510 400) rotate(0 -40 40)"><path d="M-67.32 52.81 C-71.47 61.71, -75.62 70.6, -80 80" stroke="#868e96" stroke-width="2.5" fill="none"></path></g><g transform="translate(510 400) rotate(0 -40 40)"><path d="M-52.81 67.32 C-61.71 71.47, -70.6 75.62, -80 80" stroke="#868e96" stroke-width="2.5" fill="none"></path></g></g><g transform="translate(174 430) rotate(0 56 10)"><text x="56" y="NaN" font-family="Cascadia, Segoe UI Emoji" font-size="12px" fill="#868e96" text-anchor="middle" style="white-space: pre;" direction="ltr">refund</text><text x="56" y="NaN" font-family="Cascadia, Segoe UI Emoji" font-size="12px" fill="#868e96" text-anchor="middle" style="white-space: pre;" direction="ltr">processed</text></g><g stroke-linecap="round"><g transform="translate(190 400) rotate(0 40 40)"><path d="M0 0 C13.33 13.33, 66.67 66.67, 80 80" stroke="#868e96" stroke-width="2.5" fill="none" stroke-dasharray="8 10"></path></g><g transform="translate(190 400) rotate(0 40 40)"><path d="M52.81 67.32 C63.21 72.17, 73.62 77.02, 80 80" stroke="#868e96" stroke-width="2.5" fill="none"></path></g><g transform="translate(190 400) rotate(0 40 40)"><path d="M67.32 52.81 C72.17 63.21, 77.02 73.62, 80 80" stroke="#868e96" stroke-width="2.5" fill="none"></path></g></g></svg>