<svg version="1.1" xmlns="http://www.w3.org/2000/svg" viewBox="0 0 1120 930" width="1120" height="930">
  <!-- svg-source:excalidraw -->
  
  <defs>
    <style>
      @font-face {
        font-family: "Virgil";
        src: url("https://excalidraw.com/Virgil.woff2");
      }
      @font-face {
        font-family: "Cascadia";
        src: url("https://excalidraw.com/Cascadia.woff2");
      }
    </style>
  </defs>
  <rect x="0" y="0" width="1120" height="930" fill="#ffffff"></rect><g transform="translate(150 10) rotate(0 411.59999999999997 17.5)"><text x="0" y="NaN" font-family="Cascadia, Segoe UI Emoji" font-size="28px" fill="#343a40" text-anchor="start" style="white-space: pre;" direction="ltr">Pen Plotter Art System (125 dirs, 21+ algorithms)</text></g><g transform="translate(460 407.5) rotate(0 90 22.5)"><text x="90" y="NaN" font-family="Cascadia, Segoe UI Emoji" font-size="18px" fill="#1971c2" text-anchor="middle" style="white-space: pre;" direction="ltr">Pen Plotter</text><text x="90" y="NaN" font-family="Cascadia, Segoe UI Emoji" font-size="18px" fill="#1971c2" text-anchor="middle" style="white-space: pre;" direction="ltr">Pipeline</text></g><g stroke-linecap="round" transform="translate(450 390) rotate(0 100 40)"><path d="M0 0 L200 0 L200 80 L0 80" stroke="none" stroke-width="0" fill="#a5d8ff"></path><path d="M0 0 C48 0, 96 0, 200 0 M0 0 C58.51 0, 117.02 0, 200 0 M200 0 C200 19.9, 200 39.79, 200 80 M200 0 C200 20.32, 200 40.64, 200 80 M200 80 C123.82 80, 47.63 80, 0 80 M200 80 C125.4 80, 50.79 80, 0 80 M0 80 C0 62.49, 0 44.98, 0 0 M0 80 C0 49.87, 0 19.74, 0 0" stroke="#1971c2" stroke-width="2" fill="none"></path></g><g transform="translate(480 82.5) rotate(0 60 17.5)"><text x="60" y="NaN" font-family="Cascadia, Segoe UI Emoji" font-size="14px" fill="#7048e8" text-anchor="middle" style="white-space: pre;" direction="ltr">Strange</text><text x="60" y="NaN" font-family="Cascadia, Segoe UI Emoji" font-size="14px" fill="#7048e8" text-anchor="middle" style="white-space: pre;" direction="ltr">Attractors</text></g><g stroke-linecap="round" transform="translate(470 70) rotate(0 70 30)"><path d="M0 0 L140 0 L140 60 L0 60" stroke="none" stroke-width="0" fill="#d0bfff"></path><path d="M0 0 C35.77 0, 71.55 0, 140 0 M0 0 C38.45 0, 76.9 0, 140 0 M140 0 C140 18.95, 140 37.91, 140 60 M140 0 C140 16.32, 140 32.65, 140 60 M140 60 C84.18 60, 28.36 60, 0 60 M140 60 C104.1 60, 68.19 60, 0 60 M0 60 C0 37.73, 0 15.46, 0 0 M0 60 C0 44.83, 0 29.66, 0 0" stroke="#7048e8" stroke-width="2" fill="none"></path></g><g stroke-linecap="round"><g transform="translate(550 390) rotate(0 -5 -130)"><path d="M0 0 C-1.67 -43.33, -8.33 -216.67, -10 -260 M0 0 C-1.67 -43.33, -8.33 -216.67, -10 -260" stroke="#868e96" stroke-width="1" fill="none"></path></g><g transform="translate(550 390) rotate(0 -5 -130)"><path d="M1.34 -232.22 C-1.19 -238.42, -3.72 -244.61, -10 -260 M1.34 -232.22 C-1.4 -238.92, -4.13 -245.62, -10 -260" stroke="#868e96" stroke-width="1" fill="none"></path></g><g transform="translate(550 390) rotate(0 -5 -130)"><path d="M-19.17 -231.44 C-17.12 -237.8, -15.08 -244.17, -10 -260 M-19.17 -231.44 C-16.96 -238.33, -14.75 -245.22, -10 -260" stroke="#868e96" stroke-width="1" fill="none"></path></g></g><g transform="translate(660 131.25) rotate(0 60 8.75)"><text x="60" y="NaN" font-family="Cascadia, Segoe UI Emoji" font-size="14px" fill="#7048e8" text-anchor="middle" style="white-space: pre;" direction="ltr">Lorenz</text></g><g stroke-linecap="round" transform="translate(650 110) rotate(0 70 30)"><path d="M0 0 L140 0 L140 60 L0 60" stroke="none" stroke-width="0" fill="#d0bfff"></path><path d="M0 0 C45.02 0, 90.03 0, 140 0 M0 0 C49.71 0, 99.43 0, 140 0 M140 0 C140 17.91, 140 35.82, 140 60 M140 0 C140 19.17, 140 38.34, 140 60 M140 60 C104.69 60, 69.39 60, 0 60 M140 60 C100.71 60, 61.43 60, 0 60 M0 60 C0 36.27, 0 12.54, 0 0 M0 60 C0 38.74, 0 17.49, 0 0" stroke="#7048e8" stroke-width="2" fill="none"></path></g><g stroke-linecap="round"><g transform="translate(550 390) rotate(0 85 -110)"><path d="M0 0 C28.33 -36.67, 141.67 -183.33, 170 -220 M0 0 C28.33 -36.67, 141.67 -183.33, 170 -220" stroke="#868e96" stroke-width="1" fill="none"></path></g><g transform="translate(550 390) rotate(0 85 -110)"><path d="M160.88 -191.42 C164.31 -202.18, 167.75 -212.94, 170 -220 M160.88 -191.42 C163.25 -198.83, 165.61 -206.24, 170 -220" stroke="#868e96" stroke-width="1" fill="none"></path></g><g transform="translate(550 390) rotate(0 85 -110)"><path d="M144.64 -203.97 C154.19 -210, 163.73 -216.04, 170 -220 M144.64 -203.97 C151.22 -208.12, 157.8 -212.28, 170 -220" stroke="#868e96" stroke-width="1" fill="none"></path></g></g><g transform="translate(780 242.5) rotate(0 60 17.5)"><text x="60" y="NaN" font-family="Cascadia, Segoe UI Emoji" font-size="14px" fill="#7048e8" text-anchor="middle" style="white-space: pre;" direction="ltr">Hilbert</text><text x="60" y="NaN" font-family="Cascadia, Segoe UI Emoji" font-size="14px" fill="#7048e8" text-anchor="middle" style="white-space: pre;" direction="ltr">Curve</text></g><g stroke-linecap="round" transform="translate(770 230) rotate(0 70 30)"><path d="M0 0 L140 0 L140 60 L0 60" stroke="none" stroke-width="0" fill="#d0bfff"></path><path d="M0 0 C38.29 0, 76.59 0, 140 0 M0 0 C44.95 0, 89.89 0, 140 0 M140 0 C140 23.46, 140 46.91, 140 60 M140 0 C140 12.31, 140 24.62, 140 60 M140 60 C108.29 60, 76.57 60, 0 60 M140 60 C106.45 60, 72.9 60, 0 60 M0 60 C0 43.46, 0 26.92, 0 0 M0 60 C0 46.74, 0 33.48, 0 0" stroke="#7048e8" stroke-width="2" fill="none"></path></g><g stroke-linecap="round"><g transform="translate(650 430) rotate(0 60 -85)"><path d="M0 0 C20 -28.33, 100 -141.67, 120 -170 M0 0 C20 -28.33, 100 -141.67, 120 -170" stroke="#868e96" stroke-width="1" fill="none"></path></g><g transform="translate(650 430) rotate(0 60 -85)"><path d="M112.13 -141.05 C114.23 -148.79, 116.34 -156.54, 120 -170 M112.13 -141.05 C114.69 -150.48, 117.25 -159.91, 120 -170" stroke="#868e96" stroke-width="1" fill="none"></path></g><g transform="translate(650 430) rotate(0 60 -85)"><path d="M95.36 -152.89 C101.95 -157.46, 108.54 -162.04, 120 -170 M95.36 -152.89 C103.38 -158.46, 111.41 -164.03, 120 -170" stroke="#868e96" stroke-width="1" fill="none"></path></g></g><g transform="translate(840 411.25) rotate(0 60 8.75)"><text x="60" y="NaN" font-family="Cascadia, Segoe UI Emoji" font-size="14px" fill="#7048e8" text-anchor="middle" style="white-space: pre;" direction="ltr">Voronoi</text></g><g stroke-linecap="round" transform="translate(830 390) rotate(0 70 30)"><path d="M0 0 L140 0 L140 60 L0 60" stroke="none" stroke-width="0" fill="#d0bfff"></path><path d="M0 0 C33.3 0, 66.6 0, 140 0 M0 0 C38.25 0, 76.51 0, 140 0 M140 0 C140 13.85, 140 27.71, 140 60 M140 0 C140 16.07, 140 32.14, 140 60 M140 60 C103.37 60, 66.74 60, 0 60 M140 60 C109.28 60, 78.55 60, 0 60 M0 60 C0 40.61, 0 21.21, 0 0 M0 60 C0 40.52, 0 21.05, 0 0" stroke="#7048e8" stroke-width="2" fill="none"></path></g><g stroke-linecap="round"><g transform="translate(650 430) rotate(0 90 -5)"><path d="M0 0 C30 -1.67, 150 -8.33, 180 -10 M0 0 C30 -1.67, 150 -8.33, 180 -10" stroke="#868e96" stroke-width="1" fill="none"></path></g><g transform="translate(650 430) rotate(0 90 -5)"><path d="M152.42 1.81 C162.96 -2.7, 173.49 -7.21, 180 -10 M152.42 1.81 C163.11 -2.77, 173.8 -7.34, 180 -10" stroke="#868e96" stroke-width="1" fill="none"></path></g><g transform="translate(650 430) rotate(0 90 -5)"><path d="M151.28 -18.68 C162.25 -15.36, 173.23 -12.05, 180 -10 M151.28 -18.68 C162.41 -15.32, 173.54 -11.95, 180 -10" stroke="#868e96" stroke-width="1" fill="none"></path></g></g><g transform="translate(780 591.25) rotate(0 60 8.75)"><text x="60" y="NaN" font-family="Cascadia, Segoe UI Emoji" font-size="14px" fill="#7048e8" text-anchor="middle" style="white-space: pre;" direction="ltr">Flow Fields</text></g><g stroke-linecap="round" transform="translate(770 570) rotate(0 70 30)"><path d="M0 0 L140 0 L140 60 L0 60" stroke="none" stroke-width="0" fill="#d0bfff"></path><path d="M0 0 C49.26 0, 98.53 0, 140 0 M0 0 C30.07 0, 60.14 0, 140 0 M140 0 C140 14.55, 140 29.11, 140 60 M140 0 C140 22.88, 140 45.77, 140 60 M140 60 C105.29 60, 70.58 60, 0 60 M140 60 C109.54 60, 79.08 60, 0 60 M0 60 C0 36.17, 0 12.35, 0 0 M0 60 C0 46.43, 0 32.86, 0 0" stroke="#7048e8" stroke-width="2" fill="none"></path></g><g stroke-linecap="round"><g transform="translate(650 430) rotate(0 60 85)"><path d="M0 0 C20 28.33, 100 141.67, 120 170 M0 0 C20 28.33, 100 141.67, 120 170" stroke="#868e96" stroke-width="1" fill="none"></path></g><g transform="translate(650 430) rotate(0 60 85)"><path d="M95.36 152.89 C104.53 159.26, 113.71 165.63, 120 170 M95.36 152.89 C103.11 158.27, 110.87 163.66, 120 170" stroke="#868e96" stroke-width="1" fill="none"></path></g><g transform="translate(650 430) rotate(0 60 85)"><path d="M112.13 141.05 C115.06 151.83, 117.99 162.61, 120 170 M112.13 141.05 C114.6 150.16, 117.08 159.27, 120 170" stroke="#868e96" stroke-width="1" fill="none"></path></g></g><g transform="translate(660 702.5) rotate(0 60 17.5)"><text x="60" y="NaN" font-family="Cascadia, Segoe UI Emoji" font-size="14px" fill="#7048e8" text-anchor="middle" style="white-space: pre;" direction="ltr">Perlin</text><text x="60" y="NaN" font-family="Cascadia, Segoe UI Emoji" font-size="14px" fill="#7048e8" text-anchor="middle" style="white-space: pre;" direction="ltr">Noise</text></g><g stroke-linecap="round" transform="translate(650 690) rotate(0 70 30)"><path d="M0 0 L140 0 L140 60 L0 60" stroke="none" stroke-width="0" fill="#d0bfff"></path><path d="M0 0 C37.62 0, 75.24 0, 140 0 M0 0 C36.97 0, 73.94 0, 140 0 M140 0 C140 17.23, 140 34.46, 140 60 M140 0 C140 21.59, 140 43.18, 140 60 M140 60 C105.62 60, 71.23 60, 0 60 M140 60 C108.19 60, 76.38 60, 0 60 M0 60 C0 36.68, 0 13.35, 0 0 M0 60 C0 43.89, 0 27.77, 0 0" stroke="#7048e8" stroke-width="2" fill="none"></path></g><g stroke-linecap="round"><g transform="translate(550 470) rotate(0 85 110)"><path d="M0 0 C28.33 36.67, 141.67 183.33, 170 220 M0 0 C28.33 36.67, 141.67 183.33, 170 220" stroke="#868e96" stroke-width="1" fill="none"></path></g><g transform="translate(550 470) rotate(0 85 110)"><path d="M144.64 203.97 C154.33 210.09, 164.02 216.22, 170 220 M144.64 203.97 C151.39 208.23, 158.14 212.5, 170 220" stroke="#868e96" stroke-width="1" fill="none"></path></g><g transform="translate(550 470) rotate(0 85 110)"><path d="M160.88 191.42 C164.37 202.34, 167.85 213.26, 170 220 M160.88 191.42 C163.31 199.03, 165.74 206.63, 170 220" stroke="#868e96" stroke-width="1" fill="none"></path></g></g><g transform="translate(480 771.25) rotate(0 60 8.75)"><text x="60" y="NaN" font-family="Cascadia, Segoe UI Emoji" font-size="14px" fill="#7048e8" text-anchor="middle" style="white-space: pre;" direction="ltr">L-Systems</text></g><g stroke-linecap="round" transform="translate(470 750) rotate(0 70 30)"><path d="M0 0 L140 0 L140 60 L0 60" stroke="none" stroke-width="0" fill="#d0bfff"></path><path d="M0 0 C33.3 0, 66.6 0, 140 0 M0 0 C51.72 0, 103.44 0, 140 0 M140 0 C140 17.86, 140 35.72, 140 60 M140 0 C140 18.57, 140 37.14, 140 60 M140 60 C84.6 60, 29.21 60, 0 60 M140 60 C101.26 60, 62.52 60, 0 60 M0 60 C0 42.24, 0 24.47, 0 0 M0 60 C0 45.95, 0 31.9, 0 0" stroke="#7048e8" stroke-width="2" fill="none"></path></g><g stroke-linecap="round"><g transform="translate(550 470) rotate(0 -5 140)"><path d="M0 0 C-1.67 46.67, -8.33 233.33, -10 280 M0 0 C-1.67 46.67, -8.33 233.33, -10 280" stroke="#868e96" stroke-width="1" fill="none"></path></g><g transform="translate(550 470) rotate(0 -5 140)"><path d="M-19.25 251.46 C-16.57 259.72, -13.89 267.98, -10 280 M-19.25 251.46 C-17.03 258.31, -14.81 265.16, -10 280" stroke="#868e96" stroke-width="1" fill="none"></path></g><g transform="translate(550 470) rotate(0 -5 140)"><path d="M1.26 252.19 C-2 260.24, -5.26 268.29, -10 280 M1.26 252.19 C-1.44 258.87, -4.14 265.54, -10 280" stroke="#868e96" stroke-width="1" fill="none"></path></g></g><g transform="translate(320 711.25) rotate(0 60 8.75)"><text x="60" y="NaN" font-family="Cascadia, Segoe UI Emoji" font-size="14px" fill="#7048e8" text-anchor="middle" style="white-space: pre;" direction="ltr">Spirograph</text></g><g stroke-linecap="round" transform="translate(310 690) rotate(0 70 30)"><path d="M0 0 L140 0 L140 60 L0 60" stroke="none" stroke-width="0" fill="#d0bfff"></path><path d="M0 0 C47.37 0, 94.75 0, 140 0 M0 0 C47.07 0, 94.14 0, 140 0 M140 0 C140 12.9, 140 25.8, 140 60 M140 0 C140 18.88, 140 37.76, 140 60 M140 60 C90.87 60, 41.74 60, 0 60 M140 60 C102.1 60, 64.21 60, 0 60 M0 60 C0 46.33, 0 32.66, 0 0 M0 60 C0 42.35, 0 24.7, 0 0" stroke="#7048e8" stroke-width="2" fill="none"></path></g><g stroke-linecap="round"><g transform="translate(550 470) rotate(0 -85 110)"><path d="M0 0 C-28.33 36.67, -141.67 183.33, -170 220 M0 0 C-28.33 36.67, -141.67 183.33, -170 220" stroke="#868e96" stroke-width="1" fill="none"></path></g><g transform="translate(550 470) rotate(0 -85 110)"><path d="M-160.88 191.42 C-163.39 199.28, -165.9 207.15, -170 220 M-160.88 191.42 C-163.25 198.84, -165.62 206.27, -170 220" stroke="#868e96" stroke-width="1" fill="none"></path></g><g transform="translate(550 470) rotate(0 -85 110)"><path d="M-144.64 203.97 C-151.62 208.38, -158.6 212.79, -170 220 M-144.64 203.97 C-151.23 208.13, -157.82 212.3, -170 220" stroke="#868e96" stroke-width="1" fill="none"></path></g></g><g transform="translate(200 591.25) rotate(0 60 8.75)"><text x="60" y="NaN" font-family="Cascadia, Segoe UI Emoji" font-size="14px" fill="#7048e8" text-anchor="middle" style="white-space: pre;" direction="ltr">Maze Gen</text></g><g stroke-linecap="round" transform="translate(190 570) rotate(0 70 30)"><path d="M0 0 L140 0 L140 60 L0 60" stroke="none" stroke-width="0" fill="#d0bfff"></path><path d="M0 0 C48.88 0, 97.77 0, 140 0 M0 0 C51.97 0, 103.93 0, 140 0 M140 0 C140 22.05, 140 44.09, 140 60 M140 0 C140 13.09, 140 26.19, 140 60 M140 60 C89.59 60, 39.18 60, 0 60 M140 60 C105.79 60, 71.58 60, 0 60 M0 60 C0 44.38, 0 28.77, 0 0 M0 60 C0 37.93, 0 15.86, 0 0" stroke="#7048e8" stroke-width="2" fill="none"></path></g><g stroke-linecap="round"><g transform="translate(450 430) rotate(0 -60 85)"><path d="M0 0 C-20 28.33, -100 141.67, -120 170 M0 0 C-20 28.33, -100 141.67, -120 170" stroke="#868e96" stroke-width="1" fill="none"></path></g><g transform="translate(450 430) rotate(0 -60 85)"><path d="M-112.13 141.05 C-114.55 149.96, -116.97 158.86, -120 170 M-112.13 141.05 C-114.99 151.58, -117.85 162.1, -120 170" stroke="#868e96" stroke-width="1" fill="none"></path></g><g transform="translate(450 430) rotate(0 -60 85)"><path d="M-95.36 152.89 C-102.94 158.15, -110.52 163.42, -120 170 M-95.36 152.89 C-104.32 159.11, -113.28 165.33, -120 170" stroke="#868e96" stroke-width="1" fill="none"></path></g></g><g transform="translate(160 422.5) rotate(0 60 17.5)"><text x="60" y="NaN" font-family="Cascadia, Segoe UI Emoji" font-size="14px" fill="#7048e8" text-anchor="middle" style="white-space: pre;" direction="ltr">Cellular</text><text x="60" y="NaN" font-family="Cascadia, Segoe UI Emoji" font-size="14px" fill="#7048e8" text-anchor="middle" style="white-space: pre;" direction="ltr">Automata</text></g><g stroke-linecap="round" transform="translate(150 410) rotate(0 70 30)"><path d="M0 0 L140 0 L140 60 L0 60" stroke="none" stroke-width="0" fill="#d0bfff"></path><path d="M0 0 C43.04 0, 86.08 0, 140 0 M0 0 C28.3 0, 56.6 0, 140 0 M140 0 C140 23.38, 140 46.76, 140 60 M140 0 C140 12.11, 140 24.22, 140 60 M140 60 C98.73 60, 57.46 60, 0 60 M140 60 C92.68 60, 45.36 60, 0 60 M0 60 C0 45.4, 0 30.79, 0 0 M0 60 C0 42.84, 0 25.67, 0 0" stroke="#7048e8" stroke-width="2" fill="none"></path></g><g stroke-linecap="round"><g transform="translate(450 430) rotate(0 -80 5)"><path d="M0 0 C-26.67 1.67, -133.33 8.33, -160 10 M0 0 C-26.67 1.67, -133.33 8.33, -160 10" stroke="#868e96" stroke-width="1" fill="none"></path></g><g transform="translate(450 430) rotate(0 -80 5)"><path d="M-132.5 -2 C-138.58 0.65, -144.65 3.3, -160 10 M-132.5 -2 C-138.56 0.64, -144.61 3.29, -160 10" stroke="#868e96" stroke-width="1" fill="none"></path></g><g transform="translate(450 430) rotate(0 -80 5)"><path d="M-131.22 18.48 C-137.58 16.61, -143.94 14.74, -160 10 M-131.22 18.48 C-137.56 16.61, -143.9 14.75, -160 10" stroke="#868e96" stroke-width="1" fill="none"></path></g></g><g transform="translate(200 242.5) rotate(0 60 17.5)"><text x="60" y="NaN" font-family="Cascadia, Segoe UI Emoji" font-size="14px" fill="#7048e8" text-anchor="middle" style="white-space: pre;" direction="ltr">Wave</text><text x="60" y="NaN" font-family="Cascadia, Segoe UI Emoji" font-size="14px" fill="#7048e8" text-anchor="middle" style="white-space: pre;" direction="ltr">Function</text></g><g stroke-linecap="round" transform="translate(190 230) rotate(0 70 30)"><path d="M0 0 L140 0 L140 60 L0 60" stroke="none" stroke-width="0" fill="#d0bfff"></path><path d="M0 0 C37.48 0, 74.97 0, 140 0 M0 0 C40.07 0, 80.13 0, 140 0 M140 0 C140 14.75, 140 29.49, 140 60 M140 0 C140 23.07, 140 46.15, 140 60 M140 60 C84.73 60, 29.46 60, 0 60 M140 60 C99.48 60, 58.95 60, 0 60 M0 60 C0 37.84, 0 15.67, 0 0 M0 60 C0 37.43, 0 14.86, 0 0" stroke="#7048e8" stroke-width="2" fill="none"></path></g><g stroke-linecap="round"><g transform="translate(450 430) rotate(0 -60 -85)"><path d="M0 0 C-20 -28.33, -100 -141.67, -120 -170 M0 0 C-20 -28.33, -100 -141.67, -120 -170" stroke="#868e96" stroke-width="1" fill="none"></path></g><g transform="translate(450 430) rotate(0 -60 -85)"><path d="M-95.36 -152.89 C-102.56 -157.88, -109.75 -162.88, -120 -170 M-95.36 -152.89 C-101.3 -157.01, -107.23 -161.13, -120 -170" stroke="#868e96" stroke-width="1" fill="none"></path></g><g transform="translate(450 430) rotate(0 -60 -85)"><path d="M-112.13 -141.05 C-114.43 -149.51, -116.72 -157.96, -120 -170 M-112.13 -141.05 C-114.02 -148.03, -115.92 -155, -120 -170" stroke="#868e96" stroke-width="1" fill="none"></path></g></g><g transform="translate(320 122.5) rotate(0 60 17.5)"><text x="60" y="NaN" font-family="Cascadia, Segoe UI Emoji" font-size="14px" fill="#7048e8" text-anchor="middle" style="white-space: pre;" direction="ltr">Reaction</text><text x="60" y="NaN" font-family="Cascadia, Segoe UI Emoji" font-size="14px" fill="#7048e8" text-anchor="middle" style="white-space: pre;" direction="ltr">Diffusion</text></g><g stroke-linecap="round" transform="translate(310 110) rotate(0 70 30)"><path d="M0 0 L140 0 L140 60 L0 60" stroke="none" stroke-width="0" fill="#d0bfff"></path><path d="M0 0 C28.68 0, 57.36 0, 140 0 M0 0 C33.12 0, 66.24 0, 140 0 M140 0 C140 14.31, 140 28.63, 140 60 M140 0 C140 18.12, 140 36.23, 140 60 M140 60 C92.57 60, 45.13 60, 0 60 M140 60 C85.34 60, 30.68 60, 0 60 M0 60 C0 42.78, 0 25.57, 0 0 M0 60 C0 45.26, 0 30.53, 0 0" stroke="#7048e8" stroke-width="2" fill="none"></path></g><g stroke-linecap="round"><g transform="translate(550 390) rotate(0 -85 -110)"><path d="M0 0 C-28.33 -36.67, -141.67 -183.33, -170 -220 M0 0 C-28.33 -36.67, -141.67 -183.33, -170 -220" stroke="#868e96" stroke-width="1" fill="none"></path></g><g transform="translate(550 390) rotate(0 -85 -110)"><path d="M-144.64 -203.97 C-151.27 -208.16, -157.9 -212.35, -170 -220 M-144.64 -203.97 C-150.73 -207.81, -156.81 -211.66, -170 -220" stroke="#868e96" stroke-width="1" fill="none"></path></g><g transform="translate(550 390) rotate(0 -85 -110)"><path d="M-160.88 -191.42 C-163.27 -198.89, -165.65 -206.36, -170 -220 M-160.88 -191.42 C-163.07 -198.28, -165.26 -205.14, -170 -220" stroke="#868e96" stroke-width="1" fill="none"></path></g></g><g transform="translate(100 867.5) rotate(0 80 17.5)"><text x="80" y="NaN" font-family="Cascadia, Segoe UI Emoji" font-size="14px" fill="#7048e8" text-anchor="middle" style="white-space: pre;" direction="ltr">Algorithm</text><text x="80" y="NaN" font-family="Cascadia, Segoe UI Emoji" font-size="14px" fill="#7048e8" text-anchor="middle" style="white-space: pre;" direction="ltr">Selection</text></g><g stroke-linecap="round" transform="translate(90 850) rotate(0 90 35)"><path d="M0 0 L180 0 L180 70 L0 70" stroke="none" stroke-width="0" fill="#d0bfff"></path><path d="M0 0 C43.41 0, 86.81 0, 180 0 M0 0 C67.12 0, 134.23 0, 180 0 M180 0 C180 16.2, 180 32.4, 180 70 M180 0 C180 23.1, 180 46.21, 180 70 M180 70 C113.71 70, 47.42 70, 0 70 M180 70 C136.5 70, 93.01 70, 0 70 M0 70 C0 54.39, 0 38.78, 0 0 M0 70 C0 46.51, 0 23.02, 0 0" stroke="#7048e8" stroke-width="2" fill="none"></path></g><g transform="translate(380 867.5) rotate(0 80 17.5)"><text x="80" y="NaN" font-family="Cascadia, Segoe UI Emoji" font-size="14px" fill="#1971c2" text-anchor="middle" style="white-space: pre;" direction="ltr">SVG</text><text x="80" y="NaN" font-family="Cascadia, Segoe UI Emoji" font-size="14px" fill="#1971c2" text-anchor="middle" style="white-space: pre;" direction="ltr">Generation</text></g><g stroke-linecap="round" transform="translate(370 850) rotate(0 90 35)"><path d="M0 0 L180 0 L180 70 L0 70" stroke="none" stroke-width="0" fill="#a5d8ff"></path><path d="M0 0 C55.83 0, 111.67 0, 180 0 M0 0 C48.63 0, 97.26 0, 180 0 M180 0 C180 27.08, 180 54.17, 180 70 M180 0 C180 17.94, 180 35.88, 180 70 M180 70 C132.91 70, 85.83 70, 0 70 M180 70 C114.99 70, 49.99 70, 0 70 M0 70 C0 52.65, 0 35.3, 0 0 M0 70 C0 54.09, 0 38.19, 0 0" stroke="#1971c2" stroke-width="2" fill="none"></path></g><g transform="translate(290 875) rotate(0 30 10)"><text x="30" y="NaN" font-family="Cascadia, Segoe UI Emoji" font-size="12px" fill="#868e96" text-anchor="middle" style="white-space: pre;" direction="ltr">params</text></g><g stroke-linecap="round"><g transform="translate(270 885) rotate(0 50 0)"><path d="M0 0 C16.67 0, 83.33 0, 100 0 M0 0 C16.67 0, 83.33 0, 100 0" stroke="#868e96" stroke-width="2" fill="none"></path></g><g transform="translate(270 885) rotate(0 50 0)"><path d="M71.81 10.26 C78.3 7.9, 84.8 5.53, 100 0 M71.81 10.26 C79.44 7.48, 87.07 4.7, 100 0" stroke="#868e96" stroke-width="2" fill="none"></path></g><g transform="translate(270 885) rotate(0 50 0)"><path d="M71.81 -10.26 C78.3 -7.9, 84.8 -5.53, 100 0 M71.81 -10.26 C79.44 -7.48, 87.07 -4.7, 100 0" stroke="#868e96" stroke-width="2" fill="none"></path></g></g><g transform="translate(660 867.5) rotate(0 80 17.5)"><text x="80" y="NaN" font-family="Cascadia, Segoe UI Emoji" font-size="14px" fill="#1971c2" text-anchor="middle" style="white-space: pre;" direction="ltr">Path</text><text x="80" y="NaN" font-family="Cascadia, Segoe UI Emoji" font-size="14px" fill="#1971c2" text-anchor="middle" style="white-space: pre;" direction="ltr">Optimization</text></g><g stroke-linecap="round" transform="translate(650 850) rotate(0 90 35)"><path d="M0 0 L180 0 L180 70 L0 70" stroke="none" stroke-width="0" fill="#a5d8ff"></path><path d="M0 0 C56.4 0, 112.8 0, 180 0 M0 0 C45.24 0, 90.47 0, 180 0 M180 0 C180 21.44, 180 42.87, 180 70 M180 0 C180 27.12, 180 54.24, 180 70 M180 70 C124.23 70, 68.45 70, 0 70 M180 70 C138.71 70, 97.42 70, 0 70 M0 70 C0 43.43, 0 16.87, 0 0 M0 70 C0 53.03, 0 36.06, 0 0" stroke="#1971c2" stroke-width="2" fill="none"></path></g><g transform="translate(570 875) rotate(0 30 10)"><text x="30" y="NaN" font-family="Cascadia, Segoe UI Emoji" font-size="12px" fill="#868e96" text-anchor="middle" style="white-space: pre;" direction="ltr">raw SVG</text></g><g stroke-linecap="round"><g transform="translate(550 885) rotate(0 50 0)"><path d="M0 0 C16.67 0, 83.33 0, 100 0 M0 0 C16.67 0, 83.33 0, 100 0" stroke="#868e96" stroke-width="2" fill="none"></path></g><g transform="translate(550 885) rotate(0 50 0)"><path d="M71.81 10.26 C79.79 7.36, 87.77 4.45, 100 0 M71.81 10.26 C80.06 7.26, 88.31 4.25, 100 0" stroke="#868e96" stroke-width="2" fill="none"></path></g><g transform="translate(550 885) rotate(0 50 0)"><path d="M71.81 -10.26 C79.79 -7.36, 87.77 -4.45, 100 0 M71.81 -10.26 C80.06 -7.26, 88.31 -4.25, 100 0" stroke="#868e96" stroke-width="2" fill="none"></path></g></g><g transform="translate(940 867.5) rotate(0 80 17.5)"><text x="80" y="NaN" font-family="Cascadia, Segoe UI Emoji" font-size="14px" fill="#1971c2" text-anchor="middle" style="white-space: pre;" direction="ltr">AxiDraw</text><text x="80" y="NaN" font-family="Cascadia, Segoe UI Emoji" font-size="14px" fill="#1971c2" text-anchor="middle" style="white-space: pre;" direction="ltr">Plotter</text></g><g stroke-linecap="round" transform="translate(930 850) rotate(0 90 35)"><path d="M0 0 L180 0 L180 70 L0 70" stroke="none" stroke-width="0" fill="#a5d8ff"></path><path d="M0 0 C58.39 0, 116.79 0, 180 0 M0 0 C48.47 0, 96.94 0, 180 0 M180 0 C180 18.09, 180 36.19, 180 70 M180 0 C180 18.01, 180 36.03, 180 70 M180 70 C140.08 70, 100.17 70, 0 70 M180 70 C140.32 70, 100.65 70, 0 70 M0 70 C0 53.21, 0 36.42, 0 0 M0 70 C0 53.49, 0 36.97, 0 0" stroke="#1971c2" stroke-width="2" fill="none"></path></g><g transform="translate(848.5 875) rotate(0 31.5 10)"><text x="31.5" y="NaN" font-family="Cascadia, Segoe UI Emoji" font-size="12px" fill="#868e96" text-anchor="middle" style="white-space: pre;" direction="ltr">optimized</text></g><g stroke-linecap="round"><g transform="translate(830 885) rotate(0 50 0)"><path d="M0 0 C16.67 0, 83.33 0, 100 0 M0 0 C16.67 0, 83.33 0, 100 0" stroke="#868e96" stroke-width="2" fill="none"></path></g><g transform="translate(830 885) rotate(0 50 0)"><path d="M71.81 10.26 C80.58 7.07, 89.35 3.87, 100 0 M71.81 10.26 C77.86 8.06, 83.91 5.86, 100 0" stroke="#868e96" stroke-width="2" fill="none"></path></g><g transform="translate(830 885) rotate(0 50 0)"><path d="M71.81 -10.26 C80.58 -7.07, 89.35 -3.87, 100 0 M71.81 -10.26 C77.86 -8.06, 83.91 -5.86, 100 0" stroke="#868e96" stroke-width="2" fill="none"></path></g></g><g transform="translate(20 700) rotate(0 70 20)"><text x="70" y="NaN" font-family="Cascadia, Segoe UI Emoji" font-size="16px" fill="#2f9e44" text-anchor="middle" style="white-space: pre;" direction="ltr">Parameters</text><text x="70" y="NaN" font-family="Cascadia, Segoe UI Emoji" font-size="16px" fill="#2f9e44" text-anchor="middle" style="white-space: pre;" direction="ltr">&amp; Seeds</text></g><g stroke-linecap="round" transform="translate(10 690) rotate(0 80 30)"><path d="M0 0 L160 0 L160 60 L0 60" stroke="none" stroke-width="0" fill="#b2f2bb"></path><path d="M0 0 C62.43 0, 124.85 0, 160 0 M0 0 C56.58 0, 113.16 0, 160 0 M160 0 C160 12.63, 160 25.26, 160 60 M160 0 C160 13.22, 160 26.43, 160 60 M160 60 C113.98 60, 67.97 60, 0 60 M160 60 C120.14 60, 80.28 60, 0 60 M0 60 C0 46.47, 0 32.94, 0 0 M0 60 C0 37.32, 0 14.65, 0 0" stroke="#2f9e44" stroke-width="2" fill="none"></path></g><g stroke-linecap="round"><g transform="translate(90 750) rotate(0 45 50)"><path d="M0 0 C15 16.67, 75 83.33, 90 100 M0 0 C15 16.67, 75 83.33, 90 100" stroke="#868e96" stroke-width="2" fill="none"></path></g><g transform="translate(90 750) rotate(0 45 50)"><path d="M63.51 85.91 C71.57 90.2, 79.63 94.48, 90 100 M63.51 85.91 C69.6 89.15, 75.69 92.39, 90 100" stroke="#868e96" stroke-width="2" fill="none"></path></g><g transform="translate(90 750) rotate(0 45 50)"><path d="M78.77 72.18 C82.19 80.65, 85.6 89.11, 90 100 M78.77 72.18 C81.35 78.58, 83.93 84.97, 90 100" stroke="#868e96" stroke-width="2" fill="none"></path></g></g><g transform="translate(860 710) rotate(0 70 10)"><text x="70" y="NaN" font-family="Cascadia, Segoe UI Emoji" font-size="16px" fill="#2f9e44" text-anchor="middle" style="white-space: pre;" direction="ltr">Physical Art</text></g><g stroke-linecap="round" transform="translate(850 690) rotate(0 80 30)"><path d="M0 0 L160 0 L160 60 L0 60" stroke="none" stroke-width="0" fill="#b2f2bb"></path><path d="M0 0 C62.81 0, 125.62 0, 160 0 M0 0 C61.65 0, 123.29 0, 160 0 M160 0 C160 19.01, 160 38.03, 160 60 M160 0 C160 12.37, 160 24.75, 160 60 M160 60 C103.98 60, 47.96 60, 0 60 M160 60 C106.89 60, 53.78 60, 0 60 M0 60 C0 43.82, 0 27.64, 0 0 M0 60 C0 41.99, 0 23.98, 0 0" stroke="#2f9e44" stroke-width="2" fill="none"></path></g><g stroke-linecap="round"><g transform="translate(1020 850) rotate(0 -45 -50)"><path d="M0 0 C-15 -16.67, -75 -83.33, -90 -100 M0 0 C-15 -16.67, -75 -83.33, -90 -100" stroke="#868e96" stroke-width="2" fill="none"></path></g><g transform="translate(1020 850) rotate(0 -45 -50)"><path d="M-63.51 -85.91 C-70.89 -89.84, -78.27 -93.76, -90 -100 M-63.51 -85.91 C-70.61 -89.68, -77.7 -93.46, -90 -100" stroke="#868e96" stroke-width="2" fill="none"></path></g><g transform="translate(1020 850) rotate(0 -45 -50)"><path d="M-78.77 -72.18 C-81.9 -79.93, -85.03 -87.68, -90 -100 M-78.77 -72.18 C-81.78 -79.63, -84.78 -87.08, -90 -100" stroke="#868e96" stroke-width="2" fill="none"></path></g></g></svg>