<svg version="1.1" xmlns="http://www.w3.org/2000/svg" viewBox="0 0 660 80" width="660" height="80">
  <!-- svg-source:excalidraw -->
  
  <defs>
    <style>
      @font-face {
        font-family: "Virgil";
        src: url("https://excalidraw.com/Virgil.woff2");
      }
      @font-face {
        font-family: "Cascadia";
        src: url("https://excalidraw.com/Cascadia.woff2");
      }
    </style>
  </defs>
  <rect x="0" y="0" width="660" height="80" fill="#ffffff"></rect><g transform="translate(20 30) rotate(0 70 10)"><text x="70" y="NaN" font-family="Cascadia, Segoe UI Emoji" font-size="16px" fill="#2f9e44" text-anchor="middle" style="white-space: pre;" direction="ltr">Input</text></g><g stroke-linecap="round" transform="translate(10 10) rotate(0 80 30)"><path d="M0 0 L160 0 L160 60 L0 60" stroke="none" stroke-width="0" fill="#b2f2bb"></path><path d="M0 0 C57.07 0, 114.14 0, 160 0 M0 0 C32.5 0, 64.99 0, 160 0 M160 0 C160 21.06, 160 42.11, 160 60 M160 0 C160 18.45, 160 36.9, 160 60 M160 60 C100.82 60, 41.64 60, 0 60 M160 60 C108.58 60, 57.17 60, 0 60 M0 60 C0 45.04, 0 30.07, 0 0 M0 60 C0 40.42, 0 20.84, 0 0" stroke="#2f9e44" stroke-width="2" fill="none"></path></g><g transform="translate(260 30) rotate(0 70 10)"><text x="70" y="NaN" font-family="Cascadia, Segoe UI Emoji" font-size="16px" fill="#1971c2" text-anchor="middle" style="white-space: pre;" direction="ltr">Process</text></g><g stroke-linecap="round" transform="translate(250 10) rotate(0 80 30)"><path d="M0 0 L160 0 L160 60 L0 60" stroke="none" stroke-width="0" fill="#a5d8ff"></path><path d="M0 0 C41.39 0, 82.77 0, 160 0 M0 0 C57.51 0, 115.02 0, 160 0 M160 0 C160 19.21, 160 38.41, 160 60 M160 0 C160 22.75, 160 45.5, 160 60 M160 60 C107.41 60, 54.82 60, 0 60 M160 60 C119.49 60, 78.98 60, 0 60 M0 60 C0 45.26, 0 30.51, 0 0 M0 60 C0 44.02, 0 28.03, 0 0" stroke="#1971c2" stroke-width="2" fill="none"></path></g><g transform="translate(500 30) rotate(0 70 10)"><text x="70" y="NaN" font-family="Cascadia, Segoe UI Emoji" font-size="16px" fill="#7048e8" text-anchor="middle" style="white-space: pre;" direction="ltr">Output</text></g><g stroke-linecap="round" transform="translate(490 10) rotate(0 80 30)"><path d="M0 0 L160 0 L160 60 L0 60" stroke="none" stroke-width="0" fill="#d0bfff"></path><path d="M0 0 C37.14 0, 74.28 0, 160 0 M0 0 C37.67 0, 75.34 0, 160 0 M160 0 C160 20.66, 160 41.32, 160 60 M160 0 C160 13.3, 160 26.6, 160 60 M160 60 C118.93 60, 77.85 60, 0 60 M160 60 C127.9 60, 95.81 60, 0 60 M0 60 C0 37.72, 0 15.44, 0 0 M0 60 C0 45.98, 0 31.96, 0 0" stroke="#7048e8" stroke-width="2" fill="none"></path></g><g transform="translate(180 30) rotate(0 30 10)"><text x="30" y="NaN" font-family="Cascadia, Segoe UI Emoji" font-size="12px" fill="#868e96" text-anchor="middle" style="white-space: pre;" direction="ltr">parse</text></g><g stroke-linecap="round"><g transform="translate(170 40) rotate(0 40 0)"><path d="M0 0 C13.33 0, 66.67 0, 80 0 M0 0 C13.33 0, 66.67 0, 80 0" stroke="#868e96" stroke-width="2" fill="none"></path></g><g transform="translate(170 40) rotate(0 40 0)"><path d="M51.81 10.26 C60.5 7.1, 69.19 3.93, 80 0 M51.81 10.26 C63.08 6.16, 74.35 2.05, 80 0" stroke="#868e96" stroke-width="2" fill="none"></path></g><g transform="translate(170 40) rotate(0 40 0)"><path d="M51.81 -10.26 C60.5 -7.1, 69.19 -3.93, 80 0 M51.81 -10.26 C63.08 -6.16, 74.35 -2.05, 80 0" stroke="#868e96" stroke-width="2" fill="none"></path></g></g><g transform="translate(418.5 30) rotate(0 31.5 10)"><text x="31.5" y="NaN" font-family="Cascadia, Segoe UI Emoji" font-size="12px" fill="#868e96" text-anchor="middle" style="white-space: pre;" direction="ltr">transform</text></g><g stroke-linecap="round"><g transform="translate(410 40) rotate(0 40 0)"><path d="M0 0 C13.33 0, 66.67 0, 80 0 M0 0 C13.33 0, 66.67 0, 80 0" stroke="#868e96" stroke-width="2" fill="none"></path></g><g transform="translate(410 40) rotate(0 40 0)"><path d="M51.81 10.26 C58.3 7.9, 64.79 5.53, 80 0 M51.81 10.26 C59.34 7.52, 66.86 4.78, 80 0" stroke="#868e96" stroke-width="2" fill="none"></path></g><g transform="translate(410 40) rotate(0 40 0)"><path d="M51.81 -10.26 C58.3 -7.9, 64.79 -5.53, 80 0 M51.81 -10.26 C59.34 -7.52, 66.86 -4.78, 80 0" stroke="#868e96" stroke-width="2" fill="none"></path></g></g></svg>