<svg version="1.1" xmlns="http://www.w3.org/2000/svg" viewBox="0 0 940 688" width="940" height="688">
  <!-- svg-source:excalidraw -->
  
  <defs>
    <style>
      @font-face {
        font-family: "Virgil";
        src: url("https://excalidraw.com/Virgil.woff2");
      }
      @font-face {
        font-family: "Cascadia";
        src: url("https://excalidraw.com/Cascadia.woff2");
      }
    </style>
  </defs>
  <rect x="0" y="0" width="940" height="688" fill="#ffffff"></rect><g transform="translate(10 10) rotate(0 78 12.5)"><text x="0" y="NaN" font-family="Cascadia, Segoe UI Emoji" font-size="20px" fill="#343a40" text-anchor="start" style="white-space: pre;" direction="ltr">Settings Page</text></g><g transform="translate(40 67.5) rotate(0 440 12.5)"><text x="440" y="NaN" font-family="Cascadia, Segoe UI Emoji" font-size="20px" fill="#343a40" text-anchor="middle" style="white-space: pre;" direction="ltr">Settings</text></g><g stroke-linecap="round" transform="translate(30 50) rotate(0 450 30)"><path d="M0 0 L900 0 L900 60 L0 60" stroke="none" stroke-width="0" fill="#adb5bd"></path><path d="M0 0 C284.59 0, 569.18 0, 900 0 M0 0 C344.5 0, 688.99 0, 900 0 M900 0 C900 16.26, 900 32.51, 900 60 M900 0 C900 19.18, 900 38.36, 900 60 M900 60 C691.57 60, 483.15 60, 0 60 M900 60 C702.39 60, 504.79 60, 0 60 M0 60 C0 42.31, 0 24.63, 0 0 M0 60 C0 45.21, 0 30.41, 0 0" stroke="#343a40" stroke-width="2" fill="none"></path></g><g transform="translate(30 150) rotate(0 33.6 10)"><text x="0" y="NaN" font-family="Cascadia, Segoe UI Emoji" font-size="16px" fill="#343a40" text-anchor="start" style="white-space: pre;" direction="ltr">Account</text></g><g stroke-linecap="round"><g transform="translate(30 170) rotate(0 450 0)"><path d="M0 0 C150 0, 750 0, 900 0" stroke="#868e96" stroke-width="1.5" fill="none" stroke-dasharray="8 9"></path></g></g><g transform="translate(50 190) rotate(0 46.8 8.125)"><text x="0" y="NaN" font-family="Cascadia, Segoe UI Emoji" font-size="13px" fill="#343a40" text-anchor="start" style="white-space: pre;" direction="ltr">Display Name</text></g><g transform="translate(220 200.5) rotate(0 190 7.5)"><text x="190" y="NaN" font-family="Cascadia, Segoe UI Emoji" font-size="12px" fill="#868e96" text-anchor="middle" style="white-space: pre;" direction="ltr">David Murray</text></g><g stroke-linecap="round" transform="translate(210 190) rotate(0 200 18)"><path d="M0 0 L400 0 L400 36 L0 36" stroke="none" stroke-width="0" fill="#ffffff"></path><path d="M0 0 C111.26 0, 222.53 0, 400 0 M0 0 C133.29 0, 266.57 0, 400 0 M400 0 C400 12.88, 400 25.76, 400 36 M400 0 C400 12.88, 400 25.76, 400 36 M400 36 C273.48 36, 146.95 36, 0 36 M400 36 C278.13 36, 156.26 36, 0 36 M0 36 C0 24.61, 0 13.21, 0 0 M0 36 C0 26.24, 0 16.48, 0 0" stroke="#868e96" stroke-width="2" fill="none"></path></g><g transform="translate(50 270) rotate(0 19.5 8.125)"><text x="0" y="NaN" font-family="Cascadia, Segoe UI Emoji" font-size="13px" fill="#343a40" text-anchor="start" style="white-space: pre;" direction="ltr">Email</text></g><g transform="translate(220 260.5) rotate(0 190 7.5)"><text x="190" y="NaN" font-family="Cascadia, Segoe UI Emoji" font-size="12px" fill="#868e96" text-anchor="middle" style="white-space: pre;" direction="ltr">david@example.com</text></g><g stroke-linecap="round" transform="translate(210 250) rotate(0 200 18)"><path d="M0 0 L400 0 L400 36 L0 36" stroke="none" stroke-width="0" fill="#ffffff"></path><path d="M0 0 C149.87 0, 299.74 0, 400 0 M0 0 C80.07 0, 160.13 0, 400 0 M400 0 C400 12.85, 400 25.7, 400 36 M400 0 C400 11.32, 400 22.65, 400 36 M400 36 C252.89 36, 105.78 36, 0 36 M400 36 C296.03 36, 192.07 36, 0 36 M0 36 C0 22.29, 0 8.59, 0 0 M0 36 C0 28.79, 0 21.58, 0 0" stroke="#868e96" stroke-width="2" fill="none"></path></g><g transform="translate(50 310) rotate(0 31.200000000000003 8.125)"><text x="0" y="NaN" font-family="Cascadia, Segoe UI Emoji" font-size="13px" fill="#343a40" text-anchor="start" style="white-space: pre;" direction="ltr">Timezone</text></g><g transform="translate(220 320.5) rotate(0 190 7.5)"><text x="190" y="NaN" font-family="Cascadia, Segoe UI Emoji" font-size="12px" fill="#868e96" text-anchor="middle" style="white-space: pre;" direction="ltr">PST (America/Los_Angeles)</text></g><g stroke-linecap="round" transform="translate(210 310) rotate(0 200 18)"><path d="M0 0 L400 0 L400 36 L0 36" stroke="none" stroke-width="0" fill="#ffffff"></path><path d="M0 0 C120.32 0, 240.63 0, 400 0 M0 0 C153.22 0, 306.44 0, 400 0 M400 0 C400 11.59, 400 23.19, 400 36 M400 0 C400 14.08, 400 28.16, 400 36 M400 36 C306.83 36, 213.65 36, 0 36 M400 36 C283.3 36, 166.59 36, 0 36 M0 36 C0 24.13, 0 12.26, 0 0 M0 36 C0 26.9, 0 17.81, 0 0" stroke="#868e96" stroke-width="2" fill="none"></path></g><g transform="translate(30 410) rotate(0 62.400000000000006 10)"><text x="0" y="NaN" font-family="Cascadia, Segoe UI Emoji" font-size="16px" fill="#343a40" text-anchor="start" style="white-space: pre;" direction="ltr">Notifications</text></g><g stroke-linecap="round"><g transform="translate(30 430) rotate(0 450 0)"><path d="M0 0 C150 0, 750 0, 900 0" stroke="#868e96" stroke-width="1.5" fill="none" stroke-dasharray="8 9"></path></g></g><g transform="translate(50 470) rotate(0 74.1 8.125)"><text x="0" y="NaN" font-family="Cascadia, Segoe UI Emoji" font-size="13px" fill="#343a40" text-anchor="start" style="white-space: pre;" direction="ltr">Email notifications</text></g><g transform="translate(537.5 457.125) rotate(0 17.5 6.875)"><text x="17.5" y="NaN" font-family="Cascadia, Segoe UI Emoji" font-size="11px" fill="#2f9e44" text-anchor="middle" style="white-space: pre;" direction="ltr">ON</text></g><g stroke-linecap="round" transform="translate(530 450) rotate(0 25 14)"><path d="M50 14 C50 14.81, 49.87 15.63, 49.62 16.43 C49.37 17.23, 48.99 18.03, 48.49 18.79 C48 19.55, 47.37 20.3, 46.65 21 C45.93 21.7, 45.08 22.38, 44.15 23 C43.22 23.62, 42.18 24.2, 41.07 24.72 C39.96 25.25, 38.75 25.72, 37.5 26.12 C36.25 26.53, 34.91 26.88, 33.55 27.16 C32.19 27.43, 30.77 27.65, 29.34 27.79 C27.92 27.93, 26.45 28, 25 28 C23.55 28, 22.08 27.93, 20.66 27.79 C19.23 27.65, 17.81 27.43, 16.45 27.16 C15.09 26.88, 13.75 26.53, 12.5 26.12 C11.25 25.72, 10.04 25.25, 8.93 24.72 C7.82 24.2, 6.78 23.62, 5.85 23 C4.92 22.38, 4.07 21.7, 3.35 21 C2.63 20.3, 2 19.55, 1.51 18.79 C1.01 18.03, 0.63 17.23, 0.38 16.43 C0.13 15.63, 0 14.81, 0 14 C0 13.19, 0.13 12.37, 0.38 11.57 C0.63 10.77, 1.01 9.97, 1.51 9.21 C2 8.45, 2.63 7.7, 3.35 7 C4.07 6.3, 4.92 5.62, 5.85 5 C6.78 4.38, 7.82 3.8, 8.93 3.28 C10.04 2.75, 11.25 2.28, 12.5 1.88 C13.75 1.47, 15.09 1.12, 16.45 0.84 C17.81 0.57, 19.23 0.35, 20.66 0.21 C22.08 0.07, 23.55 0, 25 0 C26.45 0, 27.92 0.07, 29.34 0.21 C30.77 0.35, 32.19 0.57, 33.55 0.84 C34.91 1.12, 36.25 1.47, 37.5 1.88 C38.75 2.28, 39.96 2.75, 41.07 3.28 C42.18 3.8, 43.22 4.38, 44.15 5 C45.08 5.62, 45.93 6.3, 46.65 7 C47.37 7.7, 48 8.45, 48.49 9.21 C48.99 9.97, 49.37 10.77, 49.62 11.57 C49.87 12.37, 49.94 13.59, 50 14 C50.06 14.41, 50.06 13.59, 50 14" stroke="none" stroke-width="0" fill="#b2f2bb"></path><path d="M50 14 C50 14.81, 49.87 15.63, 49.62 16.43 C49.37 17.23, 48.99 18.03, 48.49 18.79 C48 19.55, 47.37 20.3, 46.65 21 C45.93 21.7, 45.08 22.38, 44.15 23 C43.22 23.62, 42.18 24.2, 41.07 24.72 C39.96 25.25, 38.75 25.72, 37.5 26.12 C36.25 26.53, 34.91 26.88, 33.55 27.16 C32.19 27.43, 30.77 27.65, 29.34 27.79 C27.92 27.93, 26.45 28, 25 28 C23.55 28, 22.08 27.93, 20.66 27.79 C19.23 27.65, 17.81 27.43, 16.45 27.16 C15.09 26.88, 13.75 26.53, 12.5 26.12 C11.25 25.72, 10.04 25.25, 8.93 24.72 C7.82 24.2, 6.78 23.62, 5.85 23 C4.92 22.38, 4.07 21.7, 3.35 21 C2.63 20.3, 2 19.55, 1.51 18.79 C1.01 18.03, 0.63 17.23, 0.38 16.43 C0.13 15.63, 0 14.81, 0 14 C0 13.19, 0.13 12.37, 0.38 11.57 C0.63 10.77, 1.01 9.97, 1.51 9.21 C2 8.45, 2.63 7.7, 3.35 7 C4.07 6.3, 4.92 5.62, 5.85 5 C6.78 4.38, 7.82 3.8, 8.93 3.28 C10.04 2.75, 11.25 2.28, 12.5 1.88 C13.75 1.47, 15.09 1.12, 16.45 0.84 C17.81 0.57, 19.23 0.35, 20.66 0.21 C22.08 0.07, 23.55 0, 25 0 C26.45 0, 27.92 0.07, 29.34 0.21 C30.77 0.35, 32.19 0.57, 33.55 0.84 C34.91 1.12, 36.25 1.47, 37.5 1.88 C38.75 2.28, 39.96 2.75, 41.07 3.28 C42.18 3.8, 43.22 4.38, 44.15 5 C45.08 5.62, 45.93 6.3, 46.65 7 C47.37 7.7, 48 8.45, 48.49 9.21 C48.99 9.97, 49.37 10.77, 49.62 11.57 C49.87 12.37, 49.94 13.59, 50 14 C50.06 14.41, 50.06 13.59, 50 14" stroke="#2f9e44" stroke-width="2" fill="none"></path></g><g transform="translate(50 510) rotate(0 74.1 8.125)"><text x="0" y="NaN" font-family="Cascadia, Segoe UI Emoji" font-size="13px" fill="#343a40" text-anchor="start" style="white-space: pre;" direction="ltr">Slack notifications</text></g><g transform="translate(537.5 517.125) rotate(0 17.5 6.875)"><text x="17.5" y="NaN" font-family="Cascadia, Segoe UI Emoji" font-size="11px" fill="#868e96" text-anchor="middle" style="white-space: pre;" direction="ltr">OFF</text></g><g stroke-linecap="round" transform="translate(530 510) rotate(0 25 14)"><path d="M50 14 C50 14.81, 49.87 15.63, 49.62 16.43 C49.37 17.23, 48.99 18.03, 48.49 18.79 C48 19.55, 47.37 20.3, 46.65 21 C45.93 21.7, 45.08 22.38, 44.15 23 C43.22 23.62, 42.18 24.2, 41.07 24.72 C39.96 25.25, 38.75 25.72, 37.5 26.12 C36.25 26.53, 34.91 26.88, 33.55 27.16 C32.19 27.43, 30.77 27.65, 29.34 27.79 C27.92 27.93, 26.45 28, 25 28 C23.55 28, 22.08 27.93, 20.66 27.79 C19.23 27.65, 17.81 27.43, 16.45 27.16 C15.09 26.88, 13.75 26.53, 12.5 26.12 C11.25 25.72, 10.04 25.25, 8.93 24.72 C7.82 24.2, 6.78 23.62, 5.85 23 C4.92 22.38, 4.07 21.7, 3.35 21 C2.63 20.3, 2 19.55, 1.51 18.79 C1.01 18.03, 0.63 17.23, 0.38 16.43 C0.13 15.63, 0 14.81, 0 14 C0 13.19, 0.13 12.37, 0.38 11.57 C0.63 10.77, 1.01 9.97, 1.51 9.21 C2 8.45, 2.63 7.7, 3.35 7 C4.07 6.3, 4.92 5.62, 5.85 5 C6.78 4.38, 7.82 3.8, 8.93 3.28 C10.04 2.75, 11.25 2.28, 12.5 1.88 C13.75 1.47, 15.09 1.12, 16.45 0.84 C17.81 0.57, 19.23 0.35, 20.66 0.21 C22.08 0.07, 23.55 0, 25 0 C26.45 0, 27.92 0.07, 29.34 0.21 C30.77 0.35, 32.19 0.57, 33.55 0.84 C34.91 1.12, 36.25 1.47, 37.5 1.88 C38.75 2.28, 39.96 2.75, 41.07 3.28 C42.18 3.8, 43.22 4.38, 44.15 5 C45.08 5.62, 45.93 6.3, 46.65 7 C47.37 7.7, 48 8.45, 48.49 9.21 C48.99 9.97, 49.37 10.77, 49.62 11.57 C49.87 12.37, 49.94 13.59, 50 14 C50.06 14.41, 50.06 13.59, 50 14" stroke="none" stroke-width="0" fill="#dee2e6"></path><path d="M50 14 C50 14.81, 49.87 15.63, 49.62 16.43 C49.37 17.23, 48.99 18.03, 48.49 18.79 C48 19.55, 47.37 20.3, 46.65 21 C45.93 21.7, 45.08 22.38, 44.15 23 C43.22 23.62, 42.18 24.2, 41.07 24.72 C39.96 25.25, 38.75 25.72, 37.5 26.12 C36.25 26.53, 34.91 26.88, 33.55 27.16 C32.19 27.43, 30.77 27.65, 29.34 27.79 C27.92 27.93, 26.45 28, 25 28 C23.55 28, 22.08 27.93, 20.66 27.79 C19.23 27.65, 17.81 27.43, 16.45 27.16 C15.09 26.88, 13.75 26.53, 12.5 26.12 C11.25 25.72, 10.04 25.25, 8.93 24.72 C7.82 24.2, 6.78 23.62, 5.85 23 C4.92 22.38, 4.07 21.7, 3.35 21 C2.63 20.3, 2 19.55, 1.51 18.79 C1.01 18.03, 0.63 17.23, 0.38 16.43 C0.13 15.63, 0 14.81, 0 14 C0 13.19, 0.13 12.37, 0.38 11.57 C0.63 10.77, 1.01 9.97, 1.51 9.21 C2 8.45, 2.63 7.7, 3.35 7 C4.07 6.3, 4.92 5.62, 5.85 5 C6.78 4.38, 7.82 3.8, 8.93 3.28 C10.04 2.75, 11.25 2.28, 12.5 1.88 C13.75 1.47, 15.09 1.12, 16.45 0.84 C17.81 0.57, 19.23 0.35, 20.66 0.21 C22.08 0.07, 23.55 0, 25 0 C26.45 0, 27.92 0.07, 29.34 0.21 C30.77 0.35, 32.19 0.57, 33.55 0.84 C34.91 1.12, 36.25 1.47, 37.5 1.88 C38.75 2.28, 39.96 2.75, 41.07 3.28 C42.18 3.8, 43.22 4.38, 44.15 5 C45.08 5.62, 45.93 6.3, 46.65 7 C47.37 7.7, 48 8.45, 48.49 9.21 C48.99 9.97, 49.37 10.77, 49.62 11.57 C49.87 12.37, 49.94 13.59, 50 14 C50.06 14.41, 50.06 13.59, 50 14" stroke="#868e96" stroke-width="2" fill="none"></path></g><g transform="translate(50 550) rotate(0 50.69999999999999 8.125)"><text x="0" y="NaN" font-family="Cascadia, Segoe UI Emoji" font-size="13px" fill="#343a40" text-anchor="start" style="white-space: pre;" direction="ltr">Weekly digest</text></g><g transform="translate(537.5 557.125) rotate(0 17.5 6.875)"><text x="17.5" y="NaN" font-family="Cascadia, Segoe UI Emoji" font-size="11px" fill="#2f9e44" text-anchor="middle" style="white-space: pre;" direction="ltr">ON</text></g><g stroke-linecap="round" transform="translate(530 550) rotate(0 25 14)"><path d="M50 14 C50 14.81, 49.87 15.63, 49.62 16.43 C49.37 17.23, 48.99 18.03, 48.49 18.79 C48 19.55, 47.37 20.3, 46.65 21 C45.93 21.7, 45.08 22.38, 44.15 23 C43.22 23.62, 42.18 24.2, 41.07 24.72 C39.96 25.25, 38.75 25.72, 37.5 26.12 C36.25 26.53, 34.91 26.88, 33.55 27.16 C32.19 27.43, 30.77 27.65, 29.34 27.79 C27.92 27.93, 26.45 28, 25 28 C23.55 28, 22.08 27.93, 20.66 27.79 C19.23 27.65, 17.81 27.43, 16.45 27.16 C15.09 26.88, 13.75 26.53, 12.5 26.12 C11.25 25.72, 10.04 25.25, 8.93 24.72 C7.82 24.2, 6.78 23.62, 5.85 23 C4.92 22.38, 4.07 21.7, 3.35 21 C2.63 20.3, 2 19.55, 1.51 18.79 C1.01 18.03, 0.63 17.23, 0.38 16.43 C0.13 15.63, 0 14.81, 0 14 C0 13.19, 0.13 12.37, 0.38 11.57 C0.63 10.77, 1.01 9.97, 1.51 9.21 C2 8.45, 2.63 7.7, 3.35 7 C4.07 6.3, 4.92 5.62, 5.85 5 C6.78 4.38, 7.82 3.8, 8.93 3.28 C10.04 2.75, 11.25 2.28, 12.5 1.88 C13.75 1.47, 15.09 1.12, 16.45 0.84 C17.81 0.57, 19.23 0.35, 20.66 0.21 C22.08 0.07, 23.55 0, 25 0 C26.45 0, 27.92 0.07, 29.34 0.21 C30.77 0.35, 32.19 0.57, 33.55 0.84 C34.91 1.12, 36.25 1.47, 37.5 1.88 C38.75 2.28, 39.96 2.75, 41.07 3.28 C42.18 3.8, 43.22 4.38, 44.15 5 C45.08 5.62, 45.93 6.3, 46.65 7 C47.37 7.7, 48 8.45, 48.49 9.21 C48.99 9.97, 49.37 10.77, 49.62 11.57 C49.87 12.37, 49.94 13.59, 50 14 C50.06 14.41, 50.06 13.59, 50 14" stroke="none" stroke-width="0" fill="#b2f2bb"></path><path d="M50 14 C50 14.81, 49.87 15.63, 49.62 16.43 C49.37 17.23, 48.99 18.03, 48.49 18.79 C48 19.55, 47.37 20.3, 46.65 21 C45.93 21.7, 45.08 22.38, 44.15 23 C43.22 23.62, 42.18 24.2, 41.07 24.72 C39.96 25.25, 38.75 25.72, 37.5 26.12 C36.25 26.53, 34.91 26.88, 33.55 27.16 C32.19 27.43, 30.77 27.65, 29.34 27.79 C27.92 27.93, 26.45 28, 25 28 C23.55 28, 22.08 27.93, 20.66 27.79 C19.23 27.65, 17.81 27.43, 16.45 27.16 C15.09 26.88, 13.75 26.53, 12.5 26.12 C11.25 25.72, 10.04 25.25, 8.93 24.72 C7.82 24.2, 6.78 23.62, 5.85 23 C4.92 22.38, 4.07 21.7, 3.35 21 C2.63 20.3, 2 19.55, 1.51 18.79 C1.01 18.03, 0.63 17.23, 0.38 16.43 C0.13 15.63, 0 14.81, 0 14 C0 13.19, 0.13 12.37, 0.38 11.57 C0.63 10.77, 1.01 9.97, 1.51 9.21 C2 8.45, 2.63 7.7, 3.35 7 C4.07 6.3, 4.92 5.62, 5.85 5 C6.78 4.38, 7.82 3.8, 8.93 3.28 C10.04 2.75, 11.25 2.28, 12.5 1.88 C13.75 1.47, 15.09 1.12, 16.45 0.84 C17.81 0.57, 19.23 0.35, 20.66 0.21 C22.08 0.07, 23.55 0, 25 0 C26.45 0, 27.92 0.07, 29.34 0.21 C30.77 0.35, 32.19 0.57, 33.55 0.84 C34.91 1.12, 36.25 1.47, 37.5 1.88 C38.75 2.28, 39.96 2.75, 41.07 3.28 C42.18 3.8, 43.22 4.38, 44.15 5 C45.08 5.62, 45.93 6.3, 46.65 7 C47.37 7.7, 48 8.45, 48.49 9.21 C48.99 9.97, 49.37 10.77, 49.62 11.57 C49.87 12.37, 49.94 13.59, 50 14 C50.06 14.41, 50.06 13.59, 50 14" stroke="#2f9e44" stroke-width="2" fill="none"></path></g><g transform="translate(60 645.25) rotate(0 70 8.75)"><text x="70" y="NaN" font-family="Cascadia, Segoe UI Emoji" font-size="14px" fill="#1971c2" text-anchor="middle" style="white-space: pre;" direction="ltr">Save Changes</text></g><g stroke-linecap="round" transform="translate(50 630) rotate(0 80 24)"><path d="M0 0 L160 0 L160 48 L0 48" stroke="none" stroke-width="0" fill="#a5d8ff"></path><path d="M0 0 C46.62 0, 93.25 0, 160 0 M0 0 C36.76 0, 73.52 0, 160 0 M160 0 C160 15.55, 160 31.1, 160 48 M160 0 C160 15.12, 160 30.24, 160 48 M160 48 C101.93 48, 43.87 48, 0 48 M160 48 C97.12 48, 34.24 48, 0 48 M0 48 C0 38.06, 0 28.12, 0 0 M0 48 C0 31.64, 0 15.28, 0 0" stroke="#1971c2" stroke-width="2" fill="none"></path></g><g transform="translate(240 645.25) rotate(0 50 8.75)"><text x="50" y="NaN" font-family="Cascadia, Segoe UI Emoji" font-size="14px" fill="#868e96" text-anchor="middle" style="white-space: pre;" direction="ltr">Cancel</text></g><g stroke-linecap="round" transform="translate(230 630) rotate(0 60 24)"><path d="M0 0 L120 0 L120 48 L0 48" stroke="none" stroke-width="0" fill="#dee2e6"></path><path d="M0 0 C32.18 0, 64.35 0, 120 0 M0 0 C37.47 0, 74.93 0, 120 0 M120 0 C120 17.53, 120 35.06, 120 48 M120 0 C120 14, 120 28, 120 48 M120 48 C78.92 48, 37.84 48, 0 48 M120 48 C85.42 48, 50.84 48, 0 48 M0 48 C0 34.24, 0 20.48, 0 0 M0 48 C0 35.88, 0 23.77, 0 0" stroke="#868e96" stroke-width="2" fill="none"></path></g></svg>