<svg version="1.1" xmlns="http://www.w3.org/2000/svg" viewBox="0 0 1200 480" width="1200" height="480">
  <!-- svg-source:excalidraw -->
  
  <defs>
    <style>
      @font-face {
        font-family: "Virgil";
        src: url("https://excalidraw.com/Virgil.woff2");
      }
      @font-face {
        font-family: "Cascadia";
        src: url("https://excalidraw.com/Cascadia.woff2");
      }
    </style>
  </defs>
  <rect x="0" y="0" width="1200" height="480" fill="#ffffff"></rect><g transform="translate(270 10) rotate(0 252 17.5)"><text x="0" y="NaN" font-family="Cascadia, Segoe UI Emoji" font-size="28px" fill="#343a40" text-anchor="start" style="white-space: pre;" direction="ltr">61 Skills across 12 Categories</text></g><g stroke-linecap="round" transform="translate(10 70) rotate(0 140 60)"><path d="M0 0 L280 0 L280 120 L0 120" stroke="none" stroke-width="0" fill="#a5d8ff"></path><path d="M0 0 C74.83 0, 149.67 0, 280 0 M0 0 C63.68 0, 127.35 0, 280 0 M280 0 C280 36.95, 280 73.91, 280 120 M280 0 C280 36.93, 280 73.86, 280 120 M280 120 C170.95 120, 61.91 120, 0 120 M280 120 C198.23 120, 116.46 120, 0 120 M0 120 C0 77.08, 0 34.15, 0 0 M0 120 C0 94.81, 0 69.62, 0 0" stroke="#1971c2" stroke-width="1" fill="none"></path></g><g transform="translate(10 70) rotate(0 99 9.375)"><text x="0" y="NaN" font-family="Cascadia, Segoe UI Emoji" font-size="15px" fill="#343a40" text-anchor="start" style="white-space: pre;" direction="ltr">Claude Essentials (11)</text></g><g transform="translate(10 110) rotate(0 105.6 13.75)"><text x="0" y="NaN" font-family="Cascadia, Segoe UI Emoji" font-size="11px" fill="#343a40" text-anchor="start" style="white-space: pre;" direction="ltr">memory-system, session-planning,</text><text x="0" y="NaN" font-family="Cascadia, Segoe UI Emoji" font-size="11px" fill="#343a40" text-anchor="start" style="white-space: pre;" direction="ltr">verify-completion, prompt-eng...</text></g><g stroke-linecap="round" transform="translate(310 70) rotate(0 140 60)"><path d="M0 0 L280 0 L280 120 L0 120" stroke="none" stroke-width="0" fill="#b2f2bb"></path><path d="M0 0 C71.09 0, 142.19 0, 280 0 M0 0 C97.84 0, 195.69 0, 280 0 M280 0 C280 40.17, 280 80.34, 280 120 M280 0 C280 33, 280 65.99, 280 120 M280 120 C197.58 120, 115.15 120, 0 120 M280 120 C219.57 120, 159.14 120, 0 120 M0 120 C0 78.79, 0 37.59, 0 0 M0 120 C0 95.1, 0 70.2, 0 0" stroke="#2f9e44" stroke-width="1" fill="none"></path></g><g transform="translate(330 70) rotate(0 90 9.375)"><text x="0" y="NaN" font-family="Cascadia, Segoe UI Emoji" font-size="15px" fill="#343a40" text-anchor="start" style="white-space: pre;" direction="ltr">Content/Research (7)</text></g><g transform="translate(330 110) rotate(0 108.89999999999998 13.75)"><text x="0" y="NaN" font-family="Cascadia, Segoe UI Emoji" font-size="11px" fill="#343a40" text-anchor="start" style="white-space: pre;" direction="ltr">article-extractor, research-deep,</text><text x="0" y="NaN" font-family="Cascadia, Segoe UI Emoji" font-size="11px" fill="#343a40" text-anchor="start" style="white-space: pre;" direction="ltr">notebooklm-skill...</text></g><g stroke-linecap="round" transform="translate(610 70) rotate(0 140 60)"><path d="M0 0 L280 0 L280 120 L0 120" stroke="none" stroke-width="0" fill="#99e9f2"></path><path d="M0 0 C63.29 0, 126.59 0, 280 0 M0 0 C88.67 0, 177.35 0, 280 0 M280 0 C280 44.02, 280 88.04, 280 120 M280 0 C280 28.51, 280 57.01, 280 120 M280 120 C182.57 120, 85.15 120, 0 120 M280 120 C192.57 120, 105.15 120, 0 120 M0 120 C0 73.21, 0 26.42, 0 0 M0 120 C0 87.06, 0 54.12, 0 0" stroke="#0c8599" stroke-width="1" fill="none"></path></g><g transform="translate(610 70) rotate(0 94.5 9.375)"><text x="0" y="NaN" font-family="Cascadia, Segoe UI Emoji" font-size="15px" fill="#343a40" text-anchor="start" style="white-space: pre;" direction="ltr">Code Engineering (12)</text></g><g transform="translate(610 110) rotate(0 112.19999999999999 13.75)"><text x="0" y="NaN" font-family="Cascadia, Segoe UI Emoji" font-size="11px" fill="#343a40" text-anchor="start" style="white-space: pre;" direction="ltr">ce-agent-browser, ce-coding-tutor,</text><text x="0" y="NaN" font-family="Cascadia, Segoe UI Emoji" font-size="11px" fill="#343a40" text-anchor="start" style="white-space: pre;" direction="ltr">ce-git-worktree...</text></g><g stroke-linecap="round" transform="translate(910 70) rotate(0 140 60)"><path d="M0 0 L280 0 L280 120 L0 120" stroke="none" stroke-width="0" fill="#fcc2d7"></path><path d="M0 0 C103.96 0, 207.91 0, 280 0 M0 0 C105.28 0, 210.56 0, 280 0 M280 0 C280 31.23, 280 62.46, 280 120 M280 0 C280 46.6, 280 93.21, 280 120 M280 120 C195.9 120, 111.8 120, 0 120 M280 120 C174.91 120, 69.82 120, 0 120 M0 120 C0 74.78, 0 29.55, 0 0 M0 120 C0 86.29, 0 52.57, 0 0" stroke="#c2255c" stroke-width="1" fill="none"></path></g><g transform="translate(930 70) rotate(0 85.5 9.375)"><text x="0" y="NaN" font-family="Cascadia, Segoe UI Emoji" font-size="15px" fill="#343a40" text-anchor="start" style="white-space: pre;" direction="ltr">Design/Creative (8)</text></g><g transform="translate(930 110) rotate(0 85.79999999999995 13.75)"><text x="0" y="NaN" font-family="Cascadia, Segoe UI Emoji" font-size="11px" fill="#343a40" text-anchor="start" style="white-space: pre;" direction="ltr">design, ui-styling, brand,</text><text x="0" y="NaN" font-family="Cascadia, Segoe UI Emoji" font-size="11px" fill="#343a40" text-anchor="start" style="white-space: pre;" direction="ltr">banner-design, imagen...</text></g><g stroke-linecap="round" transform="translate(10 210) rotate(0 140 60)"><path d="M0 0 L280 0 L280 120 L0 120" stroke="none" stroke-width="0" fill="#d0bfff"></path><path d="M0 0 C62.54 0, 125.09 0, 280 0 M0 0 C72.81 0, 145.61 0, 280 0 M280 0 C280 43.61, 280 87.23, 280 120 M280 0 C280 36.77, 280 73.55, 280 120 M280 120 C223.29 120, 166.57 120, 0 120 M280 120 C200.74 120, 121.49 120, 0 120 M0 120 C0 81.45, 0 42.9, 0 0 M0 120 C0 76.03, 0 32.06, 0 0" stroke="#7048e8" stroke-width="1" fill="none"></path></g><g transform="translate(10 210) rotate(0 76.5 9.375)"><text x="0" y="NaN" font-family="Cascadia, Segoe UI Emoji" font-size="15px" fill="#343a40" text-anchor="start" style="white-space: pre;" direction="ltr">Generative AI (5)</text></g><g transform="translate(10 250) rotate(0 108.89999999999998 13.75)"><text x="0" y="NaN" font-family="Cascadia, Segoe UI Emoji" font-size="11px" fill="#343a40" text-anchor="start" style="white-space: pre;" direction="ltr">imagen, remotion,</text><text x="0" y="NaN" font-family="Cascadia, Segoe UI Emoji" font-size="11px" fill="#343a40" text-anchor="start" style="white-space: pre;" direction="ltr">kimi-consultation, charlie-cfo...</text></g><g stroke-linecap="round" transform="translate(310 210) rotate(0 140 60)"><path d="M0 0 L280 0 L280 120 L0 120" stroke="none" stroke-width="0" fill="#ffd8a8"></path><path d="M0 0 C72.17 0, 144.35 0, 280 0 M0 0 C105.06 0, 210.12 0, 280 0 M280 0 C280 43.46, 280 86.92, 280 120 M280 0 C280 47.41, 280 94.82, 280 120 M280 120 C203.95 120, 127.9 120, 0 120 M280 120 C183.94 120, 87.88 120, 0 120 M0 120 C0 76.8, 0 33.59, 0 0 M0 120 C0 74.87, 0 29.74, 0 0" stroke="#e8590c" stroke-width="1" fill="none"></path></g><g transform="translate(330 210) rotate(0 72 9.375)"><text x="0" y="NaN" font-family="Cascadia, Segoe UI Emoji" font-size="15px" fill="#343a40" text-anchor="start" style="white-space: pre;" direction="ltr">Productivity (7)</text></g><g transform="translate(330 250) rotate(0 95.69999999999999 13.75)"><text x="0" y="NaN" font-family="Cascadia, Segoe UI Emoji" font-size="11px" fill="#343a40" text-anchor="start" style="white-space: pre;" direction="ltr">file-organizer, cleanup,</text><text x="0" y="NaN" font-family="Cascadia, Segoe UI Emoji" font-size="11px" fill="#343a40" text-anchor="start" style="white-space: pre;" direction="ltr">capture-state, test-runner...</text></g><g stroke-linecap="round" transform="translate(610 210) rotate(0 140 60)"><path d="M0 0 L280 0 L280 120 L0 120" stroke="none" stroke-width="0" fill="#99e9f2"></path><path d="M0 0 C92.43 0, 184.86 0, 280 0 M0 0 C102.99 0, 205.99 0, 280 0 M280 0 C280 26.12, 280 52.24, 280 120 M280 0 C280 46.73, 280 93.46, 280 120 M280 120 C183.25 120, 86.49 120, 0 120 M280 120 C181.17 120, 82.35 120, 0 120 M0 120 C0 86.14, 0 52.29, 0 0 M0 120 C0 79.38, 0 38.75, 0 0" stroke="#0c8599" stroke-width="1" fill="none"></path></g><g transform="translate(610 210) rotate(0 94.5 9.375)"><text x="0" y="NaN" font-family="Cascadia, Segoe UI Emoji" font-size="15px" fill="#343a40" text-anchor="start" style="white-space: pre;" direction="ltr">Specialized Tools (8)</text></g><g transform="translate(610 250) rotate(0 108.89999999999998 13.75)"><text x="0" y="NaN" font-family="Cascadia, Segoe UI Emoji" font-size="11px" fill="#343a40" text-anchor="start" style="white-space: pre;" direction="ltr">link-ingest, csv-data-summarizer,</text><text x="0" y="NaN" font-family="Cascadia, Segoe UI Emoji" font-size="11px" fill="#343a40" text-anchor="start" style="white-space: pre;" direction="ltr">webapp-testing, code-review...</text></g><g stroke-linecap="round" transform="translate(910 210) rotate(0 140 60)"><path d="M0 0 L280 0 L280 120 L0 120" stroke="none" stroke-width="0" fill="#a5d8ff"></path><path d="M0 0 C84.96 0, 169.93 0, 280 0 M0 0 C64.21 0, 128.42 0, 280 0 M280 0 C280 34.23, 280 68.47, 280 120 M280 0 C280 35.64, 280 71.28, 280 120 M280 120 C208.58 120, 137.16 120, 0 120 M280 120 C202.98 120, 125.96 120, 0 120 M0 120 C0 87.58, 0 55.17, 0 0 M0 120 C0 85.77, 0 51.53, 0 0" stroke="#1971c2" stroke-width="1" fill="none"></path></g><g transform="translate(930 210) rotate(0 76.5 9.375)"><text x="0" y="NaN" font-family="Cascadia, Segoe UI Emoji" font-size="15px" fill="#343a40" text-anchor="start" style="white-space: pre;" direction="ltr">n8n Workflows (7)</text></g><g transform="translate(930 250) rotate(0 112.20000000000005 13.75)"><text x="0" y="NaN" font-family="Cascadia, Segoe UI Emoji" font-size="11px" fill="#343a40" text-anchor="start" style="white-space: pre;" direction="ltr">n8n-code-javascript,</text><text x="0" y="NaN" font-family="Cascadia, Segoe UI Emoji" font-size="11px" fill="#343a40" text-anchor="start" style="white-space: pre;" direction="ltr">n8n-code-python, n8n-expression...</text></g><g stroke-linecap="round" transform="translate(10 350) rotate(0 140 60)"><path d="M0 0 L280 0 L280 120 L0 120" stroke="none" stroke-width="0" fill="#ffc9c9"></path><path d="M0 0 C63.97 0, 127.95 0, 280 0 M0 0 C85.8 0, 171.59 0, 280 0 M280 0 C280 43.32, 280 86.65, 280 120 M280 0 C280 25.08, 280 50.16, 280 120 M280 120 C216.98 120, 153.97 120, 0 120 M280 120 C220.23 120, 160.46 120, 0 120 M0 120 C0 76.54, 0 33.08, 0 0 M0 120 C0 79.8, 0 39.6, 0 0" stroke="#e03131" stroke-width="1" fill="none"></path></g><g transform="translate(10 350) rotate(0 54 9.375)"><text x="0" y="NaN" font-family="Cascadia, Segoe UI Emoji" font-size="15px" fill="#343a40" text-anchor="start" style="white-space: pre;" direction="ltr">Security (8)</text></g><g transform="translate(10 390) rotate(0 72.6 13.75)"><text x="0" y="NaN" font-family="Cascadia, Segoe UI Emoji" font-size="11px" fill="#343a40" text-anchor="start" style="white-space: pre;" direction="ltr">algorand-vuln-scanner,</text><text x="0" y="NaN" font-family="Cascadia, Segoe UI Emoji" font-size="11px" fill="#343a40" text-anchor="start" style="white-space: pre;" direction="ltr">solana-vuln-scanner...</text></g><g stroke-linecap="round" transform="translate(310 350) rotate(0 140 60)"><path d="M0 0 L280 0 L280 120 L0 120" stroke="none" stroke-width="0" fill="#ffec99"></path><path d="M0 0 C88.06 0, 176.12 0, 280 0 M0 0 C96.82 0, 193.65 0, 280 0 M280 0 C280 28.38, 280 56.75, 280 120 M280 0 C280 27.67, 280 55.34, 280 120 M280 120 C210.28 120, 140.57 120, 0 120 M280 120 C198.75 120, 117.5 120, 0 120 M0 120 C0 74.46, 0 28.91, 0 0 M0 120 C0 82.29, 0 44.59, 0 0" stroke="#e67700" stroke-width="1" fill="none"></path></g><g transform="translate(330 350) rotate(0 67.5 9.375)"><text x="0" y="NaN" font-family="Cascadia, Segoe UI Emoji" font-size="15px" fill="#343a40" text-anchor="start" style="white-space: pre;" direction="ltr">HuggingFace (7)</text></g><g transform="translate(330 390) rotate(0 108.89999999999998 13.75)"><text x="0" y="NaN" font-family="Cascadia, Segoe UI Emoji" font-size="11px" fill="#343a40" text-anchor="start" style="white-space: pre;" direction="ltr">hugging-face-cli,</text><text x="0" y="NaN" font-family="Cascadia, Segoe UI Emoji" font-size="11px" fill="#343a40" text-anchor="start" style="white-space: pre;" direction="ltr">hugging-face-datasets, hf-jobs...</text></g><g stroke-linecap="round" transform="translate(610 350) rotate(0 140 60)"><path d="M0 0 L280 0 L280 120 L0 120" stroke="none" stroke-width="0" fill="#d0bfff"></path><path d="M0 0 C96.84 0, 193.67 0, 280 0 M0 0 C63.58 0, 127.15 0, 280 0 M280 0 C280 34.56, 280 69.12, 280 120 M280 0 C280 34.5, 280 69, 280 120 M280 120 C185.72 120, 91.44 120, 0 120 M280 120 C173.48 120, 66.96 120, 0 120 M0 120 C0 85.34, 0 50.68, 0 0 M0 120 C0 76.92, 0 33.83, 0 0" stroke="#7048e8" stroke-width="1" fill="none"></path></g><g transform="translate(610 350) rotate(0 72 9.375)"><text x="0" y="NaN" font-family="Cascadia, Segoe UI Emoji" font-size="15px" fill="#343a40" text-anchor="start" style="white-space: pre;" direction="ltr">Consultation (4)</text></g><g transform="translate(610 390) rotate(0 59.39999999999998 13.75)"><text x="0" y="NaN" font-family="Cascadia, Segoe UI Emoji" font-size="11px" fill="#343a40" text-anchor="start" style="white-space: pre;" direction="ltr">cerebras, chatgpt,</text><text x="0" y="NaN" font-family="Cascadia, Segoe UI Emoji" font-size="11px" fill="#343a40" text-anchor="start" style="white-space: pre;" direction="ltr">openrouter, kimi</text></g><g stroke-linecap="round" transform="translate(910 350) rotate(0 140 60)"><path d="M0 0 L280 0 L280 120 L0 120" stroke="none" stroke-width="0" fill="#dee2e6"></path><path d="M0 0 C106.39 0, 212.79 0, 280 0 M0 0 C74.41 0, 148.82 0, 280 0 M280 0 C280 42.06, 280 84.13, 280 120 M280 0 C280 47.39, 280 94.79, 280 120 M280 120 C215.39 120, 150.78 120, 0 120 M280 120 C180.23 120, 80.47 120, 0 120 M0 120 C0 87.08, 0 54.16, 0 0 M0 120 C0 81.39, 0 42.77, 0 0" stroke="#868e96" stroke-width="1" fill="none"></path></g><g transform="translate(930 350) rotate(0 36 9.375)"><text x="0" y="NaN" font-family="Cascadia, Segoe UI Emoji" font-size="15px" fill="#343a40" text-anchor="start" style="white-space: pre;" direction="ltr">Meta (3)</text></g><g transform="translate(930 390) rotate(0 95.70000000000005 13.75)"><text x="0" y="NaN" font-family="Cascadia, Segoe UI Emoji" font-size="11px" fill="#343a40" text-anchor="start" style="white-space: pre;" direction="ltr">skill-creator, skill-seekers,</text><text x="0" y="NaN" font-family="Cascadia, Segoe UI Emoji" font-size="11px" fill="#343a40" text-anchor="start" style="white-space: pre;" direction="ltr">backlog-sync</text></g></svg>