<svg version="1.1" xmlns="http://www.w3.org/2000/svg" viewBox="0 0 893.6 580" width="893.6" height="580">
  <!-- svg-source:excalidraw -->
  
  <defs>
    <style>
      @font-face {
        font-family: "Virgil";
        src: url("https://excalidraw.com/Virgil.woff2");
      }
      @font-face {
        font-family: "Cascadia";
        src: url("https://excalidraw.com/Cascadia.woff2");
      }
    </style>
  </defs>
  <rect x="0" y="0" width="893.6" height="580" fill="#ffffff"></rect><g transform="translate(10 10) rotate(0 159.6 17.5)"><text x="0" y="NaN" font-family="Cascadia, Segoe UI Emoji" font-size="28px" fill="#343a40" text-anchor="start" style="white-space: pre;" direction="ltr">System Architecture</text></g><g transform="translate(790 70) rotate(0 46.80000000000001 8.125)"><text x="0" y="NaN" font-family="Cascadia, Segoe UI Emoji" font-size="13px" fill="#868e96" text-anchor="start" style="white-space: pre;" direction="ltr">Presentation</text></g><g transform="translate(790 250) rotate(0 42.89999999999998 8.125)"><text x="0" y="NaN" font-family="Cascadia, Segoe UI Emoji" font-size="13px" fill="#868e96" text-anchor="start" style="white-space: pre;" direction="ltr">Application</text></g><g transform="translate(790 430) rotate(0 15.600000000000023 8.125)"><text x="0" y="NaN" font-family="Cascadia, Segoe UI Emoji" font-size="13px" fill="#868e96" text-anchor="start" style="white-space: pre;" direction="ltr">Data</text></g><g transform="translate(40 90) rotate(0 80 10)"><text x="80" y="NaN" font-family="Cascadia, Segoe UI Emoji" font-size="16px" fill="#1971c2" text-anchor="middle" style="white-space: pre;" direction="ltr">Web App</text></g><g stroke-linecap="round" transform="translate(30 70) rotate(0 90 30)"><path d="M0 0 L180 0 L180 60 L0 60" stroke="none" stroke-width="0" fill="#a5d8ff"></path><path d="M0 0 C50.86 0, 101.72 0, 180 0 M0 0 C63.67 0, 127.33 0, 180 0 M180 0 C180 23.68, 180 47.36, 180 60 M180 0 C180 13.54, 180 27.07, 180 60 M180 60 C110.71 60, 41.41 60, 0 60 M180 60 C136.31 60, 92.62 60, 0 60 M0 60 C0 41.75, 0 23.49, 0 0 M0 60 C0 47.6, 0 35.19, 0 0" stroke="#1971c2" stroke-width="2" fill="none"></path></g><g transform="translate(260 90) rotate(0 80 10)"><text x="80" y="NaN" font-family="Cascadia, Segoe UI Emoji" font-size="16px" fill="#1971c2" text-anchor="middle" style="white-space: pre;" direction="ltr">Mobile</text></g><g stroke-linecap="round" transform="translate(250 70) rotate(0 90 30)"><path d="M0 0 L180 0 L180 60 L0 60" stroke="none" stroke-width="0" fill="#a5d8ff"></path><path d="M0 0 C64.39 0, 128.79 0, 180 0 M0 0 C46.77 0, 93.54 0, 180 0 M180 0 C180 21.47, 180 42.94, 180 60 M180 0 C180 21.61, 180 43.22, 180 60 M180 60 C109.11 60, 38.22 60, 0 60 M180 60 C111.03 60, 42.06 60, 0 60 M0 60 C0 37.14, 0 14.28, 0 0 M0 60 C0 47.7, 0 35.4, 0 0" stroke="#1971c2" stroke-width="2" fill="none"></path></g><g transform="translate(480 90) rotate(0 80 10)"><text x="80" y="NaN" font-family="Cascadia, Segoe UI Emoji" font-size="16px" fill="#1971c2" text-anchor="middle" style="white-space: pre;" direction="ltr">API Client</text></g><g stroke-linecap="round" transform="translate(470 70) rotate(0 90 30)"><path d="M0 0 L180 0 L180 60 L0 60" stroke="none" stroke-width="0" fill="#a5d8ff"></path><path d="M0 0 C46.25 0, 92.5 0, 180 0 M0 0 C39.84 0, 79.68 0, 180 0 M180 0 C180 18.8, 180 37.61, 180 60 M180 0 C180 12.66, 180 25.33, 180 60 M180 60 C138 60, 95.99 60, 0 60 M180 60 C119.06 60, 58.12 60, 0 60 M0 60 C0 36.19, 0 12.39, 0 0 M0 60 C0 42.28, 0 24.56, 0 0" stroke="#1971c2" stroke-width="2" fill="none"></path></g><g transform="translate(260 250) rotate(0 80 10)"><text x="80" y="NaN" font-family="Cascadia, Segoe UI Emoji" font-size="16px" fill="#2f9e44" text-anchor="middle" style="white-space: pre;" direction="ltr">API Gateway</text></g><g stroke-linecap="round" transform="translate(250 230) rotate(0 90 30)"><path d="M0 0 L180 0 L180 60 L0 60" stroke="none" stroke-width="0" fill="#b2f2bb"></path><path d="M0 0 C59.69 0, 119.37 0, 180 0 M0 0 C37.2 0, 74.39 0, 180 0 M180 0 C180 20.14, 180 40.29, 180 60 M180 0 C180 16.61, 180 33.23, 180 60 M180 60 C142.07 60, 104.13 60, 0 60 M180 60 C117.03 60, 54.07 60, 0 60 M0 60 C0 44.83, 0 29.67, 0 0 M0 60 C0 38.15, 0 16.29, 0 0" stroke="#2f9e44" stroke-width="2" fill="none"></path></g><g transform="translate(40 390) rotate(0 80 10)"><text x="80" y="NaN" font-family="Cascadia, Segoe UI Emoji" font-size="16px" fill="#2f9e44" text-anchor="middle" style="white-space: pre;" direction="ltr">Auth Service</text></g><g stroke-linecap="round" transform="translate(30 370) rotate(0 90 30)"><path d="M0 0 L180 0 L180 60 L0 60" stroke="none" stroke-width="0" fill="#b2f2bb"></path><path d="M0 0 C60.22 0, 120.44 0, 180 0 M0 0 C70.82 0, 141.64 0, 180 0 M180 0 C180 19.45, 180 38.9, 180 60 M180 0 C180 12.11, 180 24.22, 180 60 M180 60 C114.31 60, 48.62 60, 0 60 M180 60 C116.76 60, 53.52 60, 0 60 M0 60 C0 39.47, 0 18.94, 0 0 M0 60 C0 36.39, 0 12.78, 0 0" stroke="#2f9e44" stroke-width="2" fill="none"></path></g><g transform="translate(480 390) rotate(0 80 10)"><text x="80" y="NaN" font-family="Cascadia, Segoe UI Emoji" font-size="16px" fill="#2f9e44" text-anchor="middle" style="white-space: pre;" direction="ltr">Data Service</text></g><g stroke-linecap="round" transform="translate(470 370) rotate(0 90 30)"><path d="M0 0 L180 0 L180 60 L0 60" stroke="none" stroke-width="0" fill="#b2f2bb"></path><path d="M0 0 C39.67 0, 79.33 0, 180 0 M0 0 C43.43 0, 86.86 0, 180 0 M180 0 C180 14.1, 180 28.19, 180 60 M180 0 C180 17.08, 180 34.17, 180 60 M180 60 C139.89 60, 99.78 60, 0 60 M180 60 C139.39 60, 98.77 60, 0 60 M0 60 C0 37.51, 0 15.01, 0 0 M0 60 C0 47.71, 0 35.41, 0 0" stroke="#2f9e44" stroke-width="2" fill="none"></path></g><g transform="translate(40 530) rotate(0 80 10)"><text x="80" y="NaN" font-family="Cascadia, Segoe UI Emoji" font-size="16px" fill="#7048e8" text-anchor="middle" style="white-space: pre;" direction="ltr">PostgreSQL</text></g><g stroke-linecap="round" transform="translate(30 510) rotate(0 90 30)"><path d="M0 0 L180 0 L180 60 L0 60" stroke="none" stroke-width="0" fill="#d0bfff"></path><path d="M0 0 C38.94 0, 77.88 0, 180 0 M0 0 C54.97 0, 109.95 0, 180 0 M180 0 C180 19.41, 180 38.82, 180 60 M180 0 C180 17.34, 180 34.68, 180 60 M180 60 C131.63 60, 83.27 60, 0 60 M180 60 C140.18 60, 100.36 60, 0 60 M0 60 C0 37.49, 0 14.99, 0 0 M0 60 C0 39.78, 0 19.56, 0 0" stroke="#7048e8" stroke-width="2" fill="none"></path></g><g transform="translate(260 530) rotate(0 80 10)"><text x="80" y="NaN" font-family="Cascadia, Segoe UI Emoji" font-size="16px" fill="#7048e8" text-anchor="middle" style="white-space: pre;" direction="ltr">Redis</text></g><g stroke-linecap="round" transform="translate(250 510) rotate(0 90 30)"><path d="M0 0 L180 0 L180 60 L0 60" stroke="none" stroke-width="0" fill="#d0bfff"></path><path d="M0 0 C69.5 0, 139 0, 180 0 M0 0 C42.51 0, 85.02 0, 180 0 M180 0 C180 23.56, 180 47.12, 180 60 M180 0 C180 16.43, 180 32.86, 180 60 M180 60 C124.56 60, 69.13 60, 0 60 M180 60 C110.11 60, 40.23 60, 0 60 M0 60 C0 45.28, 0 30.55, 0 0 M0 60 C0 46.32, 0 32.65, 0 0" stroke="#7048e8" stroke-width="2" fill="none"></path></g><g transform="translate(480 530) rotate(0 80 10)"><text x="80" y="NaN" font-family="Cascadia, Segoe UI Emoji" font-size="16px" fill="#7048e8" text-anchor="middle" style="white-space: pre;" direction="ltr">S3 Storage</text></g><g stroke-linecap="round" transform="translate(470 510) rotate(0 90 30)"><path d="M0 0 L180 0 L180 60 L0 60" stroke="none" stroke-width="0" fill="#d0bfff"></path><path d="M0 0 C46.33 0, 92.67 0, 180 0 M0 0 C64.7 0, 129.39 0, 180 0 M180 0 C180 20.97, 180 41.95, 180 60 M180 0 C180 18.3, 180 36.59, 180 60 M180 60 C128.14 60, 76.29 60, 0 60 M180 60 C114.42 60, 48.83 60, 0 60 M0 60 C0 38.21, 0 16.42, 0 0 M0 60 C0 47.31, 0 34.62, 0 0" stroke="#7048e8" stroke-width="2" fill="none"></path></g><g transform="translate(200 170) rotate(0 30 10)"><text x="30" y="NaN" font-family="Cascadia, Segoe UI Emoji" font-size="12px" fill="#868e96" text-anchor="middle" style="white-space: pre;" direction="ltr">HTTPS</text></g><g stroke-linecap="round"><g transform="translate(210 100) rotate(0 20 80)"><path d="M0 0 C6.67 26.67, 33.33 133.33, 40 160 M0 0 C6.67 26.67, 33.33 133.33, 40 160" stroke="#868e96" stroke-width="2" fill="none"></path></g><g transform="translate(210 100) rotate(0 20 80)"><path d="M23.21 135.14 C26.6 140.17, 30 145.19, 40 160 M23.21 135.14 C29.09 143.85, 34.98 152.57, 40 160" stroke="#868e96" stroke-width="2" fill="none"></path></g><g transform="translate(210 100) rotate(0 20 80)"><path d="M43.12 130.16 C42.49 136.2, 41.86 142.23, 40 160 M43.12 130.16 C42.02 140.62, 40.93 151.08, 40 160" stroke="#868e96" stroke-width="2" fill="none"></path></g></g><g transform="translate(310 170) rotate(0 30 10)"><text x="30" y="NaN" font-family="Cascadia, Segoe UI Emoji" font-size="12px" fill="#868e96" text-anchor="middle" style="white-space: pre;" direction="ltr">HTTPS</text></g><g stroke-linecap="round"><g transform="translate(340 130) rotate(0 0 50)"><path d="M0 0 C0 16.67, 0 83.33, 0 100 M0 0 C0 16.67, 0 83.33, 0 100" stroke="#868e96" stroke-width="2" fill="none"></path></g><g transform="translate(340 130) rotate(0 0 50)"><path d="M-10.26 71.81 C-6.43 82.34, -2.6 92.86, 0 100 M-10.26 71.81 C-6.22 82.92, -2.17 94.03, 0 100" stroke="#868e96" stroke-width="2" fill="none"></path></g><g transform="translate(340 130) rotate(0 0 50)"><path d="M10.26 71.81 C6.43 82.34, 2.6 92.86, 0 100 M10.26 71.81 C6.22 82.92, 2.17 94.03, 0 100" stroke="#868e96" stroke-width="2" fill="none"></path></g></g><g transform="translate(420 170) rotate(0 30 10)"><text x="30" y="NaN" font-family="Cascadia, Segoe UI Emoji" font-size="12px" fill="#868e96" text-anchor="middle" style="white-space: pre;" direction="ltr">REST</text></g><g stroke-linecap="round"><g transform="translate(470 100) rotate(0 -20 80)"><path d="M0 0 C-6.67 26.67, -33.33 133.33, -40 160 M0 0 C-6.67 26.67, -33.33 133.33, -40 160" stroke="#868e96" stroke-width="2" fill="none"></path></g><g transform="translate(470 100) rotate(0 -20 80)"><path d="M-43.12 130.16 C-41.98 141.05, -40.84 151.93, -40 160 M-43.12 130.16 C-42.45 136.52, -41.79 142.87, -40 160" stroke="#868e96" stroke-width="2" fill="none"></path></g><g transform="translate(470 100) rotate(0 -20 80)"><path d="M-23.21 135.14 C-29.33 144.21, -35.46 153.28, -40 160 M-23.21 135.14 C-26.78 140.43, -30.36 145.73, -40 160" stroke="#868e96" stroke-width="2" fill="none"></path></g></g><g transform="translate(200 320) rotate(0 30 10)"><text x="30" y="NaN" font-family="Cascadia, Segoe UI Emoji" font-size="12px" fill="#868e96" text-anchor="middle" style="white-space: pre;" direction="ltr">auth</text></g><g stroke-linecap="round"><g transform="translate(250 260) rotate(0 -20 70)"><path d="M0 0 C-6.67 23.33, -33.33 116.67, -40 140 M0 0 C-6.67 23.33, -33.33 116.67, -40 140" stroke="#868e96" stroke-width="2" fill="none"></path></g><g transform="translate(250 260) rotate(0 -20 70)"><path d="M-42.12 110.08 C-41.43 119.77, -40.75 129.46, -40 140 M-42.12 110.08 C-41.46 119.42, -40.8 128.77, -40 140" stroke="#868e96" stroke-width="2" fill="none"></path></g><g transform="translate(250 260) rotate(0 -20 70)"><path d="M-22.39 115.71 C-28.09 123.58, -33.8 131.45, -40 140 M-22.39 115.71 C-27.89 123.3, -33.39 130.89, -40 140" stroke="#868e96" stroke-width="2" fill="none"></path></g></g><g transform="translate(420 320) rotate(0 30 10)"><text x="30" y="NaN" font-family="Cascadia, Segoe UI Emoji" font-size="12px" fill="#868e96" text-anchor="middle" style="white-space: pre;" direction="ltr">query</text></g><g stroke-linecap="round"><g transform="translate(430 260) rotate(0 20 70)"><path d="M0 0 C6.67 23.33, 33.33 116.67, 40 140 M0 0 C6.67 23.33, 33.33 116.67, 40 140" stroke="#868e96" stroke-width="2" fill="none"></path></g><g transform="translate(430 260) rotate(0 20 70)"><path d="M22.39 115.71 C26.01 120.71, 29.63 125.7, 40 140 M22.39 115.71 C27.18 122.32, 31.97 128.93, 40 140" stroke="#868e96" stroke-width="2" fill="none"></path></g><g transform="translate(430 260) rotate(0 20 70)"><path d="M42.12 110.08 C41.68 116.23, 41.25 122.39, 40 140 M42.12 110.08 C41.54 118.22, 40.97 126.36, 40 140" stroke="#868e96" stroke-width="2" fill="none"></path></g></g><g transform="translate(90 460) rotate(0 30 10)"><text x="30" y="NaN" font-family="Cascadia, Segoe UI Emoji" font-size="12px" fill="#868e96" text-anchor="middle" style="white-space: pre;" direction="ltr">users</text></g><g stroke-linecap="round"><g transform="translate(120 430) rotate(0 0 40)"><path d="M0 0 C0 13.33, 0 66.67, 0 80 M0 0 C0 13.33, 0 66.67, 0 80" stroke="#868e96" stroke-width="2" fill="none"></path></g><g transform="translate(120 430) rotate(0 0 40)"><path d="M-10.26 51.81 C-7.44 59.56, -4.62 67.31, 0 80 M-10.26 51.81 C-7.98 58.09, -5.69 64.36, 0 80" stroke="#868e96" stroke-width="2" fill="none"></path></g><g transform="translate(120 430) rotate(0 0 40)"><path d="M10.26 51.81 C7.44 59.56, 4.62 67.31, 0 80 M10.26 51.81 C7.98 58.09, 5.69 64.36, 0 80" stroke="#868e96" stroke-width="2" fill="none"></path></g></g><g transform="translate(310 460) rotate(0 30 10)"><text x="30" y="NaN" font-family="Cascadia, Segoe UI Emoji" font-size="12px" fill="#868e96" text-anchor="middle" style="white-space: pre;" direction="ltr">records</text></g><g stroke-linecap="round"><g transform="translate(470 400) rotate(0 -130 70)"><path d="M0 0 C-43.33 23.33, -216.67 116.67, -260 140 M0 0 C-43.33 23.33, -216.67 116.67, -260 140" stroke="#868e96" stroke-width="2" fill="none"></path></g><g transform="translate(470 400) rotate(0 -130 70)"><path d="M-240.04 117.6 C-246.05 124.35, -252.06 131.09, -260 140 M-240.04 117.6 C-246.69 125.06, -253.34 132.53, -260 140" stroke="#868e96" stroke-width="2" fill="none"></path></g><g transform="translate(470 400) rotate(0 -130 70)"><path d="M-230.31 135.67 C-239.25 136.97, -248.19 138.28, -260 140 M-230.31 135.67 C-240.2 137.11, -250.09 138.55, -260 140" stroke="#868e96" stroke-width="2" fill="none"></path></g></g><g transform="translate(420 460) rotate(0 30 10)"><text x="30" y="NaN" font-family="Cascadia, Segoe UI Emoji" font-size="12px" fill="#868e96" text-anchor="middle" style="white-space: pre;" direction="ltr">cache</text></g><g stroke-linecap="round"><g transform="translate(470 400) rotate(0 -20 70)"><path d="M0 0 C-6.67 23.33, -33.33 116.67, -40 140" stroke="#868e96" stroke-width="2.5" fill="none" stroke-dasharray="8 10"></path></g><g transform="translate(470 400) rotate(0 -20 70)"><path d="M-42.12 110.08 C-41.44 119.72, -40.75 129.36, -40 140" stroke="#868e96" stroke-width="2.5" fill="none"></path></g><g transform="translate(470 400) rotate(0 -20 70)"><path d="M-22.39 115.71 C-28.06 123.54, -33.74 131.37, -40 140" stroke="#868e96" stroke-width="2.5" fill="none"></path></g></g><g transform="translate(530 460) rotate(0 30 10)"><text x="30" y="NaN" font-family="Cascadia, Segoe UI Emoji" font-size="12px" fill="#868e96" text-anchor="middle" style="white-space: pre;" direction="ltr">objects</text></g><g stroke-linecap="round"><g transform="translate(560 430) rotate(0 0 40)"><path d="M0 0 C0 13.33, 0 66.67, 0 80" stroke="#868e96" stroke-width="2.5" fill="none" stroke-dasharray="8 10"></path></g><g transform="translate(560 430) rotate(0 0 40)"><path d="M-10.26 51.81 C-7.04 60.67, -3.81 69.53, 0 80" stroke="#868e96" stroke-width="2.5" fill="none"></path></g><g transform="translate(560 430) rotate(0 0 40)"><path d="M10.26 51.81 C7.04 60.67, 3.81 69.53, 0 80" stroke="#868e96" stroke-width="2.5" fill="none"></path></g></g></svg>