<svg version="1.1" xmlns="http://www.w3.org/2000/svg" viewBox="0 0 880 520" width="880" height="520">
  <!-- svg-source:excalidraw -->
  
  <defs>
    <style>
      @font-face {
        font-family: "Virgil";
        src: url("https://excalidraw.com/Virgil.woff2");
      }
      @font-face {
        font-family: "Cascadia";
        src: url("https://excalidraw.com/Cascadia.woff2");
      }
    </style>
  </defs>
  <rect x="0" y="0" width="880" height="520" fill="#ffffff"></rect><g transform="translate(10 10) rotate(0 100.80000000000001 17.5)"><text x="0" y="NaN" font-family="Cascadia, Segoe UI Emoji" font-size="28px" fill="#343a40" text-anchor="start" style="white-space: pre;" direction="ltr">Tag Taxonomy</text></g><g transform="translate(10 50) rotate(0 92.39999999999998 8.75)"><text x="0" y="NaN" font-family="Cascadia, Segoe UI Emoji" font-size="14px" fill="#868e96" text-anchor="start" style="white-space: pre;" direction="ltr">Top 30 tags by cluster</text></g><g stroke-linecap="round" transform="translate(10 110) rotate(0 130 90)"><path d="M0 0 L260 0 L260 180 L0 180" stroke="none" stroke-width="0" fill="#a5d8ff"></path><path d="M0 0 C79.85 0, 159.7 0, 260 0 M0 0 C77.53 0, 155.06 0, 260 0 M260 0 C260 56, 260 112, 260 180 M260 0 C260 41.06, 260 82.12, 260 180 M260 180 C179.13 180, 98.26 180, 0 180 M260 180 C168.67 180, 77.35 180, 0 180 M0 180 C0 131.03, 0 82.07, 0 0 M0 180 C0 126.65, 0 73.31, 0 0" stroke="#1971c2" stroke-width="1" fill="none"></path></g><g transform="translate(10 110) rotate(0 48.599999999999994 11.25)"><text x="0" y="NaN" font-family="Cascadia, Segoe UI Emoji" font-size="18px" fill="#1971c2" text-anchor="start" style="white-space: pre;" direction="ltr">Technical</text></g><g transform="translate(40 153.5) rotate(0 50 7.5)"><text x="50" y="NaN" font-family="Cascadia, Segoe UI Emoji" font-size="12px" fill="#1971c2" text-anchor="middle" style="white-space: pre;" direction="ltr">#python</text></g><g stroke-linecap="round" transform="translate(30 150) rotate(0 60 11)"><path d="M0 0 L120 0 L120 22 L0 22" stroke="none" stroke-width="0" fill="#a5d8ff"></path><path d="M0 0 C28.31 0, 56.63 0, 120 0 M0 0 C35.78 0, 71.56 0, 120 0 M120 0 C120 8, 120 16, 120 22 M120 0 C120 4.67, 120 9.34, 120 22 M120 22 C91.62 22, 63.24 22, 0 22 M120 22 C72.71 22, 25.42 22, 0 22 M0 22 C0 17.5, 0 13.01, 0 0 M0 22 C0 13.67, 0 5.35, 0 0" stroke="#1971c2" stroke-width="2" fill="none"></path></g><g transform="translate(40 193.5) rotate(0 50 7.5)"><text x="50" y="NaN" font-family="Cascadia, Segoe UI Emoji" font-size="12px" fill="#1971c2" text-anchor="middle" style="white-space: pre;" direction="ltr">#automation</text></g><g stroke-linecap="round" transform="translate(30 190) rotate(0 60 11)"><path d="M0 0 L120 0 L120 22 L0 22" stroke="none" stroke-width="0" fill="#a5d8ff"></path><path d="M0 0 C39.54 0, 79.07 0, 120 0 M0 0 C34.51 0, 69.02 0, 120 0 M120 0 C120 5.15, 120 10.3, 120 22 M120 0 C120 5.26, 120 10.52, 120 22 M120 22 C72.12 22, 24.23 22, 0 22 M120 22 C73.75 22, 27.5 22, 0 22 M0 22 C0 13.62, 0 5.23, 0 0 M0 22 C0 14.93, 0 7.86, 0 0" stroke="#1971c2" stroke-width="2" fill="none"></path></g><g transform="translate(40 213.5) rotate(0 50 7.5)"><text x="50" y="NaN" font-family="Cascadia, Segoe UI Emoji" font-size="12px" fill="#1971c2" text-anchor="middle" style="white-space: pre;" direction="ltr">#mcp</text></g><g stroke-linecap="round" transform="translate(30 210) rotate(0 60 11)"><path d="M0 0 L120 0 L120 22 L0 22" stroke="none" stroke-width="0" fill="#a5d8ff"></path><path d="M0 0 C37.54 0, 75.09 0, 120 0 M0 0 C31.08 0, 62.15 0, 120 0 M120 0 C120 6.58, 120 13.16, 120 22 M120 0 C120 6.57, 120 13.14, 120 22 M120 22 C89.1 22, 58.2 22, 0 22 M120 22 C85.94 22, 51.87 22, 0 22 M0 22 C0 15.61, 0 9.21, 0 0 M0 22 C0 16.84, 0 11.67, 0 0" stroke="#1971c2" stroke-width="2" fill="none"></path></g><g transform="translate(40 233.5) rotate(0 50 7.5)"><text x="50" y="NaN" font-family="Cascadia, Segoe UI Emoji" font-size="12px" fill="#1971c2" text-anchor="middle" style="white-space: pre;" direction="ltr">#api</text></g><g stroke-linecap="round" transform="translate(30 230) rotate(0 60 11)"><path d="M0 0 L120 0 L120 22 L0 22" stroke="none" stroke-width="0" fill="#a5d8ff"></path><path d="M0 0 C33.27 0, 66.54 0, 120 0 M0 0 C44.31 0, 88.63 0, 120 0 M120 0 C120 7.04, 120 14.07, 120 22 M120 0 C120 6.76, 120 13.52, 120 22 M120 22 C83.25 22, 46.51 22, 0 22 M120 22 C73.33 22, 26.65 22, 0 22 M0 22 C0 13.3, 0 4.6, 0 0 M0 22 C0 15.04, 0 8.09, 0 0" stroke="#1971c2" stroke-width="2" fill="none"></path></g><g transform="translate(40 273.5) rotate(0 50 7.5)"><text x="50" y="NaN" font-family="Cascadia, Segoe UI Emoji" font-size="12px" fill="#1971c2" text-anchor="middle" style="white-space: pre;" direction="ltr">#docker</text></g><g stroke-linecap="round" transform="translate(30 270) rotate(0 60 11)"><path d="M0 0 L120 0 L120 22 L0 22" stroke="none" stroke-width="0" fill="#a5d8ff"></path><path d="M0 0 C28.54 0, 57.09 0, 120 0 M0 0 C24.58 0, 49.17 0, 120 0 M120 0 C120 7.67, 120 15.34, 120 22 M120 0 C120 4.61, 120 9.22, 120 22 M120 22 C93.46 22, 66.92 22, 0 22 M120 22 C90.16 22, 60.32 22, 0 22 M0 22 C0 16.29, 0 10.59, 0 0 M0 22 C0 14.54, 0 7.07, 0 0" stroke="#1971c2" stroke-width="2" fill="none"></path></g><g stroke-linecap="round" transform="translate(310 110) rotate(0 130 90)"><path d="M0 0 L260 0 L260 180 L0 180" stroke="none" stroke-width="0" fill="#b2f2bb"></path><path d="M0 0 C53.2 0, 106.39 0, 260 0 M0 0 C61.83 0, 123.65 0, 260 0 M260 0 C260 56.36, 260 112.72, 260 180 M260 0 C260 69.22, 260 138.43, 260 180 M260 180 C177.74 180, 95.49 180, 0 180 M260 180 C203.18 180, 146.35 180, 0 180 M0 180 C0 111.76, 0 43.51, 0 0 M0 180 C0 143.03, 0 106.05, 0 0" stroke="#2f9e44" stroke-width="1" fill="none"></path></g><g transform="translate(330 110) rotate(0 48.599999999999994 11.25)"><text x="0" y="NaN" font-family="Cascadia, Segoe UI Emoji" font-size="18px" fill="#2f9e44" text-anchor="start" style="white-space: pre;" direction="ltr">Knowledge</text></g><g transform="translate(340 153.5) rotate(0 50 7.5)"><text x="50" y="NaN" font-family="Cascadia, Segoe UI Emoji" font-size="12px" fill="#2f9e44" text-anchor="middle" style="white-space: pre;" direction="ltr">#book</text></g><g stroke-linecap="round" transform="translate(330 150) rotate(0 60 11)"><path d="M0 0 L120 0 L120 22 L0 22" stroke="none" stroke-width="0" fill="#b2f2bb"></path><path d="M0 0 C47.98 0, 95.96 0, 120 0 M0 0 C28.08 0, 56.17 0, 120 0 M120 0 C120 4.91, 120 9.83, 120 22 M120 0 C120 7.82, 120 15.63, 120 22 M120 22 C92.85 22, 65.69 22, 0 22 M120 22 C87.95 22, 55.9 22, 0 22 M0 22 C0 14.79, 0 7.59, 0 0 M0 22 C0 16.17, 0 10.34, 0 0" stroke="#2f9e44" stroke-width="2" fill="none"></path></g><g transform="translate(340 193.5) rotate(0 50 7.5)"><text x="50" y="NaN" font-family="Cascadia, Segoe UI Emoji" font-size="12px" fill="#2f9e44" text-anchor="middle" style="white-space: pre;" direction="ltr">#research</text></g><g stroke-linecap="round" transform="translate(330 190) rotate(0 60 11)"><path d="M0 0 L120 0 L120 22 L0 22" stroke="none" stroke-width="0" fill="#b2f2bb"></path><path d="M0 0 C45.17 0, 90.33 0, 120 0 M0 0 C42.1 0, 84.2 0, 120 0 M120 0 C120 7.08, 120 14.16, 120 22 M120 0 C120 5.63, 120 11.27, 120 22 M120 22 C75.28 22, 30.57 22, 0 22 M120 22 C89.35 22, 58.71 22, 0 22 M0 22 C0 15.1, 0 8.2, 0 0 M0 22 C0 16.09, 0 10.19, 0 0" stroke="#2f9e44" stroke-width="2" fill="none"></path></g><g transform="translate(340 213.5) rotate(0 50 7.5)"><text x="50" y="NaN" font-family="Cascadia, Segoe UI Emoji" font-size="12px" fill="#2f9e44" text-anchor="middle" style="white-space: pre;" direction="ltr">#pattern</text></g><g stroke-linecap="round" transform="translate(330 210) rotate(0 60 11)"><path d="M0 0 L120 0 L120 22 L0 22" stroke="none" stroke-width="0" fill="#b2f2bb"></path><path d="M0 0 C26.19 0, 52.39 0, 120 0 M0 0 C33.71 0, 67.43 0, 120 0 M120 0 C120 8.36, 120 16.72, 120 22 M120 0 C120 5.57, 120 11.14, 120 22 M120 22 C79.2 22, 38.39 22, 0 22 M120 22 C89.5 22, 58.99 22, 0 22 M0 22 C0 17.5, 0 12.99, 0 0 M0 22 C0 15.83, 0 9.65, 0 0" stroke="#2f9e44" stroke-width="2" fill="none"></path></g><g transform="translate(340 233.5) rotate(0 50 7.5)"><text x="50" y="NaN" font-family="Cascadia, Segoe UI Emoji" font-size="12px" fill="#2f9e44" text-anchor="middle" style="white-space: pre;" direction="ltr">#solution</text></g><g stroke-linecap="round" transform="translate(330 230) rotate(0 60 11)"><path d="M0 0 L120 0 L120 22 L0 22" stroke="none" stroke-width="0" fill="#b2f2bb"></path><path d="M0 0 C45.51 0, 91.03 0, 120 0 M0 0 C27.12 0, 54.23 0, 120 0 M120 0 C120 6.43, 120 12.86, 120 22 M120 0 C120 7.79, 120 15.58, 120 22 M120 22 C87.07 22, 54.13 22, 0 22 M120 22 C81.96 22, 43.93 22, 0 22 M0 22 C0 17.31, 0 12.61, 0 0 M0 22 C0 15.99, 0 9.99, 0 0" stroke="#2f9e44" stroke-width="2" fill="none"></path></g><g stroke-linecap="round" transform="translate(610 110) rotate(0 130 90)"><path d="M0 0 L260 0 L260 180 L0 180" stroke="none" stroke-width="0" fill="#ffd8a8"></path><path d="M0 0 C103.18 0, 206.37 0, 260 0 M0 0 C86.1 0, 172.2 0, 260 0 M260 0 C260 71.99, 260 143.97, 260 180 M260 0 C260 54.57, 260 109.14, 260 180 M260 180 C201.49 180, 142.99 180, 0 180 M260 180 C204.36 180, 148.72 180, 0 180 M0 180 C0 139.84, 0 99.68, 0 0 M0 180 C0 126.96, 0 73.93, 0 0" stroke="#e8590c" stroke-width="1" fill="none"></path></g><g transform="translate(610 110) rotate(0 32.39999999999998 11.25)"><text x="0" y="NaN" font-family="Cascadia, Segoe UI Emoji" font-size="18px" fill="#e8590c" text-anchor="start" style="white-space: pre;" direction="ltr">Status</text></g><g transform="translate(640 153.5) rotate(0 50 7.5)"><text x="50" y="NaN" font-family="Cascadia, Segoe UI Emoji" font-size="12px" fill="#e8590c" text-anchor="middle" style="white-space: pre;" direction="ltr">#active</text></g><g stroke-linecap="round" transform="translate(630 150) rotate(0 60 11)"><path d="M0 0 L120 0 L120 22 L0 22" stroke="none" stroke-width="0" fill="#ffd8a8"></path><path d="M0 0 C31.96 0, 63.92 0, 120 0 M0 0 C41.64 0, 83.28 0, 120 0 M120 0 C120 7.54, 120 15.07, 120 22 M120 0 C120 5.24, 120 10.48, 120 22 M120 22 C94.05 22, 68.1 22, 0 22 M120 22 C79.27 22, 38.54 22, 0 22 M0 22 C0 16.33, 0 10.65, 0 0 M0 22 C0 15.96, 0 9.92, 0 0" stroke="#e8590c" stroke-width="2" fill="none"></path></g><g transform="translate(640 193.5) rotate(0 50 7.5)"><text x="50" y="NaN" font-family="Cascadia, Segoe UI Emoji" font-size="12px" fill="#e8590c" text-anchor="middle" style="white-space: pre;" direction="ltr">#completed</text></g><g stroke-linecap="round" transform="translate(630 190) rotate(0 60 11)"><path d="M0 0 L120 0 L120 22 L0 22" stroke="none" stroke-width="0" fill="#ffd8a8"></path><path d="M0 0 C30.76 0, 61.51 0, 120 0 M0 0 C39.25 0, 78.49 0, 120 0 M120 0 C120 4.81, 120 9.63, 120 22 M120 0 C120 4.47, 120 8.94, 120 22 M120 22 C85.86 22, 51.73 22, 0 22 M120 22 C89.2 22, 58.4 22, 0 22 M0 22 C0 14.58, 0 7.15, 0 0 M0 22 C0 15.64, 0 9.29, 0 0" stroke="#e8590c" stroke-width="2" fill="none"></path></g><g transform="translate(640 213.5) rotate(0 50 7.5)"><text x="50" y="NaN" font-family="Cascadia, Segoe UI Emoji" font-size="12px" fill="#e8590c" text-anchor="middle" style="white-space: pre;" direction="ltr">#archived</text></g><g stroke-linecap="round" transform="translate(630 210) rotate(0 60 11)"><path d="M0 0 L120 0 L120 22 L0 22" stroke="none" stroke-width="0" fill="#ffd8a8"></path><path d="M0 0 C24.83 0, 49.65 0, 120 0 M0 0 C39.02 0, 78.04 0, 120 0 M120 0 C120 8.54, 120 17.08, 120 22 M120 0 C120 6.04, 120 12.07, 120 22 M120 22 C81.19 22, 42.39 22, 0 22 M120 22 C95.15 22, 70.3 22, 0 22 M0 22 C0 15.47, 0 8.94, 0 0 M0 22 C0 13.36, 0 4.72, 0 0" stroke="#e8590c" stroke-width="2" fill="none"></path></g><g transform="translate(640 233.5) rotate(0 50 7.5)"><text x="50" y="NaN" font-family="Cascadia, Segoe UI Emoji" font-size="12px" fill="#e8590c" text-anchor="middle" style="white-space: pre;" direction="ltr">#backlog</text></g><g stroke-linecap="round" transform="translate(630 230) rotate(0 60 11)"><path d="M0 0 L120 0 L120 22 L0 22" stroke="none" stroke-width="0" fill="#ffd8a8"></path><path d="M0 0 C34.91 0, 69.82 0, 120 0 M0 0 C47.55 0, 95.1 0, 120 0 M120 0 C120 6.37, 120 12.74, 120 22 M120 0 C120 7.22, 120 14.44, 120 22 M120 22 C79.62 22, 39.25 22, 0 22 M120 22 C91.74 22, 63.48 22, 0 22 M0 22 C0 13.38, 0 4.75, 0 0 M0 22 C0 13.68, 0 5.35, 0 0" stroke="#e8590c" stroke-width="2" fill="none"></path></g><g stroke-linecap="round" transform="translate(10 330) rotate(0 130 90)"><path d="M0 0 L260 0 L260 180 L0 180" stroke="none" stroke-width="0" fill="#99e9f2"></path><path d="M0 0 C87.26 0, 174.51 0, 260 0 M0 0 C76.54 0, 153.09 0, 260 0 M260 0 C260 47.12, 260 94.25, 260 180 M260 0 C260 52.21, 260 104.43, 260 180 M260 180 C202.31 180, 144.62 180, 0 180 M260 180 C164.47 180, 68.94 180, 0 180 M0 180 C0 132.07, 0 84.13, 0 0 M0 180 C0 138.23, 0 96.45, 0 0" stroke="#0c8599" stroke-width="1" fill="none"></path></g><g transform="translate(10 350) rotate(0 37.8 11.25)"><text x="0" y="NaN" font-family="Cascadia, Segoe UI Emoji" font-size="18px" fill="#0c8599" text-anchor="start" style="white-space: pre;" direction="ltr">Content</text></g><g transform="translate(40 393.5) rotate(0 50 7.5)"><text x="50" y="NaN" font-family="Cascadia, Segoe UI Emoji" font-size="12px" fill="#0c8599" text-anchor="middle" style="white-space: pre;" direction="ltr">#rss</text></g><g stroke-linecap="round" transform="translate(30 390) rotate(0 60 11)"><path d="M0 0 L120 0 L120 22 L0 22" stroke="none" stroke-width="0" fill="#99e9f2"></path><path d="M0 0 C42.68 0, 85.35 0, 120 0 M0 0 C44.97 0, 89.93 0, 120 0 M120 0 C120 7.15, 120 14.3, 120 22 M120 0 C120 7.14, 120 14.29, 120 22 M120 22 C83.24 22, 46.48 22, 0 22 M120 22 C74.11 22, 28.22 22, 0 22 M0 22 C0 17.39, 0 12.78, 0 0 M0 22 C0 16.23, 0 10.45, 0 0" stroke="#0c8599" stroke-width="2" fill="none"></path></g><g transform="translate(40 413.5) rotate(0 50 7.5)"><text x="50" y="NaN" font-family="Cascadia, Segoe UI Emoji" font-size="12px" fill="#0c8599" text-anchor="middle" style="white-space: pre;" direction="ltr">#email</text></g><g stroke-linecap="round" transform="translate(30 410) rotate(0 60 11)"><path d="M0 0 L120 0 L120 22 L0 22" stroke="none" stroke-width="0" fill="#99e9f2"></path><path d="M0 0 C39.46 0, 78.93 0, 120 0 M0 0 C42.59 0, 85.18 0, 120 0 M120 0 C120 4.88, 120 9.76, 120 22 M120 0 C120 8.6, 120 17.2, 120 22 M120 22 C91.75 22, 63.51 22, 0 22 M120 22 C80.45 22, 40.91 22, 0 22 M0 22 C0 14.61, 0 7.22, 0 0 M0 22 C0 15.07, 0 8.13, 0 0" stroke="#0c8599" stroke-width="2" fill="none"></path></g><g transform="translate(40 433.5) rotate(0 50 7.5)"><text x="50" y="NaN" font-family="Cascadia, Segoe UI Emoji" font-size="12px" fill="#0c8599" text-anchor="middle" style="white-space: pre;" direction="ltr">#youtube</text></g><g stroke-linecap="round" transform="translate(30 430) rotate(0 60 11)"><path d="M0 0 L120 0 L120 22 L0 22" stroke="none" stroke-width="0" fill="#99e9f2"></path><path d="M0 0 C29.34 0, 58.67 0, 120 0 M0 0 C42.55 0, 85.11 0, 120 0 M120 0 C120 4.53, 120 9.06, 120 22 M120 0 C120 5.41, 120 10.83, 120 22 M120 22 C74.24 22, 28.49 22, 0 22 M120 22 C82.76 22, 45.53 22, 0 22 M0 22 C0 16.27, 0 10.54, 0 0 M0 22 C0 16.49, 0 10.98, 0 0" stroke="#0c8599" stroke-width="2" fill="none"></path></g><g transform="translate(40 453.5) rotate(0 50 7.5)"><text x="50" y="NaN" font-family="Cascadia, Segoe UI Emoji" font-size="12px" fill="#0c8599" text-anchor="middle" style="white-space: pre;" direction="ltr">#article</text></g><g stroke-linecap="round" transform="translate(30 450) rotate(0 60 11)"><path d="M0 0 L120 0 L120 22 L0 22" stroke="none" stroke-width="0" fill="#99e9f2"></path><path d="M0 0 C28.63 0, 57.27 0, 120 0 M0 0 C37.01 0, 74.02 0, 120 0 M120 0 C120 7.47, 120 14.95, 120 22 M120 0 C120 5.25, 120 10.5, 120 22 M120 22 C78.35 22, 36.71 22, 0 22 M120 22 C82.38 22, 44.75 22, 0 22 M0 22 C0 15.22, 0 8.44, 0 0 M0 22 C0 16.5, 0 11.01, 0 0" stroke="#0c8599" stroke-width="2" fill="none"></path></g><g stroke-linecap="round" transform="translate(310 330) rotate(0 130 90)"><path d="M0 0 L260 0 L260 180 L0 180" stroke="none" stroke-width="0" fill="#d0bfff"></path><path d="M0 0 C53.01 0, 106.01 0, 260 0 M0 0 C60.2 0, 120.39 0, 260 0 M260 0 C260 39.44, 260 78.89, 260 180 M260 0 C260 44.46, 260 88.93, 260 180 M260 180 C184.13 180, 108.25 180, 0 180 M260 180 C203.03 180, 146.06 180, 0 180 M0 180 C0 136.08, 0 92.17, 0 0 M0 180 C0 125.05, 0 70.11, 0 0" stroke="#7048e8" stroke-width="1" fill="none"></path></g><g transform="translate(330 350) rotate(0 27 11.25)"><text x="0" y="NaN" font-family="Cascadia, Segoe UI Emoji" font-size="18px" fill="#7048e8" text-anchor="start" style="white-space: pre;" direction="ltr">Agent</text></g><g transform="translate(340 393.5) rotate(0 50 7.5)"><text x="50" y="NaN" font-family="Cascadia, Segoe UI Emoji" font-size="12px" fill="#7048e8" text-anchor="middle" style="white-space: pre;" direction="ltr">#claude</text></g><g stroke-linecap="round" transform="translate(330 390) rotate(0 60 11)"><path d="M0 0 L120 0 L120 22 L0 22" stroke="none" stroke-width="0" fill="#d0bfff"></path><path d="M0 0 C46.76 0, 93.52 0, 120 0 M0 0 C36.41 0, 72.81 0, 120 0 M120 0 C120 8.09, 120 16.17, 120 22 M120 0 C120 7.16, 120 14.32, 120 22 M120 22 C74.9 22, 29.79 22, 0 22 M120 22 C86.67 22, 53.35 22, 0 22 M0 22 C0 14.91, 0 7.83, 0 0 M0 22 C0 13.56, 0 5.12, 0 0" stroke="#7048e8" stroke-width="2" fill="none"></path></g><g transform="translate(340 413.5) rotate(0 50 7.5)"><text x="50" y="NaN" font-family="Cascadia, Segoe UI Emoji" font-size="12px" fill="#7048e8" text-anchor="middle" style="white-space: pre;" direction="ltr">#agent</text></g><g stroke-linecap="round" transform="translate(330 410) rotate(0 60 11)"><path d="M0 0 L120 0 L120 22 L0 22" stroke="none" stroke-width="0" fill="#d0bfff"></path><path d="M0 0 C33.13 0, 66.25 0, 120 0 M0 0 C30.84 0, 61.69 0, 120 0 M120 0 C120 5.91, 120 11.81, 120 22 M120 0 C120 6.55, 120 13.1, 120 22 M120 22 C73.49 22, 26.97 22, 0 22 M120 22 C93.89 22, 67.77 22, 0 22 M0 22 C0 15.32, 0 8.64, 0 0 M0 22 C0 17.56, 0 13.12, 0 0" stroke="#7048e8" stroke-width="2" fill="none"></path></g><g transform="translate(340 433.5) rotate(0 50 7.5)"><text x="50" y="NaN" font-family="Cascadia, Segoe UI Emoji" font-size="12px" fill="#7048e8" text-anchor="middle" style="white-space: pre;" direction="ltr">#hook</text></g><g stroke-linecap="round" transform="translate(330 430) rotate(0 60 11)"><path d="M0 0 L120 0 L120 22 L0 22" stroke="none" stroke-width="0" fill="#d0bfff"></path><path d="M0 0 C32.17 0, 64.33 0, 120 0 M0 0 C36.67 0, 73.33 0, 120 0 M120 0 C120 5.7, 120 11.41, 120 22 M120 0 C120 4.5, 120 9, 120 22 M120 22 C95.06 22, 70.11 22, 0 22 M120 22 C91.18 22, 62.36 22, 0 22 M0 22 C0 14.21, 0 6.42, 0 0 M0 22 C0 13.97, 0 5.94, 0 0" stroke="#7048e8" stroke-width="2" fill="none"></path></g><g transform="translate(340 453.5) rotate(0 50 7.5)"><text x="50" y="NaN" font-family="Cascadia, Segoe UI Emoji" font-size="12px" fill="#7048e8" text-anchor="middle" style="white-space: pre;" direction="ltr">#skill</text></g><g stroke-linecap="round" transform="translate(330 450) rotate(0 60 11)"><path d="M0 0 L120 0 L120 22 L0 22" stroke="none" stroke-width="0" fill="#d0bfff"></path><path d="M0 0 C40.74 0, 81.48 0, 120 0 M0 0 C33.88 0, 67.75 0, 120 0 M120 0 C120 8.3, 120 16.59, 120 22 M120 0 C120 7.88, 120 15.76, 120 22 M120 22 C76.88 22, 33.75 22, 0 22 M120 22 C82.81 22, 45.62 22, 0 22 M0 22 C0 17.09, 0 12.18, 0 0 M0 22 C0 16.39, 0 10.77, 0 0" stroke="#7048e8" stroke-width="2" fill="none"></path></g><g stroke-linecap="round" transform="translate(610 330) rotate(0 130 90)"><path d="M0 0 L260 0 L260 180 L0 180" stroke="none" stroke-width="0" fill="#dee2e6"></path><path d="M0 0 C64.11 0, 128.21 0, 260 0 M0 0 C86.44 0, 172.88 0, 260 0 M260 0 C260 44.83, 260 89.66, 260 180 M260 0 C260 45.43, 260 90.86, 260 180 M260 180 C206.55 180, 153.1 180, 0 180 M260 180 C183.51 180, 107.02 180, 0 180 M0 180 C0 125.75, 0 71.49, 0 0 M0 180 C0 129.67, 0 79.34, 0 0" stroke="#868e96" stroke-width="1" fill="none"></path></g><g transform="translate(610 350) rotate(0 21.600000000000023 11.25)"><text x="0" y="NaN" font-family="Cascadia, Segoe UI Emoji" font-size="18px" fill="#868e96" text-anchor="start" style="white-space: pre;" direction="ltr">Meta</text></g><g transform="translate(640 393.5) rotate(0 50 7.5)"><text x="50" y="NaN" font-family="Cascadia, Segoe UI Emoji" font-size="12px" fill="#868e96" text-anchor="middle" style="white-space: pre;" direction="ltr">#index</text></g><g stroke-linecap="round" transform="translate(630 390) rotate(0 60 11)"><path d="M0 0 L120 0 L120 22 L0 22" stroke="none" stroke-width="0" fill="#dee2e6"></path><path d="M0 0 C24.67 0, 49.34 0, 120 0 M0 0 C30.21 0, 60.41 0, 120 0 M120 0 C120 7.19, 120 14.38, 120 22 M120 0 C120 7.31, 120 14.62, 120 22 M120 22 C87.05 22, 54.1 22, 0 22 M120 22 C92.06 22, 64.13 22, 0 22 M0 22 C0 14.51, 0 7.02, 0 0 M0 22 C0 15.34, 0 8.67, 0 0" stroke="#868e96" stroke-width="2" fill="none"></path></g><g transform="translate(640 413.5) rotate(0 50 7.5)"><text x="50" y="NaN" font-family="Cascadia, Segoe UI Emoji" font-size="12px" fill="#868e96" text-anchor="middle" style="white-space: pre;" direction="ltr">#dashboard</text></g><g stroke-linecap="round" transform="translate(630 410) rotate(0 60 11)"><path d="M0 0 L120 0 L120 22 L0 22" stroke="none" stroke-width="0" fill="#dee2e6"></path><path d="M0 0 C29.93 0, 59.86 0, 120 0 M0 0 C25.67 0, 51.35 0, 120 0 M120 0 C120 6.45, 120 12.89, 120 22 M120 0 C120 6.23, 120 12.45, 120 22 M120 22 C93.06 22, 66.11 22, 0 22 M120 22 C84.61 22, 49.21 22, 0 22 M0 22 C0 14.87, 0 7.75, 0 0 M0 22 C0 15.96, 0 9.92, 0 0" stroke="#868e96" stroke-width="2" fill="none"></path></g><g transform="translate(640 433.5) rotate(0 50 7.5)"><text x="50" y="NaN" font-family="Cascadia, Segoe UI Emoji" font-size="12px" fill="#868e96" text-anchor="middle" style="white-space: pre;" direction="ltr">#report</text></g><g stroke-linecap="round" transform="translate(630 430) rotate(0 60 11)"><path d="M0 0 L120 0 L120 22 L0 22" stroke="none" stroke-width="0" fill="#dee2e6"></path><path d="M0 0 C44.73 0, 89.46 0, 120 0 M0 0 C42.58 0, 85.15 0, 120 0 M120 0 C120 5.84, 120 11.68, 120 22 M120 0 C120 7.05, 120 14.1, 120 22 M120 22 C90.85 22, 61.69 22, 0 22 M120 22 C76.79 22, 33.58 22, 0 22 M0 22 C0 17.45, 0 12.9, 0 0 M0 22 C0 13.36, 0 4.73, 0 0" stroke="#868e96" stroke-width="2" fill="none"></path></g><g transform="translate(640 453.5) rotate(0 50 7.5)"><text x="50" y="NaN" font-family="Cascadia, Segoe UI Emoji" font-size="12px" fill="#868e96" text-anchor="middle" style="white-space: pre;" direction="ltr">#template</text></g><g stroke-linecap="round" transform="translate(630 450) rotate(0 60 11)"><path d="M0 0 L120 0 L120 22 L0 22" stroke="none" stroke-width="0" fill="#dee2e6"></path><path d="M0 0 C27.3 0, 54.61 0, 120 0 M0 0 C33.94 0, 67.88 0, 120 0 M120 0 C120 4.9, 120 9.81, 120 22 M120 0 C120 8.37, 120 16.73, 120 22 M120 22 C75.74 22, 31.48 22, 0 22 M120 22 C84.63 22, 49.26 22, 0 22 M0 22 C0 15.35, 0 8.7, 0 0 M0 22 C0 14.63, 0 7.27, 0 0" stroke="#868e96" stroke-width="2" fill="none"></path></g></svg>