<svg version="1.1" xmlns="http://www.w3.org/2000/svg" viewBox="0 0 940 805" width="940" height="805">
  <!-- svg-source:excalidraw -->
  
  <defs>
    <style>
      @font-face {
        font-family: "Virgil";
        src: url("https://excalidraw.com/Virgil.woff2");
      }
      @font-face {
        font-family: "Cascadia";
        src: url("https://excalidraw.com/Cascadia.woff2");
      }
    </style>
  </defs>
  <rect x="0" y="0" width="940" height="805" fill="#ffffff"></rect><g transform="translate(10 10) rotate(0 201.6 17.5)"><text x="0" y="NaN" font-family="Cascadia, Segoe UI Emoji" font-size="28px" fill="#343a40" text-anchor="start" style="white-space: pre;" direction="ltr">Vault Structure Overview</text></g><g transform="translate(10 50) rotate(0 168 8.75)"><text x="0" y="NaN" font-family="Cascadia, Segoe UI Emoji" font-size="14px" fill="#868e96" text-anchor="start" style="white-space: pre;" direction="ltr">7,001 files across ~25 top-level folders</text></g><g transform="translate(10 90) rotate(0 105.6 13.75)"><text x="0" y="NaN" font-family="Cascadia, Segoe UI Emoji" font-size="22px" fill="#343a40" text-anchor="start" style="white-space: pre;" direction="ltr">Folder Hierarchy</text></g><g transform="translate(20 164.375) rotate(0 130 8.125)"><text x="130" y="NaN" font-family="Cascadia, Segoe UI Emoji" font-size="13px" fill="#1971c2" text-anchor="middle" style="white-space: pre;" direction="ltr">00-Inbox  (2,274)</text></g><g stroke-linecap="round" transform="translate(10 150) rotate(0 140 22.5)"><path d="M0 0 L280 0 L280 45 L0 45" stroke="none" stroke-width="0" fill="#a5d8ff"></path><path d="M0 0 C75.27 0, 150.55 0, 280 0 M0 0 C107.67 0, 215.34 0, 280 0 M280 0 C280 12.75, 280 25.51, 280 45 M280 0 C280 14.78, 280 29.56, 280 45 M280 45 C201.18 45, 122.36 45, 0 45 M280 45 C197.75 45, 115.49 45, 0 45 M0 45 C0 33.18, 0 21.37, 0 0 M0 45 C0 34.53, 0 24.05, 0 0" stroke="#1971c2" stroke-width="2" fill="none"></path></g><g transform="translate(20 204.375) rotate(0 130 8.125)"><text x="130" y="NaN" font-family="Cascadia, Segoe UI Emoji" font-size="13px" fill="#1971c2" text-anchor="middle" style="white-space: pre;" direction="ltr">13-Reports  (1,514)</text></g><g stroke-linecap="round" transform="translate(10 190) rotate(0 140 22.5)"><path d="M0 0 L280 0 L280 45 L0 45" stroke="none" stroke-width="0" fill="#a5d8ff"></path><path d="M0 0 C91.84 0, 183.69 0, 280 0 M0 0 C72.13 0, 144.26 0, 280 0 M280 0 C280 13.72, 280 27.44, 280 45 M280 0 C280 14.74, 280 29.47, 280 45 M280 45 C204.63 45, 129.27 45, 0 45 M280 45 C207.38 45, 134.75 45, 0 45 M0 45 C0 27.71, 0 10.43, 0 0 M0 45 C0 33.89, 0 22.78, 0 0" stroke="#1971c2" stroke-width="2" fill="none"></path></g><g transform="translate(20 264.375) rotate(0 130 8.125)"><text x="130" y="NaN" font-family="Cascadia, Segoe UI Emoji" font-size="13px" fill="#1971c2" text-anchor="middle" style="white-space: pre;" direction="ltr">03-Knowledge  (1,246)</text></g><g stroke-linecap="round" transform="translate(10 250) rotate(0 140 22.5)"><path d="M0 0 L280 0 L280 45 L0 45" stroke="none" stroke-width="0" fill="#a5d8ff"></path><path d="M0 0 C97.61 0, 195.23 0, 280 0 M0 0 C97.13 0, 194.27 0, 280 0 M280 0 C280 12.68, 280 25.36, 280 45 M280 0 C280 12.23, 280 24.47, 280 45 M280 45 C194.14 45, 108.29 45, 0 45 M280 45 C173.92 45, 67.84 45, 0 45 M0 45 C0 28.34, 0 11.69, 0 0 M0 45 C0 31.04, 0 17.08, 0 0" stroke="#1971c2" stroke-width="2" fill="none"></path></g><g transform="translate(20 324.375) rotate(0 130 8.125)"><text x="130" y="NaN" font-family="Cascadia, Segoe UI Emoji" font-size="13px" fill="#0c8599" text-anchor="middle" style="white-space: pre;" direction="ltr">_system  (448)</text></g><g stroke-linecap="round" transform="translate(10 310) rotate(0 140 22.5)"><path d="M0 0 L280 0 L280 45 L0 45" stroke="none" stroke-width="0" fill="#99e9f2"></path><path d="M0 0 C77.91 0, 155.82 0, 280 0 M0 0 C95.34 0, 190.68 0, 280 0 M280 0 C280 12.94, 280 25.87, 280 45 M280 0 C280 12.04, 280 24.08, 280 45 M280 45 C179.2 45, 78.39 45, 0 45 M280 45 C173.77 45, 67.54 45, 0 45 M0 45 C0 31.2, 0 17.4, 0 0 M0 45 C0 33.82, 0 22.65, 0 0" stroke="#0c8599" stroke-width="2" fill="none"></path></g><g transform="translate(20 364.375) rotate(0 130 8.125)"><text x="130" y="NaN" font-family="Cascadia, Segoe UI Emoji" font-size="13px" fill="#0c8599" text-anchor="middle" style="white-space: pre;" direction="ltr">04-Sessions  (413)</text></g><g stroke-linecap="round" transform="translate(10 350) rotate(0 140 22.5)"><path d="M0 0 L280 0 L280 45 L0 45" stroke="none" stroke-width="0" fill="#99e9f2"></path><path d="M0 0 C87.67 0, 175.35 0, 280 0 M0 0 C72.96 0, 145.91 0, 280 0 M280 0 C280 10.56, 280 21.11, 280 45 M280 0 C280 10.29, 280 20.57, 280 45 M280 45 C173.54 45, 67.07 45, 0 45 M280 45 C179.98 45, 79.97 45, 0 45 M0 45 C0 30.29, 0 15.58, 0 0 M0 45 C0 27.51, 0 10.03, 0 0" stroke="#0c8599" stroke-width="2" fill="none"></path></g><g transform="translate(20 424.375) rotate(0 130 8.125)"><text x="130" y="NaN" font-family="Cascadia, Segoe UI Emoji" font-size="13px" fill="#0c8599" text-anchor="middle" style="white-space: pre;" direction="ltr">.claude  (372)</text></g><g stroke-linecap="round" transform="translate(10 410) rotate(0 140 22.5)"><path d="M0 0 L280 0 L280 45 L0 45" stroke="none" stroke-width="0" fill="#99e9f2"></path><path d="M0 0 C97.74 0, 195.49 0, 280 0 M0 0 C107.45 0, 214.91 0, 280 0 M280 0 C280 15.05, 280 30.1, 280 45 M280 0 C280 10.37, 280 20.74, 280 45 M280 45 C186.18 45, 92.36 45, 0 45 M280 45 C221 45, 162 45, 0 45 M0 45 C0 29.56, 0 14.12, 0 0 M0 45 C0 33.96, 0 22.92, 0 0" stroke="#0c8599" stroke-width="2" fill="none"></path></g><g transform="translate(20 484.375) rotate(0 130 8.125)"><text x="130" y="NaN" font-family="Cascadia, Segoe UI Emoji" font-size="13px" fill="#868e96" text-anchor="middle" style="white-space: pre;" direction="ltr">10-Meta  (150)</text></g><g stroke-linecap="round" transform="translate(10 470) rotate(0 140 22.5)"><path d="M0 0 L280 0 L280 45 L0 45" stroke="none" stroke-width="0" fill="#dee2e6"></path><path d="M0 0 C75.94 0, 151.89 0, 280 0 M0 0 C107.65 0, 215.3 0, 280 0 M280 0 C280 16.55, 280 33.1, 280 45 M280 0 C280 13.61, 280 27.22, 280 45 M280 45 C181.37 45, 82.74 45, 0 45 M280 45 C215.2 45, 150.4 45, 0 45 M0 45 C0 28.07, 0 11.15, 0 0 M0 45 C0 35.81, 0 26.63, 0 0" stroke="#868e96" stroke-width="2" fill="none"></path></g><g transform="translate(20 544.375) rotate(0 130 8.125)"><text x="130" y="NaN" font-family="Cascadia, Segoe UI Emoji" font-size="13px" fill="#868e96" text-anchor="middle" style="white-space: pre;" direction="ltr">99-Archive  (104)</text></g><g stroke-linecap="round" transform="translate(10 530) rotate(0 140 22.5)"><path d="M0 0 L280 0 L280 45 L0 45" stroke="none" stroke-width="0" fill="#dee2e6"></path><path d="M0 0 C105.93 0, 211.85 0, 280 0 M0 0 C89.68 0, 179.37 0, 280 0 M280 0 C280 10.1, 280 20.21, 280 45 M280 0 C280 13.7, 280 27.4, 280 45 M280 45 C222.8 45, 165.6 45, 0 45 M280 45 C209.61 45, 139.21 45, 0 45 M0 45 C0 31.81, 0 18.61, 0 0 M0 45 C0 33.7, 0 22.4, 0 0" stroke="#868e96" stroke-width="2" fill="none"></path></g><g transform="translate(20 604.375) rotate(0 130 8.125)"><text x="130" y="NaN" font-family="Cascadia, Segoe UI Emoji" font-size="13px" fill="#868e96" text-anchor="middle" style="white-space: pre;" direction="ltr">06-Config  (93)</text></g><g stroke-linecap="round" transform="translate(10 590) rotate(0 140 22.5)"><path d="M0 0 L280 0 L280 45 L0 45" stroke="none" stroke-width="0" fill="#dee2e6"></path><path d="M0 0 C88.28 0, 176.56 0, 280 0 M0 0 C87.16 0, 174.31 0, 280 0 M280 0 C280 9.85, 280 19.69, 280 45 M280 0 C280 11.74, 280 23.48, 280 45 M280 45 C211.15 45, 142.3 45, 0 45 M280 45 C202.68 45, 125.35 45, 0 45 M0 45 C0 35.37, 0 25.75, 0 0 M0 45 C0 31.42, 0 17.85, 0 0" stroke="#868e96" stroke-width="2" fill="none"></path></g><g transform="translate(20 644.375) rotate(0 130 8.125)"><text x="130" y="NaN" font-family="Cascadia, Segoe UI Emoji" font-size="13px" fill="#868e96" text-anchor="middle" style="white-space: pre;" direction="ltr">01-Journal  (66)</text></g><g stroke-linecap="round" transform="translate(10 630) rotate(0 140 22.5)"><path d="M0 0 L280 0 L280 45 L0 45" stroke="none" stroke-width="0" fill="#dee2e6"></path><path d="M0 0 C77.88 0, 155.77 0, 280 0 M0 0 C100.34 0, 200.68 0, 280 0 M280 0 C280 9.39, 280 18.78, 280 45 M280 0 C280 17.67, 280 35.34, 280 45 M280 45 C207.6 45, 135.21 45, 0 45 M280 45 C199.58 45, 119.16 45, 0 45 M0 45 C0 34.92, 0 24.84, 0 0 M0 45 C0 34.27, 0 23.55, 0 0" stroke="#868e96" stroke-width="2" fill="none"></path></g><g transform="translate(20 704.375) rotate(0 130 8.125)"><text x="130" y="NaN" font-family="Cascadia, Segoe UI Emoji" font-size="13px" fill="#868e96" text-anchor="middle" style="white-space: pre;" direction="ltr">Excalidraw  (46)</text></g><g stroke-linecap="round" transform="translate(10 690) rotate(0 140 22.5)"><path d="M0 0 L280 0 L280 45 L0 45" stroke="none" stroke-width="0" fill="#dee2e6"></path><path d="M0 0 C66.98 0, 133.97 0, 280 0 M0 0 C57.67 0, 115.34 0, 280 0 M280 0 C280 16.66, 280 33.33, 280 45 M280 0 C280 9.94, 280 19.87, 280 45 M280 45 C209.49 45, 138.99 45, 0 45 M280 45 C175.73 45, 71.47 45, 0 45 M0 45 C0 33, 0 21.01, 0 0 M0 45 C0 34.18, 0 23.36, 0 0" stroke="#868e96" stroke-width="2" fill="none"></path></g><g transform="translate(20 764.375) rotate(0 130 8.125)"><text x="130" y="NaN" font-family="Cascadia, Segoe UI Emoji" font-size="13px" fill="#868e96" text-anchor="middle" style="white-space: pre;" direction="ltr">08-Reference  (22)</text></g><g stroke-linecap="round" transform="translate(10 750) rotate(0 140 22.5)"><path d="M0 0 L280 0 L280 45 L0 45" stroke="none" stroke-width="0" fill="#dee2e6"></path><path d="M0 0 C81.1 0, 162.2 0, 280 0 M0 0 C57 0, 114 0, 280 0 M280 0 C280 9.21, 280 18.41, 280 45 M280 0 C280 13.05, 280 26.09, 280 45 M280 45 C177.45 45, 74.91 45, 0 45 M280 45 C190.68 45, 101.36 45, 0 45 M0 45 C0 33.85, 0 22.69, 0 0 M0 45 C0 28.54, 0 12.07, 0 0" stroke="#868e96" stroke-width="2" fill="none"></path></g><g transform="translate(370 90) rotate(0 145.2 13.75)"><text x="0" y="NaN" font-family="Cascadia, Segoe UI Emoji" font-size="22px" fill="#343a40" text-anchor="start" style="white-space: pre;" direction="ltr">Distribution (Treemap)</text></g><g transform="translate(380 220) rotate(0 160 30)"><text x="160" y="NaN" font-family="Cascadia, Segoe UI Emoji" font-size="16px" fill="#1971c2" text-anchor="middle" style="white-space: pre;" direction="ltr">00-Inbox</text><text x="160" y="NaN" font-family="Cascadia, Segoe UI Emoji" font-size="16px" fill="#1971c2" text-anchor="middle" style="white-space: pre;" direction="ltr">2,274 files</text><text x="160" y="NaN" font-family="Cascadia, Segoe UI Emoji" font-size="16px" fill="#1971c2" text-anchor="middle" style="white-space: pre;" direction="ltr">32.5%</text></g><g stroke-linecap="round" transform="translate(370 150) rotate(0 170 100)"><path d="M0 0 L340 0 L340 200 L0 200" stroke="none" stroke-width="0" fill="#a5d8ff"></path><path d="M0 0 C111.02 0, 222.03 0, 340 0 M0 0 C106.01 0, 212.01 0, 340 0 M340 0 C340 63.19, 340 126.37, 340 200 M340 0 C340 63.56, 340 127.11, 340 200 M340 200 C225.66 200, 111.33 200, 0 200 M340 200 C264.91 200, 189.83 200, 0 200 M0 200 C0 124.1, 0 48.2, 0 0 M0 200 C0 156.01, 0 112.01, 0 0" stroke="#1971c2" stroke-width="2" fill="none"></path></g><g transform="translate(380 395) rotate(0 160 30)"><text x="160" y="NaN" font-family="Cascadia, Segoe UI Emoji" font-size="16px" fill="#1971c2" text-anchor="middle" style="white-space: pre;" direction="ltr">13-Reports</text><text x="160" y="NaN" font-family="Cascadia, Segoe UI Emoji" font-size="16px" fill="#1971c2" text-anchor="middle" style="white-space: pre;" direction="ltr">1,514 files</text><text x="160" y="NaN" font-family="Cascadia, Segoe UI Emoji" font-size="16px" fill="#1971c2" text-anchor="middle" style="white-space: pre;" direction="ltr">21.6%</text></g><g stroke-linecap="round" transform="translate(370 350) rotate(0 170 75)"><path d="M0 0 L340 0 L340 150 L0 150" stroke="none" stroke-width="0" fill="#a5d8ff"></path><path d="M0 0 C118.06 0, 236.12 0, 340 0 M0 0 C95.05 0, 190.09 0, 340 0 M340 0 C340 41.16, 340 82.32, 340 150 M340 0 C340 39.91, 340 79.81, 340 150 M340 150 C205.05 150, 70.1 150, 0 150 M340 150 C236.95 150, 133.9 150, 0 150 M0 150 C0 106.72, 0 63.44, 0 0 M0 150 C0 90.61, 0 31.22, 0 0" stroke="#1971c2" stroke-width="2" fill="none"></path></g><g transform="translate(380 560) rotate(0 160 30)"><text x="160" y="NaN" font-family="Cascadia, Segoe UI Emoji" font-size="16px" fill="#1971c2" text-anchor="middle" style="white-space: pre;" direction="ltr">03-Knowledge</text><text x="160" y="NaN" font-family="Cascadia, Segoe UI Emoji" font-size="16px" fill="#1971c2" text-anchor="middle" style="white-space: pre;" direction="ltr">1,246 files</text><text x="160" y="NaN" font-family="Cascadia, Segoe UI Emoji" font-size="16px" fill="#1971c2" text-anchor="middle" style="white-space: pre;" direction="ltr">17.8%</text></g><g stroke-linecap="round" transform="translate(370 530) rotate(0 170 60)"><path d="M0 0 L340 0 L340 120 L0 120" stroke="none" stroke-width="0" fill="#a5d8ff"></path><path d="M0 0 C81.37 0, 162.74 0, 340 0 M0 0 C108.96 0, 217.93 0, 340 0 M340 0 C340 35.46, 340 70.92, 340 120 M340 0 C340 35.21, 340 70.42, 340 120 M340 120 C253 120, 166 120, 0 120 M340 120 C216.29 120, 92.59 120, 0 120 M0 120 C0 81.72, 0 43.43, 0 0 M0 120 C0 76.46, 0 32.92, 0 0" stroke="#1971c2" stroke-width="2" fill="none"></path></g><g transform="translate(740 185) rotate(0 90 15)"><text x="90" y="NaN" font-family="Cascadia, Segoe UI Emoji" font-size="12px" fill="#0c8599" text-anchor="middle" style="white-space: pre;" direction="ltr">_system</text><text x="90" y="NaN" font-family="Cascadia, Segoe UI Emoji" font-size="12px" fill="#0c8599" text-anchor="middle" style="white-space: pre;" direction="ltr">448 (6.4%)</text></g><g stroke-linecap="round" transform="translate(730 150) rotate(0 100 50)"><path d="M0 0 L200 0 L200 100 L0 100" stroke="none" stroke-width="0" fill="#99e9f2"></path><path d="M0 0 C44.62 0, 89.24 0, 200 0 M0 0 C74.7 0, 149.4 0, 200 0 M200 0 C200 29.05, 200 58.1, 200 100 M200 0 C200 35.48, 200 70.96, 200 100 M200 100 C125.36 100, 50.71 100, 0 100 M200 100 C130.43 100, 60.85 100, 0 100 M0 100 C0 62.61, 0 25.22, 0 0 M0 100 C0 66.55, 0 33.1, 0 0" stroke="#0c8599" stroke-width="2" fill="none"></path></g><g transform="translate(740 300) rotate(0 90 15)"><text x="90" y="NaN" font-family="Cascadia, Segoe UI Emoji" font-size="12px" fill="#0c8599" text-anchor="middle" style="white-space: pre;" direction="ltr">04-Sessions</text><text x="90" y="NaN" font-family="Cascadia, Segoe UI Emoji" font-size="12px" fill="#0c8599" text-anchor="middle" style="white-space: pre;" direction="ltr">413 (5.9%)</text></g><g stroke-linecap="round" transform="translate(730 270) rotate(0 100 45)"><path d="M0 0 L200 0 L200 90 L0 90" stroke="none" stroke-width="0" fill="#99e9f2"></path><path d="M0 0 C64.6 0, 129.2 0, 200 0 M0 0 C63.36 0, 126.73 0, 200 0 M200 0 C200 18.78, 200 37.56, 200 90 M200 0 C200 35.19, 200 70.37, 200 90 M200 90 C133.78 90, 67.56 90, 0 90 M200 90 C139.45 90, 78.91 90, 0 90 M0 90 C0 64.06, 0 38.12, 0 0 M0 90 C0 60.21, 0 30.41, 0 0" stroke="#0c8599" stroke-width="2" fill="none"></path></g><g transform="translate(740 395) rotate(0 90 15)"><text x="90" y="NaN" font-family="Cascadia, Segoe UI Emoji" font-size="12px" fill="#0c8599" text-anchor="middle" style="white-space: pre;" direction="ltr">.claude</text><text x="90" y="NaN" font-family="Cascadia, Segoe UI Emoji" font-size="12px" fill="#0c8599" text-anchor="middle" style="white-space: pre;" direction="ltr">372 (5.3%)</text></g><g stroke-linecap="round" transform="translate(730 370) rotate(0 100 40)"><path d="M0 0 L200 0 L200 80 L0 80" stroke="none" stroke-width="0" fill="#99e9f2"></path><path d="M0 0 C64.62 0, 129.25 0, 200 0 M0 0 C63.49 0, 126.97 0, 200 0 M200 0 C200 16.26, 200 32.52, 200 80 M200 0 C200 26.74, 200 53.49, 200 80 M200 80 C145.3 80, 90.59 80, 0 80 M200 80 C128.67 80, 57.34 80, 0 80 M0 80 C0 54.35, 0 28.69, 0 0 M0 80 C0 59.82, 0 39.63, 0 0" stroke="#0c8599" stroke-width="2" fill="none"></path></g><g transform="translate(740 490) rotate(0 90 15)"><text x="90" y="NaN" font-family="Cascadia, Segoe UI Emoji" font-size="12px" fill="#868e96" text-anchor="middle" style="white-space: pre;" direction="ltr">10-Meta</text><text x="90" y="NaN" font-family="Cascadia, Segoe UI Emoji" font-size="12px" fill="#868e96" text-anchor="middle" style="white-space: pre;" direction="ltr">150 (2.1%)</text></g><g stroke-linecap="round" transform="translate(730 470) rotate(0 100 35)"><path d="M0 0 L200 0 L200 70 L0 70" stroke="none" stroke-width="0" fill="#dee2e6"></path><path d="M0 0 C66.81 0, 133.63 0, 200 0 M0 0 C52.96 0, 105.91 0, 200 0 M200 0 C200 27.78, 200 55.57, 200 70 M200 0 C200 26.81, 200 53.63, 200 70 M200 70 C159.43 70, 118.86 70, 0 70 M200 70 C138.66 70, 77.32 70, 0 70 M0 70 C0 55.48, 0 40.97, 0 0 M0 70 C0 54.05, 0 38.11, 0 0" stroke="#868e96" stroke-width="2" fill="none"></path></g><g transform="translate(740 580) rotate(0 90 15)"><text x="90" y="NaN" font-family="Cascadia, Segoe UI Emoji" font-size="12px" fill="#868e96" text-anchor="middle" style="white-space: pre;" direction="ltr">Others</text><text x="90" y="NaN" font-family="Cascadia, Segoe UI Emoji" font-size="12px" fill="#868e96" text-anchor="middle" style="white-space: pre;" direction="ltr">584 (8.3%)</text></g><g stroke-linecap="round" transform="translate(730 550) rotate(0 100 45)"><path d="M0 0 L200 0 L200 90 L0 90" stroke="none" stroke-width="0" fill="#dee2e6"></path><path d="M0 0 C67.38 0, 134.75 0, 200 0 M0 0 C46.86 0, 93.72 0, 200 0 M200 0 C200 20.31, 200 40.61, 200 90 M200 0 C200 30.47, 200 60.93, 200 90 M200 90 C148.22 90, 96.43 90, 0 90 M200 90 C157.94 90, 115.89 90, 0 90 M0 90 C0 62.77, 0 35.54, 0 0 M0 90 C0 70.56, 0 51.11, 0 0" stroke="#868e96" stroke-width="2" fill="none"></path></g><g transform="translate(370 670) rotate(0 163.2 10)"><text x="0" y="NaN" font-family="Cascadia, Segoe UI Emoji" font-size="16px" fill="#343a40" text-anchor="start" style="white-space: pre;" direction="ltr">Top 3 folders = 71.8% of all files</text></g></svg>