<svg version="1.1" xmlns="http://www.w3.org/2000/svg" viewBox="0 0 1280 660" width="1280" height="660">
  <!-- svg-source:excalidraw -->
  
  <defs>
    <style>
      @font-face {
        font-family: "Virgil";
        src: url("https://excalidraw.com/Virgil.woff2");
      }
      @font-face {
        font-family: "Cascadia";
        src: url("https://excalidraw.com/Cascadia.woff2");
      }
    </style>
  </defs>
  <rect x="0" y="0" width="1280" height="660" fill="#ffffff"></rect><g transform="translate(170 10) rotate(0 344.4 17.5)"><text x="0" y="NaN" font-family="Cascadia, Segoe UI Emoji" font-size="28px" fill="#343a40" text-anchor="start" style="white-space: pre;" direction="ltr">Daily Workflow Timeline (21 Active Crons)</text></g><g stroke-linecap="round"><g transform="translate(30 110) rotate(0 600 0)"><path d="M0 0 C200 0, 1000 0, 1200 0 M0 0 C200 0, 1000 0, 1200 0" stroke="#343a40" stroke-width="2" fill="none"></path></g></g><g stroke-linecap="round"><g transform="translate(30 110) rotate(0 0 10)"><path d="M0 0 C0 3.33, 0 16.67, 0 20 M0 0 C0 3.33, 0 16.67, 0 20" stroke="#343a40" stroke-width="1" fill="none"></path></g></g><g transform="translate(10 130) rotate(0 15 6.25)"><text x="0" y="NaN" font-family="Cascadia, Segoe UI Emoji" font-size="10px" fill="#343a40" text-anchor="start" style="white-space: pre;" direction="ltr">00:00</text></g><g stroke-linecap="round"><g transform="translate(170 110) rotate(0 0 10)"><path d="M0 0 C0 3.33, 0 16.67, 0 20 M0 0 C0 3.33, 0 16.67, 0 20" stroke="#343a40" stroke-width="1" fill="none"></path></g></g><g transform="translate(170 130) rotate(0 15 6.25)"><text x="0" y="NaN" font-family="Cascadia, Segoe UI Emoji" font-size="10px" fill="#343a40" text-anchor="start" style="white-space: pre;" direction="ltr">03:00</text></g><g stroke-linecap="round"><g transform="translate(330 110) rotate(0 0 10)"><path d="M0 0 C0 3.33, 0 16.67, 0 20 M0 0 C0 3.33, 0 16.67, 0 20" stroke="#343a40" stroke-width="1" fill="none"></path></g></g><g transform="translate(310 130) rotate(0 15 6.25)"><text x="0" y="NaN" font-family="Cascadia, Segoe UI Emoji" font-size="10px" fill="#343a40" text-anchor="start" style="white-space: pre;" direction="ltr">06:00</text></g><g stroke-linecap="round"><g transform="translate(490 110) rotate(0 0 10)"><path d="M0 0 C0 3.33, 0 16.67, 0 20 M0 0 C0 3.33, 0 16.67, 0 20" stroke="#343a40" stroke-width="1" fill="none"></path></g></g><g transform="translate(470 130) rotate(0 15 6.25)"><text x="0" y="NaN" font-family="Cascadia, Segoe UI Emoji" font-size="10px" fill="#343a40" text-anchor="start" style="white-space: pre;" direction="ltr">09:00</text></g><g stroke-linecap="round"><g transform="translate(630 110) rotate(0 0 10)"><path d="M0 0 C0 3.33, 0 16.67, 0 20 M0 0 C0 3.33, 0 16.67, 0 20" stroke="#343a40" stroke-width="1" fill="none"></path></g></g><g transform="translate(610 130) rotate(0 15 6.25)"><text x="0" y="NaN" font-family="Cascadia, Segoe UI Emoji" font-size="10px" fill="#343a40" text-anchor="start" style="white-space: pre;" direction="ltr">12:00</text></g><g stroke-linecap="round"><g transform="translate(770 110) rotate(0 0 10)"><path d="M0 0 C0 3.33, 0 16.67, 0 20 M0 0 C0 3.33, 0 16.67, 0 20" stroke="#343a40" stroke-width="1" fill="none"></path></g></g><g transform="translate(770 130) rotate(0 15 6.25)"><text x="0" y="NaN" font-family="Cascadia, Segoe UI Emoji" font-size="10px" fill="#343a40" text-anchor="start" style="white-space: pre;" direction="ltr">15:00</text></g><g stroke-linecap="round"><g transform="translate(930 110) rotate(0 0 10)"><path d="M0 0 C0 3.33, 0 16.67, 0 20 M0 0 C0 3.33, 0 16.67, 0 20" stroke="#343a40" stroke-width="1" fill="none"></path></g></g><g transform="translate(910 130) rotate(0 15 6.25)"><text x="0" y="NaN" font-family="Cascadia, Segoe UI Emoji" font-size="10px" fill="#343a40" text-anchor="start" style="white-space: pre;" direction="ltr">18:00</text></g><g stroke-linecap="round"><g transform="translate(1090 110) rotate(0 0 10)"><path d="M0 0 C0 3.33, 0 16.67, 0 20 M0 0 C0 3.33, 0 16.67, 0 20" stroke="#343a40" stroke-width="1" fill="none"></path></g></g><g transform="translate(1070 130) rotate(0 15 6.25)"><text x="0" y="NaN" font-family="Cascadia, Segoe UI Emoji" font-size="10px" fill="#343a40" text-anchor="start" style="white-space: pre;" direction="ltr">21:00</text></g><g stroke-linecap="round"><g transform="translate(1230 110) rotate(0 0 10)"><path d="M0 0 C0 3.33, 0 16.67, 0 20 M0 0 C0 3.33, 0 16.67, 0 20" stroke="#343a40" stroke-width="1" fill="none"></path></g></g><g transform="translate(1210 130) rotate(0 15 6.25)"><text x="0" y="NaN" font-family="Cascadia, Segoe UI Emoji" font-size="10px" fill="#343a40" text-anchor="start" style="white-space: pre;" direction="ltr">24:00</text></g><g transform="translate(40 158.75) rotate(0 590 6.25)"><text x="590" y="NaN" font-family="Cascadia, Segoe UI Emoji" font-size="10px" fill="#1971c2" text-anchor="middle" style="white-space: pre;" direction="ltr">SLO Check (*/10min)</text></g><g stroke-linecap="round" transform="translate(30 150) rotate(0 600 15)"><path d="M0 0 L1200 0 L1200 30 L0 30" stroke="none" stroke-width="0" fill="#a5d8ff"></path><path d="M0 0 C475.51 0, 951.03 0, 1200 0 M0 0 C457.43 0, 914.86 0, 1200 0 M1200 0 C1200 11.51, 1200 23.02, 1200 30 M1200 0 C1200 6.34, 1200 12.69, 1200 30 M1200 30 C873.55 30, 547.09 30, 0 30 M1200 30 C914.98 30, 629.96 30, 0 30 M0 30 C0 22.27, 0 14.53, 0 0 M0 30 C0 19.92, 0 9.85, 0 0" stroke="#1971c2" stroke-width="2" fill="none"></path></g><g transform="translate(40 198.75) rotate(0 590 6.25)"><text x="590" y="NaN" font-family="Cascadia, Segoe UI Emoji" font-size="10px" fill="#1971c2" text-anchor="middle" style="white-space: pre;" direction="ltr">Dashboard Update (*/15min)</text></g><g stroke-linecap="round" transform="translate(30 190) rotate(0 600 15)"><path d="M0 0 L1200 0 L1200 30 L0 30" stroke="none" stroke-width="0" fill="#a5d8ff"></path><path d="M0 0 C279.68 0, 559.36 0, 1200 0 M0 0 C342.16 0, 684.32 0, 1200 0 M1200 0 C1200 9.49, 1200 18.97, 1200 30 M1200 0 C1200 7.88, 1200 15.76, 1200 30 M1200 30 C815.79 30, 431.59 30, 0 30 M1200 30 C932.66 30, 665.31 30, 0 30 M0 30 C0 18.86, 0 7.72, 0 0 M0 30 C0 20.18, 0 10.36, 0 0" stroke="#1971c2" stroke-width="2" fill="none"></path></g><g transform="translate(40 238.75) rotate(0 590 6.25)"><text x="590" y="NaN" font-family="Cascadia, Segoe UI Emoji" font-size="10px" fill="#1971c2" text-anchor="middle" style="white-space: pre;" direction="ltr">Gmail Token Refresh (*/45min)</text></g><g stroke-linecap="round" transform="translate(30 230) rotate(0 600 15)"><path d="M0 0 L1200 0 L1200 30 L0 30" stroke="none" stroke-width="0" fill="#a5d8ff"></path><path d="M0 0 C451.03 0, 902.06 0, 1200 0 M0 0 C409.15 0, 818.29 0, 1200 0 M1200 0 C1200 10.71, 1200 21.43, 1200 30 M1200 0 C1200 7.35, 1200 14.71, 1200 30 M1200 30 C875.75 30, 551.49 30, 0 30 M1200 30 C882.72 30, 565.45 30, 0 30 M0 30 C0 21, 0 12.01, 0 0 M0 30 C0 23.25, 0 16.49, 0 0" stroke="#1971c2" stroke-width="2" fill="none"></path></g><g transform="translate(40 278.75) rotate(0 590 6.25)"><text x="590" y="NaN" font-family="Cascadia, Segoe UI Emoji" font-size="10px" fill="#2f9e44" text-anchor="middle" style="white-space: pre;" direction="ltr">RSS Ingestion (*/2hr)</text></g><g stroke-linecap="round" transform="translate(30 270) rotate(0 600 15)"><path d="M0 0 L1200 0 L1200 30 L0 30" stroke="none" stroke-width="0" fill="#b2f2bb"></path><path d="M0 0 C336.47 0, 672.94 0, 1200 0 M0 0 C315.12 0, 630.24 0, 1200 0 M1200 0 C1200 7, 1200 14.01, 1200 30 M1200 0 C1200 6.46, 1200 12.93, 1200 30 M1200 30 C943.45 30, 686.9 30, 0 30 M1200 30 C796.08 30, 392.16 30, 0 30 M0 30 C0 22, 0 14, 0 0 M0 30 C0 21.86, 0 13.73, 0 0" stroke="#2f9e44" stroke-width="2" fill="none"></path></g><g transform="translate(140 318.75) rotate(0 40 6.25)"><text x="40" y="NaN" font-family="Cascadia, Segoe UI Emoji" font-size="10px" fill="#1971c2" text-anchor="middle" style="white-space: pre;" direction="ltr">Memory maint.</text></g><g stroke-linecap="round" transform="translate(130 310) rotate(0 50 15)"><path d="M0 0 L100 0 L100 30 L0 30" stroke="none" stroke-width="0" fill="#a5d8ff"></path><path d="M0 0 C38.46 0, 76.92 0, 100 0 M0 0 C29.61 0, 59.22 0, 100 0 M100 0 C100 6.98, 100 13.97, 100 30 M100 0 C100 10.01, 100 20.02, 100 30 M100 30 C71.84 30, 43.68 30, 0 30 M100 30 C62.51 30, 25.02 30, 0 30 M0 30 C0 21.61, 0 13.22, 0 0 M0 30 C0 20.6, 0 11.2, 0 0" stroke="#1971c2" stroke-width="2" fill="none"></path></g><g transform="translate(180 318.75) rotate(0 46 6.25)"><text x="46" y="NaN" font-family="Cascadia, Segoe UI Emoji" font-size="10px" fill="#868e96" text-anchor="middle" style="white-space: pre;" direction="ltr">Quarantine (Sun)</text></g><g stroke-linecap="round" transform="translate(170 310) rotate(0 56 15)"><path d="M0 0 L112 0 L112 30 L0 30" stroke="none" stroke-width="0" fill="#dee2e6"></path><path d="M0 0 C37 0, 74 0, 112 0 M0 0 C40.46 0, 80.91 0, 112 0 M112 0 C112 10, 112 20.01, 112 30 M112 0 C112 9.15, 112 18.29, 112 30 M112 30 C85.29 30, 58.59 30, 0 30 M112 30 C81.19 30, 50.39 30, 0 30 M0 30 C0 23.44, 0 16.88, 0 0 M0 30 C0 22.75, 0 15.49, 0 0" stroke="#868e96" stroke-width="2" fill="none"></path></g><g transform="translate(240 358.75) rotate(0 42.5 6.25)"><text x="42.5" y="NaN" font-family="Cascadia, Segoe UI Emoji" font-size="10px" fill="#868e96" text-anchor="middle" style="white-space: pre;" direction="ltr">Purge (monthly)</text></g><g stroke-linecap="round" transform="translate(230 350) rotate(0 52.5 15)"><path d="M0 0 L105 0 L105 30 L0 30" stroke="none" stroke-width="0" fill="#dee2e6"></path><path d="M0 0 C22.6 0, 45.21 0, 105 0 M0 0 C30.62 0, 61.25 0, 105 0 M105 0 C105 9.82, 105 19.64, 105 30 M105 0 C105 6.73, 105 13.46, 105 30 M105 30 C75.4 30, 45.81 30, 0 30 M105 30 C71.95 30, 38.9 30, 0 30 M0 30 C0 18.17, 0 6.33, 0 0 M0 30 C0 20.85, 0 11.69, 0 0" stroke="#868e96" stroke-width="2" fill="none"></path></g><g transform="translate(340 358.75) rotate(0 40 6.25)"><text x="40" y="NaN" font-family="Cascadia, Segoe UI Emoji" font-size="10px" fill="#2f9e44" text-anchor="middle" style="white-space: pre;" direction="ltr">RSS Digest #1</text></g><g stroke-linecap="round" transform="translate(330 350) rotate(0 50 15)"><path d="M0 0 L100 0 L100 30 L0 30" stroke="none" stroke-width="0" fill="#b2f2bb"></path><path d="M0 0 C32.46 0, 64.91 0, 100 0 M0 0 C36.25 0, 72.49 0, 100 0 M100 0 C100 11.68, 100 23.35, 100 30 M100 0 C100 6.95, 100 13.9, 100 30 M100 30 C76.05 30, 52.11 30, 0 30 M100 30 C61.61 30, 23.23 30, 0 30 M0 30 C0 21.41, 0 12.82, 0 0 M0 30 C0 19.26, 0 8.53, 0 0" stroke="#2f9e44" stroke-width="2" fill="none"></path></g><g transform="translate(340 378.75) rotate(0 40 6.25)"><text x="40" y="NaN" font-family="Cascadia, Segoe UI Emoji" font-size="10px" fill="#7048e8" text-anchor="middle" style="white-space: pre;" direction="ltr">YT Intel (Sun)</text></g><g stroke-linecap="round" transform="translate(330 370) rotate(0 50 15)"><path d="M0 0 L100 0 L100 30 L0 30" stroke="none" stroke-width="0" fill="#d0bfff"></path><path d="M0 0 C39.38 0, 78.75 0, 100 0 M0 0 C34.75 0, 69.49 0, 100 0 M100 0 C100 7.54, 100 15.08, 100 30 M100 0 C100 7.2, 100 14.41, 100 30 M100 30 C66.2 30, 32.4 30, 0 30 M100 30 C64.26 30, 28.51 30, 0 30 M0 30 C0 21.63, 0 13.26, 0 0 M0 30 C0 20.87, 0 11.74, 0 0" stroke="#7048e8" stroke-width="2" fill="none"></path></g><g transform="translate(380 418.75) rotate(0 40 6.25)"><text x="40" y="NaN" font-family="Cascadia, Segoe UI Emoji" font-size="10px" fill="#7048e8" text-anchor="middle" style="white-space: pre;" direction="ltr">YT Likes HB</text></g><g stroke-linecap="round" transform="translate(370 410) rotate(0 50 15)"><path d="M0 0 L100 0 L100 30 L0 30" stroke="none" stroke-width="0" fill="#d0bfff"></path><path d="M0 0 C25.43 0, 50.86 0, 100 0 M0 0 C28.39 0, 56.79 0, 100 0 M100 0 C100 11.19, 100 22.37, 100 30 M100 0 C100 6.79, 100 13.58, 100 30 M100 30 C63.25 30, 26.5 30, 0 30 M100 30 C61.89 30, 23.78 30, 0 30 M0 30 C0 23.63, 0 17.27, 0 0 M0 30 C0 20.1, 0 10.2, 0 0" stroke="#7048e8" stroke-width="2" fill="none"></path></g><g transform="translate(420 378.75) rotate(0 46 6.25)"><text x="46" y="NaN" font-family="Cascadia, Segoe UI Emoji" font-size="10px" fill="#7048e8" text-anchor="middle" style="white-space: pre;" direction="ltr">YT Newsletter AM</text></g><g stroke-linecap="round" transform="translate(410 370) rotate(0 56 15)"><path d="M0 0 L112 0 L112 30 L0 30" stroke="none" stroke-width="0" fill="#d0bfff"></path><path d="M0 0 C38.52 0, 77.04 0, 112 0 M0 0 C24.6 0, 49.2 0, 112 0 M112 0 C112 7.04, 112 14.09, 112 30 M112 0 C112 8.64, 112 17.28, 112 30 M112 30 C81.76 30, 51.51 30, 0 30 M112 30 C67.21 30, 22.42 30, 0 30 M0 30 C0 20.87, 0 11.74, 0 0 M0 30 C0 18.58, 0 7.16, 0 0" stroke="#7048e8" stroke-width="2" fill="none"></path></g><g transform="translate(500 418.75) rotate(0 49.5 6.25)"><text x="49.5" y="NaN" font-family="Cascadia, Segoe UI Emoji" font-size="10px" fill="#e8590c" text-anchor="middle" style="white-space: pre;" direction="ltr">Monthly Rpt (1st)</text></g><g stroke-linecap="round" transform="translate(490 410) rotate(0 59.5 15)"><path d="M0 0 L119 0 L119 30 L0 30" stroke="none" stroke-width="0" fill="#ffd8a8"></path><path d="M0 0 C40.64 0, 81.28 0, 119 0 M0 0 C38.49 0, 76.98 0, 119 0 M119 0 C119 7.29, 119 14.58, 119 30 M119 0 C119 8.7, 119 17.4, 119 30 M119 30 C87.65 30, 56.3 30, 0 30 M119 30 C85.2 30, 51.4 30, 0 30 M0 30 C0 18.74, 0 7.47, 0 0 M0 30 C0 23.06, 0 16.11, 0 0" stroke="#e8590c" stroke-width="2" fill="none"></path></g><g transform="translate(500 458.75) rotate(0 56.5 6.25)"><text x="56.5" y="NaN" font-family="Cascadia, Segoe UI Emoji" font-size="10px" fill="#1971c2" text-anchor="middle" style="white-space: pre;" direction="ltr">Weekly Health (Sun)</text></g><g stroke-linecap="round" transform="translate(490 450) rotate(0 66.5 15)"><path d="M0 0 L133 0 L133 30 L0 30" stroke="none" stroke-width="0" fill="#a5d8ff"></path><path d="M0 0 C52.13 0, 104.27 0, 133 0 M0 0 C33.5 0, 66.99 0, 133 0 M133 0 C133 6.79, 133 13.57, 133 30 M133 0 C133 11.92, 133 23.83, 133 30 M133 30 C101.87 30, 70.74 30, 0 30 M133 30 C96.99 30, 60.98 30, 0 30 M0 30 C0 18.58, 0 7.16, 0 0 M0 30 C0 19.51, 0 9.03, 0 0" stroke="#1971c2" stroke-width="2" fill="none"></path></g><g transform="translate(640 458.75) rotate(0 40 6.25)"><text x="40" y="NaN" font-family="Cascadia, Segoe UI Emoji" font-size="10px" fill="#7048e8" text-anchor="middle" style="white-space: pre;" direction="ltr">YT Likes HB</text></g><g stroke-linecap="round" transform="translate(630 450) rotate(0 50 15)"><path d="M0 0 L100 0 L100 30 L0 30" stroke="none" stroke-width="0" fill="#d0bfff"></path><path d="M0 0 C38.66 0, 77.32 0, 100 0 M0 0 C20.86 0, 41.72 0, 100 0 M100 0 C100 10.19, 100 20.38, 100 30 M100 0 C100 8.2, 100 16.4, 100 30 M100 30 C74.84 30, 49.67 30, 0 30 M100 30 C70.09 30, 40.19 30, 0 30 M0 30 C0 21.1, 0 12.2, 0 0 M0 30 C0 22.82, 0 15.65, 0 0" stroke="#7048e8" stroke-width="2" fill="none"></path></g><g transform="translate(740 418.75) rotate(0 40 6.25)"><text x="40" y="NaN" font-family="Cascadia, Segoe UI Emoji" font-size="10px" fill="#2f9e44" text-anchor="middle" style="white-space: pre;" direction="ltr">RSS Digest #2</text></g><g stroke-linecap="round" transform="translate(730 410) rotate(0 50 15)"><path d="M0 0 L100 0 L100 30 L0 30" stroke="none" stroke-width="0" fill="#b2f2bb"></path><path d="M0 0 C21.9 0, 43.8 0, 100 0 M0 0 C35.79 0, 71.57 0, 100 0 M100 0 C100 6.88, 100 13.76, 100 30 M100 0 C100 9.93, 100 19.86, 100 30 M100 30 C74.36 30, 48.73 30, 0 30 M100 30 C69.58 30, 39.15 30, 0 30 M0 30 C0 20.75, 0 11.51, 0 0 M0 30 C0 22.39, 0 14.79, 0 0" stroke="#2f9e44" stroke-width="2" fill="none"></path></g><g transform="translate(840 498.75) rotate(0 40 6.25)"><text x="40" y="NaN" font-family="Cascadia, Segoe UI Emoji" font-size="10px" fill="#7048e8" text-anchor="middle" style="white-space: pre;" direction="ltr">YT Likes HB</text></g><g stroke-linecap="round" transform="translate(830 490) rotate(0 50 15)"><path d="M0 0 L100 0 L100 30 L0 30" stroke="none" stroke-width="0" fill="#d0bfff"></path><path d="M0 0 C24.72 0, 49.44 0, 100 0 M0 0 C26.78 0, 53.57 0, 100 0 M100 0 C100 10.62, 100 21.25, 100 30 M100 0 C100 7.68, 100 15.37, 100 30 M100 30 C76.2 30, 52.4 30, 0 30 M100 30 C65.8 30, 31.61 30, 0 30 M0 30 C0 20.95, 0 11.9, 0 0 M0 30 C0 22.4, 0 14.8, 0 0" stroke="#7048e8" stroke-width="2" fill="none"></path></g><g transform="translate(900 498.75) rotate(0 46 6.25)"><text x="46" y="NaN" font-family="Cascadia, Segoe UI Emoji" font-size="10px" fill="#e8590c" text-anchor="middle" style="white-space: pre;" direction="ltr">Weekly Rpt (Fri)</text></g><g stroke-linecap="round" transform="translate(890 490) rotate(0 56 15)"><path d="M0 0 L112 0 L112 30 L0 30" stroke="none" stroke-width="0" fill="#ffd8a8"></path><path d="M0 0 C40.1 0, 80.19 0, 112 0 M0 0 C31.02 0, 62.04 0, 112 0 M112 0 C112 8.86, 112 17.72, 112 30 M112 0 C112 10.55, 112 21.09, 112 30 M112 30 C77.68 30, 43.36 30, 0 30 M112 30 C82.24 30, 52.49 30, 0 30 M0 30 C0 23.41, 0 16.82, 0 0 M0 30 C0 20.84, 0 11.68, 0 0" stroke="#e8590c" stroke-width="2" fill="none"></path></g><g transform="translate(980 538.75) rotate(0 40 6.25)"><text x="40" y="NaN" font-family="Cascadia, Segoe UI Emoji" font-size="10px" fill="#7048e8" text-anchor="middle" style="white-space: pre;" direction="ltr">YT Likes HB</text></g><g stroke-linecap="round" transform="translate(970 530) rotate(0 50 15)"><path d="M0 0 L100 0 L100 30 L0 30" stroke="none" stroke-width="0" fill="#d0bfff"></path><path d="M0 0 C32.27 0, 64.54 0, 100 0 M0 0 C27.56 0, 55.12 0, 100 0 M100 0 C100 9.82, 100 19.64, 100 30 M100 0 C100 11.31, 100 22.62, 100 30 M100 30 C60.65 30, 21.31 30, 0 30 M100 30 C70.3 30, 40.6 30, 0 30 M0 30 C0 23.4, 0 16.79, 0 0 M0 30 C0 23.13, 0 16.25, 0 0" stroke="#7048e8" stroke-width="2" fill="none"></path></g><g transform="translate(1020 538.75) rotate(0 46 6.25)"><text x="46" y="NaN" font-family="Cascadia, Segoe UI Emoji" font-size="10px" fill="#7048e8" text-anchor="middle" style="white-space: pre;" direction="ltr">YT Newsletter PM</text></g><g stroke-linecap="round" transform="translate(1010 530) rotate(0 56 15)"><path d="M0 0 L112 0 L112 30 L0 30" stroke="none" stroke-width="0" fill="#d0bfff"></path><path d="M0 0 C22.67 0, 45.34 0, 112 0 M0 0 C40.99 0, 81.97 0, 112 0 M112 0 C112 8.2, 112 16.4, 112 30 M112 0 C112 8.01, 112 16.02, 112 30 M112 30 C76.2 30, 40.4 30, 0 30 M112 30 C74.81 30, 37.61 30, 0 30 M0 30 C0 22.64, 0 15.29, 0 0 M0 30 C0 22.55, 0 15.11, 0 0" stroke="#7048e8" stroke-width="2" fill="none"></path></g><g transform="translate(1140 498.75) rotate(0 40 6.25)"><text x="40" y="NaN" font-family="Cascadia, Segoe UI Emoji" font-size="10px" fill="#2f9e44" text-anchor="middle" style="white-space: pre;" direction="ltr">RSS Digest #3</text></g><g stroke-linecap="round" transform="translate(1130 490) rotate(0 50 15)"><path d="M0 0 L100 0 L100 30 L0 30" stroke="none" stroke-width="0" fill="#b2f2bb"></path><path d="M0 0 C37.13 0, 74.26 0, 100 0 M0 0 C36.27 0, 72.54 0, 100 0 M100 0 C100 9.06, 100 18.12, 100 30 M100 0 C100 11.87, 100 23.73, 100 30 M100 30 C64.66 30, 29.32 30, 0 30 M100 30 C72.88 30, 45.76 30, 0 30 M0 30 C0 21.3, 0 12.6, 0 0 M0 30 C0 20.72, 0 11.44, 0 0" stroke="#2f9e44" stroke-width="2" fill="none"></path></g><g transform="translate(1180 538.75) rotate(0 40 6.25)"><text x="40" y="NaN" font-family="Cascadia, Segoe UI Emoji" font-size="10px" fill="#7048e8" text-anchor="middle" style="white-space: pre;" direction="ltr">YT Likes HB</text></g><g stroke-linecap="round" transform="translate(1170 530) rotate(0 50 15)"><path d="M0 0 L100 0 L100 30 L0 30" stroke="none" stroke-width="0" fill="#d0bfff"></path><path d="M0 0 C31.89 0, 63.78 0, 100 0 M0 0 C23.12 0, 46.24 0, 100 0 M100 0 C100 6.26, 100 12.52, 100 30 M100 0 C100 10.28, 100 20.56, 100 30 M100 30 C79.01 30, 58.01 30, 0 30 M100 30 C65.88 30, 31.77 30, 0 30 M0 30 C0 22.22, 0 14.44, 0 0 M0 30 C0 19.96, 0 9.92, 0 0" stroke="#7048e8" stroke-width="2" fill="none"></path></g><g transform="translate(30 570) rotate(0 223.2 7.5)"><text x="0" y="NaN" font-family="Cascadia, Segoe UI Emoji" font-size="12px" fill="#e67700" text-anchor="start" style="white-space: pre;" direction="ltr">Tartanism keepalive: every 5 days (not shown on 24hr timeline)</text></g><g stroke-linecap="round" transform="translate(30 630) rotate(0 10 10)"><path d="M0 0 L20 0 L20 20 L0 20" stroke="none" stroke-width="0" fill="#a5d8ff"></path><path d="M0 0 C7.45 0, 14.89 0, 20 0 M0 0 C7.37 0, 14.74 0, 20 0 M20 0 C20 4.35, 20 8.71, 20 20 M20 0 C20 7.86, 20 15.73, 20 20 M20 20 C15.85 20, 11.71 20, 0 20 M20 20 C14.22 20, 8.44 20, 0 20 M0 20 C0 14.13, 0 8.26, 0 0 M0 20 C0 12.18, 0 4.36, 0 0" stroke="#1971c2" stroke-width="2" fill="none"></path></g><g transform="translate(50 630) rotate(0 21.599999999999994 7.5)"><text x="0" y="NaN" font-family="Cascadia, Segoe UI Emoji" font-size="12px" fill="#343a40" text-anchor="start" style="white-space: pre;" direction="ltr">System</text></g><g stroke-linecap="round" transform="translate(130 630) rotate(0 10 10)"><path d="M0 0 L20 0 L20 20 L0 20" stroke="none" stroke-width="0" fill="#b2f2bb"></path><path d="M0 0 C6.98 0, 13.96 0, 20 0 M0 0 C5.11 0, 10.23 0, 20 0 M20 0 C20 6.12, 20 12.24, 20 20 M20 0 C20 4.26, 20 8.51, 20 20 M20 20 C12.18 20, 4.36 20, 0 20 M20 20 C15.64 20, 11.28 20, 0 20 M0 20 C0 13.4, 0 6.8, 0 0 M0 20 C0 14.83, 0 9.65, 0 0" stroke="#2f9e44" stroke-width="2" fill="none"></path></g><g transform="translate(150 630) rotate(0 25.200000000000003 7.5)"><text x="0" y="NaN" font-family="Cascadia, Segoe UI Emoji" font-size="12px" fill="#343a40" text-anchor="start" style="white-space: pre;" direction="ltr">Content</text></g><g stroke-linecap="round" transform="translate(250 630) rotate(0 10 10)"><path d="M0 0 L20 0 L20 20 L0 20" stroke="none" stroke-width="0" fill="#ffd8a8"></path><path d="M0 0 C4.04 0, 8.09 0, 20 0 M0 0 C7.41 0, 14.81 0, 20 0 M20 0 C20 4.7, 20 9.4, 20 20 M20 0 C20 6.5, 20 13, 20 20 M20 20 C13.05 20, 6.1 20, 0 20 M20 20 C12.1 20, 4.19 20, 0 20 M0 20 C0 12.7, 0 5.39, 0 0 M0 20 C0 14.52, 0 9.04, 0 0" stroke="#e8590c" stroke-width="2" fill="none"></path></g><g transform="translate(270 630) rotate(0 32.400000000000006 7.5)"><text x="0" y="NaN" font-family="Cascadia, Segoe UI Emoji" font-size="12px" fill="#343a40" text-anchor="start" style="white-space: pre;" direction="ltr">Reporting</text></g><g stroke-linecap="round" transform="translate(370 630) rotate(0 10 10)"><path d="M0 0 L20 0 L20 20 L0 20" stroke="none" stroke-width="0" fill="#d0bfff"></path><path d="M0 0 C6.8 0, 13.6 0, 20 0 M0 0 C4.07 0, 8.13 0, 20 0 M20 0 C20 4.14, 20 8.28, 20 20 M20 0 C20 7.23, 20 14.46, 20 20 M20 20 C12.47 20, 4.93 20, 0 20 M20 20 C12.75 20, 5.5 20, 0 20 M0 20 C0 16, 0 11.99, 0 0 M0 20 C0 15.73, 0 11.46, 0 0" stroke="#7048e8" stroke-width="2" fill="none"></path></g><g transform="translate(390 630) rotate(0 25.19999999999999 7.5)"><text x="0" y="NaN" font-family="Cascadia, Segoe UI Emoji" font-size="12px" fill="#343a40" text-anchor="start" style="white-space: pre;" direction="ltr">YouTube</text></g><g stroke-linecap="round" transform="translate(490 630) rotate(0 10 10)"><path d="M0 0 L20 0 L20 20 L0 20" stroke="none" stroke-width="0" fill="#dee2e6"></path><path d="M0 0 C6.64 0, 13.28 0, 20 0 M0 0 C5.82 0, 11.64 0, 20 0 M20 0 C20 4.39, 20 8.78, 20 20 M20 0 C20 5.03, 20 10.05, 20 20 M20 20 C15.98 20, 11.96 20, 0 20 M20 20 C14.02 20, 8.05 20, 0 20 M0 20 C0 15.22, 0 10.44, 0 0 M0 20 C0 13.17, 0 6.33, 0 0" stroke="#868e96" stroke-width="2" fill="none"></path></g><g transform="translate(510 630) rotate(0 25.19999999999999 7.5)"><text x="0" y="NaN" font-family="Cascadia, Segoe UI Emoji" font-size="12px" fill="#343a40" text-anchor="start" style="white-space: pre;" direction="ltr">Cleanup</text></g></svg>