<svg version="1.1" xmlns="http://www.w3.org/2000/svg" viewBox="0 0 880 520" width="880" height="520">
  <!-- svg-source:excalidraw -->
  
  <defs>
    <style>
      @font-face {
        font-family: "Virgil";
        src: url("https://excalidraw.com/Virgil.woff2");
      }
      @font-face {
        font-family: "Cascadia";
        src: url("https://excalidraw.com/Cascadia.woff2");
      }
    </style>
  </defs>
  <rect x="0" y="0" width="880" height="520" fill="#ffffff"></rect><g stroke-linecap="round" transform="translate(10 10) rotate(0 430 250)"><path d="M0 0 C227.4 0, 454.79 0, 860 0 M0 0 C178.92 0, 357.84 0, 860 0 M860 0 C860 122.97, 860 245.94, 860 500 M860 0 C860 182.67, 860 365.34, 860 500 M860 500 C642.74 500, 425.48 500, 0 500 M860 500 C629.02 500, 398.04 500, 0 500 M0 500 C0 313.29, 0 126.58, 0 0 M0 500 C0 396.64, 0 293.29, 0 0" stroke="#868e96" stroke-width="1" fill="none"></path></g><g transform="translate(30 30) rotate(0 50.69999999999999 8.125)"><text x="0" y="NaN" font-family="Cascadia, Segoe UI Emoji" font-size="13px" fill="#868e96" text-anchor="start" style="white-space: pre;" direction="ltr">AWS us-east-1</text></g><g stroke-linecap="round" transform="translate(30 50) rotate(0 190 220)"><path d="M0 0 C115.07 0, 230.14 0, 380 0 M0 0 C94.97 0, 189.95 0, 380 0 M380 0 C380 152.53, 380 305.05, 380 440 M380 0 C380 161.77, 380 323.54, 380 440 M380 440 C273.41 440, 166.83 440, 0 440 M380 440 C268.08 440, 156.15 440, 0 440 M0 440 C0 345.95, 0 251.89, 0 0 M0 440 C0 351.55, 0 263.1, 0 0" stroke="#1971c2" stroke-width="1" fill="none"></path></g><g transform="translate(50 70) rotate(0 18 7.5)"><text x="0" y="NaN" font-family="Cascadia, Segoe UI Emoji" font-size="12px" fill="#1971c2" text-anchor="start" style="white-space: pre;" direction="ltr">AZ-1a</text></g><g stroke-linecap="round" transform="translate(450 50) rotate(0 190 220)"><path d="M0 0 C138.96 0, 277.93 0, 380 0 M0 0 C78.93 0, 157.87 0, 380 0 M380 0 C380 156.1, 380 312.2, 380 440 M380 0 C380 99.56, 380 199.11, 380 440 M380 440 C247.18 440, 114.36 440, 0 440 M380 440 C236.67 440, 93.35 440, 0 440 M0 440 C0 304.29, 0 168.58, 0 0 M0 440 C0 342.17, 0 244.35, 0 0" stroke="#1971c2" stroke-width="1" fill="none"></path></g><g transform="translate(470 70) rotate(0 18 7.5)"><text x="0" y="NaN" font-family="Cascadia, Segoe UI Emoji" font-size="12px" fill="#1971c2" text-anchor="start" style="white-space: pre;" direction="ltr">AZ-1b</text></g><g transform="translate(80 130) rotate(0 70 10)"><text x="70" y="NaN" font-family="Cascadia, Segoe UI Emoji" font-size="16px" fill="#2f9e44" text-anchor="middle" style="white-space: pre;" direction="ltr">App Server 1</text></g><g stroke-linecap="round" transform="translate(70 110) rotate(0 80 30)"><path d="M0 0 L160 0 L160 60 L0 60" stroke="none" stroke-width="0" fill="#b2f2bb"></path><path d="M0 0 C34.71 0, 69.41 0, 160 0 M0 0 C55.32 0, 110.63 0, 160 0 M160 0 C160 17.85, 160 35.7, 160 60 M160 0 C160 14.3, 160 28.61, 160 60 M160 60 C126.46 60, 92.92 60, 0 60 M160 60 C119.43 60, 78.87 60, 0 60 M0 60 C0 41.25, 0 22.5, 0 0 M0 60 C0 40.65, 0 21.29, 0 0" stroke="#2f9e44" stroke-width="2" fill="none"></path></g><g transform="translate(80 250) rotate(0 70 10)"><text x="70" y="NaN" font-family="Cascadia, Segoe UI Emoji" font-size="16px" fill="#2f9e44" text-anchor="middle" style="white-space: pre;" direction="ltr">App Server 2</text></g><g stroke-linecap="round" transform="translate(70 230) rotate(0 80 30)"><path d="M0 0 L160 0 L160 60 L0 60" stroke="none" stroke-width="0" fill="#b2f2bb"></path><path d="M0 0 C63.84 0, 127.68 0, 160 0 M0 0 C45.69 0, 91.38 0, 160 0 M160 0 C160 12.35, 160 24.7, 160 60 M160 0 C160 22.22, 160 44.43, 160 60 M160 60 C124.44 60, 88.87 60, 0 60 M160 60 C117.44 60, 74.87 60, 0 60 M0 60 C0 42.26, 0 24.51, 0 0 M0 60 C0 36.97, 0 13.94, 0 0" stroke="#2f9e44" stroke-width="2" fill="none"></path></g><g transform="translate(80 370) rotate(0 70 10)"><text x="70" y="NaN" font-family="Cascadia, Segoe UI Emoji" font-size="16px" fill="#7048e8" text-anchor="middle" style="white-space: pre;" direction="ltr">DB Primary</text></g><g stroke-linecap="round" transform="translate(70 350) rotate(0 80 30)"><path d="M0 0 L160 0 L160 60 L0 60" stroke="none" stroke-width="0" fill="#d0bfff"></path><path d="M0 0 C33.26 0, 66.53 0, 160 0 M0 0 C33.75 0, 67.5 0, 160 0 M160 0 C160 23.22, 160 46.44, 160 60 M160 0 C160 16.03, 160 32.05, 160 60 M160 60 C125.07 60, 90.14 60, 0 60 M160 60 C114.06 60, 68.13 60, 0 60 M0 60 C0 36.03, 0 12.06, 0 0 M0 60 C0 36.09, 0 12.17, 0 0" stroke="#7048e8" stroke-width="2" fill="none"></path></g><g transform="translate(500 130) rotate(0 70 10)"><text x="70" y="NaN" font-family="Cascadia, Segoe UI Emoji" font-size="16px" fill="#2f9e44" text-anchor="middle" style="white-space: pre;" direction="ltr">App Server 3</text></g><g stroke-linecap="round" transform="translate(490 110) rotate(0 80 30)"><path d="M0 0 L160 0 L160 60 L0 60" stroke="none" stroke-width="0" fill="#b2f2bb"></path><path d="M0 0 C53.49 0, 106.98 0, 160 0 M0 0 C52.41 0, 104.82 0, 160 0 M160 0 C160 12.84, 160 25.69, 160 60 M160 0 C160 14.28, 160 28.55, 160 60 M160 60 C110.38 60, 60.76 60, 0 60 M160 60 C118.14 60, 76.29 60, 0 60 M0 60 C0 42.3, 0 24.6, 0 0 M0 60 C0 44.3, 0 28.6, 0 0" stroke="#2f9e44" stroke-width="2" fill="none"></path></g><g transform="translate(500 250) rotate(0 70 10)"><text x="70" y="NaN" font-family="Cascadia, Segoe UI Emoji" font-size="16px" fill="#2f9e44" text-anchor="middle" style="white-space: pre;" direction="ltr">App Server 4</text></g><g stroke-linecap="round" transform="translate(490 230) rotate(0 80 30)"><path d="M0 0 L160 0 L160 60 L0 60" stroke="none" stroke-width="0" fill="#b2f2bb"></path><path d="M0 0 C35.54 0, 71.07 0, 160 0 M0 0 C33.71 0, 67.42 0, 160 0 M160 0 C160 15.18, 160 30.36, 160 60 M160 0 C160 21.89, 160 43.78, 160 60 M160 60 C96.08 60, 32.16 60, 0 60 M160 60 C118.26 60, 76.53 60, 0 60 M0 60 C0 44.01, 0 28.03, 0 0 M0 60 C0 37.73, 0 15.45, 0 0" stroke="#2f9e44" stroke-width="2" fill="none"></path></g><g transform="translate(500 370) rotate(0 70 10)"><text x="70" y="NaN" font-family="Cascadia, Segoe UI Emoji" font-size="16px" fill="#7048e8" text-anchor="middle" style="white-space: pre;" direction="ltr">DB Replica</text></g><g stroke-linecap="round" transform="translate(490 350) rotate(0 80 30)"><path d="M0 0 L160 0 L160 60 L0 60" stroke="none" stroke-width="0" fill="#d0bfff"></path><path d="M0 0 C40.25 0, 80.51 0, 160 0 M0 0 C50.27 0, 100.55 0, 160 0 M160 0 C160 15.31, 160 30.62, 160 60 M160 0 C160 13.45, 160 26.91, 160 60 M160 60 C120.68 60, 81.36 60, 0 60 M160 60 C125.36 60, 90.72 60, 0 60 M0 60 C0 37.97, 0 15.95, 0 0 M0 60 C0 42.03, 0 24.06, 0 0" stroke="#7048e8" stroke-width="2" fill="none"></path></g><g transform="translate(328.5 370) rotate(0 31.5 10)"><text x="31.5" y="NaN" font-family="Cascadia, Segoe UI Emoji" font-size="12px" fill="#7048e8" text-anchor="middle" style="white-space: pre;" direction="ltr">replicate</text></g><g stroke-linecap="round"><g transform="translate(230 380) rotate(0 130 0)"><path d="M0 0 C43.33 0, 216.67 0, 260 0" stroke="#7048e8" stroke-width="2.5" fill="none" stroke-dasharray="8 10"></path></g><g transform="translate(230 380) rotate(0 130 0)"><path d="M231.81 10.26 C241.61 6.69, 251.4 3.13, 260 0" stroke="#7048e8" stroke-width="2.5" fill="none"></path></g><g transform="translate(230 380) rotate(0 130 0)"><path d="M231.81 -10.26 C241.61 -6.69, 251.4 -3.13, 260 0" stroke="#7048e8" stroke-width="2.5" fill="none"></path></g></g></svg>