<svg version="1.1" xmlns="http://www.w3.org/2000/svg" viewBox="0 0 500 902.5" width="500" height="902.5">
  <!-- svg-source:excalidraw -->
  
  <defs>
    <style>
      @font-face {
        font-family: "Virgil";
        src: url("https://excalidraw.com/Virgil.woff2");
      }
      @font-face {
        font-family: "Cascadia";
        src: url("https://excalidraw.com/Cascadia.woff2");
      }
    </style>
  </defs>
  <rect x="0" y="0" width="500" height="902.5" fill="#ffffff"></rect><g transform="translate(150 10) rotate(0 142.79999999999998 17.5)"><text x="0" y="NaN" font-family="Cascadia, Segoe UI Emoji" font-size="28px" fill="#343a40" text-anchor="start" style="white-space: pre;" direction="ltr">Epic Roadmap 2026</text></g><g transform="translate(10 70) rotate(0 10.799999999999997 11.25)"><text x="0" y="NaN" font-family="Cascadia, Segoe UI Emoji" font-size="18px" fill="#e03131" text-anchor="start" style="white-space: pre;" direction="ltr">P0</text></g><g transform="translate(10 230) rotate(0 10.799999999999997 11.25)"><text x="0" y="NaN" font-family="Cascadia, Segoe UI Emoji" font-size="18px" fill="#e8590c" text-anchor="start" style="white-space: pre;" direction="ltr">P1</text></g><g transform="translate(10 390) rotate(0 10.799999999999997 11.25)"><text x="0" y="NaN" font-family="Cascadia, Segoe UI Emoji" font-size="18px" fill="#e8590c" text-anchor="start" style="white-space: pre;" direction="ltr">P1</text></g><g transform="translate(10 550) rotate(0 10.799999999999997 11.25)"><text x="0" y="NaN" font-family="Cascadia, Segoe UI Emoji" font-size="18px" fill="#1971c2" text-anchor="start" style="white-space: pre;" direction="ltr">P2</text></g><g transform="translate(10 710) rotate(0 10.799999999999997 11.25)"><text x="0" y="NaN" font-family="Cascadia, Segoe UI Emoji" font-size="18px" fill="#1971c2" text-anchor="start" style="white-space: pre;" direction="ltr">P2</text></g><g transform="translate(10 870) rotate(0 10.799999999999997 11.25)"><text x="0" y="NaN" font-family="Cascadia, Segoe UI Emoji" font-size="18px" fill="#2f9e44" text-anchor="start" style="white-space: pre;" direction="ltr">P3</text></g><g transform="translate(160 82.5) rotate(0 160 17.5)"><text x="160" y="NaN" font-family="Cascadia, Segoe UI Emoji" font-size="14px" fill="#e03131" text-anchor="middle" style="white-space: pre;" direction="ltr">Kernel</text><text x="160" y="NaN" font-family="Cascadia, Segoe UI Emoji" font-size="14px" fill="#e03131" text-anchor="middle" style="white-space: pre;" direction="ltr">agent runtime, hooks</text></g><g stroke-linecap="round" transform="translate(150 70) rotate(0 170 30)"><path d="M0 0 L340 0 L340 60 L0 60" stroke="none" stroke-width="0" fill="#ffc9c9"></path><path d="M0 0 C68.58 0, 137.16 0, 340 0 M0 0 C128.56 0, 257.11 0, 340 0 M340 0 C340 14.39, 340 28.78, 340 60 M340 0 C340 18.88, 340 37.75, 340 60 M340 60 C214.01 60, 88.02 60, 0 60 M340 60 C230.26 60, 120.51 60, 0 60 M0 60 C0 41.64, 0 23.29, 0 0 M0 60 C0 39.63, 0 19.27, 0 0" stroke="#e03131" stroke-width="2" fill="none"></path></g><g transform="translate(160 182.5) rotate(0 160 17.5)"><text x="160" y="NaN" font-family="Cascadia, Segoe UI Emoji" font-size="14px" fill="#e8590c" text-anchor="middle" style="white-space: pre;" direction="ltr">Ingestion</text><text x="160" y="NaN" font-family="Cascadia, Segoe UI Emoji" font-size="14px" fill="#e8590c" text-anchor="middle" style="white-space: pre;" direction="ltr">content pipelines</text></g><g stroke-linecap="round" transform="translate(150 170) rotate(0 170 30)"><path d="M0 0 L340 0 L340 60 L0 60" stroke="none" stroke-width="0" fill="#ffd8a8"></path><path d="M0 0 C103.53 0, 207.05 0, 340 0 M0 0 C124.8 0, 249.61 0, 340 0 M340 0 C340 20.26, 340 40.51, 340 60 M340 0 C340 16.91, 340 33.82, 340 60 M340 60 C243.54 60, 147.08 60, 0 60 M340 60 C260.82 60, 181.64 60, 0 60 M0 60 C0 41.55, 0 23.11, 0 0 M0 60 C0 46.43, 0 32.85, 0 0" stroke="#e8590c" stroke-width="2" fill="none"></path></g><g stroke-linecap="round"><g transform="translate(320 130) rotate(0 0 20)"><path d="M0 0 C0 6.67, 0 33.33, 0 40 M0 0 C0 6.67, 0 33.33, 0 40" stroke="#868e96" stroke-width="2" fill="none"></path></g><g transform="translate(320 130) rotate(0 0 20)"><path d="M-6.84 21.21 C-4.73 26.99, -2.63 32.78, 0 40 M-6.84 21.21 C-5.27 25.52, -3.7 29.84, 0 40" stroke="#868e96" stroke-width="2" fill="none"></path></g><g transform="translate(320 130) rotate(0 0 20)"><path d="M6.84 21.21 C4.73 26.99, 2.63 32.78, 0 40 M6.84 21.21 C5.27 25.52, 3.7 29.84, 0 40" stroke="#868e96" stroke-width="2" fill="none"></path></g></g><g transform="translate(160 282.5) rotate(0 160 17.5)"><text x="160" y="NaN" font-family="Cascadia, Segoe UI Emoji" font-size="14px" fill="#e8590c" text-anchor="middle" style="white-space: pre;" direction="ltr">Observability</text><text x="160" y="NaN" font-family="Cascadia, Segoe UI Emoji" font-size="14px" fill="#e8590c" text-anchor="middle" style="white-space: pre;" direction="ltr">logs, metrics</text></g><g stroke-linecap="round" transform="translate(150 270) rotate(0 170 30)"><path d="M0 0 L340 0 L340 60 L0 60" stroke="none" stroke-width="0" fill="#ffd8a8"></path><path d="M0 0 C81.73 0, 163.45 0, 340 0 M0 0 C88.94 0, 177.88 0, 340 0 M340 0 C340 22.93, 340 45.86, 340 60 M340 0 C340 19.8, 340 39.59, 340 60 M340 60 C266.79 60, 193.59 60, 0 60 M340 60 C211.61 60, 83.22 60, 0 60 M0 60 C0 40.23, 0 20.46, 0 0 M0 60 C0 40, 0 20.01, 0 0" stroke="#e8590c" stroke-width="2" fill="none"></path></g><g stroke-linecap="round"><g transform="translate(320 230) rotate(0 0 20)"><path d="M0 0 C0 6.67, 0 33.33, 0 40 M0 0 C0 6.67, 0 33.33, 0 40" stroke="#868e96" stroke-width="2" fill="none"></path></g><g transform="translate(320 230) rotate(0 0 20)"><path d="M-6.84 21.21 C-5.27 25.52, -3.7 29.84, 0 40 M-6.84 21.21 C-5.37 25.24, -3.91 29.27, 0 40" stroke="#868e96" stroke-width="2" fill="none"></path></g><g transform="translate(320 230) rotate(0 0 20)"><path d="M6.84 21.21 C5.27 25.52, 3.7 29.84, 0 40 M6.84 21.21 C5.37 25.24, 3.91 29.27, 0 40" stroke="#868e96" stroke-width="2" fill="none"></path></g></g><g transform="translate(160 382.5) rotate(0 160 17.5)"><text x="160" y="NaN" font-family="Cascadia, Segoe UI Emoji" font-size="14px" fill="#1971c2" text-anchor="middle" style="white-space: pre;" direction="ltr">Knowledge</text><text x="160" y="NaN" font-family="Cascadia, Segoe UI Emoji" font-size="14px" fill="#1971c2" text-anchor="middle" style="white-space: pre;" direction="ltr">ChromaDB, personas</text></g><g stroke-linecap="round" transform="translate(150 370) rotate(0 170 30)"><path d="M0 0 L340 0 L340 60 L0 60" stroke="none" stroke-width="0" fill="#a5d8ff"></path><path d="M0 0 C71.74 0, 143.48 0, 340 0 M0 0 C121.43 0, 242.86 0, 340 0 M340 0 C340 15.15, 340 30.3, 340 60 M340 0 C340 13.39, 340 26.79, 340 60 M340 60 C207.06 60, 74.11 60, 0 60 M340 60 C267.89 60, 195.77 60, 0 60 M0 60 C0 41.55, 0 23.1, 0 0 M0 60 C0 38.64, 0 17.28, 0 0" stroke="#1971c2" stroke-width="2" fill="none"></path></g><g stroke-linecap="round"><g transform="translate(320 330) rotate(0 0 20)"><path d="M0 0 C0 6.67, 0 33.33, 0 40 M0 0 C0 6.67, 0 33.33, 0 40" stroke="#868e96" stroke-width="2" fill="none"></path></g><g transform="translate(320 330) rotate(0 0 20)"><path d="M-6.84 21.21 C-5.11 25.95, -3.38 30.7, 0 40 M-6.84 21.21 C-4.35 28.06, -1.85 34.91, 0 40" stroke="#868e96" stroke-width="2" fill="none"></path></g><g transform="translate(320 330) rotate(0 0 20)"><path d="M6.84 21.21 C5.11 25.95, 3.38 30.7, 0 40 M6.84 21.21 C4.35 28.06, 1.85 34.91, 0 40" stroke="#868e96" stroke-width="2" fill="none"></path></g></g><g transform="translate(160 482.5) rotate(0 160 17.5)"><text x="160" y="NaN" font-family="Cascadia, Segoe UI Emoji" font-size="14px" fill="#1971c2" text-anchor="middle" style="white-space: pre;" direction="ltr">Product</text><text x="160" y="NaN" font-family="Cascadia, Segoe UI Emoji" font-size="14px" fill="#1971c2" text-anchor="middle" style="white-space: pre;" direction="ltr">vault, taxonomy</text></g><g stroke-linecap="round" transform="translate(150 470) rotate(0 170 30)"><path d="M0 0 L340 0 L340 60 L0 60" stroke="none" stroke-width="0" fill="#a5d8ff"></path><path d="M0 0 C117.66 0, 235.33 0, 340 0 M0 0 C118.28 0, 236.55 0, 340 0 M340 0 C340 12.97, 340 25.94, 340 60 M340 0 C340 19.61, 340 39.22, 340 60 M340 60 C255.72 60, 171.45 60, 0 60 M340 60 C262.81 60, 185.62 60, 0 60 M0 60 C0 47.8, 0 35.6, 0 0 M0 60 C0 46.67, 0 33.33, 0 0" stroke="#1971c2" stroke-width="2" fill="none"></path></g><g stroke-linecap="round"><g transform="translate(320 430) rotate(0 0 20)"><path d="M0 0 C0 6.67, 0 33.33, 0 40 M0 0 C0 6.67, 0 33.33, 0 40" stroke="#868e96" stroke-width="2" fill="none"></path></g><g transform="translate(320 430) rotate(0 0 20)"><path d="M-6.84 21.21 C-5.21 25.69, -3.58 30.17, 0 40 M-6.84 21.21 C-4.48 27.69, -2.12 34.17, 0 40" stroke="#868e96" stroke-width="2" fill="none"></path></g><g transform="translate(320 430) rotate(0 0 20)"><path d="M6.84 21.21 C5.21 25.69, 3.58 30.17, 0 40 M6.84 21.21 C4.48 27.69, 2.12 34.17, 0 40" stroke="#868e96" stroke-width="2" fill="none"></path></g></g><g transform="translate(160 582.5) rotate(0 160 17.5)"><text x="160" y="NaN" font-family="Cascadia, Segoe UI Emoji" font-size="14px" fill="#2f9e44" text-anchor="middle" style="white-space: pre;" direction="ltr">Creative</text><text x="160" y="NaN" font-family="Cascadia, Segoe UI Emoji" font-size="14px" fill="#2f9e44" text-anchor="middle" style="white-space: pre;" direction="ltr">side projects</text></g><g stroke-linecap="round" transform="translate(150 570) rotate(0 170 30)"><path d="M0 0 L340 0 L340 60 L0 60" stroke="none" stroke-width="0" fill="#b2f2bb"></path><path d="M0 0 C117.31 0, 234.62 0, 340 0 M0 0 C108.82 0, 217.65 0, 340 0 M340 0 C340 23.63, 340 47.26, 340 60 M340 0 C340 20.57, 340 41.15, 340 60 M340 60 C233.41 60, 126.82 60, 0 60 M340 60 C219.18 60, 98.37 60, 0 60 M0 60 C0 37.09, 0 14.19, 0 0 M0 60 C0 42.83, 0 25.67, 0 0" stroke="#2f9e44" stroke-width="2" fill="none"></path></g><g stroke-linecap="round"><g transform="translate(320 530) rotate(0 0 20)"><path d="M0 0 C0 6.67, 0 33.33, 0 40 M0 0 C0 6.67, 0 33.33, 0 40" stroke="#868e96" stroke-width="2" fill="none"></path></g><g transform="translate(320 530) rotate(0 0 20)"><path d="M-6.84 21.21 C-5.07 26.07, -3.3 30.93, 0 40 M-6.84 21.21 C-4.17 28.54, -1.5 35.87, 0 40" stroke="#868e96" stroke-width="2" fill="none"></path></g><g transform="translate(320 530) rotate(0 0 20)"><path d="M6.84 21.21 C5.07 26.07, 3.3 30.93, 0 40 M6.84 21.21 C4.17 28.54, 1.5 35.87, 0 40" stroke="#868e96" stroke-width="2" fill="none"></path></g></g><g stroke-linecap="round"><g transform="translate(320 130) rotate(0 0 20)"><path d="M0 0 C0 6.67, 0 33.33, 0 40" stroke="#868e96" stroke-width="2.5" fill="none" stroke-dasharray="8 10"></path></g><g transform="translate(320 130) rotate(0 0 20)"><path d="M-6.84 21.21 C-4.66 27.2, -2.48 33.19, 0 40" stroke="#868e96" stroke-width="2.5" fill="none"></path></g><g transform="translate(320 130) rotate(0 0 20)"><path d="M6.84 21.21 C4.66 27.2, 2.48 33.19, 0 40" stroke="#868e96" stroke-width="2.5" fill="none"></path></g></g><g transform="translate(290 290) rotate(0 30 10)"><text x="30" y="NaN" font-family="Cascadia, Segoe UI Emoji" font-size="12px" fill="#868e96" text-anchor="middle" style="white-space: pre;" direction="ltr">feeds</text></g><g stroke-linecap="round"><g transform="translate(320 230) rotate(0 0 70)"><path d="M0 0 C0 23.33, 0 116.67, 0 140" stroke="#868e96" stroke-width="2.5" fill="none" stroke-dasharray="8 10"></path></g><g transform="translate(320 230) rotate(0 0 70)"><path d="M-10.26 111.81 C-7.47 119.47, -4.69 127.12, 0 140" stroke="#868e96" stroke-width="2.5" fill="none"></path></g><g transform="translate(320 230) rotate(0 0 70)"><path d="M10.26 111.81 C7.47 119.47, 4.69 127.12, 0 140" stroke="#868e96" stroke-width="2.5" fill="none"></path></g></g><g transform="translate(290 390) rotate(0 30 10)"><text x="30" y="NaN" font-family="Cascadia, Segoe UI Emoji" font-size="12px" fill="#868e96" text-anchor="middle" style="white-space: pre;" direction="ltr">monitors</text></g><g stroke-linecap="round"><g transform="translate(320 330) rotate(0 0 70)"><path d="M0 0 C0 23.33, 0 116.67, 0 140" stroke="#868e96" stroke-width="2.5" fill="none" stroke-dasharray="8 10"></path></g><g transform="translate(320 330) rotate(0 0 70)"><path d="M-10.26 111.81 C-7.99 118.04, -5.72 124.27, 0 140" stroke="#868e96" stroke-width="2.5" fill="none"></path></g><g transform="translate(320 330) rotate(0 0 70)"><path d="M10.26 111.81 C7.99 118.04, 5.72 124.27, 0 140" stroke="#868e96" stroke-width="2.5" fill="none"></path></g></g></svg>