<svg version="1.1" xmlns="http://www.w3.org/2000/svg" viewBox="0 0 700 650" width="700" height="650">
  <!-- svg-source:excalidraw -->
  
  <defs>
    <style>
      @font-face {
        font-family: "Virgil";
        src: url("https://excalidraw.com/Virgil.woff2");
      }
      @font-face {
        font-family: "Cascadia";
        src: url("https://excalidraw.com/Cascadia.woff2");
      }
    </style>
  </defs>
  <rect x="0" y="0" width="700" height="650" fill="#ffffff"></rect><g transform="translate(190 10) rotate(0 126 17.5)"><text x="0" y="NaN" font-family="Cascadia, Segoe UI Emoji" font-size="28px" fill="#343a40" text-anchor="start" style="white-space: pre;" direction="ltr">Hooks Deep Dive</text></g><g transform="translate(10 70) rotate(0 84 12.5)"><text x="0" y="NaN" font-family="Cascadia, Segoe UI Emoji" font-size="20px" fill="#1971c2" text-anchor="start" style="white-space: pre;" direction="ltr">Trigger Events</text></g><g transform="translate(20 126.25) rotate(0 80 8.75)"><text x="80" y="NaN" font-family="Cascadia, Segoe UI Emoji" font-size="14px" fill="#1971c2" text-anchor="middle" style="white-space: pre;" direction="ltr">Tool Calls</text></g><g stroke-linecap="round" transform="translate(10 110) rotate(0 90 25)"><path d="M0 0 L180 0 L180 50 L0 50" stroke="none" stroke-width="0" fill="#a5d8ff"></path><path d="M0 0 C63.47 0, 126.94 0, 180 0 M0 0 C61.31 0, 122.61 0, 180 0 M180 0 C180 15.26, 180 30.52, 180 50 M180 0 C180 10.7, 180 21.41, 180 50 M180 50 C124.51 50, 69.02 50, 0 50 M180 50 C108.76 50, 37.52 50, 0 50 M0 50 C0 32.42, 0 14.84, 0 0 M0 50 C0 35.05, 0 20.11, 0 0" stroke="#1971c2" stroke-width="2" fill="none"></path></g><g transform="translate(240 126.25) rotate(0 80 8.75)"><text x="80" y="NaN" font-family="Cascadia, Segoe UI Emoji" font-size="14px" fill="#1971c2" text-anchor="middle" style="white-space: pre;" direction="ltr">Notifications</text></g><g stroke-linecap="round" transform="translate(230 110) rotate(0 90 25)"><path d="M0 0 L180 0 L180 50 L0 50" stroke="none" stroke-width="0" fill="#a5d8ff"></path><path d="M0 0 C41.74 0, 83.48 0, 180 0 M0 0 C41.69 0, 83.39 0, 180 0 M180 0 C180 19.88, 180 39.76, 180 50 M180 0 C180 19.15, 180 38.3, 180 50 M180 50 C117.24 50, 54.47 50, 0 50 M180 50 C110.63 50, 41.26 50, 0 50 M0 50 C0 37.5, 0 25, 0 0 M0 50 C0 39.06, 0 28.13, 0 0" stroke="#1971c2" stroke-width="2" fill="none"></path></g><g transform="translate(460 126.25) rotate(0 80 8.75)"><text x="80" y="NaN" font-family="Cascadia, Segoe UI Emoji" font-size="14px" fill="#1971c2" text-anchor="middle" style="white-space: pre;" direction="ltr">User Prompts</text></g><g stroke-linecap="round" transform="translate(450 110) rotate(0 90 25)"><path d="M0 0 L180 0 L180 50 L0 50" stroke="none" stroke-width="0" fill="#a5d8ff"></path><path d="M0 0 C44.94 0, 89.89 0, 180 0 M0 0 C42.54 0, 85.08 0, 180 0 M180 0 C180 12.22, 180 24.44, 180 50 M180 0 C180 13.9, 180 27.8, 180 50 M180 50 C122.37 50, 64.75 50, 0 50 M180 50 C119.59 50, 59.17 50, 0 50 M0 50 C0 34.03, 0 18.05, 0 0 M0 50 C0 35.22, 0 20.44, 0 0" stroke="#1971c2" stroke-width="2" fill="none"></path></g><g transform="translate(10 230) rotate(0 72 12.5)"><text x="0" y="NaN" font-family="Cascadia, Segoe UI Emoji" font-size="20px" fill="#7048e8" text-anchor="start" style="white-space: pre;" direction="ltr">Hook Scripts</text></g><g transform="translate(20 286.875) rotate(0 90 8.125)"><text x="90" y="NaN" font-family="Cascadia, Segoe UI Emoji" font-size="13px" fill="#7048e8" text-anchor="middle" style="white-space: pre;" direction="ltr">damage-control.py</text></g><g stroke-linecap="round" transform="translate(10 270) rotate(0 100 25)"><path d="M0 0 L200 0 L200 50 L0 50" stroke="none" stroke-width="0" fill="#d0bfff"></path><path d="M0 0 C41.36 0, 82.73 0, 200 0 M0 0 C53.48 0, 106.97 0, 200 0 M200 0 C200 14.05, 200 28.09, 200 50 M200 0 C200 19.09, 200 38.18, 200 50 M200 50 C158.18 50, 116.36 50, 0 50 M200 50 C140.1 50, 80.21 50, 0 50 M0 50 C0 34.23, 0 18.46, 0 0 M0 50 C0 35.27, 0 20.54, 0 0" stroke="#7048e8" stroke-width="2" fill="none"></path></g><g transform="translate(260 286.875) rotate(0 90 8.125)"><text x="90" y="NaN" font-family="Cascadia, Segoe UI Emoji" font-size="13px" fill="#7048e8" text-anchor="middle" style="white-space: pre;" direction="ltr">verify-completion.py</text></g><g stroke-linecap="round" transform="translate(250 270) rotate(0 100 25)"><path d="M0 0 L200 0 L200 50 L0 50" stroke="none" stroke-width="0" fill="#d0bfff"></path><path d="M0 0 C46.68 0, 93.36 0, 200 0 M0 0 C43.32 0, 86.64 0, 200 0 M200 0 C200 14.12, 200 28.23, 200 50 M200 0 C200 11.94, 200 23.89, 200 50 M200 50 C138.44 50, 76.89 50, 0 50 M200 50 C132.06 50, 64.11 50, 0 50 M0 50 C0 35.19, 0 20.39, 0 0 M0 50 C0 38.44, 0 26.88, 0 0" stroke="#7048e8" stroke-width="2" fill="none"></path></g><g transform="translate(500 286.875) rotate(0 90 8.125)"><text x="90" y="NaN" font-family="Cascadia, Segoe UI Emoji" font-size="13px" fill="#7048e8" text-anchor="middle" style="white-space: pre;" direction="ltr">session-hooks.py</text></g><g stroke-linecap="round" transform="translate(490 270) rotate(0 100 25)"><path d="M0 0 L200 0 L200 50 L0 50" stroke="none" stroke-width="0" fill="#d0bfff"></path><path d="M0 0 C53.37 0, 106.75 0, 200 0 M0 0 C75.48 0, 150.96 0, 200 0 M200 0 C200 19.72, 200 39.44, 200 50 M200 0 C200 19.76, 200 39.51, 200 50 M200 50 C138.81 50, 77.61 50, 0 50 M200 50 C151.43 50, 102.87 50, 0 50 M0 50 C0 39.25, 0 28.5, 0 0 M0 50 C0 30.4, 0 10.81, 0 0" stroke="#7048e8" stroke-width="2" fill="none"></path></g><g transform="translate(10 370) rotate(0 84 12.5)"><text x="0" y="NaN" font-family="Cascadia, Segoe UI Emoji" font-size="20px" fill="#e8590c" text-anchor="start" style="white-space: pre;" direction="ltr">Decision Logic</text></g><g transform="translate(71 441.25) rotate(0 49 8.75)"><text x="49" y="NaN" font-family="Cascadia, Segoe UI Emoji" font-size="14px" fill="#e8590c" text-anchor="middle" style="white-space: pre;" direction="ltr">Allow?</text></g><g stroke-linecap="round" transform="translate(50 410) rotate(0 70 40)"><path d="M71 0 L140 41 L71 80 L0 41" stroke="none" stroke-width="0" fill="#ffd8a8" fill-rule="evenodd"></path><path d="M71 0 C86.34 9.12, 101.68 18.23, 140 41 M71 0 C92.58 12.82, 114.16 25.65, 140 41 M140 41 C113.24 56.13, 86.48 71.25, 71 80 M140 41 C115.42 54.9, 90.83 68.79, 71 80 M71 80 C42.72 64.47, 14.44 48.93, 0 41 M71 80 C50.8 68.91, 30.61 57.81, 0 41 M0 41 C24.48 26.86, 48.97 12.72, 71 0 M0 41 C24.47 26.87, 48.94 12.74, 71 0" stroke="#e8590c" stroke-width="2" fill="none"></path></g><g transform="translate(291 441.25) rotate(0 49 8.75)"><text x="49" y="NaN" font-family="Cascadia, Segoe UI Emoji" font-size="14px" fill="#e8590c" text-anchor="middle" style="white-space: pre;" direction="ltr">Block?</text></g><g stroke-linecap="round" transform="translate(270 410) rotate(0 70 40)"><path d="M71 0 L140 41 L71 80 L0 41" stroke="none" stroke-width="0" fill="#ffd8a8" fill-rule="evenodd"></path><path d="M71 0 C92.42 12.73, 113.84 25.46, 140 41 M71 0 C87.47 9.79, 103.94 19.57, 140 41 M140 41 C121.09 51.69, 102.19 62.37, 71 80 M140 41 C123.94 50.08, 107.88 59.16, 71 80 M71 80 C48.42 67.59, 25.83 55.19, 0 41 M71 80 C43.29 64.78, 15.57 49.55, 0 41 M0 41 C14.85 32.42, 29.71 23.85, 71 0 M0 41 C15.76 31.9, 31.52 22.8, 71 0" stroke="#e8590c" stroke-width="2" fill="none"></path></g><g transform="translate(511 441.25) rotate(0 49 8.75)"><text x="49" y="NaN" font-family="Cascadia, Segoe UI Emoji" font-size="14px" fill="#e8590c" text-anchor="middle" style="white-space: pre;" direction="ltr">Modify?</text></g><g stroke-linecap="round" transform="translate(490 410) rotate(0 70 40)"><path d="M71 0 L140 41 L71 80 L0 41" stroke="none" stroke-width="0" fill="#ffd8a8" fill-rule="evenodd"></path><path d="M71 0 C96.59 15.2, 122.17 30.41, 140 41 M71 0 C94.69 14.08, 118.38 28.15, 140 41 M140 41 C113.72 55.85, 87.44 70.71, 71 80 M140 41 C115.51 54.84, 91.02 68.69, 71 80 M71 80 C44.28 65.32, 17.56 50.64, 0 41 M71 80 C50.7 68.85, 30.39 57.69, 0 41 M0 41 C22.24 28.15, 44.49 15.31, 71 0 M0 41 C18.37 30.39, 36.74 19.78, 71 0" stroke="#e8590c" stroke-width="2" fill="none"></path></g><g transform="translate(10 550) rotate(0 42 12.5)"><text x="0" y="NaN" font-family="Cascadia, Segoe UI Emoji" font-size="20px" fill="#2f9e44" text-anchor="start" style="white-space: pre;" direction="ltr">Actions</text></g><g transform="translate(40 606.25) rotate(0 70 8.75)"><text x="70" y="NaN" font-family="Cascadia, Segoe UI Emoji" font-size="14px" fill="#2f9e44" text-anchor="middle" style="white-space: pre;" direction="ltr">Continue</text></g><g stroke-linecap="round" transform="translate(30 590) rotate(0 80 25)"><path d="M0 0 L160 0 L160 50 L0 50" stroke="none" stroke-width="0" fill="#b2f2bb"></path><path d="M0 0 C55.42 0, 110.85 0, 160 0 M0 0 C38.54 0, 77.08 0, 160 0 M160 0 C160 19.44, 160 38.89, 160 50 M160 0 C160 11.04, 160 22.09, 160 50 M160 50 C122.64 50, 85.28 50, 0 50 M160 50 C122.09 50, 84.18 50, 0 50 M0 50 C0 30.73, 0 11.47, 0 0 M0 50 C0 34.98, 0 19.96, 0 0" stroke="#2f9e44" stroke-width="2" fill="none"></path></g><g transform="translate(260 606.25) rotate(0 70 8.75)"><text x="70" y="NaN" font-family="Cascadia, Segoe UI Emoji" font-size="14px" fill="#e03131" text-anchor="middle" style="white-space: pre;" direction="ltr">Reject</text></g><g stroke-linecap="round" transform="translate(250 590) rotate(0 80 25)"><path d="M0 0 L160 0 L160 50 L0 50" stroke="none" stroke-width="0" fill="#ffc9c9"></path><path d="M0 0 C41.96 0, 83.92 0, 160 0 M0 0 C37.52 0, 75.05 0, 160 0 M160 0 C160 17.2, 160 34.4, 160 50 M160 0 C160 10.88, 160 21.77, 160 50 M160 50 C122.27 50, 84.53 50, 0 50 M160 50 C117.88 50, 75.76 50, 0 50 M0 50 C0 39.97, 0 29.95, 0 0 M0 50 C0 36.6, 0 23.21, 0 0" stroke="#e03131" stroke-width="2" fill="none"></path></g><g transform="translate(480 606.25) rotate(0 70 8.75)"><text x="70" y="NaN" font-family="Cascadia, Segoe UI Emoji" font-size="14px" fill="#0c8599" text-anchor="middle" style="white-space: pre;" direction="ltr">Log</text></g><g stroke-linecap="round" transform="translate(470 590) rotate(0 80 25)"><path d="M0 0 L160 0 L160 50 L0 50" stroke="none" stroke-width="0" fill="#99e9f2"></path><path d="M0 0 C61.68 0, 123.36 0, 160 0 M0 0 C51 0, 101.99 0, 160 0 M160 0 C160 16.82, 160 33.63, 160 50 M160 0 C160 15.55, 160 31.1, 160 50 M160 50 C109.27 50, 58.53 50, 0 50 M160 50 C99.67 50, 39.34 50, 0 50 M0 50 C0 39.34, 0 28.69, 0 0 M0 50 C0 38.56, 0 27.13, 0 0" stroke="#0c8599" stroke-width="2" fill="none"></path></g><g stroke-linecap="round"><g transform="translate(100 160) rotate(0 5 55)"><path d="M0 0 C1.67 18.33, 8.33 91.67, 10 110 M0 0 C1.67 18.33, 8.33 91.67, 10 110" stroke="#1971c2" stroke-width="2" fill="none"></path></g><g transform="translate(100 160) rotate(0 5 55)"><path d="M-2.77 82.85 C2.05 93.1, 6.87 103.35, 10 110 M-2.77 82.85 C2.2 93.41, 7.17 103.97, 10 110" stroke="#1971c2" stroke-width="2" fill="none"></path></g><g transform="translate(100 160) rotate(0 5 55)"><path d="M17.67 81 C14.77 91.95, 11.88 102.9, 10 110 M17.67 81 C14.68 92.28, 11.7 103.56, 10 110" stroke="#1971c2" stroke-width="2" fill="none"></path></g></g><g stroke-linecap="round"><g transform="translate(320 160) rotate(0 15 55)"><path d="M0 0 C5 18.33, 25 91.67, 30 110 M0 0 C5 18.33, 25 91.67, 30 110" stroke="#1971c2" stroke-width="2" fill="none"></path></g><g transform="translate(320 160) rotate(0 15 55)"><path d="M12.68 85.5 C17.05 91.68, 21.42 97.87, 30 110 M12.68 85.5 C16.82 91.36, 20.97 97.22, 30 110" stroke="#1971c2" stroke-width="2" fill="none"></path></g><g transform="translate(320 160) rotate(0 15 55)"><path d="M32.48 80.1 C31.86 87.65, 31.23 95.19, 30 110 M32.48 80.1 C31.89 87.25, 31.29 94.4, 30 110" stroke="#1971c2" stroke-width="2" fill="none"></path></g></g><g stroke-linecap="round"><g transform="translate(540 160) rotate(0 25 55)"><path d="M0 0 C8.33 18.33, 41.67 91.67, 50 110 M0 0 C8.33 18.33, 41.67 91.67, 50 110" stroke="#1971c2" stroke-width="2" fill="none"></path></g><g transform="translate(540 160) rotate(0 25 55)"><path d="M28.99 88.58 C33.63 93.31, 38.28 98.05, 50 110 M28.99 88.58 C34.87 94.57, 40.74 100.56, 50 110" stroke="#1971c2" stroke-width="2" fill="none"></path></g><g transform="translate(540 160) rotate(0 25 55)"><path d="M47.68 80.09 C48.19 86.7, 48.7 93.31, 50 110 M47.68 80.09 C48.33 88.45, 48.98 96.81, 50 110" stroke="#1971c2" stroke-width="2" fill="none"></path></g></g><g stroke-linecap="round"><g transform="translate(110 320) rotate(0 5 45)"><path d="M0 0 C1.67 15, 8.33 75, 10 90 M0 0 C1.67 15, 8.33 75, 10 90" stroke="#7048e8" stroke-width="2" fill="none"></path></g><g transform="translate(110 320) rotate(0 5 45)"><path d="M-3.31 63.11 C1.71 73.26, 6.74 83.41, 10 90 M-3.31 63.11 C0.18 70.16, 3.66 77.2, 10 90" stroke="#7048e8" stroke-width="2" fill="none"></path></g><g transform="translate(110 320) rotate(0 5 45)"><path d="M17.08 60.85 C14.41 71.85, 11.74 82.86, 10 90 M17.08 60.85 C15.23 68.49, 13.37 76.12, 10 90" stroke="#7048e8" stroke-width="2" fill="none"></path></g></g><g stroke-linecap="round"><g transform="translate(350 320) rotate(0 -5 45)"><path d="M0 0 C-1.67 15, -8.33 75, -10 90 M0 0 C-1.67 15, -8.33 75, -10 90" stroke="#7048e8" stroke-width="2" fill="none"></path></g><g transform="translate(350 320) rotate(0 -5 45)"><path d="M-17.08 60.85 C-15.42 67.69, -13.76 74.53, -10 90 M-17.08 60.85 C-14.8 70.24, -12.52 79.64, -10 90" stroke="#7048e8" stroke-width="2" fill="none"></path></g><g transform="translate(350 320) rotate(0 -5 45)"><path d="M3.31 63.11 C0.19 69.43, -2.94 75.74, -10 90 M3.31 63.11 C-0.98 71.78, -5.27 80.45, -10 90" stroke="#7048e8" stroke-width="2" fill="none"></path></g></g><g stroke-linecap="round"><g transform="translate(590 320) rotate(0 -15 45)"><path d="M0 0 C-5 15, -25 75, -30 90 M0 0 C-5 15, -25 75, -30 90" stroke="#7048e8" stroke-width="2" fill="none"></path></g><g transform="translate(590 320) rotate(0 -15 45)"><path d="M-30.82 60.01 C-30.55 70, -30.27 80, -30 90 M-30.82 60.01 C-30.66 66.01, -30.49 72.01, -30 90" stroke="#7048e8" stroke-width="2" fill="none"></path></g><g transform="translate(590 320) rotate(0 -15 45)"><path d="M-11.35 66.5 C-17.57 74.33, -23.78 82.16, -30 90 M-11.35 66.5 C-15.08 71.2, -18.81 75.9, -30 90" stroke="#7048e8" stroke-width="2" fill="none"></path></g></g><g stroke-linecap="round"><g transform="translate(120 490) rotate(0 -5 50)"><path d="M0 0 C-1.67 16.67, -8.33 83.33, -10 100 M0 0 C-1.67 16.67, -8.33 83.33, -10 100" stroke="#e8590c" stroke-width="2" fill="none"></path></g><g transform="translate(120 490) rotate(0 -5 50)"><path d="M-17.4 70.93 C-15.19 79.61, -12.98 88.3, -10 100 M-17.4 70.93 C-15.69 77.66, -13.97 84.4, -10 100" stroke="#e8590c" stroke-width="2" fill="none"></path></g><g transform="translate(120 490) rotate(0 -5 50)"><path d="M3.01 72.97 C-0.87 81.04, -4.76 89.12, -10 100 M3.01 72.97 C0 79.23, -3.02 85.49, -10 100" stroke="#e8590c" stroke-width="2" fill="none"></path></g></g><g stroke-linecap="round"><g transform="translate(340 490) rotate(0 -5 50)"><path d="M0 0 C-1.67 16.67, -8.33 83.33, -10 100 M0 0 C-1.67 16.67, -8.33 83.33, -10 100" stroke="#e8590c" stroke-width="2" fill="none"></path></g><g transform="translate(340 490) rotate(0 -5 50)"><path d="M-17.4 70.93 C-14.7 81.53, -12 92.13, -10 100 M-17.4 70.93 C-15.66 77.79, -13.91 84.64, -10 100" stroke="#e8590c" stroke-width="2" fill="none"></path></g><g transform="translate(340 490) rotate(0 -5 50)"><path d="M3.01 72.97 C-1.73 82.83, -6.48 92.68, -10 100 M3.01 72.97 C-0.06 79.35, -3.13 85.72, -10 100" stroke="#e8590c" stroke-width="2" fill="none"></path></g></g><g stroke-linecap="round"><g transform="translate(560 490) rotate(0 -5 50)"><path d="M0 0 C-1.67 16.67, -8.33 83.33, -10 100 M0 0 C-1.67 16.67, -8.33 83.33, -10 100" stroke="#e8590c" stroke-width="2" fill="none"></path></g><g transform="translate(560 490) rotate(0 -5 50)"><path d="M-17.4 70.93 C-15.03 80.26, -12.65 89.59, -10 100 M-17.4 70.93 C-15.83 77.11, -14.26 83.29, -10 100" stroke="#e8590c" stroke-width="2" fill="none"></path></g><g transform="translate(560 490) rotate(0 -5 50)"><path d="M3.01 72.97 C-1.16 81.65, -5.34 90.32, -10 100 M3.01 72.97 C0.25 78.72, -2.52 84.46, -10 100" stroke="#e8590c" stroke-width="2" fill="none"></path></g></g></svg>