<svg version="1.1" xmlns="http://www.w3.org/2000/svg" viewBox="0 0 1020 550" width="1020" height="550">
  <!-- svg-source:excalidraw -->
  
  <defs>
    <style>
      @font-face {
        font-family: "Virgil";
        src: url("https://excalidraw.com/Virgil.woff2");
      }
      @font-face {
        font-family: "Cascadia";
        src: url("https://excalidraw.com/Cascadia.woff2");
      }
    </style>
  </defs>
  <rect x="0" y="0" width="1020" height="550" fill="#ffffff"></rect><g transform="translate(250 10) rotate(0 210 17.5)"><text x="0" y="NaN" font-family="Cascadia, Segoe UI Emoji" font-size="28px" fill="#343a40" text-anchor="start" style="white-space: pre;" direction="ltr">Hooks Skills Architecture</text></g><g transform="translate(50 70) rotate(0 33 13.75)"><text x="0" y="NaN" font-family="Cascadia, Segoe UI Emoji" font-size="22px" fill="#7048e8" text-anchor="start" style="white-space: pre;" direction="ltr">Hooks</text></g><g transform="translate(450 70) rotate(0 39.60000000000002 13.75)"><text x="0" y="NaN" font-family="Cascadia, Segoe UI Emoji" font-size="22px" fill="#1971c2" text-anchor="start" style="white-space: pre;" direction="ltr">Skills</text></g><g transform="translate(870 70) rotate(0 33 13.75)"><text x="0" y="NaN" font-family="Cascadia, Segoe UI Emoji" font-size="22px" fill="#2f9e44" text-anchor="start" style="white-space: pre;" direction="ltr">Crons</text></g><g transform="translate(20 146.25) rotate(0 90 8.75)"><text x="90" y="NaN" font-family="Cascadia, Segoe UI Emoji" font-size="14px" fill="#7048e8" text-anchor="middle" style="white-space: pre;" direction="ltr">PreToolUse</text></g><g stroke-linecap="round" transform="translate(10 130) rotate(0 100 25)"><path d="M0 0 L200 0 L200 50 L0 50" stroke="none" stroke-width="0" fill="#d0bfff"></path><path d="M0 0 C51.42 0, 102.85 0, 200 0 M0 0 C76.17 0, 152.34 0, 200 0 M200 0 C200 15.91, 200 31.83, 200 50 M200 0 C200 12.28, 200 24.57, 200 50 M200 50 C137 50, 73.99 50, 0 50 M200 50 C149.34 50, 98.68 50, 0 50 M0 50 C0 36.39, 0 22.78, 0 0 M0 50 C0 30.27, 0 10.53, 0 0" stroke="#7048e8" stroke-width="2" fill="none"></path></g><g transform="translate(20 206.25) rotate(0 90 8.75)"><text x="90" y="NaN" font-family="Cascadia, Segoe UI Emoji" font-size="14px" fill="#7048e8" text-anchor="middle" style="white-space: pre;" direction="ltr">PostToolUse</text></g><g stroke-linecap="round" transform="translate(10 190) rotate(0 100 25)"><path d="M0 0 L200 0 L200 50 L0 50" stroke="none" stroke-width="0" fill="#d0bfff"></path><path d="M0 0 C42.78 0, 85.56 0, 200 0 M0 0 C75.9 0, 151.8 0, 200 0 M200 0 C200 12.02, 200 24.05, 200 50 M200 0 C200 19, 200 38, 200 50 M200 50 C148.93 50, 97.86 50, 0 50 M200 50 C134.69 50, 69.37 50, 0 50 M0 50 C0 37.52, 0 25.03, 0 0 M0 50 C0 38.19, 0 26.37, 0 0" stroke="#7048e8" stroke-width="2" fill="none"></path></g><g transform="translate(20 286.25) rotate(0 90 8.75)"><text x="90" y="NaN" font-family="Cascadia, Segoe UI Emoji" font-size="14px" fill="#7048e8" text-anchor="middle" style="white-space: pre;" direction="ltr">Notification</text></g><g stroke-linecap="round" transform="translate(10 270) rotate(0 100 25)"><path d="M0 0 L200 0 L200 50 L0 50" stroke="none" stroke-width="0" fill="#d0bfff"></path><path d="M0 0 C45.8 0, 91.6 0, 200 0 M0 0 C41.68 0, 83.37 0, 200 0 M200 0 C200 11.52, 200 23.03, 200 50 M200 0 C200 18.81, 200 37.62, 200 50 M200 50 C130.12 50, 60.24 50, 0 50 M200 50 C159.97 50, 119.94 50, 0 50 M0 50 C0 34.4, 0 18.79, 0 0 M0 50 C0 35.43, 0 20.86, 0 0" stroke="#7048e8" stroke-width="2" fill="none"></path></g><g transform="translate(20 366.25) rotate(0 90 8.75)"><text x="90" y="NaN" font-family="Cascadia, Segoe UI Emoji" font-size="14px" fill="#7048e8" text-anchor="middle" style="white-space: pre;" direction="ltr">UserPromptSubmit</text></g><g stroke-linecap="round" transform="translate(10 350) rotate(0 100 25)"><path d="M0 0 L200 0 L200 50 L0 50" stroke="none" stroke-width="0" fill="#d0bfff"></path><path d="M0 0 C65.08 0, 130.16 0, 200 0 M0 0 C41.71 0, 83.42 0, 200 0 M200 0 C200 15.08, 200 30.16, 200 50 M200 0 C200 18.94, 200 37.88, 200 50 M200 50 C156.59 50, 113.17 50, 0 50 M200 50 C145.59 50, 91.17 50, 0 50 M0 50 C0 33.04, 0 16.07, 0 0 M0 50 C0 31.9, 0 13.8, 0 0" stroke="#7048e8" stroke-width="2" fill="none"></path></g><g transform="translate(360 141.875) rotate(0 80 8.125)"><text x="80" y="NaN" font-family="Cascadia, Segoe UI Emoji" font-size="13px" fill="#1971c2" text-anchor="middle" style="white-space: pre;" direction="ltr">memory-system</text></g><g stroke-linecap="round" transform="translate(350 130) rotate(0 90 20)"><path d="M0 0 L180 0 L180 40 L0 40" stroke="none" stroke-width="0" fill="#a5d8ff"></path><path d="M0 0 C42.75 0, 85.5 0, 180 0 M0 0 C56.13 0, 112.26 0, 180 0 M180 0 C180 12.63, 180 25.25, 180 40 M180 0 C180 8.12, 180 16.23, 180 40 M180 40 C141.43 40, 102.86 40, 0 40 M180 40 C115.64 40, 51.28 40, 0 40 M0 40 C0 24.6, 0 9.21, 0 0 M0 40 C0 27.12, 0 14.23, 0 0" stroke="#1971c2" stroke-width="2" fill="none"></path></g><g transform="translate(360 201.875) rotate(0 80 8.125)"><text x="80" y="NaN" font-family="Cascadia, Segoe UI Emoji" font-size="13px" fill="#1971c2" text-anchor="middle" style="white-space: pre;" direction="ltr">verify-completion</text></g><g stroke-linecap="round" transform="translate(350 190) rotate(0 90 20)"><path d="M0 0 L180 0 L180 40 L0 40" stroke="none" stroke-width="0" fill="#a5d8ff"></path><path d="M0 0 C41.21 0, 82.42 0, 180 0 M0 0 C57.23 0, 114.46 0, 180 0 M180 0 C180 15.41, 180 30.82, 180 40 M180 0 C180 11.67, 180 23.33, 180 40 M180 40 C133.27 40, 86.55 40, 0 40 M180 40 C119.29 40, 58.58 40, 0 40 M0 40 C0 26.3, 0 12.59, 0 0 M0 40 C0 29.72, 0 19.44, 0 0" stroke="#1971c2" stroke-width="2" fill="none"></path></g><g transform="translate(360 261.875) rotate(0 80 8.125)"><text x="80" y="NaN" font-family="Cascadia, Segoe UI Emoji" font-size="13px" fill="#1971c2" text-anchor="middle" style="white-space: pre;" direction="ltr">session-planning</text></g><g stroke-linecap="round" transform="translate(350 250) rotate(0 90 20)"><path d="M0 0 L180 0 L180 40 L0 40" stroke="none" stroke-width="0" fill="#a5d8ff"></path><path d="M0 0 C43.98 0, 87.97 0, 180 0 M0 0 C54.37 0, 108.73 0, 180 0 M180 0 C180 10.82, 180 21.64, 180 40 M180 0 C180 8.07, 180 16.13, 180 40 M180 40 C121.74 40, 63.49 40, 0 40 M180 40 C135.77 40, 91.53 40, 0 40 M0 40 C0 29.09, 0 18.18, 0 0 M0 40 C0 27.83, 0 15.66, 0 0" stroke="#1971c2" stroke-width="2" fill="none"></path></g><g transform="translate(360 321.875) rotate(0 80 8.125)"><text x="80" y="NaN" font-family="Cascadia, Segoe UI Emoji" font-size="13px" fill="#1971c2" text-anchor="middle" style="white-space: pre;" direction="ltr">telegram-message</text></g><g stroke-linecap="round" transform="translate(350 310) rotate(0 90 20)"><path d="M0 0 L180 0 L180 40 L0 40" stroke="none" stroke-width="0" fill="#a5d8ff"></path><path d="M0 0 C64.01 0, 128.02 0, 180 0 M0 0 C71.25 0, 142.49 0, 180 0 M180 0 C180 12.87, 180 25.75, 180 40 M180 0 C180 14.32, 180 28.64, 180 40 M180 40 C133.03 40, 86.06 40, 0 40 M180 40 C121.42 40, 62.85 40, 0 40 M0 40 C0 28.36, 0 16.72, 0 0 M0 40 C0 29.8, 0 19.61, 0 0" stroke="#1971c2" stroke-width="2" fill="none"></path></g><g transform="translate(360 381.875) rotate(0 80 8.125)"><text x="80" y="NaN" font-family="Cascadia, Segoe UI Emoji" font-size="13px" fill="#1971c2" text-anchor="middle" style="white-space: pre;" direction="ltr">code-review</text></g><g stroke-linecap="round" transform="translate(350 370) rotate(0 90 20)"><path d="M0 0 L180 0 L180 40 L0 40" stroke="none" stroke-width="0" fill="#a5d8ff"></path><path d="M0 0 C70.84 0, 141.68 0, 180 0 M0 0 C50.24 0, 100.49 0, 180 0 M180 0 C180 10.15, 180 20.3, 180 40 M180 0 C180 9.3, 180 18.59, 180 40 M180 40 C116.99 40, 53.99 40, 0 40 M180 40 C109.16 40, 38.32 40, 0 40 M0 40 C0 31.98, 0 23.96, 0 0 M0 40 C0 24.24, 0 8.48, 0 0" stroke="#1971c2" stroke-width="2" fill="none"></path></g><g transform="translate(580 141.875) rotate(0 80 8.125)"><text x="80" y="NaN" font-family="Cascadia, Segoe UI Emoji" font-size="13px" fill="#1971c2" text-anchor="middle" style="white-space: pre;" direction="ltr">research-deep</text></g><g stroke-linecap="round" transform="translate(570 130) rotate(0 90 20)"><path d="M0 0 L180 0 L180 40 L0 40" stroke="none" stroke-width="0" fill="#a5d8ff"></path><path d="M0 0 C60.49 0, 120.99 0, 180 0 M0 0 C65.94 0, 131.88 0, 180 0 M180 0 C180 10.42, 180 20.83, 180 40 M180 0 C180 9.33, 180 18.65, 180 40 M180 40 C114.83 40, 49.66 40, 0 40 M180 40 C122.46 40, 64.91 40, 0 40 M0 40 C0 30.34, 0 20.68, 0 0 M0 40 C0 28.22, 0 16.44, 0 0" stroke="#1971c2" stroke-width="2" fill="none"></path></g><g transform="translate(580 201.875) rotate(0 80 8.125)"><text x="80" y="NaN" font-family="Cascadia, Segoe UI Emoji" font-size="13px" fill="#1971c2" text-anchor="middle" style="white-space: pre;" direction="ltr">n8n-workflows</text></g><g stroke-linecap="round" transform="translate(570 190) rotate(0 90 20)"><path d="M0 0 L180 0 L180 40 L0 40" stroke="none" stroke-width="0" fill="#a5d8ff"></path><path d="M0 0 C67.75 0, 135.49 0, 180 0 M0 0 C69.21 0, 138.43 0, 180 0 M180 0 C180 9.05, 180 18.1, 180 40 M180 0 C180 10.31, 180 20.62, 180 40 M180 40 C114.46 40, 48.91 40, 0 40 M180 40 C128.25 40, 76.51 40, 0 40 M0 40 C0 27.47, 0 14.95, 0 0 M0 40 C0 28.51, 0 17.02, 0 0" stroke="#1971c2" stroke-width="2" fill="none"></path></g><g transform="translate(580 261.875) rotate(0 80 8.125)"><text x="80" y="NaN" font-family="Cascadia, Segoe UI Emoji" font-size="13px" fill="#1971c2" text-anchor="middle" style="white-space: pre;" direction="ltr">link-ingest</text></g><g stroke-linecap="round" transform="translate(570 250) rotate(0 90 20)"><path d="M0 0 L180 0 L180 40 L0 40" stroke="none" stroke-width="0" fill="#a5d8ff"></path><path d="M0 0 C38.6 0, 77.2 0, 180 0 M0 0 C47.82 0, 95.64 0, 180 0 M180 0 C180 8.1, 180 16.19, 180 40 M180 0 C180 14.14, 180 28.28, 180 40 M180 40 C116.13 40, 52.25 40, 0 40 M180 40 C121.54 40, 63.07 40, 0 40 M0 40 C0 30.04, 0 20.08, 0 0 M0 40 C0 30.3, 0 20.6, 0 0" stroke="#1971c2" stroke-width="2" fill="none"></path></g><g transform="translate(580 321.875) rotate(0 80 8.125)"><text x="80" y="NaN" font-family="Cascadia, Segoe UI Emoji" font-size="13px" fill="#1971c2" text-anchor="middle" style="white-space: pre;" direction="ltr">backlog-sync</text></g><g stroke-linecap="round" transform="translate(570 310) rotate(0 90 20)"><path d="M0 0 L180 0 L180 40 L0 40" stroke="none" stroke-width="0" fill="#a5d8ff"></path><path d="M0 0 C41.34 0, 82.67 0, 180 0 M0 0 C70.98 0, 141.97 0, 180 0 M180 0 C180 10.72, 180 21.43, 180 40 M180 0 C180 11.88, 180 23.75, 180 40 M180 40 C122.86 40, 65.72 40, 0 40 M180 40 C121.39 40, 62.77 40, 0 40 M0 40 C0 29.91, 0 19.81, 0 0 M0 40 C0 29.92, 0 19.85, 0 0" stroke="#1971c2" stroke-width="2" fill="none"></path></g><g transform="translate(580 381.875) rotate(0 80 8.125)"><text x="80" y="NaN" font-family="Cascadia, Segoe UI Emoji" font-size="13px" fill="#1971c2" text-anchor="middle" style="white-space: pre;" direction="ltr">file-organizer</text></g><g stroke-linecap="round" transform="translate(570 370) rotate(0 90 20)"><path d="M0 0 L180 0 L180 40 L0 40" stroke="none" stroke-width="0" fill="#a5d8ff"></path><path d="M0 0 C48 0, 95.99 0, 180 0 M0 0 C47.91 0, 95.83 0, 180 0 M180 0 C180 15.13, 180 30.26, 180 40 M180 0 C180 13.66, 180 27.33, 180 40 M180 40 C126.68 40, 73.36 40, 0 40 M180 40 C126.04 40, 72.08 40, 0 40 M0 40 C0 24.72, 0 9.43, 0 0 M0 40 C0 26.7, 0 13.4, 0 0" stroke="#1971c2" stroke-width="2" fill="none"></path></g><g transform="translate(470 430) rotate(0 67.19999999999999 8.75)"><text x="0" y="NaN" font-family="Cascadia, Segoe UI Emoji" font-size="14px" fill="#868e96" text-anchor="start" style="white-space: pre;" direction="ltr">40+ skills total</text></g><g transform="translate(840 146.25) rotate(0 80 8.75)"><text x="80" y="NaN" font-family="Cascadia, Segoe UI Emoji" font-size="14px" fill="#2f9e44" text-anchor="middle" style="white-space: pre;" direction="ltr">Memory Cron</text></g><g stroke-linecap="round" transform="translate(830 130) rotate(0 90 25)"><path d="M0 0 L180 0 L180 50 L0 50" stroke="none" stroke-width="0" fill="#b2f2bb"></path><path d="M0 0 C52.12 0, 104.23 0, 180 0 M0 0 C71.91 0, 143.82 0, 180 0 M180 0 C180 11.79, 180 23.58, 180 50 M180 0 C180 10.1, 180 20.2, 180 50 M180 50 C130.72 50, 81.45 50, 0 50 M180 50 C116.35 50, 52.7 50, 0 50 M0 50 C0 32.41, 0 14.83, 0 0 M0 50 C0 37.53, 0 25.05, 0 0" stroke="#2f9e44" stroke-width="2" fill="none"></path></g><g transform="translate(840 206.25) rotate(0 80 8.75)"><text x="80" y="NaN" font-family="Cascadia, Segoe UI Emoji" font-size="14px" fill="#2f9e44" text-anchor="middle" style="white-space: pre;" direction="ltr">YouTube Cron</text></g><g stroke-linecap="round" transform="translate(830 190) rotate(0 90 25)"><path d="M0 0 L180 0 L180 50 L0 50" stroke="none" stroke-width="0" fill="#b2f2bb"></path><path d="M0 0 C60.33 0, 120.66 0, 180 0 M0 0 C55.31 0, 110.62 0, 180 0 M180 0 C180 18.07, 180 36.14, 180 50 M180 0 C180 17.98, 180 35.96, 180 50 M180 50 C124 50, 68 50, 0 50 M180 50 C116.95 50, 53.9 50, 0 50 M0 50 C0 35.97, 0 21.95, 0 0 M0 50 C0 35.99, 0 21.99, 0 0" stroke="#2f9e44" stroke-width="2" fill="none"></path></g><g transform="translate(840 286.25) rotate(0 80 8.75)"><text x="80" y="NaN" font-family="Cascadia, Segoe UI Emoji" font-size="14px" fill="#2f9e44" text-anchor="middle" style="white-space: pre;" direction="ltr">Token Monitor</text></g><g stroke-linecap="round" transform="translate(830 270) rotate(0 90 25)"><path d="M0 0 L180 0 L180 50 L0 50" stroke="none" stroke-width="0" fill="#b2f2bb"></path><path d="M0 0 C59.03 0, 118.06 0, 180 0 M0 0 C55.99 0, 111.99 0, 180 0 M180 0 C180 12.57, 180 25.13, 180 50 M180 0 C180 13.6, 180 27.2, 180 50 M180 50 C116.05 50, 52.09 50, 0 50 M180 50 C116.78 50, 53.57 50, 0 50 M0 50 C0 35.2, 0 20.4, 0 0 M0 50 C0 39.34, 0 28.68, 0 0" stroke="#2f9e44" stroke-width="2" fill="none"></path></g><g transform="translate(840 366.25) rotate(0 80 8.75)"><text x="80" y="NaN" font-family="Cascadia, Segoe UI Emoji" font-size="14px" fill="#2f9e44" text-anchor="middle" style="white-space: pre;" direction="ltr">Report Cron</text></g><g stroke-linecap="round" transform="translate(830 350) rotate(0 90 25)"><path d="M0 0 L180 0 L180 50 L0 50" stroke="none" stroke-width="0" fill="#b2f2bb"></path><path d="M0 0 C50.95 0, 101.9 0, 180 0 M0 0 C38.97 0, 77.95 0, 180 0 M180 0 C180 14.57, 180 29.14, 180 50 M180 0 C180 13.31, 180 26.62, 180 50 M180 50 C141.68 50, 103.37 50, 0 50 M180 50 C110.11 50, 40.21 50, 0 50 M0 50 C0 35.07, 0 20.13, 0 0 M0 50 C0 30.25, 0 10.51, 0 0" stroke="#2f9e44" stroke-width="2" fill="none"></path></g><g transform="translate(20 505) rotate(0 90 10)"><text x="90" y="NaN" font-family="Cascadia, Segoe UI Emoji" font-size="16px" fill="#e8590c" text-anchor="middle" style="white-space: pre;" direction="ltr">Events</text></g><g stroke-linecap="round" transform="translate(10 490) rotate(0 100 25)"><path d="M0 0 L200 0 L200 50 L0 50" stroke="none" stroke-width="0" fill="#ffd8a8"></path><path d="M0 0 C51.42 0, 102.84 0, 200 0 M0 0 C77.3 0, 154.6 0, 200 0 M200 0 C200 15.1, 200 30.2, 200 50 M200 0 C200 11.9, 200 23.81, 200 50 M200 50 C158.88 50, 117.76 50, 0 50 M200 50 C150.02 50, 100.04 50, 0 50 M0 50 C0 35.31, 0 20.62, 0 0 M0 50 C0 31.82, 0 13.64, 0 0" stroke="#e8590c" stroke-width="2" fill="none"></path></g><g transform="translate(840 505) rotate(0 80 10)"><text x="80" y="NaN" font-family="Cascadia, Segoe UI Emoji" font-size="16px" fill="#0c8599" text-anchor="middle" style="white-space: pre;" direction="ltr">Actions</text></g><g stroke-linecap="round" transform="translate(830 490) rotate(0 90 25)"><path d="M0 0 L180 0 L180 50 L0 50" stroke="none" stroke-width="0" fill="#99e9f2"></path><path d="M0 0 C69.98 0, 139.96 0, 180 0 M0 0 C64.87 0, 129.73 0, 180 0 M180 0 C180 10.12, 180 20.25, 180 50 M180 0 C180 10.1, 180 20.2, 180 50 M180 50 C131.53 50, 83.07 50, 0 50 M180 50 C138.26 50, 96.52 50, 0 50 M0 50 C0 39.09, 0 28.19, 0 0 M0 50 C0 38.95, 0 27.91, 0 0" stroke="#0c8599" stroke-width="2" fill="none"></path></g><g stroke-linecap="round"><g transform="translate(110 490) rotate(0 0 -155)"><path d="M0 0 C0 -51.67, 0 -258.33, 0 -310 M0 0 C0 -51.67, 0 -258.33, 0 -310" stroke="#e8590c" stroke-width="2" fill="none"></path></g><g transform="translate(110 490) rotate(0 0 -155)"><path d="M10.26 -281.81 C8.03 -287.94, 5.79 -294.08, 0 -310 M10.26 -281.81 C7.99 -288.04, 5.72 -294.28, 0 -310" stroke="#e8590c" stroke-width="2" fill="none"></path></g><g transform="translate(110 490) rotate(0 0 -155)"><path d="M-10.26 -281.81 C-8.03 -287.94, -5.79 -294.08, 0 -310 M-10.26 -281.81 C-7.99 -288.04, -5.72 -294.28, 0 -310" stroke="#e8590c" stroke-width="2" fill="none"></path></g></g><g stroke-linecap="round"><g transform="translate(110 490) rotate(0 0 -45)"><path d="M0 0 C0 -15, 0 -75, 0 -90 M0 0 C0 -15, 0 -75, 0 -90" stroke="#e8590c" stroke-width="2" fill="none"></path></g><g transform="translate(110 490) rotate(0 0 -45)"><path d="M10.26 -61.81 C7.57 -69.2, 4.88 -76.59, 0 -90 M10.26 -61.81 C6.46 -72.25, 2.66 -82.68, 0 -90" stroke="#e8590c" stroke-width="2" fill="none"></path></g><g transform="translate(110 490) rotate(0 0 -45)"><path d="M-10.26 -61.81 C-7.57 -69.2, -4.88 -76.59, 0 -90 M-10.26 -61.81 C-6.46 -72.25, -2.66 -82.68, 0 -90" stroke="#e8590c" stroke-width="2" fill="none"></path></g></g><g stroke-linecap="round"><g transform="translate(210 155) rotate(0 70 -2.5)"><path d="M0 0 C23.33 -0.83, 116.67 -4.17, 140 -5 M0 0 C23.33 -0.83, 116.67 -4.17, 140 -5" stroke="#868e96" stroke-width="2" fill="none"></path></g><g transform="translate(210 155) rotate(0 70 -2.5)"><path d="M112.19 6.26 C118.39 3.75, 124.59 1.24, 140 -5 M112.19 6.26 C118.76 3.6, 125.33 0.94, 140 -5" stroke="#868e96" stroke-width="2" fill="none"></path></g><g transform="translate(210 155) rotate(0 70 -2.5)"><path d="M111.46 -14.25 C117.82 -12.19, 124.18 -10.13, 140 -5 M111.46 -14.25 C118.2 -12.06, 124.94 -9.88, 140 -5" stroke="#868e96" stroke-width="2" fill="none"></path></g></g><g stroke-linecap="round"><g transform="translate(210 215) rotate(0 70 -2.5)"><path d="M0 0 C23.33 -0.83, 116.67 -4.17, 140 -5 M0 0 C23.33 -0.83, 116.67 -4.17, 140 -5" stroke="#868e96" stroke-width="2" fill="none"></path></g><g transform="translate(210 215) rotate(0 70 -2.5)"><path d="M112.19 6.26 C118.04 3.89, 123.89 1.52, 140 -5 M112.19 6.26 C120.29 2.98, 128.38 -0.29, 140 -5" stroke="#868e96" stroke-width="2" fill="none"></path></g><g transform="translate(210 215) rotate(0 70 -2.5)"><path d="M111.46 -14.25 C117.46 -12.3, 123.47 -10.36, 140 -5 M111.46 -14.25 C119.77 -11.56, 128.07 -8.86, 140 -5" stroke="#868e96" stroke-width="2" fill="none"></path></g></g><g stroke-linecap="round"><g transform="translate(210 295) rotate(0 70 17.5)"><path d="M0 0 C23.33 5.83, 116.67 29.17, 140 35 M0 0 C23.33 5.83, 116.67 29.17, 140 35" stroke="#868e96" stroke-width="2" fill="none"></path></g><g transform="translate(210 295) rotate(0 70 17.5)"><path d="M110.16 38.12 C116.53 37.45, 122.9 36.79, 140 35 M110.16 38.12 C119.22 37.17, 128.28 36.22, 140 35" stroke="#868e96" stroke-width="2" fill="none"></path></g><g transform="translate(210 295) rotate(0 70 17.5)"><path d="M115.14 18.21 C120.45 21.79, 125.75 25.38, 140 35 M115.14 18.21 C122.69 23.31, 130.23 28.4, 140 35" stroke="#868e96" stroke-width="2" fill="none"></path></g></g><g stroke-linecap="round"><g transform="translate(210 375) rotate(0 70 7.5)"><path d="M0 0 C23.33 2.5, 116.67 12.5, 140 15 M0 0 C23.33 2.5, 116.67 12.5, 140 15" stroke="#868e96" stroke-width="2" fill="none"></path></g><g transform="translate(210 375) rotate(0 70 7.5)"><path d="M110.88 22.2 C116.74 20.75, 122.61 19.3, 140 15 M110.88 22.2 C117.78 20.49, 124.69 18.78, 140 15" stroke="#868e96" stroke-width="2" fill="none"></path></g><g transform="translate(210 375) rotate(0 70 7.5)"><path d="M113.06 1.79 C118.49 4.45, 123.91 7.11, 140 15 M113.06 1.79 C119.45 4.93, 125.84 8.06, 140 15" stroke="#868e96" stroke-width="2" fill="none"></path></g></g><g stroke-linecap="round"><g transform="translate(530 150) rotate(0 150 2.5)"><path d="M0 0 C50 0.83, 250 4.17, 300 5 M0 0 C50 0.83, 250 4.17, 300 5" stroke="#868e96" stroke-width="2" fill="none"></path></g><g transform="translate(530 150) rotate(0 150 2.5)"><path d="M271.64 14.79 C279.51 12.07, 287.38 9.36, 300 5 M271.64 14.79 C282.81 10.93, 293.98 7.08, 300 5" stroke="#868e96" stroke-width="2" fill="none"></path></g><g transform="translate(530 150) rotate(0 150 2.5)"><path d="M271.98 -5.73 C279.76 -2.75, 287.53 0.23, 300 5 M271.98 -5.73 C283.02 -1.5, 294.05 2.72, 300 5" stroke="#868e96" stroke-width="2" fill="none"></path></g></g><g stroke-linecap="round"><g transform="translate(750 210) rotate(0 40 2.5)"><path d="M0 0 C13.33 0.83, 66.67 4.17, 80 5 M0 0 C13.33 0.83, 66.67 4.17, 80 5" stroke="#868e96" stroke-width="2" fill="none"></path></g><g transform="translate(750 210) rotate(0 40 2.5)"><path d="M51.22 13.48 C61.19 10.54, 71.16 7.61, 80 5 M51.22 13.48 C57.6 11.6, 63.98 9.72, 80 5" stroke="#868e96" stroke-width="2" fill="none"></path></g><g transform="translate(750 210) rotate(0 40 2.5)"><path d="M52.5 -7 C62.03 -2.84, 71.55 1.31, 80 5 M52.5 -7 C58.6 -4.34, 64.69 -1.68, 80 5" stroke="#868e96" stroke-width="2" fill="none"></path></g></g><g stroke-linecap="round"><g transform="translate(530 210) rotate(0 150 152.5)"><path d="M0 0 C50 50.83, 250 254.17, 300 305 M0 0 C50 50.83, 250 254.17, 300 305" stroke="#868e96" stroke-width="2" fill="none"></path></g><g transform="translate(530 210) rotate(0 150 152.5)"><path d="M272.92 292.1 C283.2 297, 293.49 301.9, 300 305 M272.92 292.1 C279.96 295.45, 287.01 298.81, 300 305" stroke="#868e96" stroke-width="2" fill="none"></path></g><g transform="translate(530 210) rotate(0 150 152.5)"><path d="M287.55 277.71 C292.28 288.07, 297 298.43, 300 305 M287.55 277.71 C290.79 284.81, 294.03 291.91, 300 305" stroke="#868e96" stroke-width="2" fill="none"></path></g></g><g stroke-linecap="round"><g transform="translate(530 330) rotate(0 150 92.5)"><path d="M0 0 C50 30.83, 250 154.17, 300 185 M0 0 C50 30.83, 250 154.17, 300 185" stroke="#868e96" stroke-width="2" fill="none"></path></g><g transform="translate(530 330) rotate(0 150 92.5)"><path d="M270.62 178.94 C281.86 181.26, 293.09 183.57, 300 185 M270.62 178.94 C277.99 180.46, 285.36 181.98, 300 185" stroke="#868e96" stroke-width="2" fill="none"></path></g><g transform="translate(530 330) rotate(0 150 92.5)"><path d="M281.39 161.47 C288.51 170.47, 295.63 179.47, 300 185 M281.39 161.47 C286.06 167.37, 290.73 173.27, 300 185" stroke="#868e96" stroke-width="2" fill="none"></path></g></g></svg>