<svg version="1.1" xmlns="http://www.w3.org/2000/svg" viewBox="0 0 1330 660" width="1330" height="660">
  <!-- svg-source:excalidraw -->
  
  <defs>
    <style>
      @font-face {
        font-family: "Virgil";
        src: url("https://excalidraw.com/Virgil.woff2");
      }
      @font-face {
        font-family: "Cascadia";
        src: url("https://excalidraw.com/Cascadia.woff2");
      }
    </style>
  </defs>
  <rect x="0" y="0" width="1330" height="660" fill="#ffffff"></rect><g transform="translate(10 10) rotate(0 210 17.5)"><text x="0" y="NaN" font-family="Cascadia, Segoe UI Emoji" font-size="28px" fill="#343a40" text-anchor="start" style="white-space: pre;" direction="ltr">Hooks and Skills Overview</text></g><g transform="translate(10 70) rotate(0 99 13.75)"><text x="0" y="NaN" font-family="Cascadia, Segoe UI Emoji" font-size="22px" fill="#7048e8" text-anchor="start" style="white-space: pre;" direction="ltr">13 Active Hooks</text></g><g transform="translate(20 128.125) rotate(0 75 6.875)"><text x="75" y="NaN" font-family="Cascadia, Segoe UI Emoji" font-size="11px" fill="#7048e8" text-anchor="middle" style="white-space: pre;" direction="ltr">damage-control</text></g><g stroke-linecap="round" transform="translate(10 110) rotate(0 85 25)"><path d="M0 0 L170 0 L170 50 L0 50" stroke="none" stroke-width="0" fill="#d0bfff"></path><path d="M0 0 C43.04 0, 86.09 0, 170 0 M0 0 C62.29 0, 124.58 0, 170 0 M170 0 C170 13.92, 170 27.84, 170 50 M170 0 C170 16.71, 170 33.42, 170 50 M170 50 C119.16 50, 68.33 50, 0 50 M170 50 C122.61 50, 75.22 50, 0 50 M0 50 C0 33.09, 0 16.18, 0 0 M0 50 C0 33.7, 0 17.39, 0 0" stroke="#7048e8" stroke-width="2" fill="none"></path></g><g transform="translate(220 128.125) rotate(0 75 6.875)"><text x="75" y="NaN" font-family="Cascadia, Segoe UI Emoji" font-size="11px" fill="#7048e8" text-anchor="middle" style="white-space: pre;" direction="ltr">verify-completion</text></g><g stroke-linecap="round" transform="translate(210 110) rotate(0 85 25)"><path d="M0 0 L170 0 L170 50 L0 50" stroke="none" stroke-width="0" fill="#d0bfff"></path><path d="M0 0 C66.31 0, 132.61 0, 170 0 M0 0 C66.77 0, 133.54 0, 170 0 M170 0 C170 12.42, 170 24.83, 170 50 M170 0 C170 16.22, 170 32.45, 170 50 M170 50 C132.72 50, 95.45 50, 0 50 M170 50 C124.54 50, 79.09 50, 0 50 M0 50 C0 36.11, 0 22.22, 0 0 M0 50 C0 38.55, 0 27.09, 0 0" stroke="#7048e8" stroke-width="2" fill="none"></path></g><g transform="translate(400 128.125) rotate(0 75 6.875)"><text x="75" y="NaN" font-family="Cascadia, Segoe UI Emoji" font-size="11px" fill="#7048e8" text-anchor="middle" style="white-space: pre;" direction="ltr">session-start</text></g><g stroke-linecap="round" transform="translate(390 110) rotate(0 85 25)"><path d="M0 0 L170 0 L170 50 L0 50" stroke="none" stroke-width="0" fill="#d0bfff"></path><path d="M0 0 C60.38 0, 120.76 0, 170 0 M0 0 C59.2 0, 118.4 0, 170 0 M170 0 C170 16.1, 170 32.2, 170 50 M170 0 C170 19.06, 170 38.11, 170 50 M170 50 C130.99 50, 91.98 50, 0 50 M170 50 C134.01 50, 98.02 50, 0 50 M0 50 C0 34.28, 0 18.56, 0 0 M0 50 C0 32.34, 0 14.67, 0 0" stroke="#7048e8" stroke-width="2" fill="none"></path></g><g transform="translate(580 128.125) rotate(0 75 6.875)"><text x="75" y="NaN" font-family="Cascadia, Segoe UI Emoji" font-size="11px" fill="#7048e8" text-anchor="middle" style="white-space: pre;" direction="ltr">session-end</text></g><g stroke-linecap="round" transform="translate(570 110) rotate(0 85 25)"><path d="M0 0 L170 0 L170 50 L0 50" stroke="none" stroke-width="0" fill="#d0bfff"></path><path d="M0 0 C57.84 0, 115.69 0, 170 0 M0 0 C67.67 0, 135.35 0, 170 0 M170 0 C170 11.99, 170 23.99, 170 50 M170 0 C170 10.4, 170 20.81, 170 50 M170 50 C133.22 50, 96.43 50, 0 50 M170 50 C117.83 50, 65.66 50, 0 50 M0 50 C0 34.64, 0 19.29, 0 0 M0 50 C0 32, 0 14.01, 0 0" stroke="#7048e8" stroke-width="2" fill="none"></path></g><g transform="translate(780 128.125) rotate(0 75 6.875)"><text x="75" y="NaN" font-family="Cascadia, Segoe UI Emoji" font-size="11px" fill="#7048e8" text-anchor="middle" style="white-space: pre;" direction="ltr">pre-compact</text></g><g stroke-linecap="round" transform="translate(770 110) rotate(0 85 25)"><path d="M0 0 L170 0 L170 50 L0 50" stroke="none" stroke-width="0" fill="#d0bfff"></path><path d="M0 0 C51.04 0, 102.08 0, 170 0 M0 0 C38.44 0, 76.89 0, 170 0 M170 0 C170 18.12, 170 36.25, 170 50 M170 0 C170 11.7, 170 23.4, 170 50 M170 50 C102.83 50, 35.67 50, 0 50 M170 50 C124.9 50, 79.81 50, 0 50 M0 50 C0 30.37, 0 10.74, 0 0 M0 50 C0 39.09, 0 28.18, 0 0" stroke="#7048e8" stroke-width="2" fill="none"></path></g><g transform="translate(980 128.125) rotate(0 75 6.875)"><text x="75" y="NaN" font-family="Cascadia, Segoe UI Emoji" font-size="11px" fill="#7048e8" text-anchor="middle" style="white-space: pre;" direction="ltr">pre-decision</text></g><g stroke-linecap="round" transform="translate(970 110) rotate(0 85 25)"><path d="M0 0 L170 0 L170 50 L0 50" stroke="none" stroke-width="0" fill="#d0bfff"></path><path d="M0 0 C34.7 0, 69.4 0, 170 0 M0 0 C58.53 0, 117.07 0, 170 0 M170 0 C170 18.71, 170 37.42, 170 50 M170 0 C170 19.67, 170 39.33, 170 50 M170 50 C116.86 50, 63.72 50, 0 50 M170 50 C123.76 50, 77.52 50, 0 50 M0 50 C0 39.21, 0 28.41, 0 0 M0 50 C0 33.87, 0 17.74, 0 0" stroke="#7048e8" stroke-width="2" fill="none"></path></g><g transform="translate(1160 128.125) rotate(0 75 6.875)"><text x="75" y="NaN" font-family="Cascadia, Segoe UI Emoji" font-size="11px" fill="#7048e8" text-anchor="middle" style="white-space: pre;" direction="ltr">rate-limit-monitor</text></g><g stroke-linecap="round" transform="translate(1150 110) rotate(0 85 25)"><path d="M0 0 L170 0 L170 50 L0 50" stroke="none" stroke-width="0" fill="#d0bfff"></path><path d="M0 0 C46.62 0, 93.23 0, 170 0 M0 0 C49.71 0, 99.41 0, 170 0 M170 0 C170 16.11, 170 32.22, 170 50 M170 0 C170 16.64, 170 33.29, 170 50 M170 50 C121.01 50, 72.02 50, 0 50 M170 50 C111.51 50, 53.01 50, 0 50 M0 50 C0 38.72, 0 27.43, 0 0 M0 50 C0 36.42, 0 22.84, 0 0" stroke="#7048e8" stroke-width="2" fill="none"></path></g><g transform="translate(20 208.125) rotate(0 75 6.875)"><text x="75" y="NaN" font-family="Cascadia, Segoe UI Emoji" font-size="11px" fill="#7048e8" text-anchor="middle" style="white-space: pre;" direction="ltr">sandbox-observer</text></g><g stroke-linecap="round" transform="translate(10 190) rotate(0 85 25)"><path d="M0 0 L170 0 L170 50 L0 50" stroke="none" stroke-width="0" fill="#d0bfff"></path><path d="M0 0 C60.32 0, 120.63 0, 170 0 M0 0 C39.32 0, 78.63 0, 170 0 M170 0 C170 14.8, 170 29.6, 170 50 M170 0 C170 10.66, 170 21.32, 170 50 M170 50 C134.27 50, 98.55 50, 0 50 M170 50 C102.17 50, 34.33 50, 0 50 M0 50 C0 32.28, 0 14.56, 0 0 M0 50 C0 37.21, 0 24.43, 0 0" stroke="#7048e8" stroke-width="2" fill="none"></path></g><g transform="translate(220 208.125) rotate(0 75 6.875)"><text x="75" y="NaN" font-family="Cascadia, Segoe UI Emoji" font-size="11px" fill="#7048e8" text-anchor="middle" style="white-space: pre;" direction="ltr">skill-activation</text></g><g stroke-linecap="round" transform="translate(210 190) rotate(0 85 25)"><path d="M0 0 L170 0 L170 50 L0 50" stroke="none" stroke-width="0" fill="#d0bfff"></path><path d="M0 0 C63.48 0, 126.97 0, 170 0 M0 0 C46.87 0, 93.74 0, 170 0 M170 0 C170 10.81, 170 21.61, 170 50 M170 0 C170 11.56, 170 23.12, 170 50 M170 50 C125.01 50, 80.03 50, 0 50 M170 50 C105.28 50, 40.56 50, 0 50 M0 50 C0 34.12, 0 18.23, 0 0 M0 50 C0 33.29, 0 16.58, 0 0" stroke="#7048e8" stroke-width="2" fill="none"></path></g><g transform="translate(400 208.125) rotate(0 75 6.875)"><text x="75" y="NaN" font-family="Cascadia, Segoe UI Emoji" font-size="11px" fill="#7048e8" text-anchor="middle" style="white-space: pre;" direction="ltr">loop-stop</text></g><g stroke-linecap="round" transform="translate(390 190) rotate(0 85 25)"><path d="M0 0 L170 0 L170 50 L0 50" stroke="none" stroke-width="0" fill="#d0bfff"></path><path d="M0 0 C65.79 0, 131.58 0, 170 0 M0 0 C66.89 0, 133.79 0, 170 0 M170 0 C170 16.76, 170 33.51, 170 50 M170 0 C170 19.18, 170 38.37, 170 50 M170 50 C133.41 50, 96.81 50, 0 50 M170 50 C112.59 50, 55.18 50, 0 50 M0 50 C0 34.13, 0 18.26, 0 0 M0 50 C0 33.97, 0 17.94, 0 0" stroke="#7048e8" stroke-width="2" fill="none"></path></g><g transform="translate(580 208.125) rotate(0 75 6.875)"><text x="75" y="NaN" font-family="Cascadia, Segoe UI Emoji" font-size="11px" fill="#7048e8" text-anchor="middle" style="white-space: pre;" direction="ltr">post-tool-tracker</text></g><g stroke-linecap="round" transform="translate(570 190) rotate(0 85 25)"><path d="M0 0 L170 0 L170 50 L0 50" stroke="none" stroke-width="0" fill="#d0bfff"></path><path d="M0 0 C43.96 0, 87.91 0, 170 0 M0 0 C56.78 0, 113.55 0, 170 0 M170 0 C170 18.41, 170 36.83, 170 50 M170 0 C170 13.01, 170 26.02, 170 50 M170 50 C128.49 50, 86.98 50, 0 50 M170 50 C125.88 50, 81.75 50, 0 50 M0 50 C0 39.63, 0 29.27, 0 0 M0 50 C0 39.33, 0 28.66, 0 0" stroke="#7048e8" stroke-width="2" fill="none"></path></g><g transform="translate(780 208.125) rotate(0 75 6.875)"><text x="75" y="NaN" font-family="Cascadia, Segoe UI Emoji" font-size="11px" fill="#7048e8" text-anchor="middle" style="white-space: pre;" direction="ltr">trading-dashboard</text></g><g stroke-linecap="round" transform="translate(770 190) rotate(0 85 25)"><path d="M0 0 L170 0 L170 50 L0 50" stroke="none" stroke-width="0" fill="#d0bfff"></path><path d="M0 0 C65.58 0, 131.15 0, 170 0 M0 0 C61.79 0, 123.59 0, 170 0 M170 0 C170 14.7, 170 29.41, 170 50 M170 0 C170 14.54, 170 29.09, 170 50 M170 50 C130.73 50, 91.46 50, 0 50 M170 50 C110.3 50, 50.6 50, 0 50 M0 50 C0 37.84, 0 25.69, 0 0 M0 50 C0 36.18, 0 22.37, 0 0" stroke="#7048e8" stroke-width="2" fill="none"></path></g><g transform="translate(980 208.125) rotate(0 75 6.875)"><text x="75" y="NaN" font-family="Cascadia, Segoe UI Emoji" font-size="11px" fill="#7048e8" text-anchor="middle" style="white-space: pre;" direction="ltr">trading-observer</text></g><g stroke-linecap="round" transform="translate(970 190) rotate(0 85 25)"><path d="M0 0 L170 0 L170 50 L0 50" stroke="none" stroke-width="0" fill="#d0bfff"></path><path d="M0 0 C58.29 0, 116.58 0, 170 0 M0 0 C47.4 0, 94.79 0, 170 0 M170 0 C170 10.55, 170 21.09, 170 50 M170 0 C170 16.2, 170 32.39, 170 50 M170 50 C105.78 50, 41.56 50, 0 50 M170 50 C125.8 50, 81.61 50, 0 50 M0 50 C0 35.72, 0 21.44, 0 0 M0 50 C0 38.38, 0 26.76, 0 0" stroke="#7048e8" stroke-width="2" fill="none"></path></g><g transform="translate(10 270) rotate(0 198 13.75)"><text x="0" y="NaN" font-family="Cascadia, Segoe UI Emoji" font-size="22px" fill="#1971c2" text-anchor="start" style="white-space: pre;" direction="ltr">61 Skills across 12 Categories</text></g><g transform="translate(20 331.875) rotate(0 90 8.125)"><text x="90" y="NaN" font-family="Cascadia, Segoe UI Emoji" font-size="13px" fill="#1971c2" text-anchor="middle" style="white-space: pre;" direction="ltr">Claude Essentials (11)</text></g><g stroke-linecap="round" transform="translate(10 310) rotate(0 100 30)"><path d="M0 0 L200 0 L200 60 L0 60" stroke="none" stroke-width="0" fill="#a5d8ff"></path><path d="M0 0 C43.14 0, 86.28 0, 200 0 M0 0 C72.42 0, 144.84 0, 200 0 M200 0 C200 23.72, 200 47.43, 200 60 M200 0 C200 17.82, 200 35.63, 200 60 M200 60 C128.96 60, 57.92 60, 0 60 M200 60 C137.01 60, 74.02 60, 0 60 M0 60 C0 45.45, 0 30.91, 0 0 M0 60 C0 38.16, 0 16.31, 0 0" stroke="#1971c2" stroke-width="2" fill="none"></path></g><g transform="translate(240 331.875) rotate(0 90 8.125)"><text x="90" y="NaN" font-family="Cascadia, Segoe UI Emoji" font-size="13px" fill="#1971c2" text-anchor="middle" style="white-space: pre;" direction="ltr">Content/Research (7)</text></g><g stroke-linecap="round" transform="translate(230 310) rotate(0 100 30)"><path d="M0 0 L200 0 L200 60 L0 60" stroke="none" stroke-width="0" fill="#a5d8ff"></path><path d="M0 0 C52.67 0, 105.33 0, 200 0 M0 0 C71.59 0, 143.18 0, 200 0 M200 0 C200 15.84, 200 31.67, 200 60 M200 0 C200 23.99, 200 47.99, 200 60 M200 60 C136.18 60, 72.36 60, 0 60 M200 60 C130.64 60, 61.28 60, 0 60 M0 60 C0 42.12, 0 24.25, 0 0 M0 60 C0 40.15, 0 20.29, 0 0" stroke="#1971c2" stroke-width="2" fill="none"></path></g><g transform="translate(460 331.875) rotate(0 90 8.125)"><text x="90" y="NaN" font-family="Cascadia, Segoe UI Emoji" font-size="13px" fill="#1971c2" text-anchor="middle" style="white-space: pre;" direction="ltr">Code Engineering (12)</text></g><g stroke-linecap="round" transform="translate(450 310) rotate(0 100 30)"><path d="M0 0 L200 0 L200 60 L0 60" stroke="none" stroke-width="0" fill="#a5d8ff"></path><path d="M0 0 C79.82 0, 159.65 0, 200 0 M0 0 C73.88 0, 147.75 0, 200 0 M200 0 C200 16.32, 200 32.64, 200 60 M200 0 C200 23.4, 200 46.81, 200 60 M200 60 C128.01 60, 56.02 60, 0 60 M200 60 C157.91 60, 115.83 60, 0 60 M0 60 C0 36.35, 0 12.7, 0 0 M0 60 C0 46.56, 0 33.11, 0 0" stroke="#1971c2" stroke-width="2" fill="none"></path></g><g transform="translate(680 331.875) rotate(0 90 8.125)"><text x="90" y="NaN" font-family="Cascadia, Segoe UI Emoji" font-size="13px" fill="#1971c2" text-anchor="middle" style="white-space: pre;" direction="ltr">Design/Creative (8)</text></g><g stroke-linecap="round" transform="translate(670 310) rotate(0 100 30)"><path d="M0 0 L200 0 L200 60 L0 60" stroke="none" stroke-width="0" fill="#a5d8ff"></path><path d="M0 0 C78.28 0, 156.55 0, 200 0 M0 0 C57.44 0, 114.88 0, 200 0 M200 0 C200 17.7, 200 35.4, 200 60 M200 0 C200 21.35, 200 42.7, 200 60 M200 60 C122.21 60, 44.43 60, 0 60 M200 60 C137.31 60, 74.61 60, 0 60 M0 60 C0 45.03, 0 30.06, 0 0 M0 60 C0 37.06, 0 14.11, 0 0" stroke="#1971c2" stroke-width="2" fill="none"></path></g><g transform="translate(900 331.875) rotate(0 90 8.125)"><text x="90" y="NaN" font-family="Cascadia, Segoe UI Emoji" font-size="13px" fill="#1971c2" text-anchor="middle" style="white-space: pre;" direction="ltr">Generative AI (5)</text></g><g stroke-linecap="round" transform="translate(890 310) rotate(0 100 30)"><path d="M0 0 L200 0 L200 60 L0 60" stroke="none" stroke-width="0" fill="#a5d8ff"></path><path d="M0 0 C49.94 0, 99.89 0, 200 0 M0 0 C53.86 0, 107.73 0, 200 0 M200 0 C200 16.79, 200 33.58, 200 60 M200 0 C200 18.86, 200 37.71, 200 60 M200 60 C154.39 60, 108.79 60, 0 60 M200 60 C137.12 60, 74.25 60, 0 60 M0 60 C0 47.53, 0 35.07, 0 0 M0 60 C0 46.49, 0 32.99, 0 0" stroke="#1971c2" stroke-width="2" fill="none"></path></g><g transform="translate(1120 331.875) rotate(0 90 8.125)"><text x="90" y="NaN" font-family="Cascadia, Segoe UI Emoji" font-size="13px" fill="#1971c2" text-anchor="middle" style="white-space: pre;" direction="ltr">Productivity (7)</text></g><g stroke-linecap="round" transform="translate(1110 310) rotate(0 100 30)"><path d="M0 0 L200 0 L200 60 L0 60" stroke="none" stroke-width="0" fill="#a5d8ff"></path><path d="M0 0 C43.67 0, 87.35 0, 200 0 M0 0 C60.79 0, 121.58 0, 200 0 M200 0 C200 22.07, 200 44.13, 200 60 M200 0 C200 20.13, 200 40.26, 200 60 M200 60 C131.73 60, 63.46 60, 0 60 M200 60 C137.82 60, 75.65 60, 0 60 M0 60 C0 41.75, 0 23.5, 0 0 M0 60 C0 38.44, 0 16.88, 0 0" stroke="#1971c2" stroke-width="2" fill="none"></path></g><g transform="translate(20 411.875) rotate(0 90 8.125)"><text x="90" y="NaN" font-family="Cascadia, Segoe UI Emoji" font-size="13px" fill="#1971c2" text-anchor="middle" style="white-space: pre;" direction="ltr">Specialized (8)</text></g><g stroke-linecap="round" transform="translate(10 390) rotate(0 100 30)"><path d="M0 0 L200 0 L200 60 L0 60" stroke="none" stroke-width="0" fill="#a5d8ff"></path><path d="M0 0 C75.43 0, 150.87 0, 200 0 M0 0 C53.5 0, 106.99 0, 200 0 M200 0 C200 13.93, 200 27.87, 200 60 M200 0 C200 23.86, 200 47.72, 200 60 M200 60 C126.13 60, 52.26 60, 0 60 M200 60 C127.42 60, 54.84 60, 0 60 M0 60 C0 41.5, 0 22.99, 0 0 M0 60 C0 46.66, 0 33.31, 0 0" stroke="#1971c2" stroke-width="2" fill="none"></path></g><g transform="translate(240 411.875) rotate(0 90 8.125)"><text x="90" y="NaN" font-family="Cascadia, Segoe UI Emoji" font-size="13px" fill="#1971c2" text-anchor="middle" style="white-space: pre;" direction="ltr">n8n (7)</text></g><g stroke-linecap="round" transform="translate(230 390) rotate(0 100 30)"><path d="M0 0 L200 0 L200 60 L0 60" stroke="none" stroke-width="0" fill="#a5d8ff"></path><path d="M0 0 C69.81 0, 139.61 0, 200 0 M0 0 C64.62 0, 129.24 0, 200 0 M200 0 C200 12.81, 200 25.63, 200 60 M200 0 C200 23.88, 200 47.76, 200 60 M200 60 C121.91 60, 43.82 60, 0 60 M200 60 C129.7 60, 59.39 60, 0 60 M0 60 C0 36.23, 0 12.45, 0 0 M0 60 C0 38.74, 0 17.48, 0 0" stroke="#1971c2" stroke-width="2" fill="none"></path></g><g transform="translate(460 411.875) rotate(0 90 8.125)"><text x="90" y="NaN" font-family="Cascadia, Segoe UI Emoji" font-size="13px" fill="#1971c2" text-anchor="middle" style="white-space: pre;" direction="ltr">Security (8)</text></g><g stroke-linecap="round" transform="translate(450 390) rotate(0 100 30)"><path d="M0 0 L200 0 L200 60 L0 60" stroke="none" stroke-width="0" fill="#a5d8ff"></path><path d="M0 0 C45.85 0, 91.7 0, 200 0 M0 0 C76.39 0, 152.77 0, 200 0 M200 0 C200 16.5, 200 33, 200 60 M200 0 C200 14.36, 200 28.73, 200 60 M200 60 C123.86 60, 47.72 60, 0 60 M200 60 C144.4 60, 88.79 60, 0 60 M0 60 C0 39.58, 0 19.15, 0 0 M0 60 C0 39.17, 0 18.33, 0 0" stroke="#1971c2" stroke-width="2" fill="none"></path></g><g transform="translate(680 411.875) rotate(0 90 8.125)"><text x="90" y="NaN" font-family="Cascadia, Segoe UI Emoji" font-size="13px" fill="#1971c2" text-anchor="middle" style="white-space: pre;" direction="ltr">HuggingFace (7)</text></g><g stroke-linecap="round" transform="translate(670 390) rotate(0 100 30)"><path d="M0 0 L200 0 L200 60 L0 60" stroke="none" stroke-width="0" fill="#a5d8ff"></path><path d="M0 0 C51.03 0, 102.06 0, 200 0 M0 0 C46.42 0, 92.84 0, 200 0 M200 0 C200 12.94, 200 25.89, 200 60 M200 0 C200 23.93, 200 47.86, 200 60 M200 60 C150.26 60, 100.51 60, 0 60 M200 60 C125.83 60, 51.67 60, 0 60 M0 60 C0 46.58, 0 33.16, 0 0 M0 60 C0 45.09, 0 30.18, 0 0" stroke="#1971c2" stroke-width="2" fill="none"></path></g><g transform="translate(900 411.875) rotate(0 90 8.125)"><text x="90" y="NaN" font-family="Cascadia, Segoe UI Emoji" font-size="13px" fill="#1971c2" text-anchor="middle" style="white-space: pre;" direction="ltr">Consultation (4)</text></g><g stroke-linecap="round" transform="translate(890 390) rotate(0 100 30)"><path d="M0 0 L200 0 L200 60 L0 60" stroke="none" stroke-width="0" fill="#a5d8ff"></path><path d="M0 0 C69.94 0, 139.89 0, 200 0 M0 0 C41.73 0, 83.45 0, 200 0 M200 0 C200 15.37, 200 30.74, 200 60 M200 0 C200 20.13, 200 40.26, 200 60 M200 60 C124.94 60, 49.89 60, 0 60 M200 60 C138.68 60, 77.36 60, 0 60 M0 60 C0 43.07, 0 26.14, 0 0 M0 60 C0 39.33, 0 18.66, 0 0" stroke="#1971c2" stroke-width="2" fill="none"></path></g><g transform="translate(1120 411.875) rotate(0 90 8.125)"><text x="90" y="NaN" font-family="Cascadia, Segoe UI Emoji" font-size="13px" fill="#1971c2" text-anchor="middle" style="white-space: pre;" direction="ltr">Meta (3)</text></g><g stroke-linecap="round" transform="translate(1110 390) rotate(0 100 30)"><path d="M0 0 L200 0 L200 60 L0 60" stroke="none" stroke-width="0" fill="#a5d8ff"></path><path d="M0 0 C74.21 0, 148.41 0, 200 0 M0 0 C51.99 0, 103.97 0, 200 0 M200 0 C200 16.65, 200 33.3, 200 60 M200 0 C200 21.1, 200 42.2, 200 60 M200 60 C150.36 60, 100.72 60, 0 60 M200 60 C126.5 60, 52.99 60, 0 60 M0 60 C0 41, 0 22, 0 0 M0 60 C0 41.92, 0 23.85, 0 0" stroke="#1971c2" stroke-width="2" fill="none"></path></g><g transform="translate(10 510) rotate(0 66 13.75)"><text x="0" y="NaN" font-family="Cascadia, Segoe UI Emoji" font-size="22px" fill="#343a40" text-anchor="start" style="white-space: pre;" direction="ltr">Event Flow</text></g><g transform="translate(20 591.25) rotate(0 90 8.75)"><text x="90" y="NaN" font-family="Cascadia, Segoe UI Emoji" font-size="14px" fill="#2f9e44" text-anchor="middle" style="white-space: pre;" direction="ltr">Trigger Events</text></g><g stroke-linecap="round" transform="translate(10 570) rotate(0 100 30)"><path d="M0 0 L200 0 L200 60 L0 60" stroke="none" stroke-width="0" fill="#b2f2bb"></path><path d="M0 0 C41.64 0, 83.28 0, 200 0 M0 0 C61.66 0, 123.32 0, 200 0 M200 0 C200 12.57, 200 25.14, 200 60 M200 0 C200 14.28, 200 28.55, 200 60 M200 60 C124.5 60, 48.99 60, 0 60 M200 60 C140.09 60, 80.18 60, 0 60 M0 60 C0 46.55, 0 33.09, 0 0 M0 60 C0 40.03, 0 20.06, 0 0" stroke="#2f9e44" stroke-width="2" fill="none"></path></g><g transform="translate(300 591.25) rotate(0 90 8.75)"><text x="90" y="NaN" font-family="Cascadia, Segoe UI Emoji" font-size="14px" fill="#7048e8" text-anchor="middle" style="white-space: pre;" direction="ltr">Hook Scripts</text></g><g stroke-linecap="round" transform="translate(290 570) rotate(0 100 30)"><path d="M0 0 L200 0 L200 60 L0 60" stroke="none" stroke-width="0" fill="#d0bfff"></path><path d="M0 0 C75.22 0, 150.45 0, 200 0 M0 0 C48.18 0, 96.36 0, 200 0 M200 0 C200 22.29, 200 44.57, 200 60 M200 0 C200 16.59, 200 33.17, 200 60 M200 60 C144.97 60, 89.94 60, 0 60 M200 60 C146.68 60, 93.36 60, 0 60 M0 60 C0 39.32, 0 18.63, 0 0 M0 60 C0 40.82, 0 21.64, 0 0" stroke="#7048e8" stroke-width="2" fill="none"></path></g><g transform="translate(617 575.625) rotate(0 63 24.375)"><text x="62.99999999999999" y="NaN" font-family="Cascadia, Segoe UI Emoji" font-size="13px" fill="#e8590c" text-anchor="middle" style="white-space: pre;" direction="ltr">Allow?</text><text x="62.99999999999999" y="NaN" font-family="Cascadia, Segoe UI Emoji" font-size="13px" fill="#e8590c" text-anchor="middle" style="white-space: pre;" direction="ltr">Block?</text><text x="62.99999999999999" y="NaN" font-family="Cascadia, Segoe UI Emoji" font-size="13px" fill="#e8590c" text-anchor="middle" style="white-space: pre;" direction="ltr">Modify?</text></g><g stroke-linecap="round" transform="translate(590 550) rotate(0 90 50)"><path d="M91 0 L180 51 L91 100 L0 51" stroke="none" stroke-width="0" fill="#ffd8a8" fill-rule="evenodd"></path><path d="M91 0 C121.08 17.24, 151.15 34.47, 180 51 M91 0 C124.1 18.97, 157.21 37.94, 180 51 M180 51 C148.8 68.18, 117.59 85.36, 91 100 M180 51 C157.37 63.46, 134.74 75.92, 91 100 M91 100 C66.8 86.97, 42.59 73.93, 0 51 M91 100 C56.53 81.44, 22.06 62.88, 0 51 M0 51 C22.46 38.41, 44.91 25.83, 91 0 M0 51 C30.01 34.18, 60.01 17.37, 91 0" stroke="#e8590c" stroke-width="2" fill="none"></path></g><g transform="translate(880 591.25) rotate(0 90 8.75)"><text x="90" y="NaN" font-family="Cascadia, Segoe UI Emoji" font-size="14px" fill="#2f9e44" text-anchor="middle" style="white-space: pre;" direction="ltr">Actions</text></g><g stroke-linecap="round" transform="translate(870 570) rotate(0 100 30)"><path d="M0 0 L200 0 L200 60 L0 60" stroke="none" stroke-width="0" fill="#b2f2bb"></path><path d="M0 0 C66.71 0, 133.42 0, 200 0 M0 0 C70.69 0, 141.39 0, 200 0 M200 0 C200 16.74, 200 33.47, 200 60 M200 0 C200 19.48, 200 38.96, 200 60 M200 60 C158.8 60, 117.59 60, 0 60 M200 60 C129.04 60, 58.08 60, 0 60 M0 60 C0 39.75, 0 19.49, 0 0 M0 60 C0 46.77, 0 33.53, 0 0" stroke="#2f9e44" stroke-width="2" fill="none"></path></g><g stroke-linecap="round"><g transform="translate(210 600) rotate(0 40 0)"><path d="M0 0 C13.33 0, 66.67 0, 80 0 M0 0 C13.33 0, 66.67 0, 80 0" stroke="#868e96" stroke-width="2" fill="none"></path></g><g transform="translate(210 600) rotate(0 40 0)"><path d="M51.81 10.26 C59.53 7.45, 67.25 4.64, 80 0 M51.81 10.26 C62.03 6.54, 72.25 2.82, 80 0" stroke="#868e96" stroke-width="2" fill="none"></path></g><g transform="translate(210 600) rotate(0 40 0)"><path d="M51.81 -10.26 C59.53 -7.45, 67.25 -4.64, 80 0 M51.81 -10.26 C62.03 -6.54, 72.25 -2.82, 80 0" stroke="#868e96" stroke-width="2" fill="none"></path></g></g><g stroke-linecap="round"><g transform="translate(490 600) rotate(0 50 0)"><path d="M0 0 C16.67 0, 83.33 0, 100 0 M0 0 C16.67 0, 83.33 0, 100 0" stroke="#868e96" stroke-width="2" fill="none"></path></g><g transform="translate(490 600) rotate(0 50 0)"><path d="M71.81 10.26 C79.8 7.35, 87.8 4.44, 100 0 M71.81 10.26 C82.54 6.36, 93.26 2.45, 100 0" stroke="#868e96" stroke-width="2" fill="none"></path></g><g transform="translate(490 600) rotate(0 50 0)"><path d="M71.81 -10.26 C79.8 -7.35, 87.8 -4.44, 100 0 M71.81 -10.26 C82.54 -6.36, 93.26 -2.45, 100 0" stroke="#868e96" stroke-width="2" fill="none"></path></g></g><g stroke-linecap="round"><g transform="translate(770 600) rotate(0 50 0)"><path d="M0 0 C16.67 0, 83.33 0, 100 0 M0 0 C16.67 0, 83.33 0, 100 0" stroke="#868e96" stroke-width="2" fill="none"></path></g><g transform="translate(770 600) rotate(0 50 0)"><path d="M71.81 10.26 C80.88 6.96, 89.95 3.66, 100 0 M71.81 10.26 C79.03 7.63, 86.25 5.01, 100 0" stroke="#868e96" stroke-width="2" fill="none"></path></g><g transform="translate(770 600) rotate(0 50 0)"><path d="M71.81 -10.26 C80.88 -6.96, 89.95 -3.66, 100 0 M71.81 -10.26 C79.03 -7.63, 86.25 -5.01, 100 0" stroke="#868e96" stroke-width="2" fill="none"></path></g></g></svg>