<svg version="1.1" xmlns="http://www.w3.org/2000/svg" viewBox="0 0 880 570" width="880" height="570">
  <!-- svg-source:excalidraw -->
  
  <defs>
    <style>
      @font-face {
        font-family: "Virgil";
        src: url("https://excalidraw.com/Virgil.woff2");
      }
      @font-face {
        font-family: "Cascadia";
        src: url("https://excalidraw.com/Cascadia.woff2");
      }
    </style>
  </defs>
  <rect x="0" y="0" width="880" height="570" fill="#ffffff"></rect><g transform="translate(10 10) rotate(0 159.6 17.5)"><text x="0" y="NaN" font-family="Cascadia, Segoe UI Emoji" font-size="28px" fill="#343a40" text-anchor="start" style="white-space: pre;" direction="ltr">Memory Architecture</text></g><g transform="translate(10 50) rotate(0 134.4 8.75)"><text x="0" y="NaN" font-family="Cascadia, Segoe UI Emoji" font-size="14px" fill="#868e96" text-anchor="start" style="white-space: pre;" direction="ltr">4-layer persistent memory system</text></g><g transform="translate(100 147.5) rotate(0 240 17.5)"><text x="240" y="NaN" font-family="Cascadia, Segoe UI Emoji" font-size="14px" fill="#1971c2" text-anchor="middle" style="white-space: pre;" direction="ltr">Layer 1: CLAUDE.md</text><text x="240" y="NaN" font-family="Cascadia, Segoe UI Emoji" font-size="14px" fill="#1971c2" text-anchor="middle" style="white-space: pre;" direction="ltr">(project-level, always loaded)</text></g><g stroke-linecap="round" transform="translate(90 130) rotate(0 250 35)"><path d="M0 0 L500 0 L500 70 L0 70" stroke="none" stroke-width="0" fill="#a5d8ff"></path><path d="M0 0 C192.06 0, 384.13 0, 500 0 M0 0 C171.24 0, 342.47 0, 500 0 M500 0 C500 24.91, 500 49.83, 500 70 M500 0 C500 18.38, 500 36.77, 500 70 M500 70 C339.75 70, 179.5 70, 0 70 M500 70 C393.78 70, 287.56 70, 0 70 M0 70 C0 43.5, 0 17.01, 0 0 M0 70 C0 43.79, 0 17.58, 0 0" stroke="#1971c2" stroke-width="2" fill="none"></path></g><g transform="translate(100 267.5) rotate(0 240 17.5)"><text x="240" y="NaN" font-family="Cascadia, Segoe UI Emoji" font-size="14px" fill="#2f9e44" text-anchor="middle" style="white-space: pre;" direction="ltr">Layer 2: Auto Memory</text><text x="240" y="NaN" font-family="Cascadia, Segoe UI Emoji" font-size="14px" fill="#2f9e44" text-anchor="middle" style="white-space: pre;" direction="ltr">(.claude/memory/)</text></g><g stroke-linecap="round" transform="translate(90 250) rotate(0 250 35)"><path d="M0 0 L500 0 L500 70 L0 70" stroke="none" stroke-width="0" fill="#b2f2bb"></path><path d="M0 0 C151.52 0, 303.05 0, 500 0 M0 0 C181.1 0, 362.2 0, 500 0 M500 0 C500 18, 500 36, 500 70 M500 0 C500 22.54, 500 45.09, 500 70 M500 70 C355.22 70, 210.45 70, 0 70 M500 70 C315.91 70, 131.81 70, 0 70 M0 70 C0 47.54, 0 25.07, 0 0 M0 70 C0 48.93, 0 27.86, 0 0" stroke="#2f9e44" stroke-width="2" fill="none"></path></g><g transform="translate(100 387.5) rotate(0 240 17.5)"><text x="240" y="NaN" font-family="Cascadia, Segoe UI Emoji" font-size="14px" fill="#7048e8" text-anchor="middle" style="white-space: pre;" direction="ltr">Layer 3: Serena Memories</text><text x="240" y="NaN" font-family="Cascadia, Segoe UI Emoji" font-size="14px" fill="#7048e8" text-anchor="middle" style="white-space: pre;" direction="ltr">(.serena/memories/)</text></g><g stroke-linecap="round" transform="translate(90 370) rotate(0 250 35)"><path d="M0 0 L500 0 L500 70 L0 70" stroke="none" stroke-width="0" fill="#d0bfff"></path><path d="M0 0 C180.25 0, 360.5 0, 500 0 M0 0 C184.62 0, 369.23 0, 500 0 M500 0 C500 20.51, 500 41.01, 500 70 M500 0 C500 24.94, 500 49.89, 500 70 M500 70 C347.42 70, 194.84 70, 0 70 M500 70 C383.52 70, 267.03 70, 0 70 M0 70 C0 54.48, 0 38.96, 0 0 M0 70 C0 55.58, 0 41.16, 0 0" stroke="#7048e8" stroke-width="2" fill="none"></path></g><g transform="translate(100 507.5) rotate(0 240 17.5)"><text x="240" y="NaN" font-family="Cascadia, Segoe UI Emoji" font-size="14px" fill="#0c8599" text-anchor="middle" style="white-space: pre;" direction="ltr">Layer 4: ChromaDB</text><text x="240" y="NaN" font-family="Cascadia, Segoe UI Emoji" font-size="14px" fill="#0c8599" text-anchor="middle" style="white-space: pre;" direction="ltr">(semantic vector store)</text></g><g stroke-linecap="round" transform="translate(90 490) rotate(0 250 35)"><path d="M0 0 L500 0 L500 70 L0 70" stroke="none" stroke-width="0" fill="#99e9f2"></path><path d="M0 0 C103.71 0, 207.43 0, 500 0 M0 0 C145.44 0, 290.88 0, 500 0 M500 0 C500 27.72, 500 55.45, 500 70 M500 0 C500 25.45, 500 50.9, 500 70 M500 70 C342.77 70, 185.53 70, 0 70 M500 70 C340.41 70, 180.82 70, 0 70 M0 70 C0 44.36, 0 18.73, 0 0 M0 70 C0 52.99, 0 35.99, 0 0" stroke="#0c8599" stroke-width="2" fill="none"></path></g><g transform="translate(305 215) rotate(0 35 10)"><text x="35" y="NaN" font-family="Cascadia, Segoe UI Emoji" font-size="12px" fill="#1971c2" text-anchor="middle" style="white-space: pre;" direction="ltr">persistent</text></g><g stroke-linecap="round"><g transform="translate(340 200) rotate(0 0 25)"><path d="M0 0 C0 8.33, 0 41.67, 0 50 M0 0 C0 8.33, 0 41.67, 0 50" stroke="#1971c2" stroke-width="2" fill="none"></path></g><g transform="translate(340 200) rotate(0 0 25)"><path d="M-8.55 26.51 C-5.62 34.56, -2.69 42.62, 0 50 M-8.55 26.51 C-5.37 35.26, -2.18 44.01, 0 50" stroke="#1971c2" stroke-width="2" fill="none"></path></g><g transform="translate(340 200) rotate(0 0 25)"><path d="M8.55 26.51 C5.62 34.56, 2.69 42.62, 0 50 M8.55 26.51 C5.37 35.26, 2.18 44.01, 0 50" stroke="#1971c2" stroke-width="2" fill="none"></path></g></g><g transform="translate(305 335) rotate(0 35 10)"><text x="35" y="NaN" font-family="Cascadia, Segoe UI Emoji" font-size="12px" fill="#2f9e44" text-anchor="middle" style="white-space: pre;" direction="ltr">persistent</text></g><g stroke-linecap="round"><g transform="translate(340 320) rotate(0 0 25)"><path d="M0 0 C0 8.33, 0 41.67, 0 50 M0 0 C0 8.33, 0 41.67, 0 50" stroke="#2f9e44" stroke-width="2" fill="none"></path></g><g transform="translate(340 320) rotate(0 0 25)"><path d="M-8.55 26.51 C-5.84 33.97, -3.12 41.42, 0 50 M-8.55 26.51 C-5.67 34.41, -2.8 42.31, 0 50" stroke="#2f9e44" stroke-width="2" fill="none"></path></g><g transform="translate(340 320) rotate(0 0 25)"><path d="M8.55 26.51 C5.84 33.97, 3.12 41.42, 0 50 M8.55 26.51 C5.67 34.41, 2.8 42.31, 0 50" stroke="#2f9e44" stroke-width="2" fill="none"></path></g></g><g transform="translate(305 455) rotate(0 35 10)"><text x="35" y="NaN" font-family="Cascadia, Segoe UI Emoji" font-size="12px" fill="#7048e8" text-anchor="middle" style="white-space: pre;" direction="ltr">persistent</text></g><g stroke-linecap="round"><g transform="translate(340 440) rotate(0 0 25)"><path d="M0 0 C0 8.33, 0 41.67, 0 50 M0 0 C0 8.33, 0 41.67, 0 50" stroke="#7048e8" stroke-width="2" fill="none"></path></g><g transform="translate(340 440) rotate(0 0 25)"><path d="M-8.55 26.51 C-5.51 34.85, -2.48 43.2, 0 50 M-8.55 26.51 C-5.37 35.25, -2.19 43.99, 0 50" stroke="#7048e8" stroke-width="2" fill="none"></path></g><g transform="translate(340 440) rotate(0 0 25)"><path d="M8.55 26.51 C5.51 34.85, 2.48 43.2, 0 50 M8.55 26.51 C5.37 35.25, 2.19 43.99, 0 50" stroke="#7048e8" stroke-width="2" fill="none"></path></g></g><g transform="translate(700 262.5) rotate(0 80 17.5)"><text x="80" y="NaN" font-family="Cascadia, Segoe UI Emoji" font-size="14px" fill="#e8590c" text-anchor="middle" style="white-space: pre;" direction="ltr">Session</text><text x="80" y="NaN" font-family="Cascadia, Segoe UI Emoji" font-size="14px" fill="#e8590c" text-anchor="middle" style="white-space: pre;" direction="ltr">Context</text></g><g stroke-linecap="round" transform="translate(690 250) rotate(0 90 30)"><path d="M0 0 L180 0 L180 60 L0 60" stroke="none" stroke-width="0" fill="#ffd8a8"></path><path d="M0 0 C36.09 0, 72.17 0, 180 0 M0 0 C61.3 0, 122.61 0, 180 0 M180 0 C180 15.79, 180 31.58, 180 60 M180 0 C180 20.56, 180 41.13, 180 60 M180 60 C128.35 60, 76.69 60, 0 60 M180 60 C127.27 60, 74.54 60, 0 60 M0 60 C0 43.08, 0 26.16, 0 0 M0 60 C0 43.59, 0 27.18, 0 0" stroke="#e8590c" stroke-width="2" fill="none"></path></g><g transform="translate(610 212.5) rotate(0 30 10)"><text x="30" y="NaN" font-family="Cascadia, Segoe UI Emoji" font-size="12px" fill="#e8590c" text-anchor="middle" style="white-space: pre;" direction="ltr">feeds</text></g><g stroke-linecap="round"><g transform="translate(690 280) rotate(0 -50 -57.5)"><path d="M0 0 C-16.67 -19.17, -83.33 -95.83, -100 -115" stroke="#e8590c" stroke-width="1.5" fill="none" stroke-dasharray="8 9"></path></g><g transform="translate(690 280) rotate(0 -50 -57.5)"><path d="M-73.76 -100.46 C-82.9 -105.53, -92.05 -110.59, -100 -115" stroke="#e8590c" stroke-width="1.5" fill="none"></path></g><g transform="translate(690 280) rotate(0 -50 -57.5)"><path d="M-89.24 -86.99 C-92.99 -96.75, -96.74 -106.51, -100 -115" stroke="#e8590c" stroke-width="1.5" fill="none"></path></g></g><g stroke-linecap="round"><g transform="translate(690 280) rotate(0 -50 2.5)"><path d="M0 0 C-16.67 0.83, -83.33 4.17, -100 5" stroke="#e8590c" stroke-width="1.5" fill="none" stroke-dasharray="8 9"></path></g><g transform="translate(690 280) rotate(0 -50 2.5)"><path d="M-72.36 -6.66 C-79.37 -3.7, -86.39 -0.74, -100 5" stroke="#e8590c" stroke-width="1.5" fill="none"></path></g><g transform="translate(690 280) rotate(0 -50 2.5)"><path d="M-71.33 13.84 C-78.61 11.6, -85.89 9.35, -100 5" stroke="#e8590c" stroke-width="1.5" fill="none"></path></g></g><g stroke-linecap="round"><g transform="translate(690 280) rotate(0 -50 62.5)"><path d="M0 0 C-16.67 20.83, -83.33 104.17, -100 125" stroke="#e8590c" stroke-width="1.5" fill="none" stroke-dasharray="8 9"></path></g><g transform="translate(690 280) rotate(0 -50 62.5)"><path d="M-90.4 96.58 C-93.26 105.04, -96.12 113.5, -100 125" stroke="#e8590c" stroke-width="1.5" fill="none"></path></g><g transform="translate(690 280) rotate(0 -50 62.5)"><path d="M-74.38 109.4 C-82.01 114.04, -89.64 118.69, -100 125" stroke="#e8590c" stroke-width="1.5" fill="none"></path></g></g><g stroke-linecap="round"><g transform="translate(690 280) rotate(0 -50 122.5)"><path d="M0 0 C-16.67 40.83, -83.33 204.17, -100 245" stroke="#e8590c" stroke-width="1.5" fill="none" stroke-dasharray="8 9"></path></g><g transform="translate(690 280) rotate(0 -50 122.5)"><path d="M-98.85 215.02 C-99.13 222.3, -99.41 229.57, -100 245" stroke="#e8590c" stroke-width="1.5" fill="none"></path></g><g transform="translate(690 280) rotate(0 -50 122.5)"><path d="M-79.85 222.78 C-84.74 228.17, -89.63 233.56, -100 245" stroke="#e8590c" stroke-width="1.5" fill="none"></path></g></g></svg>