<svg version="1.1" xmlns="http://www.w3.org/2000/svg" viewBox="0 0 1120 480" width="1120" height="480">
  <!-- svg-source:excalidraw -->
  
  <defs>
    <style>
      @font-face {
        font-family: "Virgil";
        src: url("https://excalidraw.com/Virgil.woff2");
      }
      @font-face {
        font-family: "Cascadia";
        src: url("https://excalidraw.com/Cascadia.woff2");
      }
    </style>
  </defs>
  <rect x="0" y="0" width="1120" height="480" fill="#ffffff"></rect><g transform="translate(30 10) rotate(0 210 17.5)"><text x="0" y="NaN" font-family="Cascadia, Segoe UI Emoji" font-size="28px" fill="#343a40" text-anchor="start" style="white-space: pre;" direction="ltr">n8n Workflow Architecture</text></g><g transform="translate(30 50) rotate(0 86.39999999999999 10)"><text x="0" y="NaN" font-family="Cascadia, Segoe UI Emoji" font-size="16px" fill="#868e96" text-anchor="start" style="white-space: pre;" direction="ltr">3 Active Workflows</text></g><g stroke-linecap="round" transform="translate(10 90) rotate(0 550 50)"><path d="M0 0 C377.01 0, 754.02 0, 1100 0 M0 0 C431.1 0, 862.2 0, 1100 0 M1100 0 C1100 26.51, 1100 53.02, 1100 100 M1100 0 C1100 32.89, 1100 65.77, 1100 100 M1100 100 C690.64 100, 281.28 100, 0 100 M1100 100 C688.68 100, 277.35 100, 0 100 M0 100 C0 79.87, 0 59.74, 0 0 M0 100 C0 65.02, 0 30.03, 0 0" stroke="#868e96" stroke-width="1" fill="none"></path></g><g transform="translate(30 90) rotate(0 76.8 10)"><text x="0" y="NaN" font-family="Cascadia, Segoe UI Emoji" font-size="16px" fill="#0c8599" text-anchor="start" style="white-space: pre;" direction="ltr">RSS Ingestion v2</text></g><g transform="translate(40 125) rotate(0 60 15)"><text x="60" y="NaN" font-family="Cascadia, Segoe UI Emoji" font-size="12px" fill="#0c8599" text-anchor="middle" style="white-space: pre;" direction="ltr">Trigger</text><text x="60" y="NaN" font-family="Cascadia, Segoe UI Emoji" font-size="12px" fill="#0c8599" text-anchor="middle" style="white-space: pre;" direction="ltr">(2hr)</text></g><g stroke-linecap="round" transform="translate(30 110) rotate(0 70 30)"><path d="M0 0 L140 0 L140 60 L0 60" stroke="none" stroke-width="0" fill="#99e9f2"></path><path d="M0 0 C42.77 0, 85.54 0, 140 0 M0 0 C50.4 0, 100.79 0, 140 0 M140 0 C140 14.48, 140 28.96, 140 60 M140 0 C140 17.32, 140 34.65, 140 60 M140 60 C91.34 60, 42.67 60, 0 60 M140 60 C96.71 60, 53.43 60, 0 60 M0 60 C0 46.74, 0 33.47, 0 0 M0 60 C0 36.3, 0 12.61, 0 0" stroke="#0c8599" stroke-width="2" fill="none"></path></g><g transform="translate(240 125) rotate(0 60 15)"><text x="60" y="NaN" font-family="Cascadia, Segoe UI Emoji" font-size="12px" fill="#0c8599" text-anchor="middle" style="white-space: pre;" direction="ltr">Fetch</text><text x="60" y="NaN" font-family="Cascadia, Segoe UI Emoji" font-size="12px" fill="#0c8599" text-anchor="middle" style="white-space: pre;" direction="ltr">19 feeds</text></g><g stroke-linecap="round" transform="translate(230 110) rotate(0 70 30)"><path d="M0 0 L140 0 L140 60 L0 60" stroke="none" stroke-width="0" fill="#99e9f2"></path><path d="M0 0 C51.22 0, 102.44 0, 140 0 M0 0 C42.71 0, 85.41 0, 140 0 M140 0 C140 23.38, 140 46.76, 140 60 M140 0 C140 22.46, 140 44.91, 140 60 M140 60 C86.1 60, 32.2 60, 0 60 M140 60 C95.71 60, 51.42 60, 0 60 M0 60 C0 37.62, 0 15.23, 0 0 M0 60 C0 39.74, 0 19.47, 0 0" stroke="#0c8599" stroke-width="2" fill="none"></path></g><g stroke-linecap="round"><g transform="translate(170 140) rotate(0 30 0)"><path d="M0 0 C10 0, 50 0, 60 0 M0 0 C10 0, 50 0, 60 0" stroke="#868e96" stroke-width="2" fill="none"></path></g><g transform="translate(170 140) rotate(0 30 0)"><path d="M31.81 10.26 C42.62 6.32, 53.44 2.39, 60 0 M31.81 10.26 C38.4 7.86, 44.99 5.46, 60 0" stroke="#868e96" stroke-width="2" fill="none"></path></g><g transform="translate(170 140) rotate(0 30 0)"><path d="M31.81 -10.26 C42.62 -6.32, 53.44 -2.39, 60 0 M31.81 -10.26 C38.4 -7.86, 44.99 -5.46, 60 0" stroke="#868e96" stroke-width="2" fill="none"></path></g></g><g transform="translate(440 132.5) rotate(0 60 7.5)"><text x="60" y="NaN" font-family="Cascadia, Segoe UI Emoji" font-size="12px" fill="#1971c2" text-anchor="middle" style="white-space: pre;" direction="ltr">Dedup</text></g><g stroke-linecap="round" transform="translate(430 110) rotate(0 70 30)"><path d="M0 0 L140 0 L140 60 L0 60" stroke="none" stroke-width="0" fill="#a5d8ff"></path><path d="M0 0 C37.87 0, 75.74 0, 140 0 M0 0 C47.81 0, 95.62 0, 140 0 M140 0 C140 18.39, 140 36.77, 140 60 M140 0 C140 16.42, 140 32.83, 140 60 M140 60 C106.75 60, 73.49 60, 0 60 M140 60 C87.28 60, 34.57 60, 0 60 M0 60 C0 44.76, 0 29.52, 0 0 M0 60 C0 47.74, 0 35.48, 0 0" stroke="#1971c2" stroke-width="2" fill="none"></path></g><g stroke-linecap="round"><g transform="translate(370 140) rotate(0 30 0)"><path d="M0 0 C10 0, 50 0, 60 0 M0 0 C10 0, 50 0, 60 0" stroke="#868e96" stroke-width="2" fill="none"></path></g><g transform="translate(370 140) rotate(0 30 0)"><path d="M31.81 10.26 C41.64 6.68, 51.47 3.1, 60 0 M31.81 10.26 C42.88 6.23, 53.95 2.2, 60 0" stroke="#868e96" stroke-width="2" fill="none"></path></g><g transform="translate(370 140) rotate(0 30 0)"><path d="M31.81 -10.26 C41.64 -6.68, 51.47 -3.1, 60 0 M31.81 -10.26 C42.88 -6.23, 53.95 -2.2, 60 0" stroke="#868e96" stroke-width="2" fill="none"></path></g></g><g transform="translate(640 132.5) rotate(0 60 7.5)"><text x="60" y="NaN" font-family="Cascadia, Segoe UI Emoji" font-size="12px" fill="#1971c2" text-anchor="middle" style="white-space: pre;" direction="ltr">AI Analysis</text></g><g stroke-linecap="round" transform="translate(630 110) rotate(0 70 30)"><path d="M0 0 L140 0 L140 60 L0 60" stroke="none" stroke-width="0" fill="#a5d8ff"></path><path d="M0 0 C31.19 0, 62.39 0, 140 0 M0 0 C51.73 0, 103.45 0, 140 0 M140 0 C140 15.66, 140 31.32, 140 60 M140 0 C140 22.72, 140 45.43, 140 60 M140 60 C92.82 60, 45.64 60, 0 60 M140 60 C98.48 60, 56.96 60, 0 60 M0 60 C0 45.18, 0 30.37, 0 0 M0 60 C0 43.05, 0 26.1, 0 0" stroke="#1971c2" stroke-width="2" fill="none"></path></g><g stroke-linecap="round"><g transform="translate(570 140) rotate(0 30 0)"><path d="M0 0 C10 0, 50 0, 60 0 M0 0 C10 0, 50 0, 60 0" stroke="#868e96" stroke-width="2" fill="none"></path></g><g transform="translate(570 140) rotate(0 30 0)"><path d="M31.81 10.26 C42.02 6.55, 52.22 2.83, 60 0 M31.81 10.26 C41.05 6.9, 50.29 3.53, 60 0" stroke="#868e96" stroke-width="2" fill="none"></path></g><g transform="translate(570 140) rotate(0 30 0)"><path d="M31.81 -10.26 C42.02 -6.55, 52.22 -2.83, 60 0 M31.81 -10.26 C41.05 -6.9, 50.29 -3.53, 60 0" stroke="#868e96" stroke-width="2" fill="none"></path></g></g><g transform="translate(840 132.5) rotate(0 60 7.5)"><text x="60" y="NaN" font-family="Cascadia, Segoe UI Emoji" font-size="12px" fill="#2f9e44" text-anchor="middle" style="white-space: pre;" direction="ltr">Store</text></g><g stroke-linecap="round" transform="translate(830 110) rotate(0 70 30)"><path d="M0 0 L140 0 L140 60 L0 60" stroke="none" stroke-width="0" fill="#b2f2bb"></path><path d="M0 0 C48.92 0, 97.84 0, 140 0 M0 0 C39.51 0, 79.02 0, 140 0 M140 0 C140 22.16, 140 44.32, 140 60 M140 0 C140 18.62, 140 37.23, 140 60 M140 60 C99.68 60, 59.37 60, 0 60 M140 60 C84.97 60, 29.95 60, 0 60 M0 60 C0 38.02, 0 16.04, 0 0 M0 60 C0 39.82, 0 19.64, 0 0" stroke="#2f9e44" stroke-width="2" fill="none"></path></g><g stroke-linecap="round"><g transform="translate(770 140) rotate(0 30 0)"><path d="M0 0 C10 0, 50 0, 60 0 M0 0 C10 0, 50 0, 60 0" stroke="#868e96" stroke-width="2" fill="none"></path></g><g transform="translate(770 140) rotate(0 30 0)"><path d="M31.81 10.26 C41.84 6.61, 51.86 2.96, 60 0 M31.81 10.26 C37.86 8.06, 43.9 5.86, 60 0" stroke="#868e96" stroke-width="2" fill="none"></path></g><g transform="translate(770 140) rotate(0 30 0)"><path d="M31.81 -10.26 C41.84 -6.61, 51.86 -2.96, 60 0 M31.81 -10.26 C37.86 -8.06, 43.9 -5.86, 60 0" stroke="#868e96" stroke-width="2" fill="none"></path></g></g><g stroke-linecap="round" transform="translate(10 230) rotate(0 550 50)"><path d="M0 0 C419.06 0, 838.13 0, 1100 0 M0 0 C310.43 0, 620.86 0, 1100 0 M1100 0 C1100 34.37, 1100 68.74, 1100 100 M1100 0 C1100 30.83, 1100 61.65, 1100 100 M1100 100 C838.06 100, 576.13 100, 0 100 M1100 100 C704.69 100, 309.38 100, 0 100 M0 100 C0 76.07, 0 52.15, 0 0 M0 100 C0 71.96, 0 43.92, 0 0" stroke="#868e96" stroke-width="1" fill="none"></path></g><g transform="translate(30 230) rotate(0 96 10)"><text x="0" y="NaN" font-family="Cascadia, Segoe UI Emoji" font-size="16px" fill="#1971c2" text-anchor="start" style="white-space: pre;" direction="ltr">RSS Digest Generator</text></g><g transform="translate(40 285) rotate(0 60 15)"><text x="60" y="NaN" font-family="Cascadia, Segoe UI Emoji" font-size="12px" fill="#1971c2" text-anchor="middle" style="white-space: pre;" direction="ltr">Schedule</text><text x="60" y="NaN" font-family="Cascadia, Segoe UI Emoji" font-size="12px" fill="#1971c2" text-anchor="middle" style="white-space: pre;" direction="ltr">6am/2pm/10pm</text></g><g stroke-linecap="round" transform="translate(30 270) rotate(0 70 30)"><path d="M0 0 L140 0 L140 60 L0 60" stroke="none" stroke-width="0" fill="#a5d8ff"></path><path d="M0 0 C51.38 0, 102.75 0, 140 0 M0 0 C29.78 0, 59.57 0, 140 0 M140 0 C140 16.31, 140 32.62, 140 60 M140 0 C140 20.19, 140 40.39, 140 60 M140 60 C99.14 60, 58.28 60, 0 60 M140 60 C106.02 60, 72.04 60, 0 60 M0 60 C0 37.12, 0 14.25, 0 0 M0 60 C0 41.96, 0 23.93, 0 0" stroke="#1971c2" stroke-width="2" fill="none"></path></g><g transform="translate(240 285) rotate(0 60 15)"><text x="60" y="NaN" font-family="Cascadia, Segoe UI Emoji" font-size="12px" fill="#1971c2" text-anchor="middle" style="white-space: pre;" direction="ltr">Collect</text><text x="60" y="NaN" font-family="Cascadia, Segoe UI Emoji" font-size="12px" fill="#1971c2" text-anchor="middle" style="white-space: pre;" direction="ltr">Articles</text></g><g stroke-linecap="round" transform="translate(230 270) rotate(0 70 30)"><path d="M0 0 L140 0 L140 60 L0 60" stroke="none" stroke-width="0" fill="#a5d8ff"></path><path d="M0 0 C55.56 0, 111.12 0, 140 0 M0 0 C37.64 0, 75.28 0, 140 0 M140 0 C140 23.58, 140 47.15, 140 60 M140 0 C140 17.43, 140 34.86, 140 60 M140 60 C96.86 60, 53.72 60, 0 60 M140 60 C107.4 60, 74.79 60, 0 60 M0 60 C0 36.73, 0 13.47, 0 0 M0 60 C0 38.34, 0 16.68, 0 0" stroke="#1971c2" stroke-width="2" fill="none"></path></g><g stroke-linecap="round"><g transform="translate(170 300) rotate(0 30 0)"><path d="M0 0 C10 0, 50 0, 60 0 M0 0 C10 0, 50 0, 60 0" stroke="#868e96" stroke-width="2" fill="none"></path></g><g transform="translate(170 300) rotate(0 30 0)"><path d="M31.81 10.26 C39.62 7.42, 47.43 4.58, 60 0 M31.81 10.26 C41.19 6.85, 50.57 3.43, 60 0" stroke="#868e96" stroke-width="2" fill="none"></path></g><g transform="translate(170 300) rotate(0 30 0)"><path d="M31.81 -10.26 C39.62 -7.42, 47.43 -4.58, 60 0 M31.81 -10.26 C41.19 -6.85, 50.57 -3.43, 60 0" stroke="#868e96" stroke-width="2" fill="none"></path></g></g><g transform="translate(440 285) rotate(0 60 15)"><text x="60" y="NaN" font-family="Cascadia, Segoe UI Emoji" font-size="12px" fill="#1971c2" text-anchor="middle" style="white-space: pre;" direction="ltr">Summarize</text><text x="60" y="NaN" font-family="Cascadia, Segoe UI Emoji" font-size="12px" fill="#1971c2" text-anchor="middle" style="white-space: pre;" direction="ltr">(Gemini)</text></g><g stroke-linecap="round" transform="translate(430 270) rotate(0 70 30)"><path d="M0 0 L140 0 L140 60 L0 60" stroke="none" stroke-width="0" fill="#a5d8ff"></path><path d="M0 0 C55.55 0, 111.11 0, 140 0 M0 0 C41.52 0, 83.04 0, 140 0 M140 0 C140 13.82, 140 27.63, 140 60 M140 0 C140 16.14, 140 32.27, 140 60 M140 60 C95.17 60, 50.33 60, 0 60 M140 60 C107.37 60, 74.74 60, 0 60 M0 60 C0 37.76, 0 15.53, 0 0 M0 60 C0 43.05, 0 26.1, 0 0" stroke="#1971c2" stroke-width="2" fill="none"></path></g><g stroke-linecap="round"><g transform="translate(370 300) rotate(0 30 0)"><path d="M0 0 C10 0, 50 0, 60 0 M0 0 C10 0, 50 0, 60 0" stroke="#868e96" stroke-width="2" fill="none"></path></g><g transform="translate(370 300) rotate(0 30 0)"><path d="M31.81 10.26 C37.59 8.16, 43.37 6.05, 60 0 M31.81 10.26 C38.36 7.88, 44.92 5.49, 60 0" stroke="#868e96" stroke-width="2" fill="none"></path></g><g transform="translate(370 300) rotate(0 30 0)"><path d="M31.81 -10.26 C37.59 -8.16, 43.37 -6.05, 60 0 M31.81 -10.26 C38.36 -7.88, 44.92 -5.49, 60 0" stroke="#868e96" stroke-width="2" fill="none"></path></g></g><g transform="translate(640 285) rotate(0 60 15)"><text x="60" y="NaN" font-family="Cascadia, Segoe UI Emoji" font-size="12px" fill="#2f9e44" text-anchor="middle" style="white-space: pre;" direction="ltr">Email</text><text x="60" y="NaN" font-family="Cascadia, Segoe UI Emoji" font-size="12px" fill="#2f9e44" text-anchor="middle" style="white-space: pre;" direction="ltr">to David</text></g><g stroke-linecap="round" transform="translate(630 270) rotate(0 70 30)"><path d="M0 0 L140 0 L140 60 L0 60" stroke="none" stroke-width="0" fill="#b2f2bb"></path><path d="M0 0 C50.27 0, 100.54 0, 140 0 M0 0 C29.15 0, 58.29 0, 140 0 M140 0 C140 17.37, 140 34.74, 140 60 M140 0 C140 15.36, 140 30.72, 140 60 M140 60 C91.78 60, 43.55 60, 0 60 M140 60 C102.94 60, 65.87 60, 0 60 M0 60 C0 36.22, 0 12.44, 0 0 M0 60 C0 43.35, 0 26.69, 0 0" stroke="#2f9e44" stroke-width="2" fill="none"></path></g><g stroke-linecap="round"><g transform="translate(570 300) rotate(0 30 0)"><path d="M0 0 C10 0, 50 0, 60 0 M0 0 C10 0, 50 0, 60 0" stroke="#868e96" stroke-width="2" fill="none"></path></g><g transform="translate(570 300) rotate(0 30 0)"><path d="M31.81 10.26 C41.3 6.81, 50.79 3.35, 60 0 M31.81 10.26 C40.39 7.14, 48.97 4.02, 60 0" stroke="#868e96" stroke-width="2" fill="none"></path></g><g transform="translate(570 300) rotate(0 30 0)"><path d="M31.81 -10.26 C41.3 -6.81, 50.79 -3.35, 60 0 M31.81 -10.26 C40.39 -7.14, 48.97 -4.02, 60 0" stroke="#868e96" stroke-width="2" fill="none"></path></g></g><g stroke-linecap="round" transform="translate(10 370) rotate(0 550 50)"><path d="M0 0 C346.41 0, 692.82 0, 1100 0 M0 0 C318.42 0, 636.84 0, 1100 0 M1100 0 C1100 37.44, 1100 74.87, 1100 100 M1100 0 C1100 20.7, 1100 41.41, 1100 100 M1100 100 C804.82 100, 509.63 100, 0 100 M1100 100 C794.58 100, 489.16 100, 0 100 M0 100 C0 68.49, 0 36.99, 0 0 M0 100 C0 60.24, 0 20.48, 0 0" stroke="#868e96" stroke-width="1" fill="none"></path></g><g transform="translate(30 370) rotate(0 100.80000000000001 10)"><text x="0" y="NaN" font-family="Cascadia, Segoe UI Emoji" font-size="16px" fill="#e8590c" text-anchor="start" style="white-space: pre;" direction="ltr">YouTube Reply Handler</text></g><g transform="translate(40 405) rotate(0 60 15)"><text x="60" y="NaN" font-family="Cascadia, Segoe UI Emoji" font-size="12px" fill="#e8590c" text-anchor="middle" style="white-space: pre;" direction="ltr">Webhook</text><text x="60" y="NaN" font-family="Cascadia, Segoe UI Emoji" font-size="12px" fill="#e8590c" text-anchor="middle" style="white-space: pre;" direction="ltr">Trigger</text></g><g stroke-linecap="round" transform="translate(30 390) rotate(0 70 30)"><path d="M0 0 L140 0 L140 60 L0 60" stroke="none" stroke-width="0" fill="#ffd8a8"></path><path d="M0 0 C50.86 0, 101.71 0, 140 0 M0 0 C39.01 0, 78.01 0, 140 0 M140 0 C140 20.04, 140 40.08, 140 60 M140 0 C140 21.2, 140 42.4, 140 60 M140 60 C93.18 60, 46.35 60, 0 60 M140 60 C86.29 60, 32.59 60, 0 60 M0 60 C0 37.43, 0 14.86, 0 0 M0 60 C0 47.35, 0 34.7, 0 0" stroke="#e8590c" stroke-width="2" fill="none"></path></g><g transform="translate(240 405) rotate(0 60 15)"><text x="60" y="NaN" font-family="Cascadia, Segoe UI Emoji" font-size="12px" fill="#e8590c" text-anchor="middle" style="white-space: pre;" direction="ltr">Detect</text><text x="60" y="NaN" font-family="Cascadia, Segoe UI Emoji" font-size="12px" fill="#e8590c" text-anchor="middle" style="white-space: pre;" direction="ltr">Action</text></g><g stroke-linecap="round" transform="translate(230 390) rotate(0 70 30)"><path d="M0 0 L140 0 L140 60 L0 60" stroke="none" stroke-width="0" fill="#ffd8a8"></path><path d="M0 0 C52.58 0, 105.16 0, 140 0 M0 0 C51.47 0, 102.93 0, 140 0 M140 0 C140 17.27, 140 34.55, 140 60 M140 0 C140 13.66, 140 27.32, 140 60 M140 60 C111.41 60, 82.82 60, 0 60 M140 60 C104.53 60, 69.06 60, 0 60 M0 60 C0 44.05, 0 28.1, 0 0 M0 60 C0 36.97, 0 13.93, 0 0" stroke="#e8590c" stroke-width="2" fill="none"></path></g><g stroke-linecap="round"><g transform="translate(170 420) rotate(0 30 0)"><path d="M0 0 C10 0, 50 0, 60 0 M0 0 C10 0, 50 0, 60 0" stroke="#868e96" stroke-width="2" fill="none"></path></g><g transform="translate(170 420) rotate(0 30 0)"><path d="M31.81 10.26 C37.93 8.03, 44.06 5.8, 60 0 M31.81 10.26 C38.44 7.85, 45.08 5.43, 60 0" stroke="#868e96" stroke-width="2" fill="none"></path></g><g transform="translate(170 420) rotate(0 30 0)"><path d="M31.81 -10.26 C37.93 -8.03, 44.06 -5.8, 60 0 M31.81 -10.26 C38.44 -7.85, 45.08 -5.43, 60 0" stroke="#868e96" stroke-width="2" fill="none"></path></g></g><g transform="translate(440 405) rotate(0 60 15)"><text x="60" y="NaN" font-family="Cascadia, Segoe UI Emoji" font-size="12px" fill="#e8590c" text-anchor="middle" style="white-space: pre;" direction="ltr">Gemini</text><text x="60" y="NaN" font-family="Cascadia, Segoe UI Emoji" font-size="12px" fill="#e8590c" text-anchor="middle" style="white-space: pre;" direction="ltr">Process</text></g><g stroke-linecap="round" transform="translate(430 390) rotate(0 70 30)"><path d="M0 0 L140 0 L140 60 L0 60" stroke="none" stroke-width="0" fill="#ffd8a8"></path><path d="M0 0 C42.31 0, 84.62 0, 140 0 M0 0 C35.11 0, 70.21 0, 140 0 M140 0 C140 21.59, 140 43.17, 140 60 M140 0 C140 13.64, 140 27.29, 140 60 M140 60 C101.85 60, 63.69 60, 0 60 M140 60 C90.66 60, 41.32 60, 0 60 M0 60 C0 39.04, 0 18.07, 0 0 M0 60 C0 36.4, 0 12.79, 0 0" stroke="#e8590c" stroke-width="2" fill="none"></path></g><g stroke-linecap="round"><g transform="translate(370 420) rotate(0 30 0)"><path d="M0 0 C10 0, 50 0, 60 0 M0 0 C10 0, 50 0, 60 0" stroke="#868e96" stroke-width="2" fill="none"></path></g><g transform="translate(370 420) rotate(0 30 0)"><path d="M31.81 10.26 C41.03 6.9, 50.25 3.55, 60 0 M31.81 10.26 C39.75 7.37, 47.7 4.48, 60 0" stroke="#868e96" stroke-width="2" fill="none"></path></g><g transform="translate(370 420) rotate(0 30 0)"><path d="M31.81 -10.26 C41.03 -6.9, 50.25 -3.55, 60 0 M31.81 -10.26 C39.75 -7.37, 47.7 -4.48, 60 0" stroke="#868e96" stroke-width="2" fill="none"></path></g></g><g transform="translate(640 412.5) rotate(0 60 7.5)"><text x="60" y="NaN" font-family="Cascadia, Segoe UI Emoji" font-size="12px" fill="#2f9e44" text-anchor="middle" style="white-space: pre;" direction="ltr">Reply</text></g><g stroke-linecap="round" transform="translate(630 390) rotate(0 70 30)"><path d="M0 0 L140 0 L140 60 L0 60" stroke="none" stroke-width="0" fill="#b2f2bb"></path><path d="M0 0 C43.78 0, 87.56 0, 140 0 M0 0 C43.74 0, 87.48 0, 140 0 M140 0 C140 21.01, 140 42.02, 140 60 M140 0 C140 21.52, 140 43.04, 140 60 M140 60 C104 60, 68 60, 0 60 M140 60 C91.72 60, 43.44 60, 0 60 M0 60 C0 47.91, 0 35.81, 0 0 M0 60 C0 42.54, 0 25.08, 0 0" stroke="#2f9e44" stroke-width="2" fill="none"></path></g><g stroke-linecap="round"><g transform="translate(570 420) rotate(0 30 0)"><path d="M0 0 C10 0, 50 0, 60 0 M0 0 C10 0, 50 0, 60 0" stroke="#868e96" stroke-width="2" fill="none"></path></g><g transform="translate(570 420) rotate(0 30 0)"><path d="M31.81 10.26 C39.85 7.33, 47.89 4.41, 60 0 M31.81 10.26 C41.04 6.9, 50.28 3.54, 60 0" stroke="#868e96" stroke-width="2" fill="none"></path></g><g transform="translate(570 420) rotate(0 30 0)"><path d="M31.81 -10.26 C39.85 -7.33, 47.89 -4.41, 60 0 M31.81 -10.26 C41.04 -6.9, 50.28 -3.54, 60 0" stroke="#868e96" stroke-width="2" fill="none"></path></g></g></svg>