<svg version="1.1" xmlns="http://www.w3.org/2000/svg" viewBox="0 0 1140 740" width="1140" height="740">
  <!-- svg-source:excalidraw -->
  
  <defs>
    <style>
      @font-face {
        font-family: "Virgil";
        src: url("https://excalidraw.com/Virgil.woff2");
      }
      @font-face {
        font-family: "Cascadia";
        src: url("https://excalidraw.com/Cascadia.woff2");
      }
    </style>
  </defs>
  <rect x="0" y="0" width="1140" height="740" fill="#ffffff"></rect><g transform="translate(130 10) rotate(0 260.4 17.5)"><text x="0" y="NaN" font-family="Cascadia, Segoe UI Emoji" font-size="28px" fill="#343a40" text-anchor="start" style="white-space: pre;" direction="ltr">Centralized Cron Error Handling</text></g><g transform="translate(20 170) rotate(0 80 20)"><text x="80" y="NaN" font-family="Cascadia, Segoe UI Emoji" font-size="16px" fill="#1971c2" text-anchor="middle" style="white-space: pre;" direction="ltr">crontab</text><text x="80" y="NaN" font-family="Cascadia, Segoe UI Emoji" font-size="16px" fill="#1971c2" text-anchor="middle" style="white-space: pre;" direction="ltr">(21 crons)</text></g><g stroke-linecap="round" transform="translate(10 150) rotate(0 90 40)"><path d="M0 0 L180 0 L180 80 L0 80" stroke="none" stroke-width="0" fill="#a5d8ff"></path><path d="M0 0 C63.8 0, 127.59 0, 180 0 M0 0 C56.81 0, 113.63 0, 180 0 M180 0 C180 20.36, 180 40.72, 180 80 M180 0 C180 27.95, 180 55.9, 180 80 M180 80 C133.34 80, 86.68 80, 0 80 M180 80 C136.01 80, 92.02 80, 0 80 M0 80 C0 51.8, 0 23.61, 0 0 M0 80 C0 54.76, 0 29.52, 0 0" stroke="#1971c2" stroke-width="2" fill="none"></path></g><g transform="translate(300 180) rotate(0 90 10)"><text x="90" y="NaN" font-family="Cascadia, Segoe UI Emoji" font-size="16px" fill="#1971c2" text-anchor="middle" style="white-space: pre;" direction="ltr">cron-wrapper.sh</text></g><g stroke-linecap="round" transform="translate(290 150) rotate(0 100 40)"><path d="M0 0 L200 0 L200 80 L0 80" stroke="none" stroke-width="0" fill="#a5d8ff"></path><path d="M0 0 C62.03 0, 124.06 0, 200 0 M0 0 C68.9 0, 137.8 0, 200 0 M200 0 C200 26.23, 200 52.46, 200 80 M200 0 C200 21.95, 200 43.9, 200 80 M200 80 C148.72 80, 97.45 80, 0 80 M200 80 C159.33 80, 118.66 80, 0 80 M0 80 C0 52.65, 0 25.3, 0 0 M0 80 C0 55.78, 0 31.56, 0 0" stroke="#1971c2" stroke-width="2" fill="none"></path></g><g transform="translate(600 170) rotate(0 90 20)"><text x="90" y="NaN" font-family="Cascadia, Segoe UI Emoji" font-size="16px" fill="#1971c2" text-anchor="middle" style="white-space: pre;" direction="ltr">Script</text><text x="90" y="NaN" font-family="Cascadia, Segoe UI Emoji" font-size="16px" fill="#1971c2" text-anchor="middle" style="white-space: pre;" direction="ltr">Execution</text></g><g stroke-linecap="round" transform="translate(590 150) rotate(0 100 40)"><path d="M0 0 L200 0 L200 80 L0 80" stroke="none" stroke-width="0" fill="#a5d8ff"></path><path d="M0 0 C57.45 0, 114.89 0, 200 0 M0 0 C52.01 0, 104.01 0, 200 0 M200 0 C200 18.91, 200 37.82, 200 80 M200 0 C200 24.16, 200 48.31, 200 80 M200 80 C127.78 80, 55.57 80, 0 80 M200 80 C134.58 80, 69.16 80, 0 80 M0 80 C0 56.14, 0 32.29, 0 0 M0 80 C0 62.76, 0 45.52, 0 0" stroke="#1971c2" stroke-width="2" fill="none"></path></g><g transform="translate(210 180) rotate(0 30 10)"><text x="30" y="NaN" font-family="Cascadia, Segoe UI Emoji" font-size="12px" fill="#868e96" text-anchor="middle" style="white-space: pre;" direction="ltr">invokes</text></g><g stroke-linecap="round"><g transform="translate(190 190) rotate(0 50 0)"><path d="M0 0 C16.67 0, 83.33 0, 100 0 M0 0 C16.67 0, 83.33 0, 100 0" stroke="#868e96" stroke-width="2" fill="none"></path></g><g transform="translate(190 190) rotate(0 50 0)"><path d="M71.81 10.26 C83.05 6.17, 94.29 2.08, 100 0 M71.81 10.26 C80.04 7.26, 88.28 4.27, 100 0" stroke="#868e96" stroke-width="2" fill="none"></path></g><g transform="translate(190 190) rotate(0 50 0)"><path d="M71.81 -10.26 C83.05 -6.17, 94.29 -2.08, 100 0 M71.81 -10.26 C80.04 -7.26, 88.28 -4.27, 100 0" stroke="#868e96" stroke-width="2" fill="none"></path></g></g><g transform="translate(510 180) rotate(0 30 10)"><text x="30" y="NaN" font-family="Cascadia, Segoe UI Emoji" font-size="12px" fill="#868e96" text-anchor="middle" style="white-space: pre;" direction="ltr">runs</text></g><g stroke-linecap="round"><g transform="translate(490 190) rotate(0 50 0)"><path d="M0 0 C16.67 0, 83.33 0, 100 0 M0 0 C16.67 0, 83.33 0, 100 0" stroke="#868e96" stroke-width="2" fill="none"></path></g><g transform="translate(490 190) rotate(0 50 0)"><path d="M71.81 10.26 C79.62 7.42, 87.44 4.57, 100 0 M71.81 10.26 C80.17 7.22, 88.54 4.17, 100 0" stroke="#868e96" stroke-width="2" fill="none"></path></g><g transform="translate(490 190) rotate(0 50 0)"><path d="M71.81 -10.26 C79.62 -7.42, 87.44 -4.57, 100 0 M71.81 -10.26 C80.17 -7.22, 88.54 -4.17, 100 0" stroke="#868e96" stroke-width="2" fill="none"></path></g></g><g transform="translate(651 371.25) rotate(0 49 8.75)"><text x="49" y="NaN" font-family="Cascadia, Segoe UI Emoji" font-size="14px" fill="#e8590c" text-anchor="middle" style="white-space: pre;" direction="ltr">Pass?</text></g><g stroke-linecap="round" transform="translate(630 330) rotate(0 70 50)"><path d="M71 0 L140 51 L71 100 L0 51" stroke="none" stroke-width="0" fill="#ffd8a8" fill-rule="evenodd"></path><path d="M71 0 C92.3 15.75, 113.6 31.49, 140 51 M71 0 C93.83 16.87, 116.66 33.75, 140 51 M140 51 C119.3 65.7, 98.61 80.39, 71 100 M140 51 C121.23 64.33, 102.46 77.66, 71 100 M71 100 C50.3 85.71, 29.6 71.43, 0 51 M71 100 C48.39 84.39, 25.77 68.79, 0 51 M0 51 C26.62 31.88, 53.23 12.76, 71 0 M0 51 C18.78 37.51, 37.55 24.02, 71 0" stroke="#e8590c" stroke-width="2" fill="none"></path></g><g stroke-linecap="round"><g transform="translate(690 230) rotate(0 5 50)"><path d="M0 0 C1.67 16.67, 8.33 83.33, 10 100 M0 0 C1.67 16.67, 8.33 83.33, 10 100" stroke="#868e96" stroke-width="2" fill="none"></path></g><g transform="translate(690 230) rotate(0 5 50)"><path d="M-3.01 72.97 C1.62 82.6, 6.26 92.24, 10 100 M-3.01 72.97 C1.69 82.74, 6.39 92.5, 10 100" stroke="#868e96" stroke-width="2" fill="none"></path></g><g transform="translate(690 230) rotate(0 5 50)"><path d="M17.4 70.93 C14.77 81.29, 12.13 91.65, 10 100 M17.4 70.93 C14.73 81.43, 12.05 91.93, 10 100" stroke="#868e96" stroke-width="2" fill="none"></path></g></g><g transform="translate(440 510) rotate(0 80 10)"><text x="80" y="NaN" font-family="Cascadia, Segoe UI Emoji" font-size="16px" fill="#2f9e44" text-anchor="middle" style="white-space: pre;" direction="ltr">sessions.log</text></g><g stroke-linecap="round" transform="translate(430 490) rotate(0 90 30)"><path d="M0 0 L180 0 L180 60 L0 60" stroke="none" stroke-width="0" fill="#b2f2bb"></path><path d="M0 0 C44.71 0, 89.42 0, 180 0 M0 0 C36.27 0, 72.54 0, 180 0 M180 0 C180 14.53, 180 29.05, 180 60 M180 0 C180 19.14, 180 38.29, 180 60 M180 60 C131.52 60, 83.03 60, 0 60 M180 60 C133.84 60, 87.67 60, 0 60 M0 60 C0 38.24, 0 16.48, 0 0 M0 60 C0 39.78, 0 19.56, 0 0" stroke="#2f9e44" stroke-width="2" fill="none"></path></g><g transform="translate(590 440) rotate(0 30 10)"><text x="30" y="NaN" font-family="Cascadia, Segoe UI Emoji" font-size="12px" fill="#2f9e44" text-anchor="middle" style="white-space: pre;" direction="ltr">success</text></g><g stroke-linecap="round"><g transform="translate(630 380) rotate(0 -10 70)"><path d="M0 0 C-3.33 23.33, -16.67 116.67, -20 140 M0 0 C-3.33 23.33, -16.67 116.67, -20 140" stroke="#2f9e44" stroke-width="2" fill="none"></path></g><g transform="translate(630 380) rotate(0 -10 70)"><path d="M-26.17 110.64 C-24.22 119.93, -22.27 129.21, -20 140 M-26.17 110.64 C-24.32 119.43, -22.48 128.21, -20 140" stroke="#2f9e44" stroke-width="2" fill="none"></path></g><g transform="translate(630 380) rotate(0 -10 70)"><path d="M-5.86 113.54 C-10.33 121.91, -14.8 130.28, -20 140 M-5.86 113.54 C-10.09 121.46, -14.32 129.37, -20 140" stroke="#2f9e44" stroke-width="2" fill="none"></path></g></g><g transform="translate(840 345) rotate(0 100 20)"><text x="100" y="NaN" font-family="Cascadia, Segoe UI Emoji" font-size="16px" fill="#e03131" text-anchor="middle" style="white-space: pre;" direction="ltr">cron_failure</text><text x="100" y="NaN" font-family="Cascadia, Segoe UI Emoji" font-size="16px" fill="#e03131" text-anchor="middle" style="white-space: pre;" direction="ltr">_alerter.py</text></g><g stroke-linecap="round" transform="translate(830 330) rotate(0 110 35)"><path d="M0 0 L220 0 L220 70 L0 70" stroke="none" stroke-width="0" fill="#ffc9c9"></path><path d="M0 0 C79.97 0, 159.94 0, 220 0 M0 0 C73.68 0, 147.36 0, 220 0 M220 0 C220 16.71, 220 33.41, 220 70 M220 0 C220 24.8, 220 49.61, 220 70 M220 70 C139.14 70, 58.28 70, 0 70 M220 70 C146.27 70, 72.54 70, 0 70 M0 70 C0 54.22, 0 38.43, 0 0 M0 70 C0 50.86, 0 31.73, 0 0" stroke="#e03131" stroke-width="2" fill="none"></path></g><g transform="translate(770 362.5) rotate(0 30 10)"><text x="30" y="NaN" font-family="Cascadia, Segoe UI Emoji" font-size="12px" fill="#e03131" text-anchor="middle" style="white-space: pre;" direction="ltr">failure</text></g><g stroke-linecap="round"><g transform="translate(770 380) rotate(0 30 -7.5)"><path d="M0 0 C10 -2.5, 50 -12.5, 60 -15 M0 0 C10 -2.5, 50 -12.5, 60 -15" stroke="#e03131" stroke-width="2" fill="none"></path></g><g transform="translate(770 380) rotate(0 30 -7.5)"><path d="M35.14 1.79 C40.45 -1.79, 45.75 -5.38, 60 -15 M35.14 1.79 C40.3 -1.69, 45.46 -5.18, 60 -15" stroke="#e03131" stroke-width="2" fill="none"></path></g><g transform="translate(770 380) rotate(0 30 -7.5)"><path d="M30.16 -18.12 C36.53 -17.45, 42.9 -16.79, 60 -15 M30.16 -18.12 C36.36 -17.47, 42.55 -16.82, 60 -15" stroke="#e03131" stroke-width="2" fill="none"></path></g></g><g transform="translate(780 500) rotate(0 70 20)"><text x="70" y="NaN" font-family="Cascadia, Segoe UI Emoji" font-size="16px" fill="#e8590c" text-anchor="middle" style="white-space: pre;" direction="ltr">Desktop</text><text x="70" y="NaN" font-family="Cascadia, Segoe UI Emoji" font-size="16px" fill="#e8590c" text-anchor="middle" style="white-space: pre;" direction="ltr">Alert</text></g><g stroke-linecap="round" transform="translate(770 490) rotate(0 80 30)"><path d="M0 0 L160 0 L160 60 L0 60" stroke="none" stroke-width="0" fill="#ffd8a8"></path><path d="M0 0 C46.64 0, 93.28 0, 160 0 M0 0 C59.52 0, 119.04 0, 160 0 M160 0 C160 12.03, 160 24.06, 160 60 M160 0 C160 18.08, 160 36.16, 160 60 M160 60 C108.63 60, 57.26 60, 0 60 M160 60 C99.08 60, 38.16 60, 0 60 M0 60 C0 38.29, 0 16.58, 0 0 M0 60 C0 38.62, 0 17.24, 0 0" stroke="#e8590c" stroke-width="2" fill="none"></path></g><g transform="translate(980 500) rotate(0 70 20)"><text x="70" y="NaN" font-family="Cascadia, Segoe UI Emoji" font-size="16px" fill="#e8590c" text-anchor="middle" style="white-space: pre;" direction="ltr">Email</text><text x="70" y="NaN" font-family="Cascadia, Segoe UI Emoji" font-size="16px" fill="#e8590c" text-anchor="middle" style="white-space: pre;" direction="ltr">Alert</text></g><g stroke-linecap="round" transform="translate(970 490) rotate(0 80 30)"><path d="M0 0 L160 0 L160 60 L0 60" stroke="none" stroke-width="0" fill="#ffd8a8"></path><path d="M0 0 C43.59 0, 87.18 0, 160 0 M0 0 C62.21 0, 124.41 0, 160 0 M160 0 C160 21.39, 160 42.79, 160 60 M160 0 C160 14.68, 160 29.35, 160 60 M160 60 C116.54 60, 73.08 60, 0 60 M160 60 C113.7 60, 67.4 60, 0 60 M0 60 C0 46.7, 0 33.41, 0 0 M0 60 C0 37.72, 0 15.43, 0 0" stroke="#e8590c" stroke-width="2" fill="none"></path></g><g transform="translate(880 630) rotate(0 70 10)"><text x="70" y="NaN" font-family="Cascadia, Segoe UI Emoji" font-size="16px" fill="#e8590c" text-anchor="middle" style="white-space: pre;" direction="ltr">Dashboard</text></g><g stroke-linecap="round" transform="translate(870 610) rotate(0 80 30)"><path d="M0 0 L160 0 L160 60 L0 60" stroke="none" stroke-width="0" fill="#ffd8a8"></path><path d="M0 0 C44.14 0, 88.28 0, 160 0 M0 0 C51.87 0, 103.74 0, 160 0 M160 0 C160 12.52, 160 25.04, 160 60 M160 0 C160 20.16, 160 40.32, 160 60 M160 60 C127.19 60, 94.39 60, 0 60 M160 60 C123.02 60, 86.04 60, 0 60 M0 60 C0 46.35, 0 32.69, 0 0 M0 60 C0 47.12, 0 34.25, 0 0" stroke="#e8590c" stroke-width="2" fill="none"></path></g><g stroke-linecap="round"><g transform="translate(940 400) rotate(0 -45 45)"><path d="M0 0 C-15 15, -75 75, -90 90 M0 0 C-15 15, -75 75, -90 90" stroke="#e8590c" stroke-width="2" fill="none"></path></g><g transform="translate(940 400) rotate(0 -45 45)"><path d="M-77.32 62.81 C-81.07 70.86, -84.83 78.91, -90 90 M-77.32 62.81 C-82.11 73.08, -86.9 83.35, -90 90" stroke="#e8590c" stroke-width="2" fill="none"></path></g><g transform="translate(940 400) rotate(0 -45 45)"><path d="M-62.81 77.32 C-70.86 81.07, -78.91 84.83, -90 90 M-62.81 77.32 C-73.08 82.11, -83.35 86.9, -90 90" stroke="#e8590c" stroke-width="2" fill="none"></path></g></g><g stroke-linecap="round"><g transform="translate(940 400) rotate(0 55 45)"><path d="M0 0 C18.33 15, 91.67 75, 110 90 M0 0 C18.33 15, 91.67 75, 110 90" stroke="#e8590c" stroke-width="2" fill="none"></path></g><g transform="translate(940 400) rotate(0 55 45)"><path d="M81.68 80.09 C91.33 83.46, 100.97 86.84, 110 90 M81.68 80.09 C91.43 83.5, 101.18 86.91, 110 90" stroke="#e8590c" stroke-width="2" fill="none"></path></g><g transform="translate(940 400) rotate(0 55 45)"><path d="M94.68 64.21 C99.9 72.99, 105.11 81.77, 110 90 M94.68 64.21 C99.95 73.09, 105.23 81.97, 110 90" stroke="#e8590c" stroke-width="2" fill="none"></path></g></g><g stroke-linecap="round"><g transform="translate(940 400) rotate(0 5 105)"><path d="M0 0 C1.67 35, 8.33 175, 10 210 M0 0 C1.67 35, 8.33 175, 10 210" stroke="#e8590c" stroke-width="2" fill="none"></path></g><g transform="translate(940 400) rotate(0 5 105)"><path d="M-1.59 182.33 C1.22 189.03, 4.02 195.73, 10 210 M-1.59 182.33 C2.59 192.3, 6.77 202.28, 10 210" stroke="#e8590c" stroke-width="2" fill="none"></path></g><g transform="translate(940 400) rotate(0 5 105)"><path d="M18.91 181.35 C16.75 188.29, 14.6 195.22, 10 210 M18.91 181.35 C15.7 191.68, 12.49 202.01, 10 210" stroke="#e8590c" stroke-width="2" fill="none"></path></g></g><g transform="translate(10 510) rotate(0 36 12.5)"><text x="0" y="NaN" font-family="Cascadia, Segoe UI Emoji" font-size="20px" fill="#343a40" text-anchor="start" style="white-space: pre;" direction="ltr">Weekly</text></g><g transform="translate(20 560) rotate(0 110 20)"><text x="110" y="NaN" font-family="Cascadia, Segoe UI Emoji" font-size="16px" fill="#0c8599" text-anchor="middle" style="white-space: pre;" direction="ltr">weekly_health</text><text x="110" y="NaN" font-family="Cascadia, Segoe UI Emoji" font-size="16px" fill="#0c8599" text-anchor="middle" style="white-space: pre;" direction="ltr">_summary.py</text></g><g stroke-linecap="round" transform="translate(10 550) rotate(0 120 30)"><path d="M0 0 L240 0 L240 60 L0 60" stroke="none" stroke-width="0" fill="#99e9f2"></path><path d="M0 0 C58.78 0, 117.55 0, 240 0 M0 0 C67.52 0, 135.04 0, 240 0 M240 0 C240 23.98, 240 47.97, 240 60 M240 0 C240 13.4, 240 26.81, 240 60 M240 60 C156.09 60, 72.19 60, 0 60 M240 60 C159.17 60, 78.33 60, 0 60 M0 60 C0 47.84, 0 35.68, 0 0 M0 60 C0 40.79, 0 21.58, 0 0" stroke="#0c8599" stroke-width="2" fill="none"></path></g><g transform="translate(20 690) rotate(0 110 10)"><text x="110" y="NaN" font-family="Cascadia, Segoe UI Emoji" font-size="16px" fill="#2f9e44" text-anchor="middle" style="white-space: pre;" direction="ltr">Email Summary</text></g><g stroke-linecap="round" transform="translate(10 670) rotate(0 120 30)"><path d="M0 0 L240 0 L240 60 L0 60" stroke="none" stroke-width="0" fill="#b2f2bb"></path><path d="M0 0 C75.21 0, 150.43 0, 240 0 M0 0 C66.24 0, 132.48 0, 240 0 M240 0 C240 18.25, 240 36.51, 240 60 M240 0 C240 23.84, 240 47.67, 240 60 M240 60 C188.3 60, 136.6 60, 0 60 M240 60 C171.87 60, 103.75 60, 0 60 M0 60 C0 47.62, 0 35.23, 0 0 M0 60 C0 47.01, 0 34.03, 0 0" stroke="#2f9e44" stroke-width="2" fill="none"></path></g><g stroke-linecap="round"><g transform="translate(130 610) rotate(0 0 30)"><path d="M0 0 C0 10, 0 50, 0 60 M0 0 C0 10, 0 50, 0 60" stroke="#0c8599" stroke-width="2" fill="none"></path></g><g transform="translate(130 610) rotate(0 0 30)"><path d="M-10.26 31.81 C-7.58 39.17, -4.9 46.53, 0 60 M-10.26 31.81 C-7.42 39.61, -4.58 47.42, 0 60" stroke="#0c8599" stroke-width="2" fill="none"></path></g><g transform="translate(130 610) rotate(0 0 30)"><path d="M10.26 31.81 C7.58 39.17, 4.9 46.53, 0 60 M10.26 31.81 C7.42 39.61, 4.58 47.42, 0 60" stroke="#0c8599" stroke-width="2" fill="none"></path></g></g></svg>