<svg version="1.1" xmlns="http://www.w3.org/2000/svg" viewBox="0 0 900 580" width="900" height="580">
  <!-- svg-source:excalidraw -->
  
  <defs>
    <style>
      @font-face {
        font-family: "Virgil";
        src: url("https://excalidraw.com/Virgil.woff2");
      }
      @font-face {
        font-family: "Cascadia";
        src: url("https://excalidraw.com/Cascadia.woff2");
      }
    </style>
  </defs>
  <rect x="0" y="0" width="900" height="580" fill="#ffffff"></rect><g transform="translate(110 10) rotate(0 378 17.5)"><text x="0" y="NaN" font-family="Cascadia, Segoe UI Emoji" font-size="28px" fill="#343a40" text-anchor="start" style="white-space: pre;" direction="ltr">Email System (33 scripts in src/tools/email/)</text></g><g transform="translate(300 190) rotate(0 130 20)"><text x="130" y="NaN" font-family="Cascadia, Segoe UI Emoji" font-size="16px" fill="#1971c2" text-anchor="middle" style="white-space: pre;" direction="ltr">consolidated_email</text><text x="130" y="NaN" font-family="Cascadia, Segoe UI Emoji" font-size="16px" fill="#1971c2" text-anchor="middle" style="white-space: pre;" direction="ltr">_api.py (CANONICAL)</text></g><g stroke-linecap="round" transform="translate(290 170) rotate(0 140 40)"><path d="M0 0 L280 0 L280 80 L0 80" stroke="none" stroke-width="0" fill="#a5d8ff"></path><path d="M0 0 C97.66 0, 195.32 0, 280 0 M0 0 C62.7 0, 125.39 0, 280 0 M280 0 C280 22.66, 280 45.32, 280 80 M280 0 C280 29.86, 280 59.71, 280 80 M280 80 C191.83 80, 103.65 80, 0 80 M280 80 C170.24 80, 60.48 80, 0 80 M0 80 C0 54.34, 0 28.68, 0 0 M0 80 C0 60.05, 0 40.1, 0 0" stroke="#1971c2" stroke-width="2" fill="none"></path></g><g transform="translate(20 185) rotate(0 100 20)"><text x="100" y="NaN" font-family="Cascadia, Segoe UI Emoji" font-size="16px" fill="#1971c2" text-anchor="middle" style="white-space: pre;" direction="ltr">obsidian_email</text><text x="100" y="NaN" font-family="Cascadia, Segoe UI Emoji" font-size="16px" fill="#1971c2" text-anchor="middle" style="white-space: pre;" direction="ltr">_archiver.py</text></g><g stroke-linecap="round" transform="translate(10 170) rotate(0 110 35)"><path d="M0 0 L220 0 L220 70 L0 70" stroke="none" stroke-width="0" fill="#a5d8ff"></path><path d="M0 0 C73.53 0, 147.06 0, 220 0 M0 0 C65.44 0, 130.88 0, 220 0 M220 0 C220 23.01, 220 46.03, 220 70 M220 0 C220 27.63, 220 55.26, 220 70 M220 70 C166.77 70, 113.55 70, 0 70 M220 70 C153.49 70, 86.98 70, 0 70 M0 70 C0 53.76, 0 37.52, 0 0 M0 70 C0 42.13, 0 14.27, 0 0" stroke="#1971c2" stroke-width="2" fill="none"></path></g><g transform="translate(680 185) rotate(0 100 20)"><text x="100" y="NaN" font-family="Cascadia, Segoe UI Emoji" font-size="16px" fill="#1971c2" text-anchor="middle" style="white-space: pre;" direction="ltr">unified_email</text><text x="100" y="NaN" font-family="Cascadia, Segoe UI Emoji" font-size="16px" fill="#1971c2" text-anchor="middle" style="white-space: pre;" direction="ltr">_service.py</text></g><g stroke-linecap="round" transform="translate(670 170) rotate(0 110 35)"><path d="M0 0 L220 0 L220 70 L0 70" stroke="none" stroke-width="0" fill="#a5d8ff"></path><path d="M0 0 C49.85 0, 99.7 0, 220 0 M0 0 C57.06 0, 114.12 0, 220 0 M220 0 C220 20.33, 220 40.66, 220 70 M220 0 C220 19.2, 220 38.4, 220 70 M220 70 C147.62 70, 75.25 70, 0 70 M220 70 C157.34 70, 94.68 70, 0 70 M0 70 C0 44.07, 0 18.14, 0 0 M0 70 C0 52.84, 0 35.68, 0 0" stroke="#1971c2" stroke-width="2" fill="none"></path></g><g transform="translate(230 197.5) rotate(0 30 10)"><text x="30" y="NaN" font-family="Cascadia, Segoe UI Emoji" font-size="12px" fill="#868e96" text-anchor="middle" style="white-space: pre;" direction="ltr">archives</text></g><g stroke-linecap="round"><g transform="translate(290 210) rotate(0 -30 -2.5)"><path d="M0 0 C-10 -0.83, -50 -4.17, -60 -5 M0 0 C-10 -0.83, -50 -4.17, -60 -5" stroke="#868e96" stroke-width="2" fill="none"></path></g><g transform="translate(290 210) rotate(0 -30 -2.5)"><path d="M-31.05 -12.88 C-37.32 -11.18, -43.59 -9.47, -60 -5 M-31.05 -12.88 C-42.41 -9.79, -53.76 -6.7, -60 -5" stroke="#868e96" stroke-width="2" fill="none"></path></g><g transform="translate(290 210) rotate(0 -30 -2.5)"><path d="M-32.76 7.57 C-38.66 4.85, -44.56 2.12, -60 -5 M-32.76 7.57 C-43.44 2.64, -54.13 -2.29, -60 -5" stroke="#868e96" stroke-width="2" fill="none"></path></g></g><g transform="translate(590 197.5) rotate(0 30 10)"><text x="30" y="NaN" font-family="Cascadia, Segoe UI Emoji" font-size="12px" fill="#868e96" text-anchor="middle" style="white-space: pre;" direction="ltr">wraps</text></g><g stroke-linecap="round"><g transform="translate(570 210) rotate(0 50 -2.5)"><path d="M0 0 C16.67 -0.83, 83.33 -4.17, 100 -5 M0 0 C16.67 -0.83, 83.33 -4.17, 100 -5" stroke="#868e96" stroke-width="2" fill="none"></path></g><g transform="translate(570 210) rotate(0 50 -2.5)"><path d="M72.36 6.66 C79.61 3.6, 86.87 0.54, 100 -5 M72.36 6.66 C82.06 2.57, 91.76 -1.52, 100 -5" stroke="#868e96" stroke-width="2" fill="none"></path></g><g transform="translate(570 210) rotate(0 50 -2.5)"><path d="M71.33 -13.84 C78.86 -11.52, 86.38 -9.2, 100 -5 M71.33 -13.84 C81.39 -10.74, 91.45 -7.64, 100 -5" stroke="#868e96" stroke-width="2" fill="none"></path></g></g><g transform="translate(340 50) rotate(0 90 10)"><text x="90" y="NaN" font-family="Cascadia, Segoe UI Emoji" font-size="16px" fill="#0c8599" text-anchor="middle" style="white-space: pre;" direction="ltr">Gmail OAuth2</text></g><g stroke-linecap="round" transform="translate(330 30) rotate(0 100 30)"><path d="M0 0 L200 0 L200 60 L0 60" stroke="none" stroke-width="0" fill="#99e9f2"></path><path d="M0 0 C61.25 0, 122.51 0, 200 0 M0 0 C43.37 0, 86.74 0, 200 0 M200 0 C200 12.73, 200 25.46, 200 60 M200 0 C200 14.59, 200 29.18, 200 60 M200 60 C155.8 60, 111.6 60, 0 60 M200 60 C142.61 60, 85.21 60, 0 60 M0 60 C0 38.68, 0 17.36, 0 0 M0 60 C0 39.84, 0 19.68, 0 0" stroke="#0c8599" stroke-width="2" fill="none"></path></g><g transform="translate(400 120) rotate(0 30 10)"><text x="30" y="NaN" font-family="Cascadia, Segoe UI Emoji" font-size="12px" fill="#0c8599" text-anchor="middle" style="white-space: pre;" direction="ltr">auth</text></g><g stroke-linecap="round"><g transform="translate(430 90) rotate(0 0 40)"><path d="M0 0 C0 13.33, 0 66.67, 0 80 M0 0 C0 13.33, 0 66.67, 0 80" stroke="#0c8599" stroke-width="2" fill="none"></path></g><g transform="translate(430 90) rotate(0 0 40)"><path d="M-10.26 51.81 C-6.61 61.84, -2.96 71.87, 0 80 M-10.26 51.81 C-7.9 58.3, -5.53 64.8, 0 80" stroke="#0c8599" stroke-width="2" fill="none"></path></g><g transform="translate(430 90) rotate(0 0 40)"><path d="M10.26 51.81 C6.61 61.84, 2.96 71.87, 0 80 M10.26 51.81 C7.9 58.3, 5.53 64.8, 0 80" stroke="#0c8599" stroke-width="2" fill="none"></path></g></g><g transform="translate(160 385) rotate(0 90 20)"><text x="90" y="NaN" font-family="Cascadia, Segoe UI Emoji" font-size="16px" fill="#2f9e44" text-anchor="middle" style="white-space: pre;" direction="ltr">Send to</text><text x="90" y="NaN" font-family="Cascadia, Segoe UI Emoji" font-size="16px" fill="#2f9e44" text-anchor="middle" style="white-space: pre;" direction="ltr">Recipient</text></g><g stroke-linecap="round" transform="translate(150 370) rotate(0 100 35)"><path d="M0 0 L200 0 L200 70 L0 70" stroke="none" stroke-width="0" fill="#b2f2bb"></path><path d="M0 0 C50.06 0, 100.11 0, 200 0 M0 0 C54.91 0, 109.83 0, 200 0 M200 0 C200 18.5, 200 37.01, 200 70 M200 0 C200 18.8, 200 37.61, 200 70 M200 70 C134.69 70, 69.38 70, 0 70 M200 70 C121.77 70, 43.54 70, 0 70 M0 70 C0 53.49, 0 36.99, 0 0 M0 70 C0 46.77, 0 23.54, 0 0" stroke="#2f9e44" stroke-width="2" fill="none"></path></g><g transform="translate(520 385) rotate(0 100 20)"><text x="100" y="NaN" font-family="Cascadia, Segoe UI Emoji" font-size="16px" fill="#2f9e44" text-anchor="middle" style="white-space: pre;" direction="ltr">Auto-archive</text><text x="100" y="NaN" font-family="Cascadia, Segoe UI Emoji" font-size="16px" fill="#2f9e44" text-anchor="middle" style="white-space: pre;" direction="ltr">to Obsidian</text></g><g stroke-linecap="round" transform="translate(510 370) rotate(0 110 35)"><path d="M0 0 L220 0 L220 70 L0 70" stroke="none" stroke-width="0" fill="#b2f2bb"></path><path d="M0 0 C68.23 0, 136.46 0, 220 0 M0 0 C44.14 0, 88.28 0, 220 0 M220 0 C220 27.62, 220 55.24, 220 70 M220 0 C220 16.37, 220 32.74, 220 70 M220 70 C172.87 70, 125.73 70, 0 70 M220 70 C174.7 70, 129.39 70, 0 70 M0 70 C0 50.3, 0 30.6, 0 0 M0 70 C0 44.07, 0 18.13, 0 0" stroke="#2f9e44" stroke-width="2" fill="none"></path></g><g stroke-linecap="round"><g transform="translate(430 250) rotate(0 -90 60)"><path d="M0 0 C-30 20, -150 100, -180 120 M0 0 C-30 20, -150 100, -180 120" stroke="#2f9e44" stroke-width="2" fill="none"></path></g><g transform="translate(430 250) rotate(0 -90 60)"><path d="M-162.24 95.83 C-166.64 101.82, -171.04 107.81, -180 120 M-162.24 95.83 C-165.95 100.88, -169.66 105.93, -180 120" stroke="#2f9e44" stroke-width="2" fill="none"></path></g><g transform="translate(430 250) rotate(0 -90 60)"><path d="M-150.85 112.9 C-158.08 114.66, -165.31 116.42, -180 120 M-150.85 112.9 C-156.94 114.38, -163.04 115.87, -180 120" stroke="#2f9e44" stroke-width="2" fill="none"></path></g></g><g stroke-linecap="round"><g transform="translate(430 250) rotate(0 95 60)"><path d="M0 0 C31.67 20, 158.33 100, 190 120 M0 0 C31.67 20, 158.33 100, 190 120" stroke="#2f9e44" stroke-width="2" fill="none"></path></g><g transform="translate(430 250) rotate(0 95 60)"><path d="M160.69 113.62 C171.96 116.07, 183.23 118.53, 190 120 M160.69 113.62 C166.87 114.97, 173.05 116.31, 190 120" stroke="#2f9e44" stroke-width="2" fill="none"></path></g><g transform="translate(430 250) rotate(0 95 60)"><path d="M171.64 96.27 C178.7 105.39, 185.76 114.52, 190 120 M171.64 96.27 C175.52 101.28, 179.39 106.28, 190 120" stroke="#2f9e44" stroke-width="2" fill="none"></path></g></g><g transform="translate(240 522.5) rotate(0 190 17.5)"><text x="190" y="NaN" font-family="Cascadia, Segoe UI Emoji" font-size="14px" fill="#868e96" text-anchor="middle" style="white-space: pre;" direction="ltr">14+ legacy test scripts</text><text x="190" y="NaN" font-family="Cascadia, Segoe UI Emoji" font-size="14px" fill="#868e96" text-anchor="middle" style="white-space: pre;" direction="ltr">(cleanup candidate)</text></g><g stroke-linecap="round" transform="translate(230 510) rotate(0 200 30)"><path d="M0 0 L400 0 L400 60 L0 60" stroke="none" stroke-width="0" fill="#dee2e6"></path><path d="M0 0 C129.02 0, 258.04 0, 400 0 M0 0 C135.95 0, 271.9 0, 400 0 M400 0 C400 19.24, 400 38.48, 400 60 M400 0 C400 20.63, 400 41.27, 400 60 M400 60 C295.71 60, 191.42 60, 0 60 M400 60 C318.22 60, 236.44 60, 0 60 M0 60 C0 37.63, 0 15.27, 0 0 M0 60 C0 38.96, 0 17.92, 0 0" stroke="#868e96" stroke-width="2" fill="none"></path></g></svg>