<svg version="1.1" xmlns="http://www.w3.org/2000/svg" viewBox="0 0 480 620" width="480" height="620">
  <!-- svg-source:excalidraw -->
  
  <defs>
    <style>
      @font-face {
        font-family: "Virgil";
        src: url("https://excalidraw.com/Virgil.woff2");
      }
      @font-face {
        font-family: "Cascadia";
        src: url("https://excalidraw.com/Cascadia.woff2");
      }
    </style>
  </defs>
  <rect x="0" y="0" width="480" height="620" fill="#ffffff"></rect><g transform="translate(40 30) rotate(0 80 10)"><text x="80" y="NaN" font-family="Cascadia, Segoe UI Emoji" font-size="16px" fill="#1971c2" text-anchor="middle" style="white-space: pre;" direction="ltr">API Request</text></g><g stroke-linecap="round" transform="translate(30 10) rotate(0 90 30)"><path d="M0 0 L180 0 L180 60 L0 60" stroke="none" stroke-width="0" fill="#a5d8ff"></path><path d="M0 0 C67.7 0, 135.4 0, 180 0 M0 0 C39.56 0, 79.11 0, 180 0 M180 0 C180 19.04, 180 38.07, 180 60 M180 0 C180 21.86, 180 43.73, 180 60 M180 60 C131.64 60, 83.27 60, 0 60 M180 60 C127.21 60, 74.41 60, 0 60 M0 60 C0 46.88, 0 33.77, 0 0 M0 60 C0 37.43, 0 14.87, 0 0" stroke="#1971c2" stroke-width="2" fill="none"></path></g><g transform="translate(40 150) rotate(0 80 10)"><text x="80" y="NaN" font-family="Cascadia, Segoe UI Emoji" font-size="16px" fill="#1971c2" text-anchor="middle" style="white-space: pre;" direction="ltr">Parse Request</text></g><g stroke-linecap="round" transform="translate(30 130) rotate(0 90 30)"><path d="M0 0 L180 0 L180 60 L0 60" stroke="none" stroke-width="0" fill="#a5d8ff"></path><path d="M0 0 C58.16 0, 116.31 0, 180 0 M0 0 C41.38 0, 82.75 0, 180 0 M180 0 C180 21.14, 180 42.28, 180 60 M180 0 C180 23.27, 180 46.54, 180 60 M180 60 C108.77 60, 37.55 60, 0 60 M180 60 C116.93 60, 53.86 60, 0 60 M0 60 C0 45.15, 0 30.31, 0 0 M0 60 C0 37.24, 0 14.48, 0 0" stroke="#1971c2" stroke-width="2" fill="none"></path></g><g transform="translate(41.5 301.25) rotate(0 73.5 8.75)"><text x="73.5" y="NaN" font-family="Cascadia, Segoe UI Emoji" font-size="14px" fill="#e8590c" text-anchor="middle" style="white-space: pre;" direction="ltr">Authorized?</text></g><g stroke-linecap="round" transform="translate(10 250) rotate(0 105 60)"><path d="M106 0 L210 61 L106 120 L0 61" stroke="none" stroke-width="0" fill="#ffd8a8" fill-rule="evenodd"></path><path d="M106 0 C139.51 19.66, 173.03 39.31, 210 61 M106 0 C144.52 22.59, 183.04 45.18, 210 61 M210 61 C172.4 82.33, 134.79 103.67, 106 120 M210 61 C171.16 83.03, 132.32 105.07, 106 120 M106 120 C64.5 96.9, 23 73.8, 0 61 M106 120 C71.51 100.8, 37.03 81.61, 0 61 M0 61 C28.99 44.32, 57.98 27.63, 106 0 M0 61 C31.32 42.97, 62.65 24.95, 106 0" stroke="#e8590c" stroke-width="2" fill="none"></path></g><g transform="translate(40 450) rotate(0 80 10)"><text x="80" y="NaN" font-family="Cascadia, Segoe UI Emoji" font-size="16px" fill="#2f9e44" text-anchor="middle" style="white-space: pre;" direction="ltr">Process</text></g><g stroke-linecap="round" transform="translate(30 430) rotate(0 90 30)"><path d="M0 0 L180 0 L180 60 L0 60" stroke="none" stroke-width="0" fill="#b2f2bb"></path><path d="M0 0 C60.82 0, 121.63 0, 180 0 M0 0 C46.77 0, 93.54 0, 180 0 M180 0 C180 14.47, 180 28.93, 180 60 M180 0 C180 22.46, 180 44.92, 180 60 M180 60 C111.5 60, 43 60, 0 60 M180 60 C135.76 60, 91.52 60, 0 60 M0 60 C0 44.99, 0 29.98, 0 0 M0 60 C0 46.66, 0 33.33, 0 0" stroke="#2f9e44" stroke-width="2" fill="none"></path></g><g transform="translate(40 570) rotate(0 80 10)"><text x="80" y="NaN" font-family="Cascadia, Segoe UI Emoji" font-size="16px" fill="#2f9e44" text-anchor="middle" style="white-space: pre;" direction="ltr">200 OK</text></g><g stroke-linecap="round" transform="translate(30 550) rotate(0 90 30)"><path d="M0 0 L180 0 L180 60 L0 60" stroke="none" stroke-width="0" fill="#b2f2bb"></path><path d="M0 0 C61.97 0, 123.93 0, 180 0 M0 0 C51.04 0, 102.08 0, 180 0 M180 0 C180 12.81, 180 25.62, 180 60 M180 0 C180 14.8, 180 29.6, 180 60 M180 60 C126.29 60, 72.59 60, 0 60 M180 60 C120.07 60, 60.15 60, 0 60 M0 60 C0 46.54, 0 33.08, 0 0 M0 60 C0 41.97, 0 23.95, 0 0" stroke="#2f9e44" stroke-width="2" fill="none"></path></g><g transform="translate(320 140) rotate(0 70 20)"><text x="70" y="NaN" font-family="Cascadia, Segoe UI Emoji" font-size="16px" fill="#e03131" text-anchor="middle" style="white-space: pre;" direction="ltr">400 Bad</text><text x="70" y="NaN" font-family="Cascadia, Segoe UI Emoji" font-size="16px" fill="#e03131" text-anchor="middle" style="white-space: pre;" direction="ltr">Request</text></g><g stroke-linecap="round" transform="translate(310 130) rotate(0 80 30)"><path d="M0 0 L160 0 L160 60 L0 60" stroke="none" stroke-width="0" fill="#ffc9c9"></path><path d="M0 0 C39.35 0, 78.69 0, 160 0 M0 0 C54.95 0, 109.9 0, 160 0 M160 0 C160 17.61, 160 35.22, 160 60 M160 0 C160 22.5, 160 45.01, 160 60 M160 60 C112.86 60, 65.72 60, 0 60 M160 60 C111.76 60, 63.52 60, 0 60 M0 60 C0 47.6, 0 35.2, 0 0 M0 60 C0 39.33, 0 18.67, 0 0" stroke="#e03131" stroke-width="2" fill="none"></path></g><g transform="translate(320 310) rotate(0 70 10)"><text x="70" y="NaN" font-family="Cascadia, Segoe UI Emoji" font-size="16px" fill="#e03131" text-anchor="middle" style="white-space: pre;" direction="ltr">401 Unauth</text></g><g stroke-linecap="round" transform="translate(310 290) rotate(0 80 30)"><path d="M0 0 L160 0 L160 60 L0 60" stroke="none" stroke-width="0" fill="#ffc9c9"></path><path d="M0 0 C39.06 0, 78.12 0, 160 0 M0 0 C52.29 0, 104.58 0, 160 0 M160 0 C160 14.58, 160 29.15, 160 60 M160 0 C160 20.5, 160 41.01, 160 60 M160 60 C97.61 60, 35.22 60, 0 60 M160 60 C124.21 60, 88.43 60, 0 60 M0 60 C0 47.47, 0 34.94, 0 0 M0 60 C0 45.14, 0 30.27, 0 0" stroke="#e03131" stroke-width="2" fill="none"></path></g><g transform="translate(320 450) rotate(0 70 10)"><text x="70" y="NaN" font-family="Cascadia, Segoe UI Emoji" font-size="16px" fill="#e03131" text-anchor="middle" style="white-space: pre;" direction="ltr">500 Internal</text></g><g stroke-linecap="round" transform="translate(310 430) rotate(0 80 30)"><path d="M0 0 L160 0 L160 60 L0 60" stroke="none" stroke-width="0" fill="#ffc9c9"></path><path d="M0 0 C36.21 0, 72.42 0, 160 0 M0 0 C50.32 0, 100.64 0, 160 0 M160 0 C160 22.82, 160 45.63, 160 60 M160 0 C160 19.13, 160 38.26, 160 60 M160 60 C121.92 60, 83.85 60, 0 60 M160 60 C119.69 60, 79.38 60, 0 60 M0 60 C0 44.15, 0 28.31, 0 0 M0 60 C0 45.92, 0 31.85, 0 0" stroke="#e03131" stroke-width="2" fill="none"></path></g><g stroke-linecap="round"><g transform="translate(120 70) rotate(0 0 30)"><path d="M0 0 C0 10, 0 50, 0 60 M0 0 C0 10, 0 50, 0 60" stroke="#868e96" stroke-width="2" fill="none"></path></g><g transform="translate(120 70) rotate(0 0 30)"><path d="M-10.26 31.81 C-7.92 38.23, -5.58 44.66, 0 60 M-10.26 31.81 C-6.57 41.96, -2.87 52.11, 0 60" stroke="#868e96" stroke-width="2" fill="none"></path></g><g transform="translate(120 70) rotate(0 0 30)"><path d="M10.26 31.81 C7.92 38.23, 5.58 44.66, 0 60 M10.26 31.81 C6.57 41.96, 2.87 52.11, 0 60" stroke="#868e96" stroke-width="2" fill="none"></path></g></g><g transform="translate(87.5 210) rotate(0 30 10)"><text x="30" y="NaN" font-family="Cascadia, Segoe UI Emoji" font-size="12px" fill="#868e96" text-anchor="middle" style="white-space: pre;" direction="ltr">valid</text></g><g stroke-linecap="round"><g transform="translate(120 190) rotate(0 -2.5 30)"><path d="M0 0 C-0.83 10, -4.17 50, -5 60 M0 0 C-0.83 10, -4.17 50, -5 60" stroke="#868e96" stroke-width="2" fill="none"></path></g><g transform="translate(120 190) rotate(0 -2.5 30)"><path d="M-12.88 31.05 C-9.99 41.67, -7.1 52.29, -5 60 M-12.88 31.05 C-10.47 39.91, -8.06 48.77, -5 60" stroke="#868e96" stroke-width="2" fill="none"></path></g><g transform="translate(120 190) rotate(0 -2.5 30)"><path d="M7.57 32.76 C2.96 42.75, -1.65 52.74, -5 60 M7.57 32.76 C3.72 41.09, -0.12 49.43, -5 60" stroke="#868e96" stroke-width="2" fill="none"></path></g></g><g transform="translate(87.5 390) rotate(0 30 10)"><text x="30" y="NaN" font-family="Cascadia, Segoe UI Emoji" font-size="12px" fill="#868e96" text-anchor="middle" style="white-space: pre;" direction="ltr">yes</text></g><g stroke-linecap="round"><g transform="translate(115 370) rotate(0 2.5 30)"><path d="M0 0 C0.83 10, 4.17 50, 5 60 M0 0 C0.83 10, 4.17 50, 5 60" stroke="#868e96" stroke-width="2" fill="none"></path></g><g transform="translate(115 370) rotate(0 2.5 30)"><path d="M-7.57 32.76 C-2.89 42.89, 1.78 53.01, 5 60 M-7.57 32.76 C-3.72 41.1, 0.13 49.43, 5 60" stroke="#868e96" stroke-width="2" fill="none"></path></g><g transform="translate(115 370) rotate(0 2.5 30)"><path d="M12.88 31.05 C9.95 41.81, 7.02 52.58, 5 60 M12.88 31.05 C10.47 39.91, 8.06 48.77, 5 60" stroke="#868e96" stroke-width="2" fill="none"></path></g></g><g stroke-linecap="round"><g transform="translate(120 490) rotate(0 0 30)"><path d="M0 0 C0 10, 0 50, 0 60 M0 0 C0 10, 0 50, 0 60" stroke="#868e96" stroke-width="2" fill="none"></path></g><g transform="translate(120 490) rotate(0 0 30)"><path d="M-10.26 31.81 C-6.39 42.45, -2.52 53.09, 0 60 M-10.26 31.81 C-8.06 37.86, -5.85 43.92, 0 60" stroke="#868e96" stroke-width="2" fill="none"></path></g><g transform="translate(120 490) rotate(0 0 30)"><path d="M10.26 31.81 C6.39 42.45, 2.52 53.09, 0 60 M10.26 31.81 C8.06 37.86, 5.85 43.92, 0 60" stroke="#868e96" stroke-width="2" fill="none"></path></g></g><g transform="translate(230 150) rotate(0 30 10)"><text x="30" y="NaN" font-family="Cascadia, Segoe UI Emoji" font-size="12px" fill="#e03131" text-anchor="middle" style="white-space: pre;" direction="ltr">invalid</text></g><g stroke-linecap="round"><g transform="translate(210 160) rotate(0 50 0)"><path d="M0 0 C16.67 0, 83.33 0, 100 0" stroke="#e03131" stroke-width="2.5" fill="none" stroke-dasharray="8 10"></path></g><g transform="translate(210 160) rotate(0 50 0)"><path d="M71.81 10.26 C79.51 7.46, 87.21 4.65, 100 0" stroke="#e03131" stroke-width="2.5" fill="none"></path></g><g transform="translate(210 160) rotate(0 50 0)"><path d="M71.81 -10.26 C79.51 -7.46, 87.21 -4.65, 100 0" stroke="#e03131" stroke-width="2.5" fill="none"></path></g></g><g transform="translate(235 305) rotate(0 30 10)"><text x="30" y="NaN" font-family="Cascadia, Segoe UI Emoji" font-size="12px" fill="#e03131" text-anchor="middle" style="white-space: pre;" direction="ltr">no</text></g><g stroke-linecap="round"><g transform="translate(220 310) rotate(0 45 5)"><path d="M0 0 C15 1.67, 75 8.33, 90 10" stroke="#e03131" stroke-width="2.5" fill="none" stroke-dasharray="8 10"></path></g><g transform="translate(220 310) rotate(0 45 5)"><path d="M60.85 17.08 C67.08 15.57, 73.3 14.06, 90 10" stroke="#e03131" stroke-width="2.5" fill="none"></path></g><g transform="translate(220 310) rotate(0 45 5)"><path d="M63.11 -3.31 C68.86 -0.47, 74.6 2.38, 90 10" stroke="#e03131" stroke-width="2.5" fill="none"></path></g></g><g transform="translate(228.5 450) rotate(0 31.5 10)"><text x="31.5" y="NaN" font-family="Cascadia, Segoe UI Emoji" font-size="12px" fill="#e03131" text-anchor="middle" style="white-space: pre;" direction="ltr">exception</text></g><g stroke-linecap="round"><g transform="translate(210 460) rotate(0 50 0)"><path d="M0 0 C16.67 0, 83.33 0, 100 0" stroke="#e03131" stroke-width="2.5" fill="none" stroke-dasharray="8 10"></path></g><g transform="translate(210 460) rotate(0 50 0)"><path d="M71.81 10.26 C82.42 6.4, 93.03 2.54, 100 0" stroke="#e03131" stroke-width="2.5" fill="none"></path></g><g transform="translate(210 460) rotate(0 50 0)"><path d="M71.81 -10.26 C82.42 -6.4, 93.03 -2.54, 100 0" stroke="#e03131" stroke-width="2.5" fill="none"></path></g></g></svg>