<svg version="1.1" xmlns="http://www.w3.org/2000/svg" viewBox="0 0 760 360" width="760" height="360">
  <!-- svg-source:excalidraw -->
  
  <defs>
    <style>
      @font-face {
        font-family: "Virgil";
        src: url("https://excalidraw.com/Virgil.woff2");
      }
      @font-face {
        font-family: "Cascadia";
        src: url("https://excalidraw.com/Cascadia.woff2");
      }
    </style>
  </defs>
  <rect x="0" y="0" width="760" height="360" fill="#ffffff"></rect><g transform="translate(300 190) rotate(0 100 20)"><text x="100" y="NaN" font-family="Cascadia, Segoe UI Emoji" font-size="16px" fill="#0c8599" text-anchor="middle" style="white-space: pre;" direction="ltr">Event Bus</text><text x="100" y="NaN" font-family="Cascadia, Segoe UI Emoji" font-size="16px" fill="#0c8599" text-anchor="middle" style="white-space: pre;" direction="ltr">(Kafka)</text></g><g stroke-linecap="round" transform="translate(290 170) rotate(0 110 40)"><path d="M0 0 L220 0 L220 80 L0 80" stroke="none" stroke-width="0" fill="#99e9f2"></path><path d="M0 0 C59.59 0, 119.18 0, 220 0 M0 0 C45.08 0, 90.17 0, 220 0 M220 0 C220 17.74, 220 35.47, 220 80 M220 0 C220 20.86, 220 41.73, 220 80 M220 80 C132.54 80, 45.08 80, 0 80 M220 80 C154.05 80, 88.09 80, 0 80 M0 80 C0 63.2, 0 46.41, 0 0 M0 80 C0 55.52, 0 31.04, 0 0" stroke="#0c8599" stroke-width="2" fill="none"></path></g><g transform="translate(20 30) rotate(0 80 10)"><text x="80" y="NaN" font-family="Cascadia, Segoe UI Emoji" font-size="16px" fill="#2f9e44" text-anchor="middle" style="white-space: pre;" direction="ltr">Order Service</text></g><g stroke-linecap="round" transform="translate(10 10) rotate(0 90 30)"><path d="M0 0 L180 0 L180 60 L0 60" stroke="none" stroke-width="0" fill="#b2f2bb"></path><path d="M0 0 C71.35 0, 142.69 0, 180 0 M0 0 C47.25 0, 94.5 0, 180 0 M180 0 C180 18.41, 180 36.83, 180 60 M180 0 C180 22.18, 180 44.36, 180 60 M180 60 C131.5 60, 82.99 60, 0 60 M180 60 C119.85 60, 59.69 60, 0 60 M0 60 C0 47.56, 0 35.13, 0 0 M0 60 C0 39.97, 0 19.93, 0 0" stroke="#2f9e44" stroke-width="2" fill="none"></path></g><g transform="translate(20 170) rotate(0 80 10)"><text x="80" y="NaN" font-family="Cascadia, Segoe UI Emoji" font-size="16px" fill="#2f9e44" text-anchor="middle" style="white-space: pre;" direction="ltr">Payment Service</text></g><g stroke-linecap="round" transform="translate(10 150) rotate(0 90 30)"><path d="M0 0 L180 0 L180 60 L0 60" stroke="none" stroke-width="0" fill="#b2f2bb"></path><path d="M0 0 C48.84 0, 97.68 0, 180 0 M0 0 C65.85 0, 131.7 0, 180 0 M180 0 C180 17.09, 180 34.18, 180 60 M180 0 C180 15.09, 180 30.19, 180 60 M180 60 C113.21 60, 46.41 60, 0 60 M180 60 C114.6 60, 49.19 60, 0 60 M0 60 C0 46.9, 0 33.79, 0 0 M0 60 C0 42.88, 0 25.76, 0 0" stroke="#2f9e44" stroke-width="2" fill="none"></path></g><g transform="translate(20 310) rotate(0 80 10)"><text x="80" y="NaN" font-family="Cascadia, Segoe UI Emoji" font-size="16px" fill="#2f9e44" text-anchor="middle" style="white-space: pre;" direction="ltr">User Service</text></g><g stroke-linecap="round" transform="translate(10 290) rotate(0 90 30)"><path d="M0 0 L180 0 L180 60 L0 60" stroke="none" stroke-width="0" fill="#b2f2bb"></path><path d="M0 0 C54.29 0, 108.58 0, 180 0 M0 0 C48.17 0, 96.34 0, 180 0 M180 0 C180 13.63, 180 27.26, 180 60 M180 0 C180 16.16, 180 32.33, 180 60 M180 60 C135.06 60, 90.12 60, 0 60 M180 60 C115.69 60, 51.39 60, 0 60 M0 60 C0 37.52, 0 15.03, 0 0 M0 60 C0 41.24, 0 22.48, 0 0" stroke="#2f9e44" stroke-width="2" fill="none"></path></g><g transform="translate(580 30) rotate(0 80 10)"><text x="80" y="NaN" font-family="Cascadia, Segoe UI Emoji" font-size="16px" fill="#1971c2" text-anchor="middle" style="white-space: pre;" direction="ltr">Notification</text></g><g stroke-linecap="round" transform="translate(570 10) rotate(0 90 30)"><path d="M0 0 L180 0 L180 60 L0 60" stroke="none" stroke-width="0" fill="#a5d8ff"></path><path d="M0 0 C57.59 0, 115.18 0, 180 0 M0 0 C65.36 0, 130.73 0, 180 0 M180 0 C180 22.95, 180 45.9, 180 60 M180 0 C180 18.49, 180 36.97, 180 60 M180 60 C132.53 60, 85.07 60, 0 60 M180 60 C143.63 60, 107.27 60, 0 60 M0 60 C0 45.86, 0 31.73, 0 0 M0 60 C0 43.49, 0 26.97, 0 0" stroke="#1971c2" stroke-width="2" fill="none"></path></g><g transform="translate(580 170) rotate(0 80 10)"><text x="80" y="NaN" font-family="Cascadia, Segoe UI Emoji" font-size="16px" fill="#1971c2" text-anchor="middle" style="white-space: pre;" direction="ltr">Analytics</text></g><g stroke-linecap="round" transform="translate(570 150) rotate(0 90 30)"><path d="M0 0 L180 0 L180 60 L0 60" stroke="none" stroke-width="0" fill="#a5d8ff"></path><path d="M0 0 C58.36 0, 116.73 0, 180 0 M0 0 C40.47 0, 80.95 0, 180 0 M180 0 C180 13.55, 180 27.1, 180 60 M180 0 C180 15.48, 180 30.97, 180 60 M180 60 C129.13 60, 78.27 60, 0 60 M180 60 C133.19 60, 86.38 60, 0 60 M0 60 C0 36.9, 0 13.81, 0 0 M0 60 C0 37.15, 0 14.3, 0 0" stroke="#1971c2" stroke-width="2" fill="none"></path></g><g transform="translate(580 310) rotate(0 80 10)"><text x="80" y="NaN" font-family="Cascadia, Segoe UI Emoji" font-size="16px" fill="#1971c2" text-anchor="middle" style="white-space: pre;" direction="ltr">Audit Logger</text></g><g stroke-linecap="round" transform="translate(570 290) rotate(0 90 30)"><path d="M0 0 L180 0 L180 60 L0 60" stroke="none" stroke-width="0" fill="#a5d8ff"></path><path d="M0 0 C62.06 0, 124.13 0, 180 0 M0 0 C52.29 0, 104.58 0, 180 0 M180 0 C180 14.59, 180 29.19, 180 60 M180 0 C180 23.27, 180 46.55, 180 60 M180 60 C128.42 60, 76.85 60, 0 60 M180 60 C140.47 60, 100.94 60, 0 60 M0 60 C0 42.33, 0 24.67, 0 0 M0 60 C0 44.39, 0 28.77, 0 0" stroke="#1971c2" stroke-width="2" fill="none"></path></g><g transform="translate(210 115) rotate(0 30 10)"><text x="30" y="NaN" font-family="Cascadia, Segoe UI Emoji" font-size="12px" fill="#868e96" text-anchor="middle" style="white-space: pre;" direction="ltr">publish</text></g><g stroke-linecap="round"><g transform="translate(190 40) rotate(0 50 85)"><path d="M0 0 C16.67 28.33, 83.33 141.67, 100 170 M0 0 C16.67 28.33, 83.33 141.67, 100 170" stroke="#868e96" stroke-width="2" fill="none"></path></g><g transform="translate(190 40) rotate(0 50 85)"><path d="M76.86 150.9 C81.57 154.78, 86.27 158.67, 100 170 M76.86 150.9 C84.42 157.14, 91.97 163.37, 100 170" stroke="#868e96" stroke-width="2" fill="none"></path></g><g transform="translate(190 40) rotate(0 50 85)"><path d="M94.55 140.5 C95.66 146.5, 96.77 152.49, 100 170 M94.55 140.5 C96.33 150.13, 98.11 159.76, 100 170" stroke="#868e96" stroke-width="2" fill="none"></path></g></g><g transform="translate(210 185) rotate(0 30 10)"><text x="30" y="NaN" font-family="Cascadia, Segoe UI Emoji" font-size="12px" fill="#868e96" text-anchor="middle" style="white-space: pre;" direction="ltr">publish</text></g><g stroke-linecap="round"><g transform="translate(190 180) rotate(0 50 15)"><path d="M0 0 C16.67 5, 83.33 25, 100 30 M0 0 C16.67 5, 83.33 25, 100 30" stroke="#868e96" stroke-width="2" fill="none"></path></g><g transform="translate(190 180) rotate(0 50 15)"><path d="M70.05 31.73 C80.7 31.11, 91.35 30.5, 100 30 M70.05 31.73 C80.08 31.15, 90.1 30.57, 100 30" stroke="#868e96" stroke-width="2" fill="none"></path></g><g transform="translate(190 180) rotate(0 50 15)"><path d="M75.95 12.07 C84.5 18.45, 93.06 24.82, 100 30 M75.95 12.07 C84 18.07, 92.05 24.08, 100 30" stroke="#868e96" stroke-width="2" fill="none"></path></g></g><g transform="translate(210 255) rotate(0 30 10)"><text x="30" y="NaN" font-family="Cascadia, Segoe UI Emoji" font-size="12px" fill="#868e96" text-anchor="middle" style="white-space: pre;" direction="ltr">publish</text></g><g stroke-linecap="round"><g transform="translate(190 320) rotate(0 50 -55)"><path d="M0 0 C16.67 -18.33, 83.33 -91.67, 100 -110 M0 0 C16.67 -18.33, 83.33 -91.67, 100 -110" stroke="#868e96" stroke-width="2" fill="none"></path></g><g transform="translate(190 320) rotate(0 50 -55)"><path d="M88.63 -82.24 C92.9 -92.66, 97.17 -103.08, 100 -110 M88.63 -82.24 C92.48 -91.64, 96.33 -101.03, 100 -110" stroke="#868e96" stroke-width="2" fill="none"></path></g><g transform="translate(190 320) rotate(0 50 -55)"><path d="M73.44 -96.04 C83.41 -101.28, 93.38 -106.52, 100 -110 M73.44 -96.04 C82.43 -100.77, 91.42 -105.49, 100 -110" stroke="#868e96" stroke-width="2" fill="none"></path></g></g><g transform="translate(508.5 115) rotate(0 31.5 10)"><text x="31.5" y="NaN" font-family="Cascadia, Segoe UI Emoji" font-size="12px" fill="#868e96" text-anchor="middle" style="white-space: pre;" direction="ltr">subscribe</text></g><g stroke-linecap="round"><g transform="translate(510 210) rotate(0 30 -85)"><path d="M0 0 C10 -28.33, 50 -141.67, 60 -170" stroke="#868e96" stroke-width="2.5" fill="none" stroke-dasharray="8 10"></path></g><g transform="translate(510 210) rotate(0 30 -85)"><path d="M60.29 -140 C60.19 -150.26, 60.09 -160.51, 60 -170" stroke="#868e96" stroke-width="2.5" fill="none"></path></g><g transform="translate(510 210) rotate(0 30 -85)"><path d="M40.94 -146.83 C47.46 -154.75, 53.97 -162.67, 60 -170" stroke="#868e96" stroke-width="2.5" fill="none"></path></g></g><g transform="translate(508.5 185) rotate(0 31.5 10)"><text x="31.5" y="NaN" font-family="Cascadia, Segoe UI Emoji" font-size="12px" fill="#868e96" text-anchor="middle" style="white-space: pre;" direction="ltr">subscribe</text></g><g stroke-linecap="round"><g transform="translate(510 210) rotate(0 30 -15)"><path d="M0 0 C10 -5, 50 -25, 60 -30" stroke="#868e96" stroke-width="2.5" fill="none" stroke-dasharray="8 10"></path></g><g transform="translate(510 210) rotate(0 30 -15)"><path d="M39.37 -8.22 C43.94 -13.04, 48.51 -17.86, 60 -30" stroke="#868e96" stroke-width="2.5" fill="none"></path></g><g transform="translate(510 210) rotate(0 30 -15)"><path d="M30.2 -26.57 C36.79 -27.33, 43.39 -28.09, 60 -30" stroke="#868e96" stroke-width="2.5" fill="none"></path></g></g><g transform="translate(508.5 255) rotate(0 31.5 10)"><text x="31.5" y="NaN" font-family="Cascadia, Segoe UI Emoji" font-size="12px" fill="#868e96" text-anchor="middle" style="white-space: pre;" direction="ltr">subscribe</text></g><g stroke-linecap="round"><g transform="translate(510 210) rotate(0 30 55)"><path d="M0 0 C10 18.33, 50 91.67, 60 110" stroke="#868e96" stroke-width="2.5" fill="none" stroke-dasharray="8 10"></path></g><g transform="translate(510 210) rotate(0 30 55)"><path d="M37.49 90.16 C46.07 97.72, 54.65 105.28, 60 110" stroke="#868e96" stroke-width="2.5" fill="none"></path></g><g transform="translate(510 210) rotate(0 30 55)"><path d="M55.51 80.34 C57.22 91.64, 58.93 102.94, 60 110" stroke="#868e96" stroke-width="2.5" fill="none"></path></g></g></svg>