<svg version="1.1" xmlns="http://www.w3.org/2000/svg" viewBox="0 0 1060 640" width="1060" height="640">
  <!-- svg-source:excalidraw -->
  
  <defs>
    <style>
      @font-face {
        font-family: "Virgil";
        src: url("https://excalidraw.com/Virgil.woff2");
      }
      @font-face {
        font-family: "Cascadia";
        src: url("https://excalidraw.com/Cascadia.woff2");
      }
    </style>
  </defs>
  <rect x="0" y="0" width="1060" height="640" fill="#ffffff"></rect><g transform="translate(110 10) rotate(0 294 17.5)"><text x="0" y="NaN" font-family="Cascadia, Segoe UI Emoji" font-size="28px" fill="#343a40" text-anchor="start" style="white-space: pre;" direction="ltr">Excalidraw Diagram Generator (Meta)</text></g><g transform="translate(20 132.5) rotate(0 90 17.5)"><text x="90" y="NaN" font-family="Cascadia, Segoe UI Emoji" font-size="14px" fill="#7048e8" text-anchor="middle" style="white-space: pre;" direction="ltr">excalidraw</text><text x="90" y="NaN" font-family="Cascadia, Segoe UI Emoji" font-size="14px" fill="#7048e8" text-anchor="middle" style="white-space: pre;" direction="ltr">_generator.py</text></g><g stroke-linecap="round" transform="translate(10 110) rotate(0 100 40)"><path d="M0 0 L200 0 L200 80 L0 80" stroke="none" stroke-width="0" fill="#d0bfff"></path><path d="M0 0 C41.64 0, 83.29 0, 200 0 M0 0 C72.33 0, 144.67 0, 200 0 M200 0 C200 17.46, 200 34.92, 200 80 M200 0 C200 17.1, 200 34.21, 200 80 M200 80 C133.63 80, 67.26 80, 0 80 M200 80 C148.04 80, 96.07 80, 0 80 M0 80 C0 54.64, 0 29.27, 0 0 M0 80 C0 63.66, 0 47.32, 0 0" stroke="#7048e8" stroke-width="2" fill="none"></path></g><g transform="translate(300 132.5) rotate(0 90 17.5)"><text x="90" y="NaN" font-family="Cascadia, Segoe UI Emoji" font-size="14px" fill="#1971c2" text-anchor="middle" style="white-space: pre;" direction="ltr">Generate</text><text x="90" y="NaN" font-family="Cascadia, Segoe UI Emoji" font-size="14px" fill="#1971c2" text-anchor="middle" style="white-space: pre;" direction="ltr">Scripts</text></g><g stroke-linecap="round" transform="translate(290 110) rotate(0 100 40)"><path d="M0 0 L200 0 L200 80 L0 80" stroke="none" stroke-width="0" fill="#a5d8ff"></path><path d="M0 0 C45.09 0, 90.18 0, 200 0 M0 0 C58.67 0, 117.34 0, 200 0 M200 0 C200 22.64, 200 45.27, 200 80 M200 0 C200 19.86, 200 39.71, 200 80 M200 80 C156.79 80, 113.57 80, 0 80 M200 80 C120.36 80, 40.72 80, 0 80 M0 80 C0 61.45, 0 42.91, 0 0 M0 80 C0 60.48, 0 40.97, 0 0" stroke="#1971c2" stroke-width="2" fill="none"></path></g><g transform="translate(220 140) rotate(0 30 10)"><text x="30" y="NaN" font-family="Cascadia, Segoe UI Emoji" font-size="12px" fill="#868e96" text-anchor="middle" style="white-space: pre;" direction="ltr">import</text></g><g stroke-linecap="round"><g transform="translate(210 150) rotate(0 40 0)"><path d="M0 0 C13.33 0, 66.67 0, 80 0 M0 0 C13.33 0, 66.67 0, 80 0" stroke="#868e96" stroke-width="2" fill="none"></path></g><g transform="translate(210 150) rotate(0 40 0)"><path d="M51.81 10.26 C58.03 8, 64.24 5.73, 80 0 M51.81 10.26 C59.52 7.45, 67.24 4.65, 80 0" stroke="#868e96" stroke-width="2" fill="none"></path></g><g transform="translate(210 150) rotate(0 40 0)"><path d="M51.81 -10.26 C58.03 -8, 64.24 -5.73, 80 0 M51.81 -10.26 C59.52 -7.45, 67.24 -4.65, 80 0" stroke="#868e96" stroke-width="2" fill="none"></path></g></g><g transform="translate(580 132.5) rotate(0 90 17.5)"><text x="90" y="NaN" font-family="Cascadia, Segoe UI Emoji" font-size="14px" fill="#1971c2" text-anchor="middle" style="white-space: pre;" direction="ltr">.excalidraw.md</text><text x="90" y="NaN" font-family="Cascadia, Segoe UI Emoji" font-size="14px" fill="#1971c2" text-anchor="middle" style="white-space: pre;" direction="ltr">Files</text></g><g stroke-linecap="round" transform="translate(570 110) rotate(0 100 40)"><path d="M0 0 L200 0 L200 80 L0 80" stroke="none" stroke-width="0" fill="#a5d8ff"></path><path d="M0 0 C60.76 0, 121.51 0, 200 0 M0 0 C54.3 0, 108.6 0, 200 0 M200 0 C200 22.7, 200 45.39, 200 80 M200 0 C200 30.11, 200 60.22, 200 80 M200 80 C123.82 80, 47.65 80, 0 80 M200 80 C155.48 80, 110.96 80, 0 80 M0 80 C0 55.16, 0 30.33, 0 0 M0 80 C0 57.08, 0 34.17, 0 0" stroke="#1971c2" stroke-width="2" fill="none"></path></g><g transform="translate(500 140) rotate(0 30 10)"><text x="30" y="NaN" font-family="Cascadia, Segoe UI Emoji" font-size="12px" fill="#868e96" text-anchor="middle" style="white-space: pre;" direction="ltr">produce</text></g><g stroke-linecap="round"><g transform="translate(490 150) rotate(0 40 0)"><path d="M0 0 C13.33 0, 66.67 0, 80 0 M0 0 C13.33 0, 66.67 0, 80 0" stroke="#868e96" stroke-width="2" fill="none"></path></g><g transform="translate(490 150) rotate(0 40 0)"><path d="M51.81 10.26 C58.67 7.76, 65.53 5.27, 80 0 M51.81 10.26 C61.65 6.68, 71.48 3.1, 80 0" stroke="#868e96" stroke-width="2" fill="none"></path></g><g transform="translate(490 150) rotate(0 40 0)"><path d="M51.81 -10.26 C58.67 -7.76, 65.53 -5.27, 80 0 M51.81 -10.26 C61.65 -6.68, 71.48 -3.1, 80 0" stroke="#868e96" stroke-width="2" fill="none"></path></g></g><g transform="translate(860 132.5) rotate(0 90 17.5)"><text x="90" y="NaN" font-family="Cascadia, Segoe UI Emoji" font-size="14px" fill="#2f9e44" text-anchor="middle" style="white-space: pre;" direction="ltr">Obsidian</text><text x="90" y="NaN" font-family="Cascadia, Segoe UI Emoji" font-size="14px" fill="#2f9e44" text-anchor="middle" style="white-space: pre;" direction="ltr">Vault</text></g><g stroke-linecap="round" transform="translate(850 110) rotate(0 100 40)"><path d="M0 0 L200 0 L200 80 L0 80" stroke="none" stroke-width="0" fill="#b2f2bb"></path><path d="M0 0 C48.94 0, 97.87 0, 200 0 M0 0 C44.98 0, 89.96 0, 200 0 M200 0 C200 30.75, 200 61.49, 200 80 M200 0 C200 19.99, 200 39.98, 200 80 M200 80 C131 80, 62 80, 0 80 M200 80 C138.93 80, 77.86 80, 0 80 M0 80 C0 58.99, 0 37.99, 0 0 M0 80 C0 54.94, 0 29.88, 0 0" stroke="#2f9e44" stroke-width="2" fill="none"></path></g><g transform="translate(780 140) rotate(0 30 10)"><text x="30" y="NaN" font-family="Cascadia, Segoe UI Emoji" font-size="12px" fill="#868e96" text-anchor="middle" style="white-space: pre;" direction="ltr">render</text></g><g stroke-linecap="round"><g transform="translate(770 150) rotate(0 40 0)"><path d="M0 0 C13.33 0, 66.67 0, 80 0 M0 0 C13.33 0, 66.67 0, 80 0" stroke="#868e96" stroke-width="2" fill="none"></path></g><g transform="translate(770 150) rotate(0 40 0)"><path d="M51.81 10.26 C62.35 6.42, 72.89 2.59, 80 0 M51.81 10.26 C58.27 7.91, 64.73 5.56, 80 0" stroke="#868e96" stroke-width="2" fill="none"></path></g><g transform="translate(770 150) rotate(0 40 0)"><path d="M51.81 -10.26 C62.35 -6.42, 72.89 -2.59, 80 0 M51.81 -10.26 C58.27 -7.91, 64.73 -5.56, 80 0" stroke="#868e96" stroke-width="2" fill="none"></path></g></g><g transform="translate(10 270) rotate(0 85.8 13.75)"><text x="0" y="NaN" font-family="Cascadia, Segoe UI Emoji" font-size="22px" fill="#343a40" text-anchor="start" style="white-space: pre;" direction="ltr">Generator API</text></g><g transform="translate(20 328.75) rotate(0 90 16.25)"><text x="90" y="NaN" font-family="Cascadia, Segoe UI Emoji" font-size="13px" fill="#7048e8" text-anchor="middle" style="white-space: pre;" direction="ltr">ExcalidrawDiagram</text><text x="90" y="NaN" font-family="Cascadia, Segoe UI Emoji" font-size="13px" fill="#7048e8" text-anchor="middle" style="white-space: pre;" direction="ltr">class</text></g><g stroke-linecap="round" transform="translate(10 310) rotate(0 100 35)"><path d="M0 0 L200 0 L200 70 L0 70" stroke="none" stroke-width="0" fill="#d0bfff"></path><path d="M0 0 C66.98 0, 133.95 0, 200 0 M0 0 C61.55 0, 123.1 0, 200 0 M200 0 C200 17.66, 200 35.33, 200 70 M200 0 C200 27.34, 200 54.68, 200 70 M200 70 C139.95 70, 79.91 70, 0 70 M200 70 C120.16 70, 40.32 70, 0 70 M0 70 C0 42.6, 0 15.19, 0 0 M0 70 C0 55.37, 0 40.73, 0 0" stroke="#7048e8" stroke-width="2" fill="none"></path></g><g transform="translate(260 328.75) rotate(0 90 16.25)"><text x="90" y="NaN" font-family="Cascadia, Segoe UI Emoji" font-size="13px" fill="#7048e8" text-anchor="middle" style="white-space: pre;" direction="ltr">Shape Methods</text><text x="90" y="NaN" font-family="Cascadia, Segoe UI Emoji" font-size="13px" fill="#7048e8" text-anchor="middle" style="white-space: pre;" direction="ltr">rect/ellipse/diamond</text></g><g stroke-linecap="round" transform="translate(250 310) rotate(0 100 35)"><path d="M0 0 L200 0 L200 70 L0 70" stroke="none" stroke-width="0" fill="#d0bfff"></path><path d="M0 0 C60 0, 120 0, 200 0 M0 0 C44.66 0, 89.33 0, 200 0 M200 0 C200 18.69, 200 37.38, 200 70 M200 0 C200 21.15, 200 42.3, 200 70 M200 70 C144.6 70, 89.21 70, 0 70 M200 70 C145.35 70, 90.7 70, 0 70 M0 70 C0 54.22, 0 38.44, 0 0 M0 70 C0 47.72, 0 25.44, 0 0" stroke="#7048e8" stroke-width="2" fill="none"></path></g><g transform="translate(500 328.75) rotate(0 90 16.25)"><text x="90" y="NaN" font-family="Cascadia, Segoe UI Emoji" font-size="13px" fill="#7048e8" text-anchor="middle" style="white-space: pre;" direction="ltr">Arrow Routing</text><text x="90" y="NaN" font-family="Cascadia, Segoe UI Emoji" font-size="13px" fill="#7048e8" text-anchor="middle" style="white-space: pre;" direction="ltr">2-point binding</text></g><g stroke-linecap="round" transform="translate(490 310) rotate(0 100 35)"><path d="M0 0 L200 0 L200 70 L0 70" stroke="none" stroke-width="0" fill="#d0bfff"></path><path d="M0 0 C46.75 0, 93.5 0, 200 0 M0 0 C57.12 0, 114.23 0, 200 0 M200 0 C200 21.53, 200 43.06, 200 70 M200 0 C200 26.04, 200 52.09, 200 70 M200 70 C148.49 70, 96.99 70, 0 70 M200 70 C122.97 70, 45.93 70, 0 70 M0 70 C0 55.47, 0 40.94, 0 0 M0 70 C0 48.51, 0 27.01, 0 0" stroke="#7048e8" stroke-width="2" fill="none"></path></g><g transform="translate(740 328.75) rotate(0 90 16.25)"><text x="90" y="NaN" font-family="Cascadia, Segoe UI Emoji" font-size="13px" fill="#7048e8" text-anchor="middle" style="white-space: pre;" direction="ltr">Layout Helpers</text><text x="90" y="NaN" font-family="Cascadia, Segoe UI Emoji" font-size="13px" fill="#7048e8" text-anchor="middle" style="white-space: pre;" direction="ltr">hub_spoke/flow_*</text></g><g stroke-linecap="round" transform="translate(730 310) rotate(0 100 35)"><path d="M0 0 L200 0 L200 70 L0 70" stroke="none" stroke-width="0" fill="#d0bfff"></path><path d="M0 0 C59.4 0, 118.8 0, 200 0 M0 0 C48.94 0, 97.89 0, 200 0 M200 0 C200 25.63, 200 51.25, 200 70 M200 0 C200 20.93, 200 41.85, 200 70 M200 70 C136.84 70, 73.67 70, 0 70 M200 70 C147.84 70, 95.68 70, 0 70 M0 70 C0 42.89, 0 15.79, 0 0 M0 70 C0 42.15, 0 14.3, 0 0" stroke="#7048e8" stroke-width="2" fill="none"></path></g><g transform="translate(10 430) rotate(0 118.80000000000001 13.75)"><text x="0" y="NaN" font-family="Cascadia, Segoe UI Emoji" font-size="22px" fill="#343a40" text-anchor="start" style="white-space: pre;" direction="ltr">Generation Scripts</text></g><g transform="translate(20 487.5) rotate(0 70 7.5)"><text x="70" y="NaN" font-family="Cascadia, Segoe UI Emoji" font-size="12px" fill="#1971c2" text-anchor="middle" style="white-space: pre;" direction="ltr">gen_knowledge</text></g><g stroke-linecap="round" transform="translate(10 470) rotate(0 80 25)"><path d="M0 0 L160 0 L160 50 L0 50" stroke="none" stroke-width="0" fill="#a5d8ff"></path><path d="M0 0 C34.24 0, 68.48 0, 160 0 M0 0 C57 0, 114 0, 160 0 M160 0 C160 11.28, 160 22.57, 160 50 M160 0 C160 13.28, 160 26.56, 160 50 M160 50 C106.35 50, 52.71 50, 0 50 M160 50 C104.07 50, 48.13 50, 0 50 M0 50 C0 30.28, 0 10.56, 0 0 M0 50 C0 30.29, 0 10.58, 0 0" stroke="#1971c2" stroke-width="2" fill="none"></path></g><g transform="translate(220 487.5) rotate(0 70 7.5)"><text x="70" y="NaN" font-family="Cascadia, Segoe UI Emoji" font-size="12px" fill="#1971c2" text-anchor="middle" style="white-space: pre;" direction="ltr">gen_automation</text></g><g stroke-linecap="round" transform="translate(210 470) rotate(0 80 25)"><path d="M0 0 L160 0 L160 50 L0 50" stroke="none" stroke-width="0" fill="#a5d8ff"></path><path d="M0 0 C32.56 0, 65.12 0, 160 0 M0 0 C50.87 0, 101.74 0, 160 0 M160 0 C160 18.73, 160 37.46, 160 50 M160 0 C160 16.52, 160 33.04, 160 50 M160 50 C120.91 50, 81.81 50, 0 50 M160 50 C126.09 50, 92.17 50, 0 50 M0 50 C0 39.98, 0 29.97, 0 0 M0 50 C0 33.24, 0 16.47, 0 0" stroke="#1971c2" stroke-width="2" fill="none"></path></g><g transform="translate(420 487.5) rotate(0 70 7.5)"><text x="70" y="NaN" font-family="Cascadia, Segoe UI Emoji" font-size="12px" fill="#1971c2" text-anchor="middle" style="white-space: pre;" direction="ltr">gen_infra</text></g><g stroke-linecap="round" transform="translate(410 470) rotate(0 80 25)"><path d="M0 0 L160 0 L160 50 L0 50" stroke="none" stroke-width="0" fill="#a5d8ff"></path><path d="M0 0 C60.38 0, 120.77 0, 160 0 M0 0 C55.18 0, 110.36 0, 160 0 M160 0 C160 19.37, 160 38.74, 160 50 M160 0 C160 12.73, 160 25.46, 160 50 M160 50 C115.56 50, 71.11 50, 0 50 M160 50 C100.43 50, 40.86 50, 0 50 M0 50 C0 36.7, 0 23.4, 0 0 M0 50 C0 34.5, 0 19.01, 0 0" stroke="#1971c2" stroke-width="2" fill="none"></path></g><g transform="translate(620 487.5) rotate(0 70 7.5)"><text x="70" y="NaN" font-family="Cascadia, Segoe UI Emoji" font-size="12px" fill="#1971c2" text-anchor="middle" style="white-space: pre;" direction="ltr">generate_arch</text></g><g stroke-linecap="round" transform="translate(610 470) rotate(0 80 25)"><path d="M0 0 L160 0 L160 50 L0 50" stroke="none" stroke-width="0" fill="#a5d8ff"></path><path d="M0 0 C46.8 0, 93.59 0, 160 0 M0 0 C49.29 0, 98.58 0, 160 0 M160 0 C160 16.27, 160 32.54, 160 50 M160 0 C160 13.03, 160 26.06, 160 50 M160 50 C106.73 50, 53.45 50, 0 50 M160 50 C123.44 50, 86.89 50, 0 50 M0 50 C0 33.82, 0 17.63, 0 0 M0 50 C0 39.84, 0 29.69, 0 0" stroke="#1971c2" stroke-width="2" fill="none"></path></g><g transform="translate(820 487.5) rotate(0 70 7.5)"><text x="70" y="NaN" font-family="Cascadia, Segoe UI Emoji" font-size="12px" fill="#1971c2" text-anchor="middle" style="white-space: pre;" direction="ltr">regenerate_12</text></g><g stroke-linecap="round" transform="translate(810 470) rotate(0 80 25)"><path d="M0 0 L160 0 L160 50 L0 50" stroke="none" stroke-width="0" fill="#a5d8ff"></path><path d="M0 0 C58.54 0, 117.08 0, 160 0 M0 0 C40.09 0, 80.18 0, 160 0 M160 0 C160 19.04, 160 38.08, 160 50 M160 0 C160 11.28, 160 22.55, 160 50 M160 50 C109.68 50, 59.37 50, 0 50 M160 50 C97.62 50, 35.24 50, 0 50 M0 50 C0 36.35, 0 22.71, 0 0 M0 50 C0 36.93, 0 23.87, 0 0" stroke="#1971c2" stroke-width="2" fill="none"></path></g><g transform="translate(260 590) rotate(0 190 10)"><text x="190" y="NaN" font-family="Cascadia, Segoe UI Emoji" font-size="16px" fill="#2f9e44" text-anchor="middle" style="white-space: pre;" direction="ltr">45+ diagrams in Excalidraw/ folder</text></g><g stroke-linecap="round" transform="translate(250 570) rotate(0 200 30)"><path d="M0 0 L400 0 L400 60 L0 60" stroke="none" stroke-width="0" fill="#b2f2bb"></path><path d="M0 0 C138.81 0, 277.63 0, 400 0 M0 0 C123.33 0, 246.66 0, 400 0 M400 0 C400 23.8, 400 47.6, 400 60 M400 0 C400 23.8, 400 47.59, 400 60 M400 60 C248.49 60, 96.98 60, 0 60 M400 60 C263.34 60, 126.68 60, 0 60 M0 60 C0 45.31, 0 30.63, 0 0 M0 60 C0 45.78, 0 31.56, 0 0" stroke="#2f9e44" stroke-width="2" fill="none"></path></g></svg>