<svg version="1.1" xmlns="http://www.w3.org/2000/svg" viewBox="0 0 220 500" width="220" height="500">
  <!-- svg-source:excalidraw -->
  
  <defs>
    <style>
      @font-face {
        font-family: "Virgil";
        src: url("https://excalidraw.com/Virgil.woff2");
      }
      @font-face {
        font-family: "Cascadia";
        src: url("https://excalidraw.com/Cascadia.woff2");
      }
    </style>
  </defs>
  <rect x="0" y="0" width="220" height="500" fill="#ffffff"></rect><g transform="translate(20 31.25) rotate(0 90 8.75)"><text x="90" y="NaN" font-family="Cascadia, Segoe UI Emoji" font-size="14px" fill="#1971c2" text-anchor="middle" style="white-space: pre;" direction="ltr">Frontend</text></g><g stroke-linecap="round" transform="translate(10 10) rotate(0 100 30)"><path d="M0 0 L200 0 L200 60 L0 60" stroke="none" stroke-width="0" fill="#a5d8ff"></path><path d="M0 0 C64.54 0, 129.07 0, 200 0 M0 0 C47.32 0, 94.64 0, 200 0 M200 0 C200 12.57, 200 25.14, 200 60 M200 0 C200 23.31, 200 46.61, 200 60 M200 60 C131.96 60, 63.93 60, 0 60 M200 60 C153.11 60, 106.21 60, 0 60 M0 60 C0 44.95, 0 29.91, 0 0 M0 60 C0 41.07, 0 22.14, 0 0" stroke="#1971c2" stroke-width="2" fill="none"></path></g><g transform="translate(20 171.25) rotate(0 90 8.75)"><text x="90" y="NaN" font-family="Cascadia, Segoe UI Emoji" font-size="14px" fill="#1971c2" text-anchor="middle" style="white-space: pre;" direction="ltr">API</text></g><g stroke-linecap="round" transform="translate(10 150) rotate(0 100 30)"><path d="M0 0 L200 0 L200 60 L0 60" stroke="none" stroke-width="0" fill="#a5d8ff"></path><path d="M0 0 C72.43 0, 144.86 0, 200 0 M0 0 C56.72 0, 113.45 0, 200 0 M200 0 C200 19.78, 200 39.56, 200 60 M200 0 C200 21.81, 200 43.63, 200 60 M200 60 C132.93 60, 65.86 60, 0 60 M200 60 C138.81 60, 77.62 60, 0 60 M0 60 C0 41.35, 0 22.7, 0 0 M0 60 C0 37.92, 0 15.83, 0 0" stroke="#1971c2" stroke-width="2" fill="none"></path></g><g stroke-linecap="round"><g transform="translate(110 70) rotate(0 0 40)"><path d="M0 0 C0 13.33, 0 66.67, 0 80 M0 0 C0 13.33, 0 66.67, 0 80" stroke="#868e96" stroke-width="2" fill="none"></path></g><g transform="translate(110 70) rotate(0 0 40)"><path d="M-10.26 51.81 C-7.17 60.31, -4.07 68.81, 0 80 M-10.26 51.81 C-8.2 57.48, -6.13 63.16, 0 80" stroke="#868e96" stroke-width="2" fill="none"></path></g><g transform="translate(110 70) rotate(0 0 40)"><path d="M10.26 51.81 C7.17 60.31, 4.07 68.81, 0 80 M10.26 51.81 C8.2 57.48, 6.13 63.16, 0 80" stroke="#868e96" stroke-width="2" fill="none"></path></g></g><g transform="translate(20 311.25) rotate(0 90 8.75)"><text x="90" y="NaN" font-family="Cascadia, Segoe UI Emoji" font-size="14px" fill="#2f9e44" text-anchor="middle" style="white-space: pre;" direction="ltr">Services</text></g><g stroke-linecap="round" transform="translate(10 290) rotate(0 100 30)"><path d="M0 0 L200 0 L200 60 L0 60" stroke="none" stroke-width="0" fill="#b2f2bb"></path><path d="M0 0 C61.43 0, 122.87 0, 200 0 M0 0 C65.66 0, 131.32 0, 200 0 M200 0 C200 17.81, 200 35.62, 200 60 M200 0 C200 13.58, 200 27.15, 200 60 M200 60 C135.96 60, 71.93 60, 0 60 M200 60 C125.19 60, 50.39 60, 0 60 M0 60 C0 40.61, 0 21.22, 0 0 M0 60 C0 40.88, 0 21.77, 0 0" stroke="#2f9e44" stroke-width="2" fill="none"></path></g><g stroke-linecap="round"><g transform="translate(110 210) rotate(0 0 40)"><path d="M0 0 C0 13.33, 0 66.67, 0 80 M0 0 C0 13.33, 0 66.67, 0 80" stroke="#868e96" stroke-width="2" fill="none"></path></g><g transform="translate(110 210) rotate(0 0 40)"><path d="M-10.26 51.81 C-6.53 62.06, -2.8 72.32, 0 80 M-10.26 51.81 C-7.72 58.79, -5.18 65.76, 0 80" stroke="#868e96" stroke-width="2" fill="none"></path></g><g transform="translate(110 210) rotate(0 0 40)"><path d="M10.26 51.81 C6.53 62.06, 2.8 72.32, 0 80 M10.26 51.81 C7.72 58.79, 5.18 65.76, 0 80" stroke="#868e96" stroke-width="2" fill="none"></path></g></g><g transform="translate(20 451.25) rotate(0 90 8.75)"><text x="90" y="NaN" font-family="Cascadia, Segoe UI Emoji" font-size="14px" fill="#7048e8" text-anchor="middle" style="white-space: pre;" direction="ltr">Database</text></g><g stroke-linecap="round" transform="translate(10 430) rotate(0 100 30)"><path d="M0 0 L200 0 L200 60 L0 60" stroke="none" stroke-width="0" fill="#d0bfff"></path><path d="M0 0 C61.62 0, 123.24 0, 200 0 M0 0 C43.43 0, 86.85 0, 200 0 M200 0 C200 16.83, 200 33.65, 200 60 M200 0 C200 19.58, 200 39.15, 200 60 M200 60 C136.43 60, 72.86 60, 0 60 M200 60 C141.48 60, 82.95 60, 0 60 M0 60 C0 36.12, 0 12.23, 0 0 M0 60 C0 43.04, 0 26.08, 0 0" stroke="#7048e8" stroke-width="2" fill="none"></path></g><g stroke-linecap="round"><g transform="translate(110 350) rotate(0 0 40)"><path d="M0 0 C0 13.33, 0 66.67, 0 80 M0 0 C0 13.33, 0 66.67, 0 80" stroke="#868e96" stroke-width="2" fill="none"></path></g><g transform="translate(110 350) rotate(0 0 40)"><path d="M-10.26 51.81 C-7.58 59.16, -4.91 66.52, 0 80 M-10.26 51.81 C-7.51 59.37, -4.76 66.93, 0 80" stroke="#868e96" stroke-width="2" fill="none"></path></g><g transform="translate(110 350) rotate(0 0 40)"><path d="M10.26 51.81 C7.58 59.16, 4.91 66.52, 0 80 M10.26 51.81 C7.51 59.37, 4.76 66.93, 0 80" stroke="#868e96" stroke-width="2" fill="none"></path></g></g></svg>