<svg version="1.1" xmlns="http://www.w3.org/2000/svg" viewBox="0 0 720 640" width="720" height="640">
  <!-- svg-source:excalidraw -->
  
  <defs>
    <style>
      @font-face {
        font-family: "Virgil";
        src: url("https://excalidraw.com/Virgil.woff2");
      }
      @font-face {
        font-family: "Cascadia";
        src: url("https://excalidraw.com/Cascadia.woff2");
      }
    </style>
  </defs>
  <rect x="0" y="0" width="720" height="640" fill="#ffffff"></rect><g transform="translate(260 318.75) rotate(0 80 11.25)"><text x="80" y="NaN" font-family="Cascadia, Segoe UI Emoji" font-size="18px" fill="#1971c2" text-anchor="middle" style="white-space: pre;" direction="ltr">Memory System</text></g><g stroke-linecap="round" transform="translate(250 290) rotate(0 90 40)"><path d="M0 0 L180 0 L180 80 L0 80" stroke="none" stroke-width="0" fill="#a5d8ff"></path><path d="M0 0 C42.01 0, 84.02 0, 180 0 M0 0 C43.52 0, 87.04 0, 180 0 M180 0 C180 16.43, 180 32.85, 180 80 M180 0 C180 20.75, 180 41.51, 180 80 M180 80 C124.9 80, 69.81 80, 0 80 M180 80 C118.81 80, 57.63 80, 0 80 M0 80 C0 52.58, 0 25.15, 0 0 M0 80 C0 55.54, 0 31.08, 0 0" stroke="#1971c2" stroke-width="2" fill="none"></path></g><g transform="translate(300 31.25) rotate(0 60 8.75)"><text x="60" y="NaN" font-family="Cascadia, Segoe UI Emoji" font-size="14px" fill="#0c8599" text-anchor="middle" style="white-space: pre;" direction="ltr">ChromaDB</text></g><g stroke-linecap="round" transform="translate(290 10) rotate(0 70 30)"><path d="M0 0 L140 0 L140 60 L0 60" stroke="none" stroke-width="0" fill="#99e9f2"></path><path d="M0 0 C47.87 0, 95.75 0, 140 0 M0 0 C51.15 0, 102.3 0, 140 0 M140 0 C140 14.61, 140 29.22, 140 60 M140 0 C140 13, 140 26, 140 60 M140 60 C106.78 60, 73.56 60, 0 60 M140 60 C100.23 60, 60.47 60, 0 60 M0 60 C0 42.89, 0 25.79, 0 0 M0 60 C0 45.72, 0 31.45, 0 0" stroke="#0c8599" stroke-width="2" fill="none"></path></g><g stroke-linecap="round"><g transform="translate(340 290) rotate(0 10 -110)"><path d="M0 0 C3.33 -36.67, 16.67 -183.33, 20 -220 M0 0 C3.33 -36.67, 16.67 -183.33, 20 -220" stroke="#868e96" stroke-width="1" fill="none"></path></g><g transform="translate(340 290) rotate(0 10 -110)"><path d="M27.67 -191 C24.77 -201.97, 21.87 -212.94, 20 -220 M27.67 -191 C25.22 -200.26, 22.77 -209.53, 20 -220" stroke="#868e96" stroke-width="1" fill="none"></path></g><g transform="translate(340 290) rotate(0 10 -110)"><path d="M7.23 -192.85 C12.06 -203.12, 16.89 -213.39, 20 -220 M7.23 -192.85 C11.31 -201.53, 15.39 -210.2, 20 -220" stroke="#868e96" stroke-width="1" fill="none"></path></g></g><g transform="translate(580 311.25) rotate(0 60 8.75)"><text x="60" y="NaN" font-family="Cascadia, Segoe UI Emoji" font-size="14px" fill="#0c8599" text-anchor="middle" style="white-space: pre;" direction="ltr">PyTorch</text></g><g stroke-linecap="round" transform="translate(570 290) rotate(0 70 30)"><path d="M0 0 L140 0 L140 60 L0 60" stroke="none" stroke-width="0" fill="#99e9f2"></path><path d="M0 0 C42.14 0, 84.27 0, 140 0 M0 0 C33.56 0, 67.12 0, 140 0 M140 0 C140 16.14, 140 32.28, 140 60 M140 0 C140 22.99, 140 45.98, 140 60 M140 60 C90.87 60, 41.75 60, 0 60 M140 60 C108.2 60, 76.41 60, 0 60 M0 60 C0 37.8, 0 15.6, 0 0 M0 60 C0 42.2, 0 24.4, 0 0" stroke="#0c8599" stroke-width="2" fill="none"></path></g><g stroke-linecap="round"><g transform="translate(430 330) rotate(0 70 -5)"><path d="M0 0 C23.33 -1.67, 116.67 -8.33, 140 -10 M0 0 C23.33 -1.67, 116.67 -8.33, 140 -10" stroke="#868e96" stroke-width="1" fill="none"></path></g><g transform="translate(430 330) rotate(0 70 -5)"><path d="M112.61 2.24 C120.65 -1.35, 128.69 -4.94, 140 -10 M112.61 2.24 C120.49 -1.28, 128.37 -4.8, 140 -10" stroke="#868e96" stroke-width="1" fill="none"></path></g><g transform="translate(430 330) rotate(0 70 -5)"><path d="M111.15 -18.23 C119.62 -15.81, 128.09 -13.4, 140 -10 M111.15 -18.23 C119.45 -15.86, 127.75 -13.49, 140 -10" stroke="#868e96" stroke-width="1" fill="none"></path></g></g><g transform="translate(300 591.25) rotate(0 60 8.75)"><text x="60" y="NaN" font-family="Cascadia, Segoe UI Emoji" font-size="14px" fill="#0c8599" text-anchor="middle" style="white-space: pre;" direction="ltr">Obsidian</text></g><g stroke-linecap="round" transform="translate(290 570) rotate(0 70 30)"><path d="M0 0 L140 0 L140 60 L0 60" stroke="none" stroke-width="0" fill="#99e9f2"></path><path d="M0 0 C36.56 0, 73.13 0, 140 0 M0 0 C45.03 0, 90.06 0, 140 0 M140 0 C140 13.21, 140 26.41, 140 60 M140 0 C140 18.28, 140 36.56, 140 60 M140 60 C108.81 60, 77.61 60, 0 60 M140 60 C84.37 60, 28.74 60, 0 60 M0 60 C0 38.61, 0 17.22, 0 0 M0 60 C0 44.19, 0 28.38, 0 0" stroke="#0c8599" stroke-width="2" fill="none"></path></g><g stroke-linecap="round"><g transform="translate(340 370) rotate(0 10 100)"><path d="M0 0 C3.33 33.33, 16.67 166.67, 20 200 M0 0 C3.33 33.33, 16.67 166.67, 20 200" stroke="#868e96" stroke-width="1" fill="none"></path></g><g transform="translate(340 370) rotate(0 10 100)"><path d="M6.99 172.97 C11.62 182.61, 16.26 192.24, 20 200 M6.99 172.97 C11.46 182.27, 15.94 191.56, 20 200" stroke="#868e96" stroke-width="1" fill="none"></path></g><g transform="translate(340 370) rotate(0 10 100)"><path d="M27.4 170.93 C24.76 181.29, 22.13 191.66, 20 200 M27.4 170.93 C24.86 180.93, 22.31 190.93, 20 200" stroke="#868e96" stroke-width="1" fill="none"></path></g></g><g transform="translate(20 331.25) rotate(0 60 8.75)"><text x="60" y="NaN" font-family="Cascadia, Segoe UI Emoji" font-size="14px" fill="#0c8599" text-anchor="middle" style="white-space: pre;" direction="ltr">MEMORY.md</text></g><g stroke-linecap="round" transform="translate(10 310) rotate(0 70 30)"><path d="M0 0 L140 0 L140 60 L0 60" stroke="none" stroke-width="0" fill="#99e9f2"></path><path d="M0 0 C37.7 0, 75.39 0, 140 0 M0 0 C45.89 0, 91.78 0, 140 0 M140 0 C140 20.76, 140 41.52, 140 60 M140 0 C140 19.91, 140 39.81, 140 60 M140 60 C84.47 60, 28.95 60, 0 60 M140 60 C102.24 60, 64.47 60, 0 60 M0 60 C0 47.6, 0 35.21, 0 0 M0 60 C0 42.59, 0 25.17, 0 0" stroke="#0c8599" stroke-width="2" fill="none"></path></g><g stroke-linecap="round"><g transform="translate(250 330) rotate(0 -50 5)"><path d="M0 0 C-16.67 1.67, -83.33 8.33, -100 10 M0 0 C-16.67 1.67, -83.33 8.33, -100 10" stroke="#868e96" stroke-width="1" fill="none"></path></g><g transform="translate(250 330) rotate(0 -50 5)"><path d="M-72.97 -3.01 C-83.16 1.89, -93.35 6.8, -100 10 M-72.97 -3.01 C-80.7 0.71, -88.43 4.43, -100 10" stroke="#868e96" stroke-width="1" fill="none"></path></g><g transform="translate(250 330) rotate(0 -50 5)"><path d="M-70.93 17.4 C-81.89 14.61, -92.85 11.82, -100 10 M-70.93 17.4 C-79.24 15.29, -87.55 13.17, -100 10" stroke="#868e96" stroke-width="1" fill="none"></path></g></g></svg>