<svg version="1.1" xmlns="http://www.w3.org/2000/svg" viewBox="0 0 680 580" width="680" height="580">
  <!-- svg-source:excalidraw -->
  
  <defs>
    <style>
      @font-face {
        font-family: "Virgil";
        src: url("https://excalidraw.com/Virgil.woff2");
      }
      @font-face {
        font-family: "Cascadia";
        src: url("https://excalidraw.com/Cascadia.woff2");
      }
    </style>
  </defs>
  <rect x="0" y="0" width="680" height="580" fill="#ffffff"></rect><g transform="translate(10 10) rotate(0 201.6 17.5)"><text x="0" y="NaN" font-family="Cascadia, Segoe UI Emoji" font-size="28px" fill="#343a40" text-anchor="start" style="white-space: pre;" direction="ltr">Key Development Patterns</text></g><g transform="translate(50 70) rotate(0 48 12.5)"><text x="0" y="NaN" font-family="Cascadia, Segoe UI Emoji" font-size="20px" fill="#2f9e44" text-anchor="start" style="white-space: pre;" direction="ltr">Patterns</text></g><g transform="translate(20 125) rotate(0 130 15)"><text x="130" y="NaN" font-family="Cascadia, Segoe UI Emoji" font-size="12px" fill="#2f9e44" text-anchor="middle" style="white-space: pre;" direction="ltr">Iron Law</text><text x="130" y="NaN" font-family="Cascadia, Segoe UI Emoji" font-size="12px" fill="#2f9e44" text-anchor="middle" style="white-space: pre;" direction="ltr">Test first, code second</text></g><g stroke-linecap="round" transform="translate(10 110) rotate(0 140 30)"><path d="M0 0 L280 0 L280 60 L0 60" stroke="none" stroke-width="0" fill="#b2f2bb"></path><path d="M0 0 C100.02 0, 200.03 0, 280 0 M0 0 C65.17 0, 130.33 0, 280 0 M280 0 C280 18.34, 280 36.67, 280 60 M280 0 C280 12.72, 280 25.43, 280 60 M280 60 C176.18 60, 72.37 60, 0 60 M280 60 C209.61 60, 139.22 60, 0 60 M0 60 C0 43.82, 0 27.65, 0 0 M0 60 C0 36.88, 0 13.76, 0 0" stroke="#2f9e44" stroke-width="2" fill="none"></path></g><g transform="translate(20 205) rotate(0 130 15)"><text x="130" y="NaN" font-family="Cascadia, Segoe UI Emoji" font-size="12px" fill="#2f9e44" text-anchor="middle" style="white-space: pre;" direction="ltr">Reconnaissance</text><text x="130" y="NaN" font-family="Cascadia, Segoe UI Emoji" font-size="12px" fill="#2f9e44" text-anchor="middle" style="white-space: pre;" direction="ltr">Look before you leap</text></g><g stroke-linecap="round" transform="translate(10 190) rotate(0 140 30)"><path d="M0 0 L280 0 L280 60 L0 60" stroke="none" stroke-width="0" fill="#b2f2bb"></path><path d="M0 0 C86.8 0, 173.6 0, 280 0 M0 0 C98.69 0, 197.37 0, 280 0 M280 0 C280 21.47, 280 42.94, 280 60 M280 0 C280 23.64, 280 47.28, 280 60 M280 60 C213.71 60, 147.43 60, 0 60 M280 60 C181.66 60, 83.33 60, 0 60 M0 60 C0 36.68, 0 13.37, 0 0 M0 60 C0 45.73, 0 31.46, 0 0" stroke="#2f9e44" stroke-width="2" fill="none"></path></g><g transform="translate(20 285) rotate(0 130 15)"><text x="130" y="NaN" font-family="Cascadia, Segoe UI Emoji" font-size="12px" fill="#2f9e44" text-anchor="middle" style="white-space: pre;" direction="ltr">One Question</text><text x="130" y="NaN" font-family="Cascadia, Segoe UI Emoji" font-size="12px" fill="#2f9e44" text-anchor="middle" style="white-space: pre;" direction="ltr">Ask one thing at a time</text></g><g stroke-linecap="round" transform="translate(10 270) rotate(0 140 30)"><path d="M0 0 L280 0 L280 60 L0 60" stroke="none" stroke-width="0" fill="#b2f2bb"></path><path d="M0 0 C97.39 0, 194.78 0, 280 0 M0 0 C77.94 0, 155.88 0, 280 0 M280 0 C280 22.08, 280 44.15, 280 60 M280 0 C280 21.81, 280 43.62, 280 60 M280 60 C188.73 60, 97.46 60, 0 60 M280 60 C187.56 60, 95.12 60, 0 60 M0 60 C0 45.7, 0 31.39, 0 0 M0 60 C0 36.35, 0 12.7, 0 0" stroke="#2f9e44" stroke-width="2" fill="none"></path></g><g transform="translate(20 365) rotate(0 130 15)"><text x="130" y="NaN" font-family="Cascadia, Segoe UI Emoji" font-size="12px" fill="#2f9e44" text-anchor="middle" style="white-space: pre;" direction="ltr">Incremental Validation</text><text x="130" y="NaN" font-family="Cascadia, Segoe UI Emoji" font-size="12px" fill="#2f9e44" text-anchor="middle" style="white-space: pre;" direction="ltr">Confirm before continuing</text></g><g stroke-linecap="round" transform="translate(10 350) rotate(0 140 30)"><path d="M0 0 L280 0 L280 60 L0 60" stroke="none" stroke-width="0" fill="#b2f2bb"></path><path d="M0 0 C58.14 0, 116.29 0, 280 0 M0 0 C80.42 0, 160.85 0, 280 0 M280 0 C280 18.31, 280 36.62, 280 60 M280 0 C280 15.97, 280 31.94, 280 60 M280 60 C208.18 60, 136.37 60, 0 60 M280 60 C176.92 60, 73.84 60, 0 60 M0 60 C0 45.11, 0 30.22, 0 0 M0 60 C0 39.75, 0 19.49, 0 0" stroke="#2f9e44" stroke-width="2" fill="none"></path></g><g transform="translate(20 445) rotate(0 130 15)"><text x="130" y="NaN" font-family="Cascadia, Segoe UI Emoji" font-size="12px" fill="#2f9e44" text-anchor="middle" style="white-space: pre;" direction="ltr">Black-Box Scripts</text><text x="130" y="NaN" font-family="Cascadia, Segoe UI Emoji" font-size="12px" fill="#2f9e44" text-anchor="middle" style="white-space: pre;" direction="ltr">Use --help, not source</text></g><g stroke-linecap="round" transform="translate(10 430) rotate(0 140 30)"><path d="M0 0 L280 0 L280 60 L0 60" stroke="none" stroke-width="0" fill="#b2f2bb"></path><path d="M0 0 C109.25 0, 218.49 0, 280 0 M0 0 C87.69 0, 175.37 0, 280 0 M280 0 C280 19.54, 280 39.08, 280 60 M280 0 C280 22.51, 280 45.01, 280 60 M280 60 C173.91 60, 67.83 60, 0 60 M280 60 C177.06 60, 74.11 60, 0 60 M0 60 C0 44.93, 0 29.86, 0 0 M0 60 C0 38.41, 0 16.83, 0 0" stroke="#2f9e44" stroke-width="2" fill="none"></path></g><g transform="translate(20 525) rotate(0 130 15)"><text x="130" y="NaN" font-family="Cascadia, Segoe UI Emoji" font-size="12px" fill="#2f9e44" text-anchor="middle" style="white-space: pre;" direction="ltr">Progressive Fallback</text><text x="130" y="NaN" font-family="Cascadia, Segoe UI Emoji" font-size="12px" fill="#2f9e44" text-anchor="middle" style="white-space: pre;" direction="ltr">Try best, fall back</text></g><g stroke-linecap="round" transform="translate(10 510) rotate(0 140 30)"><path d="M0 0 L280 0 L280 60 L0 60" stroke="none" stroke-width="0" fill="#b2f2bb"></path><path d="M0 0 C89.32 0, 178.65 0, 280 0 M0 0 C66.31 0, 132.62 0, 280 0 M280 0 C280 23.2, 280 46.4, 280 60 M280 0 C280 14.55, 280 29.1, 280 60 M280 60 C200.41 60, 120.81 60, 0 60 M280 60 C212.63 60, 145.25 60, 0 60 M0 60 C0 40.58, 0 21.16, 0 0 M0 60 C0 40.54, 0 21.08, 0 0" stroke="#2f9e44" stroke-width="2" fill="none"></path></g><g transform="translate(430 70) rotate(0 78 12.5)"><text x="0" y="NaN" font-family="Cascadia, Segoe UI Emoji" font-size="20px" fill="#e03131" text-anchor="start" style="white-space: pre;" direction="ltr">Anti-Patterns</text></g><g transform="translate(400 125) rotate(0 130 15)"><text x="130" y="NaN" font-family="Cascadia, Segoe UI Emoji" font-size="12px" fill="#e03131" text-anchor="middle" style="white-space: pre;" direction="ltr">Building in Isolation</text><text x="130" y="NaN" font-family="Cascadia, Segoe UI Emoji" font-size="12px" fill="#e03131" text-anchor="middle" style="white-space: pre;" direction="ltr">Ignoring existing infra</text></g><g stroke-linecap="round" transform="translate(390 110) rotate(0 140 30)"><path d="M0 0 L280 0 L280 60 L0 60" stroke="none" stroke-width="0" fill="#ffc9c9"></path><path d="M0 0 C75.36 0, 150.72 0, 280 0 M0 0 C83.54 0, 167.08 0, 280 0 M280 0 C280 17.02, 280 34.05, 280 60 M280 0 C280 21.61, 280 43.23, 280 60 M280 60 C203.04 60, 126.09 60, 0 60 M280 60 C221.91 60, 163.82 60, 0 60 M0 60 C0 44.97, 0 29.94, 0 0 M0 60 C0 39.21, 0 18.41, 0 0" stroke="#e03131" stroke-width="2" fill="none"></path></g><g transform="translate(400 205) rotate(0 130 15)"><text x="130" y="NaN" font-family="Cascadia, Segoe UI Emoji" font-size="12px" fill="#e03131" text-anchor="middle" style="white-space: pre;" direction="ltr">Vague Stubs</text><text x="130" y="NaN" font-family="Cascadia, Segoe UI Emoji" font-size="12px" fill="#e03131" text-anchor="middle" style="white-space: pre;" direction="ltr">No acceptance criteria</text></g><g stroke-linecap="round" transform="translate(390 190) rotate(0 140 30)"><path d="M0 0 L280 0 L280 60 L0 60" stroke="none" stroke-width="0" fill="#ffc9c9"></path><path d="M0 0 C56.62 0, 113.24 0, 280 0 M0 0 C99.23 0, 198.46 0, 280 0 M280 0 C280 15.8, 280 31.6, 280 60 M280 0 C280 16.48, 280 32.96, 280 60 M280 60 C209.94 60, 139.88 60, 0 60 M280 60 C182.68 60, 85.36 60, 0 60 M0 60 C0 42.12, 0 24.23, 0 0 M0 60 C0 43.22, 0 26.44, 0 0" stroke="#e03131" stroke-width="2" fill="none"></path></g><g transform="translate(400 285) rotate(0 130 15)"><text x="130" y="NaN" font-family="Cascadia, Segoe UI Emoji" font-size="12px" fill="#e03131" text-anchor="middle" style="white-space: pre;" direction="ltr">Skip Verification</text><text x="130" y="NaN" font-family="Cascadia, Segoe UI Emoji" font-size="12px" fill="#e03131" text-anchor="middle" style="white-space: pre;" direction="ltr">Declare done without proof</text></g><g stroke-linecap="round" transform="translate(390 270) rotate(0 140 30)"><path d="M0 0 L280 0 L280 60 L0 60" stroke="none" stroke-width="0" fill="#ffc9c9"></path><path d="M0 0 C96.31 0, 192.61 0, 280 0 M0 0 C63.08 0, 126.16 0, 280 0 M280 0 C280 21.98, 280 43.96, 280 60 M280 0 C280 13.85, 280 27.7, 280 60 M280 60 C177.95 60, 75.89 60, 0 60 M280 60 C202.78 60, 125.55 60, 0 60 M0 60 C0 46.81, 0 33.61, 0 0 M0 60 C0 46.94, 0 33.89, 0 0" stroke="#e03131" stroke-width="2" fill="none"></path></g></svg>