<svg version="1.1" xmlns="http://www.w3.org/2000/svg" viewBox="0 0 680 760" width="680" height="760">
  <!-- svg-source:excalidraw -->
  
  <defs>
    <style>
      @font-face {
        font-family: "Virgil";
        src: url("https://excalidraw.com/Virgil.woff2");
      }
      @font-face {
        font-family: "Cascadia";
        src: url("https://excalidraw.com/Cascadia.woff2");
      }
    </style>
  </defs>
  <rect x="0" y="0" width="680" height="760" fill="#ffffff"></rect><g transform="translate(10 10) rotate(0 180 15)"><text x="0" y="NaN" font-family="Cascadia, Segoe UI Emoji" font-size="24px" fill="#343a40" text-anchor="start" style="white-space: pre;" direction="ltr">Login Authentication Flow</text></g><g transform="translate(271 91.25) rotate(0 49 8.75)"><text x="49" y="NaN" font-family="Cascadia, Segoe UI Emoji" font-size="14px" fill="#2f9e44" text-anchor="middle" style="white-space: pre;" direction="ltr">Start</text></g><g stroke-linecap="round" transform="translate(250 70) rotate(0 70 30)"><path d="M140 30 C140 31.31, 139.8 32.62, 139.4 33.92 C139 35.21, 138.4 36.5, 137.61 37.76 C136.83 39.03, 135.84 40.27, 134.67 41.48 C133.51 42.69, 132.14 43.87, 130.62 45 C129.1 46.13, 127.39 47.23, 125.53 48.26 C123.68 49.3, 121.65 50.29, 119.5 51.21 C117.34 52.14, 115.03 53.01, 112.61 53.8 C110.2 54.6, 107.64 55.33, 105 55.98 C102.36 56.63, 99.6 57.22, 96.79 57.72 C93.97 58.22, 91.06 58.64, 88.12 58.98 C85.18 59.32, 82.16 59.57, 79.14 59.74 C76.12 59.91, 73.05 60, 70 60 C66.95 60, 63.88 59.91, 60.86 59.74 C57.84 59.57, 54.82 59.32, 51.88 58.98 C48.94 58.64, 46.03 58.22, 43.21 57.72 C40.4 57.22, 37.64 56.63, 35 55.98 C32.36 55.33, 29.8 54.6, 27.39 53.8 C24.97 53.01, 22.66 52.14, 20.5 51.21 C18.35 50.29, 16.32 49.3, 14.47 48.26 C12.61 47.23, 10.9 46.13, 9.38 45 C7.86 43.87, 6.49 42.69, 5.33 41.48 C4.16 40.27, 3.17 39.03, 2.39 37.76 C1.6 36.5, 1 35.21, 0.6 33.92 C0.2 32.62, 0 31.31, 0 30 C0 28.69, 0.2 27.38, 0.6 26.08 C1 24.79, 1.6 23.5, 2.39 22.24 C3.17 20.97, 4.16 19.73, 5.33 18.52 C6.49 17.31, 7.86 16.13, 9.38 15 C10.9 13.87, 12.61 12.77, 14.47 11.74 C16.32 10.7, 18.35 9.71, 20.5 8.79 C22.66 7.86, 24.97 6.99, 27.39 6.2 C29.8 5.4, 32.36 4.67, 35 4.02 C37.64 3.37, 40.4 2.78, 43.21 2.28 C46.03 1.78, 48.94 1.36, 51.88 1.02 C54.82 0.68, 57.84 0.43, 60.86 0.26 C63.88 0.09, 66.95 0, 70 0 C73.05 0, 76.12 0.09, 79.14 0.26 C82.16 0.43, 85.18 0.68, 88.12 1.02 C91.06 1.36, 93.97 1.78, 96.79 2.28 C99.6 2.78, 102.36 3.37, 105 4.02 C107.64 4.67, 110.2 5.4, 112.61 6.2 C115.03 6.99, 117.34 7.86, 119.5 8.79 C121.65 9.71, 123.68 10.7, 125.53 11.74 C127.39 12.77, 129.1 13.87, 130.62 15 C132.14 16.13, 133.51 17.31, 134.67 18.52 C135.84 19.73, 136.83 20.97, 137.61 22.24 C138.4 23.5, 139 24.79, 139.4 26.08 C139.8 27.38, 139.9 29.35, 140 30 C140.1 30.65, 140.1 29.35, 140 30" stroke="none" stroke-width="0" fill="#b2f2bb"></path><path d="M140 30 C140 31.31, 139.8 32.62, 139.4 33.92 C139 35.21, 138.4 36.5, 137.61 37.76 C136.83 39.03, 135.84 40.27, 134.67 41.48 C133.51 42.69, 132.14 43.87, 130.62 45 C129.1 46.13, 127.39 47.23, 125.53 48.26 C123.68 49.3, 121.65 50.29, 119.5 51.21 C117.34 52.14, 115.03 53.01, 112.61 53.8 C110.2 54.6, 107.64 55.33, 105 55.98 C102.36 56.63, 99.6 57.22, 96.79 57.72 C93.97 58.22, 91.06 58.64, 88.12 58.98 C85.18 59.32, 82.16 59.57, 79.14 59.74 C76.12 59.91, 73.05 60, 70 60 C66.95 60, 63.88 59.91, 60.86 59.74 C57.84 59.57, 54.82 59.32, 51.88 58.98 C48.94 58.64, 46.03 58.22, 43.21 57.72 C40.4 57.22, 37.64 56.63, 35 55.98 C32.36 55.33, 29.8 54.6, 27.39 53.8 C24.97 53.01, 22.66 52.14, 20.5 51.21 C18.35 50.29, 16.32 49.3, 14.47 48.26 C12.61 47.23, 10.9 46.13, 9.38 45 C7.86 43.87, 6.49 42.69, 5.33 41.48 C4.16 40.27, 3.17 39.03, 2.39 37.76 C1.6 36.5, 1 35.21, 0.6 33.92 C0.2 32.62, 0 31.31, 0 30 C0 28.69, 0.2 27.38, 0.6 26.08 C1 24.79, 1.6 23.5, 2.39 22.24 C3.17 20.97, 4.16 19.73, 5.33 18.52 C6.49 17.31, 7.86 16.13, 9.38 15 C10.9 13.87, 12.61 12.77, 14.47 11.74 C16.32 10.7, 18.35 9.71, 20.5 8.79 C22.66 7.86, 24.97 6.99, 27.39 6.2 C29.8 5.4, 32.36 4.67, 35 4.02 C37.64 3.37, 40.4 2.78, 43.21 2.28 C46.03 1.78, 48.94 1.36, 51.88 1.02 C54.82 0.68, 57.84 0.43, 60.86 0.26 C63.88 0.09, 66.95 0, 70 0 C73.05 0, 76.12 0.09, 79.14 0.26 C82.16 0.43, 85.18 0.68, 88.12 1.02 C91.06 1.36, 93.97 1.78, 96.79 2.28 C99.6 2.78, 102.36 3.37, 105 4.02 C107.64 4.67, 110.2 5.4, 112.61 6.2 C115.03 6.99, 117.34 7.86, 119.5 8.79 C121.65 9.71, 123.68 10.7, 125.53 11.74 C127.39 12.77, 129.1 13.87, 130.62 15 C132.14 16.13, 133.51 17.31, 134.67 18.52 C135.84 19.73, 136.83 20.97, 137.61 22.24 C138.4 23.5, 139 24.79, 139.4 26.08 C139.8 27.38, 139.9 29.35, 140 30 C140.1 30.65, 140.1 29.35, 140 30" stroke="#2f9e44" stroke-width="2" fill="none"></path></g><g transform="translate(240 210) rotate(0 80 10)"><text x="80" y="NaN" font-family="Cascadia, Segoe UI Emoji" font-size="16px" fill="#1971c2" text-anchor="middle" style="white-space: pre;" direction="ltr">Enter Credentials</text></g><g stroke-linecap="round" transform="translate(230 190) rotate(0 90 30)"><path d="M0 0 L180 0 L180 60 L0 60" stroke="none" stroke-width="0" fill="#a5d8ff"></path><path d="M0 0 C49.61 0, 99.22 0, 180 0 M0 0 C47.93 0, 95.85 0, 180 0 M180 0 C180 22.05, 180 44.1, 180 60 M180 0 C180 15.25, 180 30.49, 180 60 M180 60 C113.67 60, 47.33 60, 0 60 M180 60 C115.88 60, 51.76 60, 0 60 M0 60 C0 40.98, 0 21.96, 0 0 M0 60 C0 44.91, 0 29.83, 0 0" stroke="#1971c2" stroke-width="2" fill="none"></path></g><g transform="translate(241.5 361.25) rotate(0 73.5 8.75)"><text x="73.5" y="NaN" font-family="Cascadia, Segoe UI Emoji" font-size="14px" fill="#e8590c" text-anchor="middle" style="white-space: pre;" direction="ltr">Valid?</text></g><g stroke-linecap="round" transform="translate(210 310) rotate(0 105 60)"><path d="M106 0 L210 61 L106 120 L0 61" stroke="none" stroke-width="0" fill="#ffd8a8" fill-rule="evenodd"></path><path d="M106 0 C135.92 17.55, 165.84 35.1, 210 61 M106 0 C144.01 22.29, 182.01 44.58, 210 61 M210 61 C170.41 83.46, 130.82 105.92, 106 120 M210 61 C169.93 83.73, 129.87 106.46, 106 120 M106 120 C74.44 102.44, 42.89 84.87, 0 61 M106 120 C83.05 107.23, 60.1 94.45, 0 61 M0 61 C30.42 43.49, 60.84 25.99, 106 0 M0 61 C37.27 39.55, 74.55 18.1, 106 0" stroke="#e8590c" stroke-width="2" fill="none"></path></g><g transform="translate(241.5 532.5) rotate(0 73.5 17.5)"><text x="73.5" y="NaN" font-family="Cascadia, Segoe UI Emoji" font-size="14px" fill="#e8590c" text-anchor="middle" style="white-space: pre;" direction="ltr">2FA</text><text x="73.5" y="NaN" font-family="Cascadia, Segoe UI Emoji" font-size="14px" fill="#e8590c" text-anchor="middle" style="white-space: pre;" direction="ltr">Enabled?</text></g><g stroke-linecap="round" transform="translate(210 490) rotate(0 105 60)"><path d="M106 0 L210 61 L106 120 L0 61" stroke="none" stroke-width="0" fill="#ffd8a8" fill-rule="evenodd"></path><path d="M106 0 C147.31 24.23, 188.62 48.46, 210 61 M106 0 C140.48 20.23, 174.96 40.45, 210 61 M210 61 C184.12 75.68, 158.24 90.36, 106 120 M210 61 C178.57 78.83, 147.14 96.66, 106 120 M106 120 C83.44 107.44, 60.87 94.88, 0 61 M106 120 C72.29 101.23, 38.57 82.47, 0 61 M0 61 C40.52 37.68, 81.04 14.36, 106 0 M0 61 C34.32 41.25, 68.63 21.5, 106 0" stroke="#e8590c" stroke-width="2" fill="none"></path></g><g transform="translate(271 711.25) rotate(0 49 8.75)"><text x="49" y="NaN" font-family="Cascadia, Segoe UI Emoji" font-size="14px" fill="#2f9e44" text-anchor="middle" style="white-space: pre;" direction="ltr">Access Granted</text></g><g stroke-linecap="round" transform="translate(250 690) rotate(0 70 30)"><path d="M140 30 C140 31.31, 139.8 32.62, 139.4 33.92 C139 35.21, 138.4 36.5, 137.61 37.76 C136.83 39.03, 135.84 40.27, 134.67 41.48 C133.51 42.69, 132.14 43.87, 130.62 45 C129.1 46.13, 127.39 47.23, 125.53 48.26 C123.68 49.3, 121.65 50.29, 119.5 51.21 C117.34 52.14, 115.03 53.01, 112.61 53.8 C110.2 54.6, 107.64 55.33, 105 55.98 C102.36 56.63, 99.6 57.22, 96.79 57.72 C93.97 58.22, 91.06 58.64, 88.12 58.98 C85.18 59.32, 82.16 59.57, 79.14 59.74 C76.12 59.91, 73.05 60, 70 60 C66.95 60, 63.88 59.91, 60.86 59.74 C57.84 59.57, 54.82 59.32, 51.88 58.98 C48.94 58.64, 46.03 58.22, 43.21 57.72 C40.4 57.22, 37.64 56.63, 35 55.98 C32.36 55.33, 29.8 54.6, 27.39 53.8 C24.97 53.01, 22.66 52.14, 20.5 51.21 C18.35 50.29, 16.32 49.3, 14.47 48.26 C12.61 47.23, 10.9 46.13, 9.38 45 C7.86 43.87, 6.49 42.69, 5.33 41.48 C4.16 40.27, 3.17 39.03, 2.39 37.76 C1.6 36.5, 1 35.21, 0.6 33.92 C0.2 32.62, 0 31.31, 0 30 C0 28.69, 0.2 27.38, 0.6 26.08 C1 24.79, 1.6 23.5, 2.39 22.24 C3.17 20.97, 4.16 19.73, 5.33 18.52 C6.49 17.31, 7.86 16.13, 9.38 15 C10.9 13.87, 12.61 12.77, 14.47 11.74 C16.32 10.7, 18.35 9.71, 20.5 8.79 C22.66 7.86, 24.97 6.99, 27.39 6.2 C29.8 5.4, 32.36 4.67, 35 4.02 C37.64 3.37, 40.4 2.78, 43.21 2.28 C46.03 1.78, 48.94 1.36, 51.88 1.02 C54.82 0.68, 57.84 0.43, 60.86 0.26 C63.88 0.09, 66.95 0, 70 0 C73.05 0, 76.12 0.09, 79.14 0.26 C82.16 0.43, 85.18 0.68, 88.12 1.02 C91.06 1.36, 93.97 1.78, 96.79 2.28 C99.6 2.78, 102.36 3.37, 105 4.02 C107.64 4.67, 110.2 5.4, 112.61 6.2 C115.03 6.99, 117.34 7.86, 119.5 8.79 C121.65 9.71, 123.68 10.7, 125.53 11.74 C127.39 12.77, 129.1 13.87, 130.62 15 C132.14 16.13, 133.51 17.31, 134.67 18.52 C135.84 19.73, 136.83 20.97, 137.61 22.24 C138.4 23.5, 139 24.79, 139.4 26.08 C139.8 27.38, 139.9 29.35, 140 30 C140.1 30.65, 140.1 29.35, 140 30" stroke="none" stroke-width="0" fill="#b2f2bb"></path><path d="M140 30 C140 31.31, 139.8 32.62, 139.4 33.92 C139 35.21, 138.4 36.5, 137.61 37.76 C136.83 39.03, 135.84 40.27, 134.67 41.48 C133.51 42.69, 132.14 43.87, 130.62 45 C129.1 46.13, 127.39 47.23, 125.53 48.26 C123.68 49.3, 121.65 50.29, 119.5 51.21 C117.34 52.14, 115.03 53.01, 112.61 53.8 C110.2 54.6, 107.64 55.33, 105 55.98 C102.36 56.63, 99.6 57.22, 96.79 57.72 C93.97 58.22, 91.06 58.64, 88.12 58.98 C85.18 59.32, 82.16 59.57, 79.14 59.74 C76.12 59.91, 73.05 60, 70 60 C66.95 60, 63.88 59.91, 60.86 59.74 C57.84 59.57, 54.82 59.32, 51.88 58.98 C48.94 58.64, 46.03 58.22, 43.21 57.72 C40.4 57.22, 37.64 56.63, 35 55.98 C32.36 55.33, 29.8 54.6, 27.39 53.8 C24.97 53.01, 22.66 52.14, 20.5 51.21 C18.35 50.29, 16.32 49.3, 14.47 48.26 C12.61 47.23, 10.9 46.13, 9.38 45 C7.86 43.87, 6.49 42.69, 5.33 41.48 C4.16 40.27, 3.17 39.03, 2.39 37.76 C1.6 36.5, 1 35.21, 0.6 33.92 C0.2 32.62, 0 31.31, 0 30 C0 28.69, 0.2 27.38, 0.6 26.08 C1 24.79, 1.6 23.5, 2.39 22.24 C3.17 20.97, 4.16 19.73, 5.33 18.52 C6.49 17.31, 7.86 16.13, 9.38 15 C10.9 13.87, 12.61 12.77, 14.47 11.74 C16.32 10.7, 18.35 9.71, 20.5 8.79 C22.66 7.86, 24.97 6.99, 27.39 6.2 C29.8 5.4, 32.36 4.67, 35 4.02 C37.64 3.37, 40.4 2.78, 43.21 2.28 C46.03 1.78, 48.94 1.36, 51.88 1.02 C54.82 0.68, 57.84 0.43, 60.86 0.26 C63.88 0.09, 66.95 0, 70 0 C73.05 0, 76.12 0.09, 79.14 0.26 C82.16 0.43, 85.18 0.68, 88.12 1.02 C91.06 1.36, 93.97 1.78, 96.79 2.28 C99.6 2.78, 102.36 3.37, 105 4.02 C107.64 4.67, 110.2 5.4, 112.61 6.2 C115.03 6.99, 117.34 7.86, 119.5 8.79 C121.65 9.71, 123.68 10.7, 125.53 11.74 C127.39 12.77, 129.1 13.87, 130.62 15 C132.14 16.13, 133.51 17.31, 134.67 18.52 C135.84 19.73, 136.83 20.97, 137.61 22.24 C138.4 23.5, 139 24.79, 139.4 26.08 C139.8 27.38, 139.9 29.35, 140 30 C140.1 30.65, 140.1 29.35, 140 30" stroke="#2f9e44" stroke-width="2" fill="none"></path></g><g transform="translate(520 410) rotate(0 70 10)"><text x="70" y="NaN" font-family="Cascadia, Segoe UI Emoji" font-size="16px" fill="#e03131" text-anchor="middle" style="white-space: pre;" direction="ltr">Access Denied</text></g><g stroke-linecap="round" transform="translate(510 390) rotate(0 80 30)"><path d="M0 0 L160 0 L160 60 L0 60" stroke="none" stroke-width="0" fill="#ffc9c9"></path><path d="M0 0 C50.06 0, 100.12 0, 160 0 M0 0 C33.94 0, 67.88 0, 160 0 M160 0 C160 18.22, 160 36.43, 160 60 M160 0 C160 15.96, 160 31.93, 160 60 M160 60 C102.42 60, 44.84 60, 0 60 M160 60 C97.21 60, 34.42 60, 0 60 M0 60 C0 36.72, 0 13.45, 0 0 M0 60 C0 45.76, 0 31.53, 0 0" stroke="#e03131" stroke-width="2" fill="none"></path></g><g transform="translate(40 610) rotate(0 80 10)"><text x="80" y="NaN" font-family="Cascadia, Segoe UI Emoji" font-size="16px" fill="#0c8599" text-anchor="middle" style="white-space: pre;" direction="ltr">Send OTP</text></g><g stroke-linecap="round" transform="translate(30 590) rotate(0 90 30)"><path d="M0 0 L180 0 L180 60 L0 60" stroke="none" stroke-width="0" fill="#99e9f2"></path><path d="M0 0 C59.51 0, 119.02 0, 180 0 M0 0 C50.18 0, 100.37 0, 180 0 M180 0 C180 15.8, 180 31.59, 180 60 M180 0 C180 22.79, 180 45.58, 180 60 M180 60 C142.84 60, 105.68 60, 0 60 M180 60 C129.78 60, 79.56 60, 0 60 M0 60 C0 46.35, 0 32.7, 0 0 M0 60 C0 43.89, 0 27.78, 0 0" stroke="#0c8599" stroke-width="2" fill="none"></path></g><g stroke-linecap="round"><g transform="translate(320 130) rotate(0 0 30)"><path d="M0 0 C0 10, 0 50, 0 60 M0 0 C0 10, 0 50, 0 60" stroke="#868e96" stroke-width="2" fill="none"></path></g><g transform="translate(320 130) rotate(0 0 30)"><path d="M-10.26 31.81 C-6.31 42.66, -2.36 53.51, 0 60 M-10.26 31.81 C-7.68 38.91, -5.1 46, 0 60" stroke="#868e96" stroke-width="2" fill="none"></path></g><g transform="translate(320 130) rotate(0 0 30)"><path d="M10.26 31.81 C6.31 42.66, 2.36 53.51, 0 60 M10.26 31.81 C7.68 38.91, 5.1 46, 0 60" stroke="#868e96" stroke-width="2" fill="none"></path></g></g><g stroke-linecap="round"><g transform="translate(320 250) rotate(0 -2.5 30)"><path d="M0 0 C-0.83 10, -4.17 50, -5 60 M0 0 C-0.83 10, -4.17 50, -5 60" stroke="#868e96" stroke-width="2" fill="none"></path></g><g transform="translate(320 250) rotate(0 -2.5 30)"><path d="M-12.88 31.05 C-10.86 38.5, -8.83 45.95, -5 60 M-12.88 31.05 C-11.23 37.14, -9.57 43.22, -5 60" stroke="#868e96" stroke-width="2" fill="none"></path></g><g transform="translate(320 250) rotate(0 -2.5 30)"><path d="M7.57 32.76 C4.33 39.77, 1.1 46.78, -5 60 M7.57 32.76 C4.92 38.49, 2.28 44.21, -5 60" stroke="#868e96" stroke-width="2" fill="none"></path></g></g><g transform="translate(285 450) rotate(0 30 10)"><text x="30" y="NaN" font-family="Cascadia, Segoe UI Emoji" font-size="12px" fill="#868e96" text-anchor="middle" style="white-space: pre;" direction="ltr">Yes</text></g><g stroke-linecap="round"><g transform="translate(315 430) rotate(0 0 30)"><path d="M0 0 C0 10, 0 50, 0 60 M0 0 C0 10, 0 50, 0 60" stroke="#868e96" stroke-width="2" fill="none"></path></g><g transform="translate(315 430) rotate(0 0 30)"><path d="M-10.26 31.81 C-6.42 42.37, -2.57 52.93, 0 60 M-10.26 31.81 C-6.54 42.02, -2.82 52.24, 0 60" stroke="#868e96" stroke-width="2" fill="none"></path></g><g transform="translate(315 430) rotate(0 0 30)"><path d="M10.26 31.81 C6.42 42.37, 2.57 52.93, 0 60 M10.26 31.81 C6.54 42.02, 2.82 52.24, 0 60" stroke="#868e96" stroke-width="2" fill="none"></path></g></g><g transform="translate(435 385) rotate(0 30 10)"><text x="30" y="NaN" font-family="Cascadia, Segoe UI Emoji" font-size="12px" fill="#e03131" text-anchor="middle" style="white-space: pre;" direction="ltr">No</text></g><g stroke-linecap="round"><g transform="translate(420 370) rotate(0 45 25)"><path d="M0 0 C15 8.33, 75 41.67, 90 50 M0 0 C15 8.33, 75 41.67, 90 50" stroke="#e03131" stroke-width="2" fill="none"></path></g><g transform="translate(420 370) rotate(0 45 25)"><path d="M60.37 45.28 C66.51 46.26, 72.64 47.23, 90 50 M60.37 45.28 C69.97 46.81, 79.57 48.34, 90 50" stroke="#e03131" stroke-width="2" fill="none"></path></g><g transform="translate(420 370) rotate(0 45 25)"><path d="M70.34 27.34 C74.41 32.03, 78.48 36.73, 90 50 M70.34 27.34 C76.71 34.68, 83.08 42.02, 90 50" stroke="#e03131" stroke-width="2" fill="none"></path></g></g><g transform="translate(180 575) rotate(0 30 10)"><text x="30" y="NaN" font-family="Cascadia, Segoe UI Emoji" font-size="12px" fill="#868e96" text-anchor="middle" style="white-space: pre;" direction="ltr">Yes</text></g><g stroke-linecap="round"><g transform="translate(210 550) rotate(0 0 35)"><path d="M0 0 C0 11.67, 0 58.33, 0 70 M0 0 C0 11.67, 0 58.33, 0 70" stroke="#868e96" stroke-width="2" fill="none"></path></g><g transform="translate(210 550) rotate(0 0 35)"><path d="M-10.26 41.81 C-6.76 51.42, -3.26 61.04, 0 70 M-10.26 41.81 C-7.98 48.08, -5.7 54.35, 0 70" stroke="#868e96" stroke-width="2" fill="none"></path></g><g transform="translate(210 550) rotate(0 0 35)"><path d="M10.26 41.81 C6.76 51.42, 3.26 61.04, 0 70 M10.26 41.81 C7.98 48.08, 5.7 54.35, 0 70" stroke="#868e96" stroke-width="2" fill="none"></path></g></g><g transform="translate(287.5 640) rotate(0 30 10)"><text x="30" y="NaN" font-family="Cascadia, Segoe UI Emoji" font-size="12px" fill="#2f9e44" text-anchor="middle" style="white-space: pre;" direction="ltr">No</text></g><g stroke-linecap="round"><g transform="translate(315 610) rotate(0 2.5 40)"><path d="M0 0 C0.83 13.33, 4.17 66.67, 5 80 M0 0 C0.83 13.33, 4.17 66.67, 5 80" stroke="#2f9e44" stroke-width="2" fill="none"></path></g><g transform="translate(315 610) rotate(0 2.5 40)"><path d="M-7 52.5 C-3.54 60.43, -0.08 68.36, 5 80 M-7 52.5 C-4.16 59.01, -1.32 65.51, 5 80" stroke="#2f9e44" stroke-width="2" fill="none"></path></g><g transform="translate(315 610) rotate(0 2.5 40)"><path d="M13.48 51.22 C11.04 59.52, 8.59 67.81, 5 80 M13.48 51.22 C11.48 58.03, 9.47 64.84, 5 80" stroke="#2f9e44" stroke-width="2" fill="none"></path></g></g><g transform="translate(198.5 660) rotate(0 31.5 10)"><text x="31.5" y="NaN" font-family="Cascadia, Segoe UI Emoji" font-size="12px" fill="#868e96" text-anchor="middle" style="white-space: pre;" direction="ltr">Valid OTP</text></g><g stroke-linecap="round"><g transform="translate(210 620) rotate(0 20 50)"><path d="M0 0 C6.67 16.67, 33.33 83.33, 40 100 M0 0 C6.67 16.67, 33.33 83.33, 40 100" stroke="#868e96" stroke-width="2" fill="none"></path></g><g transform="translate(210 620) rotate(0 20 50)"><path d="M20 77.64 C27.56 86.09, 35.12 94.54, 40 100 M20 77.64 C26.1 84.46, 32.21 91.28, 40 100" stroke="#868e96" stroke-width="2" fill="none"></path></g><g transform="translate(210 620) rotate(0 20 50)"><path d="M39.06 70.01 C39.41 81.35, 39.77 92.68, 40 100 M39.06 70.01 C39.34 79.16, 39.63 88.31, 40 100" stroke="#868e96" stroke-width="2" fill="none"></path></g></g></svg>