<svg version="1.1" xmlns="http://www.w3.org/2000/svg" viewBox="0 0 1190 390" width="1190" height="390">
  <!-- svg-source:excalidraw -->
  
  <defs>
    <style>
      @font-face {
        font-family: "Virgil";
        src: url("https://excalidraw.com/Virgil.woff2");
      }
      @font-face {
        font-family: "Cascadia";
        src: url("https://excalidraw.com/Cascadia.woff2");
      }
    </style>
  </defs>
  <rect x="0" y="0" width="1190" height="390" fill="#ffffff"></rect><g transform="translate(110 10) rotate(0 386.4 17.5)"><text x="0" y="NaN" font-family="Cascadia, Segoe UI Emoji" font-size="28px" fill="#343a40" text-anchor="start" style="white-space: pre;" direction="ltr">Memory Intelligence (PyTorch + Feedback Loops)</text></g><g transform="translate(20 141.25) rotate(0 75 8.75)"><text x="75" y="NaN" font-family="Cascadia, Segoe UI Emoji" font-size="14px" fill="#1971c2" text-anchor="middle" style="white-space: pre;" direction="ltr">Raw Data</text></g><g stroke-linecap="round" transform="translate(10 110) rotate(0 85 40)"><path d="M0 0 L170 0 L170 80 L0 80" stroke="none" stroke-width="0" fill="#a5d8ff"></path><path d="M0 0 C47.13 0, 94.26 0, 170 0 M0 0 C60.08 0, 120.16 0, 170 0 M170 0 C170 17.5, 170 35.01, 170 80 M170 0 C170 21.54, 170 43.09, 170 80 M170 80 C112.15 80, 54.3 80, 0 80 M170 80 C107.98 80, 45.95 80, 0 80 M0 80 C0 52.25, 0 24.51, 0 0 M0 80 C0 53.72, 0 27.44, 0 0" stroke="#1971c2" stroke-width="2" fill="none"></path></g><g transform="translate(260 132.5) rotate(0 75 17.5)"><text x="75" y="NaN" font-family="Cascadia, Segoe UI Emoji" font-size="14px" fill="#1971c2" text-anchor="middle" style="white-space: pre;" direction="ltr">Feature</text><text x="75" y="NaN" font-family="Cascadia, Segoe UI Emoji" font-size="14px" fill="#1971c2" text-anchor="middle" style="white-space: pre;" direction="ltr">Extraction</text></g><g stroke-linecap="round" transform="translate(250 110) rotate(0 85 40)"><path d="M0 0 L170 0 L170 80 L0 80" stroke="none" stroke-width="0" fill="#a5d8ff"></path><path d="M0 0 C34.94 0, 69.88 0, 170 0 M0 0 C48.68 0, 97.35 0, 170 0 M170 0 C170 17.2, 170 34.4, 170 80 M170 0 C170 28.01, 170 56.02, 170 80 M170 80 C133.6 80, 97.21 80, 0 80 M170 80 C105.73 80, 41.46 80, 0 80 M0 80 C0 53.62, 0 27.24, 0 0 M0 80 C0 63.64, 0 47.28, 0 0" stroke="#1971c2" stroke-width="2" fill="none"></path></g><g transform="translate(185 140) rotate(0 30 10)"><text x="30" y="NaN" font-family="Cascadia, Segoe UI Emoji" font-size="12px" fill="#868e96" text-anchor="middle" style="white-space: pre;" direction="ltr">extract</text></g><g stroke-linecap="round"><g transform="translate(180 150) rotate(0 35 0)"><path d="M0 0 C11.67 0, 58.33 0, 70 0 M0 0 C11.67 0, 58.33 0, 70 0" stroke="#868e96" stroke-width="2" fill="none"></path></g><g transform="translate(180 150) rotate(0 35 0)"><path d="M41.81 10.26 C51.51 6.73, 61.21 3.2, 70 0 M41.81 10.26 C51.48 6.74, 61.14 3.22, 70 0" stroke="#868e96" stroke-width="2" fill="none"></path></g><g transform="translate(180 150) rotate(0 35 0)"><path d="M41.81 -10.26 C51.51 -6.73, 61.21 -3.2, 70 0 M41.81 -10.26 C51.48 -6.74, 61.14 -3.22, 70 0" stroke="#868e96" stroke-width="2" fill="none"></path></g></g><g transform="translate(520 132.5) rotate(0 75 17.5)"><text x="75" y="NaN" font-family="Cascadia, Segoe UI Emoji" font-size="14px" fill="#7048e8" text-anchor="middle" style="white-space: pre;" direction="ltr">Model</text><text x="75" y="NaN" font-family="Cascadia, Segoe UI Emoji" font-size="14px" fill="#7048e8" text-anchor="middle" style="white-space: pre;" direction="ltr">Training</text></g><g stroke-linecap="round" transform="translate(510 110) rotate(0 85 40)"><path d="M0 0 L170 0 L170 80 L0 80" stroke="none" stroke-width="0" fill="#d0bfff"></path><path d="M0 0 C61.46 0, 122.92 0, 170 0 M0 0 C51.7 0, 103.4 0, 170 0 M170 0 C170 30.75, 170 61.51, 170 80 M170 0 C170 21.83, 170 43.66, 170 80 M170 80 C125.57 80, 81.14 80, 0 80 M170 80 C131.86 80, 93.72 80, 0 80 M0 80 C0 50.43, 0 20.87, 0 0 M0 80 C0 62.66, 0 45.33, 0 0" stroke="#7048e8" stroke-width="2" fill="none"></path></g><g transform="translate(435 140) rotate(0 30 10)"><text x="30" y="NaN" font-family="Cascadia, Segoe UI Emoji" font-size="12px" fill="#868e96" text-anchor="middle" style="white-space: pre;" direction="ltr">train</text></g><g stroke-linecap="round"><g transform="translate(420 150) rotate(0 45 0)"><path d="M0 0 C15 0, 75 0, 90 0 M0 0 C15 0, 75 0, 90 0" stroke="#868e96" stroke-width="2" fill="none"></path></g><g transform="translate(420 150) rotate(0 45 0)"><path d="M61.81 10.26 C69.3 7.53, 76.8 4.81, 90 0 M61.81 10.26 C71.25 6.83, 80.68 3.39, 90 0" stroke="#868e96" stroke-width="2" fill="none"></path></g><g transform="translate(420 150) rotate(0 45 0)"><path d="M61.81 -10.26 C69.3 -7.53, 76.8 -4.81, 90 0 M61.81 -10.26 C71.25 -6.83, 80.68 -3.39, 90 0" stroke="#868e96" stroke-width="2" fill="none"></path></g></g><g transform="translate(780 141.25) rotate(0 75 8.75)"><text x="75" y="NaN" font-family="Cascadia, Segoe UI Emoji" font-size="14px" fill="#7048e8" text-anchor="middle" style="white-space: pre;" direction="ltr">Predictions</text></g><g stroke-linecap="round" transform="translate(770 110) rotate(0 85 40)"><path d="M0 0 L170 0 L170 80 L0 80" stroke="none" stroke-width="0" fill="#d0bfff"></path><path d="M0 0 C41.58 0, 83.16 0, 170 0 M0 0 C54.25 0, 108.51 0, 170 0 M170 0 C170 28.11, 170 56.22, 170 80 M170 0 C170 26.92, 170 53.84, 170 80 M170 80 C111.16 80, 52.32 80, 0 80 M170 80 C108.39 80, 46.77 80, 0 80 M0 80 C0 61.06, 0 42.13, 0 0 M0 80 C0 49.28, 0 18.55, 0 0" stroke="#7048e8" stroke-width="2" fill="none"></path></g><g transform="translate(695 140) rotate(0 30 10)"><text x="30" y="NaN" font-family="Cascadia, Segoe UI Emoji" font-size="12px" fill="#868e96" text-anchor="middle" style="white-space: pre;" direction="ltr">predict</text></g><g stroke-linecap="round"><g transform="translate(680 150) rotate(0 45 0)"><path d="M0 0 C15 0, 75 0, 90 0 M0 0 C15 0, 75 0, 90 0" stroke="#868e96" stroke-width="2" fill="none"></path></g><g transform="translate(680 150) rotate(0 45 0)"><path d="M61.81 10.26 C70.95 6.94, 80.08 3.61, 90 0 M61.81 10.26 C67.83 8.07, 73.85 5.88, 90 0" stroke="#868e96" stroke-width="2" fill="none"></path></g><g transform="translate(680 150) rotate(0 45 0)"><path d="M61.81 -10.26 C70.95 -6.94, 80.08 -3.61, 90 0 M61.81 -10.26 C67.83 -8.07, 73.85 -5.88, 90 0" stroke="#868e96" stroke-width="2" fill="none"></path></g></g><g transform="translate(1020 141.25) rotate(0 75 8.75)"><text x="75" y="NaN" font-family="Cascadia, Segoe UI Emoji" font-size="14px" fill="#2f9e44" text-anchor="middle" style="white-space: pre;" direction="ltr">Feedback</text></g><g stroke-linecap="round" transform="translate(1010 110) rotate(0 85 40)"><path d="M0 0 L170 0 L170 80 L0 80" stroke="none" stroke-width="0" fill="#b2f2bb"></path><path d="M0 0 C64.28 0, 128.57 0, 170 0 M0 0 C57.45 0, 114.9 0, 170 0 M170 0 C170 18.85, 170 37.69, 170 80 M170 0 C170 28.92, 170 57.84, 170 80 M170 80 C106.63 80, 43.26 80, 0 80 M170 80 C124.17 80, 78.35 80, 0 80 M0 80 C0 54.96, 0 29.93, 0 0 M0 80 C0 55.24, 0 30.48, 0 0" stroke="#2f9e44" stroke-width="2" fill="none"></path></g><g transform="translate(945 140) rotate(0 30 10)"><text x="30" y="NaN" font-family="Cascadia, Segoe UI Emoji" font-size="12px" fill="#868e96" text-anchor="middle" style="white-space: pre;" direction="ltr">evaluate</text></g><g stroke-linecap="round"><g transform="translate(940 150) rotate(0 35 0)"><path d="M0 0 C11.67 0, 58.33 0, 70 0 M0 0 C11.67 0, 58.33 0, 70 0" stroke="#868e96" stroke-width="2" fill="none"></path></g><g transform="translate(940 150) rotate(0 35 0)"><path d="M41.81 10.26 C52.31 6.44, 62.81 2.62, 70 0 M41.81 10.26 C47.64 8.14, 53.48 6.01, 70 0" stroke="#868e96" stroke-width="2" fill="none"></path></g><g transform="translate(940 150) rotate(0 35 0)"><path d="M41.81 -10.26 C52.31 -6.44, 62.81 -2.62, 70 0 M41.81 -10.26 C47.64 -8.14, 53.48 -6.01, 70 0" stroke="#868e96" stroke-width="2" fill="none"></path></g></g><g transform="translate(815 140) rotate(0 30 10)"><text x="30" y="NaN" font-family="Cascadia, Segoe UI Emoji" font-size="12px" fill="#2f9e44" text-anchor="middle" style="white-space: pre;" direction="ltr">retrain</text></g><g stroke-linecap="round"><g transform="translate(1010 150) rotate(0 -165 0)"><path d="M0 0 C-55 0, -275 0, -330 0" stroke="#2f9e44" stroke-width="2.5" fill="none" stroke-dasharray="8 10"></path></g><g transform="translate(1010 150) rotate(0 -165 0)"><path d="M-301.81 -10.26 C-312.85 -6.24, -323.9 -2.22, -330 0" stroke="#2f9e44" stroke-width="2.5" fill="none"></path></g><g transform="translate(1010 150) rotate(0 -165 0)"><path d="M-301.81 10.26 C-312.85 6.24, -323.9 2.22, -330 0" stroke="#2f9e44" stroke-width="2.5" fill="none"></path></g></g><g transform="translate(10 270) rotate(0 66 13.75)"><text x="0" y="NaN" font-family="Cascadia, Segoe UI Emoji" font-size="22px" fill="#343a40" text-anchor="start" style="white-space: pre;" direction="ltr">Components</text></g><g transform="translate(20 325) rotate(0 90 20)"><text x="90" y="NaN" font-family="Cascadia, Segoe UI Emoji" font-size="16px" fill="#7048e8" text-anchor="middle" style="white-space: pre;" direction="ltr">PyTorch</text><text x="90" y="NaN" font-family="Cascadia, Segoe UI Emoji" font-size="16px" fill="#7048e8" text-anchor="middle" style="white-space: pre;" direction="ltr">Models</text></g><g stroke-linecap="round" transform="translate(10 310) rotate(0 100 35)"><path d="M0 0 L200 0 L200 70 L0 70" stroke="none" stroke-width="0" fill="#d0bfff"></path><path d="M0 0 C51.26 0, 102.51 0, 200 0 M0 0 C47.1 0, 94.19 0, 200 0 M200 0 C200 27.19, 200 54.37, 200 70 M200 0 C200 17.68, 200 35.36, 200 70 M200 70 C143.47 70, 86.93 70, 0 70 M200 70 C157.01 70, 114.01 70, 0 70 M0 70 C0 52.14, 0 34.29, 0 0 M0 70 C0 55.6, 0 41.19, 0 0" stroke="#7048e8" stroke-width="2" fill="none"></path></g><g transform="translate(280 325) rotate(0 90 20)"><text x="90" y="NaN" font-family="Cascadia, Segoe UI Emoji" font-size="16px" fill="#0c8599" text-anchor="middle" style="white-space: pre;" direction="ltr">Monitoring</text><text x="90" y="NaN" font-family="Cascadia, Segoe UI Emoji" font-size="16px" fill="#0c8599" text-anchor="middle" style="white-space: pre;" direction="ltr">Dashboard</text></g><g stroke-linecap="round" transform="translate(270 310) rotate(0 100 35)"><path d="M0 0 L200 0 L200 70 L0 70" stroke="none" stroke-width="0" fill="#99e9f2"></path><path d="M0 0 C75.99 0, 151.98 0, 200 0 M0 0 C48.54 0, 97.08 0, 200 0 M200 0 C200 24.41, 200 48.82, 200 70 M200 0 C200 24.97, 200 49.93, 200 70 M200 70 C122.38 70, 44.76 70, 0 70 M200 70 C151.6 70, 103.21 70, 0 70 M0 70 C0 53.82, 0 37.63, 0 0 M0 70 C0 52.03, 0 34.06, 0 0" stroke="#0c8599" stroke-width="2" fill="none"></path></g><g transform="translate(540 325) rotate(0 90 20)"><text x="90" y="NaN" font-family="Cascadia, Segoe UI Emoji" font-size="16px" fill="#2f9e44" text-anchor="middle" style="white-space: pre;" direction="ltr">Feedback</text><text x="90" y="NaN" font-family="Cascadia, Segoe UI Emoji" font-size="16px" fill="#2f9e44" text-anchor="middle" style="white-space: pre;" direction="ltr">Loops</text></g><g stroke-linecap="round" transform="translate(530 310) rotate(0 100 35)"><path d="M0 0 L200 0 L200 70 L0 70" stroke="none" stroke-width="0" fill="#b2f2bb"></path><path d="M0 0 C62.12 0, 124.25 0, 200 0 M0 0 C74.67 0, 149.35 0, 200 0 M200 0 C200 22.68, 200 45.35, 200 70 M200 0 C200 26.24, 200 52.48, 200 70 M200 70 C147.16 70, 94.32 70, 0 70 M200 70 C142.68 70, 85.37 70, 0 70 M0 70 C0 43.7, 0 17.41, 0 0 M0 70 C0 55.47, 0 40.95, 0 0" stroke="#2f9e44" stroke-width="2" fill="none"></path></g><g transform="translate(800 325) rotate(0 90 20)"><text x="90" y="NaN" font-family="Cascadia, Segoe UI Emoji" font-size="16px" fill="#1971c2" text-anchor="middle" style="white-space: pre;" direction="ltr">Docker</text><text x="90" y="NaN" font-family="Cascadia, Segoe UI Emoji" font-size="16px" fill="#1971c2" text-anchor="middle" style="white-space: pre;" direction="ltr">Deployment</text></g><g stroke-linecap="round" transform="translate(790 310) rotate(0 100 35)"><path d="M0 0 L200 0 L200 70 L0 70" stroke="none" stroke-width="0" fill="#a5d8ff"></path><path d="M0 0 C47.75 0, 95.5 0, 200 0 M0 0 C65.92 0, 131.85 0, 200 0 M200 0 C200 16.35, 200 32.7, 200 70 M200 0 C200 23.47, 200 46.94, 200 70 M200 70 C129.36 70, 58.72 70, 0 70 M200 70 C156.34 70, 112.68 70, 0 70 M0 70 C0 49.4, 0 28.81, 0 0 M0 70 C0 44.97, 0 19.94, 0 0" stroke="#1971c2" stroke-width="2" fill="none"></path></g></svg>