<svg version="1.1" xmlns="http://www.w3.org/2000/svg" viewBox="0 0 1260 868" width="1260" height="868">
  <!-- svg-source:excalidraw -->
  
  <defs>
    <style>
      @font-face {
        font-family: "Virgil";
        src: url("https://excalidraw.com/Virgil.woff2");
      }
      @font-face {
        font-family: "Cascadia";
        src: url("https://excalidraw.com/Cascadia.woff2");
      }
    </style>
  </defs>
  <rect x="0" y="0" width="1260" height="868" fill="#ffffff"></rect><g transform="translate(110 10) rotate(0 100.8 15)"><text x="0" y="NaN" font-family="Cascadia, Segoe UI Emoji" font-size="24px" fill="#343a40" text-anchor="start" style="white-space: pre;" direction="ltr">Product Vision</text></g><g transform="translate(580 405) rotate(0 90 25)"><text x="90" y="NaN" font-family="Cascadia, Segoe UI Emoji" font-size="20px" fill="#1971c2" text-anchor="middle" style="white-space: pre;" direction="ltr">Excalidraw</text><text x="90" y="NaN" font-family="Cascadia, Segoe UI Emoji" font-size="20px" fill="#1971c2" text-anchor="middle" style="white-space: pre;" direction="ltr">Mastery</text></g><g stroke-linecap="round" transform="translate(570 390) rotate(0 100 40)"><path d="M0 0 L200 0 L200 80 L0 80" stroke="none" stroke-width="0" fill="#a5d8ff"></path><path d="M0 0 C53.25 0, 106.49 0, 200 0 M0 0 C51.87 0, 103.74 0, 200 0 M200 0 C200 25.18, 200 50.37, 200 80 M200 0 C200 18.54, 200 37.08, 200 80 M200 80 C126.49 80, 52.97 80, 0 80 M200 80 C146.13 80, 92.25 80, 0 80 M0 80 C0 56.4, 0 32.8, 0 0 M0 80 C0 61.32, 0 42.63, 0 0" stroke="#1971c2" stroke-width="2" fill="none"></path></g><g transform="translate(280 171.25) rotate(0 70 8.75)"><text x="70" y="NaN" font-family="Cascadia, Segoe UI Emoji" font-size="14px" fill="#0c8599" text-anchor="middle" style="white-space: pre;" direction="ltr">Fundamentals</text></g><g stroke-linecap="round" transform="translate(270 150) rotate(0 80 30)"><path d="M0 0 L160 0 L160 60 L0 60" stroke="none" stroke-width="0" fill="#99e9f2"></path><path d="M0 0 C49.65 0, 99.3 0, 160 0 M0 0 C50.82 0, 101.64 0, 160 0 M160 0 C160 23.87, 160 47.75, 160 60 M160 0 C160 12.43, 160 24.86, 160 60 M160 60 C120.87 60, 81.73 60, 0 60 M160 60 C96.68 60, 33.37 60, 0 60 M0 60 C0 37.62, 0 15.23, 0 0 M0 60 C0 43.32, 0 26.63, 0 0" stroke="#0c8599" stroke-width="2" fill="none"></path></g><g stroke-linecap="round"><g transform="translate(570 430) rotate(0 -70 -125)"><path d="M0 0 C-23.33 -41.67, -116.67 -208.33, -140 -250 M0 0 C-23.33 -41.67, -116.67 -208.33, -140 -250" stroke="#868e96" stroke-width="1" fill="none"></path></g><g transform="translate(570 430) rotate(0 -70 -125)"><path d="M-117.27 -230.42 C-125.57 -237.56, -133.86 -244.71, -140 -250 M-117.27 -230.42 C-124 -236.22, -130.73 -242.02, -140 -250" stroke="#868e96" stroke-width="1" fill="none"></path></g><g transform="translate(570 430) rotate(0 -70 -125)"><path d="M-135.18 -220.39 C-136.94 -231.2, -138.7 -242, -140 -250 M-135.18 -220.39 C-136.61 -229.16, -138.03 -237.93, -140 -250" stroke="#868e96" stroke-width="1" fill="none"></path></g></g><g transform="translate(800 171.25) rotate(0 70 8.75)"><text x="70" y="NaN" font-family="Cascadia, Segoe UI Emoji" font-size="14px" fill="#0c8599" text-anchor="middle" style="white-space: pre;" direction="ltr">Obsidian</text></g><g stroke-linecap="round" transform="translate(790 150) rotate(0 80 30)"><path d="M0 0 L160 0 L160 60 L0 60" stroke="none" stroke-width="0" fill="#99e9f2"></path><path d="M0 0 C34.08 0, 68.16 0, 160 0 M0 0 C43.33 0, 86.67 0, 160 0 M160 0 C160 18.84, 160 37.68, 160 60 M160 0 C160 14.86, 160 29.73, 160 60 M160 60 C99.12 60, 38.24 60, 0 60 M160 60 C114.75 60, 69.51 60, 0 60 M0 60 C0 41.37, 0 22.74, 0 0 M0 60 C0 46.68, 0 33.35, 0 0" stroke="#0c8599" stroke-width="2" fill="none"></path></g><g stroke-linecap="round"><g transform="translate(670 390) rotate(0 100 -90)"><path d="M0 0 C33.33 -30, 166.67 -150, 200 -180 M0 0 C33.33 -30, 166.67 -150, 200 -180" stroke="#868e96" stroke-width="1" fill="none"></path></g><g transform="translate(670 390) rotate(0 100 -90)"><path d="M185.91 -153.51 C188.74 -158.84, 191.58 -164.17, 200 -180 M185.91 -153.51 C191.18 -163.42, 196.45 -173.32, 200 -180" stroke="#868e96" stroke-width="1" fill="none"></path></g><g transform="translate(670 390) rotate(0 100 -90)"><path d="M172.18 -168.77 C177.78 -171.03, 183.37 -173.29, 200 -180 M172.18 -168.77 C182.58 -172.97, 192.98 -177.17, 200 -180" stroke="#868e96" stroke-width="1" fill="none"></path></g></g><g transform="translate(880 511.25) rotate(0 70 8.75)"><text x="70" y="NaN" font-family="Cascadia, Segoe UI Emoji" font-size="14px" fill="#0c8599" text-anchor="middle" style="white-space: pre;" direction="ltr">AI Agents</text></g><g stroke-linecap="round" transform="translate(870 490) rotate(0 80 30)"><path d="M0 0 L160 0 L160 60 L0 60" stroke="none" stroke-width="0" fill="#99e9f2"></path><path d="M0 0 C36.74 0, 73.48 0, 160 0 M0 0 C37.59 0, 75.18 0, 160 0 M160 0 C160 23.7, 160 47.41, 160 60 M160 0 C160 23.11, 160 46.22, 160 60 M160 60 C116.36 60, 72.73 60, 0 60 M160 60 C98.44 60, 36.88 60, 0 60 M0 60 C0 36.23, 0 12.47, 0 0 M0 60 C0 46.47, 0 32.93, 0 0" stroke="#0c8599" stroke-width="2" fill="none"></path></g><g stroke-linecap="round"><g transform="translate(770 430) rotate(0 50 45)"><path d="M0 0 C16.67 15, 83.33 75, 100 90 M0 0 C16.67 15, 83.33 75, 100 90" stroke="#868e96" stroke-width="1" fill="none"></path></g><g transform="translate(770 430) rotate(0 50 45)"><path d="M72.18 78.77 C81.15 82.39, 90.12 86.01, 100 90 M72.18 78.77 C79.87 81.87, 87.55 84.97, 100 90" stroke="#868e96" stroke-width="1" fill="none"></path></g><g transform="translate(770 430) rotate(0 50 45)"><path d="M85.91 63.51 C90.45 72.05, 94.99 80.59, 100 90 M85.91 63.51 C89.8 70.83, 93.69 78.15, 100 90" stroke="#868e96" stroke-width="1" fill="none"></path></g></g><g transform="translate(580 691.25) rotate(0 70 8.75)"><text x="70" y="NaN" font-family="Cascadia, Segoe UI Emoji" font-size="14px" fill="#0c8599" text-anchor="middle" style="white-space: pre;" direction="ltr">Patterns</text></g><g stroke-linecap="round" transform="translate(570 670) rotate(0 80 30)"><path d="M0 0 L160 0 L160 60 L0 60" stroke="none" stroke-width="0" fill="#99e9f2"></path><path d="M0 0 C41.01 0, 82.02 0, 160 0 M0 0 C35.21 0, 70.41 0, 160 0 M160 0 C160 16.81, 160 33.61, 160 60 M160 0 C160 22.42, 160 44.85, 160 60 M160 60 C119.42 60, 78.85 60, 0 60 M160 60 C99.65 60, 39.3 60, 0 60 M0 60 C0 38.88, 0 17.76, 0 0 M0 60 C0 46.23, 0 32.46, 0 0" stroke="#0c8599" stroke-width="2" fill="none"></path></g><g stroke-linecap="round"><g transform="translate(670 470) rotate(0 -10 100)"><path d="M0 0 C-3.33 33.33, -16.67 166.67, -20 200 M0 0 C-3.33 33.33, -16.67 166.67, -20 200" stroke="#868e96" stroke-width="1" fill="none"></path></g><g transform="translate(670 470) rotate(0 -10 100)"><path d="M-27.4 170.93 C-25.21 179.54, -23.02 188.15, -20 200 M-27.4 170.93 C-25.35 179.01, -23.29 187.09, -20 200" stroke="#868e96" stroke-width="1" fill="none"></path></g><g transform="translate(670 470) rotate(0 -10 100)"><path d="M-6.99 172.97 C-10.84 180.98, -14.7 188.98, -20 200 M-6.99 172.97 C-10.6 180.48, -14.22 187.99, -20 200" stroke="#868e96" stroke-width="1" fill="none"></path></g></g><g transform="translate(240 551.25) rotate(0 70 8.75)"><text x="70" y="NaN" font-family="Cascadia, Segoe UI Emoji" font-size="14px" fill="#0c8599" text-anchor="middle" style="white-space: pre;" direction="ltr">Reference</text></g><g stroke-linecap="round" transform="translate(230 530) rotate(0 80 30)"><path d="M0 0 L160 0 L160 60 L0 60" stroke="none" stroke-width="0" fill="#99e9f2"></path><path d="M0 0 C53.75 0, 107.49 0, 160 0 M0 0 C54.57 0, 109.14 0, 160 0 M160 0 C160 16.79, 160 33.59, 160 60 M160 0 C160 17.23, 160 34.47, 160 60 M160 60 C97.52 60, 35.05 60, 0 60 M160 60 C104.04 60, 48.09 60, 0 60 M0 60 C0 36.44, 0 12.89, 0 0 M0 60 C0 41.31, 0 22.62, 0 0" stroke="#0c8599" stroke-width="2" fill="none"></path></g><g stroke-linecap="round"><g transform="translate(570 430) rotate(0 -90 65)"><path d="M0 0 C-30 21.67, -150 108.33, -180 130 M0 0 C-30 21.67, -150 108.33, -180 130" stroke="#868e96" stroke-width="1" fill="none"></path></g><g transform="translate(570 430) rotate(0 -90 65)"><path d="M-163.15 105.18 C-167.36 111.37, -171.56 117.57, -180 130 M-163.15 105.18 C-168.94 113.7, -174.73 122.23, -180 130" stroke="#868e96" stroke-width="1" fill="none"></path></g><g transform="translate(570 430) rotate(0 -90 65)"><path d="M-151.14 121.81 C-158.34 123.86, -165.54 125.9, -180 130 M-151.14 121.81 C-161.05 124.63, -170.97 127.44, -180 130" stroke="#868e96" stroke-width="1" fill="none"></path></g></g><g transform="translate(60 146.5) rotate(0 60 7.5)"><text x="60" y="NaN" font-family="Cascadia, Segoe UI Emoji" font-size="12px" fill="#868e96" text-anchor="middle" style="white-space: pre;" direction="ltr">Shortcuts</text></g><g stroke-linecap="round" transform="translate(50 130) rotate(0 70 24)"><path d="M0 0 L140 0 L140 48 L0 48" stroke="none" stroke-width="0" fill="#dee2e6"></path><path d="M0 0 C34.16 0, 68.31 0, 140 0 M0 0 C55.47 0, 110.94 0, 140 0 M140 0 C140 14.46, 140 28.92, 140 48 M140 0 C140 11.81, 140 23.62, 140 48 M140 48 C96.04 48, 52.09 48, 0 48 M140 48 C91.51 48, 43.03 48, 0 48 M0 48 C0 35.27, 0 22.53, 0 0 M0 48 C0 38.39, 0 28.78, 0 0" stroke="#868e96" stroke-width="2" fill="none"></path></g><g stroke-linecap="round"><g transform="translate(270 180) rotate(0 -40 -13)"><path d="M0 0 C-13.33 -4.33, -66.67 -21.67, -80 -26 M0 0 C-13.33 -4.33, -66.67 -21.67, -80 -26" stroke="#868e96" stroke-width="1" fill="none"></path></g><g transform="translate(270 180) rotate(0 -40 -13)"><path d="M-50.02 -27.04 C-57.46 -26.79, -64.89 -26.53, -80 -26 M-50.02 -27.04 C-61.92 -26.63, -73.83 -26.21, -80 -26" stroke="#868e96" stroke-width="1" fill="none"></path></g><g transform="translate(270 180) rotate(0 -40 -13)"><path d="M-56.36 -7.53 C-62.22 -12.11, -68.09 -16.69, -80 -26 M-56.36 -7.53 C-65.75 -14.86, -75.14 -22.2, -80 -26" stroke="#868e96" stroke-width="1" fill="none"></path></g></g><g transform="translate(100 86.5) rotate(0 60 7.5)"><text x="60" y="NaN" font-family="Cascadia, Segoe UI Emoji" font-size="12px" fill="#868e96" text-anchor="middle" style="white-space: pre;" direction="ltr">Tools</text></g><g stroke-linecap="round" transform="translate(90 70) rotate(0 70 24)"><path d="M0 0 L140 0 L140 48 L0 48" stroke="none" stroke-width="0" fill="#dee2e6"></path><path d="M0 0 C49.1 0, 98.19 0, 140 0 M0 0 C43.53 0, 87.07 0, 140 0 M140 0 C140 15.02, 140 30.04, 140 48 M140 0 C140 18.79, 140 37.57, 140 48 M140 48 C103.02 48, 66.05 48, 0 48 M140 48 C94.27 48, 48.55 48, 0 48 M0 48 C0 32.82, 0 17.64, 0 0 M0 48 C0 34.23, 0 20.46, 0 0" stroke="#868e96" stroke-width="2" fill="none"></path></g><g stroke-linecap="round"><g transform="translate(270 180) rotate(0 -20 -43)"><path d="M0 0 C-6.67 -14.33, -33.33 -71.67, -40 -86 M0 0 C-6.67 -14.33, -33.33 -71.67, -40 -86" stroke="#868e96" stroke-width="1" fill="none"></path></g><g transform="translate(270 180) rotate(0 -20 -43)"><path d="M-18.81 -64.77 C-23.23 -69.19, -27.65 -73.62, -40 -86 M-18.81 -64.77 C-23.13 -69.09, -27.44 -73.42, -40 -86" stroke="#868e96" stroke-width="1" fill="none"></path></g><g transform="translate(270 180) rotate(0 -20 -43)"><path d="M-37.41 -56.11 C-37.95 -62.34, -38.49 -68.58, -40 -86 M-37.41 -56.11 C-37.94 -62.2, -38.47 -68.29, -40 -86" stroke="#868e96" stroke-width="1" fill="none"></path></g></g><g transform="translate(180 46.5) rotate(0 60 7.5)"><text x="60" y="NaN" font-family="Cascadia, Segoe UI Emoji" font-size="12px" fill="#868e96" text-anchor="middle" style="white-space: pre;" direction="ltr">JSON Format</text></g><g stroke-linecap="round" transform="translate(170 30) rotate(0 70 24)"><path d="M0 0 L140 0 L140 48 L0 48" stroke="none" stroke-width="0" fill="#dee2e6"></path><path d="M0 0 C55.31 0, 110.63 0, 140 0 M0 0 C48.54 0, 97.09 0, 140 0 M140 0 C140 18.62, 140 37.24, 140 48 M140 0 C140 15.4, 140 30.8, 140 48 M140 48 C89.57 48, 39.14 48, 0 48 M140 48 C92.04 48, 44.09 48, 0 48 M0 48 C0 30.79, 0 13.57, 0 0 M0 48 C0 36.44, 0 24.88, 0 0" stroke="#868e96" stroke-width="2" fill="none"></path></g><g stroke-linecap="round"><g transform="translate(350 150) rotate(0 -55 -36)"><path d="M0 0 C-18.33 -12, -91.67 -60, -110 -72 M0 0 C-18.33 -12, -91.67 -60, -110 -72" stroke="#868e96" stroke-width="1" fill="none"></path></g><g transform="translate(350 150) rotate(0 -55 -36)"><path d="M-80.79 -65.15 C-92.11 -67.8, -103.42 -70.46, -110 -72 M-80.79 -65.15 C-88.59 -66.98, -96.38 -68.8, -110 -72" stroke="#868e96" stroke-width="1" fill="none"></path></g><g transform="translate(350 150) rotate(0 -55 -36)"><path d="M-92.03 -47.98 C-98.99 -57.28, -105.95 -66.59, -110 -72 M-92.03 -47.98 C-96.83 -54.39, -101.62 -60.8, -110 -72" stroke="#868e96" stroke-width="1" fill="none"></path></g></g><g transform="translate(860 26.5) rotate(0 60 7.5)"><text x="60" y="NaN" font-family="Cascadia, Segoe UI Emoji" font-size="12px" fill="#868e96" text-anchor="middle" style="white-space: pre;" direction="ltr">Setup</text></g><g stroke-linecap="round" transform="translate(850 10) rotate(0 70 24)"><path d="M0 0 L140 0 L140 48 L0 48" stroke="none" stroke-width="0" fill="#dee2e6"></path><path d="M0 0 C52.77 0, 105.54 0, 140 0 M0 0 C42.22 0, 84.45 0, 140 0 M140 0 C140 10.25, 140 20.5, 140 48 M140 0 C140 13.17, 140 26.35, 140 48 M140 48 C96.79 48, 53.58 48, 0 48 M140 48 C85.92 48, 31.84 48, 0 48 M0 48 C0 34.8, 0 21.6, 0 0 M0 48 C0 29.58, 0 11.16, 0 0" stroke="#868e96" stroke-width="2" fill="none"></path></g><g stroke-linecap="round"><g transform="translate(870 150) rotate(0 25 -46)"><path d="M0 0 C8.33 -15.33, 41.67 -76.67, 50 -92 M0 0 C8.33 -15.33, 41.67 -76.67, 50 -92" stroke="#868e96" stroke-width="1" fill="none"></path></g><g transform="translate(870 150) rotate(0 25 -46)"><path d="M45.55 -62.33 C47.17 -73.12, 48.79 -83.92, 50 -92 M45.55 -62.33 C46.98 -71.84, 48.4 -81.34, 50 -92" stroke="#868e96" stroke-width="1" fill="none"></path></g><g transform="translate(870 150) rotate(0 25 -46)"><path d="M27.52 -72.13 C35.7 -79.36, 43.88 -86.59, 50 -92 M27.52 -72.13 C34.72 -78.5, 41.93 -84.86, 50 -92" stroke="#868e96" stroke-width="1" fill="none"></path></g></g><g transform="translate(960 66.5) rotate(0 60 7.5)"><text x="60" y="NaN" font-family="Cascadia, Segoe UI Emoji" font-size="12px" fill="#868e96" text-anchor="middle" style="white-space: pre;" direction="ltr">Linking</text></g><g stroke-linecap="round" transform="translate(950 50) rotate(0 70 24)"><path d="M0 0 L140 0 L140 48 L0 48" stroke="none" stroke-width="0" fill="#dee2e6"></path><path d="M0 0 C41.66 0, 83.32 0, 140 0 M0 0 C49.25 0, 98.49 0, 140 0 M140 0 C140 12.94, 140 25.88, 140 48 M140 0 C140 16.59, 140 33.18, 140 48 M140 48 C88.9 48, 37.8 48, 0 48 M140 48 C89.75 48, 39.49 48, 0 48 M0 48 C0 33.03, 0 18.06, 0 0 M0 48 C0 37.86, 0 27.72, 0 0" stroke="#868e96" stroke-width="2" fill="none"></path></g><g stroke-linecap="round"><g transform="translate(950 180) rotate(0 0 -53)"><path d="M0 0 C0 -17.67, 0 -88.33, 0 -106 M0 0 C0 -17.67, 0 -88.33, 0 -106" stroke="#868e96" stroke-width="1" fill="none"></path></g><g transform="translate(950 180) rotate(0 0 -53)"><path d="M10.26 -77.81 C7.22 -86.15, 4.19 -94.5, 0 -106 M10.26 -77.81 C6.21 -88.92, 2.17 -100.04, 0 -106" stroke="#868e96" stroke-width="1" fill="none"></path></g><g transform="translate(950 180) rotate(0 0 -53)"><path d="M-10.26 -77.81 C-7.22 -86.15, -4.19 -94.5, 0 -106 M-10.26 -77.81 C-6.21 -88.92, -2.17 -100.04, 0 -106" stroke="#868e96" stroke-width="1" fill="none"></path></g></g><g transform="translate(1020 106.5) rotate(0 60 7.5)"><text x="60" y="NaN" font-family="Cascadia, Segoe UI Emoji" font-size="12px" fill="#868e96" text-anchor="middle" style="white-space: pre;" direction="ltr">Scripting</text></g><g stroke-linecap="round" transform="translate(1010 90) rotate(0 70 24)"><path d="M0 0 L140 0 L140 48 L0 48" stroke="none" stroke-width="0" fill="#dee2e6"></path><path d="M0 0 C50.08 0, 100.15 0, 140 0 M0 0 C39.35 0, 78.69 0, 140 0 M140 0 C140 16.82, 140 33.64, 140 48 M140 0 C140 18.81, 140 37.63, 140 48 M140 48 C98.71 48, 57.42 48, 0 48 M140 48 C109.51 48, 79.02 48, 0 48 M0 48 C0 34.71, 0 21.42, 0 0 M0 48 C0 37.75, 0 27.5, 0 0" stroke="#868e96" stroke-width="2" fill="none"></path></g><g stroke-linecap="round"><g transform="translate(950 180) rotate(0 30 -33)"><path d="M0 0 C10 -11, 50 -55, 60 -66 M0 0 C10 -11, 50 -55, 60 -66" stroke="#868e96" stroke-width="1" fill="none"></path></g><g transform="translate(950 180) rotate(0 30 -33)"><path d="M48.63 -38.24 C52.68 -48.12, 56.73 -58.01, 60 -66 M48.63 -38.24 C51.61 -45.52, 54.59 -52.8, 60 -66" stroke="#868e96" stroke-width="1" fill="none"></path></g><g transform="translate(950 180) rotate(0 30 -33)"><path d="M33.44 -52.04 C42.9 -57.01, 52.36 -61.98, 60 -66 M33.44 -52.04 C40.41 -55.7, 47.37 -59.36, 60 -66" stroke="#868e96" stroke-width="1" fill="none"></path></g></g><g transform="translate(1120 486.5) rotate(0 60 7.5)"><text x="60" y="NaN" font-family="Cascadia, Segoe UI Emoji" font-size="12px" fill="#868e96" text-anchor="middle" style="white-space: pre;" direction="ltr">Generator</text></g><g stroke-linecap="round" transform="translate(1110 470) rotate(0 70 24)"><path d="M0 0 L140 0 L140 48 L0 48" stroke="none" stroke-width="0" fill="#dee2e6"></path><path d="M0 0 C43.14 0, 86.27 0, 140 0 M0 0 C48.55 0, 97.1 0, 140 0 M140 0 C140 12.59, 140 25.18, 140 48 M140 0 C140 12.28, 140 24.56, 140 48 M140 48 C90.03 48, 40.06 48, 0 48 M140 48 C95.2 48, 50.4 48, 0 48 M0 48 C0 36.55, 0 25.11, 0 0 M0 48 C0 28.95, 0 9.91, 0 0" stroke="#868e96" stroke-width="2" fill="none"></path></g><g stroke-linecap="round"><g transform="translate(1030 520) rotate(0 40 -13)"><path d="M0 0 C13.33 -4.33, 66.67 -21.67, 80 -26 M0 0 C13.33 -4.33, 66.67 -21.67, 80 -26" stroke="#868e96" stroke-width="1" fill="none"></path></g><g transform="translate(1030 520) rotate(0 40 -13)"><path d="M56.36 -7.53 C63.91 -13.43, 71.47 -19.33, 80 -26 M56.36 -7.53 C63.84 -13.38, 71.33 -19.22, 80 -26" stroke="#868e96" stroke-width="1" fill="none"></path></g><g transform="translate(1030 520) rotate(0 40 -13)"><path d="M50.02 -27.04 C59.6 -26.71, 69.18 -26.38, 80 -26 M50.02 -27.04 C59.51 -26.71, 69 -26.38, 80 -26" stroke="#868e96" stroke-width="1" fill="none"></path></g></g><g transform="translate(1120 546.5) rotate(0 60 7.5)"><text x="60" y="NaN" font-family="Cascadia, Segoe UI Emoji" font-size="12px" fill="#868e96" text-anchor="middle" style="white-space: pre;" direction="ltr">Templates</text></g><g stroke-linecap="round" transform="translate(1110 530) rotate(0 70 24)"><path d="M0 0 L140 0 L140 48 L0 48" stroke="none" stroke-width="0" fill="#dee2e6"></path><path d="M0 0 C49.4 0, 98.8 0, 140 0 M0 0 C29.02 0, 58.03 0, 140 0 M140 0 C140 16.94, 140 33.88, 140 48 M140 0 C140 9.94, 140 19.88, 140 48 M140 48 C110.15 48, 80.3 48, 0 48 M140 48 C105.97 48, 71.93 48, 0 48 M0 48 C0 29.04, 0 10.07, 0 0 M0 48 C0 35.86, 0 23.73, 0 0" stroke="#868e96" stroke-width="2" fill="none"></path></g><g stroke-linecap="round"><g transform="translate(1030 520) rotate(0 40 17)"><path d="M0 0 C13.33 5.67, 66.67 28.33, 80 34 M0 0 C13.33 5.67, 66.67 28.33, 80 34" stroke="#868e96" stroke-width="1" fill="none"></path></g><g transform="translate(1030 520) rotate(0 40 17)"><path d="M50.04 32.42 C58.53 32.87, 67.02 33.31, 80 34 M50.04 32.42 C56.28 32.75, 62.52 33.08, 80 34" stroke="#868e96" stroke-width="1" fill="none"></path></g><g transform="translate(1030 520) rotate(0 40 17)"><path d="M58.07 13.53 C64.28 19.33, 70.49 25.13, 80 34 M58.07 13.53 C62.64 17.79, 67.21 22.06, 80 34" stroke="#868e96" stroke-width="1" fill="none"></path></g></g><g transform="translate(1060 606.5) rotate(0 60 7.5)"><text x="60" y="NaN" font-family="Cascadia, Segoe UI Emoji" font-size="12px" fill="#868e96" text-anchor="middle" style="white-space: pre;" direction="ltr">MCP</text></g><g stroke-linecap="round" transform="translate(1050 590) rotate(0 70 24)"><path d="M0 0 L140 0 L140 48 L0 48" stroke="none" stroke-width="0" fill="#dee2e6"></path><path d="M0 0 C28.02 0, 56.04 0, 140 0 M0 0 C30.88 0, 61.76 0, 140 0 M140 0 C140 13.74, 140 27.48, 140 48 M140 0 C140 16.99, 140 33.98, 140 48 M140 48 C108.4 48, 76.8 48, 0 48 M140 48 C103.65 48, 67.31 48, 0 48 M0 48 C0 31.5, 0 15.01, 0 0 M0 48 C0 34.81, 0 21.62, 0 0" stroke="#868e96" stroke-width="2" fill="none"></path></g><g stroke-linecap="round"><g transform="translate(1030 520) rotate(0 10 47)"><path d="M0 0 C3.33 15.67, 16.67 78.33, 20 94 M0 0 C3.33 15.67, 16.67 78.33, 20 94" stroke="#868e96" stroke-width="1" fill="none"></path></g><g transform="translate(1030 520) rotate(0 10 47)"><path d="M4.1 68.56 C7.87 74.59, 11.64 80.63, 20 94 M4.1 68.56 C7.93 74.7, 11.77 80.83, 20 94" stroke="#868e96" stroke-width="1" fill="none"></path></g><g transform="translate(1030 520) rotate(0 10 47)"><path d="M24.17 64.29 C23.18 71.34, 22.19 78.38, 20 94 M24.17 64.29 C23.16 71.46, 22.16 78.62, 20 94" stroke="#868e96" stroke-width="1" fill="none"></path></g></g><g transform="translate(680 826.5) rotate(0 60 7.5)"><text x="60" y="NaN" font-family="Cascadia, Segoe UI Emoji" font-size="12px" fill="#868e96" text-anchor="middle" style="white-space: pre;" direction="ltr">Architecture</text></g><g stroke-linecap="round" transform="translate(670 810) rotate(0 70 24)"><path d="M0 0 L140 0 L140 48 L0 48" stroke="none" stroke-width="0" fill="#dee2e6"></path><path d="M0 0 C34.82 0, 69.65 0, 140 0 M0 0 C45.9 0, 91.8 0, 140 0 M140 0 C140 16.43, 140 32.85, 140 48 M140 0 C140 15.32, 140 30.63, 140 48 M140 48 C95.59 48, 51.19 48, 0 48 M140 48 C88.77 48, 37.53 48, 0 48 M0 48 C0 37.12, 0 26.24, 0 0 M0 48 C0 35.84, 0 23.67, 0 0" stroke="#868e96" stroke-width="2" fill="none"></path></g><g stroke-linecap="round"><g transform="translate(650 730) rotate(0 45 40)"><path d="M0 0 C15 13.33, 75 66.67, 90 80 M0 0 C15 13.33, 75 66.67, 90 80" stroke="#868e96" stroke-width="1" fill="none"></path></g><g transform="translate(650 730) rotate(0 45 40)"><path d="M62.11 68.94 C72.8 73.18, 83.49 77.42, 90 80 M62.11 68.94 C69.32 71.8, 76.53 74.66, 90 80" stroke="#868e96" stroke-width="1" fill="none"></path></g><g transform="translate(650 730) rotate(0 45 40)"><path d="M75.75 53.6 C81.21 63.72, 86.67 73.84, 90 80 M75.75 53.6 C79.43 60.43, 83.12 67.25, 90 80" stroke="#868e96" stroke-width="1" fill="none"></path></g></g><g transform="translate(580 826.5) rotate(0 60 7.5)"><text x="60" y="NaN" font-family="Cascadia, Segoe UI Emoji" font-size="12px" fill="#868e96" text-anchor="middle" style="white-space: pre;" direction="ltr">Flowcharts</text></g><g stroke-linecap="round" transform="translate(570 810) rotate(0 70 24)"><path d="M0 0 L140 0 L140 48 L0 48" stroke="none" stroke-width="0" fill="#dee2e6"></path><path d="M0 0 C55.34 0, 110.68 0, 140 0 M0 0 C41.25 0, 82.5 0, 140 0 M140 0 C140 16.94, 140 33.87, 140 48 M140 0 C140 17.95, 140 35.89, 140 48 M140 48 C94.68 48, 49.37 48, 0 48 M140 48 C87.78 48, 35.56 48, 0 48 M0 48 C0 34.3, 0 20.6, 0 0 M0 48 C0 34.28, 0 20.56, 0 0" stroke="#868e96" stroke-width="2" fill="none"></path></g><g stroke-linecap="round"><g transform="translate(650 730) rotate(0 -5 40)"><path d="M0 0 C-1.67 13.33, -8.33 66.67, -10 80 M0 0 C-1.67 13.33, -8.33 66.67, -10 80" stroke="#868e96" stroke-width="1" fill="none"></path></g><g transform="translate(650 730) rotate(0 -5 40)"><path d="M-16.68 50.75 C-14.68 59.53, -12.68 68.3, -10 80 M-16.68 50.75 C-14.81 58.95, -12.94 67.14, -10 80" stroke="#868e96" stroke-width="1" fill="none"></path></g><g transform="translate(650 730) rotate(0 -5 40)"><path d="M3.68 53.3 C-0.42 61.31, -4.53 69.32, -10 80 M3.68 53.3 C-0.15 60.78, -3.99 68.26, -10 80" stroke="#868e96" stroke-width="1" fill="none"></path></g></g><g transform="translate(460 806.5) rotate(0 60 7.5)"><text x="60" y="NaN" font-family="Cascadia, Segoe UI Emoji" font-size="12px" fill="#868e96" text-anchor="middle" style="white-space: pre;" direction="ltr">Wireframes</text></g><g stroke-linecap="round" transform="translate(450 790) rotate(0 70 24)"><path d="M0 0 L140 0 L140 48 L0 48" stroke="none" stroke-width="0" fill="#dee2e6"></path><path d="M0 0 C55.74 0, 111.48 0, 140 0 M0 0 C53.56 0, 107.12 0, 140 0 M140 0 C140 12.01, 140 24.03, 140 48 M140 0 C140 15.3, 140 30.61, 140 48 M140 48 C95.18 48, 50.36 48, 0 48 M140 48 C99.38 48, 58.76 48, 0 48 M0 48 C0 30.02, 0 12.04, 0 0 M0 48 C0 37.75, 0 27.5, 0 0" stroke="#868e96" stroke-width="2" fill="none"></path></g><g stroke-linecap="round"><g transform="translate(570 700) rotate(0 10 57)"><path d="M0 0 C3.33 19, 16.67 95, 20 114 M0 0 C3.33 19, 16.67 95, 20 114" stroke="#868e96" stroke-width="1" fill="none"></path></g><g transform="translate(570 700) rotate(0 10 57)"><path d="M5.02 88.01 C9.78 96.26, 14.53 104.51, 20 114 M5.02 88.01 C9.72 96.15, 14.41 104.3, 20 114" stroke="#868e96" stroke-width="1" fill="none"></path></g><g transform="translate(570 700) rotate(0 10 57)"><path d="M25.23 84.46 C23.57 93.84, 21.91 103.22, 20 114 M25.23 84.46 C23.59 93.72, 21.95 102.97, 20 114" stroke="#868e96" stroke-width="1" fill="none"></path></g></g><g transform="translate(80 646.5) rotate(0 60 7.5)"><text x="60" y="NaN" font-family="Cascadia, Segoe UI Emoji" font-size="12px" fill="#868e96" text-anchor="middle" style="white-space: pre;" direction="ltr">Colors</text></g><g stroke-linecap="round" transform="translate(70 630) rotate(0 70 24)"><path d="M0 0 L140 0 L140 48 L0 48" stroke="none" stroke-width="0" fill="#dee2e6"></path><path d="M0 0 C39.94 0, 79.87 0, 140 0 M0 0 C30.08 0, 60.16 0, 140 0 M140 0 C140 11.15, 140 22.3, 140 48 M140 0 C140 14.09, 140 28.19, 140 48 M140 48 C103.99 48, 67.99 48, 0 48 M140 48 C107.58 48, 75.17 48, 0 48 M0 48 C0 31.34, 0 14.68, 0 0 M0 48 C0 30.59, 0 13.18, 0 0" stroke="#868e96" stroke-width="2" fill="none"></path></g><g stroke-linecap="round"><g transform="translate(230 560) rotate(0 -10 47)"><path d="M0 0 C-3.33 15.67, -16.67 78.33, -20 94 M0 0 C-3.33 15.67, -16.67 78.33, -20 94" stroke="#868e96" stroke-width="1" fill="none"></path></g><g transform="translate(230 560) rotate(0 -10 47)"><path d="M-24.17 64.29 C-22.62 75.31, -21.08 86.33, -20 94 M-24.17 64.29 C-23.15 71.56, -22.13 78.83, -20 94" stroke="#868e96" stroke-width="1" fill="none"></path></g><g transform="translate(230 560) rotate(0 -10 47)"><path d="M-4.1 68.56 C-10 78, -15.89 87.43, -20 94 M-4.1 68.56 C-7.99 74.78, -11.88 81.01, -20 94" stroke="#868e96" stroke-width="1" fill="none"></path></g></g><g transform="translate(20 606.5) rotate(0 60 7.5)"><text x="60" y="NaN" font-family="Cascadia, Segoe UI Emoji" font-size="12px" fill="#868e96" text-anchor="middle" style="white-space: pre;" direction="ltr">Properties</text></g><g stroke-linecap="round" transform="translate(10 590) rotate(0 70 24)"><path d="M0 0 L140 0 L140 48 L0 48" stroke="none" stroke-width="0" fill="#dee2e6"></path><path d="M0 0 C53.7 0, 107.41 0, 140 0 M0 0 C42.56 0, 85.13 0, 140 0 M140 0 C140 13.39, 140 26.78, 140 48 M140 0 C140 12.04, 140 24.08, 140 48 M140 48 C102.98 48, 65.96 48, 0 48 M140 48 C104 48, 68 48, 0 48 M0 48 C0 29.81, 0 11.61, 0 0 M0 48 C0 35.24, 0 22.49, 0 0" stroke="#868e96" stroke-width="2" fill="none"></path></g><g stroke-linecap="round"><g transform="translate(230 560) rotate(0 -40 27)"><path d="M0 0 C-13.33 9, -66.67 45, -80 54 M0 0 C-13.33 9, -66.67 45, -80 54" stroke="#868e96" stroke-width="1" fill="none"></path></g><g transform="translate(230 560) rotate(0 -40 27)"><path d="M-62.37 29.72 C-66.74 35.74, -71.11 41.76, -80 54 M-62.37 29.72 C-66.55 35.47, -70.72 41.21, -80 54" stroke="#868e96" stroke-width="1" fill="none"></path></g><g transform="translate(230 560) rotate(0 -40 27)"><path d="M-50.89 46.73 C-58.11 48.53, -65.32 50.34, -80 54 M-50.89 46.73 C-57.78 48.45, -64.67 50.17, -80 54" stroke="#868e96" stroke-width="1" fill="none"></path></g></g><g transform="translate(20 546.5) rotate(0 60 7.5)"><text x="60" y="NaN" font-family="Cascadia, Segoe UI Emoji" font-size="12px" fill="#868e96" text-anchor="middle" style="white-space: pre;" direction="ltr">Troubleshooting</text></g><g stroke-linecap="round" transform="translate(10 530) rotate(0 70 24)"><path d="M0 0 L140 0 L140 48 L0 48" stroke="none" stroke-width="0" fill="#dee2e6"></path><path d="M0 0 C41.14 0, 82.28 0, 140 0 M0 0 C39.49 0, 78.97 0, 140 0 M140 0 C140 10.46, 140 20.91, 140 48 M140 0 C140 15.35, 140 30.7, 140 48 M140 48 C101.64 48, 63.27 48, 0 48 M140 48 C94.37 48, 48.74 48, 0 48 M0 48 C0 30.75, 0 13.51, 0 0 M0 48 C0 37.74, 0 27.48, 0 0" stroke="#868e96" stroke-width="2" fill="none"></path></g><g stroke-linecap="round"><g transform="translate(230 560) rotate(0 -40 -3)"><path d="M0 0 C-13.33 -1, -66.67 -5, -80 -6 M0 0 C-13.33 -1, -66.67 -5, -80 -6" stroke="#868e96" stroke-width="1" fill="none"></path></g><g transform="translate(230 560) rotate(0 -40 -3)"><path d="M-51.12 -14.12 C-58.36 -12.09, -65.59 -10.05, -80 -6 M-51.12 -14.12 C-56.94 -12.49, -62.76 -10.85, -80 -6" stroke="#868e96" stroke-width="1" fill="none"></path></g><g transform="translate(230 560) rotate(0 -40 -3)"><path d="M-52.66 6.34 C-59.51 3.25, -66.36 0.16, -80 -6 M-52.66 6.34 C-58.17 3.85, -63.68 1.37, -80 -6" stroke="#868e96" stroke-width="1" fill="none"></path></g></g></svg>