<svg version="1.1" xmlns="http://www.w3.org/2000/svg" viewBox="0 0 455 880" width="455" height="880">
  <!-- svg-source:excalidraw -->
  
  <defs>
    <style>
      @font-face {
        font-family: "Virgil";
        src: url("https://excalidraw.com/Virgil.woff2");
      }
      @font-face {
        font-family: "Cascadia";
        src: url("https://excalidraw.com/Cascadia.woff2");
      }
    </style>
  </defs>
  <rect x="0" y="0" width="455" height="880" fill="#ffffff"></rect><g transform="translate(10 10) rotate(0 91.2 10)"><text x="0" y="NaN" font-family="Cascadia, Segoe UI Emoji" font-size="16px" fill="#343a40" text-anchor="start" style="white-space: pre;" direction="ltr">Mobile: Home Screen</text></g><g stroke-linecap="round" transform="translate(70 30) rotate(0 187.5 406)"><path d="M0 0 L375 0 L375 812 L0 812" stroke="none" stroke-width="0" fill="#adb5bd"></path><path d="M0 0 C85.35 0, 170.71 0, 375 0 M0 0 C76.76 0, 153.53 0, 375 0 M375 0 C375 211.19, 375 422.38, 375 812 M375 0 C375 309.19, 375 618.38, 375 812 M375 812 C239.21 812, 103.42 812, 0 812 M375 812 C255.05 812, 135.11 812, 0 812 M0 812 C0 626.73, 0 441.45, 0 0 M0 812 C0 619.1, 0 426.21, 0 0" stroke="#343a40" stroke-width="3" fill="none"></path></g><g transform="translate(210 50) rotate(0 25.19999999999999 7.5)"><text x="0" y="NaN" font-family="Cascadia, Segoe UI Emoji" font-size="12px" fill="#343a40" text-anchor="start" style="white-space: pre;" direction="ltr">9:41 AM</text></g><g transform="translate(80 108.75) rotate(0 177.5 11.25)"><text x="177.5" y="NaN" font-family="Cascadia, Segoe UI Emoji" font-size="18px" fill="#343a40" text-anchor="middle" style="white-space: pre;" direction="ltr">Home</text></g><g stroke-linecap="round" transform="translate(70 90) rotate(0 187.5 30)"><path d="M0 0 L375 0 L375 60 L0 60" stroke="none" stroke-width="0" fill="#adb5bd"></path><path d="M0 0 C84.77 0, 169.53 0, 375 0 M0 0 C141.12 0, 282.24 0, 375 0 M375 0 C375 15.62, 375 31.23, 375 60 M375 0 C375 19.53, 375 39.06, 375 60 M375 60 C264.91 60, 154.82 60, 0 60 M375 60 C244.15 60, 113.3 60, 0 60 M0 60 C0 44.22, 0 28.43, 0 0 M0 60 C0 47.21, 0 34.41, 0 0" stroke="#343a40" stroke-width="2" fill="none"></path></g><g transform="translate(100 260) rotate(0 157.5 10)"><text x="157.5" y="NaN" font-family="Cascadia, Segoe UI Emoji" font-size="16px" fill="#1971c2" text-anchor="middle" style="white-space: pre;" direction="ltr">Card A</text></g><g stroke-linecap="round" transform="translate(90 190) rotate(0 167.5 80)"><path d="M0 0 L335 0 L335 160 L0 160" stroke="none" stroke-width="0" fill="#a5d8ff"></path><path d="M0 0 C81.53 0, 163.05 0, 335 0 M0 0 C89.1 0, 178.19 0, 335 0 M335 0 C335 60.85, 335 121.7, 335 160 M335 0 C335 36.24, 335 72.48, 335 160 M335 160 C262.74 160, 190.48 160, 0 160 M335 160 C219.33 160, 103.67 160, 0 160 M0 160 C0 120, 0 80, 0 0 M0 160 C0 107.17, 0 54.35, 0 0" stroke="#1971c2" stroke-width="2" fill="none"></path></g><g transform="translate(100 440) rotate(0 157.5 10)"><text x="157.5" y="NaN" font-family="Cascadia, Segoe UI Emoji" font-size="16px" fill="#1971c2" text-anchor="middle" style="white-space: pre;" direction="ltr">Card B</text></g><g stroke-linecap="round" transform="translate(90 370) rotate(0 167.5 80)"><path d="M0 0 L335 0 L335 160 L0 160" stroke="none" stroke-width="0" fill="#a5d8ff"></path><path d="M0 0 C107.66 0, 215.33 0, 335 0 M0 0 C92.77 0, 185.54 0, 335 0 M335 0 C335 44.81, 335 89.61, 335 160 M335 0 C335 54.9, 335 109.81, 335 160 M335 160 C255.55 160, 176.11 160, 0 160 M335 160 C249.5 160, 164.01 160, 0 160 M0 160 C0 119.62, 0 79.24, 0 0 M0 160 C0 124.38, 0 88.76, 0 0" stroke="#1971c2" stroke-width="2" fill="none"></path></g><g transform="translate(100 620) rotate(0 157.5 10)"><text x="157.5" y="NaN" font-family="Cascadia, Segoe UI Emoji" font-size="16px" fill="#1971c2" text-anchor="middle" style="white-space: pre;" direction="ltr">Card C</text></g><g stroke-linecap="round" transform="translate(90 550) rotate(0 167.5 80)"><path d="M0 0 L335 0 L335 160 L0 160" stroke="none" stroke-width="0" fill="#a5d8ff"></path><path d="M0 0 C103.54 0, 207.07 0, 335 0 M0 0 C127.45 0, 254.91 0, 335 0 M335 0 C335 44.33, 335 88.65, 335 160 M335 0 C335 55.64, 335 111.28, 335 160 M335 160 C238.95 160, 142.9 160, 0 160 M335 160 C219.33 160, 103.67 160, 0 160 M0 160 C0 114.74, 0 69.49, 0 0 M0 160 C0 104.39, 0 48.79, 0 0" stroke="#1971c2" stroke-width="2" fill="none"></path></g><g stroke-linecap="round" transform="translate(70 810) rotate(0 187.5 30)"><path d="M0 0 L375 0 L375 60 L0 60" stroke="none" stroke-width="0" fill="#dee2e6"></path><path d="M0 0 C113.61 0, 227.22 0, 375 0 M0 0 C109.2 0, 218.4 0, 375 0 M375 0 C375 17.34, 375 34.68, 375 60 M375 0 C375 21.45, 375 42.91, 375 60 M375 60 C225.04 60, 75.08 60, 0 60 M375 60 C236.61 60, 98.22 60, 0 60 M0 60 C0 36.41, 0 12.83, 0 0 M0 60 C0 47.88, 0 35.76, 0 0" stroke="#868e96" stroke-width="2" fill="none"></path></g><g transform="translate(90 810) rotate(0 13.200000000000003 6.875)"><text x="0" y="NaN" font-family="Cascadia, Segoe UI Emoji" font-size="11px" fill="#343a40" text-anchor="start" style="white-space: pre;" direction="ltr">Home</text></g><g transform="translate(170 810) rotate(0 19.799999999999997 6.875)"><text x="0" y="NaN" font-family="Cascadia, Segoe UI Emoji" font-size="11px" fill="#343a40" text-anchor="start" style="white-space: pre;" direction="ltr">Search</text></g><g transform="translate(270 810) rotate(0 23.099999999999994 6.875)"><text x="0" y="NaN" font-family="Cascadia, Segoe UI Emoji" font-size="11px" fill="#343a40" text-anchor="start" style="white-space: pre;" direction="ltr">Profile</text></g><g transform="translate(370 810) rotate(0 26.400000000000006 6.875)"><text x="0" y="NaN" font-family="Cascadia, Segoe UI Emoji" font-size="11px" fill="#343a40" text-anchor="start" style="white-space: pre;" direction="ltr">Settings</text></g></svg>