<svg version="1.1" xmlns="http://www.w3.org/2000/svg" viewBox="0 0 640 380" width="640" height="380">
  <!-- svg-source:excalidraw -->
  
  <defs>
    <style>
      @font-face {
        font-family: "Virgil";
        src: url("https://excalidraw.com/Virgil.woff2");
      }
      @font-face {
        font-family: "Cascadia";
        src: url("https://excalidraw.com/Cascadia.woff2");
      }
    </style>
  </defs>
  <rect x="0" y="0" width="640" height="380" fill="#ffffff"></rect><g transform="translate(10 10) rotate(0 210 17.5)"><text x="0" y="NaN" font-family="Cascadia, Segoe UI Emoji" font-size="28px" fill="#343a40" text-anchor="start" style="white-space: pre;" direction="ltr">Obsidian Plugin Ecosystem</text></g><g stroke-linecap="round" transform="translate(10 70) rotate(0 90 150)"><path d="M0 0 C59.86 0, 119.72 0, 180 0 M0 0 C54.93 0, 109.86 0, 180 0 M180 0 C180 109.14, 180 218.28, 180 300 M180 0 C180 78.32, 180 156.64, 180 300 M180 300 C110.31 300, 40.62 300, 0 300 M180 300 C131.25 300, 82.5 300, 0 300 M0 300 C0 227.7, 0 155.41, 0 0 M0 300 C0 186.46, 0 72.92, 0 0" stroke="#1971c2" stroke-width="1" fill="none"></path></g><g transform="translate(30 70) rotate(0 21.599999999999994 11.25)"><text x="0" y="NaN" font-family="Cascadia, Segoe UI Emoji" font-size="18px" fill="#1971c2" text-anchor="start" style="white-space: pre;" direction="ltr">Core</text></g><g transform="translate(40 122.5) rotate(0 60 7.5)"><text x="60" y="NaN" font-family="Cascadia, Segoe UI Emoji" font-size="12px" fill="#1971c2" text-anchor="middle" style="white-space: pre;" direction="ltr">Dataview</text></g><g stroke-linecap="round" transform="translate(30 110) rotate(0 70 20)"><path d="M0 0 L140 0 L140 40 L0 40" stroke="none" stroke-width="0" fill="#a5d8ff"></path><path d="M0 0 C28.27 0, 56.54 0, 140 0 M0 0 C43.24 0, 86.48 0, 140 0 M140 0 C140 9.93, 140 19.86, 140 40 M140 0 C140 15.87, 140 31.73, 140 40 M140 40 C105.42 40, 70.84 40, 0 40 M140 40 C95.22 40, 50.44 40, 0 40 M0 40 C0 31.18, 0 22.35, 0 0 M0 40 C0 31.74, 0 23.48, 0 0" stroke="#1971c2" stroke-width="2" fill="none"></path></g><g transform="translate(40 182.5) rotate(0 60 7.5)"><text x="60" y="NaN" font-family="Cascadia, Segoe UI Emoji" font-size="12px" fill="#1971c2" text-anchor="middle" style="white-space: pre;" direction="ltr">Templater</text></g><g stroke-linecap="round" transform="translate(30 170) rotate(0 70 20)"><path d="M0 0 L140 0 L140 40 L0 40" stroke="none" stroke-width="0" fill="#a5d8ff"></path><path d="M0 0 C38.95 0, 77.91 0, 140 0 M0 0 C37.59 0, 75.18 0, 140 0 M140 0 C140 9.5, 140 18.99, 140 40 M140 0 C140 13.75, 140 27.51, 140 40 M140 40 C85.54 40, 31.08 40, 0 40 M140 40 C85.4 40, 30.79 40, 0 40 M0 40 C0 28.85, 0 17.7, 0 0 M0 40 C0 25.39, 0 10.79, 0 0" stroke="#1971c2" stroke-width="2" fill="none"></path></g><g transform="translate(40 242.5) rotate(0 60 7.5)"><text x="60" y="NaN" font-family="Cascadia, Segoe UI Emoji" font-size="12px" fill="#1971c2" text-anchor="middle" style="white-space: pre;" direction="ltr">Tasks</text></g><g stroke-linecap="round" transform="translate(30 230) rotate(0 70 20)"><path d="M0 0 L140 0 L140 40 L0 40" stroke="none" stroke-width="0" fill="#a5d8ff"></path><path d="M0 0 C48.81 0, 97.63 0, 140 0 M0 0 C36.58 0, 73.16 0, 140 0 M140 0 C140 9.03, 140 18.05, 140 40 M140 0 C140 12.74, 140 25.48, 140 40 M140 40 C94.25 40, 48.49 40, 0 40 M140 40 C103.02 40, 66.04 40, 0 40 M0 40 C0 26.45, 0 12.89, 0 0 M0 40 C0 30.85, 0 21.69, 0 0" stroke="#1971c2" stroke-width="2" fill="none"></path></g><g transform="translate(40 282.5) rotate(0 60 7.5)"><text x="60" y="NaN" font-family="Cascadia, Segoe UI Emoji" font-size="12px" fill="#1971c2" text-anchor="middle" style="white-space: pre;" direction="ltr">QuickAdd</text></g><g stroke-linecap="round" transform="translate(30 270) rotate(0 70 20)"><path d="M0 0 L140 0 L140 40 L0 40" stroke="none" stroke-width="0" fill="#a5d8ff"></path><path d="M0 0 C42.88 0, 85.75 0, 140 0 M0 0 C53.32 0, 106.64 0, 140 0 M140 0 C140 9.81, 140 19.61, 140 40 M140 0 C140 15.51, 140 31.01, 140 40 M140 40 C99.47 40, 58.94 40, 0 40 M140 40 C86.44 40, 32.88 40, 0 40 M0 40 C0 25.68, 0 11.36, 0 0 M0 40 C0 26.53, 0 13.05, 0 0" stroke="#1971c2" stroke-width="2" fill="none"></path></g><g transform="translate(40 322.5) rotate(0 60 7.5)"><text x="60" y="NaN" font-family="Cascadia, Segoe UI Emoji" font-size="12px" fill="#1971c2" text-anchor="middle" style="white-space: pre;" direction="ltr">Periodic Notes</text></g><g stroke-linecap="round" transform="translate(30 310) rotate(0 70 20)"><path d="M0 0 L140 0 L140 40 L0 40" stroke="none" stroke-width="0" fill="#a5d8ff"></path><path d="M0 0 C36.55 0, 73.09 0, 140 0 M0 0 C48.94 0, 97.88 0, 140 0 M140 0 C140 15.5, 140 31, 140 40 M140 0 C140 13.14, 140 26.28, 140 40 M140 40 C108.69 40, 77.38 40, 0 40 M140 40 C96.99 40, 53.97 40, 0 40 M0 40 C0 27.25, 0 14.51, 0 0 M0 40 C0 27.14, 0 14.28, 0 0" stroke="#1971c2" stroke-width="2" fill="none"></path></g><g stroke-linecap="round" transform="translate(230 70) rotate(0 90 100)"><path d="M0 0 C71.15 0, 142.3 0, 180 0 M0 0 C50.94 0, 101.88 0, 180 0 M180 0 C180 73.66, 180 147.33, 180 200 M180 0 C180 40.93, 180 81.85, 180 200 M180 200 C113.02 200, 46.05 200, 0 200 M180 200 C121.4 200, 62.79 200, 0 200 M0 200 C0 145.69, 0 91.38, 0 0 M0 200 C0 121.89, 0 43.79, 0 0" stroke="#0c8599" stroke-width="1" fill="none"></path></g><g transform="translate(250 70) rotate(0 21.599999999999994 11.25)"><text x="0" y="NaN" font-family="Cascadia, Segoe UI Emoji" font-size="18px" fill="#0c8599" text-anchor="start" style="white-space: pre;" direction="ltr">Data</text></g><g transform="translate(260 122.5) rotate(0 60 7.5)"><text x="60" y="NaN" font-family="Cascadia, Segoe UI Emoji" font-size="12px" fill="#0c8599" text-anchor="middle" style="white-space: pre;" direction="ltr">Bases</text></g><g stroke-linecap="round" transform="translate(250 110) rotate(0 70 20)"><path d="M0 0 L140 0 L140 40 L0 40" stroke="none" stroke-width="0" fill="#99e9f2"></path><path d="M0 0 C35.5 0, 71 0, 140 0 M0 0 C32.76 0, 65.51 0, 140 0 M140 0 C140 10.29, 140 20.59, 140 40 M140 0 C140 12.74, 140 25.48, 140 40 M140 40 C95.83 40, 51.66 40, 0 40 M140 40 C84.91 40, 29.82 40, 0 40 M0 40 C0 29.88, 0 19.77, 0 0 M0 40 C0 29.7, 0 19.4, 0 0" stroke="#0c8599" stroke-width="2" fill="none"></path></g><g transform="translate(260 182.5) rotate(0 60 7.5)"><text x="60" y="NaN" font-family="Cascadia, Segoe UI Emoji" font-size="12px" fill="#0c8599" text-anchor="middle" style="white-space: pre;" direction="ltr">Local REST API</text></g><g stroke-linecap="round" transform="translate(250 170) rotate(0 70 20)"><path d="M0 0 L140 0 L140 40 L0 40" stroke="none" stroke-width="0" fill="#99e9f2"></path><path d="M0 0 C49.39 0, 98.78 0, 140 0 M0 0 C49.36 0, 98.72 0, 140 0 M140 0 C140 12.78, 140 25.56, 140 40 M140 0 C140 9.53, 140 19.07, 140 40 M140 40 C91.08 40, 42.17 40, 0 40 M140 40 C97.57 40, 55.14 40, 0 40 M0 40 C0 28.36, 0 16.72, 0 0 M0 40 C0 30.11, 0 20.22, 0 0" stroke="#0c8599" stroke-width="2" fill="none"></path></g><g transform="translate(260 242.5) rotate(0 60 7.5)"><text x="60" y="NaN" font-family="Cascadia, Segoe UI Emoji" font-size="12px" fill="#0c8599" text-anchor="middle" style="white-space: pre;" direction="ltr">Smart Connections</text></g><g stroke-linecap="round" transform="translate(250 230) rotate(0 70 20)"><path d="M0 0 L140 0 L140 40 L0 40" stroke="none" stroke-width="0" fill="#99e9f2"></path><path d="M0 0 C43.62 0, 87.25 0, 140 0 M0 0 C47.74 0, 95.48 0, 140 0 M140 0 C140 8.65, 140 17.31, 140 40 M140 0 C140 11.83, 140 23.65, 140 40 M140 40 C91.71 40, 43.42 40, 0 40 M140 40 C89.12 40, 38.25 40, 0 40 M0 40 C0 28.47, 0 16.94, 0 0 M0 40 C0 26.51, 0 13.01, 0 0" stroke="#0c8599" stroke-width="2" fill="none"></path></g><g stroke-linecap="round" transform="translate(450 70) rotate(0 90 125)"><path d="M0 0 C56.48 0, 112.96 0, 180 0 M0 0 C63.95 0, 127.89 0, 180 0 M180 0 C180 73.65, 180 147.3, 180 250 M180 0 C180 66.21, 180 132.43, 180 250 M180 250 C132.46 250, 84.93 250, 0 250 M180 250 C113.07 250, 46.14 250, 0 250 M0 250 C0 190.02, 0 130.04, 0 0 M0 250 C0 172.05, 0 94.11, 0 0" stroke="#7048e8" stroke-width="1" fill="none"></path></g><g transform="translate(470 70) rotate(0 59.39999999999998 11.25)"><text x="0" y="NaN" font-family="Cascadia, Segoe UI Emoji" font-size="18px" fill="#7048e8" text-anchor="start" style="white-space: pre;" direction="ltr">Integration</text></g><g transform="translate(480 122.5) rotate(0 60 7.5)"><text x="60" y="NaN" font-family="Cascadia, Segoe UI Emoji" font-size="12px" fill="#7048e8" text-anchor="middle" style="white-space: pre;" direction="ltr">Excalidraw</text></g><g stroke-linecap="round" transform="translate(470 110) rotate(0 70 20)"><path d="M0 0 L140 0 L140 40 L0 40" stroke="none" stroke-width="0" fill="#d0bfff"></path><path d="M0 0 C47.47 0, 94.93 0, 140 0 M0 0 C44.29 0, 88.58 0, 140 0 M140 0 C140 13.32, 140 26.65, 140 40 M140 0 C140 8.91, 140 17.83, 140 40 M140 40 C103.38 40, 66.76 40, 0 40 M140 40 C85.79 40, 31.57 40, 0 40 M0 40 C0 29.57, 0 19.14, 0 0 M0 40 C0 29.41, 0 18.82, 0 0" stroke="#7048e8" stroke-width="2" fill="none"></path></g><g transform="translate(480 182.5) rotate(0 60 7.5)"><text x="60" y="NaN" font-family="Cascadia, Segoe UI Emoji" font-size="12px" fill="#7048e8" text-anchor="middle" style="white-space: pre;" direction="ltr">Git</text></g><g stroke-linecap="round" transform="translate(470 170) rotate(0 70 20)"><path d="M0 0 L140 0 L140 40 L0 40" stroke="none" stroke-width="0" fill="#d0bfff"></path><path d="M0 0 C46.86 0, 93.73 0, 140 0 M0 0 C31.39 0, 62.78 0, 140 0 M140 0 C140 13.04, 140 26.09, 140 40 M140 0 C140 13.62, 140 27.23, 140 40 M140 40 C109.03 40, 78.06 40, 0 40 M140 40 C86.56 40, 33.12 40, 0 40 M0 40 C0 24.56, 0 9.13, 0 0 M0 40 C0 24.01, 0 8.02, 0 0" stroke="#7048e8" stroke-width="2" fill="none"></path></g><g transform="translate(480 242.5) rotate(0 60 7.5)"><text x="60" y="NaN" font-family="Cascadia, Segoe UI Emoji" font-size="12px" fill="#7048e8" text-anchor="middle" style="white-space: pre;" direction="ltr">Calendar</text></g><g stroke-linecap="round" transform="translate(470 230) rotate(0 70 20)"><path d="M0 0 L140 0 L140 40 L0 40" stroke="none" stroke-width="0" fill="#d0bfff"></path><path d="M0 0 C51.71 0, 103.42 0, 140 0 M0 0 C34.59 0, 69.18 0, 140 0 M140 0 C140 9.49, 140 18.99, 140 40 M140 0 C140 10.95, 140 21.89, 140 40 M140 40 C106.12 40, 72.23 40, 0 40 M140 40 C108.45 40, 76.9 40, 0 40 M0 40 C0 31.6, 0 23.21, 0 0 M0 40 C0 31.39, 0 22.78, 0 0" stroke="#7048e8" stroke-width="2" fill="none"></path></g><g transform="translate(480 282.5) rotate(0 60 7.5)"><text x="60" y="NaN" font-family="Cascadia, Segoe UI Emoji" font-size="12px" fill="#7048e8" text-anchor="middle" style="white-space: pre;" direction="ltr">Kanban</text></g><g stroke-linecap="round" transform="translate(470 270) rotate(0 70 20)"><path d="M0 0 L140 0 L140 40 L0 40" stroke="none" stroke-width="0" fill="#d0bfff"></path><path d="M0 0 C43.49 0, 86.98 0, 140 0 M0 0 C35.45 0, 70.91 0, 140 0 M140 0 C140 12.63, 140 25.25, 140 40 M140 0 C140 12.46, 140 24.92, 140 40 M140 40 C107.53 40, 75.06 40, 0 40 M140 40 C97.8 40, 55.59 40, 0 40 M0 40 C0 30.11, 0 20.22, 0 0 M0 40 C0 30.71, 0 21.43, 0 0" stroke="#7048e8" stroke-width="2" fill="none"></path></g></svg>