<svg version="1.1" xmlns="http://www.w3.org/2000/svg" viewBox="0 0 941.6 1200" width="941.6" height="1200">
  <!-- svg-source:excalidraw -->
  
  <defs>
    <style>
      @font-face {
        font-family: "Virgil";
        src: url("https://excalidraw.com/Virgil.woff2");
      }
      @font-face {
        font-family: "Cascadia";
        src: url("https://excalidraw.com/Cascadia.woff2");
      }
    </style>
  </defs>
  <rect x="0" y="0" width="941.6" height="1200" fill="#ffffff"></rect><g transform="translate(10 10) rotate(0 369.59999999999997 17.5)"><text x="0" y="NaN" font-family="Cascadia, Segoe UI Emoji" font-size="28px" fill="#343a40" text-anchor="start" style="white-space: pre;" direction="ltr">Pamela: Polymarket Proxy Wallet Architecture</text></g><g transform="translate(10 50) rotate(0 225.6 10)"><text x="0" y="NaN" font-family="Cascadia, Segoe UI Emoji" font-size="16px" fill="#868e96" text-anchor="start" style="white-space: pre;" direction="ltr">How EOA, Factory, Proxy, and Contracts interact</text></g><g transform="translate(10 110) rotate(0 64.8 11.25)"><text x="0" y="NaN" font-family="Cascadia, Segoe UI Emoji" font-size="18px" fill="#1971c2" text-anchor="start" style="white-space: pre;" direction="ltr">YOUR WALLETS</text></g><g transform="translate(40 172.5) rotate(0 120 17.5)"><text x="120" y="NaN" font-family="Cascadia, Segoe UI Emoji" font-size="14px" fill="#1971c2" text-anchor="middle" style="white-space: pre;" direction="ltr">EOA (Signer)</text><text x="120" y="NaN" font-family="Cascadia, Segoe UI Emoji" font-size="14px" fill="#1971c2" text-anchor="middle" style="white-space: pre;" direction="ltr">0x48e9...ef0F9</text></g><g stroke-linecap="round" transform="translate(30 150) rotate(0 130 40)"><path d="M0 0 L260 0 L260 80 L0 80" stroke="none" stroke-width="0" fill="#a5d8ff"></path><path d="M0 0 C95.99 0, 191.98 0, 260 0 M0 0 C91.96 0, 183.92 0, 260 0 M260 0 C260 28.65, 260 57.3, 260 80 M260 0 C260 19.99, 260 39.97, 260 80 M260 80 C202.99 80, 145.97 80, 0 80 M260 80 C195.86 80, 131.73 80, 0 80 M0 80 C0 56.22, 0 32.44, 0 0 M0 80 C0 61.66, 0 43.32, 0 0" stroke="#1971c2" stroke-width="2" fill="none"></path></g><g transform="translate(400 167.5) rotate(0 120 22.5)"><text x="120" y="NaN" font-family="Cascadia, Segoe UI Emoji" font-size="12px" fill="#2f9e44" text-anchor="middle" style="white-space: pre;" direction="ltr">Proxy Wallet</text><text x="120" y="NaN" font-family="Cascadia, Segoe UI Emoji" font-size="12px" fill="#2f9e44" text-anchor="middle" style="white-space: pre;" direction="ltr">0x53E5...e304</text><text x="120" y="NaN" font-family="Cascadia, Segoe UI Emoji" font-size="12px" fill="#2f9e44" text-anchor="middle" style="white-space: pre;" direction="ltr">(holds all tokens + USDC)</text></g><g stroke-linecap="round" transform="translate(390 150) rotate(0 130 40)"><path d="M0 0 L260 0 L260 80 L0 80" stroke="none" stroke-width="0" fill="#b2f2bb"></path><path d="M0 0 C71.68 0, 143.36 0, 260 0 M0 0 C101.43 0, 202.85 0, 260 0 M260 0 C260 25.69, 260 51.38, 260 80 M260 0 C260 21.21, 260 42.42, 260 80 M260 80 C191.38 80, 122.76 80, 0 80 M260 80 C185.08 80, 110.16 80, 0 80 M0 80 C0 58.46, 0 36.92, 0 0 M0 80 C0 62.14, 0 44.28, 0 0" stroke="#2f9e44" stroke-width="2" fill="none"></path></g><g transform="translate(10 270) rotate(0 140.4 11.25)"><text x="0" y="NaN" font-family="Cascadia, Segoe UI Emoji" font-size="18px" fill="#7048e8" text-anchor="start" style="white-space: pre;" direction="ltr">FACTORY (owns all proxies)</text></g><g transform="translate(180 327.5) rotate(0 150 22.5)"><text x="150" y="NaN" font-family="Cascadia, Segoe UI Emoji" font-size="12px" fill="#7048e8" text-anchor="middle" style="white-space: pre;" direction="ltr">Proxy Factory</text><text x="150" y="NaN" font-family="Cascadia, Segoe UI Emoji" font-size="12px" fill="#7048e8" text-anchor="middle" style="white-space: pre;" direction="ltr">0xaB45...4052</text><text x="150" y="NaN" font-family="Cascadia, Segoe UI Emoji" font-size="12px" fill="#7048e8" text-anchor="middle" style="white-space: pre;" direction="ltr">Owner of ALL proxy wallets</text></g><g stroke-linecap="round" transform="translate(170 310) rotate(0 160 40)"><path d="M0 0 L320 0 L320 80 L0 80" stroke="none" stroke-width="0" fill="#d0bfff"></path><path d="M0 0 C86.05 0, 172.1 0, 320 0 M0 0 C85.79 0, 171.58 0, 320 0 M320 0 C320 20.28, 320 40.55, 320 80 M320 0 C320 22.16, 320 44.32, 320 80 M320 80 C252.36 80, 184.72 80, 0 80 M320 80 C253.15 80, 186.3 80, 0 80 M0 80 C0 49.47, 0 18.94, 0 0 M0 80 C0 49.58, 0 19.15, 0 0" stroke="#7048e8" stroke-width="2" fill="none"></path></g><g transform="translate(10 430) rotate(0 108 11.25)"><text x="0" y="NaN" font-family="Cascadia, Segoe UI Emoji" font-size="18px" fill="#e8590c" text-anchor="start" style="white-space: pre;" direction="ltr">POLYMARKET CONTRACTS</text></g><g transform="translate(20 510) rotate(0 90 15)"><text x="90" y="NaN" font-family="Cascadia, Segoe UI Emoji" font-size="12px" fill="#e8590c" text-anchor="middle" style="white-space: pre;" direction="ltr">Exchange</text><text x="90" y="NaN" font-family="Cascadia, Segoe UI Emoji" font-size="12px" fill="#e8590c" text-anchor="middle" style="white-space: pre;" direction="ltr">0x4bFb...82E</text></g><g stroke-linecap="round" transform="translate(10 490) rotate(0 100 35)"><path d="M0 0 L200 0 L200 70 L0 70" stroke="none" stroke-width="0" fill="#ffd8a8"></path><path d="M0 0 C53.69 0, 107.38 0, 200 0 M0 0 C44.44 0, 88.89 0, 200 0 M200 0 C200 15.63, 200 31.26, 200 70 M200 0 C200 17.56, 200 35.13, 200 70 M200 70 C135.43 70, 70.86 70, 0 70 M200 70 C138.26 70, 76.51 70, 0 70 M0 70 C0 50.88, 0 31.76, 0 0 M0 70 C0 55.27, 0 40.55, 0 0" stroke="#e8590c" stroke-width="2" fill="none"></path></g><g transform="translate(260 510) rotate(0 90 15)"><text x="90" y="NaN" font-family="Cascadia, Segoe UI Emoji" font-size="12px" fill="#e8590c" text-anchor="middle" style="white-space: pre;" direction="ltr">NegRisk Exchange</text><text x="90" y="NaN" font-family="Cascadia, Segoe UI Emoji" font-size="12px" fill="#e8590c" text-anchor="middle" style="white-space: pre;" direction="ltr">0xC5d5...0f80a</text></g><g stroke-linecap="round" transform="translate(250 490) rotate(0 100 35)"><path d="M0 0 L200 0 L200 70 L0 70" stroke="none" stroke-width="0" fill="#ffd8a8"></path><path d="M0 0 C66.64 0, 133.29 0, 200 0 M0 0 C41.17 0, 82.35 0, 200 0 M200 0 C200 18.89, 200 37.77, 200 70 M200 0 C200 24.2, 200 48.4, 200 70 M200 70 C138.5 70, 77 70, 0 70 M200 70 C154.37 70, 108.73 70, 0 70 M0 70 C0 43.37, 0 16.73, 0 0 M0 70 C0 51.32, 0 32.64, 0 0" stroke="#e8590c" stroke-width="2" fill="none"></path></g><g transform="translate(500 510) rotate(0 90 15)"><text x="90" y="NaN" font-family="Cascadia, Segoe UI Emoji" font-size="12px" fill="#e03131" text-anchor="middle" style="white-space: pre;" direction="ltr">NegRisk Adapter</text><text x="90" y="NaN" font-family="Cascadia, Segoe UI Emoji" font-size="12px" fill="#e03131" text-anchor="middle" style="white-space: pre;" direction="ltr">0xd91E...5296</text></g><g stroke-linecap="round" transform="translate(490 490) rotate(0 100 35)"><path d="M0 0 L200 0 L200 70 L0 70" stroke="none" stroke-width="0" fill="#ffc9c9"></path><path d="M0 0 C42.18 0, 84.37 0, 200 0 M0 0 C76.88 0, 153.76 0, 200 0 M200 0 C200 22.45, 200 44.9, 200 70 M200 0 C200 22.19, 200 44.39, 200 70 M200 70 C132.6 70, 65.2 70, 0 70 M200 70 C127.17 70, 54.34 70, 0 70 M0 70 C0 54.68, 0 39.36, 0 0 M0 70 C0 53.05, 0 36.1, 0 0" stroke="#e03131" stroke-width="2" fill="none"></path></g><g transform="translate(220 624.375) rotate(0 130 20.625)"><text x="130" y="NaN" font-family="Cascadia, Segoe UI Emoji" font-size="11px" fill="#0c8599" text-anchor="middle" style="white-space: pre;" direction="ltr">CTF Contract (ERC1155)</text><text x="130" y="NaN" font-family="Cascadia, Segoe UI Emoji" font-size="11px" fill="#0c8599" text-anchor="middle" style="white-space: pre;" direction="ltr">0x4D97...8982E</text><text x="130" y="NaN" font-family="Cascadia, Segoe UI Emoji" font-size="11px" fill="#0c8599" text-anchor="middle" style="white-space: pre;" direction="ltr">Holds ALL conditional tokens</text></g><g stroke-linecap="round" transform="translate(210 610) rotate(0 140 35)"><path d="M0 0 L280 0 L280 70 L0 70" stroke="none" stroke-width="0" fill="#99e9f2"></path><path d="M0 0 C62.53 0, 125.05 0, 280 0 M0 0 C97.19 0, 194.39 0, 280 0 M280 0 C280 20.78, 280 41.56, 280 70 M280 0 C280 27.69, 280 55.38, 280 70 M280 70 C210.38 70, 140.75 70, 0 70 M280 70 C196.72 70, 113.44 70, 0 70 M0 70 C0 51.87, 0 33.73, 0 0 M0 70 C0 55.62, 0 41.25, 0 0" stroke="#0c8599" stroke-width="2" fill="none"></path></g><g transform="translate(10 730) rotate(0 162 11.25)"><text x="0" y="NaN" font-family="Cascadia, Segoe UI Emoji" font-size="18px" fill="#343a40" text-anchor="start" style="white-space: pre;" direction="ltr">CLOB API (off-chain orderbook)</text></g><g transform="translate(180 782.5) rotate(0 150 17.5)"><text x="150" y="NaN" font-family="Cascadia, Segoe UI Emoji" font-size="14px" fill="#343a40" text-anchor="middle" style="white-space: pre;" direction="ltr">CLOB Server</text><text x="150" y="NaN" font-family="Cascadia, Segoe UI Emoji" font-size="14px" fill="#343a40" text-anchor="middle" style="white-space: pre;" direction="ltr">clob.polymarket.com</text></g><g stroke-linecap="round" transform="translate(170 770) rotate(0 160 30)"><path d="M0 0 L320 0 L320 60 L0 60" stroke="none" stroke-width="0" fill="#adb5bd"></path><path d="M0 0 C110.34 0, 220.68 0, 320 0 M0 0 C119.01 0, 238.02 0, 320 0 M320 0 C320 21.7, 320 43.4, 320 60 M320 0 C320 12.61, 320 25.21, 320 60 M320 60 C195.55 60, 71.11 60, 0 60 M320 60 C254.11 60, 188.23 60, 0 60 M0 60 C0 42.33, 0 24.65, 0 0 M0 60 C0 40.18, 0 20.35, 0 0" stroke="#343a40" stroke-width="2" fill="none"></path></g><g transform="translate(177.5 260) rotate(0 52.5 10)"><text x="52.5" y="NaN" font-family="Cascadia, Segoe UI Emoji" font-size="12px" fill="#7048e8" text-anchor="middle" style="white-space: pre;" direction="ltr">calls execute()</text></g><g stroke-linecap="round"><g transform="translate(290 190) rotate(0 -60 80)"><path d="M0 0 C-20 26.67, -100 133.33, -120 160 M0 0 C-20 26.67, -100 133.33, -120 160" stroke="#7048e8" stroke-width="2" fill="none"></path></g><g transform="translate(290 190) rotate(0 -60 80)"><path d="M-111.29 131.29 C-113.17 137.47, -115.04 143.65, -120 160 M-111.29 131.29 C-113.15 137.41, -115.01 143.53, -120 160" stroke="#7048e8" stroke-width="2" fill="none"></path></g><g transform="translate(290 190) rotate(0 -60 80)"><path d="M-94.88 143.6 C-100.28 147.13, -105.69 150.66, -120 160 M-94.88 143.6 C-100.23 147.1, -105.59 150.6, -120 160" stroke="#7048e8" stroke-width="2" fill="none"></path></g></g><g transform="translate(349 260) rotate(0 91 10)"><text x="91" y="NaN" font-family="Cascadia, Segoe UI Emoji" font-size="12px" fill="#7048e8" text-anchor="middle" style="white-space: pre;" direction="ltr">forwards (factory = owner)</text></g><g stroke-linecap="round"><g transform="translate(490 350) rotate(0 -50 -80)"><path d="M0 0 C-16.67 -26.67, -83.33 -133.33, -100 -160 M0 0 C-16.67 -26.67, -83.33 -133.33, -100 -160" stroke="#7048e8" stroke-width="2" fill="none"></path></g><g transform="translate(490 350) rotate(0 -50 -80)"><path d="M-76.36 -141.53 C-84.82 -148.14, -93.28 -154.75, -100 -160 M-76.36 -141.53 C-81.89 -145.85, -87.42 -150.17, -100 -160" stroke="#7048e8" stroke-width="2" fill="none"></path></g><g transform="translate(490 350) rotate(0 -50 -80)"><path d="M-93.76 -130.66 C-95.99 -141.16, -98.23 -151.66, -100 -160 M-93.76 -130.66 C-95.22 -137.52, -96.68 -144.38, -100 -160" stroke="#7048e8" stroke-width="2" fill="none"></path></g></g><g transform="translate(203 490) rotate(0 42 10)"><text x="42" y="NaN" font-family="Cascadia, Segoe UI Emoji" font-size="12px" fill="#343a40" text-anchor="middle" style="white-space: pre;" direction="ltr">signs orders</text></g><g stroke-linecap="round"><g transform="translate(160 230) rotate(0 85 270)"><path d="M0 0 C28.33 90, 141.67 450, 170 540 M0 0 C28.33 90, 141.67 450, 170 540" stroke="#343a40" stroke-width="2" fill="none"></path></g><g transform="translate(160 230) rotate(0 85 270)"><path d="M151.75 516.19 C157.67 523.91, 163.58 531.63, 170 540 M151.75 516.19 C158.67 525.22, 165.59 534.25, 170 540" stroke="#343a40" stroke-width="2" fill="none"></path></g><g transform="translate(160 230) rotate(0 85 270)"><path d="M171.32 510.03 C170.89 519.75, 170.46 529.46, 170 540 M171.32 510.03 C170.82 521.39, 170.32 532.76, 170 540" stroke="#343a40" stroke-width="2" fill="none"></path></g></g><g transform="translate(270 347.5) rotate(0 30 10)"><text x="30" y="NaN" font-family="Cascadia, Segoe UI Emoji" font-size="12px" fill="#2f9e44" text-anchor="middle" style="white-space: pre;" direction="ltr">approved</text></g><g stroke-linecap="round"><g transform="translate(390 190) rotate(0 -90 167.5)"><path d="M0 0 C-30 55.83, -150 279.17, -180 335" stroke="#2f9e44" stroke-width="2.5" fill="none" stroke-dasharray="8 10"></path></g><g transform="translate(390 190) rotate(0 -90 167.5)"><path d="M-175.7 305.31 C-177.1 315.02, -178.51 324.73, -180 335" stroke="#2f9e44" stroke-width="2.5" fill="none"></path></g><g transform="translate(390 190) rotate(0 -90 167.5)"><path d="M-157.62 315.02 C-164.94 321.56, -172.26 328.09, -180 335" stroke="#2f9e44" stroke-width="2.5" fill="none"></path></g></g><g transform="translate(405 350) rotate(0 30 10)"><text x="30" y="NaN" font-family="Cascadia, Segoe UI Emoji" font-size="12px" fill="#2f9e44" text-anchor="middle" style="white-space: pre;" direction="ltr">approved</text></g><g stroke-linecap="round"><g transform="translate(520 230) rotate(0 -85 130)"><path d="M0 0 C-28.33 43.33, -141.67 216.67, -170 260" stroke="#2f9e44" stroke-width="2.5" fill="none" stroke-dasharray="8 10"></path></g><g transform="translate(520 230) rotate(0 -85 130)"><path d="M-163.16 230.79 C-165 238.64, -166.84 246.48, -170 260" stroke="#2f9e44" stroke-width="2.5" fill="none"></path></g><g transform="translate(520 230) rotate(0 -85 130)"><path d="M-145.98 242.02 C-152.44 246.85, -158.89 251.68, -170 260" stroke="#2f9e44" stroke-width="2.5" fill="none"></path></g></g><g transform="translate(495.5 350) rotate(0 59.5 10)"><text x="59.5" y="NaN" font-family="Cascadia, Segoe UI Emoji" font-size="12px" fill="#2f9e44" text-anchor="middle" style="white-space: pre;" direction="ltr">approved (FIXED!)</text></g><g stroke-linecap="round"><g transform="translate(520 230) rotate(0 35 130)"><path d="M0 0 C11.67 43.33, 58.33 216.67, 70 260" stroke="#2f9e44" stroke-width="2.5" fill="none" stroke-dasharray="8 10"></path></g><g transform="translate(520 230) rotate(0 35 130)"><path d="M52.76 235.45 C58.01 242.92, 63.26 250.4, 70 260" stroke="#2f9e44" stroke-width="2.5" fill="none"></path></g><g transform="translate(520 230) rotate(0 35 130)"><path d="M72.58 230.11 C71.79 239.21, 71.01 248.32, 70 260" stroke="#2f9e44" stroke-width="2.5" fill="none"></path></g></g><g transform="translate(168 575) rotate(0 42 10)"><text x="42" y="NaN" font-family="Cascadia, Segoe UI Emoji" font-size="12px" fill="#e8590c" text-anchor="middle" style="white-space: pre;" direction="ltr">transferFrom</text></g><g stroke-linecap="round"><g transform="translate(210 525) rotate(0 0 60)"><path d="M0 0 C0 20, 0 100, 0 120 M0 0 C0 20, 0 100, 0 120" stroke="#e8590c" stroke-width="2" fill="none"></path></g><g transform="translate(210 525) rotate(0 0 60)"><path d="M-10.26 91.81 C-7.41 99.64, -4.56 107.47, 0 120 M-10.26 91.81 C-7.45 99.52, -4.65 107.24, 0 120" stroke="#e8590c" stroke-width="2" fill="none"></path></g><g transform="translate(210 525) rotate(0 0 60)"><path d="M10.26 91.81 C7.41 99.64, 4.56 107.47, 0 120 M10.26 91.81 C7.45 99.52, 4.65 107.24, 0 120" stroke="#e8590c" stroke-width="2" fill="none"></path></g></g><g transform="translate(440 515) rotate(0 30 10)"><text x="30" y="NaN" font-family="Cascadia, Segoe UI Emoji" font-size="12px" fill="#e8590c" text-anchor="middle" style="white-space: pre;" direction="ltr">calls</text></g><g stroke-linecap="round"><g transform="translate(450 525) rotate(0 20 0)"><path d="M0 0 C6.67 0, 33.33 0, 40 0 M0 0 C6.67 0, 33.33 0, 40 0" stroke="#e8590c" stroke-width="2" fill="none"></path></g><g transform="translate(450 525) rotate(0 20 0)"><path d="M21.21 6.84 C25.3 5.35, 29.39 3.86, 40 0 M21.21 6.84 C26.21 5.02, 31.21 3.2, 40 0" stroke="#e8590c" stroke-width="2" fill="none"></path></g><g transform="translate(450 525) rotate(0 20 0)"><path d="M21.21 -6.84 C25.3 -5.35, 29.39 -3.86, 40 0 M21.21 -6.84 C26.21 -5.02, 31.21 -3.2, 40 0" stroke="#e8590c" stroke-width="2" fill="none"></path></g></g><g transform="translate(434 575) rotate(0 56 10)"><text x="56" y="NaN" font-family="Cascadia, Segoe UI Emoji" font-size="12px" fill="#e03131" text-anchor="middle" style="white-space: pre;" direction="ltr">safeTransferFrom</text></g><g stroke-linecap="round"><g transform="translate(490 525) rotate(0 0 60)"><path d="M0 0 C0 20, 0 100, 0 120 M0 0 C0 20, 0 100, 0 120" stroke="#e03131" stroke-width="2" fill="none"></path></g><g transform="translate(490 525) rotate(0 0 60)"><path d="M-10.26 91.81 C-7.12 100.45, -3.97 109.09, 0 120 M-10.26 91.81 C-8.13 97.66, -6 103.5, 0 120" stroke="#e03131" stroke-width="2" fill="none"></path></g><g transform="translate(490 525) rotate(0 0 60)"><path d="M10.26 91.81 C7.12 100.45, 3.97 109.09, 0 120 M10.26 91.81 C8.13 97.66, 6 103.5, 0 120" stroke="#e03131" stroke-width="2" fill="none"></path></g></g><g transform="translate(174.5 655) rotate(0 45.5 10)"><text x="45.5" y="NaN" font-family="Cascadia, Segoe UI Emoji" font-size="12px" fill="#343a40" text-anchor="middle" style="white-space: pre;" direction="ltr">submits order</text></g><g stroke-linecap="round"><g transform="translate(330 770) rotate(0 -110 -105)"><path d="M0 0 C-36.67 -35, -183.33 -175, -220 -210" stroke="#343a40" stroke-width="2.5" fill="none" stroke-dasharray="8 10"></path></g><g transform="translate(330 770) rotate(0 -110 -105)"><path d="M-192.52 -197.96 C-201.31 -201.81, -210.09 -205.66, -220 -210" stroke="#343a40" stroke-width="2.5" fill="none"></path></g><g transform="translate(330 770) rotate(0 -110 -105)"><path d="M-206.69 -183.11 C-210.95 -191.71, -215.2 -200.31, -220 -210" stroke="#343a40" stroke-width="2.5" fill="none"></path></g></g><g transform="translate(291 655) rotate(0 49 10)"><text x="49" y="NaN" font-family="Cascadia, Segoe UI Emoji" font-size="12px" fill="#343a40" text-anchor="middle" style="white-space: pre;" direction="ltr">NegRisk orders</text></g><g stroke-linecap="round"><g transform="translate(330 770) rotate(0 10 -105)"><path d="M0 0 C3.33 -35, 16.67 -175, 20 -210" stroke="#343a40" stroke-width="2.5" fill="none" stroke-dasharray="8 10"></path></g><g transform="translate(330 770) rotate(0 10 -105)"><path d="M27.54 -180.96 C25.28 -189.67, 23.02 -198.37, 20 -210" stroke="#343a40" stroke-width="2.5" fill="none"></path></g><g transform="translate(330 770) rotate(0 10 -105)"><path d="M7.11 -182.91 C10.98 -191.03, 14.84 -199.15, 20 -210" stroke="#343a40" stroke-width="2.5" fill="none"></path></g></g><g transform="translate(730 150) rotate(0 90 22.5)"><text x="0" y="NaN" font-family="Cascadia, Segoe UI Emoji" font-size="12px" fill="#868e96" text-anchor="start" style="white-space: pre;" direction="ltr">EOA signs but does NOT</text><text x="0" y="NaN" font-family="Cascadia, Segoe UI Emoji" font-size="12px" fill="#868e96" text-anchor="start" style="white-space: pre;" direction="ltr">hold tokens or USDC.</text><text x="0" y="NaN" font-family="Cascadia, Segoe UI Emoji" font-size="12px" fill="#868e96" text-anchor="start" style="white-space: pre;" direction="ltr">Only used for signatures.</text></g><g transform="translate(730 310) rotate(0 97.19999999999999 60)"><text x="0" y="NaN" font-family="Cascadia, Segoe UI Emoji" font-size="12px" fill="#e03131" text-anchor="start" style="white-space: pre;" direction="ltr">KEY INSIGHT:</text><text x="0" y="NaN" font-family="Cascadia, Segoe UI Emoji" font-size="12px" fill="#e03131" text-anchor="start" style="white-space: pre;" direction="ltr">Factory OWNS the proxy.</text><text x="0" y="NaN" font-family="Cascadia, Segoe UI Emoji" font-size="12px" fill="#e03131" text-anchor="start" style="white-space: pre;" direction="ltr">To execute from proxy,</text><text x="0" y="NaN" font-family="Cascadia, Segoe UI Emoji" font-size="12px" fill="#e03131" text-anchor="start" style="white-space: pre;" direction="ltr">you must call the Factory</text><text x="0" y="NaN" font-family="Cascadia, Segoe UI Emoji" font-size="12px" fill="#e03131" text-anchor="start" style="white-space: pre;" direction="ltr">with selector 0x34ee9791</text><text x="0" y="NaN" font-family="Cascadia, Segoe UI Emoji" font-size="12px" fill="#e03131" text-anchor="start" style="white-space: pre;" direction="ltr">(batch execute).</text><text x="0" y="NaN" font-family="Cascadia, Segoe UI Emoji" font-size="12px" fill="#e03131" text-anchor="start" style="white-space: pre;" direction="ltr">Direct calls from EOA</text><text x="0" y="NaN" font-family="Cascadia, Segoe UI Emoji" font-size="12px" fill="#e03131" text-anchor="start" style="white-space: pre;" direction="ltr">only affect EOA, not proxy!</text></g><g transform="translate(730 510) rotate(0 100.80000000000001 45)"><text x="0" y="NaN" font-family="Cascadia, Segoe UI Emoji" font-size="12px" fill="#2f9e44" text-anchor="start" style="white-space: pre;" direction="ltr">The NegRisk Adapter</text><text x="0" y="NaN" font-family="Cascadia, Segoe UI Emoji" font-size="12px" fill="#2f9e44" text-anchor="start" style="white-space: pre;" direction="ltr">needs setApprovalForAll</text><text x="0" y="NaN" font-family="Cascadia, Segoe UI Emoji" font-size="12px" fill="#2f9e44" text-anchor="start" style="white-space: pre;" direction="ltr">on the CTF contract FROM</text><text x="0" y="NaN" font-family="Cascadia, Segoe UI Emoji" font-size="12px" fill="#2f9e44" text-anchor="start" style="white-space: pre;" direction="ltr">the proxy. We fixed this</text><text x="0" y="NaN" font-family="Cascadia, Segoe UI Emoji" font-size="12px" fill="#2f9e44" text-anchor="start" style="white-space: pre;" direction="ltr">by calling Factory.execute()</text><text x="0" y="NaN" font-family="Cascadia, Segoe UI Emoji" font-size="12px" fill="#2f9e44" text-anchor="start" style="white-space: pre;" direction="ltr">which forwards to proxy.</text></g><g transform="translate(10 870) rotate(0 180 12.5)"><text x="0" y="NaN" font-family="Cascadia, Segoe UI Emoji" font-size="20px" fill="#343a40" text-anchor="start" style="white-space: pre;" direction="ltr">CURRENT PORTFOLIO (2026-03-26)</text></g><g transform="translate(20 967.5) rotate(0 330 82.5)"><text x="330" y="NaN" font-family="Cascadia, Segoe UI Emoji" font-size="11px" fill="#343a40" text-anchor="middle" style="white-space: pre;" direction="ltr">Cash: $7.75 USDC</text><text x="330" y="NaN" font-family="Cascadia, Segoe UI Emoji" font-size="11px" fill="#343a40" text-anchor="middle" style="white-space: pre;" direction="ltr">Deployed: $144.13 across 8 positions</text><text x="330" y="NaN" font-family="Cascadia, Segoe UI Emoji" font-size="11px" fill="#343a40" text-anchor="middle" style="white-space: pre;" direction="ltr">Total Invested: $146.68</text><text x="330" y="NaN" font-family="Cascadia, Segoe UI Emoji" font-size="11px" fill="#343a40" text-anchor="middle" style="white-space: pre;" direction="ltr">Current Value: $144.13</text><text x="330" y="NaN" font-family="Cascadia, Segoe UI Emoji" font-size="11px" fill="#343a40" text-anchor="middle" style="white-space: pre;" direction="ltr">P&amp;L: -$2.54 (-1.7%)</text><text x="330" y="NaN" font-family="Cascadia, Segoe UI Emoji" font-size="11px" fill="#343a40" text-anchor="middle" style="white-space: pre;" direction="ltr"></text><text x="330" y="NaN" font-family="Cascadia, Segoe UI Emoji" font-size="11px" fill="#343a40" text-anchor="middle" style="white-space: pre;" direction="ltr">Top positions:</text><text x="330" y="NaN" font-family="Cascadia, Segoe UI Emoji" font-size="11px" fill="#343a40" text-anchor="middle" style="white-space: pre;" direction="ltr">  Iran regime fall Jun 30: $45.98 inv -&gt; $44.98 (-2.2%)</text><text x="330" y="NaN" font-family="Cascadia, Segoe UI Emoji" font-size="11px" fill="#343a40" text-anchor="middle" style="white-space: pre;" direction="ltr">  Trump visits China Apr 30: $24.19 inv -&gt; $23.81 (-1.6%)</text><text x="330" y="NaN" font-family="Cascadia, Segoe UI Emoji" font-size="11px" fill="#343a40" text-anchor="middle" style="white-space: pre;" direction="ltr">  Fed no change Apr: $16.09 inv -&gt; $15.72 (-2.3%)</text><text x="330" y="NaN" font-family="Cascadia, Segoe UI Emoji" font-size="11px" fill="#343a40" text-anchor="middle" style="white-space: pre;" direction="ltr">  Atletico CL: $16.24 inv -&gt; $16.00 (-1.5%)</text><text x="330" y="NaN" font-family="Cascadia, Segoe UI Emoji" font-size="11px" fill="#343a40" text-anchor="middle" style="white-space: pre;" direction="ltr">  Iran conflict ends Apr 15: $20.38 inv -&gt; $19.70 (-3.3%)</text></g><g stroke-linecap="round" transform="translate(10 910) rotate(0 340 140)"><path d="M0 0 L680 0 L680 280 L0 280" stroke="none" stroke-width="0" fill="#dee2e6"></path><path d="M0 0 C255.1 0, 510.2 0, 680 0 M0 0 C168.04 0, 336.07 0, 680 0 M680 0 C680 66.15, 680 132.29, 680 280 M680 0 C680 103.61, 680 207.21, 680 280 M680 280 C489.48 280, 298.97 280, 0 280 M680 280 C408.81 280, 137.61 280, 0 280 M0 280 C0 187.79, 0 95.58, 0 0 M0 280 C0 175.84, 0 71.68, 0 0" stroke="#343a40" stroke-width="2" fill="none"></path></g></svg>