<svg version="1.1" xmlns="http://www.w3.org/2000/svg" viewBox="0 0 480 380" width="480" height="380">
  <!-- svg-source:excalidraw -->
  
  <defs>
    <style>
      @font-face {
        font-family: "Virgil";
        src: url("https://excalidraw.com/Virgil.woff2");
      }
      @font-face {
        font-family: "Cascadia";
        src: url("https://excalidraw.com/Cascadia.woff2");
      }
    </style>
  </defs>
  <rect x="0" y="0" width="480" height="380" fill="#ffffff"></rect><g transform="translate(10 10) rotate(0 192 20)"><text x="0" y="NaN" font-family="Cascadia, Segoe UI Emoji" font-size="32px" fill="#343a40" text-anchor="start" style="white-space: pre;" direction="ltr">Current Architecture</text></g><g transform="translate(40 110) rotate(0 80 10)"><text x="80" y="NaN" font-family="Cascadia, Segoe UI Emoji" font-size="16px" fill="#1971c2" text-anchor="middle" style="white-space: pre;" direction="ltr">Web App</text></g><g stroke-linecap="round" transform="translate(30 90) rotate(0 90 30)"><path d="M0 0 L180 0 L180 60 L0 60" stroke="none" stroke-width="0" fill="#a5d8ff"></path><path d="M0 0 C41.73 0, 83.45 0, 180 0 M0 0 C47.96 0, 95.92 0, 180 0 M180 0 C180 18.6, 180 37.21, 180 60 M180 0 C180 22.45, 180 44.91, 180 60 M180 60 C115.19 60, 50.37 60, 0 60 M180 60 C143.15 60, 106.29 60, 0 60 M0 60 C0 42.87, 0 25.73, 0 0 M0 60 C0 42.46, 0 24.92, 0 0" stroke="#1971c2" stroke-width="2" fill="none"></path></g><g transform="translate(300 110) rotate(0 80 10)"><text x="80" y="NaN" font-family="Cascadia, Segoe UI Emoji" font-size="16px" fill="#2f9e44" text-anchor="middle" style="white-space: pre;" direction="ltr">API</text></g><g stroke-linecap="round" transform="translate(290 90) rotate(0 90 30)"><path d="M0 0 L180 0 L180 60 L0 60" stroke="none" stroke-width="0" fill="#b2f2bb"></path><path d="M0 0 C66.41 0, 132.82 0, 180 0 M0 0 C44.77 0, 89.54 0, 180 0 M180 0 C180 13.75, 180 27.5, 180 60 M180 0 C180 19.21, 180 38.43, 180 60 M180 60 C142.47 60, 104.95 60, 0 60 M180 60 C114.03 60, 48.07 60, 0 60 M0 60 C0 40.65, 0 21.3, 0 0 M0 60 C0 42.33, 0 24.66, 0 0" stroke="#2f9e44" stroke-width="2" fill="none"></path></g><g transform="translate(300 250) rotate(0 80 10)"><text x="80" y="NaN" font-family="Cascadia, Segoe UI Emoji" font-size="16px" fill="#7048e8" text-anchor="middle" style="white-space: pre;" direction="ltr">Postgres</text></g><g stroke-linecap="round" transform="translate(290 230) rotate(0 90 30)"><path d="M0 0 L180 0 L180 60 L0 60" stroke="none" stroke-width="0" fill="#d0bfff"></path><path d="M0 0 C59.72 0, 119.44 0, 180 0 M0 0 C48.73 0, 97.46 0, 180 0 M180 0 C180 20.5, 180 40.99, 180 60 M180 0 C180 23.78, 180 47.56, 180 60 M180 60 C115.39 60, 50.78 60, 0 60 M180 60 C131.69 60, 83.37 60, 0 60 M0 60 C0 41.43, 0 22.86, 0 0 M0 60 C0 42.8, 0 25.59, 0 0" stroke="#7048e8" stroke-width="2" fill="none"></path></g><g transform="translate(220 110) rotate(0 30 10)"><text x="30" y="NaN" font-family="Cascadia, Segoe UI Emoji" font-size="12px" fill="#868e96" text-anchor="middle" style="white-space: pre;" direction="ltr">REST</text></g><g stroke-linecap="round"><g transform="translate(210 120) rotate(0 40 0)"><path d="M0 0 C13.33 0, 66.67 0, 80 0 M0 0 C13.33 0, 66.67 0, 80 0" stroke="#868e96" stroke-width="2" fill="none"></path></g><g transform="translate(210 120) rotate(0 40 0)"><path d="M51.81 10.26 C57.5 8.19, 63.2 6.11, 80 0 M51.81 10.26 C59.94 7.3, 68.06 4.35, 80 0" stroke="#868e96" stroke-width="2" fill="none"></path></g><g transform="translate(210 120) rotate(0 40 0)"><path d="M51.81 -10.26 C57.5 -8.19, 63.2 -6.11, 80 0 M51.81 -10.26 C59.94 -7.3, 68.06 -4.35, 80 0" stroke="#868e96" stroke-width="2" fill="none"></path></g></g><g transform="translate(350 180) rotate(0 30 10)"><text x="30" y="NaN" font-family="Cascadia, Segoe UI Emoji" font-size="12px" fill="#868e96" text-anchor="middle" style="white-space: pre;" direction="ltr">SQL</text></g><g stroke-linecap="round"><g transform="translate(380 150) rotate(0 0 40)"><path d="M0 0 C0 13.33, 0 66.67, 0 80 M0 0 C0 13.33, 0 66.67, 0 80" stroke="#868e96" stroke-width="2" fill="none"></path></g><g transform="translate(380 150) rotate(0 0 40)"><path d="M-10.26 51.81 C-7.26 60.05, -4.26 68.3, 0 80 M-10.26 51.81 C-7.42 59.61, -4.58 67.4, 0 80" stroke="#868e96" stroke-width="2" fill="none"></path></g><g transform="translate(380 150) rotate(0 0 40)"><path d="M10.26 51.81 C7.26 60.05, 4.26 68.3, 0 80 M10.26 51.81 C7.42 59.61, 4.58 67.4, 0 80" stroke="#868e96" stroke-width="2" fill="none"></path></g></g><g transform="translate(30 350) rotate(0 206.4000000000001 10)"><text x="0" y="NaN" font-family="Cascadia, Segoe UI Emoji" font-size="16px" fill="#868e96" text-anchor="start" style="white-space: pre;" direction="ltr">Bottleneck: single API instance, no caching</text></g></svg>