<svg version="1.1" xmlns="http://www.w3.org/2000/svg" viewBox="0 0 700 540" width="700" height="540">
  <!-- svg-source:excalidraw -->
  
  <defs>
    <style>
      @font-face {
        font-family: "Virgil";
        src: url("https://excalidraw.com/Virgil.woff2");
      }
      @font-face {
        font-family: "Cascadia";
        src: url("https://excalidraw.com/Cascadia.woff2");
      }
    </style>
  </defs>
  <rect x="0" y="0" width="700" height="540" fill="#ffffff"></rect><g transform="translate(10 10) rotate(0 142.79999999999998 17.5)"><text x="0" y="NaN" font-family="Cascadia, Segoe UI Emoji" font-size="28px" fill="#343a40" text-anchor="start" style="white-space: pre;" direction="ltr">Project Portfolio</text></g><g transform="translate(20 111.875) rotate(0 90 8.125)"><text x="90" y="NaN" font-family="Cascadia, Segoe UI Emoji" font-size="13px" fill="#1971c2" text-anchor="middle" style="white-space: pre;" direction="ltr">claude-projects</text></g><g stroke-linecap="round" transform="translate(10 90) rotate(0 100 30)"><path d="M0 0 L200 0 L200 60 L0 60" stroke="none" stroke-width="0" fill="#a5d8ff"></path><path d="M0 0 C46.15 0, 92.3 0, 200 0 M0 0 C69.62 0, 139.24 0, 200 0 M200 0 C200 15.84, 200 31.68, 200 60 M200 0 C200 17.82, 200 35.65, 200 60 M200 60 C159.97 60, 119.95 60, 0 60 M200 60 C142.57 60, 85.13 60, 0 60 M0 60 C0 43.71, 0 27.41, 0 0 M0 60 C0 43.2, 0 26.4, 0 0" stroke="#1971c2" stroke-width="2" fill="none"></path></g><g transform="translate(260 111.875) rotate(0 90 8.125)"><text x="90" y="NaN" font-family="Cascadia, Segoe UI Emoji" font-size="13px" fill="#1971c2" text-anchor="middle" style="white-space: pre;" direction="ltr">claude-vault</text></g><g stroke-linecap="round" transform="translate(250 90) rotate(0 100 30)"><path d="M0 0 L200 0 L200 60 L0 60" stroke="none" stroke-width="0" fill="#a5d8ff"></path><path d="M0 0 C72.06 0, 144.13 0, 200 0 M0 0 C49.86 0, 99.73 0, 200 0 M200 0 C200 20.3, 200 40.6, 200 60 M200 0 C200 14, 200 28.01, 200 60 M200 60 C153.65 60, 107.29 60, 0 60 M200 60 C128.55 60, 57.09 60, 0 60 M0 60 C0 37.73, 0 15.47, 0 0 M0 60 C0 38.52, 0 17.05, 0 0" stroke="#1971c2" stroke-width="2" fill="none"></path></g><g transform="translate(500 111.875) rotate(0 90 8.125)"><text x="90" y="NaN" font-family="Cascadia, Segoe UI Emoji" font-size="13px" fill="#1971c2" text-anchor="middle" style="white-space: pre;" direction="ltr">pamela-agent</text></g><g stroke-linecap="round" transform="translate(490 90) rotate(0 100 30)"><path d="M0 0 L200 0 L200 60 L0 60" stroke="none" stroke-width="0" fill="#a5d8ff"></path><path d="M0 0 C72.66 0, 145.33 0, 200 0 M0 0 C46.25 0, 92.5 0, 200 0 M200 0 C200 17.63, 200 35.26, 200 60 M200 0 C200 14.46, 200 28.93, 200 60 M200 60 C139.01 60, 78.02 60, 0 60 M200 60 C149.91 60, 99.83 60, 0 60 M0 60 C0 47.85, 0 35.69, 0 0 M0 60 C0 41.44, 0 22.88, 0 0" stroke="#1971c2" stroke-width="2" fill="none"></path></g><g transform="translate(20 211.875) rotate(0 90 8.125)"><text x="90" y="NaN" font-family="Cascadia, Segoe UI Emoji" font-size="13px" fill="#1971c2" text-anchor="middle" style="white-space: pre;" direction="ltr">telegram-bot</text></g><g stroke-linecap="round" transform="translate(10 190) rotate(0 100 30)"><path d="M0 0 L200 0 L200 60 L0 60" stroke="none" stroke-width="0" fill="#a5d8ff"></path><path d="M0 0 C70.68 0, 141.37 0, 200 0 M0 0 C57.82 0, 115.65 0, 200 0 M200 0 C200 18.46, 200 36.93, 200 60 M200 0 C200 21.81, 200 43.62, 200 60 M200 60 C138.6 60, 77.21 60, 0 60 M200 60 C131.16 60, 62.32 60, 0 60 M0 60 C0 41.51, 0 23.02, 0 0 M0 60 C0 36.94, 0 13.87, 0 0" stroke="#1971c2" stroke-width="2" fill="none"></path></g><g transform="translate(260 211.875) rotate(0 90 8.125)"><text x="90" y="NaN" font-family="Cascadia, Segoe UI Emoji" font-size="13px" fill="#868e96" text-anchor="middle" style="white-space: pre;" direction="ltr">toast-agent</text></g><g stroke-linecap="round" transform="translate(250 190) rotate(0 100 30)"><path d="M0 0 L200 0 L200 60 L0 60" stroke="none" stroke-width="0" fill="#dee2e6"></path><path d="M0 0 C43.12 0, 86.24 0, 200 0 M0 0 C67.67 0, 135.34 0, 200 0 M200 0 C200 14.08, 200 28.17, 200 60 M200 0 C200 19.55, 200 39.1, 200 60 M200 60 C136.33 60, 72.66 60, 0 60 M200 60 C142.29 60, 84.58 60, 0 60 M0 60 C0 46.07, 0 32.14, 0 0 M0 60 C0 41.67, 0 23.34, 0 0" stroke="#868e96" stroke-width="2" fill="none"></path></g><g transform="translate(500 211.875) rotate(0 90 8.125)"><text x="90" y="NaN" font-family="Cascadia, Segoe UI Emoji" font-size="13px" fill="#868e96" text-anchor="middle" style="white-space: pre;" direction="ltr">pen-plotter-art</text></g><g stroke-linecap="round" transform="translate(490 190) rotate(0 100 30)"><path d="M0 0 L200 0 L200 60 L0 60" stroke="none" stroke-width="0" fill="#dee2e6"></path><path d="M0 0 C58.56 0, 117.11 0, 200 0 M0 0 C49.76 0, 99.53 0, 200 0 M200 0 C200 23.97, 200 47.95, 200 60 M200 0 C200 17.05, 200 34.1, 200 60 M200 60 C157.8 60, 115.6 60, 0 60 M200 60 C134.92 60, 69.84 60, 0 60 M0 60 C0 40.38, 0 20.75, 0 0 M0 60 C0 46.66, 0 33.32, 0 0" stroke="#868e96" stroke-width="2" fill="none"></path></g><g transform="translate(20 311.875) rotate(0 90 8.125)"><text x="90" y="NaN" font-family="Cascadia, Segoe UI Emoji" font-size="13px" fill="#1971c2" text-anchor="middle" style="white-space: pre;" direction="ltr">n8n-workflows</text></g><g stroke-linecap="round" transform="translate(10 290) rotate(0 100 30)"><path d="M0 0 L200 0 L200 60 L0 60" stroke="none" stroke-width="0" fill="#a5d8ff"></path><path d="M0 0 C56.22 0, 112.45 0, 200 0 M0 0 C79.97 0, 159.93 0, 200 0 M200 0 C200 22.72, 200 45.44, 200 60 M200 0 C200 12.75, 200 25.5, 200 60 M200 60 C135.84 60, 71.69 60, 0 60 M200 60 C153.38 60, 106.77 60, 0 60 M0 60 C0 40.57, 0 21.14, 0 0 M0 60 C0 41.12, 0 22.24, 0 0" stroke="#1971c2" stroke-width="2" fill="none"></path></g><g transform="translate(260 311.875) rotate(0 90 8.125)"><text x="90" y="NaN" font-family="Cascadia, Segoe UI Emoji" font-size="13px" fill="#868e96" text-anchor="middle" style="white-space: pre;" direction="ltr">knowledge-api</text></g><g stroke-linecap="round" transform="translate(250 290) rotate(0 100 30)"><path d="M0 0 L200 0 L200 60 L0 60" stroke="none" stroke-width="0" fill="#dee2e6"></path><path d="M0 0 C69.2 0, 138.41 0, 200 0 M0 0 C40.26 0, 80.51 0, 200 0 M200 0 C200 17.61, 200 35.22, 200 60 M200 0 C200 19.19, 200 38.38, 200 60 M200 60 C150.54 60, 101.08 60, 0 60 M200 60 C129.58 60, 59.16 60, 0 60 M0 60 C0 46.57, 0 33.15, 0 0 M0 60 C0 43.85, 0 27.71, 0 0" stroke="#868e96" stroke-width="2" fill="none"></path></g><g transform="translate(500 311.875) rotate(0 90 8.125)"><text x="90" y="NaN" font-family="Cascadia, Segoe UI Emoji" font-size="13px" fill="#868e96" text-anchor="middle" style="white-space: pre;" direction="ltr">costco-checker</text></g><g stroke-linecap="round" transform="translate(490 290) rotate(0 100 30)"><path d="M0 0 L200 0 L200 60 L0 60" stroke="none" stroke-width="0" fill="#dee2e6"></path><path d="M0 0 C65.89 0, 131.77 0, 200 0 M0 0 C57.73 0, 115.46 0, 200 0 M200 0 C200 18.08, 200 36.16, 200 60 M200 0 C200 17.83, 200 35.65, 200 60 M200 60 C136.67 60, 73.33 60, 0 60 M200 60 C135.01 60, 70.02 60, 0 60 M0 60 C0 37.82, 0 15.63, 0 0 M0 60 C0 44.76, 0 29.52, 0 0" stroke="#868e96" stroke-width="2" fill="none"></path></g><g transform="translate(20 411.875) rotate(0 90 8.125)"><text x="90" y="NaN" font-family="Cascadia, Segoe UI Emoji" font-size="13px" fill="#868e96" text-anchor="middle" style="white-space: pre;" direction="ltr">protardio-mini-app</text></g><g stroke-linecap="round" transform="translate(10 390) rotate(0 100 30)"><path d="M0 0 L200 0 L200 60 L0 60" stroke="none" stroke-width="0" fill="#dee2e6"></path><path d="M0 0 C58.12 0, 116.24 0, 200 0 M0 0 C52.56 0, 105.11 0, 200 0 M200 0 C200 14.99, 200 29.98, 200 60 M200 0 C200 19.79, 200 39.59, 200 60 M200 60 C156.86 60, 113.73 60, 0 60 M200 60 C123.51 60, 47.01 60, 0 60 M0 60 C0 37.32, 0 14.65, 0 0 M0 60 C0 46.43, 0 32.85, 0 0" stroke="#868e96" stroke-width="2" fill="none"></path></g><g transform="translate(260 411.875) rotate(0 90 8.125)"><text x="90" y="NaN" font-family="Cascadia, Segoe UI Emoji" font-size="13px" fill="#868e96" text-anchor="middle" style="white-space: pre;" direction="ltr">hummingbot</text></g><g stroke-linecap="round" transform="translate(250 390) rotate(0 100 30)"><path d="M0 0 L200 0 L200 60 L0 60" stroke="none" stroke-width="0" fill="#dee2e6"></path><path d="M0 0 C69.38 0, 138.76 0, 200 0 M0 0 C78.89 0, 157.77 0, 200 0 M200 0 C200 18.77, 200 37.53, 200 60 M200 0 C200 21.19, 200 42.37, 200 60 M200 60 C156.81 60, 113.62 60, 0 60 M200 60 C157.35 60, 114.7 60, 0 60 M0 60 C0 46.29, 0 32.58, 0 0 M0 60 C0 47.72, 0 35.43, 0 0" stroke="#868e96" stroke-width="2" fill="none"></path></g><g transform="translate(500 411.875) rotate(0 90 8.125)"><text x="90" y="NaN" font-family="Cascadia, Segoe UI Emoji" font-size="13px" fill="#868e96" text-anchor="middle" style="white-space: pre;" direction="ltr">screenshot-to-code</text></g><g stroke-linecap="round" transform="translate(490 390) rotate(0 100 30)"><path d="M0 0 L200 0 L200 60 L0 60" stroke="none" stroke-width="0" fill="#dee2e6"></path><path d="M0 0 C63.57 0, 127.13 0, 200 0 M0 0 C71.09 0, 142.17 0, 200 0 M200 0 C200 19.74, 200 39.48, 200 60 M200 0 C200 16.04, 200 32.07, 200 60 M200 60 C136.82 60, 73.63 60, 0 60 M200 60 C132.72 60, 65.43 60, 0 60 M0 60 C0 41.13, 0 22.25, 0 0 M0 60 C0 38.62, 0 17.24, 0 0" stroke="#868e96" stroke-width="2" fill="none"></path></g><g stroke-linecap="round" transform="translate(10 510) rotate(0 10 10)"><path d="M0 0 L20 0 L20 20 L0 20" stroke="none" stroke-width="0" fill="#a5d8ff"></path><path d="M0 0 C7.35 0, 14.71 0, 20 0 M0 0 C4.85 0, 9.71 0, 20 0 M20 0 C20 6.65, 20 13.31, 20 20 M20 0 C20 5.66, 20 11.32, 20 20 M20 20 C14.16 20, 8.33 20, 0 20 M20 20 C12.83 20, 5.65 20, 0 20 M0 20 C0 14.97, 0 9.93, 0 0 M0 20 C0 13.92, 0 7.84, 0 0" stroke="#1971c2" stroke-width="2" fill="none"></path></g><g transform="translate(50 510) rotate(0 25.200000000000003 8.75)"><text x="0" y="NaN" font-family="Cascadia, Segoe UI Emoji" font-size="14px" fill="#1971c2" text-anchor="start" style="white-space: pre;" direction="ltr">Active</text></g><g stroke-linecap="round" transform="translate(170 510) rotate(0 10 10)"><path d="M0 0 L20 0 L20 20 L0 20" stroke="none" stroke-width="0" fill="#dee2e6"></path><path d="M0 0 C5.06 0, 10.11 0, 20 0 M0 0 C7.56 0, 15.12 0, 20 0 M20 0 C20 4.3, 20 8.6, 20 20 M20 0 C20 5.93, 20 11.87, 20 20 M20 20 C15.51 20, 11.02 20, 0 20 M20 20 C12.85 20, 5.71 20, 0 20 M0 20 C0 12.91, 0 5.82, 0 0 M0 20 C0 14.41, 0 8.82, 0 0" stroke="#868e96" stroke-width="2" fill="none"></path></g><g transform="translate(210 510) rotate(0 29.400000000000006 8.75)"><text x="0" y="NaN" font-family="Cascadia, Segoe UI Emoji" font-size="14px" fill="#868e96" text-anchor="start" style="white-space: pre;" direction="ltr">Dormant</text></g></svg>