<svg version="1.1" xmlns="http://www.w3.org/2000/svg" viewBox="0 0 660 560" width="660" height="560">
  <!-- svg-source:excalidraw -->
  
  <defs>
    <style>
      @font-face {
        font-family: "Virgil";
        src: url("https://excalidraw.com/Virgil.woff2");
      }
      @font-face {
        font-family: "Cascadia";
        src: url("https://excalidraw.com/Cascadia.woff2");
      }
    </style>
  </defs>
  <rect x="0" y="0" width="660" height="560" fill="#ffffff"></rect><g transform="translate(10 10) rotate(0 151.2 17.5)"><text x="0" y="NaN" font-family="Cascadia, Segoe UI Emoji" font-size="28px" fill="#343a40" text-anchor="start" style="white-space: pre;" direction="ltr">Python Environment</text></g><g transform="translate(180 83.75) rotate(0 130 16.25)"><text x="130" y="NaN" font-family="Cascadia, Segoe UI Emoji" font-size="13px" fill="#e03131" text-anchor="middle" style="white-space: pre;" direction="ltr">System Python 3.14</text><text x="130" y="NaN" font-family="Cascadia, Segoe UI Emoji" font-size="13px" fill="#e03131" text-anchor="middle" style="white-space: pre;" direction="ltr">/opt/homebrew/bin/python3</text></g><g stroke-linecap="round" transform="translate(170 70) rotate(0 140 30)"><path d="M0 0 L280 0 L280 60 L0 60" stroke="none" stroke-width="0" fill="#ffc9c9"></path><path d="M0 0 C61.84 0, 123.68 0, 280 0 M0 0 C96.01 0, 192.02 0, 280 0 M280 0 C280 17.37, 280 34.74, 280 60 M280 0 C280 16.76, 280 33.52, 280 60 M280 60 C172.39 60, 64.77 60, 0 60 M280 60 C183.53 60, 87.06 60, 0 60 M0 60 C0 46.08, 0 32.15, 0 0 M0 60 C0 44.33, 0 28.67, 0 0" stroke="#e03131" stroke-width="2" fill="none"></path></g><g transform="translate(180 223.75) rotate(0 130 16.25)"><text x="130" y="NaN" font-family="Cascadia, Segoe UI Emoji" font-size="13px" fill="#e8590c" text-anchor="middle" style="white-space: pre;" direction="ltr">Python 3.11 (homebrew)</text><text x="130" y="NaN" font-family="Cascadia, Segoe UI Emoji" font-size="13px" fill="#e8590c" text-anchor="middle" style="white-space: pre;" direction="ltr">most pip packages</text></g><g stroke-linecap="round" transform="translate(170 210) rotate(0 140 30)"><path d="M0 0 L280 0 L280 60 L0 60" stroke="none" stroke-width="0" fill="#ffd8a8"></path><path d="M0 0 C96.43 0, 192.85 0, 280 0 M0 0 C97.27 0, 194.55 0, 280 0 M280 0 C280 20.09, 280 40.19, 280 60 M280 0 C280 22.06, 280 44.12, 280 60 M280 60 C203.39 60, 126.78 60, 0 60 M280 60 C179.56 60, 79.12 60, 0 60 M0 60 C0 39.1, 0 18.19, 0 0 M0 60 C0 42.08, 0 24.17, 0 0" stroke="#e8590c" stroke-width="2" fill="none"></path></g><g transform="translate(247 160) rotate(0 63 10)"><text x="63" y="NaN" font-family="Cascadia, Segoe UI Emoji" font-size="12px" fill="#e03131" text-anchor="middle" style="white-space: pre;" direction="ltr">PEP 668 blocks pip</text></g><g stroke-linecap="round"><g transform="translate(310 130) rotate(0 0 40)"><path d="M0 0 C0 13.33, 0 66.67, 0 80" stroke="#e03131" stroke-width="2.5" fill="none" stroke-dasharray="8 10"></path></g><g transform="translate(310 130) rotate(0 0 40)"><path d="M-10.26 51.81 C-7.52 59.35, -4.77 66.89, 0 80" stroke="#e03131" stroke-width="2.5" fill="none"></path></g><g transform="translate(310 130) rotate(0 0 40)"><path d="M10.26 51.81 C7.52 59.35, 4.77 66.89, 0 80" stroke="#e03131" stroke-width="2.5" fill="none"></path></g></g><g transform="translate(20 391.875) rotate(0 100 8.125)"><text x="100" y="NaN" font-family="Cascadia, Segoe UI Emoji" font-size="13px" fill="#2f9e44" text-anchor="middle" style="white-space: pre;" direction="ltr">telegram-bot/.venv</text></g><g stroke-linecap="round" transform="translate(10 370) rotate(0 110 30)"><path d="M0 0 L220 0 L220 60 L0 60" stroke="none" stroke-width="0" fill="#b2f2bb"></path><path d="M0 0 C58.41 0, 116.83 0, 220 0 M0 0 C75.12 0, 150.25 0, 220 0 M220 0 C220 14.85, 220 29.69, 220 60 M220 0 C220 14.07, 220 28.15, 220 60 M220 60 C170.57 60, 121.15 60, 0 60 M220 60 C169.05 60, 118.1 60, 0 60 M0 60 C0 47.34, 0 34.68, 0 0 M0 60 C0 39.91, 0 19.82, 0 0" stroke="#2f9e44" stroke-width="2" fill="none"></path></g><g transform="translate(320 391.875) rotate(0 100 8.125)"><text x="100" y="NaN" font-family="Cascadia, Segoe UI Emoji" font-size="13px" fill="#2f9e44" text-anchor="middle" style="white-space: pre;" direction="ltr">.venv (main project)</text></g><g stroke-linecap="round" transform="translate(310 370) rotate(0 110 30)"><path d="M0 0 L220 0 L220 60 L0 60" stroke="none" stroke-width="0" fill="#b2f2bb"></path><path d="M0 0 C60.85 0, 121.71 0, 220 0 M0 0 C63.67 0, 127.35 0, 220 0 M220 0 C220 17.22, 220 34.44, 220 60 M220 0 C220 21.97, 220 43.94, 220 60 M220 60 C173.66 60, 127.32 60, 0 60 M220 60 C169.56 60, 119.12 60, 0 60 M0 60 C0 44.4, 0 28.8, 0 0 M0 60 C0 45.23, 0 30.45, 0 0" stroke="#2f9e44" stroke-width="2" fill="none"></path></g><g stroke-linecap="round"><g transform="translate(170 240) rotate(0 30 80)"><path d="M0 0 C10 26.67, 50 133.33, 60 160 M0 0 C10 26.67, 50 133.33, 60 160" stroke="#868e96" stroke-width="2" fill="none"></path></g><g transform="translate(170 240) rotate(0 30 80)"><path d="M40.49 137.21 C47.71 145.63, 54.92 154.06, 60 160 M40.49 137.21 C45.6 143.18, 50.71 149.15, 60 160" stroke="#868e96" stroke-width="2" fill="none"></path></g><g transform="translate(170 240) rotate(0 30 80)"><path d="M59.71 130 C59.82 141.09, 59.92 152.18, 60 160 M59.71 130 C59.79 137.86, 59.86 145.72, 60 160" stroke="#868e96" stroke-width="2" fill="none"></path></g></g><g stroke-linecap="round"><g transform="translate(310 270) rotate(0 55 50)"><path d="M0 0 C18.33 16.67, 91.67 83.33, 110 100 M0 0 C18.33 16.67, 91.67 83.33, 110 100" stroke="#868e96" stroke-width="2" fill="none"></path></g><g transform="translate(310 270) rotate(0 55 50)"><path d="M82.24 88.63 C90.84 92.15, 99.45 95.68, 110 100 M82.24 88.63 C90.47 92, 98.71 95.38, 110 100" stroke="#868e96" stroke-width="2" fill="none"></path></g><g transform="translate(310 270) rotate(0 55 50)"><path d="M96.04 73.44 C100.37 81.68, 104.69 89.91, 110 100 M96.04 73.44 C100.18 81.32, 104.32 89.2, 110 100" stroke="#868e96" stroke-width="2" fill="none"></path></g></g><g transform="translate(120 522.5) rotate(0 50 7.5)"><text x="50" y="NaN" font-family="Cascadia, Segoe UI Emoji" font-size="12px" fill="#0c8599" text-anchor="middle" style="white-space: pre;" direction="ltr">anthropic</text></g><g stroke-linecap="round" transform="translate(110 510) rotate(0 60 20)"><path d="M0 0 L120 0 L120 40 L0 40" stroke="none" stroke-width="0" fill="#99e9f2"></path><path d="M0 0 C34.3 0, 68.6 0, 120 0 M0 0 C31.9 0, 63.8 0, 120 0 M120 0 C120 12.93, 120 25.87, 120 40 M120 0 C120 9.02, 120 18.04, 120 40 M120 40 C92.28 40, 64.56 40, 0 40 M120 40 C83.22 40, 46.44 40, 0 40 M0 40 C0 26.84, 0 13.68, 0 0 M0 40 C0 29.14, 0 18.28, 0 0" stroke="#0c8599" stroke-width="2" fill="none"></path></g><g transform="translate(260 522.5) rotate(0 50 7.5)"><text x="50" y="NaN" font-family="Cascadia, Segoe UI Emoji" font-size="12px" fill="#0c8599" text-anchor="middle" style="white-space: pre;" direction="ltr">openai</text></g><g stroke-linecap="round" transform="translate(250 510) rotate(0 60 20)"><path d="M0 0 L120 0 L120 40 L0 40" stroke="none" stroke-width="0" fill="#99e9f2"></path><path d="M0 0 C28.26 0, 56.52 0, 120 0 M0 0 C44.98 0, 89.95 0, 120 0 M120 0 C120 14.8, 120 29.61, 120 40 M120 0 C120 10.63, 120 21.27, 120 40 M120 40 C84.41 40, 48.81 40, 0 40 M120 40 C95.56 40, 71.12 40, 0 40 M0 40 C0 28.89, 0 17.78, 0 0 M0 40 C0 26.51, 0 13.02, 0 0" stroke="#0c8599" stroke-width="2" fill="none"></path></g><g transform="translate(400 522.5) rotate(0 50 7.5)"><text x="50" y="NaN" font-family="Cascadia, Segoe UI Emoji" font-size="12px" fill="#0c8599" text-anchor="middle" style="white-space: pre;" direction="ltr">chromadb</text></g><g stroke-linecap="round" transform="translate(390 510) rotate(0 60 20)"><path d="M0 0 L120 0 L120 40 L0 40" stroke="none" stroke-width="0" fill="#99e9f2"></path><path d="M0 0 C39.28 0, 78.57 0, 120 0 M0 0 C34.66 0, 69.31 0, 120 0 M120 0 C120 11.56, 120 23.13, 120 40 M120 0 C120 12.57, 120 25.14, 120 40 M120 40 C93.05 40, 66.09 40, 0 40 M120 40 C93.44 40, 66.88 40, 0 40 M0 40 C0 27.83, 0 15.67, 0 0 M0 40 C0 27.29, 0 14.57, 0 0" stroke="#0c8599" stroke-width="2" fill="none"></path></g><g transform="translate(540 522.5) rotate(0 50 7.5)"><text x="50" y="NaN" font-family="Cascadia, Segoe UI Emoji" font-size="12px" fill="#0c8599" text-anchor="middle" style="white-space: pre;" direction="ltr">pandas</text></g><g stroke-linecap="round" transform="translate(530 510) rotate(0 60 20)"><path d="M0 0 L120 0 L120 40 L0 40" stroke="none" stroke-width="0" fill="#99e9f2"></path><path d="M0 0 C24.59 0, 49.18 0, 120 0 M0 0 C45.35 0, 90.69 0, 120 0 M120 0 C120 14.32, 120 28.65, 120 40 M120 0 C120 10.73, 120 21.47, 120 40 M120 40 C82.89 40, 45.78 40, 0 40 M120 40 C82 40, 44.01 40, 0 40 M0 40 C0 24.8, 0 9.6, 0 0 M0 40 C0 26.84, 0 13.69, 0 0" stroke="#0c8599" stroke-width="2" fill="none"></path></g></svg>