<svg version="1.1" xmlns="http://www.w3.org/2000/svg" viewBox="0 0 1260 466" width="1260" height="466">
  <!-- svg-source:excalidraw -->
  
  <defs>
    <style>
      @font-face {
        font-family: "Virgil";
        src: url("https://excalidraw.com/Virgil.woff2");
      }
      @font-face {
        font-family: "Cascadia";
        src: url("https://excalidraw.com/Cascadia.woff2");
      }
    </style>
  </defs>
  <rect x="0" y="0" width="1260" height="466" fill="#ffffff"></rect><g transform="translate(10 10) rotate(0 126 17.5)"><text x="0" y="NaN" font-family="Cascadia, Segoe UI Emoji" font-size="28px" fill="#343a40" text-anchor="start" style="white-space: pre;" direction="ltr">Reading History</text></g><g transform="translate(10 50) rotate(0 84 8.75)"><text x="0" y="NaN" font-family="Cascadia, Segoe UI Emoji" font-size="14px" fill="#868e96" text-anchor="start" style="white-space: pre;" direction="ltr">7.4 years, 456 books</text></g><g transform="translate(20 147.5) rotate(0 50 17.5)"><text x="50" y="NaN" font-family="Cascadia, Segoe UI Emoji" font-size="14px" fill="#868e96" text-anchor="middle" style="white-space: pre;" direction="ltr">2019</text><text x="50" y="NaN" font-family="Cascadia, Segoe UI Emoji" font-size="14px" fill="#868e96" text-anchor="middle" style="white-space: pre;" direction="ltr">20 books</text></g><g stroke-linecap="round" transform="translate(10 130) rotate(0 60 35)"><path d="M0 0 L120 0 L120 70 L0 70" stroke="none" stroke-width="0" fill="#dee2e6"></path><path d="M0 0 C40.2 0, 80.4 0, 120 0 M0 0 C35.53 0, 71.05 0, 120 0 M120 0 C120 26.79, 120 53.59, 120 70 M120 0 C120 16.55, 120 33.1, 120 70 M120 70 C89.45 70, 58.91 70, 0 70 M120 70 C78.85 70, 37.71 70, 0 70 M0 70 C0 54.01, 0 38.02, 0 0 M0 70 C0 49.37, 0 28.75, 0 0" stroke="#868e96" stroke-width="2" fill="none"></path></g><g transform="translate(180 147.5) rotate(0 50 17.5)"><text x="50" y="NaN" font-family="Cascadia, Segoe UI Emoji" font-size="14px" fill="#868e96" text-anchor="middle" style="white-space: pre;" direction="ltr">2020</text><text x="50" y="NaN" font-family="Cascadia, Segoe UI Emoji" font-size="14px" fill="#868e96" text-anchor="middle" style="white-space: pre;" direction="ltr">45 books</text></g><g stroke-linecap="round" transform="translate(170 130) rotate(0 60 35)"><path d="M0 0 L120 0 L120 70 L0 70" stroke="none" stroke-width="0" fill="#dee2e6"></path><path d="M0 0 C28.86 0, 57.72 0, 120 0 M0 0 C35.94 0, 71.89 0, 120 0 M120 0 C120 23.19, 120 46.37, 120 70 M120 0 C120 18.68, 120 37.36, 120 70 M120 70 C80.76 70, 41.53 70, 0 70 M120 70 C90.62 70, 61.23 70, 0 70 M0 70 C0 44.44, 0 18.89, 0 0 M0 70 C0 42.07, 0 14.14, 0 0" stroke="#868e96" stroke-width="2" fill="none"></path></g><g stroke-linecap="round"><g transform="translate(130 165) rotate(0 20 0)"><path d="M0 0 C6.67 0, 33.33 0, 40 0 M0 0 C6.67 0, 33.33 0, 40 0" stroke="#868e96" stroke-width="2" fill="none"></path></g><g transform="translate(130 165) rotate(0 20 0)"><path d="M21.21 6.84 C26.78 4.81, 32.35 2.79, 40 0 M21.21 6.84 C28.33 4.25, 35.45 1.66, 40 0" stroke="#868e96" stroke-width="2" fill="none"></path></g><g transform="translate(130 165) rotate(0 20 0)"><path d="M21.21 -6.84 C26.78 -4.81, 32.35 -2.79, 40 0 M21.21 -6.84 C28.33 -4.25, 35.45 -1.66, 40 0" stroke="#868e96" stroke-width="2" fill="none"></path></g></g><g transform="translate(340 147.5) rotate(0 50 17.5)"><text x="50" y="NaN" font-family="Cascadia, Segoe UI Emoji" font-size="14px" fill="#2f9e44" text-anchor="middle" style="white-space: pre;" direction="ltr">2021</text><text x="50" y="NaN" font-family="Cascadia, Segoe UI Emoji" font-size="14px" fill="#2f9e44" text-anchor="middle" style="white-space: pre;" direction="ltr">65 books</text></g><g stroke-linecap="round" transform="translate(330 130) rotate(0 60 35)"><path d="M0 0 L120 0 L120 70 L0 70" stroke="none" stroke-width="0" fill="#b2f2bb"></path><path d="M0 0 C46.21 0, 92.42 0, 120 0 M0 0 C34.74 0, 69.47 0, 120 0 M120 0 C120 17.36, 120 34.73, 120 70 M120 0 C120 17.72, 120 35.43, 120 70 M120 70 C91.83 70, 63.65 70, 0 70 M120 70 C82.74 70, 45.49 70, 0 70 M0 70 C0 43.45, 0 16.9, 0 0 M0 70 C0 54, 0 38.01, 0 0" stroke="#2f9e44" stroke-width="2" fill="none"></path></g><g stroke-linecap="round"><g transform="translate(290 165) rotate(0 20 0)"><path d="M0 0 C6.67 0, 33.33 0, 40 0 M0 0 C6.67 0, 33.33 0, 40 0" stroke="#868e96" stroke-width="2" fill="none"></path></g><g transform="translate(290 165) rotate(0 20 0)"><path d="M21.21 6.84 C27.25 4.64, 33.3 2.44, 40 0 M21.21 6.84 C25.64 5.23, 30.07 3.61, 40 0" stroke="#868e96" stroke-width="2" fill="none"></path></g><g transform="translate(290 165) rotate(0 20 0)"><path d="M21.21 -6.84 C27.25 -4.64, 33.3 -2.44, 40 0 M21.21 -6.84 C25.64 -5.23, 30.07 -3.61, 40 0" stroke="#868e96" stroke-width="2" fill="none"></path></g></g><g transform="translate(500 147.5) rotate(0 50 17.5)"><text x="50" y="NaN" font-family="Cascadia, Segoe UI Emoji" font-size="14px" fill="#2f9e44" text-anchor="middle" style="white-space: pre;" direction="ltr">2022</text><text x="50" y="NaN" font-family="Cascadia, Segoe UI Emoji" font-size="14px" fill="#2f9e44" text-anchor="middle" style="white-space: pre;" direction="ltr">80 books</text></g><g stroke-linecap="round" transform="translate(490 130) rotate(0 60 35)"><path d="M0 0 L120 0 L120 70 L0 70" stroke="none" stroke-width="0" fill="#b2f2bb"></path><path d="M0 0 C39.83 0, 79.66 0, 120 0 M0 0 C38.83 0, 77.66 0, 120 0 M120 0 C120 18.75, 120 37.49, 120 70 M120 0 C120 23.34, 120 46.67, 120 70 M120 70 C87.82 70, 55.63 70, 0 70 M120 70 C80.9 70, 41.79 70, 0 70 M0 70 C0 46.71, 0 23.42, 0 0 M0 70 C0 52.34, 0 34.67, 0 0" stroke="#2f9e44" stroke-width="2" fill="none"></path></g><g stroke-linecap="round"><g transform="translate(450 165) rotate(0 20 0)"><path d="M0 0 C6.67 0, 33.33 0, 40 0 M0 0 C6.67 0, 33.33 0, 40 0" stroke="#868e96" stroke-width="2" fill="none"></path></g><g transform="translate(450 165) rotate(0 20 0)"><path d="M21.21 6.84 C27.34 4.61, 33.47 2.38, 40 0 M21.21 6.84 C27.58 4.52, 33.95 2.2, 40 0" stroke="#868e96" stroke-width="2" fill="none"></path></g><g transform="translate(450 165) rotate(0 20 0)"><path d="M21.21 -6.84 C27.34 -4.61, 33.47 -2.38, 40 0 M21.21 -6.84 C27.58 -4.52, 33.95 -2.2, 40 0" stroke="#868e96" stroke-width="2" fill="none"></path></g></g><g transform="translate(660 147.5) rotate(0 50 17.5)"><text x="50" y="NaN" font-family="Cascadia, Segoe UI Emoji" font-size="14px" fill="#1971c2" text-anchor="middle" style="white-space: pre;" direction="ltr">2023</text><text x="50" y="NaN" font-family="Cascadia, Segoe UI Emoji" font-size="14px" fill="#1971c2" text-anchor="middle" style="white-space: pre;" direction="ltr">75 books</text></g><g stroke-linecap="round" transform="translate(650 130) rotate(0 60 35)"><path d="M0 0 L120 0 L120 70 L0 70" stroke="none" stroke-width="0" fill="#a5d8ff"></path><path d="M0 0 C35.25 0, 70.5 0, 120 0 M0 0 C36.4 0, 72.8 0, 120 0 M120 0 C120 24.87, 120 49.74, 120 70 M120 0 C120 15.89, 120 31.78, 120 70 M120 70 C80.55 70, 41.11 70, 0 70 M120 70 C73.66 70, 27.32 70, 0 70 M0 70 C0 47.13, 0 24.25, 0 0 M0 70 C0 52.52, 0 35.04, 0 0" stroke="#1971c2" stroke-width="2" fill="none"></path></g><g stroke-linecap="round"><g transform="translate(610 165) rotate(0 20 0)"><path d="M0 0 C6.67 0, 33.33 0, 40 0 M0 0 C6.67 0, 33.33 0, 40 0" stroke="#868e96" stroke-width="2" fill="none"></path></g><g transform="translate(610 165) rotate(0 20 0)"><path d="M21.21 6.84 C25.91 5.13, 30.62 3.42, 40 0 M21.21 6.84 C27.27 4.63, 33.34 2.43, 40 0" stroke="#868e96" stroke-width="2" fill="none"></path></g><g transform="translate(610 165) rotate(0 20 0)"><path d="M21.21 -6.84 C25.91 -5.13, 30.62 -3.42, 40 0 M21.21 -6.84 C27.27 -4.63, 33.34 -2.43, 40 0" stroke="#868e96" stroke-width="2" fill="none"></path></g></g><g transform="translate(820 147.5) rotate(0 50 17.5)"><text x="50" y="NaN" font-family="Cascadia, Segoe UI Emoji" font-size="14px" fill="#1971c2" text-anchor="middle" style="white-space: pre;" direction="ltr">2024</text><text x="50" y="NaN" font-family="Cascadia, Segoe UI Emoji" font-size="14px" fill="#1971c2" text-anchor="middle" style="white-space: pre;" direction="ltr">90 books</text></g><g stroke-linecap="round" transform="translate(810 130) rotate(0 60 35)"><path d="M0 0 L120 0 L120 70 L0 70" stroke="none" stroke-width="0" fill="#a5d8ff"></path><path d="M0 0 C38.5 0, 77 0, 120 0 M0 0 C29.11 0, 58.22 0, 120 0 M120 0 C120 19.79, 120 39.57, 120 70 M120 0 C120 19.18, 120 38.36, 120 70 M120 70 C81.03 70, 42.06 70, 0 70 M120 70 C87.47 70, 54.95 70, 0 70 M0 70 C0 51.59, 0 33.17, 0 0 M0 70 C0 52.03, 0 34.06, 0 0" stroke="#1971c2" stroke-width="2" fill="none"></path></g><g stroke-linecap="round"><g transform="translate(770 165) rotate(0 20 0)"><path d="M0 0 C6.67 0, 33.33 0, 40 0 M0 0 C6.67 0, 33.33 0, 40 0" stroke="#868e96" stroke-width="2" fill="none"></path></g><g transform="translate(770 165) rotate(0 20 0)"><path d="M21.21 6.84 C25.24 5.37, 29.27 3.9, 40 0 M21.21 6.84 C28.11 4.33, 35.02 1.81, 40 0" stroke="#868e96" stroke-width="2" fill="none"></path></g><g transform="translate(770 165) rotate(0 20 0)"><path d="M21.21 -6.84 C25.24 -5.37, 29.27 -3.9, 40 0 M21.21 -6.84 C28.11 -4.33, 35.02 -1.81, 40 0" stroke="#868e96" stroke-width="2" fill="none"></path></g></g><g transform="translate(980 147.5) rotate(0 50 17.5)"><text x="50" y="NaN" font-family="Cascadia, Segoe UI Emoji" font-size="14px" fill="#7048e8" text-anchor="middle" style="white-space: pre;" direction="ltr">2025</text><text x="50" y="NaN" font-family="Cascadia, Segoe UI Emoji" font-size="14px" fill="#7048e8" text-anchor="middle" style="white-space: pre;" direction="ltr">60 books</text></g><g stroke-linecap="round" transform="translate(970 130) rotate(0 60 35)"><path d="M0 0 L120 0 L120 70 L0 70" stroke="none" stroke-width="0" fill="#d0bfff"></path><path d="M0 0 C40.08 0, 80.17 0, 120 0 M0 0 C25.18 0, 50.37 0, 120 0 M120 0 C120 23.7, 120 47.41, 120 70 M120 0 C120 15.31, 120 30.62, 120 70 M120 70 C83.35 70, 46.71 70, 0 70 M120 70 C92.63 70, 65.26 70, 0 70 M0 70 C0 49.92, 0 29.83, 0 0 M0 70 C0 47.63, 0 25.26, 0 0" stroke="#7048e8" stroke-width="2" fill="none"></path></g><g stroke-linecap="round"><g transform="translate(930 165) rotate(0 20 0)"><path d="M0 0 C6.67 0, 33.33 0, 40 0 M0 0 C6.67 0, 33.33 0, 40 0" stroke="#868e96" stroke-width="2" fill="none"></path></g><g transform="translate(930 165) rotate(0 20 0)"><path d="M21.21 6.84 C28.69 4.12, 36.16 1.4, 40 0 M21.21 6.84 C28.58 4.16, 35.94 1.48, 40 0" stroke="#868e96" stroke-width="2" fill="none"></path></g><g transform="translate(930 165) rotate(0 20 0)"><path d="M21.21 -6.84 C28.69 -4.12, 36.16 -1.4, 40 0 M21.21 -6.84 C28.58 -4.16, 35.94 -1.48, 40 0" stroke="#868e96" stroke-width="2" fill="none"></path></g></g><g transform="translate(1140 147.5) rotate(0 50 17.5)"><text x="50" y="NaN" font-family="Cascadia, Segoe UI Emoji" font-size="14px" fill="#0c8599" text-anchor="middle" style="white-space: pre;" direction="ltr">2026</text><text x="50" y="NaN" font-family="Cascadia, Segoe UI Emoji" font-size="14px" fill="#0c8599" text-anchor="middle" style="white-space: pre;" direction="ltr">21 books</text></g><g stroke-linecap="round" transform="translate(1130 130) rotate(0 60 35)"><path d="M0 0 L120 0 L120 70 L0 70" stroke="none" stroke-width="0" fill="#99e9f2"></path><path d="M0 0 C27 0, 53.99 0, 120 0 M0 0 C42.73 0, 85.46 0, 120 0 M120 0 C120 18.95, 120 37.9, 120 70 M120 0 C120 17.76, 120 35.53, 120 70 M120 70 C82.8 70, 45.6 70, 0 70 M120 70 C87.53 70, 55.06 70, 0 70 M0 70 C0 47.23, 0 24.46, 0 0 M0 70 C0 50.2, 0 30.39, 0 0" stroke="#0c8599" stroke-width="2" fill="none"></path></g><g stroke-linecap="round"><g transform="translate(1090 165) rotate(0 20 0)"><path d="M0 0 C6.67 0, 33.33 0, 40 0 M0 0 C6.67 0, 33.33 0, 40 0" stroke="#868e96" stroke-width="2" fill="none"></path></g><g transform="translate(1090 165) rotate(0 20 0)"><path d="M21.21 6.84 C28.24 4.28, 35.26 1.72, 40 0 M21.21 6.84 C26.89 4.77, 32.58 2.7, 40 0" stroke="#868e96" stroke-width="2" fill="none"></path></g><g transform="translate(1090 165) rotate(0 20 0)"><path d="M21.21 -6.84 C28.24 -4.28, 35.26 -1.72, 40 0 M21.21 -6.84 C26.89 -4.77, 32.58 -2.7, 40 0" stroke="#868e96" stroke-width="2" fill="none"></path></g></g><g transform="translate(10 250) rotate(0 67.2 10)"><text x="0" y="NaN" font-family="Cascadia, Segoe UI Emoji" font-size="16px" fill="#343a40" text-anchor="start" style="white-space: pre;" direction="ltr">Books per Year</text></g><g transform="translate(20 418.75) rotate(0 50 8.75)"><text x="50" y="NaN" font-family="Cascadia, Segoe UI Emoji" font-size="14px" fill="#868e96" text-anchor="middle" style="white-space: pre;" direction="ltr">20</text></g><g stroke-linecap="round" transform="translate(10 410) rotate(0 60 17.5)"><path d="M0 0 L120 0 L120 35 L0 35" stroke="none" stroke-width="0" fill="#dee2e6"></path><path d="M0 0 C47.87 0, 95.74 0, 120 0 M0 0 C43.03 0, 86.07 0, 120 0 M120 0 C120 9.42, 120 18.84, 120 35 M120 0 C120 13.82, 120 27.65, 120 35 M120 35 C78.17 35, 36.34 35, 0 35 M120 35 C86.63 35, 53.27 35, 0 35 M0 35 C0 23.74, 0 12.48, 0 0 M0 35 C0 27.19, 0 19.38, 0 0" stroke="#868e96" stroke-width="2" fill="none"></path></g><g transform="translate(180 401.25) rotate(0 50 8.75)"><text x="50" y="NaN" font-family="Cascadia, Segoe UI Emoji" font-size="14px" fill="#868e96" text-anchor="middle" style="white-space: pre;" direction="ltr">45</text></g><g stroke-linecap="round" transform="translate(170 370) rotate(0 60 40)"><path d="M0 0 L120 0 L120 80 L0 80" stroke="none" stroke-width="0" fill="#dee2e6"></path><path d="M0 0 C38.31 0, 76.62 0, 120 0 M0 0 C34.66 0, 69.31 0, 120 0 M120 0 C120 29.59, 120 59.18, 120 80 M120 0 C120 21.95, 120 43.9, 120 80 M120 80 C90.19 80, 60.39 80, 0 80 M120 80 C75.47 80, 30.93 80, 0 80 M0 80 C0 49.57, 0 19.15, 0 0 M0 80 C0 54.83, 0 29.66, 0 0" stroke="#868e96" stroke-width="2" fill="none"></path></g><g transform="translate(340 378.75) rotate(0 50 8.75)"><text x="50" y="NaN" font-family="Cascadia, Segoe UI Emoji" font-size="14px" fill="#2f9e44" text-anchor="middle" style="white-space: pre;" direction="ltr">65</text></g><g stroke-linecap="round" transform="translate(330 330) rotate(0 60 57.5)"><path d="M0 0 L120 0 L120 115 L0 115" stroke="none" stroke-width="0" fill="#b2f2bb"></path><path d="M0 0 C43.98 0, 87.96 0, 120 0 M0 0 C30.69 0, 61.37 0, 120 0 M120 0 C120 43.27, 120 86.54, 120 115 M120 0 C120 31.23, 120 62.46, 120 115 M120 115 C75.96 115, 31.93 115, 0 115 M120 115 C79.03 115, 38.07 115, 0 115 M0 115 C0 74.5, 0 34, 0 0 M0 115 C0 85.28, 0 55.56, 0 0" stroke="#2f9e44" stroke-width="2" fill="none"></path></g><g transform="translate(500 372.25) rotate(0 50 8.75)"><text x="50" y="NaN" font-family="Cascadia, Segoe UI Emoji" font-size="14px" fill="#2f9e44" text-anchor="middle" style="white-space: pre;" direction="ltr">80</text></g><g stroke-linecap="round" transform="translate(490 310) rotate(0 60 71)"><path d="M0 0 L120 0 L120 142 L0 142" stroke="none" stroke-width="0" fill="#b2f2bb"></path><path d="M0 0 C30.41 0, 60.81 0, 120 0 M0 0 C38.68 0, 77.36 0, 120 0 M120 0 C120 38.02, 120 76.04, 120 142 M120 0 C120 31.22, 120 62.45, 120 142 M120 142 C87.95 142, 55.9 142, 0 142 M120 142 C84.4 142, 48.81 142, 0 142 M0 142 C0 94.08, 0 46.16, 0 0 M0 142 C0 109.13, 0 76.25, 0 0" stroke="#2f9e44" stroke-width="2" fill="none"></path></g><g transform="translate(660 367.75) rotate(0 50 8.75)"><text x="50" y="NaN" font-family="Cascadia, Segoe UI Emoji" font-size="14px" fill="#1971c2" text-anchor="middle" style="white-space: pre;" direction="ltr">75</text></g><g stroke-linecap="round" transform="translate(650 310) rotate(0 60 66.5)"><path d="M0 0 L120 0 L120 133 L0 133" stroke="none" stroke-width="0" fill="#a5d8ff"></path><path d="M0 0 C25.17 0, 50.35 0, 120 0 M0 0 C41.88 0, 83.76 0, 120 0 M120 0 C120 47.65, 120 95.3, 120 133 M120 0 C120 43.75, 120 87.51, 120 133 M120 133 C85.32 133, 50.64 133, 0 133 M120 133 C80.42 133, 40.84 133, 0 133 M0 133 C0 92.81, 0 52.62, 0 0 M0 133 C0 96.04, 0 59.08, 0 0" stroke="#1971c2" stroke-width="2" fill="none"></path></g><g transform="translate(820 361.25) rotate(0 50 8.75)"><text x="50" y="NaN" font-family="Cascadia, Segoe UI Emoji" font-size="14px" fill="#1971c2" text-anchor="middle" style="white-space: pre;" direction="ltr">90</text></g><g stroke-linecap="round" transform="translate(810 290) rotate(0 60 80)"><path d="M0 0 L120 0 L120 160 L0 160" stroke="none" stroke-width="0" fill="#a5d8ff"></path><path d="M0 0 C31.63 0, 63.26 0, 120 0 M0 0 C43.01 0, 86.03 0, 120 0 M120 0 C120 41, 120 81.99, 120 160 M120 0 C120 48.21, 120 96.41, 120 160 M120 160 C79.69 160, 39.38 160, 0 160 M120 160 C86.13 160, 52.25 160, 0 160 M0 160 C0 126.74, 0 93.48, 0 0 M0 160 C0 114.1, 0 68.2, 0 0" stroke="#1971c2" stroke-width="2" fill="none"></path></g><g transform="translate(980 394.25) rotate(0 50 8.75)"><text x="50" y="NaN" font-family="Cascadia, Segoe UI Emoji" font-size="14px" fill="#7048e8" text-anchor="middle" style="white-space: pre;" direction="ltr">60</text></g><g stroke-linecap="round" transform="translate(970 350) rotate(0 60 53)"><path d="M0 0 L120 0 L120 106 L0 106" stroke="none" stroke-width="0" fill="#d0bfff"></path><path d="M0 0 C39.47 0, 78.95 0, 120 0 M0 0 C45.38 0, 90.75 0, 120 0 M120 0 C120 29.8, 120 59.59, 120 106 M120 0 C120 33.22, 120 66.45, 120 106 M120 106 C75.55 106, 31.11 106, 0 106 M120 106 C94.69 106, 69.39 106, 0 106 M0 106 C0 84.08, 0 62.16, 0 0 M0 106 C0 80.99, 0 55.99, 0 0" stroke="#7048e8" stroke-width="2" fill="none"></path></g><g transform="translate(1140 419.75) rotate(0 50 8.75)"><text x="50" y="NaN" font-family="Cascadia, Segoe UI Emoji" font-size="14px" fill="#0c8599" text-anchor="middle" style="white-space: pre;" direction="ltr">21</text></g><g stroke-linecap="round" transform="translate(1130 410) rotate(0 60 18.5)"><path d="M0 0 L120 0 L120 37 L0 37" stroke="none" stroke-width="0" fill="#99e9f2"></path><path d="M0 0 C44.6 0, 89.2 0, 120 0 M0 0 C35.56 0, 71.11 0, 120 0 M120 0 C120 9.09, 120 18.18, 120 37 M120 0 C120 11.95, 120 23.89, 120 37 M120 37 C88.01 37, 56.01 37, 0 37 M120 37 C74.72 37, 29.44 37, 0 37 M0 37 C0 26.39, 0 15.78, 0 0 M0 37 C0 27.5, 0 18.01, 0 0" stroke="#0c8599" stroke-width="2" fill="none"></path></g></svg>