<svg version="1.1" xmlns="http://www.w3.org/2000/svg" viewBox="0 0 980 700" width="980" height="700">
  <!-- svg-source:excalidraw -->
  
  <defs>
    <style>
      @font-face {
        font-family: "Virgil";
        src: url("https://excalidraw.com/Virgil.woff2");
      }
      @font-face {
        font-family: "Cascadia";
        src: url("https://excalidraw.com/Cascadia.woff2");
      }
    </style>
  </defs>
  <rect x="0" y="0" width="980" height="700" fill="#ffffff"></rect><g transform="translate(10 10) rotate(0 201.6 15)"><text x="0" y="NaN" font-family="Cascadia, Segoe UI Emoji" font-size="24px" fill="#343a40" text-anchor="start" style="white-space: pre;" direction="ltr">Registration Flow (Swimlane)</text></g><g transform="translate(40 65) rotate(0 90 10)"><text x="90" y="NaN" font-family="Cascadia, Segoe UI Emoji" font-size="16px" fill="#868e96" text-anchor="middle" style="white-space: pre;" direction="ltr">User</text></g><g stroke-linecap="round" transform="translate(30 50) rotate(0 100 25)"><path d="M0 0 L200 0 L200 50 L0 50" stroke="none" stroke-width="0" fill="#dee2e6"></path><path d="M0 0 C61.16 0, 122.32 0, 200 0 M0 0 C42.81 0, 85.62 0, 200 0 M200 0 C200 15.68, 200 31.37, 200 50 M200 0 C200 15.92, 200 31.84, 200 50 M200 50 C133.54 50, 67.09 50, 0 50 M200 50 C126.58 50, 53.16 50, 0 50 M0 50 C0 30.55, 0 11.1, 0 0 M0 50 C0 36.12, 0 22.24, 0 0" stroke="#868e96" stroke-width="2" fill="none"></path></g><g stroke-linecap="round"><g transform="translate(250 50) rotate(0 0 320)"><path d="M0 0 C0 106.67, 0 533.33, 0 640" stroke="#868e96" stroke-width="1.5" fill="none" stroke-dasharray="8 9"></path></g></g><g transform="translate(280 65) rotate(0 90 10)"><text x="90" y="NaN" font-family="Cascadia, Segoe UI Emoji" font-size="16px" fill="#868e96" text-anchor="middle" style="white-space: pre;" direction="ltr">Browser</text></g><g stroke-linecap="round" transform="translate(270 50) rotate(0 100 25)"><path d="M0 0 L200 0 L200 50 L0 50" stroke="none" stroke-width="0" fill="#dee2e6"></path><path d="M0 0 C47.26 0, 94.53 0, 200 0 M0 0 C75.58 0, 151.15 0, 200 0 M200 0 C200 17.93, 200 35.86, 200 50 M200 0 C200 15.58, 200 31.16, 200 50 M200 50 C148.63 50, 97.26 50, 0 50 M200 50 C159.03 50, 118.06 50, 0 50 M0 50 C0 38.49, 0 26.97, 0 0 M0 50 C0 37.32, 0 24.64, 0 0" stroke="#868e96" stroke-width="2" fill="none"></path></g><g stroke-linecap="round"><g transform="translate(490 50) rotate(0 0 320)"><path d="M0 0 C0 106.67, 0 533.33, 0 640" stroke="#868e96" stroke-width="1.5" fill="none" stroke-dasharray="8 9"></path></g></g><g transform="translate(520 65) rotate(0 90 10)"><text x="90" y="NaN" font-family="Cascadia, Segoe UI Emoji" font-size="16px" fill="#868e96" text-anchor="middle" style="white-space: pre;" direction="ltr">API</text></g><g stroke-linecap="round" transform="translate(510 50) rotate(0 100 25)"><path d="M0 0 L200 0 L200 50 L0 50" stroke="none" stroke-width="0" fill="#dee2e6"></path><path d="M0 0 C52.48 0, 104.97 0, 200 0 M0 0 C44.89 0, 89.79 0, 200 0 M200 0 C200 12.82, 200 25.64, 200 50 M200 0 C200 17.52, 200 35.04, 200 50 M200 50 C157.88 50, 115.75 50, 0 50 M200 50 C155.17 50, 110.34 50, 0 50 M0 50 C0 35.16, 0 20.32, 0 0 M0 50 C0 38.16, 0 26.31, 0 0" stroke="#868e96" stroke-width="2" fill="none"></path></g><g stroke-linecap="round"><g transform="translate(730 50) rotate(0 0 320)"><path d="M0 0 C0 106.67, 0 533.33, 0 640" stroke="#868e96" stroke-width="1.5" fill="none" stroke-dasharray="8 9"></path></g></g><g transform="translate(760 65) rotate(0 90 10)"><text x="90" y="NaN" font-family="Cascadia, Segoe UI Emoji" font-size="16px" fill="#868e96" text-anchor="middle" style="white-space: pre;" direction="ltr">Database</text></g><g stroke-linecap="round" transform="translate(750 50) rotate(0 100 25)"><path d="M0 0 L200 0 L200 50 L0 50" stroke="none" stroke-width="0" fill="#dee2e6"></path><path d="M0 0 C66.37 0, 132.75 0, 200 0 M0 0 C45.52 0, 91.04 0, 200 0 M200 0 C200 19.9, 200 39.8, 200 50 M200 0 C200 16.72, 200 33.44, 200 50 M200 50 C159.17 50, 118.34 50, 0 50 M200 50 C142.17 50, 84.35 50, 0 50 M0 50 C0 34.28, 0 18.57, 0 0 M0 50 C0 38.99, 0 27.99, 0 0" stroke="#868e96" stroke-width="2" fill="none"></path></g><g stroke-linecap="round"><g transform="translate(970 50) rotate(0 0 320)"><path d="M0 0 C0 106.67, 0 533.33, 0 640" stroke="#868e96" stroke-width="1.5" fill="none" stroke-dasharray="8 9"></path></g></g><g transform="translate(60 170) rotate(0 80 10)"><text x="80" y="NaN" font-family="Cascadia, Segoe UI Emoji" font-size="16px" fill="#1971c2" text-anchor="middle" style="white-space: pre;" direction="ltr">Fill Form</text></g><g stroke-linecap="round" transform="translate(50 150) rotate(0 90 30)"><path d="M0 0 L180 0 L180 60 L0 60" stroke="none" stroke-width="0" fill="#a5d8ff"></path><path d="M0 0 C42.81 0, 85.62 0, 180 0 M0 0 C47.47 0, 94.94 0, 180 0 M180 0 C180 18.56, 180 37.11, 180 60 M180 0 C180 21.8, 180 43.6, 180 60 M180 60 C120.45 60, 60.91 60, 0 60 M180 60 C137.63 60, 95.26 60, 0 60 M0 60 C0 41.33, 0 22.66, 0 0 M0 60 C0 40.13, 0 20.27, 0 0" stroke="#1971c2" stroke-width="2" fill="none"></path></g><g transform="translate(300 170) rotate(0 80 10)"><text x="80" y="NaN" font-family="Cascadia, Segoe UI Emoji" font-size="16px" fill="#1971c2" text-anchor="middle" style="white-space: pre;" direction="ltr">Validate</text></g><g stroke-linecap="round" transform="translate(290 150) rotate(0 90 30)"><path d="M0 0 L180 0 L180 60 L0 60" stroke="none" stroke-width="0" fill="#a5d8ff"></path><path d="M0 0 C54.26 0, 108.53 0, 180 0 M0 0 C37.19 0, 74.38 0, 180 0 M180 0 C180 21.01, 180 42.02, 180 60 M180 0 C180 16.17, 180 32.33, 180 60 M180 60 C108.49 60, 36.98 60, 0 60 M180 60 C123.24 60, 66.48 60, 0 60 M0 60 C0 39.42, 0 18.84, 0 0 M0 60 C0 47.05, 0 34.09, 0 0" stroke="#1971c2" stroke-width="2" fill="none"></path></g><g transform="translate(540 170) rotate(0 80 10)"><text x="80" y="NaN" font-family="Cascadia, Segoe UI Emoji" font-size="16px" fill="#2f9e44" text-anchor="middle" style="white-space: pre;" direction="ltr">POST /register</text></g><g stroke-linecap="round" transform="translate(530 150) rotate(0 90 30)"><path d="M0 0 L180 0 L180 60 L0 60" stroke="none" stroke-width="0" fill="#b2f2bb"></path><path d="M0 0 C60.87 0, 121.73 0, 180 0 M0 0 C39.87 0, 79.74 0, 180 0 M180 0 C180 17, 180 34, 180 60 M180 0 C180 15.04, 180 30.07, 180 60 M180 60 C135.49 60, 90.97 60, 0 60 M180 60 C114.03 60, 48.07 60, 0 60 M0 60 C0 40.8, 0 21.6, 0 0 M0 60 C0 37.6, 0 15.19, 0 0" stroke="#2f9e44" stroke-width="2" fill="none"></path></g><g transform="translate(568 311.25) rotate(0 42 8.75)"><text x="42" y="NaN" font-family="Cascadia, Segoe UI Emoji" font-size="14px" fill="#e8590c" text-anchor="middle" style="white-space: pre;" direction="ltr">Duplicate?</text></g><g stroke-linecap="round" transform="translate(550 270) rotate(0 60 50)"><path d="M61 0 L120 51 L61 100 L0 51" stroke="none" stroke-width="0" fill="#ffd8a8" fill-rule="evenodd"></path><path d="M61 0 C82.93 18.96, 104.86 37.91, 120 51 M61 0 C83.63 19.56, 106.25 39.12, 120 51 M120 51 C99.36 68.14, 78.73 85.28, 61 100 M120 51 C107.97 60.99, 95.94 70.98, 61 100 M61 100 C39.97 83.11, 18.94 66.21, 0 51 M61 100 C39.43 82.67, 17.86 65.34, 0 51 M0 51 C13.34 39.85, 26.68 28.7, 61 0 M0 51 C17.55 36.33, 35.1 21.66, 61 0" stroke="#e8590c" stroke-width="2" fill="none"></path></g><g transform="translate(780 290) rotate(0 80 10)"><text x="80" y="NaN" font-family="Cascadia, Segoe UI Emoji" font-size="16px" fill="#7048e8" text-anchor="middle" style="white-space: pre;" direction="ltr">INSERT user</text></g><g stroke-linecap="round" transform="translate(770 270) rotate(0 90 30)"><path d="M0 0 L180 0 L180 60 L0 60" stroke="none" stroke-width="0" fill="#d0bfff"></path><path d="M0 0 C70.52 0, 141.04 0, 180 0 M0 0 C68.89 0, 137.79 0, 180 0 M180 0 C180 17.75, 180 35.49, 180 60 M180 0 C180 15.32, 180 30.63, 180 60 M180 60 C142.18 60, 104.35 60, 0 60 M180 60 C133.75 60, 87.5 60, 0 60 M0 60 C0 43.15, 0 26.31, 0 0 M0 60 C0 42.45, 0 24.91, 0 0" stroke="#7048e8" stroke-width="2" fill="none"></path></g><g transform="translate(540 450) rotate(0 80 10)"><text x="80" y="NaN" font-family="Cascadia, Segoe UI Emoji" font-size="16px" fill="#0c8599" text-anchor="middle" style="white-space: pre;" direction="ltr">Send Email</text></g><g stroke-linecap="round" transform="translate(530 430) rotate(0 90 30)"><path d="M0 0 L180 0 L180 60 L0 60" stroke="none" stroke-width="0" fill="#99e9f2"></path><path d="M0 0 C69.35 0, 138.71 0, 180 0 M0 0 C63.61 0, 127.22 0, 180 0 M180 0 C180 12.56, 180 25.12, 180 60 M180 0 C180 14.79, 180 29.57, 180 60 M180 60 C120.62 60, 61.24 60, 0 60 M180 60 C120.56 60, 61.12 60, 0 60 M0 60 C0 37.83, 0 15.66, 0 0 M0 60 C0 37.35, 0 14.7, 0 0" stroke="#0c8599" stroke-width="2" fill="none"></path></g><g transform="translate(300 450) rotate(0 80 10)"><text x="80" y="NaN" font-family="Cascadia, Segoe UI Emoji" font-size="16px" fill="#1971c2" text-anchor="middle" style="white-space: pre;" direction="ltr">Redirect /home</text></g><g stroke-linecap="round" transform="translate(290 430) rotate(0 90 30)"><path d="M0 0 L180 0 L180 60 L0 60" stroke="none" stroke-width="0" fill="#a5d8ff"></path><path d="M0 0 C71.11 0, 142.21 0, 180 0 M0 0 C59.09 0, 118.17 0, 180 0 M180 0 C180 21.06, 180 42.12, 180 60 M180 0 C180 12.61, 180 25.23, 180 60 M180 60 C116.01 60, 52.02 60, 0 60 M180 60 C127.69 60, 75.39 60, 0 60 M0 60 C0 45.79, 0 31.58, 0 0 M0 60 C0 46.47, 0 32.93, 0 0" stroke="#1971c2" stroke-width="2" fill="none"></path></g><g transform="translate(230 170) rotate(0 30 10)"><text x="30" y="NaN" font-family="Cascadia, Segoe UI Emoji" font-size="12px" fill="#868e96" text-anchor="middle" style="white-space: pre;" direction="ltr">submit</text></g><g stroke-linecap="round"><g transform="translate(230 180) rotate(0 30 0)"><path d="M0 0 C10 0, 50 0, 60 0 M0 0 C10 0, 50 0, 60 0" stroke="#868e96" stroke-width="2" fill="none"></path></g><g transform="translate(230 180) rotate(0 30 0)"><path d="M31.81 10.26 C40.53 7.08, 49.26 3.91, 60 0 M31.81 10.26 C38.86 7.69, 45.91 5.13, 60 0" stroke="#868e96" stroke-width="2" fill="none"></path></g><g transform="translate(230 180) rotate(0 30 0)"><path d="M31.81 -10.26 C40.53 -7.08, 49.26 -3.91, 60 0 M31.81 -10.26 C38.86 -7.69, 45.91 -5.13, 60 0" stroke="#868e96" stroke-width="2" fill="none"></path></g></g><g transform="translate(470 170) rotate(0 30 10)"><text x="30" y="NaN" font-family="Cascadia, Segoe UI Emoji" font-size="12px" fill="#868e96" text-anchor="middle" style="white-space: pre;" direction="ltr">POST</text></g><g stroke-linecap="round"><g transform="translate(470 180) rotate(0 30 0)"><path d="M0 0 C10 0, 50 0, 60 0 M0 0 C10 0, 50 0, 60 0" stroke="#868e96" stroke-width="2" fill="none"></path></g><g transform="translate(470 180) rotate(0 30 0)"><path d="M31.81 10.26 C38.64 7.77, 45.48 5.28, 60 0 M31.81 10.26 C39.7 7.39, 47.6 4.51, 60 0" stroke="#868e96" stroke-width="2" fill="none"></path></g><g transform="translate(470 180) rotate(0 30 0)"><path d="M31.81 -10.26 C38.64 -7.77, 45.48 -5.28, 60 0 M31.81 -10.26 C39.7 -7.39, 47.6 -4.51, 60 0" stroke="#868e96" stroke-width="2" fill="none"></path></g></g><g stroke-linecap="round"><g transform="translate(620 210) rotate(0 -5 30)"><path d="M0 0 C-1.67 10, -8.33 50, -10 60 M0 0 C-1.67 10, -8.33 50, -10 60" stroke="#868e96" stroke-width="2" fill="none"></path></g><g transform="translate(620 210) rotate(0 -5 30)"><path d="M-15.49 30.51 C-14.29 36.92, -13.1 43.34, -10 60 M-15.49 30.51 C-14.1 37.95, -12.72 45.4, -10 60" stroke="#868e96" stroke-width="2" fill="none"></path></g><g transform="translate(620 210) rotate(0 -5 30)"><path d="M4.76 33.88 C1.55 39.56, -1.66 45.24, -10 60 M4.76 33.88 C1.03 40.47, -2.7 47.07, -10 60" stroke="#868e96" stroke-width="2" fill="none"></path></g></g><g transform="translate(690 300) rotate(0 30 10)"><text x="30" y="NaN" font-family="Cascadia, Segoe UI Emoji" font-size="12px" fill="#2f9e44" text-anchor="middle" style="white-space: pre;" direction="ltr">No</text></g><g stroke-linecap="round"><g transform="translate(670 320) rotate(0 50 -10)"><path d="M0 0 C16.67 -3.33, 83.33 -16.67, 100 -20 M0 0 C16.67 -3.33, 83.33 -16.67, 100 -20" stroke="#2f9e44" stroke-width="2" fill="none"></path></g><g transform="translate(670 320) rotate(0 50 -10)"><path d="M74.37 -4.41 C81.01 -8.45, 87.65 -12.49, 100 -20 M74.37 -4.41 C82.34 -9.26, 90.31 -14.11, 100 -20" stroke="#2f9e44" stroke-width="2" fill="none"></path></g><g transform="translate(670 320) rotate(0 50 -10)"><path d="M70.34 -24.53 C78.03 -23.36, 85.71 -22.18, 100 -20 M70.34 -24.53 C79.57 -23.12, 88.79 -21.71, 100 -20" stroke="#2f9e44" stroke-width="2" fill="none"></path></g></g><g transform="translate(585 230) rotate(0 30 10)"><text x="30" y="NaN" font-family="Cascadia, Segoe UI Emoji" font-size="12px" fill="#e03131" text-anchor="middle" style="white-space: pre;" direction="ltr">Yes: 409</text></g><g stroke-linecap="round"><g transform="translate(610 270) rotate(0 5 -30)"><path d="M0 0 C1.67 -10, 8.33 -50, 10 -60 M0 0 C1.67 -10, 8.33 -50, 10 -60" stroke="#e03131" stroke-width="2" fill="none"></path></g><g transform="translate(610 270) rotate(0 5 -30)"><path d="M15.49 -30.51 C14.04 -38.3, 12.59 -46.1, 10 -60 M15.49 -30.51 C14.04 -38.31, 12.58 -46.11, 10 -60" stroke="#e03131" stroke-width="2" fill="none"></path></g><g transform="translate(610 270) rotate(0 5 -30)"><path d="M-4.76 -33.88 C-0.86 -40.78, 3.04 -47.69, 10 -60 M-4.76 -33.88 C-0.85 -40.79, 3.05 -47.7, 10 -60" stroke="#e03131" stroke-width="2" fill="none"></path></g></g><g transform="translate(710 370) rotate(0 30 10)"><text x="30" y="NaN" font-family="Cascadia, Segoe UI Emoji" font-size="12px" fill="#868e96" text-anchor="middle" style="white-space: pre;" direction="ltr">queued</text></g><g stroke-linecap="round"><g transform="translate(770 300) rotate(0 -30 80)"><path d="M0 0 C-10 26.67, -50 133.33, -60 160 M0 0 C-10 26.67, -50 133.33, -60 160" stroke="#868e96" stroke-width="2" fill="none"></path></g><g transform="translate(770 300) rotate(0 -30 80)"><path d="M-59.71 130 C-59.8 139.59, -59.9 149.18, -60 160 M-59.71 130 C-59.77 136.33, -59.83 142.66, -60 160" stroke="#868e96" stroke-width="2" fill="none"></path></g><g transform="translate(770 300) rotate(0 -30 80)"><path d="M-40.49 137.21 C-46.73 144.49, -52.97 151.78, -60 160 M-40.49 137.21 C-44.61 142.01, -48.72 146.82, -60 160" stroke="#868e96" stroke-width="2" fill="none"></path></g></g><g transform="translate(470 450) rotate(0 30 10)"><text x="30" y="NaN" font-family="Cascadia, Segoe UI Emoji" font-size="12px" fill="#868e96" text-anchor="middle" style="white-space: pre;" direction="ltr">201 OK</text></g><g stroke-linecap="round"><g transform="translate(530 460) rotate(0 -30 0)"><path d="M0 0 C-10 0, -50 0, -60 0 M0 0 C-10 0, -50 0, -60 0" stroke="#868e96" stroke-width="2" fill="none"></path></g><g transform="translate(530 460) rotate(0 -30 0)"><path d="M-31.81 -10.26 C-42.47 -6.38, -53.12 -2.5, -60 0 M-31.81 -10.26 C-41.02 -6.91, -50.23 -3.56, -60 0" stroke="#868e96" stroke-width="2" fill="none"></path></g><g transform="translate(530 460) rotate(0 -30 0)"><path d="M-31.81 10.26 C-42.47 6.38, -53.12 2.5, -60 0 M-31.81 10.26 C-41.02 6.91, -50.23 3.56, -60 0" stroke="#868e96" stroke-width="2" fill="none"></path></g></g></svg>