<svg version="1.1" xmlns="http://www.w3.org/2000/svg" viewBox="0 0 1000 580" width="1000" height="580">
  <!-- svg-source:excalidraw -->
  
  <defs>
    <style>
      @font-face {
        font-family: "Virgil";
        src: url("https://excalidraw.com/Virgil.woff2");
      }
      @font-face {
        font-family: "Cascadia";
        src: url("https://excalidraw.com/Cascadia.woff2");
      }
    </style>
  </defs>
  <rect x="0" y="0" width="1000" height="580" fill="#ffffff"></rect><g transform="translate(10 10) rotate(0 159.6 17.5)"><text x="0" y="NaN" font-family="Cascadia, Segoe UI Emoji" font-size="28px" fill="#343a40" text-anchor="start" style="white-space: pre;" direction="ltr">RSS Pipeline Detail</text></g><g transform="translate(10 50) rotate(0 134.4 10)"><text x="0" y="NaN" font-family="Cascadia, Segoe UI Emoji" font-size="16px" fill="#868e96" text-anchor="start" style="white-space: pre;" direction="ltr">19 feeds, dedup, AI analysis</text></g><g transform="translate(20 192.5) rotate(0 70 17.5)"><text x="70" y="NaN" font-family="Cascadia, Segoe UI Emoji" font-size="14px" fill="#0c8599" text-anchor="middle" style="white-space: pre;" direction="ltr">19 RSS</text><text x="70" y="NaN" font-family="Cascadia, Segoe UI Emoji" font-size="14px" fill="#0c8599" text-anchor="middle" style="white-space: pre;" direction="ltr">Feeds</text></g><g stroke-linecap="round" transform="translate(10 170) rotate(0 80 40)"><path d="M0 0 L160 0 L160 80 L0 80" stroke="none" stroke-width="0" fill="#99e9f2"></path><path d="M0 0 C57.95 0, 115.89 0, 160 0 M0 0 C36.58 0, 73.16 0, 160 0 M160 0 C160 23.4, 160 46.8, 160 80 M160 0 C160 24.23, 160 48.46, 160 80 M160 80 C98.89 80, 37.79 80, 0 80 M160 80 C98.91 80, 37.82 80, 0 80 M0 80 C0 51.1, 0 22.2, 0 0 M0 80 C0 61.5, 0 43, 0 0" stroke="#0c8599" stroke-width="2" fill="none"></path></g><g transform="translate(280 201.25) rotate(0 70 8.75)"><text x="70" y="NaN" font-family="Cascadia, Segoe UI Emoji" font-size="14px" fill="#0c8599" text-anchor="middle" style="white-space: pre;" direction="ltr">n8n Fetch</text></g><g stroke-linecap="round" transform="translate(270 170) rotate(0 80 40)"><path d="M0 0 L160 0 L160 80 L0 80" stroke="none" stroke-width="0" fill="#99e9f2"></path><path d="M0 0 C51.23 0, 102.46 0, 160 0 M0 0 C40.83 0, 81.67 0, 160 0 M160 0 C160 26.88, 160 53.76, 160 80 M160 0 C160 22.38, 160 44.76, 160 80 M160 80 C96.87 80, 33.75 80, 0 80 M160 80 C104.45 80, 48.9 80, 0 80 M0 80 C0 51.54, 0 23.08, 0 0 M0 80 C0 51.56, 0 23.12, 0 0" stroke="#0c8599" stroke-width="2" fill="none"></path></g><g transform="translate(540 192.5) rotate(0 70 17.5)"><text x="70" y="NaN" font-family="Cascadia, Segoe UI Emoji" font-size="14px" fill="#1971c2" text-anchor="middle" style="white-space: pre;" direction="ltr">Postgres</text><text x="70" y="NaN" font-family="Cascadia, Segoe UI Emoji" font-size="14px" fill="#1971c2" text-anchor="middle" style="white-space: pre;" direction="ltr">Dedup</text></g><g stroke-linecap="round" transform="translate(530 170) rotate(0 80 40)"><path d="M0 0 L160 0 L160 80 L0 80" stroke="none" stroke-width="0" fill="#a5d8ff"></path><path d="M0 0 C62.43 0, 124.86 0, 160 0 M0 0 C44.33 0, 88.66 0, 160 0 M160 0 C160 16.7, 160 33.4, 160 80 M160 0 C160 17.19, 160 34.38, 160 80 M160 80 C121.91 80, 83.81 80, 0 80 M160 80 C107.51 80, 55.03 80, 0 80 M0 80 C0 60.5, 0 41, 0 0 M0 80 C0 54.88, 0 29.76, 0 0" stroke="#1971c2" stroke-width="2" fill="none"></path></g><g transform="translate(800 192.5) rotate(0 70 17.5)"><text x="70" y="NaN" font-family="Cascadia, Segoe UI Emoji" font-size="14px" fill="#1971c2" text-anchor="middle" style="white-space: pre;" direction="ltr">Gemini</text><text x="70" y="NaN" font-family="Cascadia, Segoe UI Emoji" font-size="14px" fill="#1971c2" text-anchor="middle" style="white-space: pre;" direction="ltr">Analysis</text></g><g stroke-linecap="round" transform="translate(790 170) rotate(0 80 40)"><path d="M0 0 L160 0 L160 80 L0 80" stroke="none" stroke-width="0" fill="#a5d8ff"></path><path d="M0 0 C42.34 0, 84.68 0, 160 0 M0 0 C40.06 0, 80.12 0, 160 0 M160 0 C160 23.22, 160 46.44, 160 80 M160 0 C160 23.78, 160 47.57, 160 80 M160 80 C122.45 80, 84.89 80, 0 80 M160 80 C100.85 80, 41.69 80, 0 80 M0 80 C0 60.52, 0 41.05, 0 0 M0 80 C0 54.03, 0 28.05, 0 0" stroke="#1971c2" stroke-width="2" fill="none"></path></g><g stroke-linecap="round"><g transform="translate(170 210) rotate(0 50 0)"><path d="M0 0 C16.67 0, 83.33 0, 100 0 M0 0 C16.67 0, 83.33 0, 100 0" stroke="#868e96" stroke-width="2" fill="none"></path></g><g transform="translate(170 210) rotate(0 50 0)"><path d="M71.81 10.26 C82.37 6.42, 92.92 2.58, 100 0 M71.81 10.26 C78.93 7.67, 86.05 5.08, 100 0" stroke="#868e96" stroke-width="2" fill="none"></path></g><g transform="translate(170 210) rotate(0 50 0)"><path d="M71.81 -10.26 C82.37 -6.42, 92.92 -2.58, 100 0 M71.81 -10.26 C78.93 -7.67, 86.05 -5.08, 100 0" stroke="#868e96" stroke-width="2" fill="none"></path></g></g><g stroke-linecap="round"><g transform="translate(430 210) rotate(0 50 0)"><path d="M0 0 C16.67 0, 83.33 0, 100 0 M0 0 C16.67 0, 83.33 0, 100 0" stroke="#868e96" stroke-width="2" fill="none"></path></g><g transform="translate(430 210) rotate(0 50 0)"><path d="M71.81 10.26 C82.88 6.23, 93.94 2.2, 100 0 M71.81 10.26 C82.87 6.24, 93.93 2.21, 100 0" stroke="#868e96" stroke-width="2" fill="none"></path></g><g transform="translate(430 210) rotate(0 50 0)"><path d="M71.81 -10.26 C82.88 -6.23, 93.94 -2.2, 100 0 M71.81 -10.26 C82.87 -6.24, 93.93 -2.21, 100 0" stroke="#868e96" stroke-width="2" fill="none"></path></g></g><g stroke-linecap="round"><g transform="translate(690 210) rotate(0 50 0)"><path d="M0 0 C16.67 0, 83.33 0, 100 0 M0 0 C16.67 0, 83.33 0, 100 0" stroke="#868e96" stroke-width="2" fill="none"></path></g><g transform="translate(690 210) rotate(0 50 0)"><path d="M71.81 10.26 C79.61 7.42, 87.41 4.58, 100 0 M71.81 10.26 C80.74 7.01, 89.67 3.76, 100 0" stroke="#868e96" stroke-width="2" fill="none"></path></g><g transform="translate(690 210) rotate(0 50 0)"><path d="M71.81 -10.26 C79.61 -7.42, 87.41 -4.58, 100 0 M71.81 -10.26 C80.74 -7.01, 89.67 -3.76, 100 0" stroke="#868e96" stroke-width="2" fill="none"></path></g></g><g transform="translate(640 391.25) rotate(0 60 8.75)"><text x="60" y="NaN" font-family="Cascadia, Segoe UI Emoji" font-size="14px" fill="#1971c2" text-anchor="middle" style="white-space: pre;" direction="ltr">Categorize</text></g><g stroke-linecap="round" transform="translate(630 370) rotate(0 70 30)"><path d="M0 0 L140 0 L140 60 L0 60" stroke="none" stroke-width="0" fill="#a5d8ff"></path><path d="M0 0 C28.17 0, 56.34 0, 140 0 M0 0 C51.47 0, 102.93 0, 140 0 M140 0 C140 19.73, 140 39.47, 140 60 M140 0 C140 18.75, 140 37.49, 140 60 M140 60 C85.13 60, 30.25 60, 0 60 M140 60 C89.59 60, 39.17 60, 0 60 M0 60 C0 42.05, 0 24.1, 0 0 M0 60 C0 38.47, 0 16.95, 0 0" stroke="#1971c2" stroke-width="2" fill="none"></path></g><g transform="translate(820 391.25) rotate(0 60 8.75)"><text x="60" y="NaN" font-family="Cascadia, Segoe UI Emoji" font-size="14px" fill="#1971c2" text-anchor="middle" style="white-space: pre;" direction="ltr">Tag</text></g><g stroke-linecap="round" transform="translate(810 370) rotate(0 70 30)"><path d="M0 0 L140 0 L140 60 L0 60" stroke="none" stroke-width="0" fill="#a5d8ff"></path><path d="M0 0 C32.62 0, 65.23 0, 140 0 M0 0 C48.27 0, 96.54 0, 140 0 M140 0 C140 14.83, 140 29.67, 140 60 M140 0 C140 22.86, 140 45.71, 140 60 M140 60 C87.09 60, 34.19 60, 0 60 M140 60 C104.26 60, 68.51 60, 0 60 M0 60 C0 44.26, 0 28.52, 0 0 M0 60 C0 46.3, 0 32.6, 0 0" stroke="#1971c2" stroke-width="2" fill="none"></path></g><g stroke-linecap="round"><g transform="translate(870 250) rotate(0 -85 60)"><path d="M0 0 C-28.33 20, -141.67 100, -170 120 M0 0 C-28.33 20, -141.67 100, -170 120" stroke="#868e96" stroke-width="2" fill="none"></path></g><g transform="translate(870 250) rotate(0 -85 60)"><path d="M-152.89 95.36 C-158.16 102.95, -163.44 110.55, -170 120 M-152.89 95.36 C-157.4 101.86, -161.91 108.35, -170 120" stroke="#868e96" stroke-width="2" fill="none"></path></g><g transform="translate(870 250) rotate(0 -85 60)"><path d="M-141.05 112.13 C-149.97 114.55, -158.9 116.98, -170 120 M-141.05 112.13 C-148.68 114.2, -156.32 116.28, -170 120" stroke="#868e96" stroke-width="2" fill="none"></path></g></g><g stroke-linecap="round"><g transform="translate(770 400) rotate(0 20 0)"><path d="M0 0 C6.67 0, 33.33 0, 40 0 M0 0 C6.67 0, 33.33 0, 40 0" stroke="#868e96" stroke-width="2" fill="none"></path></g><g transform="translate(770 400) rotate(0 20 0)"><path d="M21.21 6.84 C28.26 4.27, 35.31 1.71, 40 0 M21.21 6.84 C28.05 4.35, 34.9 1.86, 40 0" stroke="#868e96" stroke-width="2" fill="none"></path></g><g transform="translate(770 400) rotate(0 20 0)"><path d="M21.21 -6.84 C28.26 -4.27, 35.31 -1.71, 40 0 M21.21 -6.84 C28.05 -4.35, 34.9 -1.86, 40 0" stroke="#868e96" stroke-width="2" fill="none"></path></g></g><g transform="translate(680 531.25) rotate(0 60 8.75)"><text x="60" y="NaN" font-family="Cascadia, Segoe UI Emoji" font-size="14px" fill="#2f9e44" text-anchor="middle" style="white-space: pre;" direction="ltr">Obsidian</text></g><g stroke-linecap="round" transform="translate(670 510) rotate(0 70 30)"><path d="M0 0 L140 0 L140 60 L0 60" stroke="none" stroke-width="0" fill="#b2f2bb"></path><path d="M0 0 C55.48 0, 110.95 0, 140 0 M0 0 C48.79 0, 97.58 0, 140 0 M140 0 C140 18.67, 140 37.34, 140 60 M140 0 C140 18.89, 140 37.79, 140 60 M140 60 C104.71 60, 69.41 60, 0 60 M140 60 C93.29 60, 46.59 60, 0 60 M0 60 C0 39.41, 0 18.82, 0 0 M0 60 C0 47.96, 0 35.93, 0 0" stroke="#2f9e44" stroke-width="2" fill="none"></path></g><g transform="translate(860 531.25) rotate(0 60 8.75)"><text x="60" y="NaN" font-family="Cascadia, Segoe UI Emoji" font-size="14px" fill="#2f9e44" text-anchor="middle" style="white-space: pre;" direction="ltr">ChromaDB</text></g><g stroke-linecap="round" transform="translate(850 510) rotate(0 70 30)"><path d="M0 0 L140 0 L140 60 L0 60" stroke="none" stroke-width="0" fill="#b2f2bb"></path><path d="M0 0 C38.48 0, 76.97 0, 140 0 M0 0 C41.54 0, 83.07 0, 140 0 M140 0 C140 13.14, 140 26.28, 140 60 M140 0 C140 23.66, 140 47.32, 140 60 M140 60 C110.86 60, 81.71 60, 0 60 M140 60 C93.69 60, 47.39 60, 0 60 M0 60 C0 46.69, 0 33.38, 0 0 M0 60 C0 38.27, 0 16.54, 0 0" stroke="#2f9e44" stroke-width="2" fill="none"></path></g><g stroke-linecap="round"><g transform="translate(880 430) rotate(0 -70 40)"><path d="M0 0 C-23.33 13.33, -116.67 66.67, -140 80 M0 0 C-23.33 13.33, -116.67 66.67, -140 80" stroke="#868e96" stroke-width="2" fill="none"></path></g><g transform="translate(880 430) rotate(0 -70 40)"><path d="M-120.61 57.1 C-126.37 63.9, -132.12 70.7, -140 80 M-120.61 57.1 C-124.75 61.99, -128.88 66.87, -140 80" stroke="#868e96" stroke-width="2" fill="none"></path></g><g transform="translate(880 430) rotate(0 -70 40)"><path d="M-110.43 74.92 C-119.21 76.43, -127.99 77.94, -140 80 M-110.43 74.92 C-116.74 76, -123.04 77.09, -140 80" stroke="#868e96" stroke-width="2" fill="none"></path></g></g><g stroke-linecap="round"><g transform="translate(880 430) rotate(0 20 40)"><path d="M0 0 C6.67 13.33, 33.33 66.67, 40 80 M0 0 C6.67 13.33, 33.33 66.67, 40 80" stroke="#868e96" stroke-width="2" fill="none"></path></g><g transform="translate(880 430) rotate(0 20 40)"><path d="M18.22 59.37 C24.37 65.2, 30.52 71.03, 40 80 M18.22 59.37 C25.71 66.47, 33.2 73.56, 40 80" stroke="#868e96" stroke-width="2" fill="none"></path></g><g transform="translate(880 430) rotate(0 20 40)"><path d="M36.57 50.2 C37.54 58.62, 38.51 67.04, 40 80 M36.57 50.2 C37.75 60.45, 38.93 70.7, 40 80" stroke="#868e96" stroke-width="2" fill="none"></path></g></g><g transform="translate(240 382.5) rotate(0 70 17.5)"><text x="70" y="NaN" font-family="Cascadia, Segoe UI Emoji" font-size="14px" fill="#e8590c" text-anchor="middle" style="white-space: pre;" direction="ltr">Digest</text><text x="70" y="NaN" font-family="Cascadia, Segoe UI Emoji" font-size="14px" fill="#e8590c" text-anchor="middle" style="white-space: pre;" direction="ltr">Generator</text></g><g stroke-linecap="round" transform="translate(230 370) rotate(0 80 30)"><path d="M0 0 L160 0 L160 60 L0 60" stroke="none" stroke-width="0" fill="#ffd8a8"></path><path d="M0 0 C58.06 0, 116.13 0, 160 0 M0 0 C42.65 0, 85.3 0, 160 0 M160 0 C160 14.57, 160 29.15, 160 60 M160 0 C160 17.38, 160 34.76, 160 60 M160 60 C124.5 60, 89 60, 0 60 M160 60 C116.15 60, 72.29 60, 0 60 M0 60 C0 37.71, 0 15.43, 0 0 M0 60 C0 41.44, 0 22.88, 0 0" stroke="#e8590c" stroke-width="2" fill="none"></path></g><g transform="translate(240 522.5) rotate(0 70 17.5)"><text x="70" y="NaN" font-family="Cascadia, Segoe UI Emoji" font-size="14px" fill="#e8590c" text-anchor="middle" style="white-space: pre;" direction="ltr">Email</text><text x="70" y="NaN" font-family="Cascadia, Segoe UI Emoji" font-size="14px" fill="#e8590c" text-anchor="middle" style="white-space: pre;" direction="ltr">to David</text></g><g stroke-linecap="round" transform="translate(230 510) rotate(0 80 30)"><path d="M0 0 L160 0 L160 60 L0 60" stroke="none" stroke-width="0" fill="#ffd8a8"></path><path d="M0 0 C40.72 0, 81.43 0, 160 0 M0 0 C39.77 0, 79.53 0, 160 0 M160 0 C160 18.98, 160 37.95, 160 60 M160 0 C160 14.36, 160 28.71, 160 60 M160 60 C101.4 60, 42.79 60, 0 60 M160 60 C120.2 60, 80.41 60, 0 60 M0 60 C0 43.53, 0 27.05, 0 0 M0 60 C0 38.98, 0 17.96, 0 0" stroke="#e8590c" stroke-width="2" fill="none"></path></g><g transform="translate(428.5 295) rotate(0 31.5 10)"><text x="31.5" y="NaN" font-family="Cascadia, Segoe UI Emoji" font-size="12px" fill="#868e96" text-anchor="middle" style="white-space: pre;" direction="ltr">scheduled</text></g><g stroke-linecap="round"><g transform="translate(530 210) rotate(0 -70 95)"><path d="M0 0 C-23.33 31.67, -116.67 158.33, -140 190 M0 0 C-23.33 31.67, -116.67 158.33, -140 190" stroke="#868e96" stroke-width="2" fill="none"></path></g><g transform="translate(530 210) rotate(0 -70 95)"><path d="M-131.54 161.22 C-133.33 167.32, -135.13 173.42, -140 190 M-131.54 161.22 C-134.23 170.36, -136.91 179.5, -140 190" stroke="#868e96" stroke-width="2" fill="none"></path></g><g transform="translate(530 210) rotate(0 -70 95)"><path d="M-115.02 173.39 C-120.31 176.91, -125.61 180.43, -140 190 M-115.02 173.39 C-122.95 178.67, -130.89 183.94, -140 190" stroke="#868e96" stroke-width="2" fill="none"></path></g></g><g stroke-linecap="round"><g transform="translate(310 430) rotate(0 0 40)"><path d="M0 0 C0 13.33, 0 66.67, 0 80 M0 0 C0 13.33, 0 66.67, 0 80" stroke="#868e96" stroke-width="2" fill="none"></path></g><g transform="translate(310 430) rotate(0 0 40)"><path d="M-10.26 51.81 C-6.32 62.64, -2.38 73.47, 0 80 M-10.26 51.81 C-8.03 57.93, -5.81 64.05, 0 80" stroke="#868e96" stroke-width="2" fill="none"></path></g><g transform="translate(310 430) rotate(0 0 40)"><path d="M10.26 51.81 C6.32 62.64, 2.38 73.47, 0 80 M10.26 51.81 C8.03 57.93, 5.81 64.05, 0 80" stroke="#868e96" stroke-width="2" fill="none"></path></g></g></svg>