<svg version="1.1" xmlns="http://www.w3.org/2000/svg" viewBox="0 0 560 500" width="560" height="500">
  <!-- svg-source:excalidraw -->
  
  <defs>
    <style>
      @font-face {
        font-family: "Virgil";
        src: url("https://excalidraw.com/Virgil.woff2");
      }
      @font-face {
        font-family: "Cascadia";
        src: url("https://excalidraw.com/Cascadia.woff2");
      }
    </style>
  </defs>
  <rect x="0" y="0" width="560" height="500" fill="#ffffff"></rect><g transform="translate(10 10) rotate(0 79.2 15)"><text x="0" y="NaN" font-family="Cascadia, Segoe UI Emoji" font-size="24px" fill="#343a40" text-anchor="start" style="white-space: pre;" direction="ltr">Data Schema</text></g><g transform="translate(40 81.25) rotate(0 90 8.75)"><text x="90" y="NaN" font-family="Cascadia, Segoe UI Emoji" font-size="14px" fill="#7048e8" text-anchor="middle" style="white-space: pre;" direction="ltr">users</text></g><g stroke-linecap="round" transform="translate(30 70) rotate(0 100 20)"><path d="M0 0 L200 0 L200 40 L0 40" stroke="none" stroke-width="0" fill="#d0bfff"></path><path d="M0 0 C52.35 0, 104.7 0, 200 0 M0 0 C67.72 0, 135.44 0, 200 0 M200 0 C200 8.45, 200 16.9, 200 40 M200 0 C200 9.9, 200 19.79, 200 40 M200 40 C132.12 40, 64.25 40, 0 40 M200 40 C132.06 40, 64.12 40, 0 40 M0 40 C0 26.86, 0 13.72, 0 0 M0 40 C0 29.64, 0 19.29, 0 0" stroke="#7048e8" stroke-width="2" fill="none"></path></g><g transform="translate(50 110) rotate(0 25.200000000000003 7.5)"><text x="0" y="NaN" font-family="Cascadia, Segoe UI Emoji" font-size="12px" fill="#343a40" text-anchor="start" style="white-space: pre;" direction="ltr">id (PK)</text></g><g transform="translate(50 150) rotate(0 18 7.5)"><text x="0" y="NaN" font-family="Cascadia, Segoe UI Emoji" font-size="12px" fill="#343a40" text-anchor="start" style="white-space: pre;" direction="ltr">email</text></g><g transform="translate(50 170) rotate(0 14.399999999999999 7.5)"><text x="0" y="NaN" font-family="Cascadia, Segoe UI Emoji" font-size="12px" fill="#343a40" text-anchor="start" style="white-space: pre;" direction="ltr">name</text></g><g transform="translate(50 210) rotate(0 36 7.5)"><text x="0" y="NaN" font-family="Cascadia, Segoe UI Emoji" font-size="12px" fill="#343a40" text-anchor="start" style="white-space: pre;" direction="ltr">created_at</text></g><g stroke-linecap="round" transform="translate(30 110) rotate(0 100 56)"><path d="M0 0 C46.46 0, 92.92 0, 200 0 M0 0 C70.84 0, 141.69 0, 200 0 M200 0 C200 42.64, 200 85.28, 200 112 M200 0 C200 40.73, 200 81.46, 200 112 M200 112 C156.09 112, 112.19 112, 0 112 M200 112 C145.84 112, 91.67 112, 0 112 M0 112 C0 79.47, 0 46.93, 0 0 M0 112 C0 71.62, 0 31.24, 0 0" stroke="#7048e8" stroke-width="1" fill="none"></path></g><g transform="translate(360 81.25) rotate(0 90 8.75)"><text x="90" y="NaN" font-family="Cascadia, Segoe UI Emoji" font-size="14px" fill="#7048e8" text-anchor="middle" style="white-space: pre;" direction="ltr">orders</text></g><g stroke-linecap="round" transform="translate(350 70) rotate(0 100 20)"><path d="M0 0 L200 0 L200 40 L0 40" stroke="none" stroke-width="0" fill="#d0bfff"></path><path d="M0 0 C69.8 0, 139.6 0, 200 0 M0 0 C52.23 0, 104.47 0, 200 0 M200 0 C200 8.37, 200 16.73, 200 40 M200 0 C200 14.03, 200 28.06, 200 40 M200 40 C128 40, 56 40, 0 40 M200 40 C140.05 40, 80.1 40, 0 40 M0 40 C0 30.27, 0 20.55, 0 0 M0 40 C0 31.66, 0 23.32, 0 0" stroke="#7048e8" stroke-width="2" fill="none"></path></g><g transform="translate(370 110) rotate(0 25.19999999999999 7.5)"><text x="0" y="NaN" font-family="Cascadia, Segoe UI Emoji" font-size="12px" fill="#343a40" text-anchor="start" style="white-space: pre;" direction="ltr">id (PK)</text></g><g transform="translate(370 150) rotate(0 43.19999999999999 7.5)"><text x="0" y="NaN" font-family="Cascadia, Segoe UI Emoji" font-size="12px" fill="#343a40" text-anchor="start" style="white-space: pre;" direction="ltr">user_id (FK)</text></g><g transform="translate(370 170) rotate(0 18 7.5)"><text x="0" y="NaN" font-family="Cascadia, Segoe UI Emoji" font-size="12px" fill="#343a40" text-anchor="start" style="white-space: pre;" direction="ltr">total</text></g><g transform="translate(370 210) rotate(0 21.599999999999994 7.5)"><text x="0" y="NaN" font-family="Cascadia, Segoe UI Emoji" font-size="12px" fill="#343a40" text-anchor="start" style="white-space: pre;" direction="ltr">status</text></g><g transform="translate(370 230) rotate(0 36 7.5)"><text x="0" y="NaN" font-family="Cascadia, Segoe UI Emoji" font-size="12px" fill="#343a40" text-anchor="start" style="white-space: pre;" direction="ltr">created_at</text></g><g stroke-linecap="round" transform="translate(350 110) rotate(0 100 70)"><path d="M0 0 C69.53 0, 139.07 0, 200 0 M0 0 C50.55 0, 101.09 0, 200 0 M200 0 C200 32.12, 200 64.24, 200 140 M200 0 C200 42.21, 200 84.42, 200 140 M200 140 C143.67 140, 87.33 140, 0 140 M200 140 C148.35 140, 96.71 140, 0 140 M0 140 C0 88, 0 36, 0 0 M0 140 C0 93.59, 0 47.18, 0 0" stroke="#7048e8" stroke-width="1" fill="none"></path></g><g transform="translate(360 321.25) rotate(0 90 8.75)"><text x="90" y="NaN" font-family="Cascadia, Segoe UI Emoji" font-size="14px" fill="#7048e8" text-anchor="middle" style="white-space: pre;" direction="ltr">order_items</text></g><g stroke-linecap="round" transform="translate(350 310) rotate(0 100 20)"><path d="M0 0 L200 0 L200 40 L0 40" stroke="none" stroke-width="0" fill="#d0bfff"></path><path d="M0 0 C41.35 0, 82.7 0, 200 0 M0 0 C43.43 0, 86.87 0, 200 0 M200 0 C200 14.86, 200 29.72, 200 40 M200 0 C200 10.83, 200 21.66, 200 40 M200 40 C147.75 40, 95.5 40, 0 40 M200 40 C152.33 40, 104.65 40, 0 40 M0 40 C0 28.64, 0 17.28, 0 0 M0 40 C0 28.65, 0 17.3, 0 0" stroke="#7048e8" stroke-width="2" fill="none"></path></g><g transform="translate(370 350) rotate(0 25.19999999999999 7.5)"><text x="0" y="NaN" font-family="Cascadia, Segoe UI Emoji" font-size="12px" fill="#343a40" text-anchor="start" style="white-space: pre;" direction="ltr">id (PK)</text></g><g transform="translate(370 390) rotate(0 46.80000000000001 7.5)"><text x="0" y="NaN" font-family="Cascadia, Segoe UI Emoji" font-size="12px" fill="#343a40" text-anchor="start" style="white-space: pre;" direction="ltr">order_id (FK)</text></g><g transform="translate(370 410) rotate(0 36 7.5)"><text x="0" y="NaN" font-family="Cascadia, Segoe UI Emoji" font-size="12px" fill="#343a40" text-anchor="start" style="white-space: pre;" direction="ltr">product_id</text></g><g transform="translate(370 450) rotate(0 10.800000000000011 7.5)"><text x="0" y="NaN" font-family="Cascadia, Segoe UI Emoji" font-size="12px" fill="#343a40" text-anchor="start" style="white-space: pre;" direction="ltr">qty</text></g><g transform="translate(370 470) rotate(0 18 7.5)"><text x="0" y="NaN" font-family="Cascadia, Segoe UI Emoji" font-size="12px" fill="#343a40" text-anchor="start" style="white-space: pre;" direction="ltr">price</text></g><g stroke-linecap="round" transform="translate(350 350) rotate(0 100 70)"><path d="M0 0 C79.12 0, 158.24 0, 200 0 M0 0 C66.19 0, 132.37 0, 200 0 M200 0 C200 54.67, 200 109.34, 200 140 M200 0 C200 33.1, 200 66.2, 200 140 M200 140 C154.3 140, 108.6 140, 0 140 M200 140 C134.76 140, 69.53 140, 0 140 M0 140 C0 111.17, 0 82.33, 0 0 M0 140 C0 98.25, 0 56.51, 0 0" stroke="#7048e8" stroke-width="1" fill="none"></path></g><g transform="translate(255 80) rotate(0 35 10)"><text x="35" y="NaN" font-family="Cascadia, Segoe UI Emoji" font-size="12px" fill="#7048e8" text-anchor="middle" style="white-space: pre;" direction="ltr">belongs_to</text></g><g stroke-linecap="round"><g transform="translate(350 90) rotate(0 -60 0)"><path d="M0 0 C-20 0, -100 0, -120 0 M0 0 C-20 0, -100 0, -120 0" stroke="#7048e8" stroke-width="2" fill="none"></path></g><g transform="translate(350 90) rotate(0 -60 0)"><path d="M-91.81 -10.26 C-100.37 -7.14, -108.93 -4.03, -120 0 M-91.81 -10.26 C-101.21 -6.84, -110.62 -3.42, -120 0" stroke="#7048e8" stroke-width="2" fill="none"></path></g><g transform="translate(350 90) rotate(0 -60 0)"><path d="M-91.81 10.26 C-100.37 7.14, -108.93 4.03, -120 0 M-91.81 10.26 C-101.21 6.84, -110.62 3.42, -120 0" stroke="#7048e8" stroke-width="2" fill="none"></path></g></g><g transform="translate(415 200) rotate(0 35 10)"><text x="35" y="NaN" font-family="Cascadia, Segoe UI Emoji" font-size="12px" fill="#7048e8" text-anchor="middle" style="white-space: pre;" direction="ltr">belongs_to</text></g><g stroke-linecap="round"><g transform="translate(450 310) rotate(0 0 -100)"><path d="M0 0 C0 -33.33, 0 -166.67, 0 -200 M0 0 C0 -33.33, 0 -166.67, 0 -200" stroke="#7048e8" stroke-width="2" fill="none"></path></g><g transform="translate(450 310) rotate(0 0 -100)"><path d="M10.26 -171.81 C6.68 -181.65, 3.1 -191.49, 0 -200 M10.26 -171.81 C7.53 -179.31, 4.8 -186.82, 0 -200" stroke="#7048e8" stroke-width="2" fill="none"></path></g><g transform="translate(450 310) rotate(0 0 -100)"><path d="M-10.26 -171.81 C-6.68 -181.65, -3.1 -191.49, 0 -200 M-10.26 -171.81 C-7.53 -179.31, -4.8 -186.82, 0 -200" stroke="#7048e8" stroke-width="2" fill="none"></path></g></g></svg>