<svg version="1.1" xmlns="http://www.w3.org/2000/svg" viewBox="0 0 820 410" width="820" height="410">
  <!-- svg-source:excalidraw -->
  
  <defs>
    <style>
      @font-face {
        font-family: "Virgil";
        src: url("https://excalidraw.com/Virgil.woff2");
      }
      @font-face {
        font-family: "Cascadia";
        src: url("https://excalidraw.com/Cascadia.woff2");
      }
    </style>
  </defs>
  <rect x="0" y="0" width="820" height="410" fill="#ffffff"></rect><g transform="translate(190 10) rotate(0 142.79999999999995 17.5)"><text x="0" y="NaN" font-family="Cascadia, Segoe UI Emoji" font-size="28px" fill="#343a40" text-anchor="start" style="white-space: pre;" direction="ltr">Session Lifecycle</text></g><g transform="translate(10 70) rotate(0 33 13.75)"><text x="0" y="NaN" font-family="Cascadia, Segoe UI Emoji" font-size="22px" fill="#2f9e44" text-anchor="start" style="white-space: pre;" direction="ltr">START</text></g><g transform="translate(20 126.25) rotate(0 90 8.75)"><text x="90" y="NaN" font-family="Cascadia, Segoe UI Emoji" font-size="14px" fill="#2f9e44" text-anchor="middle" style="white-space: pre;" direction="ltr">Load CLAUDE.md</text></g><g stroke-linecap="round" transform="translate(10 110) rotate(0 100 25)"><path d="M0 0 L200 0 L200 50 L0 50" stroke="none" stroke-width="0" fill="#b2f2bb"></path><path d="M0 0 C51.94 0, 103.88 0, 200 0 M0 0 C57.56 0, 115.13 0, 200 0 M200 0 C200 19.28, 200 38.55, 200 50 M200 0 C200 12.04, 200 24.09, 200 50 M200 50 C137.94 50, 75.88 50, 0 50 M200 50 C150.6 50, 101.19 50, 0 50 M0 50 C0 30.02, 0 10.04, 0 0 M0 50 C0 36.09, 0 22.18, 0 0" stroke="#2f9e44" stroke-width="2" fill="none"></path></g><g transform="translate(20 206.25) rotate(0 90 8.75)"><text x="90" y="NaN" font-family="Cascadia, Segoe UI Emoji" font-size="14px" fill="#2f9e44" text-anchor="middle" style="white-space: pre;" direction="ltr">Init Memory</text></g><g stroke-linecap="round" transform="translate(10 190) rotate(0 100 25)"><path d="M0 0 L200 0 L200 50 L0 50" stroke="none" stroke-width="0" fill="#b2f2bb"></path><path d="M0 0 C63.32 0, 126.64 0, 200 0 M0 0 C78.01 0, 156.01 0, 200 0 M200 0 C200 12.74, 200 25.48, 200 50 M200 0 C200 13.71, 200 27.42, 200 50 M200 50 C152.01 50, 104.03 50, 0 50 M200 50 C129.33 50, 58.66 50, 0 50 M0 50 C0 39.62, 0 29.24, 0 0 M0 50 C0 39.49, 0 28.98, 0 0" stroke="#2f9e44" stroke-width="2" fill="none"></path></g><g transform="translate(20 286.25) rotate(0 90 8.75)"><text x="90" y="NaN" font-family="Cascadia, Segoe UI Emoji" font-size="14px" fill="#2f9e44" text-anchor="middle" style="white-space: pre;" direction="ltr">Check Hooks</text></g><g stroke-linecap="round" transform="translate(10 270) rotate(0 100 25)"><path d="M0 0 L200 0 L200 50 L0 50" stroke="none" stroke-width="0" fill="#b2f2bb"></path><path d="M0 0 C71.17 0, 142.35 0, 200 0 M0 0 C47 0, 94 0, 200 0 M200 0 C200 16.88, 200 33.76, 200 50 M200 0 C200 18.33, 200 36.65, 200 50 M200 50 C126.18 50, 52.36 50, 0 50 M200 50 C156.77 50, 113.55 50, 0 50 M0 50 C0 35.07, 0 20.13, 0 0 M0 50 C0 32.08, 0 14.16, 0 0" stroke="#2f9e44" stroke-width="2" fill="none"></path></g><g transform="translate(310 70) rotate(0 26.400000000000006 13.75)"><text x="0" y="NaN" font-family="Cascadia, Segoe UI Emoji" font-size="22px" fill="#1971c2" text-anchor="start" style="white-space: pre;" direction="ltr">WORK</text></g><g transform="translate(320 126.25) rotate(0 90 8.75)"><text x="90" y="NaN" font-family="Cascadia, Segoe UI Emoji" font-size="14px" fill="#1971c2" text-anchor="middle" style="white-space: pre;" direction="ltr">User Prompt</text></g><g stroke-linecap="round" transform="translate(310 110) rotate(0 100 25)"><path d="M0 0 L200 0 L200 50 L0 50" stroke="none" stroke-width="0" fill="#a5d8ff"></path><path d="M0 0 C68.64 0, 137.28 0, 200 0 M0 0 C47.02 0, 94.03 0, 200 0 M200 0 C200 12.99, 200 25.97, 200 50 M200 0 C200 13.91, 200 27.83, 200 50 M200 50 C151.25 50, 102.5 50, 0 50 M200 50 C137.5 50, 75 50, 0 50 M0 50 C0 30.03, 0 10.06, 0 0 M0 50 C0 34.83, 0 19.65, 0 0" stroke="#1971c2" stroke-width="2" fill="none"></path></g><g transform="translate(320 206.25) rotate(0 90 8.75)"><text x="90" y="NaN" font-family="Cascadia, Segoe UI Emoji" font-size="14px" fill="#1971c2" text-anchor="middle" style="white-space: pre;" direction="ltr">Tool Calls</text></g><g stroke-linecap="round" transform="translate(310 190) rotate(0 100 25)"><path d="M0 0 L200 0 L200 50 L0 50" stroke="none" stroke-width="0" fill="#a5d8ff"></path><path d="M0 0 C60.93 0, 121.86 0, 200 0 M0 0 C72.13 0, 144.27 0, 200 0 M200 0 C200 19.22, 200 38.45, 200 50 M200 0 C200 14.07, 200 28.14, 200 50 M200 50 C150.32 50, 100.65 50, 0 50 M200 50 C148.61 50, 97.23 50, 0 50 M0 50 C0 30.99, 0 11.98, 0 0 M0 50 C0 38.87, 0 27.74, 0 0" stroke="#1971c2" stroke-width="2" fill="none"></path></g><g transform="translate(320 286.25) rotate(0 90 8.75)"><text x="90" y="NaN" font-family="Cascadia, Segoe UI Emoji" font-size="14px" fill="#1971c2" text-anchor="middle" style="white-space: pre;" direction="ltr">Subagents</text></g><g stroke-linecap="round" transform="translate(310 270) rotate(0 100 25)"><path d="M0 0 L200 0 L200 50 L0 50" stroke="none" stroke-width="0" fill="#a5d8ff"></path><path d="M0 0 C43.8 0, 87.59 0, 200 0 M0 0 C56.93 0, 113.87 0, 200 0 M200 0 C200 11, 200 22, 200 50 M200 0 C200 11.38, 200 22.76, 200 50 M200 50 C149.65 50, 99.3 50, 0 50 M200 50 C147.86 50, 95.72 50, 0 50 M0 50 C0 34.03, 0 18.06, 0 0 M0 50 C0 32.26, 0 14.51, 0 0" stroke="#1971c2" stroke-width="2" fill="none"></path></g><g transform="translate(320 366.25) rotate(0 90 8.75)"><text x="90" y="NaN" font-family="Cascadia, Segoe UI Emoji" font-size="14px" fill="#1971c2" text-anchor="middle" style="white-space: pre;" direction="ltr">Results</text></g><g stroke-linecap="round" transform="translate(310 350) rotate(0 100 25)"><path d="M0 0 L200 0 L200 50 L0 50" stroke="none" stroke-width="0" fill="#a5d8ff"></path><path d="M0 0 C72.28 0, 144.57 0, 200 0 M0 0 C64.31 0, 128.61 0, 200 0 M200 0 C200 15.14, 200 30.28, 200 50 M200 0 C200 11.35, 200 22.7, 200 50 M200 50 C153.4 50, 106.8 50, 0 50 M200 50 C146.78 50, 93.55 50, 0 50 M0 50 C0 38.92, 0 27.84, 0 0 M0 50 C0 34.29, 0 18.58, 0 0" stroke="#1971c2" stroke-width="2" fill="none"></path></g><g transform="translate(610 70) rotate(0 19.80000000000001 13.75)"><text x="0" y="NaN" font-family="Cascadia, Segoe UI Emoji" font-size="22px" fill="#7048e8" text-anchor="start" style="white-space: pre;" direction="ltr">END</text></g><g transform="translate(620 126.25) rotate(0 90 8.75)"><text x="90" y="NaN" font-family="Cascadia, Segoe UI Emoji" font-size="14px" fill="#7048e8" text-anchor="middle" style="white-space: pre;" direction="ltr">Save Memories</text></g><g stroke-linecap="round" transform="translate(610 110) rotate(0 100 25)"><path d="M0 0 L200 0 L200 50 L0 50" stroke="none" stroke-width="0" fill="#d0bfff"></path><path d="M0 0 C70.95 0, 141.89 0, 200 0 M0 0 C47.34 0, 94.68 0, 200 0 M200 0 C200 14.2, 200 28.4, 200 50 M200 0 C200 14.47, 200 28.93, 200 50 M200 50 C153.22 50, 106.44 50, 0 50 M200 50 C154.03 50, 108.06 50, 0 50 M0 50 C0 30.76, 0 11.51, 0 0 M0 50 C0 35.47, 0 20.94, 0 0" stroke="#7048e8" stroke-width="2" fill="none"></path></g><g transform="translate(620 206.25) rotate(0 90 8.75)"><text x="90" y="NaN" font-family="Cascadia, Segoe UI Emoji" font-size="14px" fill="#7048e8" text-anchor="middle" style="white-space: pre;" direction="ltr">Update Backlog</text></g><g stroke-linecap="round" transform="translate(610 190) rotate(0 100 25)"><path d="M0 0 L200 0 L200 50 L0 50" stroke="none" stroke-width="0" fill="#d0bfff"></path><path d="M0 0 C60.16 0, 120.32 0, 200 0 M0 0 C78.08 0, 156.16 0, 200 0 M200 0 C200 12.09, 200 24.18, 200 50 M200 0 C200 12.39, 200 24.79, 200 50 M200 50 C158.87 50, 117.73 50, 0 50 M200 50 C143.2 50, 86.41 50, 0 50 M0 50 C0 38.71, 0 27.43, 0 0 M0 50 C0 35.19, 0 20.39, 0 0" stroke="#7048e8" stroke-width="2" fill="none"></path></g><g transform="translate(620 286.25) rotate(0 90 8.75)"><text x="90" y="NaN" font-family="Cascadia, Segoe UI Emoji" font-size="14px" fill="#7048e8" text-anchor="middle" style="white-space: pre;" direction="ltr">Session Log</text></g><g stroke-linecap="round" transform="translate(610 270) rotate(0 100 25)"><path d="M0 0 L200 0 L200 50 L0 50" stroke="none" stroke-width="0" fill="#d0bfff"></path><path d="M0 0 C69.82 0, 139.65 0, 200 0 M0 0 C59.35 0, 118.69 0, 200 0 M200 0 C200 19.15, 200 38.3, 200 50 M200 0 C200 13.58, 200 27.17, 200 50 M200 50 C137.14 50, 74.28 50, 0 50 M200 50 C141.44 50, 82.88 50, 0 50 M0 50 C0 35.88, 0 21.77, 0 0 M0 50 C0 38.86, 0 27.71, 0 0" stroke="#7048e8" stroke-width="2" fill="none"></path></g><g stroke-linecap="round"><g transform="translate(110 160) rotate(0 0 15)"><path d="M0 0 C0 5, 0 25, 0 30 M0 0 C0 5, 0 25, 0 30" stroke="#2f9e44" stroke-width="2" fill="none"></path></g><g transform="translate(110 160) rotate(0 0 15)"><path d="M-5.13 15.9 C-3.56 20.23, -1.98 24.55, 0 30 M-5.13 15.9 C-3.13 21.4, -1.13 26.89, 0 30" stroke="#2f9e44" stroke-width="2" fill="none"></path></g><g transform="translate(110 160) rotate(0 0 15)"><path d="M5.13 15.9 C3.56 20.23, 1.98 24.55, 0 30 M5.13 15.9 C3.13 21.4, 1.13 26.89, 0 30" stroke="#2f9e44" stroke-width="2" fill="none"></path></g></g><g stroke-linecap="round"><g transform="translate(110 240) rotate(0 0 15)"><path d="M0 0 C0 5, 0 25, 0 30 M0 0 C0 5, 0 25, 0 30" stroke="#2f9e44" stroke-width="2" fill="none"></path></g><g transform="translate(110 240) rotate(0 0 15)"><path d="M-5.13 15.9 C-3.78 19.62, -2.43 23.34, 0 30 M-5.13 15.9 C-3.9 19.29, -2.67 22.67, 0 30" stroke="#2f9e44" stroke-width="2" fill="none"></path></g><g transform="translate(110 240) rotate(0 0 15)"><path d="M5.13 15.9 C3.78 19.62, 2.43 23.34, 0 30 M5.13 15.9 C3.9 19.29, 2.67 22.67, 0 30" stroke="#2f9e44" stroke-width="2" fill="none"></path></g></g><g stroke-linecap="round"><g transform="translate(410 160) rotate(0 0 15)"><path d="M0 0 C0 5, 0 25, 0 30 M0 0 C0 5, 0 25, 0 30" stroke="#1971c2" stroke-width="2" fill="none"></path></g><g transform="translate(410 160) rotate(0 0 15)"><path d="M-5.13 15.9 C-3.49 20.42, -1.85 24.93, 0 30 M-5.13 15.9 C-3.93 19.2, -2.73 22.49, 0 30" stroke="#1971c2" stroke-width="2" fill="none"></path></g><g transform="translate(410 160) rotate(0 0 15)"><path d="M5.13 15.9 C3.49 20.42, 1.85 24.93, 0 30 M5.13 15.9 C3.93 19.2, 2.73 22.49, 0 30" stroke="#1971c2" stroke-width="2" fill="none"></path></g></g><g stroke-linecap="round"><g transform="translate(410 240) rotate(0 0 15)"><path d="M0 0 C0 5, 0 25, 0 30 M0 0 C0 5, 0 25, 0 30" stroke="#1971c2" stroke-width="2" fill="none"></path></g><g transform="translate(410 240) rotate(0 0 15)"><path d="M-5.13 15.9 C-3.94 19.18, -2.74 22.46, 0 30 M-5.13 15.9 C-3.44 20.54, -1.76 25.17, 0 30" stroke="#1971c2" stroke-width="2" fill="none"></path></g><g transform="translate(410 240) rotate(0 0 15)"><path d="M5.13 15.9 C3.94 19.18, 2.74 22.46, 0 30 M5.13 15.9 C3.44 20.54, 1.76 25.17, 0 30" stroke="#1971c2" stroke-width="2" fill="none"></path></g></g><g stroke-linecap="round"><g transform="translate(410 320) rotate(0 0 15)"><path d="M0 0 C0 5, 0 25, 0 30 M0 0 C0 5, 0 25, 0 30" stroke="#1971c2" stroke-width="2" fill="none"></path></g><g transform="translate(410 320) rotate(0 0 15)"><path d="M-5.13 15.9 C-3.55 20.24, -1.97 24.58, 0 30 M-5.13 15.9 C-3.59 20.13, -2.05 24.36, 0 30" stroke="#1971c2" stroke-width="2" fill="none"></path></g><g transform="translate(410 320) rotate(0 0 15)"><path d="M5.13 15.9 C3.55 20.24, 1.97 24.58, 0 30 M5.13 15.9 C3.59 20.13, 2.05 24.36, 0 30" stroke="#1971c2" stroke-width="2" fill="none"></path></g></g><g stroke-linecap="round"><g transform="translate(710 160) rotate(0 0 15)"><path d="M0 0 C0 5, 0 25, 0 30 M0 0 C0 5, 0 25, 0 30" stroke="#7048e8" stroke-width="2" fill="none"></path></g><g transform="translate(710 160) rotate(0 0 15)"><path d="M-5.13 15.9 C-3.9 19.29, -2.66 22.68, 0 30 M-5.13 15.9 C-3.51 20.36, -1.88 24.82, 0 30" stroke="#7048e8" stroke-width="2" fill="none"></path></g><g transform="translate(710 160) rotate(0 0 15)"><path d="M5.13 15.9 C3.9 19.29, 2.66 22.68, 0 30 M5.13 15.9 C3.51 20.36, 1.88 24.82, 0 30" stroke="#7048e8" stroke-width="2" fill="none"></path></g></g><g stroke-linecap="round"><g transform="translate(710 240) rotate(0 0 15)"><path d="M0 0 C0 5, 0 25, 0 30 M0 0 C0 5, 0 25, 0 30" stroke="#7048e8" stroke-width="2" fill="none"></path></g><g transform="translate(710 240) rotate(0 0 15)"><path d="M-5.13 15.9 C-3.82 19.52, -2.5 23.13, 0 30 M-5.13 15.9 C-3.09 21.51, -1.05 27.12, 0 30" stroke="#7048e8" stroke-width="2" fill="none"></path></g><g transform="translate(710 240) rotate(0 0 15)"><path d="M5.13 15.9 C3.82 19.52, 2.5 23.13, 0 30 M5.13 15.9 C3.09 21.51, 1.05 27.12, 0 30" stroke="#7048e8" stroke-width="2" fill="none"></path></g></g><g stroke-linecap="round"><g transform="translate(210 295) rotate(0 50 -80)"><path d="M0 0 C16.67 -26.67, 83.33 -133.33, 100 -160 M0 0 C16.67 -26.67, 83.33 -133.33, 100 -160" stroke="#868e96" stroke-width="2" fill="none"></path></g><g transform="translate(210 295) rotate(0 50 -80)"><path d="M93.76 -130.66 C95.23 -137.57, 96.7 -144.49, 100 -160 M93.76 -130.66 C95.28 -137.8, 96.8 -144.95, 100 -160" stroke="#868e96" stroke-width="2" fill="none"></path></g><g transform="translate(210 295) rotate(0 50 -80)"><path d="M76.36 -141.53 C81.93 -145.89, 87.5 -150.24, 100 -160 M76.36 -141.53 C82.12 -146.03, 87.88 -150.53, 100 -160" stroke="#868e96" stroke-width="2" fill="none"></path></g></g><g stroke-linecap="round"><g transform="translate(510 375) rotate(0 50 -120)"><path d="M0 0 C16.67 -40, 83.33 -200, 100 -240 M0 0 C16.67 -40, 83.33 -200, 100 -240" stroke="#868e96" stroke-width="2" fill="none"></path></g><g transform="translate(510 375) rotate(0 50 -120)"><path d="M98.63 -210.03 C99.08 -219.86, 99.53 -229.68, 100 -240 M98.63 -210.03 C98.93 -216.63, 99.23 -223.22, 100 -240" stroke="#868e96" stroke-width="2" fill="none"></path></g><g transform="translate(510 375) rotate(0 50 -120)"><path d="M79.69 -217.92 C86.35 -225.16, 93.01 -232.4, 100 -240 M79.69 -217.92 C84.16 -222.78, 88.63 -227.64, 100 -240" stroke="#868e96" stroke-width="2" fill="none"></path></g></g></svg>