<svg version="1.1" xmlns="http://www.w3.org/2000/svg" viewBox="0 0 760 340" width="760" height="340">
  <!-- svg-source:excalidraw -->
  
  <defs>
    <style>
      @font-face {
        font-family: "Virgil";
        src: url("https://excalidraw.com/Virgil.woff2");
      }
      @font-face {
        font-family: "Cascadia";
        src: url("https://excalidraw.com/Cascadia.woff2");
      }
    </style>
  </defs>
  <rect x="0" y="0" width="760" height="340" fill="#ffffff"></rect><g transform="translate(10 10) rotate(0 193.2 17.5)"><text x="0" y="NaN" font-family="Cascadia, Segoe UI Emoji" font-size="28px" fill="#343a40" text-anchor="start" style="white-space: pre;" direction="ltr">System Health Dashboard</text></g><g transform="translate(20 103.75) rotate(0 100 16.25)"><text x="100" y="NaN" font-family="Cascadia, Segoe UI Emoji" font-size="13px" fill="#2f9e44" text-anchor="middle" style="white-space: pre;" direction="ltr">Capture Speed</text><text x="100" y="NaN" font-family="Cascadia, Segoe UI Emoji" font-size="13px" fill="#2f9e44" text-anchor="middle" style="white-space: pre;" direction="ltr">&lt;30s</text></g><g stroke-linecap="round" transform="translate(10 90) rotate(0 110 30)"><path d="M0 0 L220 0 L220 60 L0 60" stroke="none" stroke-width="0" fill="#b2f2bb"></path><path d="M0 0 C72.01 0, 144.02 0, 220 0 M0 0 C77.8 0, 155.59 0, 220 0 M220 0 C220 19.16, 220 38.31, 220 60 M220 0 C220 23.45, 220 46.89, 220 60 M220 60 C166.87 60, 113.74 60, 0 60 M220 60 C156.43 60, 92.86 60, 0 60 M0 60 C0 44.61, 0 29.22, 0 0 M0 60 C0 44.95, 0 29.89, 0 0" stroke="#2f9e44" stroke-width="2" fill="none"></path></g><g transform="translate(280 103.75) rotate(0 100 16.25)"><text x="100" y="NaN" font-family="Cascadia, Segoe UI Emoji" font-size="13px" fill="#2f9e44" text-anchor="middle" style="white-space: pre;" direction="ltr">Search Speed</text><text x="100" y="NaN" font-family="Cascadia, Segoe UI Emoji" font-size="13px" fill="#2f9e44" text-anchor="middle" style="white-space: pre;" direction="ltr">&lt;10s</text></g><g stroke-linecap="round" transform="translate(270 90) rotate(0 110 30)"><path d="M0 0 L220 0 L220 60 L0 60" stroke="none" stroke-width="0" fill="#b2f2bb"></path><path d="M0 0 C47.53 0, 95.05 0, 220 0 M0 0 C57.44 0, 114.87 0, 220 0 M220 0 C220 13.31, 220 26.61, 220 60 M220 0 C220 22.09, 220 44.19, 220 60 M220 60 C140.62 60, 61.24 60, 0 60 M220 60 C170.26 60, 120.52 60, 0 60 M0 60 C0 43.59, 0 27.18, 0 0 M0 60 C0 43.77, 0 27.54, 0 0" stroke="#2f9e44" stroke-width="2" fill="none"></path></g><g transform="translate(540 103.75) rotate(0 100 16.25)"><text x="100" y="NaN" font-family="Cascadia, Segoe UI Emoji" font-size="13px" fill="#2f9e44" text-anchor="middle" style="white-space: pre;" direction="ltr">Link Density</text><text x="100" y="NaN" font-family="Cascadia, Segoe UI Emoji" font-size="13px" fill="#2f9e44" text-anchor="middle" style="white-space: pre;" direction="ltr">&gt;3/note</text></g><g stroke-linecap="round" transform="translate(530 90) rotate(0 110 30)"><path d="M0 0 L220 0 L220 60 L0 60" stroke="none" stroke-width="0" fill="#b2f2bb"></path><path d="M0 0 C63.63 0, 127.27 0, 220 0 M0 0 C66.36 0, 132.73 0, 220 0 M220 0 C220 18.66, 220 37.32, 220 60 M220 0 C220 20.63, 220 41.27, 220 60 M220 60 C147.46 60, 74.93 60, 0 60 M220 60 C175.15 60, 130.3 60, 0 60 M0 60 C0 46.16, 0 32.33, 0 0 M0 60 C0 46.76, 0 33.52, 0 0" stroke="#2f9e44" stroke-width="2" fill="none"></path></g><g transform="translate(20 203.75) rotate(0 100 16.25)"><text x="100" y="NaN" font-family="Cascadia, Segoe UI Emoji" font-size="13px" fill="#2f9e44" text-anchor="middle" style="white-space: pre;" direction="ltr">Daily Review</text><text x="100" y="NaN" font-family="Cascadia, Segoe UI Emoji" font-size="13px" fill="#2f9e44" text-anchor="middle" style="white-space: pre;" direction="ltr">&lt;15min</text></g><g stroke-linecap="round" transform="translate(10 190) rotate(0 110 30)"><path d="M0 0 L220 0 L220 60 L0 60" stroke="none" stroke-width="0" fill="#b2f2bb"></path><path d="M0 0 C60.12 0, 120.24 0, 220 0 M0 0 C79.76 0, 159.52 0, 220 0 M220 0 C220 13.69, 220 27.37, 220 60 M220 0 C220 22.52, 220 45.05, 220 60 M220 60 C170.14 60, 120.27 60, 0 60 M220 60 C133.03 60, 46.05 60, 0 60 M0 60 C0 47.34, 0 34.68, 0 0 M0 60 C0 43.63, 0 27.25, 0 0" stroke="#2f9e44" stroke-width="2" fill="none"></path></g><g transform="translate(280 203.75) rotate(0 100 16.25)"><text x="100" y="NaN" font-family="Cascadia, Segoe UI Emoji" font-size="13px" fill="#2f9e44" text-anchor="middle" style="white-space: pre;" direction="ltr">Automation</text><text x="100" y="NaN" font-family="Cascadia, Segoe UI Emoji" font-size="13px" fill="#2f9e44" text-anchor="middle" style="white-space: pre;" direction="ltr">&gt;80%</text></g><g stroke-linecap="round" transform="translate(270 190) rotate(0 110 30)"><path d="M0 0 L220 0 L220 60 L0 60" stroke="none" stroke-width="0" fill="#b2f2bb"></path><path d="M0 0 C63.37 0, 126.74 0, 220 0 M0 0 C74.79 0, 149.57 0, 220 0 M220 0 C220 17.08, 220 34.15, 220 60 M220 0 C220 19.85, 220 39.7, 220 60 M220 60 C170.75 60, 121.51 60, 0 60 M220 60 C172.57 60, 125.15 60, 0 60 M0 60 C0 45.03, 0 30.05, 0 0 M0 60 C0 39.42, 0 18.85, 0 0" stroke="#2f9e44" stroke-width="2" fill="none"></path></g><g transform="translate(20 283.75) rotate(0 100 16.25)"><text x="100" y="NaN" font-family="Cascadia, Segoe UI Emoji" font-size="13px" fill="#e8590c" text-anchor="middle" style="white-space: pre;" direction="ltr">SLO Monitor</text><text x="100" y="NaN" font-family="Cascadia, Segoe UI Emoji" font-size="13px" fill="#e8590c" text-anchor="middle" style="white-space: pre;" direction="ltr">active</text></g><g stroke-linecap="round" transform="translate(10 270) rotate(0 110 30)"><path d="M0 0 L220 0 L220 60 L0 60" stroke="none" stroke-width="0" fill="#ffd8a8"></path><path d="M0 0 C66.15 0, 132.31 0, 220 0 M0 0 C73.76 0, 147.52 0, 220 0 M220 0 C220 12.34, 220 24.68, 220 60 M220 0 C220 18.48, 220 36.97, 220 60 M220 60 C172.71 60, 125.43 60, 0 60 M220 60 C158.86 60, 97.73 60, 0 60 M0 60 C0 44.62, 0 29.23, 0 0 M0 60 C0 36.12, 0 12.24, 0 0" stroke="#e8590c" stroke-width="2" fill="none"></path></g><g transform="translate(280 283.75) rotate(0 100 16.25)"><text x="100" y="NaN" font-family="Cascadia, Segoe UI Emoji" font-size="13px" fill="#e8590c" text-anchor="middle" style="white-space: pre;" direction="ltr">Gmail Token</text><text x="100" y="NaN" font-family="Cascadia, Segoe UI Emoji" font-size="13px" fill="#e8590c" text-anchor="middle" style="white-space: pre;" direction="ltr">auto-refresh</text></g><g stroke-linecap="round" transform="translate(270 270) rotate(0 110 30)"><path d="M0 0 L220 0 L220 60 L0 60" stroke="none" stroke-width="0" fill="#ffd8a8"></path><path d="M0 0 C69.08 0, 138.17 0, 220 0 M0 0 C53.27 0, 106.55 0, 220 0 M220 0 C220 20.71, 220 41.41, 220 60 M220 0 C220 20.06, 220 40.12, 220 60 M220 60 C135.42 60, 50.83 60, 0 60 M220 60 C153.12 60, 86.24 60, 0 60 M0 60 C0 43.52, 0 27.04, 0 0 M0 60 C0 44.71, 0 29.42, 0 0" stroke="#e8590c" stroke-width="2" fill="none"></path></g><g transform="translate(540 283.75) rotate(0 100 16.25)"><text x="100" y="NaN" font-family="Cascadia, Segoe UI Emoji" font-size="13px" fill="#e8590c" text-anchor="middle" style="white-space: pre;" direction="ltr">Cron Health</text><text x="100" y="NaN" font-family="Cascadia, Segoe UI Emoji" font-size="13px" fill="#e8590c" text-anchor="middle" style="white-space: pre;" direction="ltr">pending</text></g><g stroke-linecap="round" transform="translate(530 270) rotate(0 110 30)"><path d="M0 0 L220 0 L220 60 L0 60" stroke="none" stroke-width="0" fill="#ffd8a8"></path><path d="M0 0 C54.83 0, 109.67 0, 220 0 M0 0 C81.37 0, 162.75 0, 220 0 M220 0 C220 20.06, 220 40.12, 220 60 M220 0 C220 12.75, 220 25.51, 220 60 M220 60 C161.46 60, 102.93 60, 0 60 M220 60 C172.23 60, 124.46 60, 0 60 M0 60 C0 40.77, 0 21.55, 0 0 M0 60 C0 36.96, 0 13.91, 0 0" stroke="#e8590c" stroke-width="2" fill="none"></path></g></svg>