<svg version="1.1" xmlns="http://www.w3.org/2000/svg" viewBox="0 0 1000 530" width="1000" height="530">
  <!-- svg-source:excalidraw -->
  
  <defs>
    <style>
      @font-face {
        font-family: "Virgil";
        src: url("https://excalidraw.com/Virgil.woff2");
      }
      @font-face {
        font-family: "Cascadia";
        src: url("https://excalidraw.com/Cascadia.woff2");
      }
    </style>
  </defs>
  <rect x="0" y="0" width="1000" height="530" fill="#ffffff"></rect><g transform="translate(10 10) rotate(0 187.2 15)"><text x="0" y="NaN" font-family="Cascadia, Segoe UI Emoji" font-size="24px" fill="#343a40" text-anchor="start" style="white-space: pre;" direction="ltr">Technology Stack Breakdown</text></g><g transform="translate(400 68.75) rotate(0 90 11.25)"><text x="90" y="NaN" font-family="Cascadia, Segoe UI Emoji" font-size="18px" fill="#1971c2" text-anchor="middle" style="white-space: pre;" direction="ltr">Our Stack</text></g><g stroke-linecap="round" transform="translate(390 50) rotate(0 100 30)"><path d="M0 0 L200 0 L200 60 L0 60" stroke="none" stroke-width="0" fill="#a5d8ff"></path><path d="M0 0 C43.83 0, 87.67 0, 200 0 M0 0 C61.03 0, 122.05 0, 200 0 M200 0 C200 19.7, 200 39.4, 200 60 M200 0 C200 19.44, 200 38.88, 200 60 M200 60 C139.1 60, 78.2 60, 0 60 M200 60 C146.59 60, 93.19 60, 0 60 M0 60 C0 36.54, 0 13.08, 0 0 M0 60 C0 38.54, 0 17.08, 0 0" stroke="#1971c2" stroke-width="2" fill="none"></path></g><g transform="translate(40 210) rotate(0 80 10)"><text x="80" y="NaN" font-family="Cascadia, Segoe UI Emoji" font-size="16px" fill="#1971c2" text-anchor="middle" style="white-space: pre;" direction="ltr">Frontend</text></g><g stroke-linecap="round" transform="translate(30 190) rotate(0 90 30)"><path d="M0 0 L180 0 L180 60 L0 60" stroke="none" stroke-width="0" fill="#a5d8ff"></path><path d="M0 0 C69.43 0, 138.86 0, 180 0 M0 0 C50.47 0, 100.94 0, 180 0 M180 0 C180 13.52, 180 27.05, 180 60 M180 0 C180 19.18, 180 38.36, 180 60 M180 60 C143.27 60, 106.54 60, 0 60 M180 60 C135.66 60, 91.31 60, 0 60 M0 60 C0 45.35, 0 30.69, 0 0 M0 60 C0 41.64, 0 23.29, 0 0" stroke="#1971c2" stroke-width="2" fill="none"></path></g><g stroke-linecap="round"><g transform="translate(390 80) rotate(0 -90 70)"><path d="M0 0 C-30 23.33, -150 116.67, -180 140 M0 0 C-30 23.33, -150 116.67, -180 140" stroke="#868e96" stroke-width="1" fill="none"></path></g><g transform="translate(390 80) rotate(0 -90 70)"><path d="M-164.05 114.59 C-168.87 122.28, -173.7 129.96, -180 140 M-164.05 114.59 C-169.7 123.59, -175.35 132.59, -180 140" stroke="#868e96" stroke-width="1" fill="none"></path></g><g transform="translate(390 80) rotate(0 -90 70)"><path d="M-151.45 130.79 C-160.08 133.58, -168.72 136.36, -180 140 M-151.45 130.79 C-161.56 134.05, -171.67 137.31, -180 140" stroke="#868e96" stroke-width="1" fill="none"></path></g></g><g transform="translate(300 210) rotate(0 80 10)"><text x="80" y="NaN" font-family="Cascadia, Segoe UI Emoji" font-size="16px" fill="#2f9e44" text-anchor="middle" style="white-space: pre;" direction="ltr">Backend</text></g><g stroke-linecap="round" transform="translate(290 190) rotate(0 90 30)"><path d="M0 0 L180 0 L180 60 L0 60" stroke="none" stroke-width="0" fill="#b2f2bb"></path><path d="M0 0 C68.43 0, 136.86 0, 180 0 M0 0 C38.74 0, 77.48 0, 180 0 M180 0 C180 23.44, 180 46.88, 180 60 M180 0 C180 18.38, 180 36.75, 180 60 M180 60 C126.99 60, 73.99 60, 0 60 M180 60 C125.65 60, 71.3 60, 0 60 M0 60 C0 36.38, 0 12.76, 0 0 M0 60 C0 47.34, 0 34.69, 0 0" stroke="#2f9e44" stroke-width="2" fill="none"></path></g><g stroke-linecap="round"><g transform="translate(490 110) rotate(0 -55 40)"><path d="M0 0 C-18.33 13.33, -91.67 66.67, -110 80 M0 0 C-18.33 13.33, -91.67 66.67, -110 80" stroke="#868e96" stroke-width="1" fill="none"></path></g><g transform="translate(490 110) rotate(0 -55 40)"><path d="M-93.24 55.12 C-97 60.71, -100.77 66.3, -110 80 M-93.24 55.12 C-97.84 61.95, -102.44 68.78, -110 80" stroke="#868e96" stroke-width="1" fill="none"></path></g><g transform="translate(490 110) rotate(0 -55 40)"><path d="M-81.17 71.72 C-87.64 73.58, -94.12 75.44, -110 80 M-81.17 71.72 C-89.08 73.99, -96.99 76.26, -110 80" stroke="#868e96" stroke-width="1" fill="none"></path></g></g><g transform="translate(560 210) rotate(0 80 10)"><text x="80" y="NaN" font-family="Cascadia, Segoe UI Emoji" font-size="16px" fill="#7048e8" text-anchor="middle" style="white-space: pre;" direction="ltr">Data</text></g><g stroke-linecap="round" transform="translate(550 190) rotate(0 90 30)"><path d="M0 0 L180 0 L180 60 L0 60" stroke="none" stroke-width="0" fill="#d0bfff"></path><path d="M0 0 C36.81 0, 73.62 0, 180 0 M0 0 C38.42 0, 76.84 0, 180 0 M180 0 C180 21.49, 180 42.98, 180 60 M180 0 C180 19, 180 38.01, 180 60 M180 60 C133.47 60, 86.93 60, 0 60 M180 60 C130.02 60, 80.04 60, 0 60 M0 60 C0 42.36, 0 24.72, 0 0 M0 60 C0 37.03, 0 14.06, 0 0" stroke="#7048e8" stroke-width="2" fill="none"></path></g><g stroke-linecap="round"><g transform="translate(590 80) rotate(0 -20 70)"><path d="M0 0 C-6.67 23.33, -33.33 116.67, -40 140 M0 0 C-6.67 23.33, -33.33 116.67, -40 140" stroke="#868e96" stroke-width="1" fill="none"></path></g><g transform="translate(590 80) rotate(0 -20 70)"><path d="M-42.12 110.08 C-41.61 117.28, -41.1 124.49, -40 140 M-42.12 110.08 C-41.33 121.22, -40.54 132.37, -40 140" stroke="#868e96" stroke-width="1" fill="none"></path></g><g transform="translate(590 80) rotate(0 -20 70)"><path d="M-22.39 115.71 C-26.63 121.56, -30.87 127.41, -40 140 M-22.39 115.71 C-28.95 124.76, -35.51 133.81, -40 140" stroke="#868e96" stroke-width="1" fill="none"></path></g></g><g transform="translate(820 210) rotate(0 80 10)"><text x="80" y="NaN" font-family="Cascadia, Segoe UI Emoji" font-size="16px" fill="#868e96" text-anchor="middle" style="white-space: pre;" direction="ltr">Infra</text></g><g stroke-linecap="round" transform="translate(810 190) rotate(0 90 30)"><path d="M0 0 L180 0 L180 60 L0 60" stroke="none" stroke-width="0" fill="#dee2e6"></path><path d="M0 0 C63.28 0, 126.56 0, 180 0 M0 0 C62.96 0, 125.93 0, 180 0 M180 0 C180 20.78, 180 41.55, 180 60 M180 0 C180 15.83, 180 31.67, 180 60 M180 60 C131.26 60, 82.52 60, 0 60 M180 60 C118.16 60, 56.33 60, 0 60 M0 60 C0 41.06, 0 22.13, 0 0 M0 60 C0 41.05, 0 22.1, 0 0" stroke="#868e96" stroke-width="2" fill="none"></path></g><g stroke-linecap="round"><g transform="translate(590 80) rotate(0 110 70)"><path d="M0 0 C36.67 23.33, 183.33 116.67, 220 140 M0 0 C36.67 23.33, 183.33 116.67, 220 140" stroke="#868e96" stroke-width="1" fill="none"></path></g><g transform="translate(590 80) rotate(0 110 70)"><path d="M190.71 133.52 C197.18 134.95, 203.65 136.38, 220 140 M190.71 133.52 C196.85 134.88, 203 136.24, 220 140" stroke="#868e96" stroke-width="1" fill="none"></path></g><g transform="translate(590 80) rotate(0 110 70)"><path d="M201.73 116.21 C205.76 121.46, 209.8 126.72, 220 140 M201.73 116.21 C205.56 121.2, 209.39 126.19, 220 140" stroke="#868e96" stroke-width="1" fill="none"></path></g></g><g transform="translate(40 346.875) rotate(0 70 8.125)"><text x="70" y="NaN" font-family="Cascadia, Segoe UI Emoji" font-size="13px" fill="#868e96" text-anchor="middle" style="white-space: pre;" direction="ltr">React</text></g><g stroke-linecap="round" transform="translate(30 330) rotate(0 80 25)"><path d="M0 0 L160 0 L160 50 L0 50" stroke="none" stroke-width="0" fill="#dee2e6"></path><path d="M0 0 C43.43 0, 86.86 0, 160 0 M0 0 C60.16 0, 120.31 0, 160 0 M160 0 C160 12.87, 160 25.73, 160 50 M160 0 C160 11.08, 160 22.16, 160 50 M160 50 C113.14 50, 66.29 50, 0 50 M160 50 C101.56 50, 43.13 50, 0 50 M0 50 C0 31.31, 0 12.62, 0 0 M0 50 C0 36.17, 0 22.34, 0 0" stroke="#868e96" stroke-width="2" fill="none"></path></g><g stroke-linecap="round"><g transform="translate(120 250) rotate(0 -5 40)"><path d="M0 0 C-1.67 13.33, -8.33 66.67, -10 80 M0 0 C-1.67 13.33, -8.33 66.67, -10 80" stroke="#868e96" stroke-width="1" fill="none"></path></g><g transform="translate(120 250) rotate(0 -5 40)"><path d="M-16.68 50.75 C-15.12 57.61, -13.55 64.47, -10 80 M-16.68 50.75 C-14.81 58.97, -12.93 67.19, -10 80" stroke="#868e96" stroke-width="1" fill="none"></path></g><g transform="translate(120 250) rotate(0 -5 40)"><path d="M3.68 53.3 C0.47 59.56, -2.74 65.82, -10 80 M3.68 53.3 C-0.16 60.8, -4.01 68.3, -10 80" stroke="#868e96" stroke-width="1" fill="none"></path></g></g><g transform="translate(40 406.875) rotate(0 70 8.125)"><text x="70" y="NaN" font-family="Cascadia, Segoe UI Emoji" font-size="13px" fill="#868e96" text-anchor="middle" style="white-space: pre;" direction="ltr">TypeScript</text></g><g stroke-linecap="round" transform="translate(30 390) rotate(0 80 25)"><path d="M0 0 L160 0 L160 50 L0 50" stroke="none" stroke-width="0" fill="#dee2e6"></path><path d="M0 0 C51.87 0, 103.73 0, 160 0 M0 0 C45.48 0, 90.96 0, 160 0 M160 0 C160 13.97, 160 27.94, 160 50 M160 0 C160 19.84, 160 39.69, 160 50 M160 50 C116.97 50, 73.94 50, 0 50 M160 50 C122.98 50, 85.97 50, 0 50 M0 50 C0 30.52, 0 11.03, 0 0 M0 50 C0 34.83, 0 19.66, 0 0" stroke="#868e96" stroke-width="2" fill="none"></path></g><g stroke-linecap="round"><g transform="translate(110 380) rotate(0 0 5)"><path d="M0 0 C0 1.67, 0 8.33, 0 10 M0 0 C0 1.67, 0 8.33, 0 10" stroke="#868e96" stroke-width="1" fill="none"></path></g><g transform="translate(110 380) rotate(0 0 5)"><path d="M-1.71 5.3 C-1.26 6.55, -0.8 7.8, 0 10 M-1.71 5.3 C-1.2 6.7, -0.69 8.11, 0 10" stroke="#868e96" stroke-width="1" fill="none"></path></g><g transform="translate(110 380) rotate(0 0 5)"><path d="M1.71 5.3 C1.26 6.55, 0.8 7.8, 0 10 M1.71 5.3 C1.2 6.7, 0.69 8.11, 0 10" stroke="#868e96" stroke-width="1" fill="none"></path></g></g><g transform="translate(40 486.875) rotate(0 70 8.125)"><text x="70" y="NaN" font-family="Cascadia, Segoe UI Emoji" font-size="13px" fill="#868e96" text-anchor="middle" style="white-space: pre;" direction="ltr">Tailwind</text></g><g stroke-linecap="round" transform="translate(30 470) rotate(0 80 25)"><path d="M0 0 L160 0 L160 50 L0 50" stroke="none" stroke-width="0" fill="#dee2e6"></path><path d="M0 0 C50.51 0, 101.02 0, 160 0 M0 0 C40.07 0, 80.15 0, 160 0 M160 0 C160 17.32, 160 34.65, 160 50 M160 0 C160 15.47, 160 30.94, 160 50 M160 50 C119.88 50, 79.76 50, 0 50 M160 50 C120.94 50, 81.88 50, 0 50 M0 50 C0 39.35, 0 28.69, 0 0 M0 50 C0 37.14, 0 24.28, 0 0" stroke="#868e96" stroke-width="2" fill="none"></path></g><g stroke-linecap="round"><g transform="translate(110 440) rotate(0 0 15)"><path d="M0 0 C0 5, 0 25, 0 30 M0 0 C0 5, 0 25, 0 30" stroke="#868e96" stroke-width="1" fill="none"></path></g><g transform="translate(110 440) rotate(0 0 15)"><path d="M-5.13 15.9 C-3.5 20.38, -1.87 24.86, 0 30 M-5.13 15.9 C-3.13 21.41, -1.12 26.92, 0 30" stroke="#868e96" stroke-width="1" fill="none"></path></g><g transform="translate(110 440) rotate(0 0 15)"><path d="M5.13 15.9 C3.5 20.38, 1.87 24.86, 0 30 M5.13 15.9 C3.13 21.41, 1.12 26.92, 0 30" stroke="#868e96" stroke-width="1" fill="none"></path></g></g><g transform="translate(300 346.875) rotate(0 70 8.125)"><text x="70" y="NaN" font-family="Cascadia, Segoe UI Emoji" font-size="13px" fill="#868e96" text-anchor="middle" style="white-space: pre;" direction="ltr">Python</text></g><g stroke-linecap="round" transform="translate(290 330) rotate(0 80 25)"><path d="M0 0 L160 0 L160 50 L0 50" stroke="none" stroke-width="0" fill="#dee2e6"></path><path d="M0 0 C59.42 0, 118.83 0, 160 0 M0 0 C60.51 0, 121.01 0, 160 0 M160 0 C160 14.49, 160 28.99, 160 50 M160 0 C160 15.06, 160 30.12, 160 50 M160 50 C111.7 50, 63.39 50, 0 50 M160 50 C124.37 50, 88.73 50, 0 50 M0 50 C0 32.57, 0 15.13, 0 0 M0 50 C0 36.52, 0 23.05, 0 0" stroke="#868e96" stroke-width="2" fill="none"></path></g><g stroke-linecap="round"><g transform="translate(380 250) rotate(0 -5 40)"><path d="M0 0 C-1.67 13.33, -8.33 66.67, -10 80 M0 0 C-1.67 13.33, -8.33 66.67, -10 80" stroke="#868e96" stroke-width="1" fill="none"></path></g><g transform="translate(380 250) rotate(0 -5 40)"><path d="M-16.68 50.75 C-15.26 56.98, -13.84 63.2, -10 80 M-16.68 50.75 C-14.2 61.63, -11.71 72.5, -10 80" stroke="#868e96" stroke-width="1" fill="none"></path></g><g transform="translate(380 250) rotate(0 -5 40)"><path d="M3.68 53.3 C0.77 58.98, -2.14 64.67, -10 80 M3.68 53.3 C-1.41 63.23, -6.49 73.15, -10 80" stroke="#868e96" stroke-width="1" fill="none"></path></g></g><g transform="translate(300 406.875) rotate(0 70 8.125)"><text x="70" y="NaN" font-family="Cascadia, Segoe UI Emoji" font-size="13px" fill="#868e96" text-anchor="middle" style="white-space: pre;" direction="ltr">FastAPI</text></g><g stroke-linecap="round" transform="translate(290 390) rotate(0 80 25)"><path d="M0 0 L160 0 L160 50 L0 50" stroke="none" stroke-width="0" fill="#dee2e6"></path><path d="M0 0 C35.19 0, 70.38 0, 160 0 M0 0 C34.1 0, 68.21 0, 160 0 M160 0 C160 10.49, 160 20.99, 160 50 M160 0 C160 10.61, 160 21.21, 160 50 M160 50 C127.08 50, 94.16 50, 0 50 M160 50 C119.13 50, 78.27 50, 0 50 M0 50 C0 33.76, 0 17.51, 0 0 M0 50 C0 30.37, 0 10.73, 0 0" stroke="#868e96" stroke-width="2" fill="none"></path></g><g stroke-linecap="round"><g transform="translate(370 380) rotate(0 0 5)"><path d="M0 0 C0 1.67, 0 8.33, 0 10 M0 0 C0 1.67, 0 8.33, 0 10" stroke="#868e96" stroke-width="1" fill="none"></path></g><g transform="translate(370 380) rotate(0 0 5)"><path d="M-1.71 5.3 C-1.15 6.84, -0.59 8.38, 0 10 M-1.71 5.3 C-1.08 7.04, -0.45 8.78, 0 10" stroke="#868e96" stroke-width="1" fill="none"></path></g><g transform="translate(370 380) rotate(0 0 5)"><path d="M1.71 5.3 C1.15 6.84, 0.59 8.38, 0 10 M1.71 5.3 C1.08 7.04, 0.45 8.78, 0 10" stroke="#868e96" stroke-width="1" fill="none"></path></g></g><g transform="translate(300 486.875) rotate(0 70 8.125)"><text x="70" y="NaN" font-family="Cascadia, Segoe UI Emoji" font-size="13px" fill="#868e96" text-anchor="middle" style="white-space: pre;" direction="ltr">Celery</text></g><g stroke-linecap="round" transform="translate(290 470) rotate(0 80 25)"><path d="M0 0 L160 0 L160 50 L0 50" stroke="none" stroke-width="0" fill="#dee2e6"></path><path d="M0 0 C35.45 0, 70.91 0, 160 0 M0 0 C53.35 0, 106.71 0, 160 0 M160 0 C160 15.62, 160 31.23, 160 50 M160 0 C160 19.91, 160 39.82, 160 50 M160 50 C113.3 50, 66.61 50, 0 50 M160 50 C122.98 50, 85.97 50, 0 50 M0 50 C0 35.48, 0 20.95, 0 0 M0 50 C0 30.46, 0 10.93, 0 0" stroke="#868e96" stroke-width="2" fill="none"></path></g><g stroke-linecap="round"><g transform="translate(370 440) rotate(0 0 15)"><path d="M0 0 C0 5, 0 25, 0 30 M0 0 C0 5, 0 25, 0 30" stroke="#868e96" stroke-width="1" fill="none"></path></g><g transform="translate(370 440) rotate(0 0 15)"><path d="M-5.13 15.9 C-3.31 20.91, -1.49 25.92, 0 30 M-5.13 15.9 C-3.49 20.42, -1.84 24.93, 0 30" stroke="#868e96" stroke-width="1" fill="none"></path></g><g transform="translate(370 440) rotate(0 0 15)"><path d="M5.13 15.9 C3.31 20.91, 1.49 25.92, 0 30 M5.13 15.9 C3.49 20.42, 1.84 24.93, 0 30" stroke="#868e96" stroke-width="1" fill="none"></path></g></g><g transform="translate(560 346.875) rotate(0 70 8.125)"><text x="70" y="NaN" font-family="Cascadia, Segoe UI Emoji" font-size="13px" fill="#868e96" text-anchor="middle" style="white-space: pre;" direction="ltr">Postgres</text></g><g stroke-linecap="round" transform="translate(550 330) rotate(0 80 25)"><path d="M0 0 L160 0 L160 50 L0 50" stroke="none" stroke-width="0" fill="#dee2e6"></path><path d="M0 0 C61.3 0, 122.61 0, 160 0 M0 0 C51.43 0, 102.87 0, 160 0 M160 0 C160 19.5, 160 39.01, 160 50 M160 0 C160 14.64, 160 29.27, 160 50 M160 50 C113.34 50, 66.67 50, 0 50 M160 50 C97.85 50, 35.7 50, 0 50 M0 50 C0 36.52, 0 23.04, 0 0 M0 50 C0 34.85, 0 19.71, 0 0" stroke="#868e96" stroke-width="2" fill="none"></path></g><g stroke-linecap="round"><g transform="translate(640 250) rotate(0 -5 40)"><path d="M0 0 C-1.67 13.33, -8.33 66.67, -10 80 M0 0 C-1.67 13.33, -8.33 66.67, -10 80" stroke="#868e96" stroke-width="1" fill="none"></path></g><g transform="translate(640 250) rotate(0 -5 40)"><path d="M-16.68 50.75 C-14.69 59.46, -12.7 68.17, -10 80 M-16.68 50.75 C-14.09 62.12, -11.49 73.49, -10 80" stroke="#868e96" stroke-width="1" fill="none"></path></g><g transform="translate(640 250) rotate(0 -5 40)"><path d="M3.68 53.3 C-0.4 61.25, -4.47 69.2, -10 80 M3.68 53.3 C-1.64 63.68, -6.96 74.06, -10 80" stroke="#868e96" stroke-width="1" fill="none"></path></g></g><g transform="translate(560 406.875) rotate(0 70 8.125)"><text x="70" y="NaN" font-family="Cascadia, Segoe UI Emoji" font-size="13px" fill="#868e96" text-anchor="middle" style="white-space: pre;" direction="ltr">Redis</text></g><g stroke-linecap="round" transform="translate(550 390) rotate(0 80 25)"><path d="M0 0 L160 0 L160 50 L0 50" stroke="none" stroke-width="0" fill="#dee2e6"></path><path d="M0 0 C56.08 0, 112.15 0, 160 0 M0 0 C50.66 0, 101.32 0, 160 0 M160 0 C160 14.36, 160 28.72, 160 50 M160 0 C160 11.75, 160 23.5, 160 50 M160 50 C107.97 50, 55.95 50, 0 50 M160 50 C123.04 50, 86.08 50, 0 50 M0 50 C0 38.15, 0 26.3, 0 0 M0 50 C0 33.26, 0 16.52, 0 0" stroke="#868e96" stroke-width="2" fill="none"></path></g><g stroke-linecap="round"><g transform="translate(630 380) rotate(0 0 5)"><path d="M0 0 C0 1.67, 0 8.33, 0 10 M0 0 C0 1.67, 0 8.33, 0 10" stroke="#868e96" stroke-width="1" fill="none"></path></g><g transform="translate(630 380) rotate(0 0 5)"><path d="M-1.71 5.3 C-1.08 7.04, -0.45 8.77, 0 10 M-1.71 5.3 C-1.06 7.07, -0.42 8.85, 0 10" stroke="#868e96" stroke-width="1" fill="none"></path></g><g transform="translate(630 380) rotate(0 0 5)"><path d="M1.71 5.3 C1.08 7.04, 0.45 8.77, 0 10 M1.71 5.3 C1.06 7.07, 0.42 8.85, 0 10" stroke="#868e96" stroke-width="1" fill="none"></path></g></g><g transform="translate(560 486.875) rotate(0 70 8.125)"><text x="70" y="NaN" font-family="Cascadia, Segoe UI Emoji" font-size="13px" fill="#868e96" text-anchor="middle" style="white-space: pre;" direction="ltr">S3</text></g><g stroke-linecap="round" transform="translate(550 470) rotate(0 80 25)"><path d="M0 0 L160 0 L160 50 L0 50" stroke="none" stroke-width="0" fill="#dee2e6"></path><path d="M0 0 C48.29 0, 96.57 0, 160 0 M0 0 C40.78 0, 81.56 0, 160 0 M160 0 C160 14.07, 160 28.15, 160 50 M160 0 C160 14.48, 160 28.96, 160 50 M160 50 C124.83 50, 89.66 50, 0 50 M160 50 C126.3 50, 92.6 50, 0 50 M0 50 C0 37.83, 0 25.66, 0 0 M0 50 C0 37.71, 0 25.41, 0 0" stroke="#868e96" stroke-width="2" fill="none"></path></g><g stroke-linecap="round"><g transform="translate(630 440) rotate(0 0 15)"><path d="M0 0 C0 5, 0 25, 0 30 M0 0 C0 5, 0 25, 0 30" stroke="#868e96" stroke-width="1" fill="none"></path></g><g transform="translate(630 440) rotate(0 0 15)"><path d="M-5.13 15.9 C-3.83 19.47, -2.54 23.03, 0 30 M-5.13 15.9 C-3.8 19.56, -2.47 23.21, 0 30" stroke="#868e96" stroke-width="1" fill="none"></path></g><g transform="translate(630 440) rotate(0 0 15)"><path d="M5.13 15.9 C3.83 19.47, 2.54 23.03, 0 30 M5.13 15.9 C3.8 19.56, 2.47 23.21, 0 30" stroke="#868e96" stroke-width="1" fill="none"></path></g></g><g transform="translate(820 346.875) rotate(0 70 8.125)"><text x="70" y="NaN" font-family="Cascadia, Segoe UI Emoji" font-size="13px" fill="#868e96" text-anchor="middle" style="white-space: pre;" direction="ltr">AWS</text></g><g stroke-linecap="round" transform="translate(810 330) rotate(0 80 25)"><path d="M0 0 L160 0 L160 50 L0 50" stroke="none" stroke-width="0" fill="#dee2e6"></path><path d="M0 0 C57.63 0, 115.27 0, 160 0 M0 0 C59.58 0, 119.17 0, 160 0 M160 0 C160 13.86, 160 27.71, 160 50 M160 0 C160 17.97, 160 35.93, 160 50 M160 50 C114.51 50, 69.02 50, 0 50 M160 50 C127.75 50, 95.49 50, 0 50 M0 50 C0 36.26, 0 22.52, 0 0 M0 50 C0 33.58, 0 17.16, 0 0" stroke="#868e96" stroke-width="2" fill="none"></path></g><g stroke-linecap="round"><g transform="translate(900 250) rotate(0 -5 40)"><path d="M0 0 C-1.67 13.33, -8.33 66.67, -10 80 M0 0 C-1.67 13.33, -8.33 66.67, -10 80" stroke="#868e96" stroke-width="1" fill="none"></path></g><g transform="translate(900 250) rotate(0 -5 40)"><path d="M-16.68 50.75 C-14.58 59.97, -12.47 69.18, -10 80 M-16.68 50.75 C-14.46 60.48, -12.24 70.21, -10 80" stroke="#868e96" stroke-width="1" fill="none"></path></g><g transform="translate(900 250) rotate(0 -5 40)"><path d="M3.68 53.3 C-0.63 61.71, -4.94 70.12, -10 80 M3.68 53.3 C-0.87 62.18, -5.42 71.06, -10 80" stroke="#868e96" stroke-width="1" fill="none"></path></g></g><g transform="translate(820 406.875) rotate(0 70 8.125)"><text x="70" y="NaN" font-family="Cascadia, Segoe UI Emoji" font-size="13px" fill="#868e96" text-anchor="middle" style="white-space: pre;" direction="ltr">Docker</text></g><g stroke-linecap="round" transform="translate(810 390) rotate(0 80 25)"><path d="M0 0 L160 0 L160 50 L0 50" stroke="none" stroke-width="0" fill="#dee2e6"></path><path d="M0 0 C35.98 0, 71.95 0, 160 0 M0 0 C54.23 0, 108.46 0, 160 0 M160 0 C160 13.99, 160 27.98, 160 50 M160 0 C160 14.32, 160 28.65, 160 50 M160 50 C96.31 50, 32.62 50, 0 50 M160 50 C125.98 50, 91.96 50, 0 50 M0 50 C0 39.13, 0 28.27, 0 0 M0 50 C0 34.63, 0 19.27, 0 0" stroke="#868e96" stroke-width="2" fill="none"></path></g><g stroke-linecap="round"><g transform="translate(890 380) rotate(0 0 5)"><path d="M0 0 C0 1.67, 0 8.33, 0 10 M0 0 C0 1.67, 0 8.33, 0 10" stroke="#868e96" stroke-width="1" fill="none"></path></g><g transform="translate(890 380) rotate(0 0 5)"><path d="M-1.71 5.3 C-1.03 7.16, -0.36 9.01, 0 10 M-1.71 5.3 C-1.04 7.14, -0.37 8.98, 0 10" stroke="#868e96" stroke-width="1" fill="none"></path></g><g transform="translate(890 380) rotate(0 0 5)"><path d="M1.71 5.3 C1.03 7.16, 0.36 9.01, 0 10 M1.71 5.3 C1.04 7.14, 0.37 8.98, 0 10" stroke="#868e96" stroke-width="1" fill="none"></path></g></g><g transform="translate(820 486.875) rotate(0 70 8.125)"><text x="70" y="NaN" font-family="Cascadia, Segoe UI Emoji" font-size="13px" fill="#868e96" text-anchor="middle" style="white-space: pre;" direction="ltr">Terraform</text></g><g stroke-linecap="round" transform="translate(810 470) rotate(0 80 25)"><path d="M0 0 L160 0 L160 50 L0 50" stroke="none" stroke-width="0" fill="#dee2e6"></path><path d="M0 0 C33.22 0, 66.44 0, 160 0 M0 0 C50.28 0, 100.56 0, 160 0 M160 0 C160 16.45, 160 32.89, 160 50 M160 0 C160 18.14, 160 36.27, 160 50 M160 50 C103.93 50, 47.85 50, 0 50 M160 50 C114.15 50, 68.29 50, 0 50 M0 50 C0 36.31, 0 22.62, 0 0 M0 50 C0 35.52, 0 21.03, 0 0" stroke="#868e96" stroke-width="2" fill="none"></path></g><g stroke-linecap="round"><g transform="translate(890 440) rotate(0 0 15)"><path d="M0 0 C0 5, 0 25, 0 30 M0 0 C0 5, 0 25, 0 30" stroke="#868e96" stroke-width="1" fill="none"></path></g><g transform="translate(890 440) rotate(0 0 15)"><path d="M-5.13 15.9 C-4 19, -2.88 22.09, 0 30 M-5.13 15.9 C-3.65 19.97, -2.17 24.03, 0 30" stroke="#868e96" stroke-width="1" fill="none"></path></g><g transform="translate(890 440) rotate(0 0 15)"><path d="M5.13 15.9 C4 19, 2.88 22.09, 0 30 M5.13 15.9 C3.65 19.97, 2.17 24.03, 0 30" stroke="#868e96" stroke-width="1" fill="none"></path></g></g></svg>