<svg version="1.1" xmlns="http://www.w3.org/2000/svg" viewBox="0 0 1029 620" width="1029" height="620">
  <!-- svg-source:excalidraw -->
  
  <defs>
    <style>
      @font-face {
        font-family: "Virgil";
        src: url("https://excalidraw.com/Virgil.woff2");
      }
      @font-face {
        font-family: "Cascadia";
        src: url("https://excalidraw.com/Cascadia.woff2");
      }
    </style>
  </defs>
  <rect x="0" y="0" width="1029" height="620" fill="#ffffff"></rect><g transform="translate(150 10) rotate(0 336 17.5)"><text x="0" y="NaN" font-family="Cascadia, Segoe UI Emoji" font-size="28px" fill="#343a40" text-anchor="start" style="white-space: pre;" direction="ltr">Vault Content Distribution (7,001 files)</text></g><g transform="translate(20 197.5) rotate(0 215.5 22.5)"><text x="215.5" y="NaN" font-family="Cascadia, Segoe UI Emoji" font-size="18px" fill="#e8590c" text-anchor="middle" style="white-space: pre;" direction="ltr">00-Inbox</text><text x="215.5" y="NaN" font-family="Cascadia, Segoe UI Emoji" font-size="18px" fill="#e8590c" text-anchor="middle" style="white-space: pre;" direction="ltr">2,274 files (32.4%)</text></g><g stroke-linecap="round" transform="translate(10 70) rotate(0 225.5 150)"><path d="M0 0 L451 0 L451 300 L0 300" stroke="none" stroke-width="0" fill="#ffd8a8"></path><path d="M0 0 C158.99 0, 317.98 0, 451 0 M0 0 C103.23 0, 206.46 0, 451 0 M451 0 C451 90.42, 451 180.83, 451 300 M451 0 C451 81.57, 451 163.14, 451 300 M451 300 C316.44 300, 181.88 300, 0 300 M451 300 C280.18 300, 109.36 300, 0 300 M0 300 C0 214.14, 0 128.28, 0 0 M0 300 C0 210.04, 0 120.08, 0 0" stroke="#e8590c" stroke-width="2" fill="none"></path></g><g transform="translate(480 200) rotate(0 140 20)"><text x="140" y="NaN" font-family="Cascadia, Segoe UI Emoji" font-size="16px" fill="#1971c2" text-anchor="middle" style="white-space: pre;" direction="ltr">13-Reports</text><text x="140" y="NaN" font-family="Cascadia, Segoe UI Emoji" font-size="16px" fill="#1971c2" text-anchor="middle" style="white-space: pre;" direction="ltr">1,514 files (21.6%)</text></g><g stroke-linecap="round" transform="translate(470 70) rotate(0 150 150)"><path d="M0 0 L300 0 L300 300 L0 300" stroke="none" stroke-width="0" fill="#a5d8ff"></path><path d="M0 0 C64.29 0, 128.58 0, 300 0 M0 0 C88.06 0, 176.12 0, 300 0 M300 0 C300 64.62, 300 129.23, 300 300 M300 0 C300 79.63, 300 159.25, 300 300 M300 300 C224.28 300, 148.55 300, 0 300 M300 300 C223.7 300, 147.41 300, 0 300 M0 300 C0 230.25, 0 160.5, 0 0 M0 300 C0 190.4, 0 80.8, 0 0" stroke="#1971c2" stroke-width="2" fill="none"></path></g><g transform="translate(780 200) rotate(0 114.5 20)"><text x="114.5" y="NaN" font-family="Cascadia, Segoe UI Emoji" font-size="16px" fill="#2f9e44" text-anchor="middle" style="white-space: pre;" direction="ltr">03-Knowledge</text><text x="114.5" y="NaN" font-family="Cascadia, Segoe UI Emoji" font-size="16px" fill="#2f9e44" text-anchor="middle" style="white-space: pre;" direction="ltr">1,246 files (17.8%)</text></g><g stroke-linecap="round" transform="translate(770 70) rotate(0 124.5 150)"><path d="M0 0 L249 0 L249 300 L0 300" stroke="none" stroke-width="0" fill="#b2f2bb"></path><path d="M0 0 C83.96 0, 167.93 0, 249 0 M0 0 C86.33 0, 172.66 0, 249 0 M249 0 C249 78.37, 249 156.73, 249 300 M249 0 C249 119.03, 249 238.05, 249 300 M249 300 C198.37 300, 147.73 300, 0 300 M249 300 C192.67 300, 136.34 300, 0 300 M0 300 C0 185.25, 0 70.5, 0 0 M0 300 C0 227.02, 0 154.04, 0 0" stroke="#2f9e44" stroke-width="2" fill="none"></path></g><g transform="translate(20 453.75) rotate(0 103.5 26.25)"><text x="103.5" y="NaN" font-family="Cascadia, Segoe UI Emoji" font-size="14px" fill="#868e96" text-anchor="middle" style="white-space: pre;" direction="ltr">_system</text><text x="103.5" y="NaN" font-family="Cascadia, Segoe UI Emoji" font-size="14px" fill="#868e96" text-anchor="middle" style="white-space: pre;" direction="ltr">448 files</text><text x="103.5" y="NaN" font-family="Cascadia, Segoe UI Emoji" font-size="14px" fill="#868e96" text-anchor="middle" style="white-space: pre;" direction="ltr">(6.4%)</text></g><g stroke-linecap="round" transform="translate(10 390) rotate(0 113.5 90)"><path d="M0 0 L227 0 L227 180 L0 180" stroke="none" stroke-width="0" fill="#dee2e6"></path><path d="M0 0 C87.35 0, 174.7 0, 227 0 M0 0 C74.33 0, 148.66 0, 227 0 M227 0 C227 41.68, 227 83.37, 227 180 M227 0 C227 68.54, 227 137.08, 227 180 M227 180 C143.8 180, 60.6 180, 0 180 M227 180 C157.48 180, 87.97 180, 0 180 M0 180 C0 130.3, 0 80.61, 0 0 M0 180 C0 118.65, 0 57.3, 0 0" stroke="#868e96" stroke-width="2" fill="none"></path></g><g transform="translate(240 453.75) rotate(0 94.5 26.25)"><text x="94.5" y="NaN" font-family="Cascadia, Segoe UI Emoji" font-size="14px" fill="#7048e8" text-anchor="middle" style="white-space: pre;" direction="ltr">04-Sessions</text><text x="94.5" y="NaN" font-family="Cascadia, Segoe UI Emoji" font-size="14px" fill="#7048e8" text-anchor="middle" style="white-space: pre;" direction="ltr">413 files</text><text x="94.5" y="NaN" font-family="Cascadia, Segoe UI Emoji" font-size="14px" fill="#7048e8" text-anchor="middle" style="white-space: pre;" direction="ltr">(5.9%)</text></g><g stroke-linecap="round" transform="translate(230 390) rotate(0 104.5 90)"><path d="M0 0 L209 0 L209 180 L0 180" stroke="none" stroke-width="0" fill="#d0bfff"></path><path d="M0 0 C70.07 0, 140.14 0, 209 0 M0 0 C73.99 0, 147.98 0, 209 0 M209 0 C209 38.42, 209 76.83, 209 180 M209 0 C209 52.18, 209 104.35, 209 180 M209 180 C129.63 180, 50.26 180, 0 180 M209 180 C165.06 180, 121.11 180, 0 180 M0 180 C0 138.18, 0 96.35, 0 0 M0 180 C0 116.86, 0 53.73, 0 0" stroke="#7048e8" stroke-width="2" fill="none"></path></g><g transform="translate(460 462.5) rotate(0 272 17.5)"><text x="272" y="NaN" font-family="Cascadia, Segoe UI Emoji" font-size="14px" fill="#868e96" text-anchor="middle" style="white-space: pre;" direction="ltr">Everything else</text><text x="272" y="NaN" font-family="Cascadia, Segoe UI Emoji" font-size="14px" fill="#868e96" text-anchor="middle" style="white-space: pre;" direction="ltr">1,106 files (15.8%)</text></g><g stroke-linecap="round" transform="translate(450 390) rotate(0 282 90)"><path d="M0 0 L564 0 L564 180 L0 180" stroke="none" stroke-width="0" fill="#dee2e6"></path><path d="M0 0 C148.34 0, 296.68 0, 564 0 M0 0 C196.62 0, 393.25 0, 564 0 M564 0 C564 51.47, 564 102.94, 564 180 M564 0 C564 44, 564 87.99, 564 180 M564 180 C419.34 180, 274.68 180, 0 180 M564 180 C420.78 180, 277.56 180, 0 180 M0 180 C0 131.69, 0 83.38, 0 0 M0 180 C0 108.3, 0 36.61, 0 0" stroke="#868e96" stroke-width="2" fill="none"></path></g><g transform="translate(10 590) rotate(0 172.79999999999998 10)"><text x="0" y="NaN" font-family="Cascadia, Segoe UI Emoji" font-size="16px" fill="#343a40" text-anchor="start" style="white-space: pre;" direction="ltr">Top 3 folders = 71.8% of all content</text></g></svg>