<svg version="1.1" xmlns="http://www.w3.org/2000/svg" viewBox="0 0 492.79999999999995 88" width="492.79999999999995" height="88">
  <!-- svg-source:excalidraw -->
  
  <defs>
    <style>
      @font-face {
        font-family: "Virgil";
        src: url("https://excalidraw.com/Virgil.woff2");
      }
      @font-face {
        font-family: "Cascadia";
        src: url("https://excalidraw.com/Cascadia.woff2");
      }
    </style>
  </defs>
  <rect x="0" y="0" width="492.79999999999995" height="88" fill="#ffffff"></rect><g transform="translate(20 45.25) rotate(0 70 8.75)"><text x="70" y="NaN" font-family="Cascadia, Segoe UI Emoji" font-size="14px" fill="#1971c2" text-anchor="middle" style="white-space: pre;" direction="ltr">Save Changes</text></g><g stroke-linecap="round" transform="translate(10 30) rotate(0 80 24)"><path d="M0 0 L160 0 L160 48 L0 48" stroke="none" stroke-width="0" fill="#a5d8ff"></path><path d="M0 0 C41.62 0, 83.24 0, 160 0 M0 0 C58.27 0, 116.54 0, 160 0 M160 0 C160 10.69, 160 21.38, 160 48 M160 0 C160 13.5, 160 27.01, 160 48 M160 48 C104.02 48, 48.04 48, 0 48 M160 48 C117.66 48, 75.33 48, 0 48 M0 48 C0 30.72, 0 13.43, 0 0 M0 48 C0 32.65, 0 17.31, 0 0" stroke="#1971c2" stroke-width="2" fill="none"></path></g><g transform="translate(310 10) rotate(0 86.39999999999998 15)"><text x="0" y="NaN" font-family="Cascadia, Segoe UI Emoji" font-size="12px" fill="#0c8599" text-anchor="start" style="white-space: pre;" direction="ltr">Clicking 'Save' triggers</text><text x="0" y="NaN" font-family="Cascadia, Segoe UI Emoji" font-size="12px" fill="#0c8599" text-anchor="start" style="white-space: pre;" direction="ltr">form validation first</text></g><g stroke-linecap="round"><g transform="translate(310 25) rotate(0 -70 14.5)"><path d="M0 0 C-23.33 4.83, -116.67 24.17, -140 29" stroke="#0c8599" stroke-width="2.5" fill="none" stroke-dasharray="8 10"></path></g><g transform="translate(310 25) rotate(0 -70 14.5)"><path d="M-114.48 13.23 C-123.37 18.73, -132.26 24.22, -140 29" stroke="#0c8599" stroke-width="2.5" fill="none"></path></g><g transform="translate(310 25) rotate(0 -70 14.5)"><path d="M-110.31 33.33 C-120.66 31.82, -131 30.31, -140 29" stroke="#0c8599" stroke-width="2.5" fill="none"></path></g></g></svg>