<svg version="1.1" xmlns="http://www.w3.org/2000/svg" viewBox="0 0 1380 440" width="1380" height="440">
  <!-- svg-source:excalidraw -->
  
  <defs>
    <style>
      @font-face {
        font-family: "Virgil";
        src: url("https://excalidraw.com/Virgil.woff2");
      }
      @font-face {
        font-family: "Cascadia";
        src: url("https://excalidraw.com/Cascadia.woff2");
      }
    </style>
  </defs>
  <rect x="0" y="0" width="1380" height="440" fill="#ffffff"></rect><g transform="translate(10 10) rotate(0 243.60000000000002 17.5)"><text x="0" y="NaN" font-family="Cascadia, Segoe UI Emoji" font-size="28px" fill="#343a40" text-anchor="start" style="white-space: pre;" direction="ltr">YouTube Intelligence Pipeline</text></g><g transform="translate(10 50) rotate(0 129.6 10)"><text x="0" y="NaN" font-family="Cascadia, Segoe UI Emoji" font-size="16px" fill="#868e96" text-anchor="start" style="white-space: pre;" direction="ltr">6-stage processing pipeline</text></g><g transform="translate(20 192.5) rotate(0 70 17.5)"><text x="70" y="NaN" font-family="Cascadia, Segoe UI Emoji" font-size="14px" fill="#0c8599" text-anchor="middle" style="white-space: pre;" direction="ltr">Fetch</text><text x="70" y="NaN" font-family="Cascadia, Segoe UI Emoji" font-size="14px" fill="#0c8599" text-anchor="middle" style="white-space: pre;" direction="ltr">(YouTube API)</text></g><g stroke-linecap="round" transform="translate(10 170) rotate(0 80 40)"><path d="M0 0 L160 0 L160 80 L0 80" stroke="none" stroke-width="0" fill="#99e9f2"></path><path d="M0 0 C50.78 0, 101.55 0, 160 0 M0 0 C53.01 0, 106.01 0, 160 0 M160 0 C160 28.18, 160 56.36, 160 80 M160 0 C160 27.58, 160 55.17, 160 80 M160 80 C116.96 80, 73.92 80, 0 80 M160 80 C122.94 80, 85.87 80, 0 80 M0 80 C0 49.44, 0 18.89, 0 0 M0 80 C0 50.47, 0 20.94, 0 0" stroke="#0c8599" stroke-width="2" fill="none"></path></g><g transform="translate(260 201.25) rotate(0 70 8.75)"><text x="70" y="NaN" font-family="Cascadia, Segoe UI Emoji" font-size="14px" fill="#1971c2" text-anchor="middle" style="white-space: pre;" direction="ltr">Transcribe</text></g><g stroke-linecap="round" transform="translate(250 170) rotate(0 80 40)"><path d="M0 0 L160 0 L160 80 L0 80" stroke="none" stroke-width="0" fill="#a5d8ff"></path><path d="M0 0 C62.72 0, 125.43 0, 160 0 M0 0 C49.98 0, 99.95 0, 160 0 M160 0 C160 30.76, 160 61.53, 160 80 M160 0 C160 30.66, 160 61.33, 160 80 M160 80 C119.77 80, 79.55 80, 0 80 M160 80 C119.3 80, 78.61 80, 0 80 M0 80 C0 52.54, 0 25.09, 0 0 M0 80 C0 52.99, 0 25.98, 0 0" stroke="#1971c2" stroke-width="2" fill="none"></path></g><g stroke-linecap="round"><g transform="translate(170 210) rotate(0 40 0)"><path d="M0 0 C13.33 0, 66.67 0, 80 0 M0 0 C13.33 0, 66.67 0, 80 0" stroke="#868e96" stroke-width="2" fill="none"></path></g><g transform="translate(170 210) rotate(0 40 0)"><path d="M51.81 10.26 C59.4 7.5, 66.99 4.73, 80 0 M51.81 10.26 C63.02 6.18, 74.24 2.1, 80 0" stroke="#868e96" stroke-width="2" fill="none"></path></g><g transform="translate(170 210) rotate(0 40 0)"><path d="M51.81 -10.26 C59.4 -7.5, 66.99 -4.73, 80 0 M51.81 -10.26 C63.02 -6.18, 74.24 -2.1, 80 0" stroke="#868e96" stroke-width="2" fill="none"></path></g></g><g transform="translate(500 192.5) rotate(0 70 17.5)"><text x="70" y="NaN" font-family="Cascadia, Segoe UI Emoji" font-size="14px" fill="#1971c2" text-anchor="middle" style="white-space: pre;" direction="ltr">Analyze</text><text x="70" y="NaN" font-family="Cascadia, Segoe UI Emoji" font-size="14px" fill="#1971c2" text-anchor="middle" style="white-space: pre;" direction="ltr">(LLM)</text></g><g stroke-linecap="round" transform="translate(490 170) rotate(0 80 40)"><path d="M0 0 L160 0 L160 80 L0 80" stroke="none" stroke-width="0" fill="#a5d8ff"></path><path d="M0 0 C57.45 0, 114.9 0, 160 0 M0 0 C61.34 0, 122.68 0, 160 0 M160 0 C160 24.29, 160 48.58, 160 80 M160 0 C160 30.13, 160 60.27, 160 80 M160 80 C115.85 80, 71.71 80, 0 80 M160 80 C115.64 80, 71.28 80, 0 80 M0 80 C0 49.79, 0 19.58, 0 0 M0 80 C0 51.96, 0 23.91, 0 0" stroke="#1971c2" stroke-width="2" fill="none"></path></g><g stroke-linecap="round"><g transform="translate(410 210) rotate(0 40 0)"><path d="M0 0 C13.33 0, 66.67 0, 80 0 M0 0 C13.33 0, 66.67 0, 80 0" stroke="#868e96" stroke-width="2" fill="none"></path></g><g transform="translate(410 210) rotate(0 40 0)"><path d="M51.81 10.26 C57.54 8.17, 63.28 6.09, 80 0 M51.81 10.26 C61.69 6.66, 71.57 3.07, 80 0" stroke="#868e96" stroke-width="2" fill="none"></path></g><g transform="translate(410 210) rotate(0 40 0)"><path d="M51.81 -10.26 C57.54 -8.17, 63.28 -6.09, 80 0 M51.81 -10.26 C61.69 -6.66, 71.57 -3.07, 80 0" stroke="#868e96" stroke-width="2" fill="none"></path></g></g><g transform="translate(740 192.5) rotate(0 70 17.5)"><text x="70" y="NaN" font-family="Cascadia, Segoe UI Emoji" font-size="14px" fill="#1971c2" text-anchor="middle" style="white-space: pre;" direction="ltr">Extract</text><text x="70" y="NaN" font-family="Cascadia, Segoe UI Emoji" font-size="14px" fill="#1971c2" text-anchor="middle" style="white-space: pre;" direction="ltr">Insights</text></g><g stroke-linecap="round" transform="translate(730 170) rotate(0 80 40)"><path d="M0 0 L160 0 L160 80 L0 80" stroke="none" stroke-width="0" fill="#a5d8ff"></path><path d="M0 0 C51.35 0, 102.7 0, 160 0 M0 0 C33.01 0, 66.01 0, 160 0 M160 0 C160 17.85, 160 35.7, 160 80 M160 0 C160 19.56, 160 39.12, 160 80 M160 80 C96.4 80, 32.8 80, 0 80 M160 80 C119.11 80, 78.23 80, 0 80 M0 80 C0 57.7, 0 35.39, 0 0 M0 80 C0 53.11, 0 26.23, 0 0" stroke="#1971c2" stroke-width="2" fill="none"></path></g><g stroke-linecap="round"><g transform="translate(650 210) rotate(0 40 0)"><path d="M0 0 C13.33 0, 66.67 0, 80 0 M0 0 C13.33 0, 66.67 0, 80 0" stroke="#868e96" stroke-width="2" fill="none"></path></g><g transform="translate(650 210) rotate(0 40 0)"><path d="M51.81 10.26 C58.94 7.66, 66.07 5.07, 80 0 M51.81 10.26 C58.53 7.81, 65.25 5.37, 80 0" stroke="#868e96" stroke-width="2" fill="none"></path></g><g transform="translate(650 210) rotate(0 40 0)"><path d="M51.81 -10.26 C58.94 -7.66, 66.07 -5.07, 80 0 M51.81 -10.26 C58.53 -7.81, 65.25 -5.37, 80 0" stroke="#868e96" stroke-width="2" fill="none"></path></g></g><g transform="translate(980 201.25) rotate(0 70 8.75)"><text x="70" y="NaN" font-family="Cascadia, Segoe UI Emoji" font-size="14px" fill="#2f9e44" text-anchor="middle" style="white-space: pre;" direction="ltr">Store</text></g><g stroke-linecap="round" transform="translate(970 170) rotate(0 80 40)"><path d="M0 0 L160 0 L160 80 L0 80" stroke="none" stroke-width="0" fill="#b2f2bb"></path><path d="M0 0 C37.92 0, 75.85 0, 160 0 M0 0 C43.18 0, 86.37 0, 160 0 M160 0 C160 19.42, 160 38.84, 160 80 M160 0 C160 28.94, 160 57.89, 160 80 M160 80 C98.68 80, 37.35 80, 0 80 M160 80 C116.06 80, 72.13 80, 0 80 M0 80 C0 51.57, 0 23.14, 0 0 M0 80 C0 50.49, 0 20.97, 0 0" stroke="#2f9e44" stroke-width="2" fill="none"></path></g><g stroke-linecap="round"><g transform="translate(890 210) rotate(0 40 0)"><path d="M0 0 C13.33 0, 66.67 0, 80 0 M0 0 C13.33 0, 66.67 0, 80 0" stroke="#868e96" stroke-width="2" fill="none"></path></g><g transform="translate(890 210) rotate(0 40 0)"><path d="M51.81 10.26 C58.45 7.84, 65.09 5.43, 80 0 M51.81 10.26 C61.34 6.79, 70.88 3.32, 80 0" stroke="#868e96" stroke-width="2" fill="none"></path></g><g transform="translate(890 210) rotate(0 40 0)"><path d="M51.81 -10.26 C58.45 -7.84, 65.09 -5.43, 80 0 M51.81 -10.26 C61.34 -6.79, 70.88 -3.32, 80 0" stroke="#868e96" stroke-width="2" fill="none"></path></g></g><g transform="translate(1220 201.25) rotate(0 70 8.75)"><text x="70" y="NaN" font-family="Cascadia, Segoe UI Emoji" font-size="14px" fill="#e8590c" text-anchor="middle" style="white-space: pre;" direction="ltr">Notify</text></g><g stroke-linecap="round" transform="translate(1210 170) rotate(0 80 40)"><path d="M0 0 L160 0 L160 80 L0 80" stroke="none" stroke-width="0" fill="#ffd8a8"></path><path d="M0 0 C43.15 0, 86.3 0, 160 0 M0 0 C45.6 0, 91.21 0, 160 0 M160 0 C160 18.33, 160 36.66, 160 80 M160 0 C160 19.98, 160 39.95, 160 80 M160 80 C101.89 80, 43.77 80, 0 80 M160 80 C99.79 80, 39.57 80, 0 80 M0 80 C0 60.76, 0 41.52, 0 0 M0 80 C0 59.25, 0 38.5, 0 0" stroke="#e8590c" stroke-width="2" fill="none"></path></g><g stroke-linecap="round"><g transform="translate(1130 210) rotate(0 40 0)"><path d="M0 0 C13.33 0, 66.67 0, 80 0 M0 0 C13.33 0, 66.67 0, 80 0" stroke="#868e96" stroke-width="2" fill="none"></path></g><g transform="translate(1130 210) rotate(0 40 0)"><path d="M51.81 10.26 C61.93 6.58, 72.06 2.89, 80 0 M51.81 10.26 C61.21 6.84, 70.61 3.42, 80 0" stroke="#868e96" stroke-width="2" fill="none"></path></g><g transform="translate(1130 210) rotate(0 40 0)"><path d="M51.81 -10.26 C61.93 -6.58, 72.06 -2.89, 80 0 M51.81 -10.26 C61.21 -6.84, 70.61 -3.42, 80 0" stroke="#868e96" stroke-width="2" fill="none"></path></g></g><g transform="translate(700 382.5) rotate(0 70 17.5)"><text x="70" y="NaN" font-family="Cascadia, Segoe UI Emoji" font-size="14px" fill="#2f9e44" text-anchor="middle" style="white-space: pre;" direction="ltr">Obsidian</text><text x="70" y="NaN" font-family="Cascadia, Segoe UI Emoji" font-size="14px" fill="#2f9e44" text-anchor="middle" style="white-space: pre;" direction="ltr">Vault</text></g><g stroke-linecap="round" transform="translate(690 370) rotate(0 80 30)"><path d="M0 0 L160 0 L160 60 L0 60" stroke="none" stroke-width="0" fill="#b2f2bb"></path><path d="M0 0 C43.76 0, 87.51 0, 160 0 M0 0 C60.51 0, 121.02 0, 160 0 M160 0 C160 19.89, 160 39.78, 160 60 M160 0 C160 18.44, 160 36.87, 160 60 M160 60 C102.07 60, 44.15 60, 0 60 M160 60 C126.18 60, 92.36 60, 0 60 M0 60 C0 42.81, 0 25.62, 0 0 M0 60 C0 46.61, 0 33.22, 0 0" stroke="#2f9e44" stroke-width="2" fill="none"></path></g><g transform="translate(900 391.25) rotate(0 70 8.75)"><text x="70" y="NaN" font-family="Cascadia, Segoe UI Emoji" font-size="14px" fill="#2f9e44" text-anchor="middle" style="white-space: pre;" direction="ltr">ChromaDB</text></g><g stroke-linecap="round" transform="translate(890 370) rotate(0 80 30)"><path d="M0 0 L160 0 L160 60 L0 60" stroke="none" stroke-width="0" fill="#b2f2bb"></path><path d="M0 0 C33.27 0, 66.54 0, 160 0 M0 0 C39.84 0, 79.68 0, 160 0 M160 0 C160 23.38, 160 46.77, 160 60 M160 0 C160 23.13, 160 46.27, 160 60 M160 60 C100.83 60, 41.67 60, 0 60 M160 60 C117.36 60, 74.72 60, 0 60 M0 60 C0 42.75, 0 25.51, 0 0 M0 60 C0 45.35, 0 30.7, 0 0" stroke="#2f9e44" stroke-width="2" fill="none"></path></g><g transform="translate(1100 382.5) rotate(0 70 17.5)"><text x="70" y="NaN" font-family="Cascadia, Segoe UI Emoji" font-size="14px" fill="#e8590c" text-anchor="middle" style="white-space: pre;" direction="ltr">Email</text><text x="70" y="NaN" font-family="Cascadia, Segoe UI Emoji" font-size="14px" fill="#e8590c" text-anchor="middle" style="white-space: pre;" direction="ltr">Digest</text></g><g stroke-linecap="round" transform="translate(1090 370) rotate(0 80 30)"><path d="M0 0 L160 0 L160 60 L0 60" stroke="none" stroke-width="0" fill="#ffd8a8"></path><path d="M0 0 C33.52 0, 67.03 0, 160 0 M0 0 C33.69 0, 67.38 0, 160 0 M160 0 C160 21.51, 160 43.03, 160 60 M160 0 C160 13.93, 160 27.85, 160 60 M160 60 C98.28 60, 36.55 60, 0 60 M160 60 C121.33 60, 82.67 60, 0 60 M0 60 C0 39.4, 0 18.8, 0 0 M0 60 C0 47.56, 0 35.11, 0 0" stroke="#e8590c" stroke-width="2" fill="none"></path></g><g stroke-linecap="round"><g transform="translate(970 210) rotate(0 -60 95)"><path d="M0 0 C-20 31.67, -100 158.33, -120 190 M0 0 C-20 31.67, -100 158.33, -120 190" stroke="#868e96" stroke-width="2" fill="none"></path></g><g transform="translate(970 210) rotate(0 -60 95)"><path d="M-113.62 160.69 C-115.31 168.43, -116.99 176.18, -120 190 M-113.62 160.69 C-115.71 170.26, -117.79 179.84, -120 190" stroke="#868e96" stroke-width="2" fill="none"></path></g><g transform="translate(970 210) rotate(0 -60 95)"><path d="M-96.27 171.64 C-102.54 176.5, -108.81 181.35, -120 190 M-96.27 171.64 C-104.02 177.64, -111.78 183.64, -120 190" stroke="#868e96" stroke-width="2" fill="none"></path></g></g><g stroke-linecap="round"><g transform="translate(1050 250) rotate(0 -40 60)"><path d="M0 0 C-13.33 20, -66.67 100, -80 120 M0 0 C-13.33 20, -66.67 100, -80 120" stroke="#868e96" stroke-width="2" fill="none"></path></g><g transform="translate(1050 250) rotate(0 -40 60)"><path d="M-72.9 90.85 C-75.02 99.56, -77.14 108.27, -80 120 M-72.9 90.85 C-74.43 97.13, -75.96 103.41, -80 120" stroke="#868e96" stroke-width="2" fill="none"></path></g><g transform="translate(1050 250) rotate(0 -40 60)"><path d="M-55.83 102.24 C-63.05 107.54, -70.27 112.85, -80 120 M-55.83 102.24 C-61.03 106.06, -66.24 109.89, -80 120" stroke="#868e96" stroke-width="2" fill="none"></path></g></g><g stroke-linecap="round"><g transform="translate(1290 250) rotate(0 -60 60)"><path d="M0 0 C-20 20, -100 100, -120 120 M0 0 C-20 20, -100 100, -120 120" stroke="#868e96" stroke-width="2" fill="none"></path></g><g transform="translate(1290 250) rotate(0 -60 60)"><path d="M-107.32 92.81 C-112.39 103.68, -117.46 114.55, -120 120 M-107.32 92.81 C-111.26 101.26, -115.2 109.72, -120 120" stroke="#868e96" stroke-width="2" fill="none"></path></g><g transform="translate(1290 250) rotate(0 -60 60)"><path d="M-92.81 107.32 C-103.68 112.39, -114.55 117.46, -120 120 M-92.81 107.32 C-101.26 111.26, -109.72 115.2, -120 120" stroke="#868e96" stroke-width="2" fill="none"></path></g></g></svg>